  0
SECTION
  2
HEADER
  9
$ACADVER
  1
AC1009
  9
$DWGCODEPAGE
  3
ansi_1252
  9
$INSBASE
 10
0.0
 20
0.0
 30
0.0
  9
$EXTMIN
 10
1.799849173098863
 20
0.9611357384095669
 30
0.0
  9
$EXTMAX
 10
94.20015082690114
 20
47.03886426159043
 30
0.0
  9
$LIMMIN
 10
0.0
 20
0.0
  9
$LIMMAX
 10
12.0
 20
9.0
  9
$ORTHOMODE
 70
     0
  9
$REGENMODE
 70
     1
  9
$FILLMODE
 70
     1
  9
$QTEXTMODE
 70
     0
  9
$MIRRTEXT
 70
     1
  9
$DRAGMODE
 70
     2
  9
$LTSCALE
 40
1.0
  9
$OSMODE
 70
    37
  9
$ATTMODE
 70
     1
  9
$TEXTSIZE
 40
0.2
  9
$TRACEWID
 40
0.05
  9
$TEXTSTYLE
  7
STANDARD
  9
$CLAYER
  8
0
  9
$CELTYPE
  6
BYLAYER
  9
$CECOLOR
 62
   256
  9
$DIMSCALE
 40
1.0
  9
$DIMASZ
 40
0.18
  9
$DIMEXO
 40
0.0625
  9
$DIMDLI
 40
0.38
  9
$DIMRND
 40
0.0
  9
$DIMDLE
 40
0.0
  9
$DIMEXE
 40
0.18
  9
$DIMTP
 40
0.0
  9
$DIMTM
 40
0.0
  9
$DIMTXT
 40
0.18
  9
$DIMCEN
 40
0.09
  9
$DIMTSZ
 40
0.0
  9
$DIMTOL
 70
     0
  9
$DIMLIM
 70
     0
  9
$DIMTIH
 70
     1
  9
$DIMTOH
 70
     1
  9
$DIMSE1
 70
     0
  9
$DIMSE2
 70
     0
  9
$DIMTAD
 70
     0
  9
$DIMZIN
 70
     0
  9
$DIMBLK
  1

  9
$DIMASO
 70
     1
  9
$DIMSHO
 70
     1
  9
$DIMPOST
  1

  9
$DIMAPOST
  1

  9
$DIMALT
 70
     0
  9
$DIMALTD
 70
     2
  9
$DIMALTF
 40
25.4
  9
$DIMLFAC
 40
1.0
  9
$DIMTOFL
 70
     0
  9
$DIMTVP
 40
0.0
  9
$DIMTIX
 70
     0
  9
$DIMSOXD
 70
     0
  9
$DIMSAH
 70
     0
  9
$DIMBLK1
  1

  9
$DIMBLK2
  1

  9
$DIMSTYLE
  2
STANDARD
  9
$DIMCLRD
 70
     0
  9
$DIMCLRE
 70
     0
  9
$DIMCLRT
 70
     0
  9
$DIMTFAC
 40
1.0
  9
$DIMGAP
 40
0.09
  9
$LUNITS
 70
     2
  9
$LUPREC
 70
     4
  9
$SKETCHINC
 40
0.1
  9
$FILLETRAD
 40
0.5
  9
$AUNITS
 70
     0
  9
$AUPREC
 70
     0
  9
$MENU
  1
.
  9
$ELEVATION
 40
0.0
  9
$PELEVATION
 40
0.0
  9
$THICKNESS
 40
0.0
  9
$LIMCHECK
 70
     0
  9
$CHAMFERA
 40
0.0
  9
$CHAMFERB
 40
0.0
  9
$SKPOLY
 70
     0
  9
$TDCREATE
 40
2454910.5
  9
$TDUPDATE
 40
2457884.612921678
  9
$TDINDWG
 40
0.0000000116
  9
$TDUSRTIMER
 40
0.0000000116
  9
$USRTIMER
 70
     1
  9
$ANGBASE
 50
0.0
  9
$ANGDIR
 70
     0
  9
$PDMODE
 70
     0
  9
$PDSIZE
 40
0.0
  9
$PLINEWID
 40
0.0
  9
$COORDS
 70
     1
  9
$SPLFRAME
 70
     0
  9
$SPLINETYPE
 70
     6
  9
$SPLINESEGS
 70
     8
  9
$ATTDIA
 70
     0
  9
$ATTREQ
 70
     1
  9
$HANDLING
 70
     1
  9
$HANDSEED
  5
4F7
  9
$SURFTAB1
 70
     6
  9
$SURFTAB2
 70
     6
  9
$SURFTYPE
 70
     6
  9
$SURFU
 70
     6
  9
$SURFV
 70
     6
  9
$UCSNAME
  2

  9
$UCSORG
 10
0.0
 20
0.0
 30
0.0
  9
$UCSXDIR
 10
1.0
 20
0.0
 30
0.0
  9
$UCSYDIR
 10
0.0
 20
1.0
 30
0.0
  9
$PUCSNAME
  2

  9
$PUCSORG
 10
0.0
 20
0.0
 30
0.0
  9
$PUCSXDIR
 10
1.0
 20
0.0
 30
0.0
  9
$PUCSYDIR
 10
0.0
 20
1.0
 30
0.0
  9
$USERI1
 70
     0
  9
$USERI2
 70
     0
  9
$USERI3
 70
     0
  9
$USERI4
 70
     0
  9
$USERI5
 70
     0
  9
$USERR1
 40
0.0
  9
$USERR2
 40
0.0
  9
$USERR3
 40
0.0
  9
$USERR4
 40
0.0
  9
$USERR5
 40
0.0
  9
$WORLDVIEW
 70
     1
  9
$SHADEDGE
 70
     3
  9
$SHADEDIF
 70
    70
  9
$TILEMODE
 70
     1
  9
$MAXACTVP
 70
    64
  9
$PLIMCHECK
 70
     0
  9
$PEXTMIN
 10
1.000000000000000E+20
 20
1.000000000000000E+20
 30
1.000000000000000E+20
  9
$PEXTMAX
 10
-1.000000000000000E+20
 20
-1.000000000000000E+20
 30
-1.000000000000000E+20
  9
$PLIMMIN
 10
0.0
 20
0.0
  9
$PLIMMAX
 10
12.0
 20
9.0
  9
$UNITMODE
 70
     0
  9
$VISRETAIN
 70
     1
  9
$PLINEGEN
 70
     0
  9
$PSLTSCALE
 70
     1
  0
ENDSEC
  0
SECTION
  2
TABLES
  0
TABLE
  2
VPORT
 70
     1
  0
VPORT
  2
*ACTIVE
 70
     0
 10
0.0
 20
0.0
 11
1.0
 21
1.0
 12
10.42990654205607
 22
4.5
 13
0.0
 23
0.0
 14
0.5
 24
0.5
 15
0.5
 25
0.5
 16
0.0
 26
0.0
 36
1.0
 17
0.0
 27
0.0
 37
0.0
 40
9.0
 41
1.972972972850329
 42
50.0
 43
0.0
 44
0.0
 50
0.0
 51
0.0
 71
     0
 72
   100
 73
     1
 74
     3
 75
     0
 76
     0
 77
     0
 78
     0
  0
ENDTAB
  0
TABLE
  2
LTYPE
 70
     2
  0
LTYPE
  2
CONTINUOUS
 70
     0
  3
Solid line
 72
    65
 73
     0
 40
0.0
  0
LTYPE
  2
CONTINUOUS2
 70
     0
  3
Solid Line
 72
    65
 73
     0
 40
0.0
  0
ENDTAB
  0
TABLE
  2
LAYER
 70
     2
  0
LAYER
  2
0
 70
     0
 62
     7
  6
CONTINUOUS
  0
LAYER
  2
THREE_QUARTER_INCH_THRUCUT
 70
     0
 62
    18
  6
CONTINUOUS
  0
ENDTAB
  0
TABLE
  2
STYLE
 70
     1
  0
STYLE
  2
STANDARD
 70
     0
 40
0.0
 41
1.0
 50
0.0
 71
     0
 42
0.2
  3
txt
  4

  0
ENDTAB
  0
TABLE
  2
VIEW
 70
     0
  0
ENDTAB
  0
TABLE
  2
UCS
 70
     0
  0
ENDTAB
  0
TABLE
  2
APPID
 70
     1
  0
APPID
  2
ACAD
 70
     0
  0
ENDTAB
  0
TABLE
  2
DIMSTYLE
 70
     1
  0
DIMSTYLE
  2
STANDARD
 70
     0
  3

  4

  5

  6

  7

 40
1.0
 41
0.18
 42
0.0625
 43
0.38
 44
0.18
 45
0.0
 46
0.0
 47
0.0
 48
0.0
140
0.18
141
0.09
142
0.0
143
25.4
144
1.0
145
0.0
146
1.0
147
0.09
 71
     0
 72
     0
 73
     1
 74
     1
 75
     0
 76
     0
 77
     0
 78
     0
170
     0
171
     2
172
     0
173
     0
174
     0
175
     0
176
     0
177
     0
178
     0
  0
ENDTAB
  0
ENDSEC
  0
SECTION
  2
BLOCKS
  0
BLOCK
  8
0
  2
$MODEL_SPACE
 70
     0
 10
0.0
 20
0.0
 30
0.0
  3
$MODEL_SPACE
  1

  0
ENDBLK
  5
21
  8
0
  0
BLOCK
 67
     1
  8
0
  2
$PAPER_SPACE
 70
     0
 10
0.0
 20
0.0
 30
0.0
  3
$PAPER_SPACE
  1

  0
ENDBLK
  5
1D
 67
     1
  8
0
  0
ENDSEC
  0
SECTION
  2
ENTITIES
  0
POLYLINE
  5
70
  8
THREE_QUARTER_INCH_THRUCUT
 66
     1
 10
0.0
 20
0.0
 30
0.0
 70
     1
  0
VERTEX
  5
D5
  8
THREE_QUARTER_INCH_THRUCUT
 10
18.88205666223761
 20
4.844885005370429
 30
0.0
 42
0.4142135623730951
  0
VERTEX
  5
D6
  8
THREE_QUARTER_INCH_THRUCUT
 10
18.7520566622375
 20
4.714885005370434
 30
0.0
 42
0.4142135623730951
  0
VERTEX
  5
D7
  8
THREE_QUARTER_INCH_THRUCUT
 10
18.88205666223761
 20
4.584885005370438
 30
0.0
 42
0.4142135623730951
  0
VERTEX
  5
D8
  8
THREE_QUARTER_INCH_THRUCUT
 10
19.01205666223772
 20
4.714885005370434
 30
0.0
 42
0.4142135623730951
  0
SEQEND
  5
499
  8
THREE_QUARTER_INCH_THRUCUT
  0
POLYLINE
  5
71
  8
THREE_QUARTER_INCH_THRUCUT
 66
     1
 10
0.0
 20
0.0
 30
0.0
 70
     1
  0
VERTEX
  5
D9
  8
THREE_QUARTER_INCH_THRUCUT
 10
11.88205666223761
 20
4.844885005370429
 30
0.0
 42
0.4142135623730951
  0
VERTEX
  5
DA
  8
THREE_QUARTER_INCH_THRUCUT
 10
11.7520566622375
 20
4.714885005370434
 30
0.0
 42
0.4142135623730951
  0
VERTEX
  5
DB
  8
THREE_QUARTER_INCH_THRUCUT
 10
11.88205666223761
 20
4.584885005370438
 30
0.0
 42
0.4142135623730951
  0
VERTEX
  5
DC
  8
THREE_QUARTER_INCH_THRUCUT
 10
12.01205666223772
 20
4.714885005370434
 30
0.0
 42
0.4142135623730951
  0
SEQEND
  5
49A
  8
THREE_QUARTER_INCH_THRUCUT
  0
POLYLINE
  5
72
  8
THREE_QUARTER_INCH_THRUCUT
 66
     1
 10
0.0
 20
0.0
 30
0.0
 70
     1
  0
VERTEX
  5
DD
  8
THREE_QUARTER_INCH_THRUCUT
 10
38.38205666223761
 20
4.844885005370429
 30
0.0
 42
0.4142135623730951
  0
VERTEX
  5
DE
  8
THREE_QUARTER_INCH_THRUCUT
 10
38.2520566622375
 20
4.714885005370434
 30
0.0
 42
0.4142135623730951
  0
VERTEX
  5
DF
  8
THREE_QUARTER_INCH_THRUCUT
 10
38.38205666223761
 20
4.584885005370438
 30
0.0
 42
0.4142135623730951
  0
VERTEX
  5
E0
  8
THREE_QUARTER_INCH_THRUCUT
 10
38.51205666223772
 20
4.714885005370434
 30
0.0
 42
0.4142135623730951
  0
SEQEND
  5
49B
  8
THREE_QUARTER_INCH_THRUCUT
  0
POLYLINE
  5
73
  8
THREE_QUARTER_INCH_THRUCUT
 66
     1
 10
0.0
 20
0.0
 30
0.0
 70
     1
  0
VERTEX
  5
E1
  8
THREE_QUARTER_INCH_THRUCUT
 10
18.88205643171606
 20
4.844874739231273
 30
0.0
 42
0.4142135623730951
  0
VERTEX
  5
E2
  8
THREE_QUARTER_INCH_THRUCUT
 10
18.75205643171595
 20
4.714874739231277
 30
0.0
 42
0.4142135623730951
  0
VERTEX
  5
E3
  8
THREE_QUARTER_INCH_THRUCUT
 10
18.88205643171606
 20
4.584874739231282
 30
0.0
 42
0.4142135623730951
  0
VERTEX
  5
E4
  8
THREE_QUARTER_INCH_THRUCUT
 10
19.01205643171617
 20
4.714874739231277
 30
0.0
 42
0.4142135623730951
  0
SEQEND
  5
49C
  8
THREE_QUARTER_INCH_THRUCUT
  0
POLYLINE
  5
74
  8
THREE_QUARTER_INCH_THRUCUT
 66
     1
 10
0.0
 20
0.0
 30
0.0
 70
     1
  0
VERTEX
  5
E5
  8
THREE_QUARTER_INCH_THRUCUT
 10
11.88205643171606
 20
4.844874739231273
 30
0.0
 42
0.4142135623730951
  0
VERTEX
  5
E6
  8
THREE_QUARTER_INCH_THRUCUT
 10
11.75205643171595
 20
4.714874739231277
 30
0.0
 42
0.4142135623730951
  0
VERTEX
  5
E7
  8
THREE_QUARTER_INCH_THRUCUT
 10
11.88205643171606
 20
4.584874739231282
 30
0.0
 42
0.4142135623730951
  0
VERTEX
  5
E8
  8
THREE_QUARTER_INCH_THRUCUT
 10
12.01205643171617
 20
4.714874739231277
 30
0.0
 42
0.4142135623730951
  0
SEQEND
  5
49D
  8
THREE_QUARTER_INCH_THRUCUT
  0
POLYLINE
  5
75
  8
THREE_QUARTER_INCH_THRUCUT
 66
     1
 10
0.0
 20
0.0
 30
0.0
 70
     1
  0
VERTEX
  5
E9
  8
THREE_QUARTER_INCH_THRUCUT
 10
32.68206116682493
 20
4.844885040768531
 30
0.0
 42
0.4142135623730951
  0
VERTEX
  5
EA
  8
THREE_QUARTER_INCH_THRUCUT
 10
32.55206116682482
 20
4.714885040768536
 30
0.0
 42
0.4142135623730951
  0
VERTEX
  5
EB
  8
THREE_QUARTER_INCH_THRUCUT
 10
32.68206116682493
 20
4.58488504076854
 30
0.0
 42
0.4142135623730951
  0
VERTEX
  5
EC
  8
THREE_QUARTER_INCH_THRUCUT
 10
32.81206116682504
 20
4.714885040768536
 30
0.0
 42
0.4142135623730951
  0
SEQEND
  5
49E
  8
THREE_QUARTER_INCH_THRUCUT
  0
POLYLINE
  5
76
  8
THREE_QUARTER_INCH_THRUCUT
 66
     1
 10
0.0
 20
0.0
 30
0.0
 70
     1
  0
VERTEX
  5
ED
  8
THREE_QUARTER_INCH_THRUCUT
 10
25.78205881046367
 20
4.844879902599132
 30
0.0
 42
0.4142135623730951
  0
VERTEX
  5
EE
  8
THREE_QUARTER_INCH_THRUCUT
 10
25.65205881046356
 20
4.714879902599137
 30
0.0
 42
0.4142135623730951
  0
VERTEX
  5
EF
  8
THREE_QUARTER_INCH_THRUCUT
 10
25.78205881046367
 20
4.584879902599141
 30
0.0
 42
0.4142135623730951
  0
VERTEX
  5
F0
  8
THREE_QUARTER_INCH_THRUCUT
 10
25.91205881046378
 20
4.714879902599137
 30
0.0
 42
0.4142135623730951
  0
SEQEND
  5
49F
  8
THREE_QUARTER_INCH_THRUCUT
  0
POLYLINE
  5
77
  8
THREE_QUARTER_INCH_THRUCUT
 66
     1
 10
0.0
 20
0.0
 30
0.0
 70
     1
  0
VERTEX
  5
F1
  8
THREE_QUARTER_INCH_THRUCUT
 10
32.68206117798665
 20
3.373876883688013
 30
0.0
 42
0.4142135623730951
  0
VERTEX
  5
F2
  8
THREE_QUARTER_INCH_THRUCUT
 10
32.55206117798654
 20
3.243876883688017
 30
0.0
 42
0.4142135623730951
  0
VERTEX
  5
F3
  8
THREE_QUARTER_INCH_THRUCUT
 10
32.68206117798665
 20
3.113876883688022
 30
0.0
 42
0.4142135623730951
  0
VERTEX
  5
F4
  8
THREE_QUARTER_INCH_THRUCUT
 10
32.81206117798676
 20
3.243876883688017
 30
0.0
 42
0.4142135623730951
  0
SEQEND
  5
4A0
  8
THREE_QUARTER_INCH_THRUCUT
  0
POLYLINE
  5
78
  8
THREE_QUARTER_INCH_THRUCUT
 66
     1
 10
0.0
 20
0.0
 30
0.0
 70
     1
  0
VERTEX
  5
F5
  8
THREE_QUARTER_INCH_THRUCUT
 10
18.28206117798656
 20
3.373876883688013
 30
0.0
 42
0.4142135623730951
  0
VERTEX
  5
F6
  8
THREE_QUARTER_INCH_THRUCUT
 10
18.15206117798667
 20
3.243876883688017
 30
0.0
 42
0.4142135623730951
  0
VERTEX
  5
F7
  8
THREE_QUARTER_INCH_THRUCUT
 10
18.28206117798656
 20
3.113876883688022
 30
0.0
 42
0.4142135623730951
  0
VERTEX
  5
F8
  8
THREE_QUARTER_INCH_THRUCUT
 10
18.41206117798666
 20
3.243876883688017
 30
0.0
 42
0.4142135623730951
  0
SEQEND
  5
4A1
  8
THREE_QUARTER_INCH_THRUCUT
  0
POLYLINE
  5
79
  8
THREE_QUARTER_INCH_THRUCUT
 66
     1
 10
0.0
 20
0.0
 30
0.0
 70
     1
  0
VERTEX
  5
F9
  8
THREE_QUARTER_INCH_THRUCUT
 10
11.08206117798674
 20
3.373876883688013
 30
0.0
 42
0.4142135623730951
  0
VERTEX
  5
FA
  8
THREE_QUARTER_INCH_THRUCUT
 10
10.95206117798663
 20
3.243876883688017
 30
0.0
 42
0.4142135623730951
  0
VERTEX
  5
FB
  8
THREE_QUARTER_INCH_THRUCUT
 10
11.08206117798674
 20
3.113876883688022
 30
0.0
 42
0.4142135623730951
  0
VERTEX
  5
FC
  8
THREE_QUARTER_INCH_THRUCUT
 10
11.21206117798685
 20
3.243876883688017
 30
0.0
 42
0.4142135623730951
  0
SEQEND
  5
4A2
  8
THREE_QUARTER_INCH_THRUCUT
  0
POLYLINE
  5
7A
  8
THREE_QUARTER_INCH_THRUCUT
 66
     1
 10
0.0
 20
0.0
 30
0.0
 70
     1
  0
VERTEX
  5
FD
  8
THREE_QUARTER_INCH_THRUCUT
 10
38.38206117798669
 20
3.373876883688013
 30
0.0
 42
0.4142135623730951
  0
VERTEX
  5
FE
  8
THREE_QUARTER_INCH_THRUCUT
 10
38.25206117798681
 20
3.243876883688017
 30
0.0
 42
0.4142135623730951
  0
VERTEX
  5
FF
  8
THREE_QUARTER_INCH_THRUCUT
 10
38.38206117798669
 20
3.113876883688022
 30
0.0
 42
0.4142135623730951
  0
VERTEX
  5
100
  8
THREE_QUARTER_INCH_THRUCUT
 10
38.51206117798657
 20
3.243876883688017
 30
0.0
 42
0.4142135623730951
  0
SEQEND
  5
4A3
  8
THREE_QUARTER_INCH_THRUCUT
  0
POLYLINE
  5
7B
  8
THREE_QUARTER_INCH_THRUCUT
 66
     1
 10
0.0
 20
0.0
 30
0.0
 70
     1
  0
VERTEX
  5
101
  8
THREE_QUARTER_INCH_THRUCUT
 10
32.6820609474651
 20
3.373866617548856
 30
0.0
 42
0.4142135623730951
  0
VERTEX
  5
102
  8
THREE_QUARTER_INCH_THRUCUT
 10
32.55206094746499
 20
3.243866617548861
 30
0.0
 42
0.4142135623730951
  0
VERTEX
  5
103
  8
THREE_QUARTER_INCH_THRUCUT
 10
32.6820609474651
 20
3.113866617548865
 30
0.0
 42
0.4142135623730951
  0
VERTEX
  5
104
  8
THREE_QUARTER_INCH_THRUCUT
 10
32.81206094746521
 20
3.243866617548861
 30
0.0
 42
0.4142135623730951
  0
SEQEND
  5
4A4
  8
THREE_QUARTER_INCH_THRUCUT
  0
POLYLINE
  5
7C
  8
THREE_QUARTER_INCH_THRUCUT
 66
     1
 10
0.0
 20
0.0
 30
0.0
 70
     1
  0
VERTEX
  5
105
  8
THREE_QUARTER_INCH_THRUCUT
 10
18.28206094746501
 20
3.373866617548856
 30
0.0
 42
0.4142135623730951
  0
VERTEX
  5
106
  8
THREE_QUARTER_INCH_THRUCUT
 10
18.15206094746512
 20
3.243866617548861
 30
0.0
 42
0.4142135623730951
  0
VERTEX
  5
107
  8
THREE_QUARTER_INCH_THRUCUT
 10
18.28206094746501
 20
3.113866617548865
 30
0.0
 42
0.4142135623730951
  0
VERTEX
  5
108
  8
THREE_QUARTER_INCH_THRUCUT
 10
18.41206094746511
 20
3.243866617548861
 30
0.0
 42
0.4142135623730951
  0
SEQEND
  5
4A5
  8
THREE_QUARTER_INCH_THRUCUT
  0
POLYLINE
  5
7D
  8
THREE_QUARTER_INCH_THRUCUT
 66
     1
 10
0.0
 20
0.0
 30
0.0
 70
     1
  0
VERTEX
  5
109
  8
THREE_QUARTER_INCH_THRUCUT
 10
11.08206094746519
 20
3.373866617548856
 30
0.0
 42
0.4142135623730951
  0
VERTEX
  5
10A
  8
THREE_QUARTER_INCH_THRUCUT
 10
10.95206094746508
 20
3.243866617548861
 30
0.0
 42
0.4142135623730951
  0
VERTEX
  5
10B
  8
THREE_QUARTER_INCH_THRUCUT
 10
11.08206094746519
 20
3.113866617548865
 30
0.0
 42
0.4142135623730951
  0
VERTEX
  5
10C
  8
THREE_QUARTER_INCH_THRUCUT
 10
11.2120609474653
 20
3.243866617548861
 30
0.0
 42
0.4142135623730951
  0
SEQEND
  5
4A6
  8
THREE_QUARTER_INCH_THRUCUT
  0
POLYLINE
  5
7E
  8
THREE_QUARTER_INCH_THRUCUT
 66
     1
 10
0.0
 20
0.0
 30
0.0
 70
     1
  0
VERTEX
  5
10D
  8
THREE_QUARTER_INCH_THRUCUT
 10
32.68206117798665
 20
3.373876883688013
 30
0.0
 42
0.4142135623730951
  0
VERTEX
  5
10E
  8
THREE_QUARTER_INCH_THRUCUT
 10
32.55206117798654
 20
3.243876883688017
 30
0.0
 42
0.4142135623730951
  0
VERTEX
  5
10F
  8
THREE_QUARTER_INCH_THRUCUT
 10
32.68206117798665
 20
3.113876883688022
 30
0.0
 42
0.4142135623730951
  0
VERTEX
  5
110
  8
THREE_QUARTER_INCH_THRUCUT
 10
32.81206117798676
 20
3.243876883688017
 30
0.0
 42
0.4142135623730951
  0
SEQEND
  5
4A7
  8
THREE_QUARTER_INCH_THRUCUT
  0
POLYLINE
  5
7F
  8
THREE_QUARTER_INCH_THRUCUT
 66
     1
 10
0.0
 20
0.0
 30
0.0
 70
     1
  0
VERTEX
  5
111
  8
THREE_QUARTER_INCH_THRUCUT
 10
32.6820609474651
 20
3.373866617548856
 30
0.0
 42
0.4142135623730951
  0
VERTEX
  5
112
  8
THREE_QUARTER_INCH_THRUCUT
 10
32.55206094746499
 20
3.243866617548861
 30
0.0
 42
0.4142135623730951
  0
VERTEX
  5
113
  8
THREE_QUARTER_INCH_THRUCUT
 10
32.6820609474651
 20
3.113866617548865
 30
0.0
 42
0.4142135623730951
  0
VERTEX
  5
114
  8
THREE_QUARTER_INCH_THRUCUT
 10
32.81206094746521
 20
3.243866617548861
 30
0.0
 42
0.4142135623730951
  0
SEQEND
  5
4A8
  8
THREE_QUARTER_INCH_THRUCUT
  0
POLYLINE
  5
80
  8
THREE_QUARTER_INCH_THRUCUT
 66
     1
 10
0.0
 20
0.0
 30
0.0
 70
     1
  0
VERTEX
  5
115
  8
THREE_QUARTER_INCH_THRUCUT
 10
25.4820610564157
 20
3.373871743297173
 30
0.0
 42
0.4142135623730951
  0
VERTEX
  5
116
  8
THREE_QUARTER_INCH_THRUCUT
 10
25.35206105641581
 20
3.243871743297177
 30
0.0
 42
0.4142135623730951
  0
VERTEX
  5
117
  8
THREE_QUARTER_INCH_THRUCUT
 10
25.4820610564157
 20
3.113871743297182
 30
0.0
 42
0.4142135623730951
  0
VERTEX
  5
118
  8
THREE_QUARTER_INCH_THRUCUT
 10
25.6120610564158
 20
3.243871743297177
 30
0.0
 42
0.4142135623730951
  0
SEQEND
  5
4A9
  8
THREE_QUARTER_INCH_THRUCUT
  0
POLYLINE
  5
81
  8
THREE_QUARTER_INCH_THRUCUT
 66
     1
 10
0.0
 20
0.0
 30
0.0
 70
     1
  0
VERTEX
  5
119
  8
THREE_QUARTER_INCH_THRUCUT
 10
31.02042202250525
 20
9.21125688530455
 30
0.0
 42
-0.4142135623730951
  0
VERTEX
  5
11A
  8
THREE_QUARTER_INCH_THRUCUT
 10
31.15042202250536
 20
9.081256885304555
 30
0.0
 42
-0.4142135623730951
  0
VERTEX
  5
11B
  8
THREE_QUARTER_INCH_THRUCUT
 10
31.02042202250525
 20
8.95125688530456
 30
0.0
 42
-0.4142135623730951
  0
VERTEX
  5
11C
  8
THREE_QUARTER_INCH_THRUCUT
 10
30.89042202250514
 20
9.081256885304555
 30
0.0
 42
-0.4142135623730951
  0
SEQEND
  5
4AA
  8
THREE_QUARTER_INCH_THRUCUT
  0
POLYLINE
  5
82
  8
THREE_QUARTER_INCH_THRUCUT
 66
     1
 10
0.0
 20
0.0
 30
0.0
 70
     1
  0
VERTEX
  5
11D
  8
THREE_QUARTER_INCH_THRUCUT
 10
38.02042202250525
 20
9.21125688530455
 30
0.0
 42
-0.4142135623730951
  0
VERTEX
  5
11E
  8
THREE_QUARTER_INCH_THRUCUT
 10
38.15042202250536
 20
9.081256885304555
 30
0.0
 42
-0.4142135623730951
  0
VERTEX
  5
11F
  8
THREE_QUARTER_INCH_THRUCUT
 10
38.02042202250525
 20
8.95125688530456
 30
0.0
 42
-0.4142135623730951
  0
VERTEX
  5
120
  8
THREE_QUARTER_INCH_THRUCUT
 10
37.89042202250514
 20
9.081256885304555
 30
0.0
 42
-0.4142135623730951
  0
SEQEND
  5
4AB
  8
THREE_QUARTER_INCH_THRUCUT
  0
POLYLINE
  5
83
  8
THREE_QUARTER_INCH_THRUCUT
 66
     1
 10
0.0
 20
0.0
 30
0.0
 70
     1
  0
VERTEX
  5
121
  8
THREE_QUARTER_INCH_THRUCUT
 10
11.52042202250525
 20
9.21125688530455
 30
0.0
 42
-0.4142135623730951
  0
VERTEX
  5
122
  8
THREE_QUARTER_INCH_THRUCUT
 10
11.65042202250536
 20
9.081256885304555
 30
0.0
 42
-0.4142135623730951
  0
VERTEX
  5
123
  8
THREE_QUARTER_INCH_THRUCUT
 10
11.52042202250525
 20
8.95125688530456
 30
0.0
 42
-0.4142135623730951
  0
VERTEX
  5
124
  8
THREE_QUARTER_INCH_THRUCUT
 10
11.39042202250514
 20
9.081256885304555
 30
0.0
 42
-0.4142135623730951
  0
SEQEND
  5
4AC
  8
THREE_QUARTER_INCH_THRUCUT
  0
POLYLINE
  5
84
  8
THREE_QUARTER_INCH_THRUCUT
 66
     1
 10
0.0
 20
0.0
 30
0.0
 70
     1
  0
VERTEX
  5
125
  8
THREE_QUARTER_INCH_THRUCUT
 10
17.22041751791793
 20
9.211256920702652
 30
0.0
 42
-0.4142135623730951
  0
VERTEX
  5
126
  8
THREE_QUARTER_INCH_THRUCUT
 10
17.35041751791804
 20
9.081256920702657
 30
0.0
 42
-0.4142135623730951
  0
VERTEX
  5
127
  8
THREE_QUARTER_INCH_THRUCUT
 10
17.22041751791793
 20
8.951256920702662
 30
0.0
 42
-0.4142135623730951
  0
VERTEX
  5
128
  8
THREE_QUARTER_INCH_THRUCUT
 10
17.09041751791782
 20
9.081256920702657
 30
0.0
 42
-0.4142135623730951
  0
SEQEND
  5
4AD
  8
THREE_QUARTER_INCH_THRUCUT
  0
POLYLINE
  5
85
  8
THREE_QUARTER_INCH_THRUCUT
 66
     1
 10
0.0
 20
0.0
 30
0.0
 70
     1
  0
VERTEX
  5
129
  8
THREE_QUARTER_INCH_THRUCUT
 10
24.12041987427919
 20
9.211251782533253
 30
0.0
 42
-0.4142135623730951
  0
VERTEX
  5
12A
  8
THREE_QUARTER_INCH_THRUCUT
 10
24.2504198742793
 20
9.081251782533258
 30
0.0
 42
-0.4142135623730951
  0
VERTEX
  5
12B
  8
THREE_QUARTER_INCH_THRUCUT
 10
24.12041987427919
 20
8.951251782533262
 30
0.0
 42
-0.4142135623730951
  0
VERTEX
  5
12C
  8
THREE_QUARTER_INCH_THRUCUT
 10
23.99041987427908
 20
9.081251782533258
 30
0.0
 42
-0.4142135623730951
  0
SEQEND
  5
4AE
  8
THREE_QUARTER_INCH_THRUCUT
  0
POLYLINE
  5
86
  8
THREE_QUARTER_INCH_THRUCUT
 66
     1
 10
0.0
 20
0.0
 30
0.0
 70
     1
  0
VERTEX
  5
12D
  8
THREE_QUARTER_INCH_THRUCUT
 10
17.22041750675621
 20
7.740248763622134
 30
0.0
 42
-0.4142135623730951
  0
VERTEX
  5
12E
  8
THREE_QUARTER_INCH_THRUCUT
 10
17.35041750675632
 20
7.610248763622138
 30
0.0
 42
-0.4142135623730951
  0
VERTEX
  5
12F
  8
THREE_QUARTER_INCH_THRUCUT
 10
17.22041750675621
 20
7.480248763622143
 30
0.0
 42
-0.4142135623730951
  0
VERTEX
  5
130
  8
THREE_QUARTER_INCH_THRUCUT
 10
17.0904175067561
 20
7.610248763622138
 30
0.0
 42
-0.4142135623730951
  0
SEQEND
  5
4AF
  8
THREE_QUARTER_INCH_THRUCUT
  0
POLYLINE
  5
87
  8
THREE_QUARTER_INCH_THRUCUT
 66
     1
 10
0.0
 20
0.0
 30
0.0
 70
     1
  0
VERTEX
  5
131
  8
THREE_QUARTER_INCH_THRUCUT
 10
31.6204175067563
 20
7.740248763622134
 30
0.0
 42
-0.4142135623730951
  0
VERTEX
  5
132
  8
THREE_QUARTER_INCH_THRUCUT
 10
31.75041750675619
 20
7.610248763622138
 30
0.0
 42
-0.4142135623730951
  0
VERTEX
  5
133
  8
THREE_QUARTER_INCH_THRUCUT
 10
31.6204175067563
 20
7.480248763622143
 30
0.0
 42
-0.4142135623730951
  0
VERTEX
  5
134
  8
THREE_QUARTER_INCH_THRUCUT
 10
31.4904175067562
 20
7.610248763622138
 30
0.0
 42
-0.4142135623730951
  0
SEQEND
  5
4B0
  8
THREE_QUARTER_INCH_THRUCUT
  0
POLYLINE
  5
88
  8
THREE_QUARTER_INCH_THRUCUT
 66
     1
 10
0.0
 20
0.0
 30
0.0
 70
     1
  0
VERTEX
  5
135
  8
THREE_QUARTER_INCH_THRUCUT
 10
38.82041750675612
 20
7.740248763622134
 30
0.0
 42
-0.4142135623730951
  0
VERTEX
  5
136
  8
THREE_QUARTER_INCH_THRUCUT
 10
38.95041750675623
 20
7.610248763622138
 30
0.0
 42
-0.4142135623730951
  0
VERTEX
  5
137
  8
THREE_QUARTER_INCH_THRUCUT
 10
38.82041750675612
 20
7.480248763622143
 30
0.0
 42
-0.4142135623730951
  0
VERTEX
  5
138
  8
THREE_QUARTER_INCH_THRUCUT
 10
38.69041750675601
 20
7.610248763622138
 30
0.0
 42
-0.4142135623730951
  0
SEQEND
  5
4B1
  8
THREE_QUARTER_INCH_THRUCUT
  0
POLYLINE
  5
89
  8
THREE_QUARTER_INCH_THRUCUT
 66
     1
 10
0.0
 20
0.0
 30
0.0
 70
     1
  0
VERTEX
  5
139
  8
THREE_QUARTER_INCH_THRUCUT
 10
11.52041750675617
 20
7.740248763622134
 30
0.0
 42
-0.4142135623730951
  0
VERTEX
  5
13A
  8
THREE_QUARTER_INCH_THRUCUT
 10
11.65041750675605
 20
7.610248763622138
 30
0.0
 42
-0.4142135623730951
  0
VERTEX
  5
13B
  8
THREE_QUARTER_INCH_THRUCUT
 10
11.52041750675617
 20
7.480248763622143
 30
0.0
 42
-0.4142135623730951
  0
VERTEX
  5
13C
  8
THREE_QUARTER_INCH_THRUCUT
 10
11.39041750675629
 20
7.610248763622138
 30
0.0
 42
-0.4142135623730951
  0
SEQEND
  5
4B2
  8
THREE_QUARTER_INCH_THRUCUT
  0
POLYLINE
  5
8A
  8
THREE_QUARTER_INCH_THRUCUT
 66
     1
 10
0.0
 20
0.0
 30
0.0
 70
     1
  0
VERTEX
  5
13D
  8
THREE_QUARTER_INCH_THRUCUT
 10
17.22041773727776
 20
7.740238497482977
 30
0.0
 42
-0.4142135623730951
  0
VERTEX
  5
13E
  8
THREE_QUARTER_INCH_THRUCUT
 10
17.35041773727787
 20
7.610238497482982
 30
0.0
 42
-0.4142135623730951
  0
VERTEX
  5
13F
  8
THREE_QUARTER_INCH_THRUCUT
 10
17.22041773727776
 20
7.480238497482986
 30
0.0
 42
-0.4142135623730951
  0
VERTEX
  5
140
  8
THREE_QUARTER_INCH_THRUCUT
 10
17.09041773727765
 20
7.610238497482982
 30
0.0
 42
-0.4142135623730951
  0
SEQEND
  5
4B3
  8
THREE_QUARTER_INCH_THRUCUT
  0
POLYLINE
  5
8B
  8
THREE_QUARTER_INCH_THRUCUT
 66
     1
 10
0.0
 20
0.0
 30
0.0
 70
     1
  0
VERTEX
  5
141
  8
THREE_QUARTER_INCH_THRUCUT
 10
31.62041773727785
 20
7.740238497482977
 30
0.0
 42
-0.4142135623730951
  0
VERTEX
  5
142
  8
THREE_QUARTER_INCH_THRUCUT
 10
31.75041773727774
 20
7.610238497482982
 30
0.0
 42
-0.4142135623730951
  0
VERTEX
  5
143
  8
THREE_QUARTER_INCH_THRUCUT
 10
31.62041773727785
 20
7.480238497482986
 30
0.0
 42
-0.4142135623730951
  0
VERTEX
  5
144
  8
THREE_QUARTER_INCH_THRUCUT
 10
31.49041773727775
 20
7.610238497482982
 30
0.0
 42
-0.4142135623730951
  0
SEQEND
  5
4B4
  8
THREE_QUARTER_INCH_THRUCUT
  0
POLYLINE
  5
8C
  8
THREE_QUARTER_INCH_THRUCUT
 66
     1
 10
0.0
 20
0.0
 30
0.0
 70
     1
  0
VERTEX
  5
145
  8
THREE_QUARTER_INCH_THRUCUT
 10
17.22041750675621
 20
7.740248763622134
 30
0.0
 42
-0.4142135623730951
  0
VERTEX
  5
146
  8
THREE_QUARTER_INCH_THRUCUT
 10
17.35041750675632
 20
7.610248763622138
 30
0.0
 42
-0.4142135623730951
  0
VERTEX
  5
147
  8
THREE_QUARTER_INCH_THRUCUT
 10
17.22041750675621
 20
7.480248763622143
 30
0.0
 42
-0.4142135623730951
  0
VERTEX
  5
148
  8
THREE_QUARTER_INCH_THRUCUT
 10
17.0904175067561
 20
7.610248763622138
 30
0.0
 42
-0.4142135623730951
  0
SEQEND
  5
4B5
  8
THREE_QUARTER_INCH_THRUCUT
  0
POLYLINE
  5
8D
  8
THREE_QUARTER_INCH_THRUCUT
 66
     1
 10
0.0
 20
0.0
 30
0.0
 70
     1
  0
VERTEX
  5
149
  8
THREE_QUARTER_INCH_THRUCUT
 10
17.22041773727776
 20
7.740238497482977
 30
0.0
 42
-0.4142135623730951
  0
VERTEX
  5
14A
  8
THREE_QUARTER_INCH_THRUCUT
 10
17.35041773727787
 20
7.610238497482982
 30
0.0
 42
-0.4142135623730951
  0
VERTEX
  5
14B
  8
THREE_QUARTER_INCH_THRUCUT
 10
17.22041773727776
 20
7.480238497482986
 30
0.0
 42
-0.4142135623730951
  0
VERTEX
  5
14C
  8
THREE_QUARTER_INCH_THRUCUT
 10
17.09041773727765
 20
7.610238497482982
 30
0.0
 42
-0.4142135623730951
  0
SEQEND
  5
4B6
  8
THREE_QUARTER_INCH_THRUCUT
  0
POLYLINE
  5
8E
  8
THREE_QUARTER_INCH_THRUCUT
 66
     1
 10
0.0
 20
0.0
 30
0.0
 70
     1
  0
VERTEX
  5
14D
  8
THREE_QUARTER_INCH_THRUCUT
 10
24.42041762832717
 20
7.740243623231294
 30
0.0
 42
-0.4142135623730951
  0
VERTEX
  5
14E
  8
THREE_QUARTER_INCH_THRUCUT
 10
24.55041762832705
 20
7.610243623231298
 30
0.0
 42
-0.4142135623730951
  0
VERTEX
  5
14F
  8
THREE_QUARTER_INCH_THRUCUT
 10
24.42041762832717
 20
7.480243623231303
 30
0.0
 42
-0.4142135623730951
  0
VERTEX
  5
150
  8
THREE_QUARTER_INCH_THRUCUT
 10
24.29041762832706
 20
7.610243623231298
 30
0.0
 42
-0.4142135623730951
  0
SEQEND
  5
4B7
  8
THREE_QUARTER_INCH_THRUCUT
  0
POLYLINE
  5
8F
  8
THREE_QUARTER_INCH_THRUCUT
 66
     1
 10
0.0
 20
0.0
 30
0.0
 70
     1
  0
VERTEX
  5
151
  8
THREE_QUARTER_INCH_THRUCUT
 10
9.15324698173422
 20
2.464896825245091
 30
0.0
  0
VERTEX
  5
152
  8
THREE_QUARTER_INCH_THRUCUT
 10
39.13205441194587
 20
2.464875798454614
 30
0.0
  0
VERTEX
  5
153
  8
THREE_QUARTER_INCH_THRUCUT
 10
39.13205693266267
 20
5.464869805916976
 30
0.0
  0
VERTEX
  5
154
  8
THREE_QUARTER_INCH_THRUCUT
 10
11.44170502154928
 20
5.464895250519476
 30
0.0
  0
SEQEND
  5
4B8
  8
THREE_QUARTER_INCH_THRUCUT
  0
POLYLINE
  5
90
  8
THREE_QUARTER_INCH_THRUCUT
 66
     1
 10
0.0
 20
0.0
 30
0.0
 70
     1
  0
VERTEX
  5
155
  8
THREE_QUARTER_INCH_THRUCUT
 10
40.74923170300864
 20
6.831268705179212
 30
0.0
  0
VERTEX
  5
156
  8
THREE_QUARTER_INCH_THRUCUT
 10
10.77042427279699
 20
6.831247678388735
 30
0.0
  0
VERTEX
  5
157
  8
THREE_QUARTER_INCH_THRUCUT
 10
10.77042175208019
 20
9.831241685851097
 30
0.0
  0
VERTEX
  5
158
  8
THREE_QUARTER_INCH_THRUCUT
 10
38.46077366319359
 20
9.831267130453597
 30
0.0
  0
SEQEND
  5
4B9
  8
THREE_QUARTER_INCH_THRUCUT
  0
POLYLINE
  5
91
  8
THREE_QUARTER_INCH_THRUCUT
 66
     1
 10
0.0
 20
0.0
 30
0.0
 70
     1
  0
VERTEX
  5
159
  8
THREE_QUARTER_INCH_THRUCUT
 10
70.26102895548854
 20
5.570165484441773
 30
0.0
 42
0.4142135623730951
  0
VERTEX
  5
15A
  8
THREE_QUARTER_INCH_THRUCUT
 10
70.39103178292032
 20
5.700162656948251
 30
0.0
 42
0.4142135623730951
  0
VERTEX
  5
15B
  8
THREE_QUARTER_INCH_THRUCUT
 10
70.26103461041396
 20
5.830165484380316
 30
0.0
 42
0.4142135623730951
  0
VERTEX
  5
15C
  8
THREE_QUARTER_INCH_THRUCUT
 10
70.13103178298195
 20
5.700168311873725
 30
0.0
 42
0.4142135623730951
  0
SEQEND
  5
4BA
  8
THREE_QUARTER_INCH_THRUCUT
  0
POLYLINE
  5
92
  8
THREE_QUARTER_INCH_THRUCUT
 66
     1
 10
0.0
 20
0.0
 30
0.0
 70
     1
  0
VERTEX
  5
15D
  8
THREE_QUARTER_INCH_THRUCUT
 10
52.25017804295601
 20
7.070191273682681
 30
0.0
 42
0.4142135623730951
  0
VERTEX
  5
15E
  8
THREE_QUARTER_INCH_THRUCUT
 10
52.38018087038779
 20
7.200188446189159
 30
0.0
 42
0.4142135623730951
  0
VERTEX
  5
15F
  8
THREE_QUARTER_INCH_THRUCUT
 10
52.25018369788143
 20
7.330191273621253
 30
0.0
 42
0.4142135623730951
  0
VERTEX
  5
160
  8
THREE_QUARTER_INCH_THRUCUT
 10
52.12018087044942
 20
7.200194101114633
 30
0.0
 42
0.4142135623730951
  0
SEQEND
  5
4BB
  8
THREE_QUARTER_INCH_THRUCUT
  0
POLYLINE
  5
93
  8
THREE_QUARTER_INCH_THRUCUT
 66
     1
 10
0.0
 20
0.0
 30
0.0
 70
     1
  0
VERTEX
  5
161
  8
THREE_QUARTER_INCH_THRUCUT
 10
52.25019104410319
 20
2.687312461642776
 30
0.0
 42
0.4142135623730951
  0
VERTEX
  5
162
  8
THREE_QUARTER_INCH_THRUCUT
 10
52.38019387153543
 20
2.817309634149311
 30
0.0
 42
0.4142135623730951
  0
VERTEX
  5
163
  8
THREE_QUARTER_INCH_THRUCUT
 10
52.25019669902861
 20
2.947312461581234
 30
0.0
 42
0.4142135623730951
  0
VERTEX
  5
164
  8
THREE_QUARTER_INCH_THRUCUT
 10
52.1201938715966
 20
2.817315289074671
 30
0.0
 42
0.4142135623730951
  0
SEQEND
  5
4BC
  8
THREE_QUARTER_INCH_THRUCUT
  0
POLYLINE
  5
94
  8
THREE_QUARTER_INCH_THRUCUT
 66
     1
 10
0.0
 20
0.0
 30
0.0
 70
     1
  0
VERTEX
  5
165
  8
THREE_QUARTER_INCH_THRUCUT
 10
49.86729923935252
 20
7.070191277592713
 30
0.0
 42
0.4142135623730951
  0
VERTEX
  5
166
  8
THREE_QUARTER_INCH_THRUCUT
 10
49.9973020667843
 20
7.200188450099191
 30
0.0
 42
0.4142135623730951
  0
VERTEX
  5
167
  8
THREE_QUARTER_INCH_THRUCUT
 10
49.86730489427794
 20
7.330191277531341
 30
0.0
 42
0.4142135623730951
  0
VERTEX
  5
168
  8
THREE_QUARTER_INCH_THRUCUT
 10
49.73730206684593
 20
7.200194105024721
 30
0.0
 42
0.4142135623730951
  0
SEQEND
  5
4BD
  8
THREE_QUARTER_INCH_THRUCUT
  0
POLYLINE
  5
95
  8
THREE_QUARTER_INCH_THRUCUT
 66
     1
 10
0.0
 20
0.0
 30
0.0
 70
     1
  0
VERTEX
  5
169
  8
THREE_QUARTER_INCH_THRUCUT
 10
49.8673122404997
 20
2.687312465552807
 30
0.0
 42
0.4142135623730951
  0
VERTEX
  5
16A
  8
THREE_QUARTER_INCH_THRUCUT
 10
49.99731506793194
 20
2.817309638059399
 30
0.0
 42
0.4142135623730951
  0
VERTEX
  5
16B
  8
THREE_QUARTER_INCH_THRUCUT
 10
49.86731789542512
 20
2.947312465491322
 30
0.0
 42
0.4142135623730951
  0
VERTEX
  5
16C
  8
THREE_QUARTER_INCH_THRUCUT
 10
49.73731506799311
 20
2.817315292984702
 30
0.0
 42
0.4142135623730951
  0
SEQEND
  5
4BE
  8
THREE_QUARTER_INCH_THRUCUT
  0
POLYLINE
  5
96
  8
THREE_QUARTER_INCH_THRUCUT
 66
     1
 10
0.0
 20
0.0
 30
0.0
 70
     1
  0
VERTEX
  5
16D
  8
THREE_QUARTER_INCH_THRUCUT
 10
51.05874797268348
 20
4.878751871616359
 30
0.0
 42
-0.4142135623730951
  0
VERTEX
  5
16E
  8
THREE_QUARTER_INCH_THRUCUT
 10
50.9287479726836
 20
5.008751871616354
 30
0.0
 42
-0.4142135623730951
  0
VERTEX
  5
16F
  8
THREE_QUARTER_INCH_THRUCUT
 10
51.05874797268348
 20
5.138751871616378
 30
0.0
 42
-0.4142135623730951
  0
VERTEX
  5
170
  8
THREE_QUARTER_INCH_THRUCUT
 10
51.18874797268359
 20
5.008751871616468
 30
0.0
 42
-0.4142135623730951
  0
SEQEND
  5
4BF
  8
THREE_QUARTER_INCH_THRUCUT
  0
POLYLINE
  5
97
  8
THREE_QUARTER_INCH_THRUCUT
 66
     1
 10
0.0
 20
0.0
 30
0.0
 70
     1
  0
VERTEX
  5
171
  8
THREE_QUARTER_INCH_THRUCUT
 10
52.25017804294828
 20
7.07019127366091
 30
0.0
 42
0.4142135623730951
  0
VERTEX
  5
172
  8
THREE_QUARTER_INCH_THRUCUT
 10
52.38018087038006
 20
7.200188446167388
 30
0.0
 42
0.4142135623730951
  0
VERTEX
  5
173
  8
THREE_QUARTER_INCH_THRUCUT
 10
52.25018369787369
 20
7.330191273599482
 30
0.0
 42
0.4142135623730951
  0
VERTEX
  5
174
  8
THREE_QUARTER_INCH_THRUCUT
 10
52.12018087044169
 20
7.200194101092862
 30
0.0
 42
0.4142135623730951
  0
SEQEND
  5
4C0
  8
THREE_QUARTER_INCH_THRUCUT
  0
POLYLINE
  5
98
  8
THREE_QUARTER_INCH_THRUCUT
 66
     1
 10
0.0
 20
0.0
 30
0.0
 70
     1
  0
VERTEX
  5
175
  8
THREE_QUARTER_INCH_THRUCUT
 10
52.25019104409546
 20
2.687312461621005
 30
0.0
 42
0.4142135623730951
  0
VERTEX
  5
176
  8
THREE_QUARTER_INCH_THRUCUT
 10
52.38019387152769
 20
2.81730963412754
 30
0.0
 42
0.4142135623730951
  0
VERTEX
  5
177
  8
THREE_QUARTER_INCH_THRUCUT
 10
52.25019669902088
 20
2.947312461559463
 30
0.0
 42
0.4142135623730951
  0
VERTEX
  5
178
  8
THREE_QUARTER_INCH_THRUCUT
 10
52.12019387158887
 20
2.8173152890529
 30
0.0
 42
0.4142135623730951
  0
SEQEND
  5
4C1
  8
THREE_QUARTER_INCH_THRUCUT
  0
POLYLINE
  5
99
  8
THREE_QUARTER_INCH_THRUCUT
 66
     1
 10
0.0
 20
0.0
 30
0.0
 70
     1
  0
VERTEX
  5
179
  8
THREE_QUARTER_INCH_THRUCUT
 10
49.86729923934473
 20
7.070191277570999
 30
0.0
 42
0.4142135623730951
  0
VERTEX
  5
17A
  8
THREE_QUARTER_INCH_THRUCUT
 10
49.99730206677651
 20
7.200188450077476
 30
0.0
 42
0.4142135623730951
  0
VERTEX
  5
17B
  8
THREE_QUARTER_INCH_THRUCUT
 10
49.86730489427015
 20
7.330191277509513
 30
0.0
 42
0.4142135623730951
  0
VERTEX
  5
17C
  8
THREE_QUARTER_INCH_THRUCUT
 10
49.73730206683814
 20
7.200194105002893
 30
0.0
 42
0.4142135623730951
  0
SEQEND
  5
4C2
  8
THREE_QUARTER_INCH_THRUCUT
  0
POLYLINE
  5
9A
  8
THREE_QUARTER_INCH_THRUCUT
 66
     1
 10
0.0
 20
0.0
 30
0.0
 70
     1
  0
VERTEX
  5
17D
  8
THREE_QUARTER_INCH_THRUCUT
 10
49.86731224049191
 20
2.687312465531093
 30
0.0
 42
0.4142135623730951
  0
VERTEX
  5
17E
  8
THREE_QUARTER_INCH_THRUCUT
 10
49.99731506792415
 20
2.817309638037571
 30
0.0
 42
0.4142135623730951
  0
VERTEX
  5
17F
  8
THREE_QUARTER_INCH_THRUCUT
 10
49.86731789541733
 20
2.947312465469494
 30
0.0
 42
0.4142135623730951
  0
VERTEX
  5
180
  8
THREE_QUARTER_INCH_THRUCUT
 10
49.73731506798532
 20
2.817315292962988
 30
0.0
 42
0.4142135623730951
  0
SEQEND
  5
4C3
  8
THREE_QUARTER_INCH_THRUCUT
  0
POLYLINE
  5
9B
  8
THREE_QUARTER_INCH_THRUCUT
 66
     1
 10
0.0
 20
0.0
 30
0.0
 70
     1
  0
VERTEX
  5
181
  8
THREE_QUARTER_INCH_THRUCUT
 10
51.05874797267575
 20
4.878751871594588
 30
0.0
 42
-0.4142135623730951
  0
VERTEX
  5
182
  8
THREE_QUARTER_INCH_THRUCUT
 10
50.92874797267586
 20
5.008751871594583
 30
0.0
 42
-0.4142135623730951
  0
VERTEX
  5
183
  8
THREE_QUARTER_INCH_THRUCUT
 10
51.05874797267575
 20
5.138751871594607
 30
0.0
 42
-0.4142135623730951
  0
VERTEX
  5
184
  8
THREE_QUARTER_INCH_THRUCUT
 10
51.18874797267586
 20
5.008751871594697
 30
0.0
 42
-0.4142135623730951
  0
SEQEND
  5
4C4
  8
THREE_QUARTER_INCH_THRUCUT
  0
POLYLINE
  5
9C
  8
THREE_QUARTER_INCH_THRUCUT
 66
     1
 10
0.0
 20
0.0
 30
0.0
 70
     1
  0
VERTEX
  5
185
  8
THREE_QUARTER_INCH_THRUCUT
 10
88.27188559860548
 20
7.07019127366091
 30
0.0
 42
-0.4142135623730951
  0
VERTEX
  5
186
  8
THREE_QUARTER_INCH_THRUCUT
 10
88.1418827711737
 20
7.200188446167388
 30
0.0
 42
-0.4142135623730951
  0
VERTEX
  5
187
  8
THREE_QUARTER_INCH_THRUCUT
 10
88.27187994368006
 20
7.330191273599482
 30
0.0
 42
-0.4142135623730951
  0
VERTEX
  5
188
  8
THREE_QUARTER_INCH_THRUCUT
 10
88.40188277111207
 20
7.200194101092862
 30
0.0
 42
-0.4142135623730951
  0
SEQEND
  5
4C5
  8
THREE_QUARTER_INCH_THRUCUT
  0
POLYLINE
  5
9D
  8
THREE_QUARTER_INCH_THRUCUT
 66
     1
 10
0.0
 20
0.0
 30
0.0
 70
     1
  0
VERTEX
  5
189
  8
THREE_QUARTER_INCH_THRUCUT
 10
88.2718725974583
 20
2.687312461621005
 30
0.0
 42
-0.4142135623730951
  0
VERTEX
  5
18A
  8
THREE_QUARTER_INCH_THRUCUT
 10
88.14186977002606
 20
2.81730963412754
 30
0.0
 42
-0.4142135623730951
  0
VERTEX
  5
18B
  8
THREE_QUARTER_INCH_THRUCUT
 10
88.27186694253288
 20
2.947312461559463
 30
0.0
 42
-0.4142135623730951
  0
VERTEX
  5
18C
  8
THREE_QUARTER_INCH_THRUCUT
 10
88.40186976996489
 20
2.8173152890529
 30
0.0
 42
-0.4142135623730951
  0
SEQEND
  5
4C6
  8
THREE_QUARTER_INCH_THRUCUT
  0
POLYLINE
  5
9E
  8
THREE_QUARTER_INCH_THRUCUT
 66
     1
 10
0.0
 20
0.0
 30
0.0
 70
     1
  0
VERTEX
  5
18D
  8
THREE_QUARTER_INCH_THRUCUT
 10
90.65476440220903
 20
7.070191277570999
 30
0.0
 42
-0.4142135623730951
  0
VERTEX
  5
18E
  8
THREE_QUARTER_INCH_THRUCUT
 10
90.52476157477724
 20
7.200188450077476
 30
0.0
 42
-0.4142135623730951
  0
VERTEX
  5
18F
  8
THREE_QUARTER_INCH_THRUCUT
 10
90.65475874728361
 20
7.330191277509513
 30
0.0
 42
-0.4142135623730951
  0
VERTEX
  5
190
  8
THREE_QUARTER_INCH_THRUCUT
 10
90.78476157471562
 20
7.200194105002893
 30
0.0
 42
-0.4142135623730951
  0
SEQEND
  5
4C7
  8
THREE_QUARTER_INCH_THRUCUT
  0
POLYLINE
  5
9F
  8
THREE_QUARTER_INCH_THRUCUT
 66
     1
 10
0.0
 20
0.0
 30
0.0
 70
     1
  0
VERTEX
  5
191
  8
THREE_QUARTER_INCH_THRUCUT
 10
90.65475140106184
 20
2.687312465531093
 30
0.0
 42
-0.4142135623730951
  0
VERTEX
  5
192
  8
THREE_QUARTER_INCH_THRUCUT
 10
90.52474857362961
 20
2.817309638037571
 30
0.0
 42
-0.4142135623730951
  0
VERTEX
  5
193
  8
THREE_QUARTER_INCH_THRUCUT
 10
90.65474574613643
 20
2.947312465469494
 30
0.0
 42
-0.4142135623730951
  0
VERTEX
  5
194
  8
THREE_QUARTER_INCH_THRUCUT
 10
90.78474857356844
 20
2.817315292962988
 30
0.0
 42
-0.4142135623730951
  0
SEQEND
  5
4C8
  8
THREE_QUARTER_INCH_THRUCUT
  0
POLYLINE
  5
A0
  8
THREE_QUARTER_INCH_THRUCUT
 66
     1
 10
0.0
 20
0.0
 30
0.0
 70
     1
  0
VERTEX
  5
195
  8
THREE_QUARTER_INCH_THRUCUT
 10
89.46331566887801
 20
4.878751871594588
 30
0.0
 42
0.4142135623730951
  0
VERTEX
  5
196
  8
THREE_QUARTER_INCH_THRUCUT
 10
89.59331566887789
 20
5.008751871594583
 30
0.0
 42
0.4142135623730951
  0
VERTEX
  5
197
  8
THREE_QUARTER_INCH_THRUCUT
 10
89.46331566887801
 20
5.138751871594607
 30
0.0
 42
0.4142135623730951
  0
VERTEX
  5
198
  8
THREE_QUARTER_INCH_THRUCUT
 10
89.3333156688779
 20
5.008751871594697
 30
0.0
 42
0.4142135623730951
  0
SEQEND
  5
4C9
  8
THREE_QUARTER_INCH_THRUCUT
  0
POLYLINE
  5
A1
  8
THREE_QUARTER_INCH_THRUCUT
 66
     1
 10
0.0
 20
0.0
 30
0.0
 70
     1
  0
VERTEX
  5
199
  8
THREE_QUARTER_INCH_THRUCUT
 10
88.26817080741131
 20
7.070191273682681
 30
0.0
 42
-0.4142135623730951
  0
VERTEX
  5
19A
  8
THREE_QUARTER_INCH_THRUCUT
 10
88.13816797997953
 20
7.200188446189159
 30
0.0
 42
-0.4142135623730951
  0
VERTEX
  5
19B
  8
THREE_QUARTER_INCH_THRUCUT
 10
88.26816515248589
 20
7.330191273621253
 30
0.0
 42
-0.4142135623730951
  0
VERTEX
  5
19C
  8
THREE_QUARTER_INCH_THRUCUT
 10
88.3981679799179
 20
7.200194101114633
 30
0.0
 42
-0.4142135623730951
  0
SEQEND
  5
4CA
  8
THREE_QUARTER_INCH_THRUCUT
  0
POLYLINE
  5
A2
  8
THREE_QUARTER_INCH_THRUCUT
 66
     1
 10
0.0
 20
0.0
 30
0.0
 70
     1
  0
VERTEX
  5
19D
  8
THREE_QUARTER_INCH_THRUCUT
 10
88.26815780626413
 20
2.687312461642776
 30
0.0
 42
-0.4142135623730951
  0
VERTEX
  5
19E
  8
THREE_QUARTER_INCH_THRUCUT
 10
88.13815497883189
 20
2.817309634149311
 30
0.0
 42
-0.4142135623730951
  0
VERTEX
  5
19F
  8
THREE_QUARTER_INCH_THRUCUT
 10
88.26815215133871
 20
2.947312461581234
 30
0.0
 42
-0.4142135623730951
  0
VERTEX
  5
1A0
  8
THREE_QUARTER_INCH_THRUCUT
 10
88.39815497877072
 20
2.817315289074671
 30
0.0
 42
-0.4142135623730951
  0
SEQEND
  5
4CB
  8
THREE_QUARTER_INCH_THRUCUT
  0
POLYLINE
  5
A3
  8
THREE_QUARTER_INCH_THRUCUT
 66
     1
 10
0.0
 20
0.0
 30
0.0
 70
     1
  0
VERTEX
  5
1A1
  8
THREE_QUARTER_INCH_THRUCUT
 10
90.65104961101486
 20
7.070191277592713
 30
0.0
 42
-0.4142135623730951
  0
VERTEX
  5
1A2
  8
THREE_QUARTER_INCH_THRUCUT
 10
90.52104678358307
 20
7.200188450099191
 30
0.0
 42
-0.4142135623730951
  0
VERTEX
  5
1A3
  8
THREE_QUARTER_INCH_THRUCUT
 10
90.65104395608944
 20
7.330191277531341
 30
0.0
 42
-0.4142135623730951
  0
VERTEX
  5
1A4
  8
THREE_QUARTER_INCH_THRUCUT
 10
90.78104678352145
 20
7.200194105024721
 30
0.0
 42
-0.4142135623730951
  0
SEQEND
  5
4CC
  8
THREE_QUARTER_INCH_THRUCUT
  0
POLYLINE
  5
A4
  8
THREE_QUARTER_INCH_THRUCUT
 66
     1
 10
0.0
 20
0.0
 30
0.0
 70
     1
  0
VERTEX
  5
1A5
  8
THREE_QUARTER_INCH_THRUCUT
 10
90.65103660986767
 20
2.687312465552807
 30
0.0
 42
-0.4142135623730951
  0
VERTEX
  5
1A6
  8
THREE_QUARTER_INCH_THRUCUT
 10
90.52103378243544
 20
2.817309638059399
 30
0.0
 42
-0.4142135623730951
  0
VERTEX
  5
1A7
  8
THREE_QUARTER_INCH_THRUCUT
 10
90.65103095494226
 20
2.947312465491322
 30
0.0
 42
-0.4142135623730951
  0
VERTEX
  5
1A8
  8
THREE_QUARTER_INCH_THRUCUT
 10
90.78103378237427
 20
2.817315292984702
 30
0.0
 42
-0.4142135623730951
  0
SEQEND
  5
4CD
  8
THREE_QUARTER_INCH_THRUCUT
  0
POLYLINE
  5
A5
  8
THREE_QUARTER_INCH_THRUCUT
 66
     1
 10
0.0
 20
0.0
 30
0.0
 70
     1
  0
VERTEX
  5
1A9
  8
THREE_QUARTER_INCH_THRUCUT
 10
89.45960087768378
 20
4.878751871616359
 30
0.0
 42
0.4142135623730951
  0
VERTEX
  5
1AA
  8
THREE_QUARTER_INCH_THRUCUT
 10
89.58960087768367
 20
5.008751871616354
 30
0.0
 42
0.4142135623730951
  0
VERTEX
  5
1AB
  8
THREE_QUARTER_INCH_THRUCUT
 10
89.45960087768378
 20
5.138751871616378
 30
0.0
 42
0.4142135623730951
  0
VERTEX
  5
1AC
  8
THREE_QUARTER_INCH_THRUCUT
 10
89.32960087768367
 20
5.008751871616468
 30
0.0
 42
0.4142135623730951
  0
SEQEND
  5
4CE
  8
THREE_QUARTER_INCH_THRUCUT
  0
POLYLINE
  5
A6
  8
THREE_QUARTER_INCH_THRUCUT
 66
     1
 10
0.0
 20
0.0
 30
0.0
 70
     1
  0
VERTEX
  5
1AD
  8
THREE_QUARTER_INCH_THRUCUT
 10
78.51646264748314
 20
5.570165470483076
 30
0.0
 42
0.4142135623730951
  0
VERTEX
  5
1AE
  8
THREE_QUARTER_INCH_THRUCUT
 10
78.64646547491492
 20
5.700162642989554
 30
0.0
 42
0.4142135623730951
  0
VERTEX
  5
1AF
  8
THREE_QUARTER_INCH_THRUCUT
 10
78.51646830240855
 20
5.830165470421619
 30
0.0
 42
0.4142135623730951
  0
VERTEX
  5
1B0
  8
THREE_QUARTER_INCH_THRUCUT
 10
78.38646547497655
 20
5.700168297915027
 30
0.0
 42
0.4142135623730951
  0
SEQEND
  5
4CF
  8
THREE_QUARTER_INCH_THRUCUT
  0
POLYLINE
  5
A7
  8
THREE_QUARTER_INCH_THRUCUT
 66
     1
 10
0.0
 20
0.0
 30
0.0
 70
     1
  0
VERTEX
  5
1B1
  8
THREE_QUARTER_INCH_THRUCUT
 10
53.7501643406132
 20
5.830165492637562
 30
0.0
 42
0.4142135623730951
  0
VERTEX
  5
1B2
  8
THREE_QUARTER_INCH_THRUCUT
 10
53.62016434061331
 20
5.700165492637566
 30
0.0
 42
0.4142135623730951
  0
VERTEX
  5
1B3
  8
THREE_QUARTER_INCH_THRUCUT
 10
53.7501643406132
 20
5.570165492637571
 30
0.0
 42
0.4142135623730951
  0
VERTEX
  5
1B4
  8
THREE_QUARTER_INCH_THRUCUT
 10
53.88016434061308
 20
5.700165492637566
 30
0.0
 42
0.4142135623730951
  0
SEQEND
  5
4D0
  8
THREE_QUARTER_INCH_THRUCUT
  0
POLYLINE
  5
A8
  8
THREE_QUARTER_INCH_THRUCUT
 66
     1
 10
0.0
 20
0.0
 30
0.0
 70
     1
  0
VERTEX
  5
1B5
  8
THREE_QUARTER_INCH_THRUCUT
 10
86.77189927583481
 20
5.830165492637562
 30
0.0
 42
-0.4142135623730951
  0
VERTEX
  5
1B6
  8
THREE_QUARTER_INCH_THRUCUT
 10
86.9018992758347
 20
5.700165492637566
 30
0.0
 42
-0.4142135623730951
  0
VERTEX
  5
1B7
  8
THREE_QUARTER_INCH_THRUCUT
 10
86.77189927583481
 20
5.570165492637571
 30
0.0
 42
-0.4142135623730951
  0
VERTEX
  5
1B8
  8
THREE_QUARTER_INCH_THRUCUT
 10
86.64189927583493
 20
5.700165492637566
 30
0.0
 42
-0.4142135623730951
  0
SEQEND
  5
4D1
  8
THREE_QUARTER_INCH_THRUCUT
  0
POLYLINE
  5
A9
  8
THREE_QUARTER_INCH_THRUCUT
 66
     1
 10
0.0
 20
0.0
 30
0.0
 70
     1
  0
VERTEX
  5
1B9
  8
THREE_QUARTER_INCH_THRUCUT
 10
62.0055980326689
 20
5.830165478669883
 30
0.0
 42
0.4142135623730951
  0
VERTEX
  5
1BA
  8
THREE_QUARTER_INCH_THRUCUT
 10
61.87559803266902
 20
5.700165478669888
 30
0.0
 42
0.4142135623730951
  0
VERTEX
  5
1BB
  8
THREE_QUARTER_INCH_THRUCUT
 10
62.0055980326689
 20
5.570165478669892
 30
0.0
 42
0.4142135623730951
  0
VERTEX
  5
1BC
  8
THREE_QUARTER_INCH_THRUCUT
 10
62.13559803266878
 20
5.700165478669888
 30
0.0
 42
0.4142135623730951
  0
SEQEND
  5
4D2
  8
THREE_QUARTER_INCH_THRUCUT
  0
POLYLINE
  5
AA
  8
THREE_QUARTER_INCH_THRUCUT
 66
     1
 10
0.0
 20
0.0
 30
0.0
 70
     1
  0
VERTEX
  5
1BD
  8
THREE_QUARTER_INCH_THRUCUT
 10
87.39189955149749
 20
8.639189496611195
 30
0.0
  0
VERTEX
  5
1BE
  8
THREE_QUARTER_INCH_THRUCUT
 10
87.6520636414632
 20
8.639189496629044
 30
0.0
  0
VERTEX
  5
1BF
  8
THREE_QUARTER_INCH_THRUCUT
 10
87.6520636414632
 20
9.12636640099133
 30
0.0
  0
VERTEX
  5
1C0
  8
THREE_QUARTER_INCH_THRUCUT
 10
88.33821941141491
 20
9.126366400981325
 30
0.0
 42
1.0
  0
VERTEX
  5
1C1
  8
THREE_QUARTER_INCH_THRUCUT
 10
88.5220671745119
 20
9.310211875720299
 30
0.0
  0
VERTEX
  5
1C2
  8
THREE_QUARTER_INCH_THRUCUT
 10
88.52206882131713
 20
9.44251632417577
 30
0.0
 42
1.0
  0
VERTEX
  5
1C3
  8
THREE_QUARTER_INCH_THRUCUT
 10
88.33822105215245
 20
9.626366375653745
 30
0.0
  0
VERTEX
  5
1C4
  8
THREE_QUARTER_INCH_THRUCUT
 10
87.6520636414632
 20
9.62636635299846
 30
0.0
  0
VERTEX
  5
1C5
  8
THREE_QUARTER_INCH_THRUCUT
 10
87.6520636414632
 20
10.22636660582585
 30
0.0
  0
VERTEX
  5
1C6
  8
THREE_QUARTER_INCH_THRUCUT
 10
88.33821587543139
 20
10.2263665979918
 30
0.0
 42
1.0
  0
VERTEX
  5
1C7
  8
THREE_QUARTER_INCH_THRUCUT
 10
88.5220636415579
 20
10.41021436101478
 30
0.0
  0
VERTEX
  5
1C8
  8
THREE_QUARTER_INCH_THRUCUT
 10
88.5220636415537
 20
10.96136698037652
 30
0.0
  0
VERTEX
  5
1C9
  8
THREE_QUARTER_INCH_THRUCUT
 10
92.5220636415537
 20
10.96136698037652
 30
0.0
  0
VERTEX
  5
1CA
  8
THREE_QUARTER_INCH_THRUCUT
 10
92.5220636415537
 20
0.9611357384095669
 30
0.0
  0
VERTEX
  5
1CB
  8
THREE_QUARTER_INCH_THRUCUT
 10
48.0
 20
0.9611357384095669
 30
0.0
  0
VERTEX
  5
1CC
  8
THREE_QUARTER_INCH_THRUCUT
 10
48.00000000000006
 20
10.96136698037652
 30
0.0
  0
VERTEX
  5
1CD
  8
THREE_QUARTER_INCH_THRUCUT
 10
52.00000000000006
 20
10.96136698037652
 30
0.0
  0
VERTEX
  5
1CE
  8
THREE_QUARTER_INCH_THRUCUT
 10
51.99999999999585
 20
10.41021436101478
 30
0.0
 42
1.0
  0
VERTEX
  5
1CF
  8
THREE_QUARTER_INCH_THRUCUT
 10
52.18384776612237
 20
10.2263665979918
 30
0.0
  0
VERTEX
  5
1D0
  8
THREE_QUARTER_INCH_THRUCUT
 10
52.87000000009056
 20
10.22636660582585
 30
0.0
  0
VERTEX
  5
1D1
  8
THREE_QUARTER_INCH_THRUCUT
 10
52.87000000009056
 20
9.62636635299846
 30
0.0
  0
VERTEX
  5
1D2
  8
THREE_QUARTER_INCH_THRUCUT
 10
52.18384258940131
 20
9.626366375653745
 30
0.0
 42
1.0
  0
VERTEX
  5
1D3
  8
THREE_QUARTER_INCH_THRUCUT
 10
51.99999482023662
 20
9.44251632417577
 30
0.0
  0
VERTEX
  5
1D4
  8
THREE_QUARTER_INCH_THRUCUT
 10
51.99999646704185
 20
9.310211875720299
 30
0.0
 42
1.0
  0
VERTEX
  5
1D5
  8
THREE_QUARTER_INCH_THRUCUT
 10
52.18384423013885
 20
9.126366400981325
 30
0.0
  0
VERTEX
  5
1D6
  8
THREE_QUARTER_INCH_THRUCUT
 10
52.87000000009056
 20
9.12636640099133
 30
0.0
  0
VERTEX
  5
1D7
  8
THREE_QUARTER_INCH_THRUCUT
 10
52.87000000009056
 20
8.639189496629044
 30
0.0
  0
VERTEX
  5
1D8
  8
THREE_QUARTER_INCH_THRUCUT
 10
53.00000000009032
 20
8.639189496630635
 30
0.0
  0
VERTEX
  5
1D9
  8
THREE_QUARTER_INCH_THRUCUT
 10
53.13000000009123
 20
8.639189496628987
 30
0.0
  0
VERTEX
  5
1DA
  8
THREE_QUARTER_INCH_THRUCUT
 10
53.13000000009123
 20
9.126366400991273
 30
0.0
  0
VERTEX
  5
1DB
  8
THREE_QUARTER_INCH_THRUCUT
 10
53.81615577004283
 20
9.126366400981269
 30
0.0
 42
1.0
  0
VERTEX
  5
1DC
  8
THREE_QUARTER_INCH_THRUCUT
 10
54.00000353313982
 20
9.310211875720242
 30
0.0
  0
VERTEX
  5
1DD
  8
THREE_QUARTER_INCH_THRUCUT
 10
54.00000517994505
 20
9.442516324175713
 30
0.0
 42
1.0
  0
VERTEX
  5
1DE
  8
THREE_QUARTER_INCH_THRUCUT
 10
53.81615741078048
 20
9.626366375653689
 30
0.0
  0
VERTEX
  5
1DF
  8
THREE_QUARTER_INCH_THRUCUT
 10
53.13000000009123
 20
9.626366352998403
 30
0.0
  0
VERTEX
  5
1E0
  8
THREE_QUARTER_INCH_THRUCUT
 10
53.13000000009112
 20
10.226366605884
 30
0.0
  0
VERTEX
  5
1E1
  8
THREE_QUARTER_INCH_THRUCUT
 10
53.81615223306272
 20
10.22636659872218
 30
0.0
 42
1.0
  0
VERTEX
  5
1E2
  8
THREE_QUARTER_INCH_THRUCUT
 10
53.99999999999631
 20
10.41021436191672
 30
0.0
  0
VERTEX
  5
1E3
  8
THREE_QUARTER_INCH_THRUCUT
 10
53.99999999999829
 20
10.96136709819213
 30
0.0
  0
VERTEX
  5
1E4
  8
THREE_QUARTER_INCH_THRUCUT
 10
68.49233170023473
 20
10.9613645848108
 30
0.0
 42
0.4142135623731151
  0
VERTEX
  5
1E5
  8
THREE_QUARTER_INCH_THRUCUT
 10
68.76103229893118
 20
10.96136456296519
 30
0.0
 42
0.4142135623730996
  0
VERTEX
  5
1E6
  8
THREE_QUARTER_INCH_THRUCUT
 10
68.76103232077679
 20
11.23006516166164
 30
0.0
  0
VERTEX
  5
1E7
  8
THREE_QUARTER_INCH_THRUCUT
 10
68.76103232077679
 20
11.56136604111954
 30
0.0
  0
VERTEX
  5
1E8
  8
THREE_QUARTER_INCH_THRUCUT
 10
68.76255132077682
 20
11.57873104111958
 30
0.0
  0
VERTEX
  5
1E9
  8
THREE_QUARTER_INCH_THRUCUT
 10
68.7670623207768
 20
11.59556904111959
 30
0.0
  0
VERTEX
  5
1EA
  8
THREE_QUARTER_INCH_THRUCUT
 10
68.77442932077673
 20
11.61136604111961
 30
0.0
  0
VERTEX
  5
1EB
  8
THREE_QUARTER_INCH_THRUCUT
 10
68.78442732077673
 20
11.6256450411196
 30
0.0
  0
VERTEX
  5
1EC
  8
THREE_QUARTER_INCH_THRUCUT
 10
68.79675332077676
 20
11.63797104111963
 30
0.0
  0
VERTEX
  5
1ED
  8
THREE_QUARTER_INCH_THRUCUT
 10
68.81103232077675
 20
11.64796904111962
 30
0.0
  0
VERTEX
  5
1EE
  8
THREE_QUARTER_INCH_THRUCUT
 10
68.82683032077676
 20
11.65533604111955
 30
0.0
  0
VERTEX
  5
1EF
  8
THREE_QUARTER_INCH_THRUCUT
 10
68.84366732077677
 20
11.65984704111953
 30
0.0
  0
VERTEX
  5
1F0
  8
THREE_QUARTER_INCH_THRUCUT
 10
68.86103232077681
 20
11.66136604111956
 30
0.0
  0
VERTEX
  5
1F1
  8
THREE_QUARTER_INCH_THRUCUT
 10
70.26103182077685
 20
11.66136604111956
 30
0.0
  0
VERTEX
  5
1F2
  8
THREE_QUARTER_INCH_THRUCUT
 10
71.66103132077677
 20
11.66136604111956
 30
0.0
  0
VERTEX
  5
1F3
  8
THREE_QUARTER_INCH_THRUCUT
 10
71.67839632077681
 20
11.65984704111953
 30
0.0
  0
VERTEX
  5
1F4
  8
THREE_QUARTER_INCH_THRUCUT
 10
71.69523332077682
 20
11.65533604111955
 30
0.0
  0
VERTEX
  5
1F5
  8
THREE_QUARTER_INCH_THRUCUT
 10
71.71103132077673
 20
11.64796904111962
 30
0.0
  0
VERTEX
  5
1F6
  8
THREE_QUARTER_INCH_THRUCUT
 10
71.72531032077683
 20
11.63797104111963
 30
0.0
  0
VERTEX
  5
1F7
  8
THREE_QUARTER_INCH_THRUCUT
 10
71.73763632077674
 20
11.6256450411196
 30
0.0
  0
VERTEX
  5
1F8
  8
THREE_QUARTER_INCH_THRUCUT
 10
71.74763432077674
 20
11.61136604111961
 30
0.0
  0
VERTEX
  5
1F9
  8
THREE_QUARTER_INCH_THRUCUT
 10
71.75500132077678
 20
11.59556904111959
 30
0.0
  0
VERTEX
  5
1FA
  8
THREE_QUARTER_INCH_THRUCUT
 10
71.75951232077676
 20
11.57873104111958
 30
0.0
  0
VERTEX
  5
1FB
  8
THREE_QUARTER_INCH_THRUCUT
 10
71.7610313207768
 20
11.56136604111954
 30
0.0
  0
VERTEX
  5
1FC
  8
THREE_QUARTER_INCH_THRUCUT
 10
71.7610313207768
 20
11.23006958301757
 30
0.0
 42
1.0
  0
VERTEX
  5
1FD
  8
THREE_QUARTER_INCH_THRUCUT
 10
72.02973186267474
 20
10.96136900616672
 30
0.0
  0
VERTEX
  5
1FE
  8
THREE_QUARTER_INCH_THRUCUT
 10
86.39189955989536
 20
10.96136699431379
 30
0.0
 42
-0.4142135529153272
  0
VERTEX
  5
1FF
  8
THREE_QUARTER_INCH_THRUCUT
 10
86.5218995514025
 20
10.83136684929782
 30
0.0
  0
VERTEX
  5
200
  8
THREE_QUARTER_INCH_THRUCUT
 10
86.52189955140273
 20
10.41021436101467
 30
0.0
 42
1.0
  0
VERTEX
  5
201
  8
THREE_QUARTER_INCH_THRUCUT
 10
86.70574731752924
 20
10.22636659799169
 30
0.0
  0
VERTEX
  5
202
  8
THREE_QUARTER_INCH_THRUCUT
 10
87.39189955149754
 20
10.22636660582573
 30
0.0
  0
VERTEX
  5
203
  8
THREE_QUARTER_INCH_THRUCUT
 10
87.39189955149743
 20
9.62636635299846
 30
0.0
  0
VERTEX
  5
204
  8
THREE_QUARTER_INCH_THRUCUT
 10
86.70574214080818
 20
9.626366375653745
 30
0.0
 42
1.0
  0
VERTEX
  5
205
  8
THREE_QUARTER_INCH_THRUCUT
 10
86.52189437164361
 20
9.44251632417577
 30
0.0
  0
VERTEX
  5
206
  8
THREE_QUARTER_INCH_THRUCUT
 10
86.52189601844884
 20
9.310211875720299
 30
0.0
 42
1.0
  0
VERTEX
  5
207
  8
THREE_QUARTER_INCH_THRUCUT
 10
86.70574378154583
 20
9.126366400981325
 30
0.0
  0
VERTEX
  5
208
  8
THREE_QUARTER_INCH_THRUCUT
 10
87.39189955149743
 20
9.12636640099133
 30
0.0
  0
SEQEND
  5
4D3
  8
THREE_QUARTER_INCH_THRUCUT
  0
POLYLINE
  5
AB
  8
THREE_QUARTER_INCH_THRUCUT
 66
     1
 10
0.0
 20
0.0
 30
0.0
 70
     1
  0
VERTEX
  5
209
  8
THREE_QUARTER_INCH_THRUCUT
 10
92.33135225854377
 20
13.2505465498724
 30
0.0
 42
0.4142135623730951
  0
VERTEX
  5
20A
  8
THREE_QUARTER_INCH_THRUCUT
 10
92.46135225854377
 20
13.12054654987252
 30
0.0
 42
0.4142135623730951
  0
VERTEX
  5
20B
  8
THREE_QUARTER_INCH_THRUCUT
 10
92.59135225854376
 20
13.2505465498724
 30
0.0
 42
0.4142135623730951
  0
VERTEX
  5
20C
  8
THREE_QUARTER_INCH_THRUCUT
 10
92.46135225854377
 20
13.38054654987229
 30
0.0
 42
0.4142135623730951
  0
SEQEND
  5
4D4
  8
THREE_QUARTER_INCH_THRUCUT
  0
POLYLINE
  5
AC
  8
THREE_QUARTER_INCH_THRUCUT
 66
     1
 10
0.0
 20
0.0
 30
0.0
 70
     1
  0
VERTEX
  5
20D
  8
THREE_QUARTER_INCH_THRUCUT
 10
92.33135225854377
 20
46.27228148509401
 30
0.0
 42
-0.4142135623730951
  0
VERTEX
  5
20E
  8
THREE_QUARTER_INCH_THRUCUT
 10
92.46135225854377
 20
46.40228148509389
 30
0.0
 42
-0.4142135623730951
  0
VERTEX
  5
20F
  8
THREE_QUARTER_INCH_THRUCUT
 10
92.59135225854376
 20
46.27228148509401
 30
0.0
 42
-0.4142135623730951
  0
VERTEX
  5
210
  8
THREE_QUARTER_INCH_THRUCUT
 10
92.46135225854377
 20
46.14228148509413
 30
0.0
 42
-0.4142135623730951
  0
SEQEND
  5
4D5
  8
THREE_QUARTER_INCH_THRUCUT
  0
POLYLINE
  5
AD
  8
THREE_QUARTER_INCH_THRUCUT
 66
     1
 10
0.0
 20
0.0
 30
0.0
 70
     1
  0
VERTEX
  5
211
  8
THREE_QUARTER_INCH_THRUCUT
 10
92.3313522725114
 20
21.50598024192811
 30
0.0
 42
0.4142135623730951
  0
VERTEX
  5
212
  8
THREE_QUARTER_INCH_THRUCUT
 10
92.46135227251139
 20
21.37598024192823
 30
0.0
 42
0.4142135623730951
  0
VERTEX
  5
213
  8
THREE_QUARTER_INCH_THRUCUT
 10
92.59135227251139
 20
21.50598024192811
 30
0.0
 42
0.4142135623730951
  0
VERTEX
  5
214
  8
THREE_QUARTER_INCH_THRUCUT
 10
92.46135227251139
 20
21.63598024192799
 30
0.0
 42
0.4142135623730951
  0
SEQEND
  5
4D6
  8
THREE_QUARTER_INCH_THRUCUT
  0
POLYLINE
  5
AE
  8
THREE_QUARTER_INCH_THRUCUT
 66
     1
 10
0.0
 20
0.0
 30
0.0
 70
     1
  0
VERTEX
  5
215
  8
THREE_QUARTER_INCH_THRUCUT
 10
85.33135522942612
 20
13.25054637525931
 30
0.0
 42
0.4142135623730951
  0
VERTEX
  5
216
  8
THREE_QUARTER_INCH_THRUCUT
 10
85.46135522942612
 20
13.12054637525943
 30
0.0
 42
0.4142135623730951
  0
VERTEX
  5
217
  8
THREE_QUARTER_INCH_THRUCUT
 10
85.59135522942611
 20
13.25054637525931
 30
0.0
 42
0.4142135623730951
  0
VERTEX
  5
218
  8
THREE_QUARTER_INCH_THRUCUT
 10
85.46135522942612
 20
13.38054637525919
 30
0.0
 42
0.4142135623730951
  0
SEQEND
  5
4D7
  8
THREE_QUARTER_INCH_THRUCUT
  0
POLYLINE
  5
AF
  8
THREE_QUARTER_INCH_THRUCUT
 66
     1
 10
0.0
 20
0.0
 30
0.0
 70
     1
  0
VERTEX
  5
219
  8
THREE_QUARTER_INCH_THRUCUT
 10
77.132231151968
 20
13.2505463960474
 30
0.0
 42
0.4142135623730951
  0
VERTEX
  5
21A
  8
THREE_QUARTER_INCH_THRUCUT
 10
77.262231151968
 20
13.12054639604752
 30
0.0
 42
0.4142135623730951
  0
VERTEX
  5
21B
  8
THREE_QUARTER_INCH_THRUCUT
 10
77.39223115196799
 20
13.2505463960474
 30
0.0
 42
0.4142135623730951
  0
VERTEX
  5
21C
  8
THREE_QUARTER_INCH_THRUCUT
 10
77.262231151968
 20
13.38054639604729
 30
0.0
 42
0.4142135623730951
  0
SEQEND
  5
4D8
  8
THREE_QUARTER_INCH_THRUCUT
  0
POLYLINE
  5
B0
  8
THREE_QUARTER_INCH_THRUCUT
 66
     1
 10
0.0
 20
0.0
 30
0.0
 70
     1
  0
VERTEX
  5
21D
  8
THREE_QUARTER_INCH_THRUCUT
 10
69.23223115196802
 20
13.2505463960474
 30
0.0
 42
0.4142135623730951
  0
VERTEX
  5
21E
  8
THREE_QUARTER_INCH_THRUCUT
 10
69.36223115196802
 20
13.12054639604752
 30
0.0
 42
0.4142135623730951
  0
VERTEX
  5
21F
  8
THREE_QUARTER_INCH_THRUCUT
 10
69.49223115196801
 20
13.2505463960474
 30
0.0
 42
0.4142135623730951
  0
VERTEX
  5
220
  8
THREE_QUARTER_INCH_THRUCUT
 10
69.36223115196802
 20
13.38054639604729
 30
0.0
 42
0.4142135623730951
  0
SEQEND
  5
4D9
  8
THREE_QUARTER_INCH_THRUCUT
  0
POLYLINE
  5
B1
  8
THREE_QUARTER_INCH_THRUCUT
 66
     1
 10
0.0
 20
0.0
 30
0.0
 70
     1
  0
VERTEX
  5
221
  8
THREE_QUARTER_INCH_THRUCUT
 10
61.33223115196799
 20
13.2505463960474
 30
0.0
 42
0.4142135623730951
  0
VERTEX
  5
222
  8
THREE_QUARTER_INCH_THRUCUT
 10
61.46223115196798
 20
13.12054639604752
 30
0.0
 42
0.4142135623730951
  0
VERTEX
  5
223
  8
THREE_QUARTER_INCH_THRUCUT
 10
61.59223115196798
 20
13.2505463960474
 30
0.0
 42
0.4142135623730951
  0
VERTEX
  5
224
  8
THREE_QUARTER_INCH_THRUCUT
 10
61.46223115196798
 20
13.38054639604729
 30
0.0
 42
0.4142135623730951
  0
SEQEND
  5
4DA
  8
THREE_QUARTER_INCH_THRUCUT
  0
POLYLINE
  5
B2
  8
THREE_QUARTER_INCH_THRUCUT
 66
     1
 10
0.0
 20
0.0
 30
0.0
 70
     1
  0
VERTEX
  5
225
  8
THREE_QUARTER_INCH_THRUCUT
 10
53.43223115196801
 20
13.2505463960474
 30
0.0
 42
0.4142135623730951
  0
VERTEX
  5
226
  8
THREE_QUARTER_INCH_THRUCUT
 10
53.56223115196801
 20
13.12054639604752
 30
0.0
 42
0.4142135623730951
  0
VERTEX
  5
227
  8
THREE_QUARTER_INCH_THRUCUT
 10
53.692231151968
 20
13.2505463960474
 30
0.0
 42
0.4142135623730951
  0
VERTEX
  5
228
  8
THREE_QUARTER_INCH_THRUCUT
 10
53.56223115196801
 20
13.38054639604729
 30
0.0
 42
0.4142135623730951
  0
SEQEND
  5
4DB
  8
THREE_QUARTER_INCH_THRUCUT
  0
POLYLINE
  5
B3
  8
THREE_QUARTER_INCH_THRUCUT
 66
     1
 10
0.0
 20
0.0
 30
0.0
 70
     1
  0
VERTEX
  5
229
  8
THREE_QUARTER_INCH_THRUCUT
 10
45.53223115196798
 20
13.2505463960474
 30
0.0
 42
0.4142135623730951
  0
VERTEX
  5
22A
  8
THREE_QUARTER_INCH_THRUCUT
 10
45.66223115196797
 20
13.12054639604752
 30
0.0
 42
0.4142135623730951
  0
VERTEX
  5
22B
  8
THREE_QUARTER_INCH_THRUCUT
 10
45.79223115196797
 20
13.2505463960474
 30
0.0
 42
0.4142135623730951
  0
VERTEX
  5
22C
  8
THREE_QUARTER_INCH_THRUCUT
 10
45.66223115196797
 20
13.38054639604729
 30
0.0
 42
0.4142135623730951
  0
SEQEND
  5
4DC
  8
THREE_QUARTER_INCH_THRUCUT
  0
POLYLINE
  5
B4
  8
THREE_QUARTER_INCH_THRUCUT
 66
     1
 10
0.0
 20
0.0
 30
0.0
 70
     1
  0
VERTEX
  5
22D
  8
THREE_QUARTER_INCH_THRUCUT
 10
37.632231151968
 20
13.2505463960474
 30
0.0
 42
0.4142135623730951
  0
VERTEX
  5
22E
  8
THREE_QUARTER_INCH_THRUCUT
 10
37.762231151968
 20
13.12054639604752
 30
0.0
 42
0.4142135623730951
  0
VERTEX
  5
22F
  8
THREE_QUARTER_INCH_THRUCUT
 10
37.89223115196799
 20
13.2505463960474
 30
0.0
 42
0.4142135623730951
  0
VERTEX
  5
230
  8
THREE_QUARTER_INCH_THRUCUT
 10
37.762231151968
 20
13.38054639604729
 30
0.0
 42
0.4142135623730951
  0
SEQEND
  5
4DD
  8
THREE_QUARTER_INCH_THRUCUT
  0
POLYLINE
  5
B5
  8
THREE_QUARTER_INCH_THRUCUT
 66
     1
 10
0.0
 20
0.0
 30
0.0
 70
     1
  0
VERTEX
  5
231
  8
THREE_QUARTER_INCH_THRUCUT
 10
29.73223115196802
 20
13.2505463960474
 30
0.0
 42
0.4142135623730951
  0
VERTEX
  5
232
  8
THREE_QUARTER_INCH_THRUCUT
 10
29.86223115196802
 20
13.12054639604752
 30
0.0
 42
0.4142135623730951
  0
VERTEX
  5
233
  8
THREE_QUARTER_INCH_THRUCUT
 10
29.99223115196801
 20
13.2505463960474
 30
0.0
 42
0.4142135623730951
  0
VERTEX
  5
234
  8
THREE_QUARTER_INCH_THRUCUT
 10
29.86223115196802
 20
13.38054639604729
 30
0.0
 42
0.4142135623730951
  0
SEQEND
  5
4DE
  8
THREE_QUARTER_INCH_THRUCUT
  0
POLYLINE
  5
B6
  8
THREE_QUARTER_INCH_THRUCUT
 66
     1
 10
0.0
 20
0.0
 30
0.0
 70
     1
  0
VERTEX
  5
235
  8
THREE_QUARTER_INCH_THRUCUT
 10
21.83223115196799
 20
13.2505463960474
 30
0.0
 42
0.4142135623730951
  0
VERTEX
  5
236
  8
THREE_QUARTER_INCH_THRUCUT
 10
21.96223115196798
 20
13.12054639604752
 30
0.0
 42
0.4142135623730951
  0
VERTEX
  5
237
  8
THREE_QUARTER_INCH_THRUCUT
 10
22.09223115196798
 20
13.2505463960474
 30
0.0
 42
0.4142135623730951
  0
VERTEX
  5
238
  8
THREE_QUARTER_INCH_THRUCUT
 10
21.96223115196798
 20
13.38054639604729
 30
0.0
 42
0.4142135623730951
  0
SEQEND
  5
4DF
  8
THREE_QUARTER_INCH_THRUCUT
  0
POLYLINE
  5
B7
  8
THREE_QUARTER_INCH_THRUCUT
 66
     1
 10
0.0
 20
0.0
 30
0.0
 70
     1
  0
VERTEX
  5
239
  8
THREE_QUARTER_INCH_THRUCUT
 10
12.75503523187851
 20
13.25054988800309
 30
0.0
 42
0.4142135623730951
  0
VERTEX
  5
23A
  8
THREE_QUARTER_INCH_THRUCUT
 10
12.8850352318785
 20
13.1205498880032
 30
0.0
 42
0.4142135623730951
  0
VERTEX
  5
23B
  8
THREE_QUARTER_INCH_THRUCUT
 10
13.0150352318785
 20
13.25054988800309
 30
0.0
 42
0.4142135623730951
  0
VERTEX
  5
23C
  8
THREE_QUARTER_INCH_THRUCUT
 10
12.8850352318785
 20
13.38054988800297
 30
0.0
 42
0.4142135623730951
  0
SEQEND
  5
4E0
  8
THREE_QUARTER_INCH_THRUCUT
  0
POLYLINE
  5
B8
  8
THREE_QUARTER_INCH_THRUCUT
 66
     1
 10
0.0
 20
0.0
 30
0.0
 70
     1
  0
VERTEX
  5
23D
  8
THREE_QUARTER_INCH_THRUCUT
 10
7.44379158207974
 20
14.54069300089031
 30
0.0
 42
0.4142135623730951
  0
VERTEX
  5
23E
  8
THREE_QUARTER_INCH_THRUCUT
 10
7.46397248949998
 20
14.35795622031332
 30
0.0
 42
0.4142135623730951
  0
VERTEX
  5
23F
  8
THREE_QUARTER_INCH_THRUCUT
 10
7.646709270077082
 20
14.37813712773345
 30
0.0
 42
0.4142135623730951
  0
VERTEX
  5
240
  8
THREE_QUARTER_INCH_THRUCUT
 10
7.626528362656956
 20
14.56087390831066
 30
0.0
 42
0.4142135623730951
  0
SEQEND
  5
4E1
  8
THREE_QUARTER_INCH_THRUCUT
  0
POLYLINE
  5
B9
  8
THREE_QUARTER_INCH_THRUCUT
 66
     1
 10
0.0
 20
0.0
 30
0.0
 70
     1
  0
VERTEX
  5
241
  8
THREE_QUARTER_INCH_THRUCUT
 10
4.904632755674157
 20
18.78173756650971
 30
0.0
 42
0.4142135623730951
  0
VERTEX
  5
242
  8
THREE_QUARTER_INCH_THRUCUT
 10
4.829810977993958
 20
18.61380394395382
 30
0.0
 42
0.4142135623730951
  0
VERTEX
  5
243
  8
THREE_QUARTER_INCH_THRUCUT
 10
4.997744600549964
 20
18.53898216627362
 30
0.0
 42
0.4142135623730951
  0
VERTEX
  5
244
  8
THREE_QUARTER_INCH_THRUCUT
 10
5.07256637823005
 20
18.70691578882928
 30
0.0
 42
0.4142135623730951
  0
SEQEND
  5
4E2
  8
THREE_QUARTER_INCH_THRUCUT
  0
POLYLINE
  5
BA
  8
THREE_QUARTER_INCH_THRUCUT
 66
     1
 10
0.0
 20
0.0
 30
0.0
 70
     1
  0
VERTEX
  5
245
  8
THREE_QUARTER_INCH_THRUCUT
 10
85.33135522291414
 20
46.26856695098171
 30
0.0
 42
-0.4142135623730951
  0
VERTEX
  5
246
  8
THREE_QUARTER_INCH_THRUCUT
 10
85.46135522291414
 20
46.39856695098159
 30
0.0
 42
-0.4142135623730951
  0
VERTEX
  5
247
  8
THREE_QUARTER_INCH_THRUCUT
 10
85.59135522291413
 20
46.26856695098171
 30
0.0
 42
-0.4142135623730951
  0
VERTEX
  5
248
  8
THREE_QUARTER_INCH_THRUCUT
 10
85.46135522291414
 20
46.13856695098183
 30
0.0
 42
-0.4142135623730951
  0
SEQEND
  5
4E3
  8
THREE_QUARTER_INCH_THRUCUT
  0
POLYLINE
  5
BB
  8
THREE_QUARTER_INCH_THRUCUT
 66
     1
 10
0.0
 20
0.0
 30
0.0
 70
     1
  0
VERTEX
  5
249
  8
THREE_QUARTER_INCH_THRUCUT
 10
77.132231151968
 20
46.26856695098171
 30
0.0
 42
-0.4142135623730951
  0
VERTEX
  5
24A
  8
THREE_QUARTER_INCH_THRUCUT
 10
77.262231151968
 20
46.39856695098159
 30
0.0
 42
-0.4142135623730951
  0
VERTEX
  5
24B
  8
THREE_QUARTER_INCH_THRUCUT
 10
77.39223115196799
 20
46.26856695098171
 30
0.0
 42
-0.4142135623730951
  0
VERTEX
  5
24C
  8
THREE_QUARTER_INCH_THRUCUT
 10
77.262231151968
 20
46.13856695098183
 30
0.0
 42
-0.4142135623730951
  0
SEQEND
  5
4E4
  8
THREE_QUARTER_INCH_THRUCUT
  0
POLYLINE
  5
BC
  8
THREE_QUARTER_INCH_THRUCUT
 66
     1
 10
0.0
 20
0.0
 30
0.0
 70
     1
  0
VERTEX
  5
24D
  8
THREE_QUARTER_INCH_THRUCUT
 10
69.23223115196802
 20
46.26856695098171
 30
0.0
 42
-0.4142135623730951
  0
VERTEX
  5
24E
  8
THREE_QUARTER_INCH_THRUCUT
 10
69.36223115196802
 20
46.39856695098159
 30
0.0
 42
-0.4142135623730951
  0
VERTEX
  5
24F
  8
THREE_QUARTER_INCH_THRUCUT
 10
69.49223115196801
 20
46.26856695098171
 30
0.0
 42
-0.4142135623730951
  0
VERTEX
  5
250
  8
THREE_QUARTER_INCH_THRUCUT
 10
69.36223115196802
 20
46.13856695098183
 30
0.0
 42
-0.4142135623730951
  0
SEQEND
  5
4E5
  8
THREE_QUARTER_INCH_THRUCUT
  0
POLYLINE
  5
BD
  8
THREE_QUARTER_INCH_THRUCUT
 66
     1
 10
0.0
 20
0.0
 30
0.0
 70
     1
  0
VERTEX
  5
251
  8
THREE_QUARTER_INCH_THRUCUT
 10
61.33223115196799
 20
46.26856695098171
 30
0.0
 42
-0.4142135623730951
  0
VERTEX
  5
252
  8
THREE_QUARTER_INCH_THRUCUT
 10
61.46223115196798
 20
46.39856695098159
 30
0.0
 42
-0.4142135623730951
  0
VERTEX
  5
253
  8
THREE_QUARTER_INCH_THRUCUT
 10
61.59223115196798
 20
46.26856695098171
 30
0.0
 42
-0.4142135623730951
  0
VERTEX
  5
254
  8
THREE_QUARTER_INCH_THRUCUT
 10
61.46223115196798
 20
46.13856695098183
 30
0.0
 42
-0.4142135623730951
  0
SEQEND
  5
4E6
  8
THREE_QUARTER_INCH_THRUCUT
  0
POLYLINE
  5
BE
  8
THREE_QUARTER_INCH_THRUCUT
 66
     1
 10
0.0
 20
0.0
 30
0.0
 70
     1
  0
VERTEX
  5
255
  8
THREE_QUARTER_INCH_THRUCUT
 10
53.43223115196801
 20
46.26856695098171
 30
0.0
 42
-0.4142135623730951
  0
VERTEX
  5
256
  8
THREE_QUARTER_INCH_THRUCUT
 10
53.56223115196801
 20
46.39856695098159
 30
0.0
 42
-0.4142135623730951
  0
VERTEX
  5
257
  8
THREE_QUARTER_INCH_THRUCUT
 10
53.692231151968
 20
46.26856695098171
 30
0.0
 42
-0.4142135623730951
  0
VERTEX
  5
258
  8
THREE_QUARTER_INCH_THRUCUT
 10
53.56223115196801
 20
46.13856695098183
 30
0.0
 42
-0.4142135623730951
  0
SEQEND
  5
4E7
  8
THREE_QUARTER_INCH_THRUCUT
  0
POLYLINE
  5
BF
  8
THREE_QUARTER_INCH_THRUCUT
 66
     1
 10
0.0
 20
0.0
 30
0.0
 70
     1
  0
VERTEX
  5
259
  8
THREE_QUARTER_INCH_THRUCUT
 10
45.53223115196798
 20
46.26856695098171
 30
0.0
 42
-0.4142135623730951
  0
VERTEX
  5
25A
  8
THREE_QUARTER_INCH_THRUCUT
 10
45.66223115196797
 20
46.39856695098159
 30
0.0
 42
-0.4142135623730951
  0
VERTEX
  5
25B
  8
THREE_QUARTER_INCH_THRUCUT
 10
45.79223115196797
 20
46.26856695098171
 30
0.0
 42
-0.4142135623730951
  0
VERTEX
  5
25C
  8
THREE_QUARTER_INCH_THRUCUT
 10
45.66223115196797
 20
46.13856695098183
 30
0.0
 42
-0.4142135623730951
  0
SEQEND
  5
4E8
  8
THREE_QUARTER_INCH_THRUCUT
  0
POLYLINE
  5
C0
  8
THREE_QUARTER_INCH_THRUCUT
 66
     1
 10
0.0
 20
0.0
 30
0.0
 70
     1
  0
VERTEX
  5
25D
  8
THREE_QUARTER_INCH_THRUCUT
 10
37.632231151968
 20
46.26856695098171
 30
0.0
 42
-0.4142135623730951
  0
VERTEX
  5
25E
  8
THREE_QUARTER_INCH_THRUCUT
 10
37.762231151968
 20
46.39856695098159
 30
0.0
 42
-0.4142135623730951
  0
VERTEX
  5
25F
  8
THREE_QUARTER_INCH_THRUCUT
 10
37.89223115196799
 20
46.26856695098171
 30
0.0
 42
-0.4142135623730951
  0
VERTEX
  5
260
  8
THREE_QUARTER_INCH_THRUCUT
 10
37.762231151968
 20
46.13856695098183
 30
0.0
 42
-0.4142135623730951
  0
SEQEND
  5
4E9
  8
THREE_QUARTER_INCH_THRUCUT
  0
POLYLINE
  5
C1
  8
THREE_QUARTER_INCH_THRUCUT
 66
     1
 10
0.0
 20
0.0
 30
0.0
 70
     1
  0
VERTEX
  5
261
  8
THREE_QUARTER_INCH_THRUCUT
 10
29.73223115196802
 20
46.26856695098171
 30
0.0
 42
-0.4142135623730951
  0
VERTEX
  5
262
  8
THREE_QUARTER_INCH_THRUCUT
 10
29.86223115196802
 20
46.39856695098159
 30
0.0
 42
-0.4142135623730951
  0
VERTEX
  5
263
  8
THREE_QUARTER_INCH_THRUCUT
 10
29.99223115196801
 20
46.26856695098171
 30
0.0
 42
-0.4142135623730951
  0
VERTEX
  5
264
  8
THREE_QUARTER_INCH_THRUCUT
 10
29.86223115196802
 20
46.13856695098183
 30
0.0
 42
-0.4142135623730951
  0
SEQEND
  5
4EA
  8
THREE_QUARTER_INCH_THRUCUT
  0
POLYLINE
  5
C2
  8
THREE_QUARTER_INCH_THRUCUT
 66
     1
 10
0.0
 20
0.0
 30
0.0
 70
     1
  0
VERTEX
  5
265
  8
THREE_QUARTER_INCH_THRUCUT
 10
21.83223115196799
 20
46.26856695098171
 30
0.0
 42
-0.4142135623730951
  0
VERTEX
  5
266
  8
THREE_QUARTER_INCH_THRUCUT
 10
21.96223115196798
 20
46.39856695098159
 30
0.0
 42
-0.4142135623730951
  0
VERTEX
  5
267
  8
THREE_QUARTER_INCH_THRUCUT
 10
22.09223115196798
 20
46.26856695098171
 30
0.0
 42
-0.4142135623730951
  0
VERTEX
  5
268
  8
THREE_QUARTER_INCH_THRUCUT
 10
21.96223115196798
 20
46.13856695098183
 30
0.0
 42
-0.4142135623730951
  0
SEQEND
  5
4EB
  8
THREE_QUARTER_INCH_THRUCUT
  0
POLYLINE
  5
C3
  8
THREE_QUARTER_INCH_THRUCUT
 66
     1
 10
0.0
 20
0.0
 30
0.0
 70
     1
  0
VERTEX
  5
269
  8
THREE_QUARTER_INCH_THRUCUT
 10
12.75503523187851
 20
46.26856345902603
 30
0.0
 42
-0.4142135623730951
  0
VERTEX
  5
26A
  8
THREE_QUARTER_INCH_THRUCUT
 10
12.8850352318785
 20
46.39856345902591
 30
0.0
 42
-0.4142135623730951
  0
VERTEX
  5
26B
  8
THREE_QUARTER_INCH_THRUCUT
 10
13.0150352318785
 20
46.26856345902603
 30
0.0
 42
-0.4142135623730951
  0
VERTEX
  5
26C
  8
THREE_QUARTER_INCH_THRUCUT
 10
12.8850352318785
 20
46.13856345902614
 30
0.0
 42
-0.4142135623730951
  0
SEQEND
  5
4EC
  8
THREE_QUARTER_INCH_THRUCUT
  0
POLYLINE
  5
C4
  8
THREE_QUARTER_INCH_THRUCUT
 66
     1
 10
0.0
 20
0.0
 30
0.0
 70
     1
  0
VERTEX
  5
26D
  8
THREE_QUARTER_INCH_THRUCUT
 10
7.44379158207974
 20
44.9784203461388
 30
0.0
 42
-0.4142135623730951
  0
VERTEX
  5
26E
  8
THREE_QUARTER_INCH_THRUCUT
 10
7.46397248949998
 20
45.16115712671579
 30
0.0
 42
-0.4142135623730951
  0
VERTEX
  5
26F
  8
THREE_QUARTER_INCH_THRUCUT
 10
7.646709270077082
 20
45.14097621929567
 30
0.0
 42
-0.4142135623730951
  0
VERTEX
  5
270
  8
THREE_QUARTER_INCH_THRUCUT
 10
7.626528362656956
 20
44.95823943871845
 30
0.0
 42
-0.4142135623730951
  0
SEQEND
  5
4ED
  8
THREE_QUARTER_INCH_THRUCUT
  0
POLYLINE
  5
C5
  8
THREE_QUARTER_INCH_THRUCUT
 66
     1
 10
0.0
 20
0.0
 30
0.0
 70
     1
  0
VERTEX
  5
271
  8
THREE_QUARTER_INCH_THRUCUT
 10
4.904632755674157
 20
40.7373757805194
 30
0.0
 42
-0.4142135623730951
  0
VERTEX
  5
272
  8
THREE_QUARTER_INCH_THRUCUT
 10
4.829810977993958
 20
40.90530940307529
 30
0.0
 42
-0.4142135623730951
  0
VERTEX
  5
273
  8
THREE_QUARTER_INCH_THRUCUT
 10
4.997744600549964
 20
40.98013118075549
 30
0.0
 42
-0.4142135623730951
  0
VERTEX
  5
274
  8
THREE_QUARTER_INCH_THRUCUT
 10
5.07256637823005
 20
40.81219755819983
 30
0.0
 42
-0.4142135623730951
  0
SEQEND
  5
4EE
  8
THREE_QUARTER_INCH_THRUCUT
  0
POLYLINE
  5
C6
  8
THREE_QUARTER_INCH_THRUCUT
 66
     1
 10
0.0
 20
0.0
 30
0.0
 70
     1
  0
VERTEX
  5
275
  8
THREE_QUARTER_INCH_THRUCUT
 10
3.207090075558341
 20
23.8822166358575
 30
0.0
 42
0.4142135623730951
  0
VERTEX
  5
276
  8
THREE_QUARTER_INCH_THRUCUT
 10
3.11164853678352
 20
23.72508321268992
 30
0.0
 42
0.4142135623730951
  0
VERTEX
  5
277
  8
THREE_QUARTER_INCH_THRUCUT
 10
3.268781959950758
 20
23.62964167391533
 30
0.0
 42
0.4142135623730951
  0
VERTEX
  5
278
  8
THREE_QUARTER_INCH_THRUCUT
 10
3.364223498725693
 20
23.78677509708245
 30
0.0
 42
0.4142135623730951
  0
SEQEND
  5
4EF
  8
THREE_QUARTER_INCH_THRUCUT
  0
POLYLINE
  5
C7
  8
THREE_QUARTER_INCH_THRUCUT
 66
     1
 10
0.0
 20
0.0
 30
0.0
 70
     1
  0
VERTEX
  5
279
  8
THREE_QUARTER_INCH_THRUCUT
 10
2.555173456303379
 20
29.24759465833858
 30
0.0
 42
0.4142135623730951
  0
VERTEX
  5
27A
  8
THREE_QUARTER_INCH_THRUCUT
 10
2.427478949610219
 20
29.11532934557476
 30
0.0
 42
0.4142135623730951
  0
VERTEX
  5
27B
  8
THREE_QUARTER_INCH_THRUCUT
 10
2.559744262373584
 20
28.98763483888183
 30
0.0
 42
0.4142135623730951
  0
VERTEX
  5
27C
  8
THREE_QUARTER_INCH_THRUCUT
 10
2.687438769066745
 20
29.1199001516452
 30
0.0
 42
0.4142135623730951
  0
SEQEND
  5
4F0
  8
THREE_QUARTER_INCH_THRUCUT
  0
POLYLINE
  5
C8
  8
THREE_QUARTER_INCH_THRUCUT
 66
     1
 10
0.0
 20
0.0
 30
0.0
 70
     1
  0
VERTEX
  5
27D
  8
THREE_QUARTER_INCH_THRUCUT
 10
2.555173456303379
 20
30.27151868869055
 30
0.0
 42
-0.4142135623730951
  0
VERTEX
  5
27E
  8
THREE_QUARTER_INCH_THRUCUT
 10
2.427478949610219
 20
30.40378400145437
 30
0.0
 42
-0.4142135623730951
  0
VERTEX
  5
27F
  8
THREE_QUARTER_INCH_THRUCUT
 10
2.559744262373584
 20
30.5314785081473
 30
0.0
 42
-0.4142135623730951
  0
VERTEX
  5
280
  8
THREE_QUARTER_INCH_THRUCUT
 10
2.687438769066745
 20
30.39921319538394
 30
0.0
 42
-0.4142135623730951
  0
SEQEND
  5
4F1
  8
THREE_QUARTER_INCH_THRUCUT
  0
POLYLINE
  5
C9
  8
THREE_QUARTER_INCH_THRUCUT
 66
     1
 10
0.0
 20
0.0
 30
0.0
 70
     1
  0
VERTEX
  5
281
  8
THREE_QUARTER_INCH_THRUCUT
 10
3.207090075558341
 20
35.63689671117162
 30
0.0
 42
-0.4142135623730951
  0
VERTEX
  5
282
  8
THREE_QUARTER_INCH_THRUCUT
 10
3.11164853678352
 20
35.7940301343392
 30
0.0
 42
-0.4142135623730951
  0
VERTEX
  5
283
  8
THREE_QUARTER_INCH_THRUCUT
 10
3.268781959950758
 20
35.8894716731138
 30
0.0
 42
-0.4142135623730951
  0
VERTEX
  5
284
  8
THREE_QUARTER_INCH_THRUCUT
 10
3.364223498725693
 20
35.73233824994667
 30
0.0
 42
-0.4142135623730951
  0
SEQEND
  5
4F2
  8
THREE_QUARTER_INCH_THRUCUT
  0
POLYLINE
  5
CA
  8
THREE_QUARTER_INCH_THRUCUT
 66
     1
 10
0.0
 20
0.0
 30
0.0
  0
VERTEX
  5
285
  8
THREE_QUARTER_INCH_THRUCUT
 10
94.20015080289599
 20
47.034980212425
 30
0.0
  0
VERTEX
  5
286
  8
THREE_QUARTER_INCH_THRUCUT
 10
94.20015082690114
 20
12.5169710276292
 30
0.0
  0
SEQEND
  5
4F3
  8
THREE_QUARTER_INCH_THRUCUT
  0
POLYLINE
  5
CB
  8
THREE_QUARTER_INCH_THRUCUT
 66
     1
 10
0.0
 20
0.0
 30
0.0
  0
VERTEX
  5
287
  8
THREE_QUARTER_INCH_THRUCUT
 10
94.20015082690114
 20
12.5169710276292
 30
0.0
  0
VERTEX
  5
288
  8
THREE_QUARTER_INCH_THRUCUT
 10
12.88503667127159
 20
12.51696886658339
 30
0.0
  0
VERTEX
  5
289
  8
THREE_QUARTER_INCH_THRUCUT
 10
11.39032865013465
 20
12.51696785889123
 30
0.0
  0
VERTEX
  5
28A
  8
THREE_QUARTER_INCH_THRUCUT
 10
11.33472025018059
 20
12.51716721103426
 30
0.0
  0
VERTEX
  5
28B
  8
THREE_QUARTER_INCH_THRUCUT
 10
11.27919649763828
 20
12.51774980138308
 30
0.0
  0
VERTEX
  5
28C
  8
THREE_QUARTER_INCH_THRUCUT
 10
11.22376015767031
 20
12.51871427937505
 30
0.0
  0
VERTEX
  5
28D
  8
THREE_QUARTER_INCH_THRUCUT
 10
11.16841399543927
 20
12.52005929444751
 30
0.0
  0
VERTEX
  5
28E
  8
THREE_QUARTER_INCH_THRUCUT
 10
11.11316077610777
 20
12.52178349603783
 30
0.0
  0
VERTEX
  5
28F
  8
THREE_QUARTER_INCH_THRUCUT
 10
11.05800326483839
 20
12.52388553358336
 30
0.0
  0
VERTEX
  5
290
  8
THREE_QUARTER_INCH_THRUCUT
 10
11.00294422679373
 20
12.52636405652145
 30
0.0
  0
VERTEX
  5
291
  8
THREE_QUARTER_INCH_THRUCUT
 10
10.9479864271364
 20
12.52921771428946
 30
0.0
  0
VERTEX
  5
292
  8
THREE_QUARTER_INCH_THRUCUT
 10
10.89313263102898
 20
12.53244515632475
 30
0.0
  0
VERTEX
  5
293
  8
THREE_QUARTER_INCH_THRUCUT
 10
10.83838560363408
 20
12.53604503206467
 30
0.0
  0
VERTEX
  5
294
  8
THREE_QUARTER_INCH_THRUCUT
 10
10.78374811011428
 20
12.54001599094657
 30
0.0
  0
VERTEX
  5
295
  8
THREE_QUARTER_INCH_THRUCUT
 10
10.7292229156322
 20
12.54435668240782
 30
0.0
  0
VERTEX
  5
296
  8
THREE_QUARTER_INCH_THRUCUT
 10
10.67481278535041
 20
12.54906575588577
 30
0.0
  0
VERTEX
  5
297
  8
THREE_QUARTER_INCH_THRUCUT
 10
10.62052048443153
 20
12.55414186081777
 30
0.0
  0
VERTEX
  5
298
  8
THREE_QUARTER_INCH_THRUCUT
 10
10.56634877803814
 20
12.55958364664117
 30
0.0
  0
VERTEX
  5
299
  8
THREE_QUARTER_INCH_THRUCUT
 10
10.51230043133284
 20
12.56538976279334
 30
0.0
  0
VERTEX
  5
29A
  8
THREE_QUARTER_INCH_THRUCUT
 10
10.45837820947823
 20
12.57155885871164
 30
0.0
  0
VERTEX
  5
29B
  8
THREE_QUARTER_INCH_THRUCUT
 10
10.40458487763691
 20
12.5780895838334
 30
0.0
  0
VERTEX
  5
29C
  8
THREE_QUARTER_INCH_THRUCUT
 10
10.35092320097147
 20
12.584980587596
 30
0.0
  0
VERTEX
  5
29D
  8
THREE_QUARTER_INCH_THRUCUT
 10
10.2973959446445
 20
12.59223051943678
 30
0.0
  0
VERTEX
  5
29E
  8
THREE_QUARTER_INCH_THRUCUT
 10
10.24400587381861
 20
12.5998380287931
 30
0.0
  0
VERTEX
  5
29F
  8
THREE_QUARTER_INCH_THRUCUT
 10
10.19075575365639
 20
12.60780176510232
 30
0.0
  0
VERTEX
  5
2A0
  8
THREE_QUARTER_INCH_THRUCUT
 10
10.13764834932044
 20
12.6161203778018
 30
0.0
  0
VERTEX
  5
2A1
  8
THREE_QUARTER_INCH_THRUCUT
 10
10.08468642597335
 20
12.62479251632888
 30
0.0
  0
VERTEX
  5
2A2
  8
THREE_QUARTER_INCH_THRUCUT
 10
10.03187274877772
 20
12.63381683012092
 30
0.0
  0
VERTEX
  5
2A3
  8
THREE_QUARTER_INCH_THRUCUT
 10
9.979210082896143
 20
12.64319196861529
 30
0.0
  0
VERTEX
  5
2A4
  8
THREE_QUARTER_INCH_THRUCUT
 10
9.926701193491223
 20
12.65291658124933
 30
0.0
  0
VERTEX
  5
2A5
  8
THREE_QUARTER_INCH_THRUCUT
 10
9.87434884572555
 20
12.66298931746039
 30
0.0
  0
VERTEX
  5
2A6
  8
THREE_QUARTER_INCH_THRUCUT
 10
9.822155804761724
 20
12.67340882668585
 30
0.0
  0
VERTEX
  5
2A7
  8
THREE_QUARTER_INCH_THRUCUT
 10
9.770124835762338
 20
12.68417375836304
 30
0.0
  0
VERTEX
  5
2A8
  8
THREE_QUARTER_INCH_THRUCUT
 10
9.71825870388999
 20
12.69528276192933
 30
0.0
  0
VERTEX
  5
2A9
  8
THREE_QUARTER_INCH_THRUCUT
 10
9.666560174307278
 20
12.70673448682207
 30
0.0
  0
VERTEX
  5
2AA
  8
THREE_QUARTER_INCH_THRUCUT
 10
9.615032012176798
 20
12.71852758247861
 30
0.0
  0
VERTEX
  5
2AB
  8
THREE_QUARTER_INCH_THRUCUT
 10
9.563676982661143
 20
12.73066069833633
 30
0.0
  0
VERTEX
  5
2AC
  8
THREE_QUARTER_INCH_THRUCUT
 10
9.512497850922912
 20
12.74313248383256
 30
0.0
  0
VERTEX
  5
2AD
  8
THREE_QUARTER_INCH_THRUCUT
 10
9.461497382124705
 20
12.75594158840466
 30
0.0
  0
VERTEX
  5
2AE
  8
THREE_QUARTER_INCH_THRUCUT
 10
9.410678341429112
 20
12.76908666148999
 30
0.0
  0
VERTEX
  5
2AF
  8
THREE_QUARTER_INCH_THRUCUT
 10
9.360043493998733
 20
12.7825663525259
 30
0.0
  0
VERTEX
  5
2B0
  8
THREE_QUARTER_INCH_THRUCUT
 10
9.309595604996163
 20
12.79637931094976
 30
0.0
  0
VERTEX
  5
2B1
  8
THREE_QUARTER_INCH_THRUCUT
 10
9.259337439584
 20
12.81052418619891
 30
0.0
  0
VERTEX
  5
2B2
  8
THREE_QUARTER_INCH_THRUCUT
 10
9.209271762924839
 20
12.82499962771071
 30
0.0
  0
VERTEX
  5
2B3
  8
THREE_QUARTER_INCH_THRUCUT
 10
9.159401340181276
 20
12.83980428492252
 30
0.0
  0
VERTEX
  5
2B4
  8
THREE_QUARTER_INCH_THRUCUT
 10
9.10972893651591
 20
12.85493680727169
 30
0.0
  0
VERTEX
  5
2B5
  8
THREE_QUARTER_INCH_THRUCUT
 10
9.060257317091333
 20
12.87039584419558
 30
0.0
  0
VERTEX
  5
2B6
  8
THREE_QUARTER_INCH_THRUCUT
 10
9.010989247070144
 20
12.88618004513154
 30
0.0
  0
VERTEX
  5
2B7
  8
THREE_QUARTER_INCH_THRUCUT
 10
8.961927491614942
 20
12.90228805951693
 30
0.0
  0
VERTEX
  5
2B8
  8
THREE_QUARTER_INCH_THRUCUT
 10
8.91307481588832
 20
12.9187185367891
 30
0.0
  0
VERTEX
  5
2B9
  8
THREE_QUARTER_INCH_THRUCUT
 10
8.864433985052875
 20
12.93547012638541
 30
0.0
  0
VERTEX
  5
2BA
  8
THREE_QUARTER_INCH_THRUCUT
 10
8.816007764271202
 20
12.95254147774322
 30
0.0
  0
VERTEX
  5
2BB
  8
THREE_QUARTER_INCH_THRUCUT
 10
8.767798918705903
 20
12.96993124029988
 30
0.0
  0
VERTEX
  5
2BC
  8
THREE_QUARTER_INCH_THRUCUT
 10
8.719810213519569
 20
12.98763806349274
 30
0.0
  0
VERTEX
  5
2BD
  8
THREE_QUARTER_INCH_THRUCUT
 10
8.672044413874797
 20
13.00566059675916
 30
0.0
  0
VERTEX
  5
2BE
  8
THREE_QUARTER_INCH_THRUCUT
 10
8.624504284934185
 20
13.02399748953651
 30
0.0
  0
VERTEX
  5
2BF
  8
THREE_QUARTER_INCH_THRUCUT
 10
8.577192591860328
 20
13.04264739126212
 30
0.0
  0
VERTEX
  5
2C0
  8
THREE_QUARTER_INCH_THRUCUT
 10
8.530112099815824
 20
13.06160895137336
 30
0.0
  0
VERTEX
  5
2C1
  8
THREE_QUARTER_INCH_THRUCUT
 10
8.48326557396327
 20
13.08088081930758
 30
0.0
  0
VERTEX
  5
2C2
  8
THREE_QUARTER_INCH_THRUCUT
 10
8.436655779465259
 20
13.10046164450214
 30
0.0
  0
VERTEX
  5
2C3
  8
THREE_QUARTER_INCH_THRUCUT
 10
8.390285481484389
 20
13.1203500763944
 30
0.0
  0
VERTEX
  5
2C4
  8
THREE_QUARTER_INCH_THRUCUT
 10
8.344157445183257
 20
13.1405447644217
 30
0.0
  0
VERTEX
  5
2C5
  8
THREE_QUARTER_INCH_THRUCUT
 10
8.298274435724462
 20
13.16104435802141
 30
0.0
  0
VERTEX
  5
2C6
  8
THREE_QUARTER_INCH_THRUCUT
 10
8.252639218270595
 20
13.18184750663088
 30
0.0
  0
VERTEX
  5
2C7
  8
THREE_QUARTER_INCH_THRUCUT
 10
8.207254557984257
 20
13.20295285968747
 30
0.0
  0
VERTEX
  5
2C8
  8
THREE_QUARTER_INCH_THRUCUT
 10
8.162123220028041
 20
13.22435906662853
 30
0.0
  0
VERTEX
  5
2C9
  8
THREE_QUARTER_INCH_THRUCUT
 10
8.117247969564545
 20
13.24606477689141
 30
0.0
  0
VERTEX
  5
2CA
  8
THREE_QUARTER_INCH_THRUCUT
 10
8.072631571756366
 20
13.26806863991347
 30
0.0
  0
VERTEX
  5
2CB
  8
THREE_QUARTER_INCH_THRUCUT
 10
8.0282767917661
 20
13.29036930513208
 30
0.0
  0
VERTEX
  5
2CC
  8
THREE_QUARTER_INCH_THRUCUT
 10
7.984186394756343
 20
13.31296542198458
 30
0.0
  0
VERTEX
  5
2CD
  8
THREE_QUARTER_INCH_THRUCUT
 10
7.940363145889691
 20
13.33585563990832
 30
0.0
  0
VERTEX
  5
2CE
  8
THREE_QUARTER_INCH_THRUCUT
 10
7.89680981032874
 20
13.35903860834067
 30
0.0
  0
VERTEX
  5
2CF
  8
THREE_QUARTER_INCH_THRUCUT
 10
7.85352915323609
 20
13.38251297671898
 30
0.0
  0
VERTEX
  5
2D0
  8
THREE_QUARTER_INCH_THRUCUT
 10
7.810523939774333
 20
13.40627739448061
 30
0.0
  0
VERTEX
  5
2D1
  8
THREE_QUARTER_INCH_THRUCUT
 10
7.767796935106068
 20
13.4303305110629
 30
0.0
  0
VERTEX
  5
2D2
  8
THREE_QUARTER_INCH_THRUCUT
 10
7.725350904393891
 20
13.45467097590323
 30
0.0
  0
VERTEX
  5
2D3
  8
THREE_QUARTER_INCH_THRUCUT
 10
7.683188612800397
 20
13.47929743843893
 30
0.0
  0
VERTEX
  5
2D4
  8
THREE_QUARTER_INCH_THRUCUT
 10
7.641312825488184
 20
13.50420854810737
 30
0.0
  0
VERTEX
  5
2D5
  8
THREE_QUARTER_INCH_THRUCUT
 10
7.599726307619848
 20
13.5294029543459
 30
0.0
  0
VERTEX
  5
2D6
  8
THREE_QUARTER_INCH_THRUCUT
 10
7.558431824357986
 20
13.55487930659188
 30
0.0
  0
VERTEX
  5
2D7
  8
THREE_QUARTER_INCH_THRUCUT
 10
7.517432140865193
 20
13.58063625428267
 30
0.0
  0
VERTEX
  5
2D8
  8
THREE_QUARTER_INCH_THRUCUT
 10
7.476730022304068
 20
13.60667244685561
 30
0.0
  0
VERTEX
  5
2D9
  8
THREE_QUARTER_INCH_THRUCUT
 10
7.436328233837203
 20
13.63298653374807
 30
0.0
  0
VERTEX
  5
2DA
  8
THREE_QUARTER_INCH_THRUCUT
 10
7.396229540627198
 20
13.65957716439739
 30
0.0
  0
VERTEX
  5
2DB
  8
THREE_QUARTER_INCH_THRUCUT
 10
7.356436707836648
 20
13.68644298824095
 30
0.0
  0
VERTEX
  5
2DC
  8
THREE_QUARTER_INCH_THRUCUT
 10
7.316952500628151
 20
13.71358265471608
 30
0.0
  0
VERTEX
  5
2DD
  8
THREE_QUARTER_INCH_THRUCUT
 10
7.277779684164302
 20
13.74099481326015
 30
0.0
  0
VERTEX
  5
2DE
  8
THREE_QUARTER_INCH_THRUCUT
 10
7.238921023607698
 20
13.76867811331051
 30
0.0
  0
VERTEX
  5
2DF
  8
THREE_QUARTER_INCH_THRUCUT
 10
7.200379284120933
 20
13.79663120430452
 30
0.0
  0
VERTEX
  5
2E0
  8
THREE_QUARTER_INCH_THRUCUT
 10
7.162157230866606
 20
13.82485273567953
 30
0.0
  0
VERTEX
  5
2E1
  8
THREE_QUARTER_INCH_THRUCUT
 10
7.124257629007314
 20
13.8533413568729
 30
0.0
  0
VERTEX
  5
2E2
  8
THREE_QUARTER_INCH_THRUCUT
 10
7.086683243705651
 20
13.88209571732198
 30
0.0
  0
VERTEX
  5
2E3
  8
THREE_QUARTER_INCH_THRUCUT
 10
7.049436840124216
 20
13.91111446646413
 30
0.0
  0
VERTEX
  5
2E4
  8
THREE_QUARTER_INCH_THRUCUT
 10
7.012521183425605
 20
13.94039625373671
 30
0.0
  0
VERTEX
  5
2E5
  8
THREE_QUARTER_INCH_THRUCUT
 10
6.975939038772411
 20
13.96993972857707
 30
0.0
  0
VERTEX
  5
2E6
  8
THREE_QUARTER_INCH_THRUCUT
 10
6.939693171327235
 20
13.99974354042256
 30
0.0
  0
VERTEX
  5
2E7
  8
THREE_QUARTER_INCH_THRUCUT
 10
6.903786346252671
 20
14.02980633871055
 30
0.0
  0
VERTEX
  5
2E8
  8
THREE_QUARTER_INCH_THRUCUT
 10
6.868221328711315
 20
14.06012677287837
 30
0.0
  0
VERTEX
  5
2E9
  8
THREE_QUARTER_INCH_THRUCUT
 10
6.833000883865765
 20
14.09070349236341
 30
0.0
  0
VERTEX
  5
2EA
  8
THREE_QUARTER_INCH_THRUCUT
 10
6.798127776878616
 20
14.12153514660299
 30
0.0
  0
VERTEX
  5
2EB
  8
THREE_QUARTER_INCH_THRUCUT
 10
6.763604772912466
 20
14.1526203850345
 30
0.0
  0
VERTEX
  5
2EC
  8
THREE_QUARTER_INCH_THRUCUT
 10
6.729434637129909
 20
14.18395785709527
 30
0.0
  0
VERTEX
  5
2ED
  8
THREE_QUARTER_INCH_THRUCUT
 10
6.695620134693544
 20
14.21554621222266
 30
0.0
  0
VERTEX
  5
2EE
  8
THREE_QUARTER_INCH_THRUCUT
 10
6.662164030765966
 20
14.24738409985404
 30
0.0
  0
VERTEX
  5
2EF
  8
THREE_QUARTER_INCH_THRUCUT
 10
6.629069090509772
 20
14.27947016942674
 30
0.0
  0
VERTEX
  5
2F0
  8
THREE_QUARTER_INCH_THRUCUT
 10
6.596338079087557
 20
14.31180307037815
 30
0.0
  0
VERTEX
  5
2F1
  8
THREE_QUARTER_INCH_THRUCUT
 10
6.56397376166192
 20
14.34438145214559
 30
0.0
  0
VERTEX
  5
2F2
  8
THREE_QUARTER_INCH_THRUCUT
 10
6.531978903395455
 20
14.37720396416644
 30
0.0
  0
VERTEX
  5
2F3
  8
THREE_QUARTER_INCH_THRUCUT
 10
6.50035626945076
 20
14.41026925587804
 30
0.0
  0
VERTEX
  5
2F4
  8
THREE_QUARTER_INCH_THRUCUT
 10
6.469108624990431
 20
14.44357597671775
 30
0.0
  0
VERTEX
  5
2F5
  8
THREE_QUARTER_INCH_THRUCUT
 10
6.438238735177062
 20
14.47712277612294
 30
0.0
  0
VERTEX
  5
2F6
  8
THREE_QUARTER_INCH_THRUCUT
 10
6.407749365173254
 20
14.51090830353094
 30
0.0
  0
VERTEX
  5
2F7
  8
THREE_QUARTER_INCH_THRUCUT
 10
6.377643280141601
 20
14.54493120837913
 30
0.0
  0
VERTEX
  5
2F8
  8
THREE_QUARTER_INCH_THRUCUT
 10
6.347923245244698
 20
14.57919014010484
 30
0.0
  0
VERTEX
  5
2F9
  8
THREE_QUARTER_INCH_THRUCUT
 10
6.318592025645144
 20
14.61368374814545
 30
0.0
  0
VERTEX
  5
2FA
  8
THREE_QUARTER_INCH_THRUCUT
 10
6.289652386505534
 20
14.6484106819383
 30
0.0
  0
VERTEX
  5
2FB
  8
THREE_QUARTER_INCH_THRUCUT
 10
6.261107092988464
 20
14.68336959092076
 30
0.0
  0
VERTEX
  5
2FC
  8
THREE_QUARTER_INCH_THRUCUT
 10
6.232958910256531
 20
14.71855912453017
 30
0.0
  0
VERTEX
  5
2FD
  8
THREE_QUARTER_INCH_THRUCUT
 10
6.205210603472333
 20
14.75397793220389
 30
0.0
  0
VERTEX
  5
2FE
  8
THREE_QUARTER_INCH_THRUCUT
 10
6.177864937798463
 20
14.78962466337927
 30
0.0
  0
VERTEX
  5
2FF
  8
THREE_QUARTER_INCH_THRUCUT
 10
6.150924678397521
 20
14.82549796749369
 30
0.0
  0
VERTEX
  5
300
  8
THREE_QUARTER_INCH_THRUCUT
 10
6.124392590432102
 20
14.86159649398447
 30
0.0
  0
VERTEX
  5
301
  8
THREE_QUARTER_INCH_THRUCUT
 10
6.098271439064801
 20
14.89791889228899
 30
0.0
  0
VERTEX
  5
302
  8
THREE_QUARTER_INCH_THRUCUT
 10
6.072563989458216
 20
14.9344638118446
 30
0.0
  0
VERTEX
  5
303
  8
THREE_QUARTER_INCH_THRUCUT
 10
6.047273006774942
 20
14.97122990208866
 30
0.0
  0
VERTEX
  5
304
  8
THREE_QUARTER_INCH_THRUCUT
 10
6.022401256177577
 20
15.00821581245851
 30
0.0
  0
VERTEX
  5
305
  8
THREE_QUARTER_INCH_THRUCUT
 10
5.997951502828718
 20
15.04542019239152
 30
0.0
  0
VERTEX
  5
306
  8
THREE_QUARTER_INCH_THRUCUT
 10
5.973926511890959
 20
15.08284169132504
 30
0.0
  0
VERTEX
  5
307
  8
THREE_QUARTER_INCH_THRUCUT
 10
5.950329048526898
 20
15.12047895869643
 30
0.0
  0
VERTEX
  5
308
  8
THREE_QUARTER_INCH_THRUCUT
 10
5.927161877899131
 20
15.15833064394304
 30
0.0
  0
VERTEX
  5
309
  8
THREE_QUARTER_INCH_THRUCUT
 10
5.904427765170254
 20
15.19639539650222
 30
0.0
  0
VERTEX
  5
30A
  8
THREE_QUARTER_INCH_THRUCUT
 10
5.841147760391268
 20
15.30414448110849
 30
0.0
  0
VERTEX
  5
30B
  8
THREE_QUARTER_INCH_THRUCUT
 10
5.778349291464695
 20
15.41202662929211
 30
0.0
  0
VERTEX
  5
30C
  8
THREE_QUARTER_INCH_THRUCUT
 10
5.716032596657463
 20
15.52004095390851
 30
0.0
  0
VERTEX
  5
30D
  8
THREE_QUARTER_INCH_THRUCUT
 10
5.654197914236502
 20
15.6281865678131
 30
0.0
  0
VERTEX
  5
30E
  8
THREE_QUARTER_INCH_THRUCUT
 10
5.592845482468742
 20
15.73646258386131
 30
0.0
  0
VERTEX
  5
30F
  8
THREE_QUARTER_INCH_THRUCUT
 10
5.53197553962111
 20
15.84486811490855
 30
0.0
  0
VERTEX
  5
310
  8
THREE_QUARTER_INCH_THRUCUT
 10
5.471588323960535
 20
15.95340227381027
 30
0.0
  0
VERTEX
  5
311
  8
THREE_QUARTER_INCH_THRUCUT
 10
5.411684073753951
 20
16.06206417342186
 30
0.0
  0
VERTEX
  5
312
  8
THREE_QUARTER_INCH_THRUCUT
 10
5.352263027268283
 20
16.17085292659877
 30
0.0
  0
VERTEX
  5
313
  8
THREE_QUARTER_INCH_THRUCUT
 10
5.29332542277046
 20
16.27976764619641
 30
0.0
  0
VERTEX
  5
314
  8
THREE_QUARTER_INCH_THRUCUT
 10
5.234871498527413
 20
16.38880744507021
 30
0.0
  0
VERTEX
  5
315
  8
THREE_QUARTER_INCH_THRUCUT
 10
5.176901492806071
 20
16.49797143607559
 30
0.0
  0
VERTEX
  5
316
  8
THREE_QUARTER_INCH_THRUCUT
 10
5.119415643873362
 20
16.60725873206797
 30
0.0
  0
VERTEX
  5
317
  8
THREE_QUARTER_INCH_THRUCUT
 10
5.062414189996217
 20
16.71666844590277
 30
0.0
  0
VERTEX
  5
318
  8
THREE_QUARTER_INCH_THRUCUT
 10
5.005897369441563
 20
16.82619969043542
 30
0.0
  0
VERTEX
  5
319
  8
THREE_QUARTER_INCH_THRUCUT
 10
4.949865420476332
 20
16.93585157852135
 30
0.0
  0
VERTEX
  5
31A
  8
THREE_QUARTER_INCH_THRUCUT
 10
4.894318581367451
 20
17.04562322301597
 30
0.0
  0
VERTEX
  5
31B
  8
THREE_QUARTER_INCH_THRUCUT
 10
4.839257090381849
 20
17.1555137367747
 30
0.0
  0
VERTEX
  5
31C
  8
THREE_QUARTER_INCH_THRUCUT
 10
4.784681185786458
 20
17.26552223265298
 30
0.0
  0
VERTEX
  5
31D
  8
THREE_QUARTER_INCH_THRUCUT
 10
4.730591105848205
 20
17.37564782350622
 30
0.0
  0
VERTEX
  5
31E
  8
THREE_QUARTER_INCH_THRUCUT
 10
4.67698708883402
 20
17.48588962218985
 30
0.0
  0
VERTEX
  5
31F
  8
THREE_QUARTER_INCH_THRUCUT
 10
4.623869373010831
 20
17.59624674155929
 30
0.0
  0
VERTEX
  5
320
  8
THREE_QUARTER_INCH_THRUCUT
 10
4.571238196645568
 20
17.70671829446997
 30
0.0
  0
VERTEX
  5
321
  8
THREE_QUARTER_INCH_THRUCUT
 10
4.51909379800516
 20
17.81730339377729
 30
0.0
  0
VERTEX
  5
322
  8
THREE_QUARTER_INCH_THRUCUT
 10
4.467436415356538
 20
17.92800115233671
 30
0.0
  0
VERTEX
  5
323
  8
THREE_QUARTER_INCH_THRUCUT
 10
4.416266286966628
 20
18.03881068300362
 30
0.0
  0
VERTEX
  5
324
  8
THREE_QUARTER_INCH_THRUCUT
 10
4.365583651102362
 20
18.14973109863345
 30
0.0
  0
VERTEX
  5
325
  8
THREE_QUARTER_INCH_THRUCUT
 10
4.315388746030669
 20
18.26076151208164
 30
0.0
  0
VERTEX
  5
326
  8
THREE_QUARTER_INCH_THRUCUT
 10
4.265681810018476
 20
18.3719010362036
 30
0.0
  0
VERTEX
  5
327
  8
THREE_QUARTER_INCH_THRUCUT
 10
4.216463081332715
 20
18.48314878385475
 30
0.0
  0
VERTEX
  5
328
  8
THREE_QUARTER_INCH_THRUCUT
 10
4.167732798240314
 20
18.59450386789052
 30
0.0
  0
VERTEX
  5
329
  8
THREE_QUARTER_INCH_THRUCUT
 10
4.1194911990082
 20
18.70596540116633
 30
0.0
  0
VERTEX
  5
32A
  8
THREE_QUARTER_INCH_THRUCUT
 10
4.071738521903305
 20
18.81753249653761
 30
0.0
  0
VERTEX
  5
32B
  8
THREE_QUARTER_INCH_THRUCUT
 10
4.024475005192559
 20
18.92920426685977
 30
0.0
  0
VERTEX
  5
32C
  8
THREE_QUARTER_INCH_THRUCUT
 10
3.977700887142888
 20
19.04097982498824
 30
0.0
  0
VERTEX
  5
32D
  8
THREE_QUARTER_INCH_THRUCUT
 10
3.931416406021225
 20
19.15285828377845
 30
0.0
  0
VERTEX
  5
32E
  8
THREE_QUARTER_INCH_THRUCUT
 10
3.885621800094496
 20
19.26483875608582
 30
0.0
  0
VERTEX
  5
32F
  8
THREE_QUARTER_INCH_THRUCUT
 10
3.840317307629632
 20
19.37692035476576
 30
0.0
  0
VERTEX
  5
330
  8
THREE_QUARTER_INCH_THRUCUT
 10
3.795503166893561
 20
19.48910219267371
 30
0.0
  0
VERTEX
  5
331
  8
THREE_QUARTER_INCH_THRUCUT
 10
3.751179616153213
 20
19.60138338266508
 30
0.0
  0
VERTEX
  5
332
  8
THREE_QUARTER_INCH_THRUCUT
 10
3.707346893675518
 20
19.7137630375953
 30
0.0
  0
VERTEX
  5
333
  8
THREE_QUARTER_INCH_THRUCUT
 10
3.664005237727403
 20
19.82624027031979
 30
0.0
  0
VERTEX
  5
334
  8
THREE_QUARTER_INCH_THRUCUT
 10
3.6211548865758
 20
19.93881419369398
 30
0.0
  0
VERTEX
  5
335
  8
THREE_QUARTER_INCH_THRUCUT
 10
3.578796078487636
 20
20.05148392057328
 30
0.0
  0
VERTEX
  5
336
  8
THREE_QUARTER_INCH_THRUCUT
 10
3.536929051729841
 20
20.16424856381313
 30
0.0
  0
VERTEX
  5
337
  8
THREE_QUARTER_INCH_THRUCUT
 10
3.495554044569344
 20
20.27710723626894
 30
0.0
  0
VERTEX
  5
338
  8
THREE_QUARTER_INCH_THRUCUT
 10
3.454671295273076
 20
20.39005905079614
 30
0.0
  0
VERTEX
  5
339
  8
THREE_QUARTER_INCH_THRUCUT
 10
3.414281042107963
 20
20.50310312025015
 30
0.0
  0
VERTEX
  5
33A
  8
THREE_QUARTER_INCH_THRUCUT
 10
3.374383523340937
 20
20.6162385574864
 30
0.0
  0
VERTEX
  5
33B
  8
THREE_QUARTER_INCH_THRUCUT
 10
3.334978977238925
 20
20.7294644753603
 30
0.0
  0
VERTEX
  5
33C
  8
THREE_QUARTER_INCH_THRUCUT
 10
3.296067642068858
 20
20.84277998672728
 30
0.0
  0
VERTEX
  5
33D
  8
THREE_QUARTER_INCH_THRUCUT
 10
3.257649756097665
 20
20.95618420444276
 30
0.0
  0
VERTEX
  5
33E
  8
THREE_QUARTER_INCH_THRUCUT
 10
3.219725557592275
 20
21.06967624136217
 30
0.0
  0
VERTEX
  5
33F
  8
THREE_QUARTER_INCH_THRUCUT
 10
3.182295284819617
 20
21.18325521034093
 30
0.0
  0
VERTEX
  5
340
  8
THREE_QUARTER_INCH_THRUCUT
 10
3.14535917604662
 20
21.29692022423446
 30
0.0
  0
VERTEX
  5
341
  8
THREE_QUARTER_INCH_THRUCUT
 10
3.108917469540213
 20
21.41067039589818
 30
0.0
  0
VERTEX
  5
342
  8
THREE_QUARTER_INCH_THRUCUT
 10
3.072970403567326
 20
21.52450483818753
 30
0.0
  0
VERTEX
  5
343
  8
THREE_QUARTER_INCH_THRUCUT
 10
3.037518216394888
 20
21.63842266395791
 30
0.0
  0
VERTEX
  5
344
  8
THREE_QUARTER_INCH_THRUCUT
 10
3.002561146289828
 20
21.75242298606477
 30
0.0
  0
VERTEX
  5
345
  8
THREE_QUARTER_INCH_THRUCUT
 10
2.968099431519076
 20
21.8665049173635
 30
0.0
  0
VERTEX
  5
346
  8
THREE_QUARTER_INCH_THRUCUT
 10
2.93413331034956
 20
21.98066757070955
 30
0.0
  0
VERTEX
  5
347
  8
THREE_QUARTER_INCH_THRUCUT
 10
2.90066302104821
 20
22.09491005895833
 30
0.0
  0
VERTEX
  5
348
  8
THREE_QUARTER_INCH_THRUCUT
 10
2.867688801881956
 20
22.20923149496527
 30
0.0
  0
VERTEX
  5
349
  8
THREE_QUARTER_INCH_THRUCUT
 10
2.835210891117725
 20
22.32363099158579
 30
0.0
  0
VERTEX
  5
34A
  8
THREE_QUARTER_INCH_THRUCUT
 10
2.803229527022448
 20
22.43810766167531
 30
0.0
  0
VERTEX
  5
34B
  8
THREE_QUARTER_INCH_THRUCUT
 10
2.771744947863055
 20
22.55266061808926
 30
0.0
  0
VERTEX
  5
34C
  8
THREE_QUARTER_INCH_THRUCUT
 10
2.740757391906472
 20
22.66728897368306
 30
0.0
  0
VERTEX
  5
34D
  8
THREE_QUARTER_INCH_THRUCUT
 10
2.710267097419631
 20
22.78199184131213
 30
0.0
  0
VERTEX
  5
34E
  8
THREE_QUARTER_INCH_THRUCUT
 10
2.680274302669461
 20
22.89676833383189
 30
0.0
  0
VERTEX
  5
34F
  8
THREE_QUARTER_INCH_THRUCUT
 10
2.65077924592289
 20
23.01161756409778
 30
0.0
  0
VERTEX
  5
350
  8
THREE_QUARTER_INCH_THRUCUT
 10
2.621782165446848
 20
23.1265386449652
 30
0.0
  0
VERTEX
  5
351
  8
THREE_QUARTER_INCH_THRUCUT
 10
2.593283299508264
 20
23.24153068928959
 30
0.0
  0
VERTEX
  5
352
  8
THREE_QUARTER_INCH_THRUCUT
 10
2.565282886374068
 20
23.35659280992637
 30
0.0
  0
VERTEX
  5
353
  8
THREE_QUARTER_INCH_THRUCUT
 10
2.537781164311188
 20
23.47172411973096
 30
0.0
  0
VERTEX
  5
354
  8
THREE_QUARTER_INCH_THRUCUT
 10
2.510778371586554
 20
23.58692373155878
 30
0.0
  0
VERTEX
  5
355
  8
THREE_QUARTER_INCH_THRUCUT
 10
2.484274746467094
 20
23.70219075826526
 30
0.0
  0
VERTEX
  5
356
  8
THREE_QUARTER_INCH_THRUCUT
 10
2.45827052721974
 20
23.81752431270582
 30
0.0
  0
VERTEX
  5
357
  8
THREE_QUARTER_INCH_THRUCUT
 10
2.432765952111418
 20
23.93292350773589
 30
0.0
  0
VERTEX
  5
358
  8
THREE_QUARTER_INCH_THRUCUT
 10
2.407761259409058
 20
24.04838745621088
 30
0.0
  0
VERTEX
  5
359
  8
THREE_QUARTER_INCH_THRUCUT
 10
2.383256687379592
 20
24.16391527098621
 30
0.0
  0
VERTEX
  5
35A
  8
THREE_QUARTER_INCH_THRUCUT
 10
2.359252474289946
 20
24.27950606491732
 30
0.0
  0
VERTEX
  5
35B
  8
THREE_QUARTER_INCH_THRUCUT
 10
2.335748858407051
 20
24.39515895085963
 30
0.0
  0
VERTEX
  5
35C
  8
THREE_QUARTER_INCH_THRUCUT
 10
2.312746077997835
 20
24.51087304166856
 30
0.0
  0
VERTEX
  5
35D
  8
THREE_QUARTER_INCH_THRUCUT
 10
2.290244371329228
 20
24.62664745019953
 30
0.0
  0
VERTEX
  5
35E
  8
THREE_QUARTER_INCH_THRUCUT
 10
2.268243976668158
 20
24.74248128930796
 30
0.0
  0
VERTEX
  5
35F
  8
THREE_QUARTER_INCH_THRUCUT
 10
2.246745132281557
 20
24.85837367184928
 30
0.0
  0
VERTEX
  5
360
  8
THREE_QUARTER_INCH_THRUCUT
 10
2.225748076436352
 20
24.97432371067891
 30
0.0
  0
VERTEX
  5
361
  8
THREE_QUARTER_INCH_THRUCUT
 10
2.205253047399472
 20
25.09033051865228
 30
0.0
  0
VERTEX
  5
362
  8
THREE_QUARTER_INCH_THRUCUT
 10
2.185260283437847
 20
25.2063932086248
 30
0.0
  0
VERTEX
  5
363
  8
THREE_QUARTER_INCH_THRUCUT
 10
2.165770022818406
 20
25.32251089345191
 30
0.0
  0
VERTEX
  5
364
  8
THREE_QUARTER_INCH_THRUCUT
 10
2.14678250380808
 20
25.43868268598901
 30
0.0
  0
VERTEX
  5
365
  8
THREE_QUARTER_INCH_THRUCUT
 10
2.128297964673795
 20
25.55490769909155
 30
0.0
  0
VERTEX
  5
366
  8
THREE_QUARTER_INCH_THRUCUT
 10
2.110316643682483
 20
25.67118504561493
 30
0.0
  0
VERTEX
  5
367
  8
THREE_QUARTER_INCH_THRUCUT
 10
2.092838779101071
 20
25.78751383841459
 30
0.0
  0
VERTEX
  5
368
  8
THREE_QUARTER_INCH_THRUCUT
 10
2.075864609196489
 20
25.90389319034594
 30
0.0
  0
VERTEX
  5
369
  8
THREE_QUARTER_INCH_THRUCUT
 10
2.059394372235667
 20
26.02032221426441
 30
0.0
  0
VERTEX
  5
36A
  8
THREE_QUARTER_INCH_THRUCUT
 10
2.043428306485534
 20
26.13680002302542
 30
0.0
  0
VERTEX
  5
36B
  8
THREE_QUARTER_INCH_THRUCUT
 10
2.027966650213019
 20
26.2533257294844
 30
0.0
  0
VERTEX
  5
36C
  8
THREE_QUARTER_INCH_THRUCUT
 10
2.013009641685051
 20
26.36989844649677
 30
0.0
  0
VERTEX
  5
36D
  8
THREE_QUARTER_INCH_THRUCUT
 10
1.998557519168559
 20
26.48651728691794
 30
0.0
  0
VERTEX
  5
36E
  8
THREE_QUARTER_INCH_THRUCUT
 10
1.984610520930473
 20
26.60318136360335
 30
0.0
  0
VERTEX
  5
36F
  8
THREE_QUARTER_INCH_THRUCUT
 10
1.971168885237722
 20
26.71988978940843
 30
0.0
  0
VERTEX
  5
370
  8
THREE_QUARTER_INCH_THRUCUT
 10
1.958232850357235
 20
26.83664167718858
 30
0.0
  0
VERTEX
  5
371
  8
THREE_QUARTER_INCH_THRUCUT
 10
1.945802654555941
 20
26.95343613979923
 30
0.0
  0
VERTEX
  5
372
  8
THREE_QUARTER_INCH_THRUCUT
 10
1.93387853610077
 20
27.07027229009581
 30
0.0
  0
VERTEX
  5
373
  8
THREE_QUARTER_INCH_THRUCUT
 10
1.92246073325865
 20
27.18714924093374
 30
0.0
  0
VERTEX
  5
374
  8
THREE_QUARTER_INCH_THRUCUT
 10
1.911549484296511
 20
27.30406610516845
 30
0.0
  0
VERTEX
  5
375
  8
THREE_QUARTER_INCH_THRUCUT
 10
1.901145027481283
 20
27.42102199565534
 30
0.0
  0
VERTEX
  5
376
  8
THREE_QUARTER_INCH_THRUCUT
 10
1.891247601079894
 20
27.53801602524987
 30
0.0
  0
VERTEX
  5
377
  8
THREE_QUARTER_INCH_THRUCUT
 10
1.881857443359274
 20
27.65504730680743
 30
0.0
  0
VERTEX
  5
378
  8
THREE_QUARTER_INCH_THRUCUT
 10
1.872974792586352
 20
27.77211495318345
 30
0.0
  0
VERTEX
  5
379
  8
THREE_QUARTER_INCH_THRUCUT
 10
1.864599887028056
 20
27.88921807723336
 30
0.0
  0
VERTEX
  5
37A
  8
THREE_QUARTER_INCH_THRUCUT
 10
1.856732964951317
 20
28.00635579181259
 30
0.0
  0
VERTEX
  5
37B
  8
THREE_QUARTER_INCH_THRUCUT
 10
1.849374264623064
 20
28.12352720977655
 30
0.0
  0
VERTEX
  5
37C
  8
THREE_QUARTER_INCH_THRUCUT
 10
1.842524024310225
 20
28.24073144398066
 30
0.0
  0
VERTEX
  5
37D
  8
THREE_QUARTER_INCH_THRUCUT
 10
1.83618248227973
 20
28.35796760728037
 30
0.0
  0
VERTEX
  5
37E
  8
THREE_QUARTER_INCH_THRUCUT
 10
1.830349876798509
 20
28.47523481253107
 30
0.0
  0
VERTEX
  5
37F
  8
THREE_QUARTER_INCH_THRUCUT
 10
1.82502644613349
 20
28.5925321725882
 30
0.0
  0
VERTEX
  5
380
  8
THREE_QUARTER_INCH_THRUCUT
 10
1.820212428551602
 20
28.70985880030717
 30
0.0
  0
VERTEX
  5
381
  8
THREE_QUARTER_INCH_THRUCUT
 10
1.815908062319776
 20
28.82721380854343
 30
0.0
  0
VERTEX
  5
382
  8
THREE_QUARTER_INCH_THRUCUT
 10
1.812113585704939
 20
28.94459631015238
 30
0.0
  0
VERTEX
  5
383
  8
THREE_QUARTER_INCH_THRUCUT
 10
1.808829236974022
 20
29.06200541798944
 30
0.0
  0
VERTEX
  5
384
  8
THREE_QUARTER_INCH_THRUCUT
 10
1.806055254393954
 20
29.17944024491005
 30
0.0
  0
VERTEX
  5
385
  8
THREE_QUARTER_INCH_THRUCUT
 10
1.803791876231664
 20
29.29689990376963
 30
0.0
  0
VERTEX
  5
386
  8
THREE_QUARTER_INCH_THRUCUT
 10
1.80203934075408
 20
29.41438350742359
 30
0.0
  0
VERTEX
  5
387
  8
THREE_QUARTER_INCH_THRUCUT
 10
1.800797886228132
 20
29.53189016872737
 30
0.0
  0
VERTEX
  5
388
  8
THREE_QUARTER_INCH_THRUCUT
 10
1.800067750920751
 20
29.64941900053638
 30
0.0
  0
VERTEX
  5
389
  8
THREE_QUARTER_INCH_THRUCUT
 10
1.799849173098863
 20
29.76696911570605
 30
0.0
  0
VERTEX
  5
38A
  8
THREE_QUARTER_INCH_THRUCUT
 10
1.799852644255992
 20
29.77791512096462
 30
0.0
  0
VERTEX
  5
38B
  8
THREE_QUARTER_INCH_THRUCUT
 10
1.799849173098863
 20
29.7888611262232
 30
0.0
  0
VERTEX
  5
38C
  8
THREE_QUARTER_INCH_THRUCUT
 10
1.800067750920751
 20
29.90641124139286
 30
0.0
  0
VERTEX
  5
38D
  8
THREE_QUARTER_INCH_THRUCUT
 10
1.800797886228132
 20
30.02394007320187
 30
0.0
  0
VERTEX
  5
38E
  8
THREE_QUARTER_INCH_THRUCUT
 10
1.80203934075408
 20
30.14144673450565
 30
0.0
  0
VERTEX
  5
38F
  8
THREE_QUARTER_INCH_THRUCUT
 10
1.803791876231664
 20
30.25893033815962
 30
0.0
  0
VERTEX
  5
390
  8
THREE_QUARTER_INCH_THRUCUT
 10
1.806055254393954
 20
30.37638999701919
 30
0.0
  0
VERTEX
  5
391
  8
THREE_QUARTER_INCH_THRUCUT
 10
1.808829236974022
 20
30.4938248239398
 30
0.0
  0
VERTEX
  5
392
  8
THREE_QUARTER_INCH_THRUCUT
 10
1.812113585704939
 20
30.61123393177687
 30
0.0
  0
VERTEX
  5
393
  8
THREE_QUARTER_INCH_THRUCUT
 10
1.815908062319776
 20
30.72861643338582
 30
0.0
  0
VERTEX
  5
394
  8
THREE_QUARTER_INCH_THRUCUT
 10
1.820212428551602
 20
30.84597144162207
 30
0.0
  0
VERTEX
  5
395
  8
THREE_QUARTER_INCH_THRUCUT
 10
1.82502644613349
 20
30.96329806934105
 30
0.0
  0
VERTEX
  5
396
  8
THREE_QUARTER_INCH_THRUCUT
 10
1.830349876798509
 20
31.08059542939818
 30
0.0
  0
VERTEX
  5
397
  8
THREE_QUARTER_INCH_THRUCUT
 10
1.83618248227973
 20
31.19786263464888
 30
0.0
  0
VERTEX
  5
398
  8
THREE_QUARTER_INCH_THRUCUT
 10
1.842524024310225
 20
31.31509879794858
 30
0.0
  0
VERTEX
  5
399
  8
THREE_QUARTER_INCH_THRUCUT
 10
1.849374264623064
 20
31.4323030321527
 30
0.0
  0
VERTEX
  5
39A
  8
THREE_QUARTER_INCH_THRUCUT
 10
1.856732964951317
 20
31.54947445011666
 30
0.0
  0
VERTEX
  5
39B
  8
THREE_QUARTER_INCH_THRUCUT
 10
1.864599887028056
 20
31.66661216469588
 30
0.0
  0
VERTEX
  5
39C
  8
THREE_QUARTER_INCH_THRUCUT
 10
1.872974792586352
 20
31.7837152887458
 30
0.0
  0
VERTEX
  5
39D
  8
THREE_QUARTER_INCH_THRUCUT
 10
1.881857443359274
 20
31.90078293512182
 30
0.0
  0
VERTEX
  5
39E
  8
THREE_QUARTER_INCH_THRUCUT
 10
1.891247601079894
 20
32.01781421667938
 30
0.0
  0
VERTEX
  5
39F
  8
THREE_QUARTER_INCH_THRUCUT
 10
1.901145027481283
 20
32.1348082462739
 30
0.0
  0
VERTEX
  5
3A0
  8
THREE_QUARTER_INCH_THRUCUT
 10
1.911549484296511
 20
32.2517641367608
 30
0.0
  0
VERTEX
  5
3A1
  8
THREE_QUARTER_INCH_THRUCUT
 10
1.92246073325865
 20
32.3686810009955
 30
0.0
  0
VERTEX
  5
3A2
  8
THREE_QUARTER_INCH_THRUCUT
 10
1.93387853610077
 20
32.48555795183343
 30
0.0
  0
VERTEX
  5
3A3
  8
THREE_QUARTER_INCH_THRUCUT
 10
1.945802654555941
 20
32.60239410213001
 30
0.0
  0
VERTEX
  5
3A4
  8
THREE_QUARTER_INCH_THRUCUT
 10
1.958232850357235
 20
32.71918856474068
 30
0.0
  0
VERTEX
  5
3A5
  8
THREE_QUARTER_INCH_THRUCUT
 10
1.971168885237722
 20
32.83594045252082
 30
0.0
  0
VERTEX
  5
3A6
  8
THREE_QUARTER_INCH_THRUCUT
 10
1.984610520930473
 20
32.95264887832589
 30
0.0
  0
VERTEX
  5
3A7
  8
THREE_QUARTER_INCH_THRUCUT
 10
1.998557519168559
 20
33.0693129550113
 30
0.0
  0
VERTEX
  5
3A8
  8
THREE_QUARTER_INCH_THRUCUT
 10
2.013009641685051
 20
33.18593179543248
 30
0.0
  0
VERTEX
  5
3A9
  8
THREE_QUARTER_INCH_THRUCUT
 10
2.027966650213019
 20
33.30250451244484
 30
0.0
  0
VERTEX
  5
3AA
  8
THREE_QUARTER_INCH_THRUCUT
 10
2.043428306485534
 20
33.41903021890382
 30
0.0
  0
VERTEX
  5
3AB
  8
THREE_QUARTER_INCH_THRUCUT
 10
2.059394372235667
 20
33.53550802766483
 30
0.0
  0
VERTEX
  5
3AC
  8
THREE_QUARTER_INCH_THRUCUT
 10
2.075864609196489
 20
33.6519370515833
 30
0.0
  0
VERTEX
  5
3AD
  8
THREE_QUARTER_INCH_THRUCUT
 10
2.092838779101071
 20
33.76831640351466
 30
0.0
  0
VERTEX
  5
3AE
  8
THREE_QUARTER_INCH_THRUCUT
 10
2.110316643682483
 20
33.88464519631431
 30
0.0
  0
VERTEX
  5
3AF
  8
THREE_QUARTER_INCH_THRUCUT
 10
2.128297964673795
 20
34.0009225428377
 30
0.0
  0
VERTEX
  5
3B0
  8
THREE_QUARTER_INCH_THRUCUT
 10
2.14678250380808
 20
34.11714755594024
 30
0.0
  0
VERTEX
  5
3B1
  8
THREE_QUARTER_INCH_THRUCUT
 10
2.165770022818406
 20
34.23331934847734
 30
0.0
  0
VERTEX
  5
3B2
  8
THREE_QUARTER_INCH_THRUCUT
 10
2.185260283437847
 20
34.34943703330444
 30
0.0
  0
VERTEX
  5
3B3
  8
THREE_QUARTER_INCH_THRUCUT
 10
2.205253047399472
 20
34.46549972327696
 30
0.0
  0
VERTEX
  5
3B4
  8
THREE_QUARTER_INCH_THRUCUT
 10
2.225748076436352
 20
34.58150653125033
 30
0.0
  0
VERTEX
  5
3B5
  8
THREE_QUARTER_INCH_THRUCUT
 10
2.246745132281557
 20
34.69745657007996
 30
0.0
  0
VERTEX
  5
3B6
  8
THREE_QUARTER_INCH_THRUCUT
 10
2.268243976668158
 20
34.81334895262128
 30
0.0
  0
VERTEX
  5
3B7
  8
THREE_QUARTER_INCH_THRUCUT
 10
2.290244371329228
 20
34.92918279172972
 30
0.0
  0
VERTEX
  5
3B8
  8
THREE_QUARTER_INCH_THRUCUT
 10
2.312746077997835
 20
35.04495720026068
 30
0.0
  0
VERTEX
  5
3B9
  8
THREE_QUARTER_INCH_THRUCUT
 10
2.335748858407051
 20
35.1606712910696
 30
0.0
  0
VERTEX
  5
3BA
  8
THREE_QUARTER_INCH_THRUCUT
 10
2.359252474289946
 20
35.27632417701192
 30
0.0
  0
VERTEX
  5
3BB
  8
THREE_QUARTER_INCH_THRUCUT
 10
2.383256687379592
 20
35.39191497094303
 30
0.0
  0
VERTEX
  5
3BC
  8
THREE_QUARTER_INCH_THRUCUT
 10
2.407761259409058
 20
35.50744278571838
 30
0.0
  0
VERTEX
  5
3BD
  8
THREE_QUARTER_INCH_THRUCUT
 10
2.432765952111418
 20
35.62290673419336
 30
0.0
  0
VERTEX
  5
3BE
  8
THREE_QUARTER_INCH_THRUCUT
 10
2.45827052721974
 20
35.73830592922343
 30
0.0
  0
VERTEX
  5
3BF
  8
THREE_QUARTER_INCH_THRUCUT
 10
2.484274746467094
 20
35.85363948366398
 30
0.0
  0
VERTEX
  5
3C0
  8
THREE_QUARTER_INCH_THRUCUT
 10
2.510778371586554
 20
35.96890651037047
 30
0.0
  0
VERTEX
  5
3C1
  8
THREE_QUARTER_INCH_THRUCUT
 10
2.537781164311188
 20
36.08410612219829
 30
0.0
  0
VERTEX
  5
3C2
  8
THREE_QUARTER_INCH_THRUCUT
 10
2.565282886374068
 20
36.19923743200288
 30
0.0
  0
VERTEX
  5
3C3
  8
THREE_QUARTER_INCH_THRUCUT
 10
2.593283299508264
 20
36.31429955263965
 30
0.0
  0
VERTEX
  5
3C4
  8
THREE_QUARTER_INCH_THRUCUT
 10
2.621782165446848
 20
36.42929159696404
 30
0.0
  0
VERTEX
  5
3C5
  8
THREE_QUARTER_INCH_THRUCUT
 10
2.65077924592289
 20
36.54421267783147
 30
0.0
  0
VERTEX
  5
3C6
  8
THREE_QUARTER_INCH_THRUCUT
 10
2.680274302669461
 20
36.65906190809736
 30
0.0
  0
VERTEX
  5
3C7
  8
THREE_QUARTER_INCH_THRUCUT
 10
2.710267097419631
 20
36.77383840061712
 30
0.0
  0
VERTEX
  5
3C8
  8
THREE_QUARTER_INCH_THRUCUT
 10
2.740757391906472
 20
36.88854126824619
 30
0.0
  0
VERTEX
  5
3C9
  8
THREE_QUARTER_INCH_THRUCUT
 10
2.771744947863055
 20
37.00316962383999
 30
0.0
  0
VERTEX
  5
3CA
  8
THREE_QUARTER_INCH_THRUCUT
 10
2.803229527022448
 20
37.11772258025393
 30
0.0
  0
VERTEX
  5
3CB
  8
THREE_QUARTER_INCH_THRUCUT
 10
2.835210891117725
 20
37.23219925034346
 30
0.0
  0
VERTEX
  5
3CC
  8
THREE_QUARTER_INCH_THRUCUT
 10
2.867688801881956
 20
37.34659874696398
 30
0.0
  0
VERTEX
  5
3CD
  8
THREE_QUARTER_INCH_THRUCUT
 10
2.90066302104821
 20
37.46092018297092
 30
0.0
  0
VERTEX
  5
3CE
  8
THREE_QUARTER_INCH_THRUCUT
 10
2.93413331034956
 20
37.5751626712197
 30
0.0
  0
VERTEX
  5
3CF
  8
THREE_QUARTER_INCH_THRUCUT
 10
2.968099431519076
 20
37.68932532456574
 30
0.0
  0
VERTEX
  5
3D0
  8
THREE_QUARTER_INCH_THRUCUT
 10
3.002561146289828
 20
37.80340725586448
 30
0.0
  0
VERTEX
  5
3D1
  8
THREE_QUARTER_INCH_THRUCUT
 10
3.037518216394888
 20
37.91740757797133
 30
0.0
  0
VERTEX
  5
3D2
  8
THREE_QUARTER_INCH_THRUCUT
 10
3.072970403567326
 20
38.03132540374171
 30
0.0
  0
VERTEX
  5
3D3
  8
THREE_QUARTER_INCH_THRUCUT
 10
3.108917469540213
 20
38.14515984603106
 30
0.0
  0
VERTEX
  5
3D4
  8
THREE_QUARTER_INCH_THRUCUT
 10
3.14535917604662
 20
38.25891001769479
 30
0.0
  0
VERTEX
  5
3D5
  8
THREE_QUARTER_INCH_THRUCUT
 10
3.182295284819617
 20
38.37257503158831
 30
0.0
  0
VERTEX
  5
3D6
  8
THREE_QUARTER_INCH_THRUCUT
 10
3.219725557592275
 20
38.48615400056707
 30
0.0
  0
VERTEX
  5
3D7
  8
THREE_QUARTER_INCH_THRUCUT
 10
3.257649756097665
 20
38.59964603748648
 30
0.0
  0
VERTEX
  5
3D8
  8
THREE_QUARTER_INCH_THRUCUT
 10
3.296067642068858
 20
38.71305025520196
 30
0.0
  0
VERTEX
  5
3D9
  8
THREE_QUARTER_INCH_THRUCUT
 10
3.334978977238925
 20
38.82636576656894
 30
0.0
  0
VERTEX
  5
3DA
  8
THREE_QUARTER_INCH_THRUCUT
 10
3.374383523340937
 20
38.93959168444284
 30
0.0
  0
VERTEX
  5
3DB
  8
THREE_QUARTER_INCH_THRUCUT
 10
3.414281042107963
 20
39.05272712167908
 30
0.0
  0
VERTEX
  5
3DC
  8
THREE_QUARTER_INCH_THRUCUT
 10
3.454671295273076
 20
39.16577119113309
 30
0.0
  0
VERTEX
  5
3DD
  8
THREE_QUARTER_INCH_THRUCUT
 10
3.495554044569344
 20
39.2787230056603
 30
0.0
  0
VERTEX
  5
3DE
  8
THREE_QUARTER_INCH_THRUCUT
 10
3.536929051729841
 20
39.39158167811611
 30
0.0
  0
VERTEX
  5
3DF
  8
THREE_QUARTER_INCH_THRUCUT
 10
3.578796078487636
 20
39.50434632135595
 30
0.0
  0
VERTEX
  5
3E0
  8
THREE_QUARTER_INCH_THRUCUT
 10
3.6211548865758
 20
39.61701604823526
 30
0.0
  0
VERTEX
  5
3E1
  8
THREE_QUARTER_INCH_THRUCUT
 10
3.664005237727403
 20
39.72958997160944
 30
0.0
  0
VERTEX
  5
3E2
  8
THREE_QUARTER_INCH_THRUCUT
 10
3.707346893675518
 20
39.84206720433393
 30
0.0
  0
VERTEX
  5
3E3
  8
THREE_QUARTER_INCH_THRUCUT
 10
3.751179616153213
 20
39.95444685926415
 30
0.0
  0
VERTEX
  5
3E4
  8
THREE_QUARTER_INCH_THRUCUT
 10
3.795503166893561
 20
40.06672804925552
 30
0.0
  0
VERTEX
  5
3E5
  8
THREE_QUARTER_INCH_THRUCUT
 10
3.840317307629632
 20
40.17890988716347
 30
0.0
  0
VERTEX
  5
3E6
  8
THREE_QUARTER_INCH_THRUCUT
 10
3.885621800094496
 20
40.29099148584342
 30
0.0
  0
VERTEX
  5
3E7
  8
THREE_QUARTER_INCH_THRUCUT
 10
3.931416406021225
 20
40.40297195815078
 30
0.0
  0
VERTEX
  5
3E8
  8
THREE_QUARTER_INCH_THRUCUT
 10
3.977700887142888
 20
40.51485041694098
 30
0.0
  0
VERTEX
  5
3E9
  8
THREE_QUARTER_INCH_THRUCUT
 10
4.024475005192559
 20
40.62662597506945
 30
0.0
  0
VERTEX
  5
3EA
  8
THREE_QUARTER_INCH_THRUCUT
 10
4.071738521903305
 20
40.73829774539162
 30
0.0
  0
VERTEX
  5
3EB
  8
THREE_QUARTER_INCH_THRUCUT
 10
4.1194911990082
 20
40.84986484076289
 30
0.0
  0
VERTEX
  5
3EC
  8
THREE_QUARTER_INCH_THRUCUT
 10
4.167732798240314
 20
40.96132637403871
 30
0.0
  0
VERTEX
  5
3ED
  8
THREE_QUARTER_INCH_THRUCUT
 10
4.216463081332715
 20
41.07268145807447
 30
0.0
  0
VERTEX
  5
3EE
  8
THREE_QUARTER_INCH_THRUCUT
 10
4.265681810018476
 20
41.18392920572563
 30
0.0
  0
VERTEX
  5
3EF
  8
THREE_QUARTER_INCH_THRUCUT
 10
4.315388746030669
 20
41.29506872984759
 30
0.0
  0
VERTEX
  5
3F0
  8
THREE_QUARTER_INCH_THRUCUT
 10
4.365583651102362
 20
41.40609914329577
 30
0.0
  0
VERTEX
  5
3F1
  8
THREE_QUARTER_INCH_THRUCUT
 10
4.416266286966628
 20
41.5170195589256
 30
0.0
  0
VERTEX
  5
3F2
  8
THREE_QUARTER_INCH_THRUCUT
 10
4.467436415356538
 20
41.62782908959251
 30
0.0
  0
VERTEX
  5
3F3
  8
THREE_QUARTER_INCH_THRUCUT
 10
4.51909379800516
 20
41.73852684815192
 30
0.0
  0
VERTEX
  5
3F4
  8
THREE_QUARTER_INCH_THRUCUT
 10
4.571238196645568
 20
41.84911194745925
 30
0.0
  0
VERTEX
  5
3F5
  8
THREE_QUARTER_INCH_THRUCUT
 10
4.623869373010831
 20
41.95958350036993
 30
0.0
  0
VERTEX
  5
3F6
  8
THREE_QUARTER_INCH_THRUCUT
 10
4.67698708883402
 20
42.06994061973937
 30
0.0
  0
VERTEX
  5
3F7
  8
THREE_QUARTER_INCH_THRUCUT
 10
4.730591105848205
 20
42.180182418423
 30
0.0
  0
VERTEX
  5
3F8
  8
THREE_QUARTER_INCH_THRUCUT
 10
4.784681185786458
 20
42.29030800927625
 30
0.0
  0
VERTEX
  5
3F9
  8
THREE_QUARTER_INCH_THRUCUT
 10
4.839257090381849
 20
42.40031650515452
 30
0.0
  0
VERTEX
  5
3FA
  8
THREE_QUARTER_INCH_THRUCUT
 10
4.894318581367451
 20
42.51020701891326
 30
0.0
  0
VERTEX
  5
3FB
  8
THREE_QUARTER_INCH_THRUCUT
 10
4.949865420476332
 20
42.61997866340788
 30
0.0
  0
VERTEX
  5
3FC
  8
THREE_QUARTER_INCH_THRUCUT
 10
5.005897369441563
 20
42.7296305514938
 30
0.0
  0
VERTEX
  5
3FD
  8
THREE_QUARTER_INCH_THRUCUT
 10
5.062414189996217
 20
42.83916179602646
 30
0.0
  0
VERTEX
  5
3FE
  8
THREE_QUARTER_INCH_THRUCUT
 10
5.119415643873362
 20
42.94857150986127
 30
0.0
  0
VERTEX
  5
3FF
  8
THREE_QUARTER_INCH_THRUCUT
 10
5.176901492806071
 20
43.05785880585364
 30
0.0
  0
VERTEX
  5
400
  8
THREE_QUARTER_INCH_THRUCUT
 10
5.234871498527413
 20
43.16702279685902
 30
0.0
  0
VERTEX
  5
401
  8
THREE_QUARTER_INCH_THRUCUT
 10
5.29332542277046
 20
43.27606259573282
 30
0.0
  0
VERTEX
  5
402
  8
THREE_QUARTER_INCH_THRUCUT
 10
5.352263027268283
 20
43.38497731533046
 30
0.0
  0
VERTEX
  5
403
  8
THREE_QUARTER_INCH_THRUCUT
 10
5.411684073753951
 20
43.49376606850736
 30
0.0
  0
VERTEX
  5
404
  8
THREE_QUARTER_INCH_THRUCUT
 10
5.471588323960535
 20
43.60242796811896
 30
0.0
  0
VERTEX
  5
405
  8
THREE_QUARTER_INCH_THRUCUT
 10
5.53197553962111
 20
43.71096212702067
 30
0.0
  0
VERTEX
  5
406
  8
THREE_QUARTER_INCH_THRUCUT
 10
5.592845482468742
 20
43.81936765806792
 30
0.0
  0
VERTEX
  5
407
  8
THREE_QUARTER_INCH_THRUCUT
 10
5.654197914236502
 20
43.92764367411613
 30
0.0
  0
VERTEX
  5
408
  8
THREE_QUARTER_INCH_THRUCUT
 10
5.716032596657463
 20
44.03578928802072
 30
0.0
  0
VERTEX
  5
409
  8
THREE_QUARTER_INCH_THRUCUT
 10
5.778349291464695
 20
44.14380361263711
 30
0.0
  0
VERTEX
  5
40A
  8
THREE_QUARTER_INCH_THRUCUT
 10
5.841147760391268
 20
44.25168576082073
 30
0.0
  0
VERTEX
  5
40B
  8
THREE_QUARTER_INCH_THRUCUT
 10
5.904427765170254
 20
44.359434845427
 30
0.0
  0
VERTEX
  5
40C
  8
THREE_QUARTER_INCH_THRUCUT
 10
5.927161877899131
 20
44.39749959798618
 30
0.0
  0
VERTEX
  5
40D
  8
THREE_QUARTER_INCH_THRUCUT
 10
5.950329048526898
 20
44.43535128323279
 30
0.0
  0
VERTEX
  5
40E
  8
THREE_QUARTER_INCH_THRUCUT
 10
5.973926511890959
 20
44.47298855060417
 30
0.0
  0
VERTEX
  5
40F
  8
THREE_QUARTER_INCH_THRUCUT
 10
5.997951502828718
 20
44.5104100495377
 30
0.0
  0
VERTEX
  5
410
  8
THREE_QUARTER_INCH_THRUCUT
 10
6.022401256177577
 20
44.54761442947071
 30
0.0
  0
VERTEX
  5
411
  8
THREE_QUARTER_INCH_THRUCUT
 10
6.047273006774942
 20
44.58460033984056
 30
0.0
  0
VERTEX
  5
412
  8
THREE_QUARTER_INCH_THRUCUT
 10
6.072563989458216
 20
44.62136643008462
 30
0.0
  0
VERTEX
  5
413
  8
THREE_QUARTER_INCH_THRUCUT
 10
6.098271439064801
 20
44.65791134964023
 30
0.0
  0
VERTEX
  5
414
  8
THREE_QUARTER_INCH_THRUCUT
 10
6.124392590432102
 20
44.69423374794475
 30
0.0
  0
VERTEX
  5
415
  8
THREE_QUARTER_INCH_THRUCUT
 10
6.150924678397521
 20
44.73033227443553
 30
0.0
  0
VERTEX
  5
416
  8
THREE_QUARTER_INCH_THRUCUT
 10
6.177864937798463
 20
44.76620557854994
 30
0.0
  0
VERTEX
  5
417
  8
THREE_QUARTER_INCH_THRUCUT
 10
6.205210603472333
 20
44.80185230972533
 30
0.0
  0
VERTEX
  5
418
  8
THREE_QUARTER_INCH_THRUCUT
 10
6.232958910256531
 20
44.83727111739906
 30
0.0
  0
VERTEX
  5
419
  8
THREE_QUARTER_INCH_THRUCUT
 10
6.261107092988464
 20
44.87246065100847
 30
0.0
  0
VERTEX
  5
41A
  8
THREE_QUARTER_INCH_THRUCUT
 10
6.289652386505534
 20
44.90741955999092
 30
0.0
  0
VERTEX
  5
41B
  8
THREE_QUARTER_INCH_THRUCUT
 10
6.318592025645144
 20
44.94214649378377
 30
0.0
  0
VERTEX
  5
41C
  8
THREE_QUARTER_INCH_THRUCUT
 10
6.347923245244698
 20
44.97664010182437
 30
0.0
  0
VERTEX
  5
41D
  8
THREE_QUARTER_INCH_THRUCUT
 10
6.377643280141601
 20
45.0108990335501
 30
0.0
  0
VERTEX
  5
41E
  8
THREE_QUARTER_INCH_THRUCUT
 10
6.407749365173254
 20
45.04492193839828
 30
0.0
  0
VERTEX
  5
41F
  8
THREE_QUARTER_INCH_THRUCUT
 10
6.438238735177062
 20
45.07870746580629
 30
0.0
  0
VERTEX
  5
420
  8
THREE_QUARTER_INCH_THRUCUT
 10
6.469108624990431
 20
45.11225426521147
 30
0.0
  0
VERTEX
  5
421
  8
THREE_QUARTER_INCH_THRUCUT
 10
6.50035626945076
 20
45.14556098605118
 30
0.0
  0
VERTEX
  5
422
  8
THREE_QUARTER_INCH_THRUCUT
 10
6.531978903395455
 20
45.17862627776279
 30
0.0
  0
VERTEX
  5
423
  8
THREE_QUARTER_INCH_THRUCUT
 10
6.56397376166192
 20
45.21144878978363
 30
0.0
  0
VERTEX
  5
424
  8
THREE_QUARTER_INCH_THRUCUT
 10
6.596338079087557
 20
45.24402717155108
 30
0.0
  0
VERTEX
  5
425
  8
THREE_QUARTER_INCH_THRUCUT
 10
6.629069090509772
 20
45.27636007250248
 30
0.0
  0
VERTEX
  5
426
  8
THREE_QUARTER_INCH_THRUCUT
 10
6.662164030765966
 20
45.30844614207518
 30
0.0
  0
VERTEX
  5
427
  8
THREE_QUARTER_INCH_THRUCUT
 10
6.695620134693544
 20
45.34028402970656
 30
0.0
  0
VERTEX
  5
428
  8
THREE_QUARTER_INCH_THRUCUT
 10
6.729434637129909
 20
45.37187238483395
 30
0.0
  0
VERTEX
  5
429
  8
THREE_QUARTER_INCH_THRUCUT
 10
6.763604772912466
 20
45.40320985689472
 30
0.0
  0
VERTEX
  5
42A
  8
THREE_QUARTER_INCH_THRUCUT
 10
6.798127776878616
 20
45.43429509532622
 30
0.0
  0
VERTEX
  5
42B
  8
THREE_QUARTER_INCH_THRUCUT
 10
6.833000883865765
 20
45.46512674956581
 30
0.0
  0
VERTEX
  5
42C
  8
THREE_QUARTER_INCH_THRUCUT
 10
6.868221328711315
 20
45.49570346905085
 30
0.0
  0
VERTEX
  5
42D
  8
THREE_QUARTER_INCH_THRUCUT
 10
6.903786346252671
 20
45.52602390321867
 30
0.0
  0
VERTEX
  5
42E
  8
THREE_QUARTER_INCH_THRUCUT
 10
6.939693171327235
 20
45.55608670150666
 30
0.0
  0
VERTEX
  5
42F
  8
THREE_QUARTER_INCH_THRUCUT
 10
6.975939038772411
 20
45.58589051335215
 30
0.0
  0
VERTEX
  5
430
  8
THREE_QUARTER_INCH_THRUCUT
 10
7.012521183425605
 20
45.6154339881925
 30
0.0
  0
VERTEX
  5
431
  8
THREE_QUARTER_INCH_THRUCUT
 10
7.049436840124216
 20
45.64471577546508
 30
0.0
  0
VERTEX
  5
432
  8
THREE_QUARTER_INCH_THRUCUT
 10
7.086683243705651
 20
45.67373452460724
 30
0.0
  0
VERTEX
  5
433
  8
THREE_QUARTER_INCH_THRUCUT
 10
7.124257629007314
 20
45.70248888505632
 30
0.0
  0
VERTEX
  5
434
  8
THREE_QUARTER_INCH_THRUCUT
 10
7.162157230866606
 20
45.73097750624969
 30
0.0
  0
VERTEX
  5
435
  8
THREE_QUARTER_INCH_THRUCUT
 10
7.200379284120933
 20
45.7591990376247
 30
0.0
  0
VERTEX
  5
436
  8
THREE_QUARTER_INCH_THRUCUT
 10
7.238921023607698
 20
45.78715212861871
 30
0.0
  0
VERTEX
  5
437
  8
THREE_QUARTER_INCH_THRUCUT
 10
7.277779684164302
 20
45.81483542866907
 30
0.0
  0
VERTEX
  5
438
  8
THREE_QUARTER_INCH_THRUCUT
 10
7.316952500628151
 20
45.84224758721314
 30
0.0
  0
VERTEX
  5
439
  8
THREE_QUARTER_INCH_THRUCUT
 10
7.356436707836648
 20
45.86938725368827
 30
0.0
  0
VERTEX
  5
43A
  8
THREE_QUARTER_INCH_THRUCUT
 10
7.396229540627198
 20
45.89625307753183
 30
0.0
  0
VERTEX
  5
43B
  8
THREE_QUARTER_INCH_THRUCUT
 10
7.436328233837203
 20
45.92284370818115
 30
0.0
  0
VERTEX
  5
43C
  8
THREE_QUARTER_INCH_THRUCUT
 10
7.476730022304068
 20
45.9491577950736
 30
0.0
  0
VERTEX
  5
43D
  8
THREE_QUARTER_INCH_THRUCUT
 10
7.517432140865193
 20
45.97519398764655
 30
0.0
  0
VERTEX
  5
43E
  8
THREE_QUARTER_INCH_THRUCUT
 10
7.558431824357986
 20
46.00095093533733
 30
0.0
  0
VERTEX
  5
43F
  8
THREE_QUARTER_INCH_THRUCUT
 10
7.599726307619848
 20
46.02642728758332
 30
0.0
  0
VERTEX
  5
440
  8
THREE_QUARTER_INCH_THRUCUT
 10
7.641312825488184
 20
46.05162169382186
 30
0.0
  0
VERTEX
  5
441
  8
THREE_QUARTER_INCH_THRUCUT
 10
7.683188612800397
 20
46.0765328034903
 30
0.0
  0
VERTEX
  5
442
  8
THREE_QUARTER_INCH_THRUCUT
 10
7.725350904393891
 20
46.101159266026
 30
0.0
  0
VERTEX
  5
443
  8
THREE_QUARTER_INCH_THRUCUT
 10
7.767796935106068
 20
46.12549973086632
 30
0.0
  0
VERTEX
  5
444
  8
THREE_QUARTER_INCH_THRUCUT
 10
7.810523939774333
 20
46.14955284744861
 30
0.0
  0
VERTEX
  5
445
  8
THREE_QUARTER_INCH_THRUCUT
 10
7.85352915323609
 20
46.17331726521024
 30
0.0
  0
VERTEX
  5
446
  8
THREE_QUARTER_INCH_THRUCUT
 10
7.89680981032874
 20
46.19679163358855
 30
0.0
  0
VERTEX
  5
447
  8
THREE_QUARTER_INCH_THRUCUT
 10
7.940363145889691
 20
46.2199746020209
 30
0.0
  0
VERTEX
  5
448
  8
THREE_QUARTER_INCH_THRUCUT
 10
7.984186394756343
 20
46.24286481994464
 30
0.0
  0
VERTEX
  5
449
  8
THREE_QUARTER_INCH_THRUCUT
 10
8.0282767917661
 20
46.26546093679715
 30
0.0
  0
VERTEX
  5
44A
  8
THREE_QUARTER_INCH_THRUCUT
 10
8.072631571756366
 20
46.28776160201575
 30
0.0
  0
VERTEX
  5
44B
  8
THREE_QUARTER_INCH_THRUCUT
 10
8.117247969564545
 20
46.30976546503781
 30
0.0
  0
VERTEX
  5
44C
  8
THREE_QUARTER_INCH_THRUCUT
 10
8.162123220028041
 20
46.3314711753007
 30
0.0
  0
VERTEX
  5
44D
  8
THREE_QUARTER_INCH_THRUCUT
 10
8.207254557984257
 20
46.35287738224176
 30
0.0
  0
VERTEX
  5
44E
  8
THREE_QUARTER_INCH_THRUCUT
 10
8.252639218270595
 20
46.37398273529834
 30
0.0
  0
VERTEX
  5
44F
  8
THREE_QUARTER_INCH_THRUCUT
 10
8.298274435724462
 20
46.39478588390782
 30
0.0
  0
VERTEX
  5
450
  8
THREE_QUARTER_INCH_THRUCUT
 10
8.344157445183257
 20
46.41528547750752
 30
0.0
  0
VERTEX
  5
451
  8
THREE_QUARTER_INCH_THRUCUT
 10
8.390285481484389
 20
46.43548016553483
 30
0.0
  0
VERTEX
  5
452
  8
THREE_QUARTER_INCH_THRUCUT
 10
8.436655779465259
 20
46.45536859742708
 30
0.0
  0
VERTEX
  5
453
  8
THREE_QUARTER_INCH_THRUCUT
 10
8.48326557396327
 20
46.47494942262164
 30
0.0
  0
VERTEX
  5
454
  8
THREE_QUARTER_INCH_THRUCUT
 10
8.530112099815824
 20
46.49422129055587
 30
0.0
  0
VERTEX
  5
455
  8
THREE_QUARTER_INCH_THRUCUT
 10
8.577192591860328
 20
46.5131828506671
 30
0.0
  0
VERTEX
  5
456
  8
THREE_QUARTER_INCH_THRUCUT
 10
8.624504284934185
 20
46.5318327523927
 30
0.0
  0
VERTEX
  5
457
  8
THREE_QUARTER_INCH_THRUCUT
 10
8.672044413874797
 20
46.55016964517005
 30
0.0
  0
VERTEX
  5
458
  8
THREE_QUARTER_INCH_THRUCUT
 10
8.719810213519569
 20
46.56819217843648
 30
0.0
  0
VERTEX
  5
459
  8
THREE_QUARTER_INCH_THRUCUT
 10
8.767798918705903
 20
46.58589900162934
 30
0.0
  0
VERTEX
  5
45A
  8
THREE_QUARTER_INCH_THRUCUT
 10
8.816007764271202
 20
46.603288764186
 30
0.0
  0
VERTEX
  5
45B
  8
THREE_QUARTER_INCH_THRUCUT
 10
8.864433985052875
 20
46.6203601155438
 30
0.0
  0
VERTEX
  5
45C
  8
THREE_QUARTER_INCH_THRUCUT
 10
8.91307481588832
 20
46.63711170514011
 30
0.0
  0
VERTEX
  5
45D
  8
THREE_QUARTER_INCH_THRUCUT
 10
8.961927491614942
 20
46.65354218241229
 30
0.0
  0
VERTEX
  5
45E
  8
THREE_QUARTER_INCH_THRUCUT
 10
9.010989247070144
 20
46.66965019679768
 30
0.0
  0
VERTEX
  5
45F
  8
THREE_QUARTER_INCH_THRUCUT
 10
9.060257317091333
 20
46.68543439773364
 30
0.0
  0
VERTEX
  5
460
  8
THREE_QUARTER_INCH_THRUCUT
 10
9.10972893651591
 20
46.70089343465752
 30
0.0
  0
VERTEX
  5
461
  8
THREE_QUARTER_INCH_THRUCUT
 10
9.159401340181276
 20
46.71602595700669
 30
0.0
  0
VERTEX
  5
462
  8
THREE_QUARTER_INCH_THRUCUT
 10
9.209271762924839
 20
46.7308306142185
 30
0.0
  0
VERTEX
  5
463
  8
THREE_QUARTER_INCH_THRUCUT
 10
9.259337439584
 20
46.74530605573031
 30
0.0
  0
VERTEX
  5
464
  8
THREE_QUARTER_INCH_THRUCUT
 10
9.309595604996163
 20
46.75945093097946
 30
0.0
  0
VERTEX
  5
465
  8
THREE_QUARTER_INCH_THRUCUT
 10
9.360043493998733
 20
46.77326388940332
 30
0.0
  0
VERTEX
  5
466
  8
THREE_QUARTER_INCH_THRUCUT
 10
9.410678341429112
 20
46.78674358043924
 30
0.0
  0
VERTEX
  5
467
  8
THREE_QUARTER_INCH_THRUCUT
 10
9.461497382124705
 20
46.79988865352457
 30
0.0
  0
VERTEX
  5
468
  8
THREE_QUARTER_INCH_THRUCUT
 10
9.512497850922912
 20
46.81269775809668
 30
0.0
  0
VERTEX
  5
469
  8
THREE_QUARTER_INCH_THRUCUT
 10
9.563676982661143
 20
46.8251695435929
 30
0.0
  0
VERTEX
  5
46A
  8
THREE_QUARTER_INCH_THRUCUT
 10
9.615032012176798
 20
46.83730265945061
 30
0.0
  0
VERTEX
  5
46B
  8
THREE_QUARTER_INCH_THRUCUT
 10
9.666560174307278
 20
46.84909575510716
 30
0.0
  0
VERTEX
  5
46C
  8
THREE_QUARTER_INCH_THRUCUT
 10
9.71825870388999
 20
46.86054747999989
 30
0.0
  0
VERTEX
  5
46D
  8
THREE_QUARTER_INCH_THRUCUT
 10
9.770124835762338
 20
46.87165648356618
 30
0.0
  0
VERTEX
  5
46E
  8
THREE_QUARTER_INCH_THRUCUT
 10
9.822155804761724
 20
46.88242141524338
 30
0.0
  0
VERTEX
  5
46F
  8
THREE_QUARTER_INCH_THRUCUT
 10
9.87434884572555
 20
46.89284092446884
 30
0.0
  0
VERTEX
  5
470
  8
THREE_QUARTER_INCH_THRUCUT
 10
9.926701193491223
 20
46.90291366067991
 30
0.0
  0
VERTEX
  5
471
  8
THREE_QUARTER_INCH_THRUCUT
 10
9.979210082896143
 20
46.91263827331394
 30
0.0
  0
VERTEX
  5
472
  8
THREE_QUARTER_INCH_THRUCUT
 10
10.03187274877772
 20
46.92201341180829
 30
0.0
  0
VERTEX
  5
473
  8
THREE_QUARTER_INCH_THRUCUT
 10
10.08468642597335
 20
46.93103772560034
 30
0.0
  0
VERTEX
  5
474
  8
THREE_QUARTER_INCH_THRUCUT
 10
10.13764834932044
 20
46.93970986412742
 30
0.0
  0
VERTEX
  5
475
  8
THREE_QUARTER_INCH_THRUCUT
 10
10.19075575365639
 20
46.94802847682689
 30
0.0
  0
VERTEX
  5
476
  8
THREE_QUARTER_INCH_THRUCUT
 10
10.24400587381861
 20
46.95599221313611
 30
0.0
  0
VERTEX
  5
477
  8
THREE_QUARTER_INCH_THRUCUT
 10
10.2973959446445
 20
46.96359972249244
 30
0.0
  0
VERTEX
  5
478
  8
THREE_QUARTER_INCH_THRUCUT
 10
10.35092320097147
 20
46.97084965433322
 30
0.0
  0
VERTEX
  5
479
  8
THREE_QUARTER_INCH_THRUCUT
 10
10.40458487763691
 20
46.97774065809582
 30
0.0
  0
VERTEX
  5
47A
  8
THREE_QUARTER_INCH_THRUCUT
 10
10.45837820947823
 20
46.98427138321759
 30
0.0
  0
VERTEX
  5
47B
  8
THREE_QUARTER_INCH_THRUCUT
 10
10.51230043133284
 20
46.99044047913588
 30
0.0
  0
VERTEX
  5
47C
  8
THREE_QUARTER_INCH_THRUCUT
 10
10.56634877803814
 20
46.99624659528804
 30
0.0
  0
VERTEX
  5
47D
  8
THREE_QUARTER_INCH_THRUCUT
 10
10.62052048443153
 20
47.00168838111145
 30
0.0
  0
VERTEX
  5
47E
  8
THREE_QUARTER_INCH_THRUCUT
 10
10.67481278535041
 20
47.00676448604345
 30
0.0
  0
VERTEX
  5
47F
  8
THREE_QUARTER_INCH_THRUCUT
 10
10.7292229156322
 20
47.0114735595214
 30
0.0
  0
VERTEX
  5
480
  8
THREE_QUARTER_INCH_THRUCUT
 10
10.78374811011428
 20
47.01581425098266
 30
0.0
  0
VERTEX
  5
481
  8
THREE_QUARTER_INCH_THRUCUT
 10
10.83838560363408
 20
47.01978520986456
 30
0.0
  0
VERTEX
  5
482
  8
THREE_QUARTER_INCH_THRUCUT
 10
10.89313263102898
 20
47.02338508560447
 30
0.0
  0
VERTEX
  5
483
  8
THREE_QUARTER_INCH_THRUCUT
 10
10.9479864271364
 20
47.02661252763976
 30
0.0
  0
VERTEX
  5
484
  8
THREE_QUARTER_INCH_THRUCUT
 10
11.00294422679373
 20
47.02946618540777
 30
0.0
  0
VERTEX
  5
485
  8
THREE_QUARTER_INCH_THRUCUT
 10
11.05800326483839
 20
47.03194470834586
 30
0.0
  0
VERTEX
  5
486
  8
THREE_QUARTER_INCH_THRUCUT
 10
11.11316077610777
 20
47.03404674589139
 30
0.0
  0
VERTEX
  5
487
  8
THREE_QUARTER_INCH_THRUCUT
 10
11.16841399543927
 20
47.03577094748171
 30
0.0
  0
VERTEX
  5
488
  8
THREE_QUARTER_INCH_THRUCUT
 10
11.22376015767031
 20
47.03711596255417
 30
0.0
  0
VERTEX
  5
489
  8
THREE_QUARTER_INCH_THRUCUT
 10
11.27919649763828
 20
47.03808044054614
 30
0.0
  0
VERTEX
  5
48A
  8
THREE_QUARTER_INCH_THRUCUT
 10
11.33472025018059
 20
47.03866303089497
 30
0.0
  0
VERTEX
  5
48B
  8
THREE_QUARTER_INCH_THRUCUT
 10
11.39032865013465
 20
47.03886238303799
 30
0.0
  0
VERTEX
  5
48C
  8
THREE_QUARTER_INCH_THRUCUT
 10
12.88503667031361
 20
47.03886426159043
 30
0.0
  0
VERTEX
  5
48D
  8
THREE_QUARTER_INCH_THRUCUT
 10
12.88503349629994
 20
47.03497960997332
 30
0.0
  0
VERTEX
  5
48E
  8
THREE_QUARTER_INCH_THRUCUT
 10
94.20015080289599
 20
47.034980212425
 30
0.0
  0
SEQEND
  5
4F4
  8
THREE_QUARTER_INCH_THRUCUT
  0
POLYLINE
  5
CC
  8
THREE_QUARTER_INCH_THRUCUT
 66
     1
 10
0.0
 20
0.0
 30
0.0
 70
     1
  0
VERTEX
  5
48F
  8
THREE_QUARTER_INCH_THRUCUT
 10
92.5913522667395
 20
29.76141116474776
 30
0.0
 42
0.4142135623730951
  0
VERTEX
  5
490
  8
THREE_QUARTER_INCH_THRUCUT
 10
92.46135509423303
 20
29.89141399217954
 30
0.0
 42
0.4142135623730951
  0
VERTEX
  5
491
  8
THREE_QUARTER_INCH_THRUCUT
 10
92.33135226680096
 20
29.76141681967317
 30
0.0
 42
0.4142135623730951
  0
VERTEX
  5
492
  8
THREE_QUARTER_INCH_THRUCUT
 10
92.46134943930755
 20
29.63141399224116
 30
0.0
 42
0.4142135623730951
  0
SEQEND
  5
4F5
  8
THREE_QUARTER_INCH_THRUCUT
  0
POLYLINE
  5
CD
  8
THREE_QUARTER_INCH_THRUCUT
 66
     1
 10
0.0
 20
0.0
 30
0.0
 70
     1
  0
VERTEX
  5
493
  8
THREE_QUARTER_INCH_THRUCUT
 10
92.5913522806982
 20
38.0168448567424
 30
0.0
 42
0.4142135623730951
  0
VERTEX
  5
494
  8
THREE_QUARTER_INCH_THRUCUT
 10
92.46135510819173
 20
38.14684768417418
 30
0.0
 42
0.4142135623730951
  0
VERTEX
  5
495
  8
THREE_QUARTER_INCH_THRUCUT
 10
92.33135228075966
 20
38.01685051166782
 30
0.0
 42
0.4142135623730951
  0
VERTEX
  5
496
  8
THREE_QUARTER_INCH_THRUCUT
 10
92.46134945326625
 20
37.88684768423581
 30
0.0
 42
0.4142135623730951
  0
SEQEND
  5
4F6
  8
THREE_QUARTER_INCH_THRUCUT
  0
ENDSEC
  0
EOF
