  0
SECTION
  2
HEADER
  9
$ACADVER
  1
AC1009
  9
$DWGCODEPAGE
  3
ansi_1252
  9
$INSBASE
 10
0.0
 20
0.0
 30
0.0
  9
$EXTMIN
 10
0.9712536005026184
 20
0.9126610595605775
 30
0.0
  9
$EXTMAX
 10
78.72000131282203
 20
46.54491732416493
 30
0.0
  9
$LIMMIN
 10
0.0
 20
0.0
  9
$LIMMAX
 10
12.0
 20
9.0
  9
$ORTHOMODE
 70
     0
  9
$REGENMODE
 70
     1
  9
$FILLMODE
 70
     1
  9
$QTEXTMODE
 70
     0
  9
$MIRRTEXT
 70
     1
  9
$DRAGMODE
 70
     2
  9
$LTSCALE
 40
1.0
  9
$OSMODE
 70
    37
  9
$ATTMODE
 70
     1
  9
$TEXTSIZE
 40
0.2
  9
$TRACEWID
 40
0.05
  9
$TEXTSTYLE
  7
STANDARD
  9
$CLAYER
  8
0
  9
$CELTYPE
  6
BYLAYER
  9
$CECOLOR
 62
   256
  9
$DIMSCALE
 40
1.0
  9
$DIMASZ
 40
0.18
  9
$DIMEXO
 40
0.0625
  9
$DIMDLI
 40
0.38
  9
$DIMRND
 40
0.0
  9
$DIMDLE
 40
0.0
  9
$DIMEXE
 40
0.18
  9
$DIMTP
 40
0.0
  9
$DIMTM
 40
0.0
  9
$DIMTXT
 40
0.18
  9
$DIMCEN
 40
0.09
  9
$DIMTSZ
 40
0.0
  9
$DIMTOL
 70
     0
  9
$DIMLIM
 70
     0
  9
$DIMTIH
 70
     1
  9
$DIMTOH
 70
     1
  9
$DIMSE1
 70
     0
  9
$DIMSE2
 70
     0
  9
$DIMTAD
 70
     0
  9
$DIMZIN
 70
     0
  9
$DIMBLK
  1

  9
$DIMASO
 70
     1
  9
$DIMSHO
 70
     1
  9
$DIMPOST
  1

  9
$DIMAPOST
  1

  9
$DIMALT
 70
     0
  9
$DIMALTD
 70
     2
  9
$DIMALTF
 40
25.4
  9
$DIMLFAC
 40
1.0
  9
$DIMTOFL
 70
     0
  9
$DIMTVP
 40
0.0
  9
$DIMTIX
 70
     0
  9
$DIMSOXD
 70
     0
  9
$DIMSAH
 70
     0
  9
$DIMBLK1
  1

  9
$DIMBLK2
  1

  9
$DIMSTYLE
  2
STANDARD
  9
$DIMCLRD
 70
     0
  9
$DIMCLRE
 70
     0
  9
$DIMCLRT
 70
     0
  9
$DIMTFAC
 40
1.0
  9
$DIMGAP
 40
0.09
  9
$LUNITS
 70
     2
  9
$LUPREC
 70
     4
  9
$SKETCHINC
 40
0.1
  9
$FILLETRAD
 40
0.5
  9
$AUNITS
 70
     0
  9
$AUPREC
 70
     0
  9
$MENU
  1
.
  9
$ELEVATION
 40
0.0
  9
$PELEVATION
 40
0.0
  9
$THICKNESS
 40
0.0
  9
$LIMCHECK
 70
     0
  9
$CHAMFERA
 40
0.0
  9
$CHAMFERB
 40
0.0
  9
$SKPOLY
 70
     0
  9
$TDCREATE
 40
2454910.5
  9
$TDUPDATE
 40
2457884.61749478
  9
$TDINDWG
 40
0.0000000116
  9
$TDUSRTIMER
 40
0.0000000116
  9
$USRTIMER
 70
     1
  9
$ANGBASE
 50
0.0
  9
$ANGDIR
 70
     0
  9
$PDMODE
 70
     0
  9
$PDSIZE
 40
0.0
  9
$PLINEWID
 40
0.0
  9
$COORDS
 70
     1
  9
$SPLFRAME
 70
     0
  9
$SPLINETYPE
 70
     6
  9
$SPLINESEGS
 70
     8
  9
$ATTDIA
 70
     0
  9
$ATTREQ
 70
     1
  9
$HANDLING
 70
     1
  9
$HANDSEED
  5
407
  9
$SURFTAB1
 70
     6
  9
$SURFTAB2
 70
     6
  9
$SURFTYPE
 70
     6
  9
$SURFU
 70
     6
  9
$SURFV
 70
     6
  9
$UCSNAME
  2

  9
$UCSORG
 10
0.0
 20
0.0
 30
0.0
  9
$UCSXDIR
 10
1.0
 20
0.0
 30
0.0
  9
$UCSYDIR
 10
0.0
 20
1.0
 30
0.0
  9
$PUCSNAME
  2

  9
$PUCSORG
 10
0.0
 20
0.0
 30
0.0
  9
$PUCSXDIR
 10
1.0
 20
0.0
 30
0.0
  9
$PUCSYDIR
 10
0.0
 20
1.0
 30
0.0
  9
$USERI1
 70
     0
  9
$USERI2
 70
     0
  9
$USERI3
 70
     0
  9
$USERI4
 70
     0
  9
$USERI5
 70
     0
  9
$USERR1
 40
0.0
  9
$USERR2
 40
0.0
  9
$USERR3
 40
0.0
  9
$USERR4
 40
0.0
  9
$USERR5
 40
0.0
  9
$WORLDVIEW
 70
     1
  9
$SHADEDGE
 70
     3
  9
$SHADEDIF
 70
    70
  9
$TILEMODE
 70
     1
  9
$MAXACTVP
 70
    64
  9
$PLIMCHECK
 70
     0
  9
$PEXTMIN
 10
1.000000000000000E+20
 20
1.000000000000000E+20
 30
1.000000000000000E+20
  9
$PEXTMAX
 10
-1.000000000000000E+20
 20
-1.000000000000000E+20
 30
-1.000000000000000E+20
  9
$PLIMMIN
 10
0.0
 20
0.0
  9
$PLIMMAX
 10
12.0
 20
9.0
  9
$UNITMODE
 70
     0
  9
$VISRETAIN
 70
     1
  9
$PLINEGEN
 70
     0
  9
$PSLTSCALE
 70
     1
  0
ENDSEC
  0
SECTION
  2
TABLES
  0
TABLE
  2
VPORT
 70
     1
  0
VPORT
  2
*ACTIVE
 70
     0
 10
0.0
 20
0.0
 11
1.0
 21
1.0
 12
10.42990654205607
 22
4.5
 13
0.0
 23
0.0
 14
0.5
 24
0.5
 15
0.5
 25
0.5
 16
0.0
 26
0.0
 36
1.0
 17
0.0
 27
0.0
 37
0.0
 40
9.0
 41
1.972972972850329
 42
50.0
 43
0.0
 44
0.0
 50
0.0
 51
0.0
 71
     0
 72
   100
 73
     1
 74
     3
 75
     0
 76
     0
 77
     0
 78
     0
  0
ENDTAB
  0
TABLE
  2
LTYPE
 70
     2
  0
LTYPE
  2
CONTINUOUS
 70
     0
  3
Solid line
 72
    65
 73
     0
 40
0.0
  0
LTYPE
  2
CONTINUOUS2
 70
     0
  3
Solid Line
 72
    65
 73
     0
 40
0.0
  0
ENDTAB
  0
TABLE
  2
LAYER
 70
     4
  0
LAYER
  2
0
 70
     0
 62
     7
  6
CONTINUOUS
  0
LAYER
  2
THREE_QUARTER_INCH_THRUCUT
 70
     0
 62
    18
  6
CONTINUOUS
  0
LAYER
  2
LABELS
 70
     0
 62
   150
  6
CONTINUOUS
  0
LAYER
  2
SCREW_LOCATION_RECESS
 70
     0
 62
     1
  6
CONTINUOUS
  0
ENDTAB
  0
TABLE
  2
STYLE
 70
     1
  0
STYLE
  2
STANDARD
 70
     0
 40
0.0
 41
1.0
 50
0.0
 71
     0
 42
0.2
  3
txt
  4

  0
ENDTAB
  0
TABLE
  2
VIEW
 70
     0
  0
ENDTAB
  0
TABLE
  2
UCS
 70
     0
  0
ENDTAB
  0
TABLE
  2
APPID
 70
     1
  0
APPID
  2
ACAD
 70
     0
  0
ENDTAB
  0
TABLE
  2
DIMSTYLE
 70
     1
  0
DIMSTYLE
  2
STANDARD
 70
     0
  3

  4

  5

  6

  7

 40
1.0
 41
0.18
 42
0.0625
 43
0.38
 44
0.18
 45
0.0
 46
0.0
 47
0.0
 48
0.0
140
0.18
141
0.09
142
0.0
143
25.4
144
1.0
145
0.0
146
1.0
147
0.09
 71
     0
 72
     0
 73
     1
 74
     1
 75
     0
 76
     0
 77
     0
 78
     0
170
     0
171
     2
172
     0
173
     0
174
     0
175
     0
176
     0
177
     0
178
     0
  0
ENDTAB
  0
ENDSEC
  0
SECTION
  2
BLOCKS
  0
BLOCK
  8
0
  2
$MODEL_SPACE
 70
     0
 10
0.0
 20
0.0
 30
0.0
  3
$MODEL_SPACE
  1

  0
ENDBLK
  5
21
  8
0
  0
BLOCK
 67
     1
  8
0
  2
$PAPER_SPACE
 70
     0
 10
0.0
 20
0.0
 30
0.0
  3
$PAPER_SPACE
  1

  0
ENDBLK
  5
1D
 67
     1
  8
0
  0
ENDSEC
  0
SECTION
  2
ENTITIES
  0
POLYLINE
  5
70
  8
THREE_QUARTER_INCH_THRUCUT
 66
     1
 10
0.0
 20
0.0
 30
0.0
 70
     1
  0
VERTEX
  5
9A
  8
THREE_QUARTER_INCH_THRUCUT
 10
77.21940072826882
 20
2.282664059561084
 30
0.0
 42
0.4142135623730951
  0
VERTEX
  5
9B
  8
THREE_QUARTER_INCH_THRUCUT
 10
77.34940072826882
 20
2.412664059561079
 30
0.0
 42
0.4142135623730951
  0
VERTEX
  5
9C
  8
THREE_QUARTER_INCH_THRUCUT
 10
77.21940072826882
 20
2.542664059561075
 30
0.0
 42
0.4142135623730951
  0
VERTEX
  5
9D
  8
THREE_QUARTER_INCH_THRUCUT
 10
77.08940072826883
 20
2.412664059561079
 30
0.0
 42
0.4142135623730951
  0
SEQEND
  5
3E6
  8
THREE_QUARTER_INCH_THRUCUT
  0
POLYLINE
  5
71
  8
THREE_QUARTER_INCH_THRUCUT
 66
     1
 10
0.0
 20
0.0
 30
0.0
 70
     1
  0
VERTEX
  5
9E
  8
THREE_QUARTER_INCH_THRUCUT
 10
74.59440072826882
 20
2.282664059561084
 30
0.0
 42
0.4142135623730951
  0
VERTEX
  5
9F
  8
THREE_QUARTER_INCH_THRUCUT
 10
74.72440072826882
 20
2.412664059561079
 30
0.0
 42
0.4142135623730951
  0
VERTEX
  5
A0
  8
THREE_QUARTER_INCH_THRUCUT
 10
74.59440072826882
 20
2.542664059561075
 30
0.0
 42
0.4142135623730951
  0
VERTEX
  5
A1
  8
THREE_QUARTER_INCH_THRUCUT
 10
74.46440072826883
 20
2.412664059561079
 30
0.0
 42
0.4142135623730951
  0
SEQEND
  5
3E7
  8
THREE_QUARTER_INCH_THRUCUT
  0
POLYLINE
  5
72
  8
THREE_QUARTER_INCH_THRUCUT
 66
     1
 10
0.0
 20
0.0
 30
0.0
 70
     1
  0
VERTEX
  5
A2
  8
THREE_QUARTER_INCH_THRUCUT
 10
71.96940072826882
 20
2.282664059561084
 30
0.0
 42
0.4142135623730951
  0
VERTEX
  5
A3
  8
THREE_QUARTER_INCH_THRUCUT
 10
72.09940072826882
 20
2.412664059561079
 30
0.0
 42
0.4142135623730951
  0
VERTEX
  5
A4
  8
THREE_QUARTER_INCH_THRUCUT
 10
71.96940072826882
 20
2.542664059561075
 30
0.0
 42
0.4142135623730951
  0
VERTEX
  5
A5
  8
THREE_QUARTER_INCH_THRUCUT
 10
71.83940072826883
 20
2.412664059561079
 30
0.0
 42
0.4142135623730951
  0
SEQEND
  5
3E8
  8
THREE_QUARTER_INCH_THRUCUT
  0
POLYLINE
  5
73
  8
THREE_QUARTER_INCH_THRUCUT
 66
     1
 10
0.0
 20
0.0
 30
0.0
 70
     1
  0
VERTEX
  5
A6
  8
THREE_QUARTER_INCH_THRUCUT
 10
77.21940072826882
 20
6.27843880291534
 30
0.0
 42
0.4142135623730951
  0
VERTEX
  5
A7
  8
THREE_QUARTER_INCH_THRUCUT
 10
77.34940072826882
 20
6.408438802915335
 30
0.0
 42
0.4142135623730951
  0
VERTEX
  5
A8
  8
THREE_QUARTER_INCH_THRUCUT
 10
77.21940072826882
 20
6.53843880291533
 30
0.0
 42
0.4142135623730951
  0
VERTEX
  5
A9
  8
THREE_QUARTER_INCH_THRUCUT
 10
77.08940072826883
 20
6.408438802915335
 30
0.0
 42
0.4142135623730951
  0
SEQEND
  5
3E9
  8
THREE_QUARTER_INCH_THRUCUT
  0
POLYLINE
  5
74
  8
THREE_QUARTER_INCH_THRUCUT
 66
     1
 10
0.0
 20
0.0
 30
0.0
 70
     1
  0
VERTEX
  5
AA
  8
THREE_QUARTER_INCH_THRUCUT
 10
74.59440072826882
 20
6.27843880291534
 30
0.0
 42
0.4142135623730951
  0
VERTEX
  5
AB
  8
THREE_QUARTER_INCH_THRUCUT
 10
74.72440072826882
 20
6.408438802915335
 30
0.0
 42
0.4142135623730951
  0
VERTEX
  5
AC
  8
THREE_QUARTER_INCH_THRUCUT
 10
74.59440072826882
 20
6.53843880291533
 30
0.0
 42
0.4142135623730951
  0
VERTEX
  5
AD
  8
THREE_QUARTER_INCH_THRUCUT
 10
74.46440072826883
 20
6.408438802915335
 30
0.0
 42
0.4142135623730951
  0
SEQEND
  5
3EA
  8
THREE_QUARTER_INCH_THRUCUT
  0
POLYLINE
  5
75
  8
THREE_QUARTER_INCH_THRUCUT
 66
     1
 10
0.0
 20
0.0
 30
0.0
 70
     1
  0
VERTEX
  5
AE
  8
THREE_QUARTER_INCH_THRUCUT
 10
71.96940072826882
 20
6.27843880291534
 30
0.0
 42
0.4142135623730951
  0
VERTEX
  5
AF
  8
THREE_QUARTER_INCH_THRUCUT
 10
72.09940072826882
 20
6.408438802915335
 30
0.0
 42
0.4142135623730951
  0
VERTEX
  5
B0
  8
THREE_QUARTER_INCH_THRUCUT
 10
71.96940072826882
 20
6.53843880291533
 30
0.0
 42
0.4142135623730951
  0
VERTEX
  5
B1
  8
THREE_QUARTER_INCH_THRUCUT
 10
71.83940072826883
 20
6.408438802915335
 30
0.0
 42
0.4142135623730951
  0
SEQEND
  5
3EB
  8
THREE_QUARTER_INCH_THRUCUT
  0
POLYLINE
  5
76
  8
THREE_QUARTER_INCH_THRUCUT
 66
     1
 10
0.0
 20
0.0
 30
0.0
 70
     1
  0
VERTEX
  5
B2
  8
THREE_QUARTER_INCH_THRUCUT
 10
2.344379752631925
 20
4.908435802915442
 30
0.0
  0
VERTEX
  5
B3
  8
THREE_QUARTER_INCH_THRUCUT
 10
22.71437975262875
 20
4.908435802914918
 30
0.0
 42
0.4142135623729316
  0
VERTEX
  5
B4
  8
THREE_QUARTER_INCH_THRUCUT
 10
22.8443797526288
 20
5.038435802914799
 30
0.0
  0
VERTEX
  5
B5
  8
THREE_QUARTER_INCH_THRUCUT
 10
22.84437975262886
 20
5.139178449071588
 30
0.0
 42
-1.0
  0
VERTEX
  5
B6
  8
THREE_QUARTER_INCH_THRUCUT
 10
23.11363710647293
 20
5.408435802915429
 30
0.0
  0
VERTEX
  5
B7
  8
THREE_QUARTER_INCH_THRUCUT
 10
23.32512239878451
 20
5.408435802915458
 30
0.0
 42
-1.0
  0
VERTEX
  5
B8
  8
THREE_QUARTER_INCH_THRUCUT
 10
23.59437975262971
 20
5.139178449072753
 30
0.0
  0
VERTEX
  5
B9
  8
THREE_QUARTER_INCH_THRUCUT
 10
23.59437975263068
 20
5.038435802914259
 30
0.0
 42
0.4142135623703808
  0
VERTEX
  5
BA
  8
THREE_QUARTER_INCH_THRUCUT
 10
23.72437975263068
 20
4.908435802915458
 30
0.0
  0
VERTEX
  5
BB
  8
THREE_QUARTER_INCH_THRUCUT
 10
44.71437975262879
 20
4.908435802914832
 30
0.0
 42
0.4142135623729316
  0
VERTEX
  5
BC
  8
THREE_QUARTER_INCH_THRUCUT
 10
44.84437975262879
 20
5.038435802914714
 30
0.0
  0
VERTEX
  5
BD
  8
THREE_QUARTER_INCH_THRUCUT
 10
44.84437975262887
 20
5.139178449071503
 30
0.0
 42
-1.0
  0
VERTEX
  5
BE
  8
THREE_QUARTER_INCH_THRUCUT
 10
45.11363710647291
 20
5.408435802915344
 30
0.0
  0
VERTEX
  5
BF
  8
THREE_QUARTER_INCH_THRUCUT
 10
45.32512239878455
 20
5.408435802915372
 30
0.0
 42
-1.0
  0
VERTEX
  5
C0
  8
THREE_QUARTER_INCH_THRUCUT
 10
45.59437975262974
 20
5.139178449072668
 30
0.0
  0
VERTEX
  5
C1
  8
THREE_QUARTER_INCH_THRUCUT
 10
45.59437975263068
 20
5.038435802914174
 30
0.0
 42
0.4142135623703808
  0
VERTEX
  5
C2
  8
THREE_QUARTER_INCH_THRUCUT
 10
45.72437975263068
 20
4.908435802915372
 30
0.0
  0
VERTEX
  5
C3
  8
THREE_QUARTER_INCH_THRUCUT
 10
66.71437975262884
 20
4.908435802914832
 30
0.0
 42
0.4142135623729316
  0
VERTEX
  5
C4
  8
THREE_QUARTER_INCH_THRUCUT
 10
66.84437975262884
 20
5.038435802914714
 30
0.0
  0
VERTEX
  5
C5
  8
THREE_QUARTER_INCH_THRUCUT
 10
66.8443797526289
 20
5.139178449071503
 30
0.0
 42
-1.0
  0
VERTEX
  5
C6
  8
THREE_QUARTER_INCH_THRUCUT
 10
67.11363710647296
 20
5.408435802915344
 30
0.0
  0
VERTEX
  5
C7
  8
THREE_QUARTER_INCH_THRUCUT
 10
67.3251223987846
 20
5.408435802915372
 30
0.0
 42
-1.0
  0
VERTEX
  5
C8
  8
THREE_QUARTER_INCH_THRUCUT
 10
67.59437975262978
 20
5.139178449072668
 30
0.0
  0
VERTEX
  5
C9
  8
THREE_QUARTER_INCH_THRUCUT
 10
67.59437975263072
 20
5.038435802914174
 30
0.0
 42
0.4142135623703808
  0
VERTEX
  5
CA
  8
THREE_QUARTER_INCH_THRUCUT
 10
67.72437975263071
 20
4.908435802915372
 30
0.0
  0
VERTEX
  5
CB
  8
THREE_QUARTER_INCH_THRUCUT
 10
78.219379752636
 20
4.908435802915088
 30
0.0
  0
VERTEX
  5
CC
  8
THREE_QUARTER_INCH_THRUCUT
 10
78.21936711186146
 20
4.992380879797432
 30
0.0
  0
VERTEX
  5
CD
  8
THREE_QUARTER_INCH_THRUCUT
 10
78.21909983091302
 20
5.004744247226084
 30
0.0
  0
VERTEX
  5
CE
  8
THREE_QUARTER_INCH_THRUCUT
 10
78.21822530494947
 20
5.017025672693635
 30
0.0
  0
VERTEX
  5
CF
  8
THREE_QUARTER_INCH_THRUCUT
 10
78.2167519268526
 20
5.029204705326228
 30
0.0
  0
VERTEX
  5
D0
  8
THREE_QUARTER_INCH_THRUCUT
 10
78.21468808950428
 20
5.041260894250001
 30
0.0
  0
VERTEX
  5
D1
  8
THREE_QUARTER_INCH_THRUCUT
 10
78.21204218578634
 20
5.053173788591097
 30
0.0
  0
VERTEX
  5
D2
  8
THREE_QUARTER_INCH_THRUCUT
 10
78.20882260858063
 20
5.064922937475652
 30
0.0
  0
VERTEX
  5
D3
  8
THREE_QUARTER_INCH_THRUCUT
 10
78.20503775076898
 20
5.07648789002981
 30
0.0
  0
VERTEX
  5
D4
  8
THREE_QUARTER_INCH_THRUCUT
 10
78.20069600523324
 20
5.087848195379712
 30
0.0
  0
VERTEX
  5
D5
  8
THREE_QUARTER_INCH_THRUCUT
 10
78.19580576485524
 20
5.098983402651495
 30
0.0
  0
VERTEX
  5
D6
  8
THREE_QUARTER_INCH_THRUCUT
 10
78.19037542251684
 20
5.1098730609713
 30
0.0
  0
VERTEX
  5
D7
  8
THREE_QUARTER_INCH_THRUCUT
 10
78.18441337109988
 20
5.120496719465271
 30
0.0
  0
VERTEX
  5
D8
  8
THREE_QUARTER_INCH_THRUCUT
 10
78.17792800348619
 20
5.130833927259543
 30
0.0
  0
VERTEX
  5
D9
  8
THREE_QUARTER_INCH_THRUCUT
 10
78.1709277125576
 20
5.14086423348026
 30
0.0
  0
VERTEX
  5
DA
  8
THREE_QUARTER_INCH_THRUCUT
 10
78.16342089119598
 20
5.15056718725356
 30
0.0
  0
VERTEX
  5
DB
  8
THREE_QUARTER_INCH_THRUCUT
 10
78.15541593228315
 20
5.159922337705585
 30
0.0
  0
VERTEX
  5
DC
  8
THREE_QUARTER_INCH_THRUCUT
 10
78.14692122870096
 20
5.168909233962475
 30
0.0
  0
VERTEX
  5
DD
  8
THREE_QUARTER_INCH_THRUCUT
 10
77.82876032303326
 20
5.486647919404087
 30
0.0
  0
VERTEX
  5
DE
  8
THREE_QUARTER_INCH_THRUCUT
 10
77.81545259465824
 20
5.500630065312133
 30
0.0
  0
VERTEX
  5
DF
  8
THREE_QUARTER_INCH_THRUCUT
 10
77.8030026270532
 20
5.515112503912814
 30
0.0
  0
VERTEX
  5
E0
  8
THREE_QUARTER_INCH_THRUCUT
 10
77.79141043928196
 20
5.530061915088182
 30
0.0
  0
VERTEX
  5
E1
  8
THREE_QUARTER_INCH_THRUCUT
 10
77.78067605040829
 20
5.545444978720291
 30
0.0
  0
VERTEX
  5
E2
  8
THREE_QUARTER_INCH_THRUCUT
 10
77.77079947949599
 20
5.561228374691194
 30
0.0
  0
VERTEX
  5
E3
  8
THREE_QUARTER_INCH_THRUCUT
 10
77.76178074560889
 20
5.577378782882944
 30
0.0
  0
VERTEX
  5
E4
  8
THREE_QUARTER_INCH_THRUCUT
 10
77.75361986781073
 20
5.593862883177593
 30
0.0
  0
VERTEX
  5
E5
  8
THREE_QUARTER_INCH_THRUCUT
 10
77.74631686516534
 20
5.610647355457193
 30
0.0
  0
VERTEX
  5
E6
  8
THREE_QUARTER_INCH_THRUCUT
 10
77.7398717567365
 20
5.627698879603798
 30
0.0
  0
VERTEX
  5
E7
  8
THREE_QUARTER_INCH_THRUCUT
 10
77.73428456158801
 20
5.644984135499461
 30
0.0
  0
VERTEX
  5
E8
  8
THREE_QUARTER_INCH_THRUCUT
 10
77.72955529878368
 20
5.662469803026235
 30
0.0
  0
VERTEX
  5
E9
  8
THREE_QUARTER_INCH_THRUCUT
 10
77.72568398738728
 20
5.680122562066172
 30
0.0
  0
VERTEX
  5
EA
  8
THREE_QUARTER_INCH_THRUCUT
 10
77.72267064646262
 20
5.697909092501325
 30
0.0
  0
VERTEX
  5
EB
  8
THREE_QUARTER_INCH_THRUCUT
 10
77.72051529507348
 20
5.715796074213747
 30
0.0
  0
VERTEX
  5
EC
  8
THREE_QUARTER_INCH_THRUCUT
 10
77.71921795228366
 20
5.733750187085492
 30
0.0
  0
VERTEX
  5
ED
  8
THREE_QUARTER_INCH_THRUCUT
 10
77.71877863715696
 20
5.751738110998611
 30
0.0
  0
VERTEX
  5
EE
  8
THREE_QUARTER_INCH_THRUCUT
 10
77.71919736875716
 20
5.769726525835157
 30
0.0
  0
VERTEX
  5
EF
  8
THREE_QUARTER_INCH_THRUCUT
 10
77.7204741661481
 20
5.787682111477184
 30
0.0
  0
VERTEX
  5
F0
  8
THREE_QUARTER_INCH_THRUCUT
 10
77.72260904839351
 20
5.805571547806744
 30
0.0
  0
VERTEX
  5
F1
  8
THREE_QUARTER_INCH_THRUCUT
 10
77.72560203455723
 20
5.823361514705891
 30
0.0
  0
VERTEX
  5
F2
  8
THREE_QUARTER_INCH_THRUCUT
 10
77.72945314370303
 20
5.841018692056675
 30
0.0
  0
VERTEX
  5
F3
  8
THREE_QUARTER_INCH_THRUCUT
 10
77.73416239489472
 20
5.858509759741153
 30
0.0
  0
VERTEX
  5
F4
  8
THREE_QUARTER_INCH_THRUCUT
 10
77.7397298071961
 20
5.875801397641375
 30
0.0
  0
VERTEX
  5
F5
  8
THREE_QUARTER_INCH_THRUCUT
 10
77.74615539967094
 20
5.892860285639394
 30
0.0
  0
VERTEX
  5
F6
  8
THREE_QUARTER_INCH_THRUCUT
 10
77.75343919138305
 20
5.909653103617263
 30
0.0
  0
VERTEX
  5
F7
  8
THREE_QUARTER_INCH_THRUCUT
 10
77.76158120139623
 20
5.926146531457036
 30
0.0
  0
VERTEX
  5
F8
  8
THREE_QUARTER_INCH_THRUCUT
 10
77.77058144877424
 20
5.942307249040764
 30
0.0
  0
VERTEX
  5
F9
  8
THREE_QUARTER_INCH_THRUCUT
 10
77.78043995258093
 20
5.958101936250501
 30
0.0
  0
VERTEX
  5
FA
  8
THREE_QUARTER_INCH_THRUCUT
 10
77.79115673188005
 20
5.9734972729683
 30
0.0
  0
VERTEX
  5
FB
  8
THREE_QUARTER_INCH_THRUCUT
 10
77.80273180573542
 20
5.988459939076213
 30
0.0
  0
VERTEX
  5
FC
  8
THREE_QUARTER_INCH_THRUCUT
 10
77.81516519321082
 20
6.002956614456293
 30
0.0
  0
VERTEX
  5
FD
  8
THREE_QUARTER_INCH_THRUCUT
 10
77.82845691337005
 20
6.016953978990593
 30
0.0
  0
VERTEX
  5
FE
  8
THREE_QUARTER_INCH_THRUCUT
 10
78.21938997498953
 20
6.408294567011191
 30
0.0
  0
VERTEX
  5
FF
  8
THREE_QUARTER_INCH_THRUCUT
 10
78.61032303660895
 20
6.799635155031787
 30
0.0
  0
VERTEX
  5
100
  8
THREE_QUARTER_INCH_THRUCUT
 10
78.62361475676818
 20
6.813632519566083
 30
0.0
  0
VERTEX
  5
101
  8
THREE_QUARTER_INCH_THRUCUT
 10
78.63604814424357
 20
6.828129194946159
 30
0.0
  0
VERTEX
  5
102
  8
THREE_QUARTER_INCH_THRUCUT
 10
78.64762321809894
 20
6.843091861054068
 30
0.0
  0
VERTEX
  5
103
  8
THREE_QUARTER_INCH_THRUCUT
 10
78.65833999739806
 20
6.858487197771863
 30
0.0
  0
VERTEX
  5
104
  8
THREE_QUARTER_INCH_THRUCUT
 10
78.66819850120476
 20
6.874281884981598
 30
0.0
  0
VERTEX
  5
105
  8
THREE_QUARTER_INCH_THRUCUT
 10
78.67719874858277
 20
6.890442602565324
 30
0.0
  0
VERTEX
  5
106
  8
THREE_QUARTER_INCH_THRUCUT
 10
78.68534075859594
 20
6.906936030405094
 30
0.0
  0
VERTEX
  5
107
  8
THREE_QUARTER_INCH_THRUCUT
 10
78.69262455030805
 20
6.923728848382961
 30
0.0
  0
VERTEX
  5
108
  8
THREE_QUARTER_INCH_THRUCUT
 10
78.6990501427829
 20
6.940787736380978
 30
0.0
  0
VERTEX
  5
109
  8
THREE_QUARTER_INCH_THRUCUT
 10
78.70461755508427
 20
6.958079374281198
 30
0.0
  0
VERTEX
  5
10A
  8
THREE_QUARTER_INCH_THRUCUT
 10
78.70932680627597
 20
6.975570441965674
 30
0.0
  0
VERTEX
  5
10B
  8
THREE_QUARTER_INCH_THRUCUT
 10
78.71317791542177
 20
6.99322761931646
 30
0.0
  0
VERTEX
  5
10C
  8
THREE_QUARTER_INCH_THRUCUT
 10
78.71617090158549
 20
7.011017586215606
 30
0.0
  0
VERTEX
  5
10D
  8
THREE_QUARTER_INCH_THRUCUT
 10
78.7183057838309
 20
7.028907022545166
 30
0.0
  0
VERTEX
  5
10E
  8
THREE_QUARTER_INCH_THRUCUT
 10
78.71958258122183
 20
7.046862608187194
 30
0.0
  0
VERTEX
  5
10F
  8
THREE_QUARTER_INCH_THRUCUT
 10
78.72000131282203
 20
7.06485102302374
 30
0.0
  0
VERTEX
  5
110
  8
THREE_QUARTER_INCH_THRUCUT
 10
78.71956199769534
 20
7.082838946936859
 30
0.0
  0
VERTEX
  5
111
  8
THREE_QUARTER_INCH_THRUCUT
 10
78.71826465490551
 20
7.100793059808606
 30
0.0
  0
VERTEX
  5
112
  8
THREE_QUARTER_INCH_THRUCUT
 10
78.71610930351638
 20
7.11868004152103
 30
0.0
  0
VERTEX
  5
113
  8
THREE_QUARTER_INCH_THRUCUT
 10
78.71309596259171
 20
7.136466571956184
 30
0.0
  0
VERTEX
  5
114
  8
THREE_QUARTER_INCH_THRUCUT
 10
78.70922465119531
 20
7.154119330996123
 30
0.0
  0
VERTEX
  5
115
  8
THREE_QUARTER_INCH_THRUCUT
 10
78.70449538839098
 20
7.171604998522898
 30
0.0
  0
VERTEX
  5
116
  8
THREE_QUARTER_INCH_THRUCUT
 10
78.69890819324249
 20
7.188890254418563
 30
0.0
  0
VERTEX
  5
117
  8
THREE_QUARTER_INCH_THRUCUT
 10
78.69246308481365
 20
7.205941778565171
 30
0.0
  0
VERTEX
  5
118
  8
THREE_QUARTER_INCH_THRUCUT
 10
78.68516008216827
 20
7.222726250844774
 30
0.0
  0
VERTEX
  5
119
  8
THREE_QUARTER_INCH_THRUCUT
 10
78.6769992043701
 20
7.239210351139424
 30
0.0
  0
VERTEX
  5
11A
  8
THREE_QUARTER_INCH_THRUCUT
 10
78.667980470483
 20
7.255360759331175
 30
0.0
  0
VERTEX
  5
11B
  8
THREE_QUARTER_INCH_THRUCUT
 10
78.6581038995707
 20
7.271144155302081
 30
0.0
  0
VERTEX
  5
11C
  8
THREE_QUARTER_INCH_THRUCUT
 10
78.64736951069703
 20
7.286527218934193
 30
0.0
  0
VERTEX
  5
11D
  8
THREE_QUARTER_INCH_THRUCUT
 10
78.63577732292579
 20
7.301476630109564
 30
0.0
  0
VERTEX
  5
11E
  8
THREE_QUARTER_INCH_THRUCUT
 10
78.62332735532075
 20
7.315959068710248
 30
0.0
  0
VERTEX
  5
11F
  8
THREE_QUARTER_INCH_THRUCUT
 10
78.61001962694573
 20
7.329941214618296
 30
0.0
  0
VERTEX
  5
120
  8
THREE_QUARTER_INCH_THRUCUT
 10
78.29185872127803
 20
7.647679900059879
 30
0.0
  0
VERTEX
  5
121
  8
THREE_QUARTER_INCH_THRUCUT
 10
78.28336401769585
 20
7.656666796316761
 30
0.0
  0
VERTEX
  5
122
  8
THREE_QUARTER_INCH_THRUCUT
 10
78.27535905878301
 20
7.66602194676878
 30
0.0
  0
VERTEX
  5
123
  8
THREE_QUARTER_INCH_THRUCUT
 10
78.2678522374214
 20
7.675724900542077
 30
0.0
  0
VERTEX
  5
124
  8
THREE_QUARTER_INCH_THRUCUT
 10
78.2608519464928
 20
7.685755206762792
 30
0.0
  0
VERTEX
  5
125
  8
THREE_QUARTER_INCH_THRUCUT
 10
78.25436657887911
 20
7.696092414557065
 30
0.0
  0
VERTEX
  5
126
  8
THREE_QUARTER_INCH_THRUCUT
 10
78.24840452746216
 20
7.706716073051037
 30
0.0
  0
VERTEX
  5
127
  8
THREE_QUARTER_INCH_THRUCUT
 10
78.24297418512376
 20
7.717605731370847
 30
0.0
  0
VERTEX
  5
128
  8
THREE_QUARTER_INCH_THRUCUT
 10
78.23808394474575
 20
7.728740938642636
 30
0.0
  0
VERTEX
  5
129
  8
THREE_QUARTER_INCH_THRUCUT
 10
78.23374219921001
 20
7.740101243992543
 30
0.0
  0
VERTEX
  5
12A
  8
THREE_QUARTER_INCH_THRUCUT
 10
78.22995734139836
 20
7.751666196546706
 30
0.0
  0
VERTEX
  5
12B
  8
THREE_QUARTER_INCH_THRUCUT
 10
78.22673776419265
 20
7.763415345431269
 30
0.0
  0
VERTEX
  5
12C
  8
THREE_QUARTER_INCH_THRUCUT
 10
78.22409186047472
 20
7.775328239772369
 30
0.0
  0
VERTEX
  5
12D
  8
THREE_QUARTER_INCH_THRUCUT
 10
78.2220280231264
 20
7.787384428696146
 30
0.0
  0
VERTEX
  5
12E
  8
THREE_QUARTER_INCH_THRUCUT
 10
78.22055464502952
 20
7.799563461328743
 30
0.0
  0
VERTEX
  5
12F
  8
THREE_QUARTER_INCH_THRUCUT
 10
78.21968011906597
 20
7.811844886796298
 30
0.0
  0
VERTEX
  5
130
  8
THREE_QUARTER_INCH_THRUCUT
 10
78.21941283811753
 20
7.824208254224951
 30
0.0
  0
VERTEX
  5
131
  8
THREE_QUARTER_INCH_THRUCUT
 10
78.21940019734922
 20
7.908435802915145
 30
0.0
  0
VERTEX
  5
132
  8
THREE_QUARTER_INCH_THRUCUT
 10
67.72437975263071
 20
7.908435802915287
 30
0.0
 42
0.4142135623704057
  0
VERTEX
  5
133
  8
THREE_QUARTER_INCH_THRUCUT
 10
67.59437975263072
 20
7.778435802916485
 30
0.0
  0
VERTEX
  5
134
  8
THREE_QUARTER_INCH_THRUCUT
 10
67.59437975262978
 20
7.67769315675802
 30
0.0
 42
-1.0
  0
VERTEX
  5
135
  8
THREE_QUARTER_INCH_THRUCUT
 10
67.32512239878457
 20
7.408435802915344
 30
0.0
  0
VERTEX
  5
136
  8
THREE_QUARTER_INCH_THRUCUT
 10
67.11363710647296
 20
7.408435802915344
 30
0.0
 42
-1.0
  0
VERTEX
  5
137
  8
THREE_QUARTER_INCH_THRUCUT
 10
66.84437975262892
 20
7.677693156759156
 30
0.0
  0
VERTEX
  5
138
  8
THREE_QUARTER_INCH_THRUCUT
 10
66.84437975262884
 20
7.778435802915149
 30
0.0
 42
0.4142135623727946
  0
VERTEX
  5
139
  8
THREE_QUARTER_INCH_THRUCUT
 10
66.71437975262884
 20
7.908435802915031
 30
0.0
  0
VERTEX
  5
13A
  8
THREE_QUARTER_INCH_THRUCUT
 10
45.72437975263068
 20
7.908435802915287
 30
0.0
 42
0.4142135623704057
  0
VERTEX
  5
13B
  8
THREE_QUARTER_INCH_THRUCUT
 10
45.59437975263068
 20
7.778435802916485
 30
0.0
  0
VERTEX
  5
13C
  8
THREE_QUARTER_INCH_THRUCUT
 10
45.59437975262974
 20
7.67769315675802
 30
0.0
 42
-1.0
  0
VERTEX
  5
13D
  8
THREE_QUARTER_INCH_THRUCUT
 10
45.32512239878454
 20
7.408435802915344
 30
0.0
  0
VERTEX
  5
13E
  8
THREE_QUARTER_INCH_THRUCUT
 10
45.11363710647294
 20
7.408435802915344
 30
0.0
 42
-1.0
  0
VERTEX
  5
13F
  8
THREE_QUARTER_INCH_THRUCUT
 10
44.84437975262889
 20
7.677693156759156
 30
0.0
  0
VERTEX
  5
140
  8
THREE_QUARTER_INCH_THRUCUT
 10
44.84437975262879
 20
7.778435802915149
 30
0.0
 42
0.4142135623727946
  0
VERTEX
  5
141
  8
THREE_QUARTER_INCH_THRUCUT
 10
44.71437975262879
 20
7.908435802915031
 30
0.0
  0
VERTEX
  5
142
  8
THREE_QUARTER_INCH_THRUCUT
 10
23.72437975263068
 20
7.908435802915372
 30
0.0
 42
0.4142135623704057
  0
VERTEX
  5
143
  8
THREE_QUARTER_INCH_THRUCUT
 10
23.59437975263068
 20
7.778435802916571
 30
0.0
  0
VERTEX
  5
144
  8
THREE_QUARTER_INCH_THRUCUT
 10
23.59437975262971
 20
7.677693156758105
 30
0.0
 42
-1.0
  0
VERTEX
  5
145
  8
THREE_QUARTER_INCH_THRUCUT
 10
23.32512239878451
 20
7.408435802915429
 30
0.0
  0
VERTEX
  5
146
  8
THREE_QUARTER_INCH_THRUCUT
 10
23.11363710647293
 20
7.408435802915429
 30
0.0
 42
-1.0
  0
VERTEX
  5
147
  8
THREE_QUARTER_INCH_THRUCUT
 10
22.84437975262886
 20
7.677693156759242
 30
0.0
  0
VERTEX
  5
148
  8
THREE_QUARTER_INCH_THRUCUT
 10
22.8443797526288
 20
7.778435802915235
 30
0.0
 42
0.4142135623727946
  0
VERTEX
  5
149
  8
THREE_QUARTER_INCH_THRUCUT
 10
22.71437975262881
 20
7.908435802915116
 30
0.0
  0
VERTEX
  5
14A
  8
THREE_QUARTER_INCH_THRUCUT
 10
2.34437975263193
 20
7.908435802915372
 30
0.0
  0
VERTEX
  5
14B
  8
THREE_QUARTER_INCH_THRUCUT
 10
2.344379752629714
 20
7.677693156758105
 30
0.0
 42
-1.0
  0
VERTEX
  5
14C
  8
THREE_QUARTER_INCH_THRUCUT
 10
2.075122398784508
 20
7.408435802915429
 30
0.0
  0
VERTEX
  5
14D
  8
THREE_QUARTER_INCH_THRUCUT
 10
1.594379752629013
 20
7.408435802915427
 30
0.0
  0
VERTEX
  5
14E
  8
THREE_QUARTER_INCH_THRUCUT
 10
1.594379752629012
 20
5.408435802915395
 30
0.0
  0
VERTEX
  5
14F
  8
THREE_QUARTER_INCH_THRUCUT
 10
2.075122398784508
 20
5.408435802915458
 30
0.0
 42
-1.0
  0
VERTEX
  5
150
  8
THREE_QUARTER_INCH_THRUCUT
 10
2.344379752629714
 20
5.139178449072753
 30
0.0
  0
SEQEND
  5
3EC
  8
THREE_QUARTER_INCH_THRUCUT
  0
POLYLINE
  5
77
  8
THREE_QUARTER_INCH_THRUCUT
 66
     1
 10
0.0
 20
0.0
 30
0.0
 70
     1
  0
VERTEX
  5
151
  8
THREE_QUARTER_INCH_THRUCUT
 10
2.344379752631927
 20
0.9126610595612059
 30
0.0
  0
VERTEX
  5
152
  8
THREE_QUARTER_INCH_THRUCUT
 10
2.344379752629714
 20
1.143403705718498
 30
0.0
 42
1.0
  0
VERTEX
  5
153
  8
THREE_QUARTER_INCH_THRUCUT
 10
2.075122398784508
 20
1.412661059561202
 30
0.0
  0
VERTEX
  5
154
  8
THREE_QUARTER_INCH_THRUCUT
 10
1.594379752629012
 20
1.412661059561139
 30
0.0
  0
VERTEX
  5
155
  8
THREE_QUARTER_INCH_THRUCUT
 10
1.594379752629012
 20
3.41266105956117
 30
0.0
  0
VERTEX
  5
156
  8
THREE_QUARTER_INCH_THRUCUT
 10
2.075122398784508
 20
3.412661059561172
 30
0.0
 42
1.0
  0
VERTEX
  5
157
  8
THREE_QUARTER_INCH_THRUCUT
 10
2.344379752629714
 20
3.681918413403848
 30
0.0
  0
VERTEX
  5
158
  8
THREE_QUARTER_INCH_THRUCUT
 10
2.34437975263193
 20
3.912661059561116
 30
0.0
  0
VERTEX
  5
159
  8
THREE_QUARTER_INCH_THRUCUT
 10
22.71437975262881
 20
3.912661059560859
 30
0.0
 42
-0.4142135623727946
  0
VERTEX
  5
15A
  8
THREE_QUARTER_INCH_THRUCUT
 10
22.8443797526288
 20
3.782661059560978
 30
0.0
  0
VERTEX
  5
15B
  8
THREE_QUARTER_INCH_THRUCUT
 10
22.84437975262886
 20
3.681918413404984
 30
0.0
 42
1.0
  0
VERTEX
  5
15C
  8
THREE_QUARTER_INCH_THRUCUT
 10
23.11363710647293
 20
3.412661059561172
 30
0.0
  0
VERTEX
  5
15D
  8
THREE_QUARTER_INCH_THRUCUT
 10
23.32512239878451
 20
3.412661059561172
 30
0.0
 42
1.0
  0
VERTEX
  5
15E
  8
THREE_QUARTER_INCH_THRUCUT
 10
23.59437975262971
 20
3.681918413403848
 30
0.0
  0
VERTEX
  5
15F
  8
THREE_QUARTER_INCH_THRUCUT
 10
23.59437975263068
 20
3.782661059562313
 30
0.0
 42
-0.4142135623704057
  0
VERTEX
  5
160
  8
THREE_QUARTER_INCH_THRUCUT
 10
23.72437975263068
 20
3.912661059561115
 30
0.0
  0
VERTEX
  5
161
  8
THREE_QUARTER_INCH_THRUCUT
 10
44.71437975262879
 20
3.912661059560774
 30
0.0
 42
-0.4142135623727946
  0
VERTEX
  5
162
  8
THREE_QUARTER_INCH_THRUCUT
 10
44.84437975262879
 20
3.782661059560892
 30
0.0
  0
VERTEX
  5
163
  8
THREE_QUARTER_INCH_THRUCUT
 10
44.84437975262889
 20
3.681918413404899
 30
0.0
 42
1.0
  0
VERTEX
  5
164
  8
THREE_QUARTER_INCH_THRUCUT
 10
45.11363710647294
 20
3.412661059561087
 30
0.0
  0
VERTEX
  5
165
  8
THREE_QUARTER_INCH_THRUCUT
 10
45.32512239878454
 20
3.412661059561087
 30
0.0
 42
1.0
  0
VERTEX
  5
166
  8
THREE_QUARTER_INCH_THRUCUT
 10
45.59437975262974
 20
3.681918413403762
 30
0.0
  0
VERTEX
  5
167
  8
THREE_QUARTER_INCH_THRUCUT
 10
45.59437975263068
 20
3.782661059562228
 30
0.0
 42
-0.4142135623704057
  0
VERTEX
  5
168
  8
THREE_QUARTER_INCH_THRUCUT
 10
45.72437975263068
 20
3.91266105956103
 30
0.0
  0
VERTEX
  5
169
  8
THREE_QUARTER_INCH_THRUCUT
 10
66.71437975262884
 20
3.912661059560774
 30
0.0
 42
-0.4142135623727946
  0
VERTEX
  5
16A
  8
THREE_QUARTER_INCH_THRUCUT
 10
66.84437975262884
 20
3.782661059560892
 30
0.0
  0
VERTEX
  5
16B
  8
THREE_QUARTER_INCH_THRUCUT
 10
66.84437975262892
 20
3.681918413404899
 30
0.0
 42
1.0
  0
VERTEX
  5
16C
  8
THREE_QUARTER_INCH_THRUCUT
 10
67.11363710647296
 20
3.412661059561087
 30
0.0
  0
VERTEX
  5
16D
  8
THREE_QUARTER_INCH_THRUCUT
 10
67.32512239878457
 20
3.412661059561087
 30
0.0
 42
1.0
  0
VERTEX
  5
16E
  8
THREE_QUARTER_INCH_THRUCUT
 10
67.59437975262978
 20
3.681918413403762
 30
0.0
  0
VERTEX
  5
16F
  8
THREE_QUARTER_INCH_THRUCUT
 10
67.59437975263072
 20
3.782661059562228
 30
0.0
 42
-0.4142135623704057
  0
VERTEX
  5
170
  8
THREE_QUARTER_INCH_THRUCUT
 10
67.72437975263071
 20
3.91266105956103
 30
0.0
  0
VERTEX
  5
171
  8
THREE_QUARTER_INCH_THRUCUT
 10
78.21940019734922
 20
3.912661059560831
 30
0.0
  0
VERTEX
  5
172
  8
THREE_QUARTER_INCH_THRUCUT
 10
78.21941283811753
 20
3.828433510870694
 30
0.0
  0
VERTEX
  5
173
  8
THREE_QUARTER_INCH_THRUCUT
 10
78.21968011906597
 20
3.816070143442041
 30
0.0
  0
VERTEX
  5
174
  8
THREE_QUARTER_INCH_THRUCUT
 10
78.22055464502952
 20
3.803788717974486
 30
0.0
  0
VERTEX
  5
175
  8
THREE_QUARTER_INCH_THRUCUT
 10
78.2220280231264
 20
3.79160968534189
 30
0.0
  0
VERTEX
  5
176
  8
THREE_QUARTER_INCH_THRUCUT
 10
78.22409186047472
 20
3.779553496418111
 30
0.0
  0
VERTEX
  5
177
  8
THREE_QUARTER_INCH_THRUCUT
 10
78.22673776419265
 20
3.767640602077011
 30
0.0
  0
VERTEX
  5
178
  8
THREE_QUARTER_INCH_THRUCUT
 10
78.22995734139836
 20
3.755891453192449
 30
0.0
  0
VERTEX
  5
179
  8
THREE_QUARTER_INCH_THRUCUT
 10
78.23374219921001
 20
3.744326500638285
 30
0.0
  0
VERTEX
  5
17A
  8
THREE_QUARTER_INCH_THRUCUT
 10
78.23808394474575
 20
3.732966195288379
 30
0.0
  0
VERTEX
  5
17B
  8
THREE_QUARTER_INCH_THRUCUT
 10
78.24297418512376
 20
3.721830988016591
 30
0.0
  0
VERTEX
  5
17C
  8
THREE_QUARTER_INCH_THRUCUT
 10
78.24840452746216
 20
3.710941329696781
 30
0.0
  0
VERTEX
  5
17D
  8
THREE_QUARTER_INCH_THRUCUT
 10
78.25436657887911
 20
3.700317671202809
 30
0.0
  0
VERTEX
  5
17E
  8
THREE_QUARTER_INCH_THRUCUT
 10
78.2608519464928
 20
3.689980463408535
 30
0.0
  0
VERTEX
  5
17F
  8
THREE_QUARTER_INCH_THRUCUT
 10
78.2678522374214
 20
3.679950157187819
 30
0.0
  0
VERTEX
  5
180
  8
THREE_QUARTER_INCH_THRUCUT
 10
78.27535905878301
 20
3.670247203414522
 30
0.0
  0
VERTEX
  5
181
  8
THREE_QUARTER_INCH_THRUCUT
 10
78.28336401769585
 20
3.660892052962503
 30
0.0
  0
VERTEX
  5
182
  8
THREE_QUARTER_INCH_THRUCUT
 10
78.29185872127803
 20
3.651905156705622
 30
0.0
  0
VERTEX
  5
183
  8
THREE_QUARTER_INCH_THRUCUT
 10
78.61001962694573
 20
3.334166471264039
 30
0.0
  0
VERTEX
  5
184
  8
THREE_QUARTER_INCH_THRUCUT
 10
78.62332735532075
 20
3.32018432535599
 30
0.0
  0
VERTEX
  5
185
  8
THREE_QUARTER_INCH_THRUCUT
 10
78.63577732292579
 20
3.305701886755307
 30
0.0
  0
VERTEX
  5
186
  8
THREE_QUARTER_INCH_THRUCUT
 10
78.64736951069703
 20
3.290752475579936
 30
0.0
  0
VERTEX
  5
187
  8
THREE_QUARTER_INCH_THRUCUT
 10
78.6581038995707
 20
3.275369411947824
 30
0.0
  0
VERTEX
  5
188
  8
THREE_QUARTER_INCH_THRUCUT
 10
78.667980470483
 20
3.259586015976918
 30
0.0
  0
VERTEX
  5
189
  8
THREE_QUARTER_INCH_THRUCUT
 10
78.6769992043701
 20
3.243435607785167
 30
0.0
  0
VERTEX
  5
18A
  8
THREE_QUARTER_INCH_THRUCUT
 10
78.68516008216827
 20
3.226951507490516
 30
0.0
  0
VERTEX
  5
18B
  8
THREE_QUARTER_INCH_THRUCUT
 10
78.69246308481365
 20
3.210167035210913
 30
0.0
  0
VERTEX
  5
18C
  8
THREE_QUARTER_INCH_THRUCUT
 10
78.69890819324249
 20
3.193115511064305
 30
0.0
  0
VERTEX
  5
18D
  8
THREE_QUARTER_INCH_THRUCUT
 10
78.70449538839098
 20
3.17583025516864
 30
0.0
  0
VERTEX
  5
18E
  8
THREE_QUARTER_INCH_THRUCUT
 10
78.70922465119531
 20
3.158344587641865
 30
0.0
  0
VERTEX
  5
18F
  8
THREE_QUARTER_INCH_THRUCUT
 10
78.71309596259171
 20
3.140691828601927
 30
0.0
  0
VERTEX
  5
190
  8
THREE_QUARTER_INCH_THRUCUT
 10
78.71610930351638
 20
3.122905298166772
 30
0.0
  0
VERTEX
  5
191
  8
THREE_QUARTER_INCH_THRUCUT
 10
78.71826465490551
 20
3.105018316454348
 30
0.0
  0
VERTEX
  5
192
  8
THREE_QUARTER_INCH_THRUCUT
 10
78.71956199769534
 20
3.087064203582603
 30
0.0
  0
VERTEX
  5
193
  8
THREE_QUARTER_INCH_THRUCUT
 10
78.72000131282203
 20
3.069076279669483
 30
0.0
  0
VERTEX
  5
194
  8
THREE_QUARTER_INCH_THRUCUT
 10
78.71958258122183
 20
3.051087864832936
 30
0.0
  0
VERTEX
  5
195
  8
THREE_QUARTER_INCH_THRUCUT
 10
78.7183057838309
 20
3.033132279190909
 30
0.0
  0
VERTEX
  5
196
  8
THREE_QUARTER_INCH_THRUCUT
 10
78.71617090158549
 20
3.015242842861348
 30
0.0
  0
VERTEX
  5
197
  8
THREE_QUARTER_INCH_THRUCUT
 10
78.71317791542177
 20
2.997452875962203
 30
0.0
  0
VERTEX
  5
198
  8
THREE_QUARTER_INCH_THRUCUT
 10
78.70932680627597
 20
2.979795698611418
 30
0.0
  0
VERTEX
  5
199
  8
THREE_QUARTER_INCH_THRUCUT
 10
78.70461755508427
 20
2.962304630926942
 30
0.0
  0
VERTEX
  5
19A
  8
THREE_QUARTER_INCH_THRUCUT
 10
78.6990501427829
 20
2.945012993026722
 30
0.0
  0
VERTEX
  5
19B
  8
THREE_QUARTER_INCH_THRUCUT
 10
78.69262455030805
 20
2.927954105028704
 30
0.0
  0
VERTEX
  5
19C
  8
THREE_QUARTER_INCH_THRUCUT
 10
78.68534075859594
 20
2.911161287050837
 30
0.0
  0
VERTEX
  5
19D
  8
THREE_QUARTER_INCH_THRUCUT
 10
78.67719874858277
 20
2.894667859211067
 30
0.0
  0
VERTEX
  5
19E
  8
THREE_QUARTER_INCH_THRUCUT
 10
78.66819850120476
 20
2.878507141627341
 30
0.0
  0
VERTEX
  5
19F
  8
THREE_QUARTER_INCH_THRUCUT
 10
78.65833999739806
 20
2.862712454417607
 30
0.0
  0
VERTEX
  5
1A0
  8
THREE_QUARTER_INCH_THRUCUT
 10
78.64762321809894
 20
2.847317117699812
 30
0.0
  0
VERTEX
  5
1A1
  8
THREE_QUARTER_INCH_THRUCUT
 10
78.63604814424357
 20
2.832354451591903
 30
0.0
  0
VERTEX
  5
1A2
  8
THREE_QUARTER_INCH_THRUCUT
 10
78.62361475676818
 20
2.817857776211827
 30
0.0
  0
VERTEX
  5
1A3
  8
THREE_QUARTER_INCH_THRUCUT
 10
78.61032303660895
 20
2.803860411677531
 30
0.0
  0
VERTEX
  5
1A4
  8
THREE_QUARTER_INCH_THRUCUT
 10
78.21938997498953
 20
2.412519823656934
 30
0.0
  0
VERTEX
  5
1A5
  8
THREE_QUARTER_INCH_THRUCUT
 10
77.82845691337005
 20
2.021179235636338
 30
0.0
  0
VERTEX
  5
1A6
  8
THREE_QUARTER_INCH_THRUCUT
 10
77.81516519321082
 20
2.007181871102038
 30
0.0
  0
VERTEX
  5
1A7
  8
THREE_QUARTER_INCH_THRUCUT
 10
77.80273180573542
 20
1.992685195721957
 30
0.0
  0
VERTEX
  5
1A8
  8
THREE_QUARTER_INCH_THRUCUT
 10
77.79115673188005
 20
1.977722529614043
 30
0.0
  0
VERTEX
  5
1A9
  8
THREE_QUARTER_INCH_THRUCUT
 10
77.78043995258093
 20
1.962327192896245
 30
0.0
  0
VERTEX
  5
1AA
  8
THREE_QUARTER_INCH_THRUCUT
 10
77.77058144877424
 20
1.946532505686507
 30
0.0
  0
VERTEX
  5
1AB
  8
THREE_QUARTER_INCH_THRUCUT
 10
77.76158120139623
 20
1.930371788102779
 30
0.0
  0
VERTEX
  5
1AC
  8
THREE_QUARTER_INCH_THRUCUT
 10
77.75343919138305
 20
1.913878360263007
 30
0.0
  0
VERTEX
  5
1AD
  8
THREE_QUARTER_INCH_THRUCUT
 10
77.74615539967094
 20
1.897085542285137
 30
0.0
  0
VERTEX
  5
1AE
  8
THREE_QUARTER_INCH_THRUCUT
 10
77.7397298071961
 20
1.880026654287118
 30
0.0
  0
VERTEX
  5
1AF
  8
THREE_QUARTER_INCH_THRUCUT
 10
77.73416239489472
 20
1.862735016386897
 30
0.0
  0
VERTEX
  5
1B0
  8
THREE_QUARTER_INCH_THRUCUT
 10
77.72945314370303
 20
1.84524394870242
 30
0.0
  0
VERTEX
  5
1B1
  8
THREE_QUARTER_INCH_THRUCUT
 10
77.72560203455723
 20
1.827586771351635
 30
0.0
  0
VERTEX
  5
1B2
  8
THREE_QUARTER_INCH_THRUCUT
 10
77.72260904839351
 20
1.809796804452489
 30
0.0
  0
VERTEX
  5
1B3
  8
THREE_QUARTER_INCH_THRUCUT
 10
77.7204741661481
 20
1.791907368122928
 30
0.0
  0
VERTEX
  5
1B4
  8
THREE_QUARTER_INCH_THRUCUT
 10
77.71919736875716
 20
1.773951782480901
 30
0.0
  0
VERTEX
  5
1B5
  8
THREE_QUARTER_INCH_THRUCUT
 10
77.71877863715696
 20
1.755963367644355
 30
0.0
  0
VERTEX
  5
1B6
  8
THREE_QUARTER_INCH_THRUCUT
 10
77.71921795228366
 20
1.737975443731236
 30
0.0
  0
VERTEX
  5
1B7
  8
THREE_QUARTER_INCH_THRUCUT
 10
77.72051529507348
 20
1.720021330859492
 30
0.0
  0
VERTEX
  5
1B8
  8
THREE_QUARTER_INCH_THRUCUT
 10
77.72267064646262
 20
1.70213434914707
 30
0.0
  0
VERTEX
  5
1B9
  8
THREE_QUARTER_INCH_THRUCUT
 10
77.72568398738728
 20
1.684347818711916
 30
0.0
  0
VERTEX
  5
1BA
  8
THREE_QUARTER_INCH_THRUCUT
 10
77.72955529878368
 20
1.666695059671979
 30
0.0
  0
VERTEX
  5
1BB
  8
THREE_QUARTER_INCH_THRUCUT
 10
77.73428456158801
 20
1.649209392145205
 30
0.0
  0
VERTEX
  5
1BC
  8
THREE_QUARTER_INCH_THRUCUT
 10
77.7398717567365
 20
1.631924136249542
 30
0.0
  0
VERTEX
  5
1BD
  8
THREE_QUARTER_INCH_THRUCUT
 10
77.74631686516534
 20
1.614872612102937
 30
0.0
  0
VERTEX
  5
1BE
  8
THREE_QUARTER_INCH_THRUCUT
 10
77.75361986781073
 20
1.598088139823336
 30
0.0
  0
VERTEX
  5
1BF
  8
THREE_QUARTER_INCH_THRUCUT
 10
77.76178074560889
 20
1.581604039528688
 30
0.0
  0
VERTEX
  5
1C0
  8
THREE_QUARTER_INCH_THRUCUT
 10
77.77079947949599
 20
1.565453631336939
 30
0.0
  0
VERTEX
  5
1C1
  8
THREE_QUARTER_INCH_THRUCUT
 10
77.78067605040829
 20
1.549670235366036
 30
0.0
  0
VERTEX
  5
1C2
  8
THREE_QUARTER_INCH_THRUCUT
 10
77.79141043928196
 20
1.534287171733926
 30
0.0
  0
VERTEX
  5
1C3
  8
THREE_QUARTER_INCH_THRUCUT
 10
77.8030026270532
 20
1.519337760558558
 30
0.0
  0
VERTEX
  5
1C4
  8
THREE_QUARTER_INCH_THRUCUT
 10
77.81545259465824
 20
1.504855321957877
 30
0.0
  0
VERTEX
  5
1C5
  8
THREE_QUARTER_INCH_THRUCUT
 10
77.82876032303326
 20
1.490873176049831
 30
0.0
  0
VERTEX
  5
1C6
  8
THREE_QUARTER_INCH_THRUCUT
 10
78.14692122870096
 20
1.17313449060822
 30
0.0
  0
VERTEX
  5
1C7
  8
THREE_QUARTER_INCH_THRUCUT
 10
78.15541593228315
 20
1.16414759435133
 30
0.0
  0
VERTEX
  5
1C8
  8
THREE_QUARTER_INCH_THRUCUT
 10
78.16342089119598
 20
1.154792443899305
 30
0.0
  0
VERTEX
  5
1C9
  8
THREE_QUARTER_INCH_THRUCUT
 10
78.1709277125576
 20
1.145089490126004
 30
0.0
  0
VERTEX
  5
1CA
  8
THREE_QUARTER_INCH_THRUCUT
 10
78.17792800348619
 20
1.135059183905287
 30
0.0
  0
VERTEX
  5
1CB
  8
THREE_QUARTER_INCH_THRUCUT
 10
78.18441337109988
 20
1.124721976111015
 30
0.0
  0
VERTEX
  5
1CC
  8
THREE_QUARTER_INCH_THRUCUT
 10
78.19037542251684
 20
1.114098317617046
 30
0.0
  0
VERTEX
  5
1CD
  8
THREE_QUARTER_INCH_THRUCUT
 10
78.19580576485524
 20
1.10320865929724
 30
0.0
  0
VERTEX
  5
1CE
  8
THREE_QUARTER_INCH_THRUCUT
 10
78.20069600523324
 20
1.092073452025457
 30
0.0
  0
VERTEX
  5
1CF
  8
THREE_QUARTER_INCH_THRUCUT
 10
78.20503775076898
 20
1.080713146675557
 30
0.0
  0
VERTEX
  5
1D0
  8
THREE_QUARTER_INCH_THRUCUT
 10
78.20882260858063
 20
1.069148194121398
 30
0.0
  0
VERTEX
  5
1D1
  8
THREE_QUARTER_INCH_THRUCUT
 10
78.21204218578634
 20
1.057399045236842
 30
0.0
  0
VERTEX
  5
1D2
  8
THREE_QUARTER_INCH_THRUCUT
 10
78.21468808950428
 20
1.045486150895747
 30
0.0
  0
VERTEX
  5
1D3
  8
THREE_QUARTER_INCH_THRUCUT
 10
78.2167519268526
 20
1.033429961971974
 30
0.0
  0
VERTEX
  5
1D4
  8
THREE_QUARTER_INCH_THRUCUT
 10
78.21822530494947
 20
1.021250929339381
 30
0.0
  0
VERTEX
  5
1D5
  8
THREE_QUARTER_INCH_THRUCUT
 10
78.21909983091302
 20
1.008969503871829
 30
0.0
  0
VERTEX
  5
1D6
  8
THREE_QUARTER_INCH_THRUCUT
 10
78.21936711186146
 20
0.9966061364431775
 30
0.0
  0
VERTEX
  5
1D7
  8
THREE_QUARTER_INCH_THRUCUT
 10
78.219379752636
 20
0.9126610595608333
 30
0.0
  0
VERTEX
  5
1D8
  8
THREE_QUARTER_INCH_THRUCUT
 10
67.72437975263071
 20
0.9126610595611175
 30
0.0
 42
-0.4142135623703808
  0
VERTEX
  5
1D9
  8
THREE_QUARTER_INCH_THRUCUT
 10
67.59437975263072
 20
1.04266105955992
 30
0.0
  0
VERTEX
  5
1DA
  8
THREE_QUARTER_INCH_THRUCUT
 10
67.59437975262978
 20
1.143403705718413
 30
0.0
 42
1.0
  0
VERTEX
  5
1DB
  8
THREE_QUARTER_INCH_THRUCUT
 10
67.3251223987846
 20
1.412661059561117
 30
0.0
  0
VERTEX
  5
1DC
  8
THREE_QUARTER_INCH_THRUCUT
 10
67.11363710647296
 20
1.412661059561088
 30
0.0
 42
1.0
  0
VERTEX
  5
1DD
  8
THREE_QUARTER_INCH_THRUCUT
 10
66.8443797526289
 20
1.143403705717248
 30
0.0
  0
VERTEX
  5
1DE
  8
THREE_QUARTER_INCH_THRUCUT
 10
66.84437975262884
 20
1.04266105956046
 30
0.0
 42
-0.4142135623729316
  0
VERTEX
  5
1DF
  8
THREE_QUARTER_INCH_THRUCUT
 10
66.71437975262884
 20
0.9126610595605775
 30
0.0
  0
VERTEX
  5
1E0
  8
THREE_QUARTER_INCH_THRUCUT
 10
45.72437975263068
 20
0.9126610595611175
 30
0.0
 42
-0.4142135623703808
  0
VERTEX
  5
1E1
  8
THREE_QUARTER_INCH_THRUCUT
 10
45.59437975263068
 20
1.04266105955992
 30
0.0
  0
VERTEX
  5
1E2
  8
THREE_QUARTER_INCH_THRUCUT
 10
45.59437975262974
 20
1.143403705718413
 30
0.0
 42
1.0
  0
VERTEX
  5
1E3
  8
THREE_QUARTER_INCH_THRUCUT
 10
45.32512239878455
 20
1.412661059561117
 30
0.0
  0
VERTEX
  5
1E4
  8
THREE_QUARTER_INCH_THRUCUT
 10
45.11363710647291
 20
1.412661059561088
 30
0.0
 42
1.0
  0
VERTEX
  5
1E5
  8
THREE_QUARTER_INCH_THRUCUT
 10
44.84437975262887
 20
1.143403705717248
 30
0.0
  0
VERTEX
  5
1E6
  8
THREE_QUARTER_INCH_THRUCUT
 10
44.84437975262879
 20
1.04266105956046
 30
0.0
 42
-0.4142135623729316
  0
VERTEX
  5
1E7
  8
THREE_QUARTER_INCH_THRUCUT
 10
44.71437975262879
 20
0.9126610595605775
 30
0.0
  0
VERTEX
  5
1E8
  8
THREE_QUARTER_INCH_THRUCUT
 10
23.72437975263068
 20
0.9126610595612028
 30
0.0
 42
-0.4142135623703808
  0
VERTEX
  5
1E9
  8
THREE_QUARTER_INCH_THRUCUT
 10
23.59437975263068
 20
1.042661059560005
 30
0.0
  0
VERTEX
  5
1EA
  8
THREE_QUARTER_INCH_THRUCUT
 10
23.59437975262971
 20
1.143403705718498
 30
0.0
 42
1.0
  0
VERTEX
  5
1EB
  8
THREE_QUARTER_INCH_THRUCUT
 10
23.32512239878451
 20
1.412661059561202
 30
0.0
  0
VERTEX
  5
1EC
  8
THREE_QUARTER_INCH_THRUCUT
 10
23.11363710647293
 20
1.412661059561173
 30
0.0
 42
1.0
  0
VERTEX
  5
1ED
  8
THREE_QUARTER_INCH_THRUCUT
 10
22.84437975262886
 20
1.143403705717333
 30
0.0
  0
VERTEX
  5
1EE
  8
THREE_QUARTER_INCH_THRUCUT
 10
22.8443797526288
 20
1.042661059560545
 30
0.0
 42
-0.4142135623729316
  0
VERTEX
  5
1EF
  8
THREE_QUARTER_INCH_THRUCUT
 10
22.71437975262875
 20
0.9126610595606628
 30
0.0
  0
SEQEND
  5
3ED
  8
THREE_QUARTER_INCH_THRUCUT
  0
POLYLINE
  5
78
  8
THREE_QUARTER_INCH_THRUCUT
 66
     1
 10
0.0
 20
0.0
 30
0.0
 70
     1
  0
VERTEX
  5
1F0
  8
THREE_QUARTER_INCH_THRUCUT
 10
66.97125360163241
 20
46.54491732416493
 30
0.0
  0
VERTEX
  5
1F1
  8
THREE_QUARTER_INCH_THRUCUT
 10
1.721253600502636
 20
46.54491732146782
 30
0.0
  0
VERTEX
  5
1F2
  8
THREE_QUARTER_INCH_THRUCUT
 10
1.721253600502621
 20
46.04491732564763
 30
0.0
  0
VERTEX
  5
1F3
  8
THREE_QUARTER_INCH_THRUCUT
 10
1.721253600501968
 20
39.86820472722449
 30
0.0
 42
-1.0
  0
VERTEX
  5
1F4
  8
THREE_QUARTER_INCH_THRUCUT
 10
1.721253600501939
 20
39.60741732564968
 30
0.0
  0
VERTEX
  5
1F5
  8
THREE_QUARTER_INCH_THRUCUT
 10
0.971253600502622
 20
39.60741732564763
 30
0.0
  0
VERTEX
  5
1F6
  8
THREE_QUARTER_INCH_THRUCUT
 10
0.971253600502622
 20
32.79491732564763
 30
0.0
  0
VERTEX
  5
1F7
  8
THREE_QUARTER_INCH_THRUCUT
 10
1.346253600501939
 20
32.79491732564968
 30
0.0
 42
-1.0
  0
VERTEX
  5
1F8
  8
THREE_QUARTER_INCH_THRUCUT
 10
1.346253600502025
 20
32.53412992407486
 30
0.0
  0
VERTEX
  5
1F9
  8
THREE_QUARTER_INCH_THRUCUT
 10
1.346253600502622
 20
30.79491732564763
 30
0.0
  0
VERTEX
  5
1FA
  8
THREE_QUARTER_INCH_THRUCUT
 10
1.72125360050201
 20
30.79491732564968
 30
0.0
 42
-1.0
  0
VERTEX
  5
1FB
  8
THREE_QUARTER_INCH_THRUCUT
 10
1.72125360050201
 20
30.53412992407486
 30
0.0
  0
VERTEX
  5
1FC
  8
THREE_QUARTER_INCH_THRUCUT
 10
1.72125360050201
 20
28.05570472721723
 30
0.0
 42
-1.0
  0
VERTEX
  5
1FD
  8
THREE_QUARTER_INCH_THRUCUT
 10
1.721253600501939
 20
27.79491732564242
 30
0.0
  0
VERTEX
  5
1FE
  8
THREE_QUARTER_INCH_THRUCUT
 10
1.346253600502622
 20
27.79491732564765
 30
0.0
  0
VERTEX
  5
1FF
  8
THREE_QUARTER_INCH_THRUCUT
 10
1.346253600502025
 20
26.05570472722451
 30
0.0
 42
-1.0
  0
VERTEX
  5
200
  8
THREE_QUARTER_INCH_THRUCUT
 10
1.346253600501939
 20
25.79491732564969
 30
0.0
  0
VERTEX
  5
201
  8
THREE_QUARTER_INCH_THRUCUT
 10
0.971253600502622
 20
25.79491732564765
 30
0.0
  0
VERTEX
  5
202
  8
THREE_QUARTER_INCH_THRUCUT
 10
0.9712536005026184
 20
18.98241732564765
 30
0.0
  0
VERTEX
  5
203
  8
THREE_QUARTER_INCH_THRUCUT
 10
1.721253600501936
 20
18.98241732564969
 30
0.0
 42
-1.0
  0
VERTEX
  5
204
  8
THREE_QUARTER_INCH_THRUCUT
 10
1.72125360050195
 20
18.72162992407488
 30
0.0
  0
VERTEX
  5
205
  8
THREE_QUARTER_INCH_THRUCUT
 10
1.721253600502618
 20
9.044917325647646
 30
0.0
  0
VERTEX
  5
206
  8
THREE_QUARTER_INCH_THRUCUT
 10
11.08546619949789
 20
9.044917325647646
 30
0.0
 42
-1.0
  0
VERTEX
  5
207
  8
THREE_QUARTER_INCH_THRUCUT
 10
11.34625360107269
 20
9.044917325647646
 30
0.0
  0
VERTEX
  5
208
  8
THREE_QUARTER_INCH_THRUCUT
 10
11.34625360106864
 20
8.544917325647646
 30
0.0
  0
VERTEX
  5
209
  8
THREE_QUARTER_INCH_THRUCUT
 10
13.34625360106864
 20
8.544917325647646
 30
0.0
  0
VERTEX
  5
20A
  8
THREE_QUARTER_INCH_THRUCUT
 10
13.34625360106541
 20
9.044917325647646
 30
0.0
 42
-1.0
  0
VERTEX
  5
20B
  8
THREE_QUARTER_INCH_THRUCUT
 10
13.60704100264022
 20
9.044917325647646
 30
0.0
  0
VERTEX
  5
20C
  8
THREE_QUARTER_INCH_THRUCUT
 10
33.08546619949062
 20
9.044917325647646
 30
0.0
 42
-1.0
  0
VERTEX
  5
20D
  8
THREE_QUARTER_INCH_THRUCUT
 10
33.34625360106541
 20
9.044917325647646
 30
0.0
  0
VERTEX
  5
20E
  8
THREE_QUARTER_INCH_THRUCUT
 10
33.34625360106864
 20
8.544917325647646
 30
0.0
  0
VERTEX
  5
20F
  8
THREE_QUARTER_INCH_THRUCUT
 10
35.34625360106864
 20
8.544917325647646
 30
0.0
  0
VERTEX
  5
210
  8
THREE_QUARTER_INCH_THRUCUT
 10
35.34625360107268
 20
9.044917325647646
 30
0.0
 42
-1.0
  0
VERTEX
  5
211
  8
THREE_QUARTER_INCH_THRUCUT
 10
35.6070410026475
 20
9.044917325647646
 30
0.0
  0
VERTEX
  5
212
  8
THREE_QUARTER_INCH_THRUCUT
 10
55.08546619949058
 20
9.044917325647646
 30
0.0
 42
-1.0
  0
VERTEX
  5
213
  8
THREE_QUARTER_INCH_THRUCUT
 10
55.3462536010654
 20
9.044917325647646
 30
0.0
  0
VERTEX
  5
214
  8
THREE_QUARTER_INCH_THRUCUT
 10
55.34625360106864
 20
8.544917325647646
 30
0.0
  0
VERTEX
  5
215
  8
THREE_QUARTER_INCH_THRUCUT
 10
57.34625360106864
 20
8.544917325647646
 30
0.0
  0
VERTEX
  5
216
  8
THREE_QUARTER_INCH_THRUCUT
 10
57.34625360107268
 20
9.044917325647646
 30
0.0
 42
-1.0
  0
VERTEX
  5
217
  8
THREE_QUARTER_INCH_THRUCUT
 10
57.60704100264749
 20
9.044917325647646
 30
0.0
  0
VERTEX
  5
218
  8
THREE_QUARTER_INCH_THRUCUT
 10
66.97125336350184
 20
9.044917325647532
 30
0.0
  0
VERTEX
  5
219
  8
THREE_QUARTER_INCH_THRUCUT
 10
66.97125470697122
 20
14.02621784437287
 30
0.0
 42
-1.0
  0
VERTEX
  5
21A
  8
THREE_QUARTER_INCH_THRUCUT
 10
67.23995638916111
 20
14.29491718484809
 30
0.0
  0
VERTEX
  5
21B
  8
THREE_QUARTER_INCH_THRUCUT
 10
67.57125284726308
 20
14.29491718484809
 30
0.0
  0
VERTEX
  5
21C
  8
THREE_QUARTER_INCH_THRUCUT
 10
67.58861784726312
 20
14.29643618484801
 30
0.0
  0
VERTEX
  5
21D
  8
THREE_QUARTER_INCH_THRUCUT
 10
67.60545584726313
 20
14.3009471848481
 30
0.0
  0
VERTEX
  5
21E
  8
THREE_QUARTER_INCH_THRUCUT
 10
67.62125284726315
 20
14.30831418484803
 30
0.0
  0
VERTEX
  5
21F
  8
THREE_QUARTER_INCH_THRUCUT
 10
67.63553184726314
 20
14.31831218484803
 30
0.0
  0
VERTEX
  5
220
  8
THREE_QUARTER_INCH_THRUCUT
 10
67.64785784726317
 20
14.33063818484806
 30
0.0
  0
VERTEX
  5
221
  8
THREE_QUARTER_INCH_THRUCUT
 10
67.65785584726316
 20
14.34491718484804
 30
0.0
  0
VERTEX
  5
222
  8
THREE_QUARTER_INCH_THRUCUT
 10
67.6652228472631
 20
14.36071518484795
 30
0.0
  0
VERTEX
  5
223
  8
THREE_QUARTER_INCH_THRUCUT
 10
67.66973384726307
 20
14.37755218484807
 30
0.0
  0
VERTEX
  5
224
  8
THREE_QUARTER_INCH_THRUCUT
 10
67.6712528472631
 20
14.394917184848
 30
0.0
  0
VERTEX
  5
225
  8
THREE_QUARTER_INCH_THRUCUT
 10
67.6712528472631
 20
15.79491668484792
 30
0.0
  0
VERTEX
  5
226
  8
THREE_QUARTER_INCH_THRUCUT
 10
67.6712528472631
 20
17.19491618484807
 30
0.0
  0
VERTEX
  5
227
  8
THREE_QUARTER_INCH_THRUCUT
 10
67.66973384726307
 20
17.212281184848
 30
0.0
  0
VERTEX
  5
228
  8
THREE_QUARTER_INCH_THRUCUT
 10
67.6652228472631
 20
17.22911818484812
 30
0.0
  0
VERTEX
  5
229
  8
THREE_QUARTER_INCH_THRUCUT
 10
67.65785584726316
 20
17.24491618484802
 30
0.0
  0
VERTEX
  5
22A
  8
THREE_QUARTER_INCH_THRUCUT
 10
67.64785784726317
 20
17.25919518484801
 30
0.0
  0
VERTEX
  5
22B
  8
THREE_QUARTER_INCH_THRUCUT
 10
67.63553184726314
 20
17.27152118484804
 30
0.0
  0
VERTEX
  5
22C
  8
THREE_QUARTER_INCH_THRUCUT
 10
67.62125284726315
 20
17.28151918484804
 30
0.0
  0
VERTEX
  5
22D
  8
THREE_QUARTER_INCH_THRUCUT
 10
67.60545584726313
 20
17.28888618484797
 30
0.0
  0
VERTEX
  5
22E
  8
THREE_QUARTER_INCH_THRUCUT
 10
67.58861784726312
 20
17.29339718484806
 30
0.0
  0
VERTEX
  5
22F
  8
THREE_QUARTER_INCH_THRUCUT
 10
67.57125284726308
 20
17.29491618484798
 30
0.0
  0
VERTEX
  5
230
  8
THREE_QUARTER_INCH_THRUCUT
 10
67.23995196780518
 20
17.29491618484798
 30
0.0
 42
-0.4142135623730996
  0
VERTEX
  5
231
  8
THREE_QUARTER_INCH_THRUCUT
 10
66.97125136910873
 20
17.29491620669359
 30
0.0
 42
-0.4142135623731151
  0
VERTEX
  5
232
  8
THREE_QUARTER_INCH_THRUCUT
 10
66.97125249629326
 20
17.56361680539015
 30
0.0
  0
VERTEX
  5
233
  8
THREE_QUARTER_INCH_THRUCUT
 10
66.97125470697122
 20
26.02621784442243
 30
0.0
 42
-1.0
  0
VERTEX
  5
234
  8
THREE_QUARTER_INCH_THRUCUT
 10
67.23995638916111
 20
26.29491718484809
 30
0.0
  0
VERTEX
  5
235
  8
THREE_QUARTER_INCH_THRUCUT
 10
67.57125284726308
 20
26.29491718484809
 30
0.0
  0
VERTEX
  5
236
  8
THREE_QUARTER_INCH_THRUCUT
 10
67.58861784726312
 20
26.29643618484801
 30
0.0
  0
VERTEX
  5
237
  8
THREE_QUARTER_INCH_THRUCUT
 10
67.60545584726313
 20
26.3009471848481
 30
0.0
  0
VERTEX
  5
238
  8
THREE_QUARTER_INCH_THRUCUT
 10
67.62125284726315
 20
26.30831418484803
 30
0.0
  0
VERTEX
  5
239
  8
THREE_QUARTER_INCH_THRUCUT
 10
67.63553184726314
 20
26.31831218484803
 30
0.0
  0
VERTEX
  5
23A
  8
THREE_QUARTER_INCH_THRUCUT
 10
67.64785784726317
 20
26.33063818484806
 30
0.0
  0
VERTEX
  5
23B
  8
THREE_QUARTER_INCH_THRUCUT
 10
67.65785584726316
 20
26.34491718484804
 30
0.0
  0
VERTEX
  5
23C
  8
THREE_QUARTER_INCH_THRUCUT
 10
67.6652228472631
 20
26.36071518484795
 30
0.0
  0
VERTEX
  5
23D
  8
THREE_QUARTER_INCH_THRUCUT
 10
67.66973384726307
 20
26.37755218484807
 30
0.0
  0
VERTEX
  5
23E
  8
THREE_QUARTER_INCH_THRUCUT
 10
67.6712528472631
 20
26.394917184848
 30
0.0
  0
VERTEX
  5
23F
  8
THREE_QUARTER_INCH_THRUCUT
 10
67.6712528472631
 20
27.79491668484792
 30
0.0
  0
VERTEX
  5
240
  8
THREE_QUARTER_INCH_THRUCUT
 10
67.6712528472631
 20
29.19491618484805
 30
0.0
  0
VERTEX
  5
241
  8
THREE_QUARTER_INCH_THRUCUT
 10
67.66973384726307
 20
29.21228118484798
 30
0.0
  0
VERTEX
  5
242
  8
THREE_QUARTER_INCH_THRUCUT
 10
67.6652228472631
 20
29.2291181848481
 30
0.0
  0
VERTEX
  5
243
  8
THREE_QUARTER_INCH_THRUCUT
 10
67.65785584726316
 20
29.24491618484801
 30
0.0
  0
VERTEX
  5
244
  8
THREE_QUARTER_INCH_THRUCUT
 10
67.64785784726317
 20
29.259195184848
 30
0.0
  0
VERTEX
  5
245
  8
THREE_QUARTER_INCH_THRUCUT
 10
67.63553184726314
 20
29.27152118484803
 30
0.0
  0
VERTEX
  5
246
  8
THREE_QUARTER_INCH_THRUCUT
 10
67.62125284726315
 20
29.28151918484802
 30
0.0
  0
VERTEX
  5
247
  8
THREE_QUARTER_INCH_THRUCUT
 10
67.60545584726313
 20
29.28888618484795
 30
0.0
  0
VERTEX
  5
248
  8
THREE_QUARTER_INCH_THRUCUT
 10
67.58861784726312
 20
29.29339718484805
 30
0.0
  0
VERTEX
  5
249
  8
THREE_QUARTER_INCH_THRUCUT
 10
67.57125284726308
 20
29.29491618484796
 30
0.0
  0
VERTEX
  5
24A
  8
THREE_QUARTER_INCH_THRUCUT
 10
67.23995196780518
 20
29.29491618484796
 30
0.0
 42
-0.4142135623730996
  0
VERTEX
  5
24B
  8
THREE_QUARTER_INCH_THRUCUT
 10
66.97125136910873
 20
29.29491620669357
 30
0.0
 42
-0.4142135623731151
  0
VERTEX
  5
24C
  8
THREE_QUARTER_INCH_THRUCUT
 10
66.97125249629326
 20
29.56361680539014
 30
0.0
  0
VERTEX
  5
24D
  8
THREE_QUARTER_INCH_THRUCUT
 10
66.97125470697122
 20
38.02621784444811
 30
0.0
 42
-1.0
  0
VERTEX
  5
24E
  8
THREE_QUARTER_INCH_THRUCUT
 10
67.23995638916111
 20
38.29491718484807
 30
0.0
  0
VERTEX
  5
24F
  8
THREE_QUARTER_INCH_THRUCUT
 10
67.57125284726308
 20
38.29491718484807
 30
0.0
  0
VERTEX
  5
250
  8
THREE_QUARTER_INCH_THRUCUT
 10
67.58861784726312
 20
38.29643618484799
 30
0.0
  0
VERTEX
  5
251
  8
THREE_QUARTER_INCH_THRUCUT
 10
67.60545584726313
 20
38.30094718484808
 30
0.0
  0
VERTEX
  5
252
  8
THREE_QUARTER_INCH_THRUCUT
 10
67.62125284726315
 20
38.30831418484802
 30
0.0
  0
VERTEX
  5
253
  8
THREE_QUARTER_INCH_THRUCUT
 10
67.63553184726314
 20
38.31831218484801
 30
0.0
  0
VERTEX
  5
254
  8
THREE_QUARTER_INCH_THRUCUT
 10
67.64785784726317
 20
38.33063818484804
 30
0.0
  0
VERTEX
  5
255
  8
THREE_QUARTER_INCH_THRUCUT
 10
67.65785584726316
 20
38.34491718484803
 30
0.0
  0
VERTEX
  5
256
  8
THREE_QUARTER_INCH_THRUCUT
 10
67.6652228472631
 20
38.36071518484793
 30
0.0
  0
VERTEX
  5
257
  8
THREE_QUARTER_INCH_THRUCUT
 10
67.66973384726307
 20
38.37755218484806
 30
0.0
  0
VERTEX
  5
258
  8
THREE_QUARTER_INCH_THRUCUT
 10
67.6712528472631
 20
38.39491718484798
 30
0.0
  0
VERTEX
  5
259
  8
THREE_QUARTER_INCH_THRUCUT
 10
67.6712528472631
 20
39.79491668484791
 30
0.0
  0
VERTEX
  5
25A
  8
THREE_QUARTER_INCH_THRUCUT
 10
67.6712528472631
 20
41.19491618484805
 30
0.0
  0
VERTEX
  5
25B
  8
THREE_QUARTER_INCH_THRUCUT
 10
67.66973384726307
 20
41.21228118484798
 30
0.0
  0
VERTEX
  5
25C
  8
THREE_QUARTER_INCH_THRUCUT
 10
67.6652228472631
 20
41.2291181848481
 30
0.0
  0
VERTEX
  5
25D
  8
THREE_QUARTER_INCH_THRUCUT
 10
67.65785584726316
 20
41.24491618484801
 30
0.0
  0
VERTEX
  5
25E
  8
THREE_QUARTER_INCH_THRUCUT
 10
67.64785784726317
 20
41.259195184848
 30
0.0
  0
VERTEX
  5
25F
  8
THREE_QUARTER_INCH_THRUCUT
 10
67.63553184726314
 20
41.27152118484803
 30
0.0
  0
VERTEX
  5
260
  8
THREE_QUARTER_INCH_THRUCUT
 10
67.62125284726315
 20
41.28151918484802
 30
0.0
  0
VERTEX
  5
261
  8
THREE_QUARTER_INCH_THRUCUT
 10
67.60545584726313
 20
41.28888618484795
 30
0.0
  0
VERTEX
  5
262
  8
THREE_QUARTER_INCH_THRUCUT
 10
67.58861784726312
 20
41.29339718484805
 30
0.0
  0
VERTEX
  5
263
  8
THREE_QUARTER_INCH_THRUCUT
 10
67.57125284726308
 20
41.29491618484796
 30
0.0
  0
VERTEX
  5
264
  8
THREE_QUARTER_INCH_THRUCUT
 10
67.23995196780518
 20
41.29491618484796
 30
0.0
 42
-0.4142135623730996
  0
VERTEX
  5
265
  8
THREE_QUARTER_INCH_THRUCUT
 10
66.97125136910873
 20
41.29491620669357
 30
0.0
 42
-0.4142135623731151
  0
VERTEX
  5
266
  8
THREE_QUARTER_INCH_THRUCUT
 10
66.97125249629326
 20
41.56361680539014
 30
0.0
  0
SEQEND
  5
3EE
  8
THREE_QUARTER_INCH_THRUCUT
  0
POLYLINE
  5
79
  8
THREE_QUARTER_INCH_THRUCUT
 66
     1
 10
0.0
 20
0.0
 30
0.0
 70
     1
  0
VERTEX
  5
267
  8
THREE_QUARTER_INCH_THRUCUT
 10
45.72125360050384
 20
28.05570472722269
 30
0.0
  0
VERTEX
  5
268
  8
THREE_QUARTER_INCH_THRUCUT
 10
45.72125360050276
 20
30.53412992407304
 30
0.0
 42
1.0
  0
VERTEX
  5
269
  8
THREE_QUARTER_INCH_THRUCUT
 10
45.72125360050265
 20
30.79491732564786
 30
0.0
  0
VERTEX
  5
26A
  8
THREE_QUARTER_INCH_THRUCUT
 10
44.97125360050396
 20
30.79491732564649
 30
0.0
 42
1.0
  0
VERTEX
  5
26B
  8
THREE_QUARTER_INCH_THRUCUT
 10
44.97125360050396
 20
30.53412992407168
 30
0.0
  0
VERTEX
  5
26C
  8
THREE_QUARTER_INCH_THRUCUT
 10
44.97125360050376
 20
28.05570472722133
 30
0.0
 42
1.0
  0
VERTEX
  5
26D
  8
THREE_QUARTER_INCH_THRUCUT
 10
44.97125360050376
 20
27.79491732564651
 30
0.0
  0
VERTEX
  5
26E
  8
THREE_QUARTER_INCH_THRUCUT
 10
45.72125360050396
 20
27.79491732564787
 30
0.0
 42
1.0
  0
SEQEND
  5
3EF
  8
THREE_QUARTER_INCH_THRUCUT
  0
POLYLINE
  5
7A
  8
THREE_QUARTER_INCH_THRUCUT
 66
     1
 10
0.0
 20
0.0
 30
0.0
 70
     1
  0
VERTEX
  5
26F
  8
THREE_QUARTER_INCH_THRUCUT
 10
22.97125360049728
 20
30.5341299240694
 30
0.0
  0
VERTEX
  5
270
  8
THREE_QUARTER_INCH_THRUCUT
 10
22.9712536005086
 20
28.05570472722633
 30
0.0
 42
1.0
  0
VERTEX
  5
271
  8
THREE_QUARTER_INCH_THRUCUT
 10
22.97125360050979
 20
27.79491732565151
 30
0.0
  0
VERTEX
  5
272
  8
THREE_QUARTER_INCH_THRUCUT
 10
23.72125360050396
 20
27.79491732564787
 30
0.0
 42
1.0
  0
VERTEX
  5
273
  8
THREE_QUARTER_INCH_THRUCUT
 10
23.72125360050385
 20
28.05570472722269
 30
0.0
  0
VERTEX
  5
274
  8
THREE_QUARTER_INCH_THRUCUT
 10
23.72125360050277
 20
30.53412992407304
 30
0.0
 42
1.0
  0
VERTEX
  5
275
  8
THREE_QUARTER_INCH_THRUCUT
 10
23.72125360050266
 20
30.79491732564786
 30
0.0
  0
VERTEX
  5
276
  8
THREE_QUARTER_INCH_THRUCUT
 10
22.97125360049669
 20
30.79491732564422
 30
0.0
 42
1.0
  0
SEQEND
  5
3F0
  8
THREE_QUARTER_INCH_THRUCUT
  0
POLYLINE
  5
7C
  8
LABELS
 66
     1
 10
0.0
 20
0.0
 30
0.0
  0
VERTEX
  5
277
  8
LABELS
 10
6.487482118700678
 20
14.79174526315059
 30
0.0
  0
VERTEX
  5
278
  8
LABELS
 10
6.452011085649355
 20
14.80070274158393
 30
0.0
  0
VERTEX
  5
279
  8
LABELS
 10
6.416876029579093
 20
14.81005905725812
 30
0.0
  0
VERTEX
  5
27A
  8
LABELS
 10
6.382084074542348
 20
14.81980969785642
 30
0.0
  0
VERTEX
  5
27B
  8
LABELS
 10
6.347642344591572
 20
14.82995015106212
 30
0.0
  0
VERTEX
  5
27C
  8
LABELS
 10
6.313557963779221
 20
14.84047590455848
 30
0.0
  0
VERTEX
  5
27D
  8
LABELS
 10
6.279838056157748
 20
14.8513824460288
 30
0.0
  0
VERTEX
  5
27E
  8
LABELS
 10
6.246489745779609
 20
14.86266526315634
 30
0.0
  0
VERTEX
  5
27F
  8
LABELS
 10
6.213520156697259
 20
14.87431984362439
 30
0.0
  0
VERTEX
  5
280
  8
LABELS
 10
6.180936412963151
 20
14.88634167511621
 30
0.0
  0
VERTEX
  5
281
  8
LABELS
 10
6.14874563862974
 20
14.8987262453151
 30
0.0
  0
VERTEX
  5
282
  8
LABELS
 10
6.116954957749481
 20
14.91146904190432
 30
0.0
  0
VERTEX
  5
283
  8
LABELS
 10
6.085571494374828
 20
14.92456555256715
 30
0.0
  0
VERTEX
  5
284
  8
LABELS
 10
6.054602372558236
 20
14.93801126498687
 30
0.0
  0
VERTEX
  5
285
  8
LABELS
 10
6.024054716352159
 20
14.95180166684676
 30
0.0
  0
VERTEX
  5
286
  8
LABELS
 10
5.993935649809052
 20
14.9659322458301
 30
0.0
  0
VERTEX
  5
287
  8
LABELS
 10
5.964252296981369
 20
14.98039848962015
 30
0.0
  0
VERTEX
  5
288
  8
LABELS
 10
5.935011781921566
 20
14.99519588590021
 30
0.0
  0
VERTEX
  5
289
  8
LABELS
 10
5.906221228682096
 20
15.01031992235354
 30
0.0
  0
VERTEX
  5
28A
  8
LABELS
 10
5.877887761315413
 20
15.02576608666343
 30
0.0
  0
VERTEX
  5
28B
  8
LABELS
 10
5.850018503873973
 20
15.04152986651315
 30
0.0
  0
VERTEX
  5
28C
  8
LABELS
 10
5.822620580410231
 20
15.05760674958598
 30
0.0
  0
VERTEX
  5
28D
  8
LABELS
 10
5.79570111497664
 20
15.07399222356519
 30
0.0
  0
VERTEX
  5
28E
  8
LABELS
 10
5.769267231625655
 20
15.09068177613406
 30
0.0
  0
VERTEX
  5
28F
  8
LABELS
 10
5.743326054409732
 20
15.10767089497588
 30
0.0
  0
VERTEX
  5
290
  8
LABELS
 10
5.717884707381323
 20
15.12495506777392
 30
0.0
  0
VERTEX
  5
291
  8
LABELS
 10
5.692950314592884
 20
15.14252978221145
 30
0.0
  0
VERTEX
  5
292
  8
LABELS
 10
5.668530000096869
 20
15.16039052597176
 30
0.0
  0
VERTEX
  5
293
  8
LABELS
 10
5.644630887945733
 20
15.17853278673811
 30
0.0
  0
VERTEX
  5
294
  8
LABELS
 10
5.621260102191931
 20
15.19695205219379
 30
0.0
  0
VERTEX
  5
295
  8
LABELS
 10
5.598424766887916
 20
15.21564381002208
 30
0.0
  0
VERTEX
  5
296
  8
LABELS
 10
5.576132006086144
 20
15.23460354790625
 30
0.0
  0
VERTEX
  5
297
  8
LABELS
 10
5.55438894383907
 20
15.25382675352957
 30
0.0
  0
VERTEX
  5
298
  8
LABELS
 10
5.533202704199147
 20
15.27330891457534
 30
0.0
  0
VERTEX
  5
299
  8
LABELS
 10
5.512580411218829
 20
15.29304551872682
 30
0.0
  0
VERTEX
  5
29A
  8
LABELS
 10
5.492529188950574
 20
15.31303205366729
 30
0.0
  0
VERTEX
  5
29B
  8
LABELS
 10
5.473056161446832
 20
15.33326400708003
 30
0.0
  0
VERTEX
  5
29C
  8
LABELS
 10
5.454168452760061
 20
15.35373686664831
 30
0.0
  0
VERTEX
  5
29D
  8
LABELS
 10
5.435873186942713
 20
15.37444612005542
 30
0.0
  0
VERTEX
  5
29E
  8
LABELS
 10
5.418177488047244
 20
15.39538725498463
 30
0.0
  0
VERTEX
  5
29F
  8
LABELS
 10
5.40108848012611
 20
15.41655575911922
 30
0.0
  0
VERTEX
  5
2A0
  8
LABELS
 10
5.384613287231764
 20
15.43794712014247
 30
0.0
  0
VERTEX
  5
2A1
  8
LABELS
 10
5.368759033416659
 20
15.45955682573764
 30
0.0
  0
VERTEX
  5
2A2
  8
LABELS
 10
5.353532842733251
 20
15.48138036358803
 30
0.0
  0
VERTEX
  5
2A3
  8
LABELS
 10
5.338941839233994
 20
15.50341322137691
 30
0.0
  0
VERTEX
  5
2A4
  8
LABELS
 10
5.324993146971345
 20
15.52565088678755
 30
0.0
  0
VERTEX
  5
2A5
  8
LABELS
 10
5.311693889997755
 20
15.54808884750323
 30
0.0
  0
VERTEX
  5
2A6
  8
LABELS
 10
5.299051192365681
 20
15.57072259120723
 30
0.0
  0
VERTEX
  5
2A7
  8
LABELS
 10
5.287072178127575
 20
15.59354760558283
 30
0.0
  0
VERTEX
  5
2A8
  8
LABELS
 10
5.275763971335896
 20
15.61655937831331
 30
0.0
  0
VERTEX
  5
2A9
  8
LABELS
 10
5.265133696043094
 20
15.63975339708193
 30
0.0
  0
VERTEX
  5
2AA
  8
LABELS
 10
5.255188476301624
 20
15.66312514957199
 30
0.0
  0
VERTEX
  5
2AB
  8
LABELS
 10
5.245935436163944
 20
15.68667012346675
 30
0.0
  0
VERTEX
  5
2AC
  8
LABELS
 10
5.237381699682507
 20
15.71038380644949
 30
0.0
  0
VERTEX
  5
2AD
  8
LABELS
 10
5.229534390909764
 20
15.7342616862035
 30
0.0
  0
VERTEX
  5
2AE
  8
LABELS
 10
5.222400633898174
 20
15.75829925041204
 30
0.0
  0
VERTEX
  5
2AF
  8
LABELS
 10
5.21598755270019
 20
15.7824919867584
 30
0.0
  0
VERTEX
  5
2B0
  8
LABELS
 10
5.210302271368267
 20
15.80683538292585
 30
0.0
  0
VERTEX
  5
2B1
  8
LABELS
 10
5.205351913954858
 20
15.83132492659768
 30
0.0
  0
VERTEX
  5
2B2
  8
LABELS
 10
5.201143604512419
 20
15.85595610545715
 30
0.0
  0
VERTEX
  5
2B3
  8
LABELS
 10
5.197684467093405
 20
15.88072440718754
 30
0.0
  0
VERTEX
  5
2B4
  8
LABELS
 10
5.194981625750268
 20
15.90562531947214
 30
0.0
  0
VERTEX
  5
2B5
  8
LABELS
 10
5.193042204535466
 20
15.93065432999422
 30
0.0
  0
VERTEX
  5
2B6
  8
LABELS
 10
5.191873327501451
 20
15.95580692643705
 30
0.0
  0
VERTEX
  5
2B7
  8
LABELS
 10
5.191482118700678
 20
15.98107859648392
 30
0.0
  0
VERTEX
  5
2B8
  8
LABELS
 10
5.191649676816219
 20
15.99969039913518
 30
0.0
  0
VERTEX
  5
2B9
  8
LABELS
 10
5.192151010749757
 20
16.01824564399742
 30
0.0
  0
VERTEX
  5
2BA
  8
LABELS
 10
5.192984109881656
 20
16.03674291735372
 30
0.0
  0
VERTEX
  5
2BB
  8
LABELS
 10
5.194146963592287
 20
16.05518080548714
 30
0.0
  0
VERTEX
  5
2BC
  8
LABELS
 10
5.195637561262016
 20
16.07355789468077
 30
0.0
  0
VERTEX
  5
2BD
  8
LABELS
 10
5.197453892271215
 20
16.09187277121766
 30
0.0
  0
VERTEX
  5
2BE
  8
LABELS
 10
5.199593946000249
 20
16.11012402138089
 30
0.0
  0
VERTEX
  5
2BF
  8
LABELS
 10
5.202055711829486
 20
16.12831023145354
 30
0.0
  0
VERTEX
  5
2C0
  8
LABELS
 10
5.204837179139295
 20
16.14642998771866
 30
0.0
  0
VERTEX
  5
2C1
  8
LABELS
 10
5.207936337310043
 20
16.16448187645935
 30
0.0
  0
VERTEX
  5
2C2
  8
LABELS
 10
5.2113511757221
 20
16.18246448395866
 30
0.0
  0
VERTEX
  5
2C3
  8
LABELS
 10
5.215079683755834
 20
16.20037639649966
 30
0.0
  0
VERTEX
  5
2C4
  8
LABELS
 10
5.219119850791611
 20
16.21821620036544
 30
0.0
  0
VERTEX
  5
2C5
  8
LABELS
 10
5.223469666209802
 20
16.23598248183906
 30
0.0
  0
VERTEX
  5
2C6
  8
LABELS
 10
5.228127119390772
 20
16.25367382720358
 30
0.0
  0
VERTEX
  5
2C7
  8
LABELS
 10
5.233090199714891
 20
16.27128882274209
 30
0.0
  0
VERTEX
  5
2C8
  8
LABELS
 10
5.238356896562527
 20
16.28882605473766
 30
0.0
  0
VERTEX
  5
2C9
  8
LABELS
 10
5.243925199314047
 20
16.30628410947335
 30
0.0
  0
VERTEX
  5
2CA
  8
LABELS
 10
5.249793097349821
 20
16.32366157323224
 30
0.0
  0
VERTEX
  5
2CB
  8
LABELS
 10
5.255958580050217
 20
16.34095703229739
 30
0.0
  0
VERTEX
  5
2CC
  8
LABELS
 10
5.262419636795602
 20
16.35816907295188
 30
0.0
  0
VERTEX
  5
2CD
  8
LABELS
 10
5.269174256966343
 20
16.37529628147879
 30
0.0
  0
VERTEX
  5
2CE
  8
LABELS
 10
5.276220429942811
 20
16.39233724416118
 30
0.0
  0
VERTEX
  5
2CF
  8
LABELS
 10
5.283556145105372
 20
16.40929054728212
 30
0.0
  0
VERTEX
  5
2D0
  8
LABELS
 10
5.299088159510248
 20
16.44292851997195
 30
0.0
  0
VERTEX
  5
2D1
  8
LABELS
 10
5.315754215223915
 20
16.47619888981285
 30
0.0
  0
VERTEX
  5
2D2
  8
LABELS
 10
5.333538227289321
 20
16.50909034706939
 30
0.0
  0
VERTEX
  5
2D3
  8
LABELS
 10
5.352424110749407
 20
16.54159158200613
 30
0.0
  0
VERTEX
  5
2D4
  8
LABELS
 10
5.37239578064712
 20
16.57369128488767
 30
0.0
  0
VERTEX
  5
2D5
  8
LABELS
 10
5.393437152025406
 20
16.60537814597855
 30
0.0
  0
VERTEX
  5
2D6
  8
LABELS
 10
5.415532139927208
 20
16.63664085554336
 30
0.0
  0
VERTEX
  5
2D7
  8
LABELS
 10
5.438664659395473
 20
16.66746810384666
 30
0.0
  0
VERTEX
  5
2D8
  8
LABELS
 10
5.462818625473142
 20
16.69784858115303
 30
0.0
  0
VERTEX
  5
2D9
  8
LABELS
 10
5.487977953203165
 20
16.72777097772703
 30
0.0
  0
VERTEX
  5
2DA
  8
LABELS
 10
5.514126557628485
 20
16.75722398383324
 30
0.0
  0
VERTEX
  5
2DB
  8
LABELS
 10
5.541248353792046
 20
16.78619628973623
 30
0.0
  0
VERTEX
  5
2DC
  8
LABELS
 10
5.569327256736793
 20
16.81467658570056
 30
0.0
  0
VERTEX
  5
2DD
  8
LABELS
 10
5.598347181505671
 20
16.84265356199082
 30
0.0
  0
VERTEX
  5
2DE
  8
LABELS
 10
5.628292043141626
 20
16.87011590887155
 30
0.0
  0
VERTEX
  5
2DF
  8
LABELS
 10
5.659145756687603
 20
16.89705231660735
 30
0.0
  0
VERTEX
  5
2E0
  8
LABELS
 10
5.690892237186546
 20
16.92345147546278
 30
0.0
  0
VERTEX
  5
2E1
  8
LABELS
 10
5.7235153996814
 20
16.94930207570241
 30
0.0
  0
VERTEX
  5
2E2
  8
LABELS
 10
5.756999159215112
 20
16.97459280759081
 30
0.0
  0
VERTEX
  5
2E3
  8
LABELS
 10
5.791327430830624
 20
16.99931236139255
 30
0.0
  0
VERTEX
  5
2E4
  8
LABELS
 10
5.826484129570881
 20
17.02344942737221
 30
0.0
  0
VERTEX
  5
2E5
  8
LABELS
 10
5.862453170478831
 20
17.04699269579435
 30
0.0
  0
VERTEX
  5
2E6
  8
LABELS
 10
5.899218468597416
 20
17.06993085692355
 30
0.0
  0
VERTEX
  5
2E7
  8
LABELS
 10
5.936763938969583
 20
17.09225260102437
 30
0.0
  0
VERTEX
  5
2E8
  8
LABELS
 10
5.975073496638275
 20
17.11394661836138
 30
0.0
  0
VERTEX
  5
2E9
  8
LABELS
 10
6.014131056646439
 20
17.13500159919916
 30
0.0
  0
VERTEX
  5
2EA
  8
LABELS
 10
6.053920534037018
 20
17.15540623380228
 30
0.0
  0
VERTEX
  5
2EB
  8
LABELS
 10
6.094425843852958
 20
17.1751492124353
 30
0.0
  0
VERTEX
  5
2EC
  8
LABELS
 10
6.135630901137204
 20
17.19421922536281
 30
0.0
  0
VERTEX
  5
2ED
  8
LABELS
 10
6.177519620932701
 20
17.21260496284936
 30
0.0
  0
VERTEX
  5
2EE
  8
LABELS
 10
6.220075918282394
 20
17.23029511515954
 30
0.0
  0
VERTEX
  5
2EF
  8
LABELS
 10
6.263283708229228
 20
17.24727837255789
 30
0.0
  0
VERTEX
  5
2F0
  8
LABELS
 10
6.307126905816147
 20
17.26354342530902
 30
0.0
  0
VERTEX
  5
2F1
  8
LABELS
 10
6.351589426086096
 20
17.27907896367747
 30
0.0
  0
VERTEX
  5
2F2
  8
LABELS
 10
6.396655184082022
 20
17.29387367792783
 30
0.0
  0
VERTEX
  5
2F3
  8
LABELS
 10
6.442308094846867
 20
17.30791625832466
 30
0.0
  0
VERTEX
  5
2F4
  8
LABELS
 10
6.488532073423578
 20
17.32119539513253
 30
0.0
  0
VERTEX
  5
2F5
  8
LABELS
 10
6.5353110348551
 20
17.33369977861602
 30
0.0
  0
VERTEX
  5
2F6
  8
LABELS
 10
6.582628894184378
 20
17.3454180990397
 30
0.0
  0
VERTEX
  5
2F7
  8
LABELS
 10
6.630469566454355
 20
17.35633904666813
 30
0.0
  0
VERTEX
  5
2F8
  8
LABELS
 10
6.678816966707978
 20
17.36645131176588
 30
0.0
  0
VERTEX
  5
2F9
  8
LABELS
 10
6.727655009988191
 20
17.37574358459753
 30
0.0
  0
VERTEX
  5
2FA
  8
LABELS
 10
6.776967611337939
 20
17.38420455542765
 30
0.0
  0
VERTEX
  5
2FB
  8
LABELS
 10
6.826738685800168
 20
17.39182291452081
 30
0.0
  0
VERTEX
  5
2FC
  8
LABELS
 10
6.876952148417822
 20
17.39858735214157
 30
0.0
  0
VERTEX
  5
2FD
  8
LABELS
 10
6.927591914233846
 20
17.40448655855452
 30
0.0
  0
VERTEX
  5
2FE
  8
LABELS
 10
6.978641898291185
 20
17.40950922402421
 30
0.0
  0
VERTEX
  5
2FF
  8
LABELS
 10
7.030086015632785
 20
17.41364403881523
 30
0.0
  0
VERTEX
  5
300
  8
LABELS
 10
7.081908181301587
 20
17.41687969319214
 30
0.0
  0
VERTEX
  5
301
  8
LABELS
 10
7.134092310340542
 20
17.41920487741951
 30
0.0
  0
VERTEX
  5
302
  8
LABELS
 10
7.18662231779259
 20
17.42060828176191
 30
0.0
  0
VERTEX
  5
303
  8
LABELS
 10
7.239482118700679
 20
17.42107859648392
 30
0.0
  0
VERTEX
  5
304
  8
LABELS
 10
7.292341919608768
 20
17.42060828176191
 30
0.0
  0
VERTEX
  5
305
  8
LABELS
 10
7.344871927060817
 20
17.41920487741951
 30
0.0
  0
VERTEX
  5
306
  8
LABELS
 10
7.397056056099771
 20
17.41687969319214
 30
0.0
  0
VERTEX
  5
307
  8
LABELS
 10
7.448878221768574
 20
17.41364403881523
 30
0.0
  0
VERTEX
  5
308
  8
LABELS
 10
7.500322339110173
 20
17.40950922402421
 30
0.0
  0
VERTEX
  5
309
  8
LABELS
 10
7.551372323167512
 20
17.40448655855452
 30
0.0
  0
VERTEX
  5
30A
  8
LABELS
 10
7.602012088983535
 20
17.39858735214157
 30
0.0
  0
VERTEX
  5
30B
  8
LABELS
 10
7.652225551601189
 20
17.39182291452081
 30
0.0
  0
VERTEX
  5
30C
  8
LABELS
 10
7.701996626063417
 20
17.38420455542765
 30
0.0
  0
VERTEX
  5
30D
  8
LABELS
 10
7.751309227413166
 20
17.37574358459753
 30
0.0
  0
VERTEX
  5
30E
  8
LABELS
 10
7.800147270693379
 20
17.36645131176588
 30
0.0
  0
VERTEX
  5
30F
  8
LABELS
 10
7.848494670947002
 20
17.35633904666813
 30
0.0
  0
VERTEX
  5
310
  8
LABELS
 10
7.896335343216979
 20
17.3454180990397
 30
0.0
  0
VERTEX
  5
311
  8
LABELS
 10
7.943653202546256
 20
17.33369977861602
 30
0.0
  0
VERTEX
  5
312
  8
LABELS
 10
7.990432163977777
 20
17.32119539513253
 30
0.0
  0
VERTEX
  5
313
  8
LABELS
 10
8.036656142554488
 20
17.30791625832466
 30
0.0
  0
VERTEX
  5
314
  8
LABELS
 10
8.082309053319335
 20
17.29387367792783
 30
0.0
  0
VERTEX
  5
315
  8
LABELS
 10
8.12737481131526
 20
17.27907896367747
 30
0.0
  0
VERTEX
  5
316
  8
LABELS
 10
8.171837331585209
 20
17.26354342530902
 30
0.0
  0
VERTEX
  5
317
  8
LABELS
 10
8.215680529172127
 20
17.24727837255789
 30
0.0
  0
VERTEX
  5
318
  8
LABELS
 10
8.25888831911896
 20
17.23029511515954
 30
0.0
  0
VERTEX
  5
319
  8
LABELS
 10
8.301444616468654
 20
17.21260496284936
 30
0.0
  0
VERTEX
  5
31A
  8
LABELS
 10
8.343333336264152
 20
17.19421922536281
 30
0.0
  0
VERTEX
  5
31B
  8
LABELS
 10
8.384538393548397
 20
17.1751492124353
 30
0.0
  0
VERTEX
  5
31C
  8
LABELS
 10
8.425043703364338
 20
17.15540623380228
 30
0.0
  0
VERTEX
  5
31D
  8
LABELS
 10
8.464833180754917
 20
17.13500159919916
 30
0.0
  0
VERTEX
  5
31E
  8
LABELS
 10
8.50389074076308
 20
17.11394661836138
 30
0.0
  0
VERTEX
  5
31F
  8
LABELS
 10
8.542200298431773
 20
17.09225260102436
 30
0.0
  0
VERTEX
  5
320
  8
LABELS
 10
8.579745768803939
 20
17.06993085692354
 30
0.0
  0
VERTEX
  5
321
  8
LABELS
 10
8.616511066922524
 20
17.04699269579435
 30
0.0
  0
VERTEX
  5
322
  8
LABELS
 10
8.652480107830474
 20
17.02344942737221
 30
0.0
  0
VERTEX
  5
323
  8
LABELS
 10
8.687636806570731
 20
16.99931236139255
 30
0.0
  0
VERTEX
  5
324
  8
LABELS
 10
8.721965078186244
 20
16.97459280759081
 30
0.0
  0
VERTEX
  5
325
  8
LABELS
 10
8.755448837719953
 20
16.94930207570241
 30
0.0
  0
VERTEX
  5
326
  8
LABELS
 10
8.78807200021481
 20
16.92345147546278
 30
0.0
  0
VERTEX
  5
327
  8
LABELS
 10
8.819818480713753
 20
16.89705231660735
 30
0.0
  0
VERTEX
  5
328
  8
LABELS
 10
8.85067219425973
 20
16.87011590887155
 30
0.0
  0
VERTEX
  5
329
  8
LABELS
 10
8.880617055895684
 20
16.84265356199081
 30
0.0
  0
VERTEX
  5
32A
  8
LABELS
 10
8.909636980664562
 20
16.81467658570056
 30
0.0
  0
VERTEX
  5
32B
  8
LABELS
 10
8.937715883609311
 20
16.78619628973622
 30
0.0
  0
VERTEX
  5
32C
  8
LABELS
 10
8.96483767977287
 20
16.75722398383324
 30
0.0
  0
VERTEX
  5
32D
  8
LABELS
 10
8.99098628419819
 20
16.72777097772703
 30
0.0
  0
VERTEX
  5
32E
  8
LABELS
 10
9.016145611928213
 20
16.69784858115303
 30
0.0
  0
VERTEX
  5
32F
  8
LABELS
 10
9.040299578005884
 20
16.66746810384666
 30
0.0
  0
VERTEX
  5
330
  8
LABELS
 10
9.063432097474148
 20
16.63664085554336
 30
0.0
  0
VERTEX
  5
331
  8
LABELS
 10
9.08552708537595
 20
16.60537814597855
 30
0.0
  0
VERTEX
  5
332
  8
LABELS
 10
9.106568456754236
 20
16.57369128488767
 30
0.0
  0
VERTEX
  5
333
  8
LABELS
 10
9.12654012665195
 20
16.54159158200613
 30
0.0
  0
VERTEX
  5
334
  8
LABELS
 10
9.145426010112036
 20
16.50909034706938
 30
0.0
  0
VERTEX
  5
335
  8
LABELS
 10
9.163210022177442
 20
16.47619888981284
 30
0.0
  0
VERTEX
  5
336
  8
LABELS
 10
9.179876077891109
 20
16.44292851997194
 30
0.0
  0
VERTEX
  5
337
  8
LABELS
 10
9.195408092295985
 20
16.40929054728212
 30
0.0
  0
VERTEX
  5
338
  8
LABELS
 10
9.202743807458546
 20
16.39233724416118
 30
0.0
  0
VERTEX
  5
339
  8
LABELS
 10
9.209789980435014
 20
16.37529628147879
 30
0.0
  0
VERTEX
  5
33A
  8
LABELS
 10
9.216544600605754
 20
16.35816907295188
 30
0.0
  0
VERTEX
  5
33B
  8
LABELS
 10
9.22300565735114
 20
16.34095703229739
 30
0.0
  0
VERTEX
  5
33C
  8
LABELS
 10
9.229171140051534
 20
16.32366157323224
 30
0.0
  0
VERTEX
  5
33D
  8
LABELS
 10
9.235039038087308
 20
16.30628410947335
 30
0.0
  0
VERTEX
  5
33E
  8
LABELS
 10
9.24060734083883
 20
16.28882605473766
 30
0.0
  0
VERTEX
  5
33F
  8
LABELS
 10
9.245874037686466
 20
16.27128882274209
 30
0.0
  0
VERTEX
  5
340
  8
LABELS
 10
9.250837118010585
 20
16.25367382720358
 30
0.0
  0
VERTEX
  5
341
  8
LABELS
 10
9.255494571191555
 20
16.23598248183906
 30
0.0
  0
VERTEX
  5
342
  8
LABELS
 10
9.259844386609743
 20
16.21821620036544
 30
0.0
  0
VERTEX
  5
343
  8
LABELS
 10
9.263884553645521
 20
16.20037639649966
 30
0.0
  0
VERTEX
  5
344
  8
LABELS
 10
9.267613061679254
 20
16.18246448395866
 30
0.0
  0
VERTEX
  5
345
  8
LABELS
 10
9.271027900091312
 20
16.16448187645935
 30
0.0
  0
VERTEX
  5
346
  8
LABELS
 10
9.27412705826206
 20
16.14642998771866
 30
0.0
  0
VERTEX
  5
347
  8
LABELS
 10
9.27690852557187
 20
16.12831023145354
 30
0.0
  0
VERTEX
  5
348
  8
LABELS
 10
9.279370291401108
 20
16.11012402138089
 30
0.0
  0
VERTEX
  5
349
  8
LABELS
 10
9.28151034513014
 20
16.09187277121766
 30
0.0
  0
VERTEX
  5
34A
  8
LABELS
 10
9.283326676139339
 20
16.07355789468077
 30
0.0
  0
VERTEX
  5
34B
  8
LABELS
 10
9.28481727380907
 20
16.05518080548714
 30
0.0
  0
VERTEX
  5
34C
  8
LABELS
 10
9.2859801275197
 20
16.03674291735372
 30
0.0
  0
VERTEX
  5
34D
  8
LABELS
 10
9.2868132266516
 20
16.01824564399742
 30
0.0
  0
VERTEX
  5
34E
  8
LABELS
 10
9.287314560585138
 20
15.99969039913518
 30
0.0
  0
VERTEX
  5
34F
  8
LABELS
 10
9.287482118700678
 20
15.98107859648392
 30
0.0
  0
VERTEX
  5
350
  8
LABELS
 10
9.287128286545641
 20
15.9564424007928
 30
0.0
  0
VERTEX
  5
351
  8
LABELS
 10
9.286070902439583
 20
15.93191636519424
 30
0.0
  0
VERTEX
  5
352
  8
LABELS
 10
9.284316134921077
 20
15.90750445715283
 30
0.0
  0
VERTEX
  5
353
  8
LABELS
 10
9.281870152528699
 20
15.88321064413315
 30
0.0
  0
VERTEX
  5
354
  8
LABELS
 10
9.27873912380102
 20
15.85903889359978
 30
0.0
  0
VERTEX
  5
355
  8
LABELS
 10
9.274929217276622
 20
15.8349931730173
 30
0.0
  0
VERTEX
  5
356
  8
LABELS
 10
9.270446601494072
 20
15.81107744985029
 30
0.0
  0
VERTEX
  5
357
  8
LABELS
 10
9.265297444991951
 20
15.78729569156333
 30
0.0
  0
VERTEX
  5
358
  8
LABELS
 10
9.259487916308832
 20
15.763651865621
 30
0.0
  0
VERTEX
  5
359
  8
LABELS
 10
9.253024183983289
 20
15.74014993948789
 30
0.0
  0
VERTEX
  5
35A
  8
LABELS
 10
9.245912416553896
 20
15.71679388062857
 30
0.0
  0
VERTEX
  5
35B
  8
LABELS
 10
9.238158782559232
 20
15.69358765650762
 30
0.0
  0
VERTEX
  5
35C
  8
LABELS
 10
9.22976945053787
 20
15.67053523458963
 30
0.0
  0
VERTEX
  5
35D
  8
LABELS
 10
9.22075058902838
 20
15.64764058233916
 30
0.0
  0
VERTEX
  5
35E
  8
LABELS
 10
9.211108366569343
 20
15.62490766722082
 30
0.0
  0
VERTEX
  5
35F
  8
LABELS
 10
9.200848951699333
 20
15.60234045669917
 30
0.0
  0
VERTEX
  5
360
  8
LABELS
 10
9.189978512956925
 20
15.57994291823879
 30
0.0
  0
VERTEX
  5
361
  8
LABELS
 10
9.178503218880689
 20
15.55771901930427
 30
0.0
  0
VERTEX
  5
362
  8
LABELS
 10
9.166429238009204
 20
15.53567272736019
 30
0.0
  0
VERTEX
  5
363
  8
LABELS
 10
9.153762738881044
 20
15.51380800987113
 30
0.0
  0
VERTEX
  5
364
  8
LABELS
 10
9.140509890034783
 20
15.49212883430166
 30
0.0
  0
VERTEX
  5
365
  8
LABELS
 10
9.126676860008999
 20
15.47063916811637
 30
0.0
  0
VERTEX
  5
366
  8
LABELS
 10
9.112269817342264
 20
15.44934297877983
 30
0.0
  0
VERTEX
  5
367
  8
LABELS
 10
9.097294930573156
 20
15.42824423375664
 30
0.0
  0
VERTEX
  5
368
  8
LABELS
 10
9.081758368240244
 20
15.40734690051137
 30
0.0
  0
VERTEX
  5
369
  8
LABELS
 10
9.06566629888211
 20
15.38665494650859
 30
0.0
  0
VERTEX
  5
36A
  8
LABELS
 10
9.049024891037325
 20
15.3661723392129
 30
0.0
  0
VERTEX
  5
36B
  8
LABELS
 10
9.031840313244464
 20
15.34590304608886
 30
0.0
  0
VERTEX
  5
36C
  8
LABELS
 10
9.0141187340421
 20
15.32585103460107
 30
0.0
  0
VERTEX
  5
36D
  8
LABELS
 10
8.995866321968814
 20
15.3060202722141
 30
0.0
  0
VERTEX
  5
36E
  8
LABELS
 10
8.977089245563175
 20
15.28641472639253
 30
0.0
  0
VERTEX
  5
36F
  8
LABELS
 10
8.95779367336376
 20
15.26703836460095
 30
0.0
  0
VERTEX
  5
370
  8
LABELS
 10
8.937985773909144
 20
15.24789515430393
 30
0.0
  0
VERTEX
  5
371
  8
LABELS
 10
8.9176717157379
 20
15.22898906296605
 30
0.0
  0
VERTEX
  5
372
  8
LABELS
 10
8.896857667388606
 20
15.2103240580519
 30
0.0
  0
VERTEX
  5
373
  8
LABELS
 10
8.875549797399835
 20
15.19190410702604
 30
0.0
  0
VERTEX
  5
374
  8
LABELS
 10
8.853754274310162
 20
15.17373317735308
 30
0.0
  0
VERTEX
  5
375
  8
LABELS
 10
8.83147726665816
 20
15.15581523649758
 30
0.0
  0
VERTEX
  5
376
  8
LABELS
 10
8.808724942982408
 20
15.13815425192412
 30
0.0
  0
VERTEX
  5
377
  8
LABELS
 10
8.785503471821478
 20
15.1207541910973
 30
0.0
  0
VERTEX
  5
378
  8
LABELS
 10
8.761819021713947
 20
15.10361902148168
 30
0.0
  0
VERTEX
  5
379
  8
LABELS
 10
8.737677761198388
 20
15.08675271054184
 30
0.0
  0
VERTEX
  5
37A
  8
LABELS
 10
8.713085858813374
 20
15.07015922574238
 30
0.0
  0
VERTEX
  5
37B
  8
LABELS
 10
8.688049483097483
 20
15.05384253454786
 30
0.0
  0
VERTEX
  5
37C
  8
LABELS
 10
8.66257480258929
 20
15.03780660442287
 30
0.0
  0
VERTEX
  5
37D
  8
LABELS
 10
8.636667985827371
 20
15.02205540283199
 30
0.0
  0
VERTEX
  5
37E
  8
LABELS
 10
8.610335201350296
 20
15.0065928972398
 30
0.0
  0
VERTEX
  5
37F
  8
LABELS
 10
8.583582617696646
 20
14.99142305511088
 30
0.0
  0
VERTEX
  5
380
  8
LABELS
 10
8.556416403404992
 20
14.97654984390982
 30
0.0
  0
VERTEX
  5
381
  8
LABELS
 10
8.528842727013908
 20
14.96197723110118
 30
0.0
  0
VERTEX
  5
382
  8
LABELS
 10
8.50086775706197
 20
14.94770918414955
 30
0.0
  0
VERTEX
  5
383
  8
LABELS
 10
8.472497662087754
 20
14.93374967051952
 30
0.0
  0
VERTEX
  5
384
  8
LABELS
 10
8.443738610629834
 20
14.92010265767566
 30
0.0
  0
VERTEX
  5
385
  8
LABELS
 10
8.414596771226785
 20
14.90677211308255
 30
0.0
  0
VERTEX
  5
386
  8
LABELS
 10
8.385078312417182
 20
14.89376200420477
 30
0.0
  0
VERTEX
  5
387
  8
LABELS
 10
8.3551894027396
 20
14.88107629850691
 30
0.0
  0
VERTEX
  5
388
  8
LABELS
 10
8.324936210732613
 20
14.86871896345355
 30
0.0
  0
VERTEX
  5
389
  8
LABELS
 10
8.294324904934797
 20
14.85669396650926
 30
0.0
  0
VERTEX
  5
38A
  8
LABELS
 10
8.263361653884727
 20
14.84500527513862
 30
0.0
  0
VERTEX
  5
38B
  8
LABELS
 10
8.232052626120977
 20
14.83365685680622
 30
0.0
  0
VERTEX
  5
38C
  8
LABELS
 10
8.200403990182123
 20
14.82265267897664
 30
0.0
  0
VERTEX
  5
38D
  8
LABELS
 10
8.168421914606737
 20
14.81199670911445
 30
0.0
  0
VERTEX
  5
38E
  8
LABELS
 10
8.136112567933397
 20
14.80169291468424
 30
0.0
  0
VERTEX
  5
38F
  8
LABELS
 10
8.103482118700677
 20
14.79174526315059
 30
0.0
  0
SEQEND
  5
3F1
  8
LABELS
  0
POLYLINE
  5
7E
  8
SCREW_LOCATION_RECESS
 66
     1
 10
0.0
 20
0.0
 30
0.0
 70
     1
  0
VERTEX
  5
390
  8
SCREW_LOCATION_RECESS
 10
67.21937975262901
 20
2.282601760870589
 30
0.0
 42
0.4142135623730951
  0
VERTEX
  5
391
  8
SCREW_LOCATION_RECESS
 10
67.34937975262903
 20
2.412601760870585
 30
0.0
 42
0.4142135623730951
  0
VERTEX
  5
392
  8
SCREW_LOCATION_RECESS
 10
67.21937975262901
 20
2.54260176087058
 30
0.0
 42
0.4142135623730951
  0
VERTEX
  5
393
  8
SCREW_LOCATION_RECESS
 10
67.08937975262901
 20
2.412601760870585
 30
0.0
 42
0.4142135623730951
  0
SEQEND
  5
3F2
  8
SCREW_LOCATION_RECESS
  0
POLYLINE
  5
7F
  8
SCREW_LOCATION_RECESS
 66
     1
 10
0.0
 20
0.0
 30
0.0
 70
     1
  0
VERTEX
  5
394
  8
SCREW_LOCATION_RECESS
 10
45.21937975262897
 20
2.282601760870589
 30
0.0
 42
0.4142135623730951
  0
VERTEX
  5
395
  8
SCREW_LOCATION_RECESS
 10
45.349379752629
 20
2.412601760870585
 30
0.0
 42
0.4142135623730951
  0
VERTEX
  5
396
  8
SCREW_LOCATION_RECESS
 10
45.21937975262897
 20
2.54260176087058
 30
0.0
 42
0.4142135623730951
  0
VERTEX
  5
397
  8
SCREW_LOCATION_RECESS
 10
45.08937975262898
 20
2.412601760870585
 30
0.0
 42
0.4142135623730951
  0
SEQEND
  5
3F3
  8
SCREW_LOCATION_RECESS
  0
POLYLINE
  5
80
  8
SCREW_LOCATION_RECESS
 66
     1
 10
0.0
 20
0.0
 30
0.0
 70
     1
  0
VERTEX
  5
398
  8
SCREW_LOCATION_RECESS
 10
23.21937975262897
 20
2.282601760870675
 30
0.0
 42
0.4142135623730951
  0
VERTEX
  5
399
  8
SCREW_LOCATION_RECESS
 10
23.34937975262897
 20
2.41260176087067
 30
0.0
 42
0.4142135623730951
  0
VERTEX
  5
39A
  8
SCREW_LOCATION_RECESS
 10
23.21937975262897
 20
2.542601760870665
 30
0.0
 42
0.4142135623730951
  0
VERTEX
  5
39B
  8
SCREW_LOCATION_RECESS
 10
23.08937975262898
 20
2.41260176087067
 30
0.0
 42
0.4142135623730951
  0
SEQEND
  5
3F4
  8
SCREW_LOCATION_RECESS
  0
POLYLINE
  5
81
  8
SCREW_LOCATION_RECESS
 66
     1
 10
0.0
 20
0.0
 30
0.0
 70
     1
  0
VERTEX
  5
39C
  8
SCREW_LOCATION_RECESS
 10
1.969379752628974
 20
2.282601760870675
 30
0.0
 42
0.4142135623730951
  0
VERTEX
  5
39D
  8
SCREW_LOCATION_RECESS
 10
2.09937975262897
 20
2.41260176087067
 30
0.0
 42
0.4142135623730951
  0
VERTEX
  5
39E
  8
SCREW_LOCATION_RECESS
 10
1.969379752628974
 20
2.542601760870665
 30
0.0
 42
0.4142135623730951
  0
VERTEX
  5
39F
  8
SCREW_LOCATION_RECESS
 10
1.839379752628979
 20
2.41260176087067
 30
0.0
 42
0.4142135623730951
  0
SEQEND
  5
3F5
  8
SCREW_LOCATION_RECESS
  0
POLYLINE
  5
82
  8
SCREW_LOCATION_RECESS
 66
     1
 10
0.0
 20
0.0
 30
0.0
 70
     1
  0
VERTEX
  5
3A0
  8
SCREW_LOCATION_RECESS
 10
67.21937975262901
 20
6.278376504224846
 30
0.0
 42
0.4142135623730951
  0
VERTEX
  5
3A1
  8
SCREW_LOCATION_RECESS
 10
67.34937975262903
 20
6.408376504224841
 30
0.0
 42
0.4142135623730951
  0
VERTEX
  5
3A2
  8
SCREW_LOCATION_RECESS
 10
67.21937975262901
 20
6.538376504224836
 30
0.0
 42
0.4142135623730951
  0
VERTEX
  5
3A3
  8
SCREW_LOCATION_RECESS
 10
67.08937975262901
 20
6.408376504224841
 30
0.0
 42
0.4142135623730951
  0
SEQEND
  5
3F6
  8
SCREW_LOCATION_RECESS
  0
POLYLINE
  5
83
  8
SCREW_LOCATION_RECESS
 66
     1
 10
0.0
 20
0.0
 30
0.0
 70
     1
  0
VERTEX
  5
3A4
  8
SCREW_LOCATION_RECESS
 10
45.21937975262897
 20
6.278376504224846
 30
0.0
 42
0.4142135623730951
  0
VERTEX
  5
3A5
  8
SCREW_LOCATION_RECESS
 10
45.349379752629
 20
6.408376504224841
 30
0.0
 42
0.4142135623730951
  0
VERTEX
  5
3A6
  8
SCREW_LOCATION_RECESS
 10
45.21937975262897
 20
6.538376504224836
 30
0.0
 42
0.4142135623730951
  0
VERTEX
  5
3A7
  8
SCREW_LOCATION_RECESS
 10
45.08937975262898
 20
6.408376504224841
 30
0.0
 42
0.4142135623730951
  0
SEQEND
  5
3F7
  8
SCREW_LOCATION_RECESS
  0
POLYLINE
  5
84
  8
SCREW_LOCATION_RECESS
 66
     1
 10
0.0
 20
0.0
 30
0.0
 70
     1
  0
VERTEX
  5
3A8
  8
SCREW_LOCATION_RECESS
 10
23.21937975262897
 20
6.278376504224931
 30
0.0
 42
0.4142135623730951
  0
VERTEX
  5
3A9
  8
SCREW_LOCATION_RECESS
 10
23.34937975262897
 20
6.408376504224926
 30
0.0
 42
0.4142135623730951
  0
VERTEX
  5
3AA
  8
SCREW_LOCATION_RECESS
 10
23.21937975262897
 20
6.538376504224921
 30
0.0
 42
0.4142135623730951
  0
VERTEX
  5
3AB
  8
SCREW_LOCATION_RECESS
 10
23.08937975262898
 20
6.408376504224926
 30
0.0
 42
0.4142135623730951
  0
SEQEND
  5
3F8
  8
SCREW_LOCATION_RECESS
  0
POLYLINE
  5
85
  8
SCREW_LOCATION_RECESS
 66
     1
 10
0.0
 20
0.0
 30
0.0
 70
     1
  0
VERTEX
  5
3AC
  8
SCREW_LOCATION_RECESS
 10
1.969379752628974
 20
6.278376504224931
 30
0.0
 42
0.4142135623730951
  0
VERTEX
  5
3AD
  8
SCREW_LOCATION_RECESS
 10
2.09937975262897
 20
6.408376504224926
 30
0.0
 42
0.4142135623730951
  0
VERTEX
  5
3AE
  8
SCREW_LOCATION_RECESS
 10
1.969379752628974
 20
6.538376504224921
 30
0.0
 42
0.4142135623730951
  0
VERTEX
  5
3AF
  8
SCREW_LOCATION_RECESS
 10
1.839379752628979
 20
6.408376504224926
 30
0.0
 42
0.4142135623730951
  0
SEQEND
  5
3F9
  8
SCREW_LOCATION_RECESS
  0
POLYLINE
  5
86
  8
SCREW_LOCATION_RECESS
 66
     1
 10
0.0
 20
0.0
 30
0.0
 70
     1
  0
VERTEX
  5
3B0
  8
SCREW_LOCATION_RECESS
 10
23.34625360052055
 20
19.91491732563816
 30
0.0
 42
-0.4142135623730951
  0
VERTEX
  5
3B1
  8
SCREW_LOCATION_RECESS
 10
23.21625360052058
 20
20.04491732563815
 30
0.0
 42
-0.4142135623730951
  0
VERTEX
  5
3B2
  8
SCREW_LOCATION_RECESS
 10
23.34625360052055
 20
20.17491732563818
 30
0.0
 42
-0.4142135623730951
  0
VERTEX
  5
3B3
  8
SCREW_LOCATION_RECESS
 10
23.47625360052055
 20
20.04491732563815
 30
0.0
 42
-0.4142135623730951
  0
SEQEND
  5
3FA
  8
SCREW_LOCATION_RECESS
  0
POLYLINE
  5
87
  8
SCREW_LOCATION_RECESS
 66
     1
 10
0.0
 20
0.0
 30
0.0
 70
     1
  0
VERTEX
  5
3B4
  8
SCREW_LOCATION_RECESS
 10
45.34625360052055
 20
19.91491732563816
 30
0.0
 42
-0.4142135623730951
  0
VERTEX
  5
3B5
  8
SCREW_LOCATION_RECESS
 10
45.21625360052057
 20
20.04491732563815
 30
0.0
 42
-0.4142135623730951
  0
VERTEX
  5
3B6
  8
SCREW_LOCATION_RECESS
 10
45.34625360052055
 20
20.17491732563818
 30
0.0
 42
-0.4142135623730951
  0
VERTEX
  5
3B7
  8
SCREW_LOCATION_RECESS
 10
45.47625360052056
 20
20.04491732563815
 30
0.0
 42
-0.4142135623730951
  0
SEQEND
  5
3FB
  8
SCREW_LOCATION_RECESS
  0
POLYLINE
  5
88
  8
SCREW_LOCATION_RECESS
 66
     1
 10
0.0
 20
0.0
 30
0.0
 70
     1
  0
VERTEX
  5
3B8
  8
SCREW_LOCATION_RECESS
 10
23.34625360052055
 20
38.67491732565394
 30
0.0
 42
0.4142135623730951
  0
VERTEX
  5
3B9
  8
SCREW_LOCATION_RECESS
 10
23.21625360052058
 20
38.54491732565393
 30
0.0
 42
0.4142135623730951
  0
VERTEX
  5
3BA
  8
SCREW_LOCATION_RECESS
 10
23.34625360052055
 20
38.41491732565391
 30
0.0
 42
0.4142135623730951
  0
VERTEX
  5
3BB
  8
SCREW_LOCATION_RECESS
 10
23.47625360052055
 20
38.54491732565393
 30
0.0
 42
0.4142135623730951
  0
SEQEND
  5
3FC
  8
SCREW_LOCATION_RECESS
  0
POLYLINE
  5
89
  8
SCREW_LOCATION_RECESS
 66
     1
 10
0.0
 20
0.0
 30
0.0
 70
     1
  0
VERTEX
  5
3BC
  8
SCREW_LOCATION_RECESS
 10
45.34625360052055
 20
38.67491732565394
 30
0.0
 42
0.4142135623730951
  0
VERTEX
  5
3BD
  8
SCREW_LOCATION_RECESS
 10
45.21625360052057
 20
38.54491732565393
 30
0.0
 42
0.4142135623730951
  0
VERTEX
  5
3BE
  8
SCREW_LOCATION_RECESS
 10
45.34625360052055
 20
38.41491732565392
 30
0.0
 42
0.4142135623730951
  0
VERTEX
  5
3BF
  8
SCREW_LOCATION_RECESS
 10
45.47625360052056
 20
38.54491732565393
 30
0.0
 42
0.4142135623730951
  0
SEQEND
  5
3FD
  8
SCREW_LOCATION_RECESS
  0
POLYLINE
  5
8A
  8
SCREW_LOCATION_RECESS
 66
     1
 10
0.0
 20
0.0
 30
0.0
 70
     1
  0
VERTEX
  5
3C0
  8
SCREW_LOCATION_RECESS
 10
51.59625360050487
 20
45.66491732346156
 30
0.0
 42
-0.4142135623730951
  0
VERTEX
  5
3C1
  8
SCREW_LOCATION_RECESS
 10
51.46625360050483
 20
45.79491732346161
 30
0.0
 42
-0.4142135623730951
  0
VERTEX
  5
3C2
  8
SCREW_LOCATION_RECESS
 10
51.59625360050487
 20
45.92491732346152
 30
0.0
 42
-0.4142135623730951
  0
VERTEX
  5
3C3
  8
SCREW_LOCATION_RECESS
 10
51.72625360050488
 20
45.79491732346163
 30
0.0
 42
-0.4142135623730951
  0
SEQEND
  5
3FE
  8
SCREW_LOCATION_RECESS
  0
POLYLINE
  5
8B
  8
SCREW_LOCATION_RECESS
 66
     1
 10
0.0
 20
0.0
 30
0.0
 70
     1
  0
VERTEX
  5
3C4
  8
SCREW_LOCATION_RECESS
 10
40.59625360050487
 20
45.66491732346156
 30
0.0
 42
-0.4142135623730951
  0
VERTEX
  5
3C5
  8
SCREW_LOCATION_RECESS
 10
40.46625360050484
 20
45.79491732346163
 30
0.0
 42
-0.4142135623730951
  0
VERTEX
  5
3C6
  8
SCREW_LOCATION_RECESS
 10
40.59625360050487
 20
45.92491732346152
 30
0.0
 42
-0.4142135623730951
  0
VERTEX
  5
3C7
  8
SCREW_LOCATION_RECESS
 10
40.72625360050488
 20
45.79491732346163
 30
0.0
 42
-0.4142135623730951
  0
SEQEND
  5
3FF
  8
SCREW_LOCATION_RECESS
  0
POLYLINE
  5
8C
  8
SCREW_LOCATION_RECESS
 66
     1
 10
0.0
 20
0.0
 30
0.0
 70
     1
  0
VERTEX
  5
3C8
  8
SCREW_LOCATION_RECESS
 10
7.596253600504866
 20
45.66491732346156
 30
0.0
 42
-0.4142135623730951
  0
VERTEX
  5
3C9
  8
SCREW_LOCATION_RECESS
 10
7.466253600504849
 20
45.79491732346161
 30
0.0
 42
-0.4142135623730951
  0
VERTEX
  5
3CA
  8
SCREW_LOCATION_RECESS
 10
7.596253600504866
 20
45.92491732346152
 30
0.0
 42
-0.4142135623730951
  0
VERTEX
  5
3CB
  8
SCREW_LOCATION_RECESS
 10
7.726253600504887
 20
45.79491732346163
 30
0.0
 42
-0.4142135623730951
  0
SEQEND
  5
400
  8
SCREW_LOCATION_RECESS
  0
POLYLINE
  5
8D
  8
SCREW_LOCATION_RECESS
 66
     1
 10
0.0
 20
0.0
 30
0.0
 70
     1
  0
VERTEX
  5
3CC
  8
SCREW_LOCATION_RECESS
 10
29.59625360050487
 20
45.92491732346152
 30
0.0
 42
0.4142135623730951
  0
VERTEX
  5
3CD
  8
SCREW_LOCATION_RECESS
 10
29.46625360050486
 20
45.79491732346163
 30
0.0
 42
0.4142135623730951
  0
VERTEX
  5
3CE
  8
SCREW_LOCATION_RECESS
 10
29.59625360050487
 20
45.66491732346157
 30
0.0
 42
0.4142135623730951
  0
VERTEX
  5
3CF
  8
SCREW_LOCATION_RECESS
 10
29.72625360050492
 20
45.79491732346163
 30
0.0
 42
0.4142135623730951
  0
SEQEND
  5
401
  8
SCREW_LOCATION_RECESS
  0
POLYLINE
  5
8E
  8
SCREW_LOCATION_RECESS
 66
     1
 10
0.0
 20
0.0
 30
0.0
 70
     1
  0
VERTEX
  5
3D0
  8
SCREW_LOCATION_RECESS
 10
18.59625360050487
 20
45.92491732346152
 30
0.0
 42
0.4142135623730951
  0
VERTEX
  5
3D1
  8
SCREW_LOCATION_RECESS
 10
18.46625360050486
 20
45.79491732346161
 30
0.0
 42
0.4142135623730951
  0
VERTEX
  5
3D2
  8
SCREW_LOCATION_RECESS
 10
18.59625360050487
 20
45.66491732346157
 30
0.0
 42
0.4142135623730951
  0
VERTEX
  5
3D3
  8
SCREW_LOCATION_RECESS
 10
18.72625360050492
 20
45.79491732346163
 30
0.0
 42
0.4142135623730951
  0
SEQEND
  5
402
  8
SCREW_LOCATION_RECESS
  0
POLYLINE
  5
8F
  8
SCREW_LOCATION_RECESS
 66
     1
 10
0.0
 20
0.0
 30
0.0
 70
     1
  0
VERTEX
  5
3D4
  8
SCREW_LOCATION_RECESS
 10
65.62750360050487
 20
45.92491732346154
 30
0.0
 42
0.4142135623730951
  0
VERTEX
  5
3D5
  8
SCREW_LOCATION_RECESS
 10
65.49750360050484
 20
45.79491732346163
 30
0.0
 42
0.4142135623730951
  0
VERTEX
  5
3D6
  8
SCREW_LOCATION_RECESS
 10
65.62750360050487
 20
45.66491732346157
 30
0.0
 42
0.4142135623730951
  0
VERTEX
  5
3D7
  8
SCREW_LOCATION_RECESS
 10
65.75750360050488
 20
45.79491732346163
 30
0.0
 42
0.4142135623730951
  0
SEQEND
  5
403
  8
SCREW_LOCATION_RECESS
  0
POLYLINE
  5
90
  8
SCREW_LOCATION_RECESS
 66
     1
 10
0.0
 20
0.0
 30
0.0
 70
     1
  0
VERTEX
  5
3D8
  8
SCREW_LOCATION_RECESS
 10
58.59625359955788
 20
45.92491729816572
 30
0.0
 42
0.4142135623730951
  0
VERTEX
  5
3D9
  8
SCREW_LOCATION_RECESS
 10
58.46625359956799
 20
45.79491729815569
 30
0.0
 42
0.4142135623730951
  0
VERTEX
  5
3DA
  8
SCREW_LOCATION_RECESS
 10
58.59625359957813
 20
45.66491729816575
 30
0.0
 42
0.4142135623730951
  0
VERTEX
  5
3DB
  8
SCREW_LOCATION_RECESS
 10
58.72625359956801
 20
45.79491729817594
 30
0.0
 42
0.4142135623730951
  0
SEQEND
  5
404
  8
SCREW_LOCATION_RECESS
  0
POLYLINE
  5
91
  8
SCREW_LOCATION_RECESS
 66
     1
 10
0.0
 20
0.0
 30
0.0
 70
     1
  0
VERTEX
  5
3DC
  8
SCREW_LOCATION_RECESS
 10
1.346253600502106
 20
36.07116732564915
 30
0.0
 42
-0.4142135623730951
  0
VERTEX
  5
3DD
  8
SCREW_LOCATION_RECESS
 10
1.216253600502093
 20
36.2011673256492
 30
0.0
 42
-0.4142135623730951
  0
VERTEX
  5
3DE
  8
SCREW_LOCATION_RECESS
 10
1.346253600502106
 20
36.3311673256491
 30
0.0
 42
-0.4142135623730951
  0
VERTEX
  5
3DF
  8
SCREW_LOCATION_RECESS
 10
1.476253600502137
 20
36.2011673256492
 30
0.0
 42
-0.4142135623730951
  0
SEQEND
  5
405
  8
SCREW_LOCATION_RECESS
  0
POLYLINE
  5
92
  8
SCREW_LOCATION_RECESS
 66
     1
 10
0.0
 20
0.0
 30
0.0
 70
     1
  0
VERTEX
  5
3E0
  8
SCREW_LOCATION_RECESS
 10
1.346253600502352
 20
22.25866732404667
 30
0.0
 42
-0.4142135623730951
  0
VERTEX
  5
3E1
  8
SCREW_LOCATION_RECESS
 10
1.216253600502374
 20
22.38866732404669
 30
0.0
 42
-0.4142135623730951
  0
VERTEX
  5
3E2
  8
SCREW_LOCATION_RECESS
 10
1.346253600502352
 20
22.51866732404669
 30
0.0
 42
-0.4142135623730951
  0
VERTEX
  5
3E3
  8
SCREW_LOCATION_RECESS
 10
1.476253600502347
 20
22.38866732404669
 30
0.0
 42
-0.4142135623730951
  0
SEQEND
  5
406
  8
SCREW_LOCATION_RECESS
  0
ENDSEC
  0
EOF
