  0
SECTION
  2
HEADER
  9
$ACADVER
  1
AC1009
  9
$DWGCODEPAGE
  3
ansi_1252
  9
$INSBASE
 10
0.0
 20
0.0
 30
0.0
  9
$EXTMIN
 10
1.511868094354329
 20
1.580581866386972
 30
0.0
  9
$EXTMAX
 10
90.21186733998279
 20
47.06174407509916
 30
0.0
  9
$LIMMIN
 10
0.0
 20
0.0
  9
$LIMMAX
 10
12.0
 20
9.0
  9
$ORTHOMODE
 70
     0
  9
$REGENMODE
 70
     1
  9
$FILLMODE
 70
     1
  9
$QTEXTMODE
 70
     0
  9
$MIRRTEXT
 70
     1
  9
$DRAGMODE
 70
     2
  9
$LTSCALE
 40
1.0
  9
$OSMODE
 70
    37
  9
$ATTMODE
 70
     1
  9
$TEXTSIZE
 40
0.2
  9
$TRACEWID
 40
0.05
  9
$TEXTSTYLE
  7
STANDARD
  9
$CLAYER
  8
0
  9
$CELTYPE
  6
BYLAYER
  9
$CECOLOR
 62
   256
  9
$DIMSCALE
 40
1.0
  9
$DIMASZ
 40
0.18
  9
$DIMEXO
 40
0.0625
  9
$DIMDLI
 40
0.38
  9
$DIMRND
 40
0.0
  9
$DIMDLE
 40
0.0
  9
$DIMEXE
 40
0.18
  9
$DIMTP
 40
0.0
  9
$DIMTM
 40
0.0
  9
$DIMTXT
 40
0.18
  9
$DIMCEN
 40
0.09
  9
$DIMTSZ
 40
0.0
  9
$DIMTOL
 70
     0
  9
$DIMLIM
 70
     0
  9
$DIMTIH
 70
     1
  9
$DIMTOH
 70
     1
  9
$DIMSE1
 70
     0
  9
$DIMSE2
 70
     0
  9
$DIMTAD
 70
     0
  9
$DIMZIN
 70
     0
  9
$DIMBLK
  1

  9
$DIMASO
 70
     1
  9
$DIMSHO
 70
     1
  9
$DIMPOST
  1

  9
$DIMAPOST
  1

  9
$DIMALT
 70
     0
  9
$DIMALTD
 70
     2
  9
$DIMALTF
 40
25.4
  9
$DIMLFAC
 40
1.0
  9
$DIMTOFL
 70
     0
  9
$DIMTVP
 40
0.0
  9
$DIMTIX
 70
     0
  9
$DIMSOXD
 70
     0
  9
$DIMSAH
 70
     0
  9
$DIMBLK1
  1

  9
$DIMBLK2
  1

  9
$DIMSTYLE
  2
STANDARD
  9
$DIMCLRD
 70
     0
  9
$DIMCLRE
 70
     0
  9
$DIMCLRT
 70
     0
  9
$DIMTFAC
 40
1.0
  9
$DIMGAP
 40
0.09
  9
$LUNITS
 70
     2
  9
$LUPREC
 70
     4
  9
$SKETCHINC
 40
0.1
  9
$FILLETRAD
 40
0.5
  9
$AUNITS
 70
     0
  9
$AUPREC
 70
     0
  9
$MENU
  1
.
  9
$ELEVATION
 40
0.0
  9
$PELEVATION
 40
0.0
  9
$THICKNESS
 40
0.0
  9
$LIMCHECK
 70
     0
  9
$CHAMFERA
 40
0.0
  9
$CHAMFERB
 40
0.0
  9
$SKPOLY
 70
     0
  9
$TDCREATE
 40
2454910.5
  9
$TDUPDATE
 40
2457902.608097153
  9
$TDINDWG
 40
0.0000000116
  9
$TDUSRTIMER
 40
0.0000000116
  9
$USRTIMER
 70
     1
  9
$ANGBASE
 50
0.0
  9
$ANGDIR
 70
     0
  9
$PDMODE
 70
     0
  9
$PDSIZE
 40
0.0
  9
$PLINEWID
 40
0.0
  9
$COORDS
 70
     1
  9
$SPLFRAME
 70
     0
  9
$SPLINETYPE
 70
     6
  9
$SPLINESEGS
 70
     8
  9
$ATTDIA
 70
     0
  9
$ATTREQ
 70
     1
  9
$HANDLING
 70
     1
  9
$HANDSEED
  5
3DE
  9
$SURFTAB1
 70
     6
  9
$SURFTAB2
 70
     6
  9
$SURFTYPE
 70
     6
  9
$SURFU
 70
     6
  9
$SURFV
 70
     6
  9
$UCSNAME
  2

  9
$UCSORG
 10
0.0
 20
0.0
 30
0.0
  9
$UCSXDIR
 10
1.0
 20
0.0
 30
0.0
  9
$UCSYDIR
 10
0.0
 20
1.0
 30
0.0
  9
$PUCSNAME
  2

  9
$PUCSORG
 10
0.0
 20
0.0
 30
0.0
  9
$PUCSXDIR
 10
1.0
 20
0.0
 30
0.0
  9
$PUCSYDIR
 10
0.0
 20
1.0
 30
0.0
  9
$USERI1
 70
     0
  9
$USERI2
 70
     0
  9
$USERI3
 70
     0
  9
$USERI4
 70
     0
  9
$USERI5
 70
     0
  9
$USERR1
 40
0.0
  9
$USERR2
 40
0.0
  9
$USERR3
 40
0.0
  9
$USERR4
 40
0.0
  9
$USERR5
 40
0.0
  9
$WORLDVIEW
 70
     1
  9
$SHADEDGE
 70
     3
  9
$SHADEDIF
 70
    70
  9
$TILEMODE
 70
     1
  9
$MAXACTVP
 70
    64
  9
$PLIMCHECK
 70
     0
  9
$PEXTMIN
 10
1.000000000000000E+20
 20
1.000000000000000E+20
 30
1.000000000000000E+20
  9
$PEXTMAX
 10
-1.000000000000000E+20
 20
-1.000000000000000E+20
 30
-1.000000000000000E+20
  9
$PLIMMIN
 10
0.0
 20
0.0
  9
$PLIMMAX
 10
12.0
 20
9.0
  9
$UNITMODE
 70
     0
  9
$VISRETAIN
 70
     1
  9
$PLINEGEN
 70
     0
  9
$PSLTSCALE
 70
     1
  0
ENDSEC
  0
SECTION
  2
TABLES
  0
TABLE
  2
VPORT
 70
     1
  0
VPORT
  2
*ACTIVE
 70
     0
 10
0.0
 20
0.0
 11
1.0
 21
1.0
 12
10.42990654205607
 22
4.5
 13
0.0
 23
0.0
 14
0.5
 24
0.5
 15
0.5
 25
0.5
 16
0.0
 26
0.0
 36
1.0
 17
0.0
 27
0.0
 37
0.0
 40
9.0
 41
1.972972972850329
 42
50.0
 43
0.0
 44
0.0
 50
0.0
 51
0.0
 71
     0
 72
   100
 73
     1
 74
     3
 75
     0
 76
     0
 77
     0
 78
     0
  0
ENDTAB
  0
TABLE
  2
LTYPE
 70
     2
  0
LTYPE
  2
CONTINUOUS
 70
     0
  3
Solid line
 72
    65
 73
     0
 40
0.0
  0
LTYPE
  2
CONTINUOUS2
 70
     0
  3
Solid Line
 72
    65
 73
     0
 40
0.0
  0
ENDTAB
  0
TABLE
  2
LAYER
 70
     4
  0
LAYER
  2
0
 70
     0
 62
     7
  6
CONTINUOUS
  0
LAYER
  2
SCREW_LOCATION_RECESS
 70
     0
 62
     1
  6
CONTINUOUS
  0
LAYER
  2
LABELS
 70
     0
 62
   150
  6
CONTINUOUS
  0
LAYER
  2
THREE_QUARTER_INCH_THRUCUT
 70
     0
 62
    18
  6
CONTINUOUS
  0
ENDTAB
  0
TABLE
  2
STYLE
 70
     1
  0
STYLE
  2
STANDARD
 70
     0
 40
0.0
 41
1.0
 50
0.0
 71
     0
 42
0.2
  3
txt
  4

  0
ENDTAB
  0
TABLE
  2
VIEW
 70
     0
  0
ENDTAB
  0
TABLE
  2
UCS
 70
     0
  0
ENDTAB
  0
TABLE
  2
APPID
 70
     1
  0
APPID
  2
ACAD
 70
     0
  0
ENDTAB
  0
TABLE
  2
DIMSTYLE
 70
     1
  0
DIMSTYLE
  2
STANDARD
 70
     0
  3

  4

  5

  6

  7

 40
1.0
 41
0.18
 42
0.0625
 43
0.38
 44
0.18
 45
0.0
 46
0.0
 47
0.0
 48
0.0
140
0.18
141
0.09
142
0.0
143
25.4
144
1.0
145
0.0
146
1.0
147
0.09
 71
     0
 72
     0
 73
     1
 74
     1
 75
     0
 76
     0
 77
     0
 78
     0
170
     0
171
     2
172
     0
173
     0
174
     0
175
     0
176
     0
177
     0
178
     0
  0
ENDTAB
  0
ENDSEC
  0
SECTION
  2
BLOCKS
  0
BLOCK
  8
0
  2
$MODEL_SPACE
 70
     0
 10
0.0
 20
0.0
 30
0.0
  3
$MODEL_SPACE
  1

  0
ENDBLK
  5
21
  8
0
  0
BLOCK
 67
     1
  8
0
  2
$PAPER_SPACE
 70
     0
 10
0.0
 20
0.0
 30
0.0
  3
$PAPER_SPACE
  1

  0
ENDBLK
  5
1D
 67
     1
  8
0
  0
ENDSEC
  0
SECTION
  2
ENTITIES
  0
POLYLINE
  5
70
  8
SCREW_LOCATION_RECESS
 66
     1
 10
0.0
 20
0.0
 30
0.0
 70
     1
  0
VERTEX
  5
97
  8
SCREW_LOCATION_RECESS
 10
84.35686734055882
 20
46.1817440454119
 30
0.0
 42
-0.4142135623730951
  0
VERTEX
  5
98
  8
SCREW_LOCATION_RECESS
 10
84.22686734054868
 20
46.31174404540183
 30
0.0
 42
-0.4142135623730951
  0
VERTEX
  5
99
  8
SCREW_LOCATION_RECESS
 10
84.35686734053857
 20
46.44174404541186
 30
0.0
 42
-0.4142135623730951
  0
VERTEX
  5
9A
  8
SCREW_LOCATION_RECESS
 10
84.48686734054871
 20
46.31174404542208
 30
0.0
 42
-0.4142135623730951
  0
SEQEND
  5
3C0
  8
SCREW_LOCATION_RECESS
  0
POLYLINE
  5
71
  8
SCREW_LOCATION_RECESS
 66
     1
 10
0.0
 20
0.0
 30
0.0
 70
     1
  0
VERTEX
  5
9B
  8
SCREW_LOCATION_RECESS
 10
73.35686734054589
 20
46.44174404589968
 30
0.0
 42
0.4142135623730976
  0
VERTEX
  5
9C
  8
SCREW_LOCATION_RECESS
 10
73.22686734055601
 20
46.31174404588966
 30
0.0
 42
0.4142135623730951
  0
VERTEX
  5
9D
  8
SCREW_LOCATION_RECESS
 10
73.35686734056615
 20
46.18174404589974
 30
0.0
 42
0.4142135623730951
  0
VERTEX
  5
9E
  8
SCREW_LOCATION_RECESS
 10
73.48686734055607
 20
46.31174404590991
 30
0.0
 42
0.4142135623730976
  0
SEQEND
  5
3C1
  8
SCREW_LOCATION_RECESS
  0
POLYLINE
  5
72
  8
SCREW_LOCATION_RECESS
 66
     1
 10
0.0
 20
0.0
 30
0.0
 70
     1
  0
VERTEX
  5
9F
  8
SCREW_LOCATION_RECESS
 10
7.35686734053856
 20
46.18174404882674
 30
0.0
 42
0.4142135623730951
  0
VERTEX
  5
A0
  8
SCREW_LOCATION_RECESS
 10
7.486867340548716
 20
46.31174404881666
 30
0.0
 42
0.4142135623730951
  0
VERTEX
  5
A1
  8
SCREW_LOCATION_RECESS
 10
7.356867340558818
 20
46.44174404882668
 30
0.0
 42
0.4142135623730951
  0
VERTEX
  5
A2
  8
SCREW_LOCATION_RECESS
 10
7.226867340548669
 20
46.31174404883692
 30
0.0
 42
0.4142135623730951
  0
SEQEND
  5
3C2
  8
SCREW_LOCATION_RECESS
  0
POLYLINE
  5
73
  8
SCREW_LOCATION_RECESS
 66
     1
 10
0.0
 20
0.0
 30
0.0
 70
     1
  0
VERTEX
  5
A3
  8
SCREW_LOCATION_RECESS
 10
40.35686734053856
 20
46.18174404736323
 30
0.0
 42
0.4142135623730951
  0
VERTEX
  5
A4
  8
SCREW_LOCATION_RECESS
 10
40.48686734054871
 20
46.31174404735315
 30
0.0
 42
0.4142135623730951
  0
VERTEX
  5
A5
  8
SCREW_LOCATION_RECESS
 10
40.35686734055881
 20
46.44174404736319
 30
0.0
 42
0.4142135623730951
  0
VERTEX
  5
A6
  8
SCREW_LOCATION_RECESS
 10
40.22686734054867
 20
46.31174404737342
 30
0.0
 42
0.4142135623730951
  0
SEQEND
  5
3C3
  8
SCREW_LOCATION_RECESS
  0
POLYLINE
  5
74
  8
SCREW_LOCATION_RECESS
 66
     1
 10
0.0
 20
0.0
 30
0.0
 70
     1
  0
VERTEX
  5
A7
  8
SCREW_LOCATION_RECESS
 10
18.35686734055883
 20
46.44174404833884
 30
0.0
 42
-0.4142135623730951
  0
VERTEX
  5
A8
  8
SCREW_LOCATION_RECESS
 10
18.48686734054871
 20
46.31174404832883
 30
0.0
 42
-0.4142135623730951
  0
VERTEX
  5
A9
  8
SCREW_LOCATION_RECESS
 10
18.35686734053857
 20
46.18174404833891
 30
0.0
 42
-0.4142135623730951
  0
VERTEX
  5
AA
  8
SCREW_LOCATION_RECESS
 10
18.22686734054865
 20
46.31174404834908
 30
0.0
 42
-0.4142135623730951
  0
SEQEND
  5
3C4
  8
SCREW_LOCATION_RECESS
  0
POLYLINE
  5
75
  8
SCREW_LOCATION_RECESS
 66
     1
 10
0.0
 20
0.0
 30
0.0
 70
     1
  0
VERTEX
  5
AB
  8
SCREW_LOCATION_RECESS
 10
29.35686734055883
 20
46.44174404785101
 30
0.0
 42
-0.4142135623730951
  0
VERTEX
  5
AC
  8
SCREW_LOCATION_RECESS
 10
29.48686734054871
 20
46.31174404784098
 30
0.0
 42
-0.4142135623730951
  0
VERTEX
  5
AD
  8
SCREW_LOCATION_RECESS
 10
29.35686734053857
 20
46.18174404785108
 30
0.0
 42
-0.4142135623730951
  0
VERTEX
  5
AE
  8
SCREW_LOCATION_RECESS
 10
29.22686734054865
 20
46.31174404786125
 30
0.0
 42
-0.4142135623730951
  0
SEQEND
  5
3C5
  8
SCREW_LOCATION_RECESS
  0
POLYLINE
  5
76
  8
SCREW_LOCATION_RECESS
 66
     1
 10
0.0
 20
0.0
 30
0.0
 70
     1
  0
VERTEX
  5
AF
  8
SCREW_LOCATION_RECESS
 10
51.35686734053856
 20
46.18174404687539
 30
0.0
 42
0.4142135623730951
  0
VERTEX
  5
B0
  8
SCREW_LOCATION_RECESS
 10
51.48686734054871
 20
46.31174404686532
 30
0.0
 42
0.4142135623730951
  0
VERTEX
  5
B1
  8
SCREW_LOCATION_RECESS
 10
51.35686734055881
 20
46.44174404687535
 30
0.0
 42
0.4142135623730951
  0
VERTEX
  5
B2
  8
SCREW_LOCATION_RECESS
 10
51.22686734054867
 20
46.31174404688559
 30
0.0
 42
0.4142135623730951
  0
SEQEND
  5
3C6
  8
SCREW_LOCATION_RECESS
  0
POLYLINE
  5
77
  8
SCREW_LOCATION_RECESS
 66
     1
 10
0.0
 20
0.0
 30
0.0
 70
     1
  0
VERTEX
  5
B3
  8
SCREW_LOCATION_RECESS
 10
62.35686734055881
 20
46.44174404638752
 30
0.0
 42
-0.4142135623730976
  0
VERTEX
  5
B4
  8
SCREW_LOCATION_RECESS
 10
62.48686734054868
 20
46.31174404637749
 30
0.0
 42
-0.4142135623730951
  0
VERTEX
  5
B5
  8
SCREW_LOCATION_RECESS
 10
62.35686734053854
 20
46.18174404638759
 30
0.0
 42
-0.4142135623730951
  0
VERTEX
  5
B6
  8
SCREW_LOCATION_RECESS
 10
62.22686734054862
 20
46.31174404639774
 30
0.0
 42
-0.4142135623730976
  0
SEQEND
  5
3C7
  8
SCREW_LOCATION_RECESS
  0
POLYLINE
  5
78
  8
SCREW_LOCATION_RECESS
 66
     1
 10
0.0
 20
0.0
 30
0.0
 70
     1
  0
VERTEX
  5
B7
  8
SCREW_LOCATION_RECESS
 10
2.586867339964011
 20
46.18174404903777
 30
0.0
 42
0.4142135623730951
  0
VERTEX
  5
B8
  8
SCREW_LOCATION_RECESS
 10
2.716867339974167
 20
46.3117440490277
 30
0.0
 42
0.4142135623730951
  0
VERTEX
  5
B9
  8
SCREW_LOCATION_RECESS
 10
2.586867339984268
 20
46.44174404903772
 30
0.0
 42
0.4142135623730951
  0
VERTEX
  5
BA
  8
SCREW_LOCATION_RECESS
 10
2.456867339974119
 20
46.31174404904795
 30
0.0
 42
0.4142135623730951
  0
SEQEND
  5
3C8
  8
SCREW_LOCATION_RECESS
  0
POLYLINE
  5
79
  8
SCREW_LOCATION_RECESS
 66
     1
 10
0.0
 20
0.0
 30
0.0
 70
     1
  0
VERTEX
  5
BB
  8
SCREW_LOCATION_RECESS
 10
67.83686733997381
 20
20.30674407419109
 30
0.0
 42
-0.4142135623730951
  0
VERTEX
  5
BC
  8
SCREW_LOCATION_RECESS
 10
67.70686733997378
 20
20.43674407419109
 30
0.0
 42
-0.4142135623730951
  0
VERTEX
  5
BD
  8
SCREW_LOCATION_RECESS
 10
67.83686733997381
 20
20.56674407419106
 30
0.0
 42
-0.4142135623730951
  0
VERTEX
  5
BE
  8
SCREW_LOCATION_RECESS
 10
67.96686733997383
 20
20.43674407419109
 30
0.0
 42
-0.4142135623730951
  0
SEQEND
  5
3C9
  8
SCREW_LOCATION_RECESS
  0
POLYLINE
  5
7A
  8
SCREW_LOCATION_RECESS
 66
     1
 10
0.0
 20
0.0
 30
0.0
 70
     1
  0
VERTEX
  5
BF
  8
SCREW_LOCATION_RECESS
 10
67.83686734071428
 20
39.31674407247721
 30
0.0
 42
0.4142135623730951
  0
VERTEX
  5
C0
  8
SCREW_LOCATION_RECESS
 10
67.70686734070414
 20
39.18674407248736
 30
0.0
 42
0.4142135623730951
  0
VERTEX
  5
C1
  8
SCREW_LOCATION_RECESS
 10
67.83686734069403
 20
39.05674407247725
 30
0.0
 42
0.4142135623730951
  0
VERTEX
  5
C2
  8
SCREW_LOCATION_RECESS
 10
67.96686734070417
 20
39.18674407246711
 30
0.0
 42
0.4142135623730951
  0
SEQEND
  5
3CA
  8
SCREW_LOCATION_RECESS
  0
POLYLINE
  5
7B
  8
SCREW_LOCATION_RECESS
 66
     1
 10
0.0
 20
0.0
 30
0.0
 70
     1
  0
VERTEX
  5
C3
  8
SCREW_LOCATION_RECESS
 10
45.83686733997305
 20
20.30674407418837
 30
0.0
 42
-0.4142135623730951
  0
VERTEX
  5
C4
  8
SCREW_LOCATION_RECESS
 10
45.70686733997303
 20
20.43674407418836
 30
0.0
 42
-0.4142135623730951
  0
VERTEX
  5
C5
  8
SCREW_LOCATION_RECESS
 10
45.83686733997305
 20
20.56674407418833
 30
0.0
 42
-0.4142135623730951
  0
VERTEX
  5
C6
  8
SCREW_LOCATION_RECESS
 10
45.96686733997306
 20
20.43674407418836
 30
0.0
 42
-0.4142135623730951
  0
SEQEND
  5
3CB
  8
SCREW_LOCATION_RECESS
  0
POLYLINE
  5
7C
  8
SCREW_LOCATION_RECESS
 66
     1
 10
0.0
 20
0.0
 30
0.0
 70
     1
  0
VERTEX
  5
C7
  8
SCREW_LOCATION_RECESS
 10
45.83686734071352
 20
39.31674407247448
 30
0.0
 42
0.4142135623730951
  0
VERTEX
  5
C8
  8
SCREW_LOCATION_RECESS
 10
45.70686734070337
 20
39.18674407248464
 30
0.0
 42
0.4142135623730951
  0
VERTEX
  5
C9
  8
SCREW_LOCATION_RECESS
 10
45.83686734069327
 20
39.05674407247452
 30
0.0
 42
0.4142135623730951
  0
VERTEX
  5
CA
  8
SCREW_LOCATION_RECESS
 10
45.9668673407034
 20
39.18674407246439
 30
0.0
 42
0.4142135623730951
  0
SEQEND
  5
3CC
  8
SCREW_LOCATION_RECESS
  0
POLYLINE
  5
7D
  8
SCREW_LOCATION_RECESS
 66
     1
 10
0.0
 20
0.0
 30
0.0
 70
     1
  0
VERTEX
  5
CB
  8
SCREW_LOCATION_RECESS
 10
23.83686733997304
 20
20.306744074192
 30
0.0
 42
-0.4142135623730951
  0
VERTEX
  5
CC
  8
SCREW_LOCATION_RECESS
 10
23.70686733997302
 20
20.436744074192
 30
0.0
 42
-0.4142135623730951
  0
VERTEX
  5
CD
  8
SCREW_LOCATION_RECESS
 10
23.83686733997304
 20
20.56674407419197
 30
0.0
 42
-0.4142135623730951
  0
VERTEX
  5
CE
  8
SCREW_LOCATION_RECESS
 10
23.96686733997306
 20
20.436744074192
 30
0.0
 42
-0.4142135623730951
  0
SEQEND
  5
3CD
  8
SCREW_LOCATION_RECESS
  0
POLYLINE
  5
7E
  8
SCREW_LOCATION_RECESS
 66
     1
 10
0.0
 20
0.0
 30
0.0
 70
     1
  0
VERTEX
  5
CF
  8
SCREW_LOCATION_RECESS
 10
23.83686734071351
 20
39.31674407247812
 30
0.0
 42
0.4142135623730951
  0
VERTEX
  5
D0
  8
SCREW_LOCATION_RECESS
 10
23.70686734070337
 20
39.18674407248827
 30
0.0
 42
0.4142135623730951
  0
VERTEX
  5
D1
  8
SCREW_LOCATION_RECESS
 10
23.83686734069326
 20
39.05674407247816
 30
0.0
 42
0.4142135623730951
  0
VERTEX
  5
D2
  8
SCREW_LOCATION_RECESS
 10
23.9668673407034
 20
39.18674407246802
 30
0.0
 42
0.4142135623730951
  0
SEQEND
  5
3CE
  8
SCREW_LOCATION_RECESS
  0
POLYLINE
  5
7F
  8
SCREW_LOCATION_RECESS
 66
     1
 10
0.0
 20
0.0
 30
0.0
 70
     1
  0
VERTEX
  5
D3
  8
SCREW_LOCATION_RECESS
 10
89.83686733998279
 20
43.46299407463265
 30
0.0
 42
-0.4142135623730976
  0
VERTEX
  5
D4
  8
SCREW_LOCATION_RECESS
 10
89.70686733998281
 20
43.59299407463268
 30
0.0
 42
-0.4142135623730951
  0
VERTEX
  5
D5
  8
SCREW_LOCATION_RECESS
 10
89.83686733998279
 20
43.72299407463269
 30
0.0
 42
-0.4142135623730951
  0
VERTEX
  5
D6
  8
SCREW_LOCATION_RECESS
 10
89.96686733998278
 20
43.59299407463268
 30
0.0
 42
-0.4142135623730976
  0
SEQEND
  5
3CF
  8
SCREW_LOCATION_RECESS
  0
POLYLINE
  5
80
  8
SCREW_LOCATION_RECESS
 66
     1
 10
0.0
 20
0.0
 30
0.0
 70
     1
  0
VERTEX
  5
D7
  8
SCREW_LOCATION_RECESS
 10
89.83686733998249
 20
14.40049407577799
 30
0.0
 42
-0.4142135623730951
  0
VERTEX
  5
D8
  8
SCREW_LOCATION_RECESS
 10
89.70686733998251
 20
14.53049407577802
 30
0.0
 42
-0.4142135623730951
  0
VERTEX
  5
D9
  8
SCREW_LOCATION_RECESS
 10
89.83686733998249
 20
14.66049407577801
 30
0.0
 42
-0.4142135623730951
  0
VERTEX
  5
DA
  8
SCREW_LOCATION_RECESS
 10
89.96686733998249
 20
14.53049407577802
 30
0.0
 42
-0.4142135623730951
  0
SEQEND
  5
3D0
  8
SCREW_LOCATION_RECESS
  0
POLYLINE
  5
82
  8
LABELS
 66
     1
 10
0.0
 20
0.0
 30
0.0
  0
VERTEX
  5
DB
  8
LABELS
 10
5.810609354844321
 20
14.26530360914149
 30
0.0
  0
VERTEX
  5
DC
  8
LABELS
 10
5.775138321792998
 20
14.27426108757484
 30
0.0
  0
VERTEX
  5
DD
  8
LABELS
 10
5.740003265722736
 20
14.28361740324902
 30
0.0
  0
VERTEX
  5
DE
  8
LABELS
 10
5.705211310685991
 20
14.29336804384732
 30
0.0
  0
VERTEX
  5
DF
  8
LABELS
 10
5.670769580735215
 20
14.30350849705302
 30
0.0
  0
VERTEX
  5
E0
  8
LABELS
 10
5.636685199922864
 20
14.31403425054939
 30
0.0
  0
VERTEX
  5
E1
  8
LABELS
 10
5.602965292301391
 20
14.3249407920197
 30
0.0
  0
VERTEX
  5
E2
  8
LABELS
 10
5.569616981923252
 20
14.33622360914725
 30
0.0
  0
VERTEX
  5
E3
  8
LABELS
 10
5.536647392840901
 20
14.34787818961529
 30
0.0
  0
VERTEX
  5
E4
  8
LABELS
 10
5.504063649106794
 20
14.35990002110712
 30
0.0
  0
VERTEX
  5
E5
  8
LABELS
 10
5.471872874773383
 20
14.372284591306
 30
0.0
  0
VERTEX
  5
E6
  8
LABELS
 10
5.440082193893124
 20
14.38502738789522
 30
0.0
  0
VERTEX
  5
E7
  8
LABELS
 10
5.408698730518471
 20
14.39812389855805
 30
0.0
  0
VERTEX
  5
E8
  8
LABELS
 10
5.377729608701879
 20
14.41156961097778
 30
0.0
  0
VERTEX
  5
E9
  8
LABELS
 10
5.347181952495802
 20
14.42536001283767
 30
0.0
  0
VERTEX
  5
EA
  8
LABELS
 10
5.317062885952695
 20
14.439490591821
 30
0.0
  0
VERTEX
  5
EB
  8
LABELS
 10
5.287379533125012
 20
14.45395683561106
 30
0.0
  0
VERTEX
  5
EC
  8
LABELS
 10
5.258139018065209
 20
14.46875423189111
 30
0.0
  0
VERTEX
  5
ED
  8
LABELS
 10
5.229348464825739
 20
14.48387826834444
 30
0.0
  0
VERTEX
  5
EE
  8
LABELS
 10
5.201014997459056
 20
14.49932443265433
 30
0.0
  0
VERTEX
  5
EF
  8
LABELS
 10
5.173145740017616
 20
14.51508821250405
 30
0.0
  0
VERTEX
  5
F0
  8
LABELS
 10
5.145747816553873
 20
14.53116509557688
 30
0.0
  0
VERTEX
  5
F1
  8
LABELS
 10
5.118828351120283
 20
14.54755056955609
 30
0.0
  0
VERTEX
  5
F2
  8
LABELS
 10
5.092394467769298
 20
14.56424012212497
 30
0.0
  0
VERTEX
  5
F3
  8
LABELS
 10
5.066453290553374
 20
14.58122924096678
 30
0.0
  0
VERTEX
  5
F4
  8
LABELS
 10
5.041011943524966
 20
14.59851341376482
 30
0.0
  0
VERTEX
  5
F5
  8
LABELS
 10
5.016077550736527
 20
14.61608812820235
 30
0.0
  0
VERTEX
  5
F6
  8
LABELS
 10
4.991657236240512
 20
14.63394887196266
 30
0.0
  0
VERTEX
  5
F7
  8
LABELS
 10
4.967758124089376
 20
14.65209113272901
 30
0.0
  0
VERTEX
  5
F8
  8
LABELS
 10
4.944387338335574
 20
14.67051039818469
 30
0.0
  0
VERTEX
  5
F9
  8
LABELS
 10
4.921552003031559
 20
14.68920215601298
 30
0.0
  0
VERTEX
  5
FA
  8
LABELS
 10
4.899259242229787
 20
14.70816189389715
 30
0.0
  0
VERTEX
  5
FB
  8
LABELS
 10
4.877516179982713
 20
14.72738509952048
 30
0.0
  0
VERTEX
  5
FC
  8
LABELS
 10
4.85632994034279
 20
14.74686726056624
 30
0.0
  0
VERTEX
  5
FD
  8
LABELS
 10
4.835707647362472
 20
14.76660386471772
 30
0.0
  0
VERTEX
  5
FE
  8
LABELS
 10
4.815656425094216
 20
14.78659039965819
 30
0.0
  0
VERTEX
  5
FF
  8
LABELS
 10
4.796183397590475
 20
14.80682235307093
 30
0.0
  0
VERTEX
  5
100
  8
LABELS
 10
4.777295688903703
 20
14.82729521263922
 30
0.0
  0
VERTEX
  5
101
  8
LABELS
 10
4.759000423086356
 20
14.84800446604633
 30
0.0
  0
VERTEX
  5
102
  8
LABELS
 10
4.741304724190887
 20
14.86894560097554
 30
0.0
  0
VERTEX
  5
103
  8
LABELS
 10
4.724215716269753
 20
14.89011410511013
 30
0.0
  0
VERTEX
  5
104
  8
LABELS
 10
4.707740523375406
 20
14.91150546613337
 30
0.0
  0
VERTEX
  5
105
  8
LABELS
 10
4.691886269560301
 20
14.93311517172855
 30
0.0
  0
VERTEX
  5
106
  8
LABELS
 10
4.676660078876894
 20
14.95493870957893
 30
0.0
  0
VERTEX
  5
107
  8
LABELS
 10
4.662069075377637
 20
14.97697156736781
 30
0.0
  0
VERTEX
  5
108
  8
LABELS
 10
4.648120383114987
 20
14.99920923277845
 30
0.0
  0
VERTEX
  5
109
  8
LABELS
 10
4.634821126141398
 20
15.02164719349413
 30
0.0
  0
VERTEX
  5
10A
  8
LABELS
 10
4.622178428509324
 20
15.04428093719814
 30
0.0
  0
VERTEX
  5
10B
  8
LABELS
 10
4.610199414271218
 20
15.06710595157374
 30
0.0
  0
VERTEX
  5
10C
  8
LABELS
 10
4.598891207479539
 20
15.09011772430421
 30
0.0
  0
VERTEX
  5
10D
  8
LABELS
 10
4.588260932186737
 20
15.11331174307283
 30
0.0
  0
VERTEX
  5
10E
  8
LABELS
 10
4.578315712445267
 20
15.13668349556289
 30
0.0
  0
VERTEX
  5
10F
  8
LABELS
 10
4.569062672307587
 20
15.16022846945765
 30
0.0
  0
VERTEX
  5
110
  8
LABELS
 10
4.560508935826149
 20
15.18394215244039
 30
0.0
  0
VERTEX
  5
111
  8
LABELS
 10
4.552661627053407
 20
15.2078200321944
 30
0.0
  0
VERTEX
  5
112
  8
LABELS
 10
4.545527870041817
 20
15.23185759640294
 30
0.0
  0
VERTEX
  5
113
  8
LABELS
 10
4.539114788843833
 20
15.2560503327493
 30
0.0
  0
VERTEX
  5
114
  8
LABELS
 10
4.53342950751191
 20
15.28039372891675
 30
0.0
  0
VERTEX
  5
115
  8
LABELS
 10
4.528479150098501
 20
15.30488327258858
 30
0.0
  0
VERTEX
  5
116
  8
LABELS
 10
4.524270840656062
 20
15.32951445144805
 30
0.0
  0
VERTEX
  5
117
  8
LABELS
 10
4.520811703237047
 20
15.35428275317844
 30
0.0
  0
VERTEX
  5
118
  8
LABELS
 10
4.518108861893911
 20
15.37918366546304
 30
0.0
  0
VERTEX
  5
119
  8
LABELS
 10
4.516169440679109
 20
15.40421267598512
 30
0.0
  0
VERTEX
  5
11A
  8
LABELS
 10
4.515000563645094
 20
15.42936527242795
 30
0.0
  0
VERTEX
  5
11B
  8
LABELS
 10
4.514609354844321
 20
15.45463694247482
 30
0.0
  0
VERTEX
  5
11C
  8
LABELS
 10
4.514776912959862
 20
15.47324874512608
 30
0.0
  0
VERTEX
  5
11D
  8
LABELS
 10
4.515278246893399
 20
15.49180398998832
 30
0.0
  0
VERTEX
  5
11E
  8
LABELS
 10
4.516111346025299
 20
15.51030126334462
 30
0.0
  0
VERTEX
  5
11F
  8
LABELS
 10
4.51727419973593
 20
15.52873915147805
 30
0.0
  0
VERTEX
  5
120
  8
LABELS
 10
4.518764797405659
 20
15.54711624067167
 30
0.0
  0
VERTEX
  5
121
  8
LABELS
 10
4.520581128414857
 20
15.56543111720856
 30
0.0
  0
VERTEX
  5
122
  8
LABELS
 10
4.522721182143892
 20
15.58368236737179
 30
0.0
  0
VERTEX
  5
123
  8
LABELS
 10
4.525182947973128
 20
15.60186857744444
 30
0.0
  0
VERTEX
  5
124
  8
LABELS
 10
4.527964415282938
 20
15.61998833370957
 30
0.0
  0
VERTEX
  5
125
  8
LABELS
 10
4.531063573453686
 20
15.63804022245025
 30
0.0
  0
VERTEX
  5
126
  8
LABELS
 10
4.534478411865743
 20
15.65602282994956
 30
0.0
  0
VERTEX
  5
127
  8
LABELS
 10
4.538206919899476
 20
15.67393474249057
 30
0.0
  0
VERTEX
  5
128
  8
LABELS
 10
4.542247086935253
 20
15.69177454635634
 30
0.0
  0
VERTEX
  5
129
  8
LABELS
 10
4.546596902353444
 20
15.70954082782996
 30
0.0
  0
VERTEX
  5
12A
  8
LABELS
 10
4.551254355534414
 20
15.72723217319448
 30
0.0
  0
VERTEX
  5
12B
  8
LABELS
 10
4.556217435858533
 20
15.744847168733
 30
0.0
  0
VERTEX
  5
12C
  8
LABELS
 10
4.56148413270617
 20
15.76238440072856
 30
0.0
  0
VERTEX
  5
12D
  8
LABELS
 10
4.56705243545769
 20
15.77984245546425
 30
0.0
  0
VERTEX
  5
12E
  8
LABELS
 10
4.572920333493464
 20
15.79721991922314
 30
0.0
  0
VERTEX
  5
12F
  8
LABELS
 10
4.57908581619386
 20
15.81451537828829
 30
0.0
  0
VERTEX
  5
130
  8
LABELS
 10
4.585546872939244
 20
15.83172741894279
 30
0.0
  0
VERTEX
  5
131
  8
LABELS
 10
4.592301493109986
 20
15.84885462746969
 30
0.0
  0
VERTEX
  5
132
  8
LABELS
 10
4.599347666086453
 20
15.86589559015208
 30
0.0
  0
VERTEX
  5
133
  8
LABELS
 10
4.606683381249015
 20
15.88284889327302
 30
0.0
  0
VERTEX
  5
134
  8
LABELS
 10
4.622215395653891
 20
15.91648686596285
 30
0.0
  0
VERTEX
  5
135
  8
LABELS
 10
4.638881451367558
 20
15.94975723580375
 30
0.0
  0
VERTEX
  5
136
  8
LABELS
 10
4.656665463432963
 20
15.98264869306029
 30
0.0
  0
VERTEX
  5
137
  8
LABELS
 10
4.67555134689305
 20
16.01514992799704
 30
0.0
  0
VERTEX
  5
138
  8
LABELS
 10
4.695523016790763
 20
16.04724963087857
 30
0.0
  0
VERTEX
  5
139
  8
LABELS
 10
4.716564388169049
 20
16.07893649196945
 30
0.0
  0
VERTEX
  5
13A
  8
LABELS
 10
4.738659376070851
 20
16.11019920153426
 30
0.0
  0
VERTEX
  5
13B
  8
LABELS
 10
4.761791895539115
 20
16.14102644983756
 30
0.0
  0
VERTEX
  5
13C
  8
LABELS
 10
4.785945861616785
 20
16.17140692714393
 30
0.0
  0
VERTEX
  5
13D
  8
LABELS
 10
4.811105189346808
 20
16.20132932371794
 30
0.0
  0
VERTEX
  5
13E
  8
LABELS
 10
4.837253793772128
 20
16.23078232982414
 30
0.0
  0
VERTEX
  5
13F
  8
LABELS
 10
4.864375589935689
 20
16.25975463572713
 30
0.0
  0
VERTEX
  5
140
  8
LABELS
 10
4.892454492880436
 20
16.28823493169147
 30
0.0
  0
VERTEX
  5
141
  8
LABELS
 10
4.921474417649314
 20
16.31621190798172
 30
0.0
  0
VERTEX
  5
142
  8
LABELS
 10
4.951419279285269
 20
16.34367425486246
 30
0.0
  0
VERTEX
  5
143
  8
LABELS
 10
4.982272992831246
 20
16.37061066259825
 30
0.0
  0
VERTEX
  5
144
  8
LABELS
 10
5.014019473330189
 20
16.39700982145368
 30
0.0
  0
VERTEX
  5
145
  8
LABELS
 10
5.046642635825043
 20
16.42286042169331
 30
0.0
  0
VERTEX
  5
146
  8
LABELS
 10
5.080126395358755
 20
16.44815115358171
 30
0.0
  0
VERTEX
  5
147
  8
LABELS
 10
5.114454666974266
 20
16.47287070738346
 30
0.0
  0
VERTEX
  5
148
  8
LABELS
 10
5.149611365714524
 20
16.49700777336312
 30
0.0
  0
VERTEX
  5
149
  8
LABELS
 10
5.185580406622474
 20
16.52055104178525
 30
0.0
  0
VERTEX
  5
14A
  8
LABELS
 10
5.222345704741059
 20
16.54348920291445
 30
0.0
  0
VERTEX
  5
14B
  8
LABELS
 10
5.259891175113226
 20
16.56581094701527
 30
0.0
  0
VERTEX
  5
14C
  8
LABELS
 10
5.298200732781918
 20
16.58750496435228
 30
0.0
  0
VERTEX
  5
14D
  8
LABELS
 10
5.337258292790082
 20
16.60855994519006
 30
0.0
  0
VERTEX
  5
14E
  8
LABELS
 10
5.377047770180661
 20
16.62896457979318
 30
0.0
  0
VERTEX
  5
14F
  8
LABELS
 10
5.417553079996601
 20
16.64870755842621
 30
0.0
  0
VERTEX
  5
150
  8
LABELS
 10
5.458758137280847
 20
16.66777757135371
 30
0.0
  0
VERTEX
  5
151
  8
LABELS
 10
5.500646857076344
 20
16.68616330884026
 30
0.0
  0
VERTEX
  5
152
  8
LABELS
 10
5.543203154426037
 20
16.70385346115044
 30
0.0
  0
VERTEX
  5
153
  8
LABELS
 10
5.58641094437287
 20
16.7208367185488
 30
0.0
  0
VERTEX
  5
154
  8
LABELS
 10
5.63025414195979
 20
16.73710177129992
 30
0.0
  0
VERTEX
  5
155
  8
LABELS
 10
5.674716662229739
 20
16.75263730966838
 30
0.0
  0
VERTEX
  5
156
  8
LABELS
 10
5.719782420225664
 20
16.76743202391873
 30
0.0
  0
VERTEX
  5
157
  8
LABELS
 10
5.76543533099051
 20
16.78147460431556
 30
0.0
  0
VERTEX
  5
158
  8
LABELS
 10
5.81165930956722
 20
16.79475374112344
 30
0.0
  0
VERTEX
  5
159
  8
LABELS
 10
5.858438270998743
 20
16.80725812460692
 30
0.0
  0
VERTEX
  5
15A
  8
LABELS
 10
5.905756130328021
 20
16.8189764450306
 30
0.0
  0
VERTEX
  5
15B
  8
LABELS
 10
5.953596802597998
 20
16.82989739265903
 30
0.0
  0
VERTEX
  5
15C
  8
LABELS
 10
6.001944202851621
 20
16.84000965775678
 30
0.0
  0
VERTEX
  5
15D
  8
LABELS
 10
6.050782246131834
 20
16.84930193058843
 30
0.0
  0
VERTEX
  5
15E
  8
LABELS
 10
6.100094847481582
 20
16.85776290141855
 30
0.0
  0
VERTEX
  5
15F
  8
LABELS
 10
6.149865921943811
 20
16.86538126051171
 30
0.0
  0
VERTEX
  5
160
  8
LABELS
 10
6.200079384561465
 20
16.87214569813247
 30
0.0
  0
VERTEX
  5
161
  8
LABELS
 10
6.250719150377488
 20
16.87804490454542
 30
0.0
  0
VERTEX
  5
162
  8
LABELS
 10
6.301769134434828
 20
16.88306757001511
 30
0.0
  0
VERTEX
  5
163
  8
LABELS
 10
6.353213251776427
 20
16.88720238480613
 30
0.0
  0
VERTEX
  5
164
  8
LABELS
 10
6.40503541744523
 20
16.89043803918304
 30
0.0
  0
VERTEX
  5
165
  8
LABELS
 10
6.457219546484184
 20
16.89276322341041
 30
0.0
  0
VERTEX
  5
166
  8
LABELS
 10
6.509749553936233
 20
16.89416662775282
 30
0.0
  0
VERTEX
  5
167
  8
LABELS
 10
6.562609354844322
 20
16.89463694247483
 30
0.0
  0
VERTEX
  5
168
  8
LABELS
 10
6.615469155752411
 20
16.89416662775282
 30
0.0
  0
VERTEX
  5
169
  8
LABELS
 10
6.66799916320446
 20
16.89276322341041
 30
0.0
  0
VERTEX
  5
16A
  8
LABELS
 10
6.720183292243414
 20
16.89043803918304
 30
0.0
  0
VERTEX
  5
16B
  8
LABELS
 10
6.772005457912217
 20
16.88720238480613
 30
0.0
  0
VERTEX
  5
16C
  8
LABELS
 10
6.823449575253816
 20
16.88306757001511
 30
0.0
  0
VERTEX
  5
16D
  8
LABELS
 10
6.874499559311155
 20
16.87804490454542
 30
0.0
  0
VERTEX
  5
16E
  8
LABELS
 10
6.925139325127178
 20
16.87214569813247
 30
0.0
  0
VERTEX
  5
16F
  8
LABELS
 10
6.975352787744832
 20
16.86538126051171
 30
0.0
  0
VERTEX
  5
170
  8
LABELS
 10
7.02512386220706
 20
16.85776290141855
 30
0.0
  0
VERTEX
  5
171
  8
LABELS
 10
7.074436463556808
 20
16.84930193058843
 30
0.0
  0
VERTEX
  5
172
  8
LABELS
 10
7.123274506837022
 20
16.84000965775678
 30
0.0
  0
VERTEX
  5
173
  8
LABELS
 10
7.171621907090644
 20
16.82989739265903
 30
0.0
  0
VERTEX
  5
174
  8
LABELS
 10
7.219462579360622
 20
16.8189764450306
 30
0.0
  0
VERTEX
  5
175
  8
LABELS
 10
7.266780438689899
 20
16.80725812460692
 30
0.0
  0
VERTEX
  5
176
  8
LABELS
 10
7.313559400121422
 20
16.79475374112344
 30
0.0
  0
VERTEX
  5
177
  8
LABELS
 10
7.359783378698133
 20
16.78147460431556
 30
0.0
  0
VERTEX
  5
178
  8
LABELS
 10
7.405436289462978
 20
16.76743202391873
 30
0.0
  0
VERTEX
  5
179
  8
LABELS
 10
7.450502047458904
 20
16.75263730966838
 30
0.0
  0
VERTEX
  5
17A
  8
LABELS
 10
7.494964567728853
 20
16.73710177129992
 30
0.0
  0
VERTEX
  5
17B
  8
LABELS
 10
7.538807765315772
 20
16.7208367185488
 30
0.0
  0
VERTEX
  5
17C
  8
LABELS
 10
7.582015555262606
 20
16.70385346115044
 30
0.0
  0
VERTEX
  5
17D
  8
LABELS
 10
7.624571852612299
 20
16.68616330884026
 30
0.0
  0
VERTEX
  5
17E
  8
LABELS
 10
7.666460572407796
 20
16.66777757135371
 30
0.0
  0
VERTEX
  5
17F
  8
LABELS
 10
7.707665629692041
 20
16.64870755842621
 30
0.0
  0
VERTEX
  5
180
  8
LABELS
 10
7.748170939507982
 20
16.62896457979318
 30
0.0
  0
VERTEX
  5
181
  8
LABELS
 10
7.78796041689856
 20
16.60855994519006
 30
0.0
  0
VERTEX
  5
182
  8
LABELS
 10
7.827017976906724
 20
16.58750496435228
 30
0.0
  0
VERTEX
  5
183
  8
LABELS
 10
7.865327534575417
 20
16.56581094701527
 30
0.0
  0
VERTEX
  5
184
  8
LABELS
 10
7.902873004947583
 20
16.54348920291445
 30
0.0
  0
VERTEX
  5
185
  8
LABELS
 10
7.939638303066168
 20
16.52055104178525
 30
0.0
  0
VERTEX
  5
186
  8
LABELS
 10
7.975607343974119
 20
16.49700777336311
 30
0.0
  0
VERTEX
  5
187
  8
LABELS
 10
8.010764042714376
 20
16.47287070738346
 30
0.0
  0
VERTEX
  5
188
  8
LABELS
 10
8.045092314329889
 20
16.44815115358171
 30
0.0
  0
VERTEX
  5
189
  8
LABELS
 10
8.078576073863598
 20
16.42286042169331
 30
0.0
  0
VERTEX
  5
18A
  8
LABELS
 10
8.111199236358454
 20
16.39700982145368
 30
0.0
  0
VERTEX
  5
18B
  8
LABELS
 10
8.142945716857398
 20
16.37061066259825
 30
0.0
  0
VERTEX
  5
18C
  8
LABELS
 10
8.173799430403374
 20
16.34367425486245
 30
0.0
  0
VERTEX
  5
18D
  8
LABELS
 10
8.203744292039328
 20
16.31621190798171
 30
0.0
  0
VERTEX
  5
18E
  8
LABELS
 10
8.232764216808206
 20
16.28823493169146
 30
0.0
  0
VERTEX
  5
18F
  8
LABELS
 10
8.260843119752954
 20
16.25975463572713
 30
0.0
  0
VERTEX
  5
190
  8
LABELS
 10
8.287964915916511
 20
16.23078232982414
 30
0.0
  0
VERTEX
  5
191
  8
LABELS
 10
8.31411352034183
 20
16.20132932371793
 30
0.0
  0
VERTEX
  5
192
  8
LABELS
 10
8.339272848071854
 20
16.17140692714393
 30
0.0
  0
VERTEX
  5
193
  8
LABELS
 10
8.363426814149525
 20
16.14102644983756
 30
0.0
  0
VERTEX
  5
194
  8
LABELS
 10
8.38655933361779
 20
16.11019920153426
 30
0.0
  0
VERTEX
  5
195
  8
LABELS
 10
8.408654321519592
 20
16.07893649196945
 30
0.0
  0
VERTEX
  5
196
  8
LABELS
 10
8.429695692897877
 20
16.04724963087857
 30
0.0
  0
VERTEX
  5
197
  8
LABELS
 10
8.44966736279559
 20
16.01514992799703
 30
0.0
  0
VERTEX
  5
198
  8
LABELS
 10
8.468553246255677
 20
15.98264869306028
 30
0.0
  0
VERTEX
  5
199
  8
LABELS
 10
8.486337258321083
 20
15.94975723580374
 30
0.0
  0
VERTEX
  5
19A
  8
LABELS
 10
8.50300331403475
 20
15.91648686596285
 30
0.0
  0
VERTEX
  5
19B
  8
LABELS
 10
8.518535328439626
 20
15.88284889327302
 30
0.0
  0
VERTEX
  5
19C
  8
LABELS
 10
8.525871043602187
 20
15.86589559015208
 30
0.0
  0
VERTEX
  5
19D
  8
LABELS
 10
8.532917216578655
 20
15.84885462746969
 30
0.0
  0
VERTEX
  5
19E
  8
LABELS
 10
8.539671836749397
 20
15.83172741894279
 30
0.0
  0
VERTEX
  5
19F
  8
LABELS
 10
8.546132893494782
 20
15.81451537828829
 30
0.0
  0
VERTEX
  5
1A0
  8
LABELS
 10
8.552298376195179
 20
15.79721991922314
 30
0.0
  0
VERTEX
  5
1A1
  8
LABELS
 10
8.558166274230953
 20
15.77984245546425
 30
0.0
  0
VERTEX
  5
1A2
  8
LABELS
 10
8.563734576982473
 20
15.76238440072856
 30
0.0
  0
VERTEX
  5
1A3
  8
LABELS
 10
8.569001273830109
 20
15.744847168733
 30
0.0
  0
VERTEX
  5
1A4
  8
LABELS
 10
8.573964354154228
 20
15.72723217319448
 30
0.0
  0
VERTEX
  5
1A5
  8
LABELS
 10
8.578621807335198
 20
15.70954082782996
 30
0.0
  0
VERTEX
  5
1A6
  8
LABELS
 10
8.582971622753387
 20
15.69177454635634
 30
0.0
  0
VERTEX
  5
1A7
  8
LABELS
 10
8.587011789789166
 20
15.67393474249057
 30
0.0
  0
VERTEX
  5
1A8
  8
LABELS
 10
8.590740297822899
 20
15.65602282994956
 30
0.0
  0
VERTEX
  5
1A9
  8
LABELS
 10
8.594155136234956
 20
15.63804022245025
 30
0.0
  0
VERTEX
  5
1AA
  8
LABELS
 10
8.597254294405705
 20
15.61998833370957
 30
0.0
  0
VERTEX
  5
1AB
  8
LABELS
 10
8.600035761715514
 20
15.60186857744444
 30
0.0
  0
VERTEX
  5
1AC
  8
LABELS
 10
8.602497527544752
 20
15.58368236737179
 30
0.0
  0
VERTEX
  5
1AD
  8
LABELS
 10
8.604637581273785
 20
15.56543111720856
 30
0.0
  0
VERTEX
  5
1AE
  8
LABELS
 10
8.606453912282984
 20
15.54711624067167
 30
0.0
  0
VERTEX
  5
1AF
  8
LABELS
 10
8.607944509952713
 20
15.52873915147805
 30
0.0
  0
VERTEX
  5
1B0
  8
LABELS
 10
8.609107363663345
 20
15.51030126334462
 30
0.0
  0
VERTEX
  5
1B1
  8
LABELS
 10
8.609940462795244
 20
15.49180398998832
 30
0.0
  0
VERTEX
  5
1B2
  8
LABELS
 10
8.610441796728779
 20
15.47324874512608
 30
0.0
  0
VERTEX
  5
1B3
  8
LABELS
 10
8.610609354844321
 20
15.45463694247482
 30
0.0
  0
VERTEX
  5
1B4
  8
LABELS
 10
8.610255522689286
 20
15.4300007467837
 30
0.0
  0
VERTEX
  5
1B5
  8
LABELS
 10
8.609198138583228
 20
15.40547471118514
 30
0.0
  0
VERTEX
  5
1B6
  8
LABELS
 10
8.60744337106472
 20
15.38106280314373
 30
0.0
  0
VERTEX
  5
1B7
  8
LABELS
 10
8.604997388672341
 20
15.35676899012405
 30
0.0
  0
VERTEX
  5
1B8
  8
LABELS
 10
8.601866359944664
 20
15.33259723959068
 30
0.0
  0
VERTEX
  5
1B9
  8
LABELS
 10
8.598056453420265
 20
15.3085515190082
 30
0.0
  0
VERTEX
  5
1BA
  8
LABELS
 10
8.593573837637717
 20
15.28463579584119
 30
0.0
  0
VERTEX
  5
1BB
  8
LABELS
 10
8.588424681135596
 20
15.26085403755423
 30
0.0
  0
VERTEX
  5
1BC
  8
LABELS
 10
8.582615152452476
 20
15.23721021161191
 30
0.0
  0
VERTEX
  5
1BD
  8
LABELS
 10
8.576151420126934
 20
15.21370828547879
 30
0.0
  0
VERTEX
  5
1BE
  8
LABELS
 10
8.56903965269754
 20
15.19035222661947
 30
0.0
  0
VERTEX
  5
1BF
  8
LABELS
 10
8.561286018702877
 20
15.16714600249852
 30
0.0
  0
VERTEX
  5
1C0
  8
LABELS
 10
8.552896686681514
 20
15.14409358058053
 30
0.0
  0
VERTEX
  5
1C1
  8
LABELS
 10
8.543877825172025
 20
15.12119892833007
 30
0.0
  0
VERTEX
  5
1C2
  8
LABELS
 10
8.534235602712988
 20
15.09846601321172
 30
0.0
  0
VERTEX
  5
1C3
  8
LABELS
 10
8.523976187842976
 20
15.07589880269007
 30
0.0
  0
VERTEX
  5
1C4
  8
LABELS
 10
8.513105749100566
 20
15.05350126422969
 30
0.0
  0
VERTEX
  5
1C5
  8
LABELS
 10
8.50163045502433
 20
15.03127736529518
 30
0.0
  0
VERTEX
  5
1C6
  8
LABELS
 10
8.489556474152845
 20
15.00923107335109
 30
0.0
  0
VERTEX
  5
1C7
  8
LABELS
 10
8.476889975024687
 20
14.98736635586203
 30
0.0
  0
VERTEX
  5
1C8
  8
LABELS
 10
8.463637126178428
 20
14.96568718029256
 30
0.0
  0
VERTEX
  5
1C9
  8
LABELS
 10
8.449804096152643
 20
14.94419751410727
 30
0.0
  0
VERTEX
  5
1CA
  8
LABELS
 10
8.435397053485909
 20
14.92290132477074
 30
0.0
  0
VERTEX
  5
1CB
  8
LABELS
 10
8.4204221667168
 20
14.90180257974754
 30
0.0
  0
VERTEX
  5
1CC
  8
LABELS
 10
8.404885604383889
 20
14.88090524650227
 30
0.0
  0
VERTEX
  5
1CD
  8
LABELS
 10
8.388793535025755
 20
14.86021329249949
 30
0.0
  0
VERTEX
  5
1CE
  8
LABELS
 10
8.37215212718097
 20
14.8397306852038
 30
0.0
  0
VERTEX
  5
1CF
  8
LABELS
 10
8.354967549388109
 20
14.81946139207977
 30
0.0
  0
VERTEX
  5
1D0
  8
LABELS
 10
8.337245970185744
 20
14.79940938059197
 30
0.0
  0
VERTEX
  5
1D1
  8
LABELS
 10
8.318993558112457
 20
14.779578618205
 30
0.0
  0
VERTEX
  5
1D2
  8
LABELS
 10
8.300216481706817
 20
14.75997307238344
 30
0.0
  0
VERTEX
  5
1D3
  8
LABELS
 10
8.280920909507403
 20
14.74059671059185
 30
0.0
  0
VERTEX
  5
1D4
  8
LABELS
 10
8.261113010052787
 20
14.72145350029483
 30
0.0
  0
VERTEX
  5
1D5
  8
LABELS
 10
8.240798951881542
 20
14.70254740895695
 30
0.0
  0
VERTEX
  5
1D6
  8
LABELS
 10
8.219984903532247
 20
14.6838824040428
 30
0.0
  0
VERTEX
  5
1D7
  8
LABELS
 10
8.198677033543476
 20
14.66546245301695
 30
0.0
  0
VERTEX
  5
1D8
  8
LABELS
 10
8.176881510453804
 20
14.64729152334398
 30
0.0
  0
VERTEX
  5
1D9
  8
LABELS
 10
8.154604502801801
 20
14.62937358248848
 30
0.0
  0
VERTEX
  5
1DA
  8
LABELS
 10
8.13185217912605
 20
14.61171259791503
 30
0.0
  0
VERTEX
  5
1DB
  8
LABELS
 10
8.10863070796512
 20
14.5943125370882
 30
0.0
  0
VERTEX
  5
1DC
  8
LABELS
 10
8.084946257857588
 20
14.57717736747258
 30
0.0
  0
VERTEX
  5
1DD
  8
LABELS
 10
8.060804997342029
 20
14.56031105653275
 30
0.0
  0
VERTEX
  5
1DE
  8
LABELS
 10
8.036213094957017
 20
14.54371757173328
 30
0.0
  0
VERTEX
  5
1DF
  8
LABELS
 10
8.011176719241126
 20
14.52740088053876
 30
0.0
  0
VERTEX
  5
1E0
  8
LABELS
 10
7.985702038732933
 20
14.51136495041377
 30
0.0
  0
VERTEX
  5
1E1
  8
LABELS
 10
7.959795221971013
 20
14.49561374882289
 30
0.0
  0
VERTEX
  5
1E2
  8
LABELS
 10
7.933462437493939
 20
14.4801512432307
 30
0.0
  0
VERTEX
  5
1E3
  8
LABELS
 10
7.906709853840288
 20
14.46498140110179
 30
0.0
  0
VERTEX
  5
1E4
  8
LABELS
 10
7.879543639548632
 20
14.45010818990072
 30
0.0
  0
VERTEX
  5
1E5
  8
LABELS
 10
7.851969963157549
 20
14.43553557709208
 30
0.0
  0
VERTEX
  5
1E6
  8
LABELS
 10
7.823994993205611
 20
14.42126753014045
 30
0.0
  0
VERTEX
  5
1E7
  8
LABELS
 10
7.795624898231396
 20
14.40730801651042
 30
0.0
  0
VERTEX
  5
1E8
  8
LABELS
 10
7.766865846773477
 20
14.39366100366656
 30
0.0
  0
VERTEX
  5
1E9
  8
LABELS
 10
7.737724007370428
 20
14.38033045907345
 30
0.0
  0
VERTEX
  5
1EA
  8
LABELS
 10
7.708205548560826
 20
14.36732035019568
 30
0.0
  0
VERTEX
  5
1EB
  8
LABELS
 10
7.678316638883243
 20
14.35463464449782
 30
0.0
  0
VERTEX
  5
1EC
  8
LABELS
 10
7.648063446876256
 20
14.34227730944445
 30
0.0
  0
VERTEX
  5
1ED
  8
LABELS
 10
7.617452141078441
 20
14.33025231250016
 30
0.0
  0
VERTEX
  5
1EE
  8
LABELS
 10
7.58648889002837
 20
14.31856362112952
 30
0.0
  0
VERTEX
  5
1EF
  8
LABELS
 10
7.55517986226462
 20
14.30721520279712
 30
0.0
  0
VERTEX
  5
1F0
  8
LABELS
 10
7.523531226325765
 20
14.29621102496754
 30
0.0
  0
VERTEX
  5
1F1
  8
LABELS
 10
7.49154915075038
 20
14.28555505510535
 30
0.0
  0
VERTEX
  5
1F2
  8
LABELS
 10
7.45923980407704
 20
14.27525126067514
 30
0.0
  0
VERTEX
  5
1F3
  8
LABELS
 10
7.42660935484432
 20
14.26530360914149
 30
0.0
  0
SEQEND
  5
3D1
  8
LABELS
  0
POLYLINE
  5
84
  8
THREE_QUARTER_INCH_THRUCUT
 66
     1
 10
0.0
 20
0.0
 30
0.0
 70
     1
  0
VERTEX
  5
1F4
  8
THREE_QUARTER_INCH_THRUCUT
 10
36.12164312480942
 20
4.825480533159308
 30
0.0
 42
0.4142135623730951
  0
VERTEX
  5
1F5
  8
THREE_QUARTER_INCH_THRUCUT
 10
36.25164489667301
 20
4.955478761271493
 30
0.0
 42
0.4142135623730951
  0
VERTEX
  5
1F6
  8
THREE_QUARTER_INCH_THRUCUT
 10
36.1216466685608
 20
5.085480533135019
 30
0.0
 42
0.4142135623730951
  0
VERTEX
  5
1F7
  8
THREE_QUARTER_INCH_THRUCUT
 10
35.99164489669707
 20
4.955482305022898
 30
0.0
 42
0.4142135623730951
  0
SEQEND
  5
3D2
  8
THREE_QUARTER_INCH_THRUCUT
  0
POLYLINE
  5
85
  8
THREE_QUARTER_INCH_THRUCUT
 66
     1
 10
0.0
 20
0.0
 30
0.0
 70
     1
  0
VERTEX
  5
1F8
  8
THREE_QUARTER_INCH_THRUCUT
 10
36.12171586518343
 20
2.825480531982087
 30
0.0
 42
0.4142135623730951
  0
VERTEX
  5
1F9
  8
THREE_QUARTER_INCH_THRUCUT
 10
36.25171763704708
 20
2.955478760094273
 30
0.0
 42
0.4142135623730951
  0
VERTEX
  5
1FA
  8
THREE_QUARTER_INCH_THRUCUT
 10
36.12171940893472
 20
3.085480531957863
 30
0.0
 42
0.4142135623730951
  0
VERTEX
  5
1FB
  8
THREE_QUARTER_INCH_THRUCUT
 10
35.99171763707119
 20
2.955482303845649
 30
0.0
 42
0.4142135623730951
  0
SEQEND
  5
3D3
  8
THREE_QUARTER_INCH_THRUCUT
  0
POLYLINE
  5
86
  8
THREE_QUARTER_INCH_THRUCUT
 66
     1
 10
0.0
 20
0.0
 30
0.0
 70
     1
  0
VERTEX
  5
1FC
  8
THREE_QUARTER_INCH_THRUCUT
 10
38.12167949421388
 20
3.825403272901447
 30
0.0
 42
0.4142135623730951
  0
VERTEX
  5
1FD
  8
THREE_QUARTER_INCH_THRUCUT
 10
38.25168126607744
 20
3.955401501013647
 30
0.0
 42
0.4142135623730951
  0
VERTEX
  5
1FE
  8
THREE_QUARTER_INCH_THRUCUT
 10
38.12168303796531
 20
4.085403272877265
 30
0.0
 42
0.4142135623730951
  0
VERTEX
  5
1FF
  8
THREE_QUARTER_INCH_THRUCUT
 10
37.99168126610164
 20
3.955405044765136
 30
0.0
 42
0.4142135623730951
  0
SEQEND
  5
3D4
  8
THREE_QUARTER_INCH_THRUCUT
  0
POLYLINE
  5
87
  8
THREE_QUARTER_INCH_THRUCUT
 66
     1
 10
0.0
 20
0.0
 30
0.0
 70
     1
  0
VERTEX
  5
200
  8
THREE_QUARTER_INCH_THRUCUT
 10
74.60256955532714
 20
3.228742900083212
 30
0.0
 42
-0.4142135623730951
  0
VERTEX
  5
201
  8
THREE_QUARTER_INCH_THRUCUT
 10
74.73257132719073
 20
3.098744671971026
 30
0.0
 42
-0.4142135623730951
  0
VERTEX
  5
202
  8
THREE_QUARTER_INCH_THRUCUT
 10
74.60257309907851
 20
2.9687429001075
 30
0.0
 42
-0.4142135623730951
  0
VERTEX
  5
203
  8
THREE_QUARTER_INCH_THRUCUT
 10
74.47257132721478
 20
3.098741128219622
 30
0.0
 42
-0.4142135623730951
  0
SEQEND
  5
3D5
  8
THREE_QUARTER_INCH_THRUCUT
  0
POLYLINE
  5
88
  8
THREE_QUARTER_INCH_THRUCUT
 66
     1
 10
0.0
 20
0.0
 30
0.0
 70
     1
  0
VERTEX
  5
204
  8
THREE_QUARTER_INCH_THRUCUT
 10
74.60264229570114
 20
5.228742901260432
 30
0.0
 42
-0.4142135623730951
  0
VERTEX
  5
205
  8
THREE_QUARTER_INCH_THRUCUT
 10
74.73264406756479
 20
5.098744673148246
 30
0.0
 42
-0.4142135623730951
  0
VERTEX
  5
206
  8
THREE_QUARTER_INCH_THRUCUT
 10
74.60264583945244
 20
4.968742901284656
 30
0.0
 42
-0.4142135623730951
  0
VERTEX
  5
207
  8
THREE_QUARTER_INCH_THRUCUT
 10
74.4726440675889
 20
5.098741129396871
 30
0.0
 42
-0.4142135623730951
  0
SEQEND
  5
3D6
  8
THREE_QUARTER_INCH_THRUCUT
  0
POLYLINE
  5
89
  8
THREE_QUARTER_INCH_THRUCUT
 66
     1
 10
0.0
 20
0.0
 30
0.0
 70
     1
  0
VERTEX
  5
208
  8
THREE_QUARTER_INCH_THRUCUT
 10
76.60260592473159
 20
4.228820160341073
 30
0.0
 42
-0.4142135623730951
  0
VERTEX
  5
209
  8
THREE_QUARTER_INCH_THRUCUT
 10
76.73260769659515
 20
4.098821932228873
 30
0.0
 42
-0.4142135623730951
  0
VERTEX
  5
20A
  8
THREE_QUARTER_INCH_THRUCUT
 10
76.60260946848302
 20
3.968820160365254
 30
0.0
 42
-0.4142135623730951
  0
VERTEX
  5
20B
  8
THREE_QUARTER_INCH_THRUCUT
 10
76.47260769661935
 20
4.098818388477383
 30
0.0
 42
-0.4142135623730951
  0
SEQEND
  5
3D7
  8
THREE_QUARTER_INCH_THRUCUT
  0
POLYLINE
  5
8A
  8
THREE_QUARTER_INCH_THRUCUT
 66
     1
 10
0.0
 20
0.0
 30
0.0
 70
     1
  0
VERTEX
  5
20C
  8
THREE_QUARTER_INCH_THRUCUT
 10
41.79766761832568
 20
1.723633637504136
 30
0.0
  0
VERTEX
  5
20D
  8
THREE_QUARTER_INCH_THRUCUT
 10
41.79871784928758
 20
6.47363363750469
 30
0.0
  0
VERTEX
  5
20E
  8
THREE_QUARTER_INCH_THRUCUT
 10
45.03883734899109
 20
6.473641566855548
 30
0.0
 42
-0.4142106424158553
  0
VERTEX
  5
20F
  8
THREE_QUARTER_INCH_THRUCUT
 10
45.16871600489711
 20
6.343649496213686
 30
0.0
  0
VERTEX
  5
210
  8
THREE_QUARTER_INCH_THRUCUT
 10
45.16871600489701
 20
6.157495976552696
 30
0.0
 42
1.0
  0
VERTEX
  5
211
  8
THREE_QUARTER_INCH_THRUCUT
 10
45.35256377192555
 20
5.97364821344388
 30
0.0
  0
VERTEX
  5
212
  8
THREE_QUARTER_INCH_THRUCUT
 10
46.03871600489713
 20
5.973648228074495
 30
0.0
  0
VERTEX
  5
213
  8
THREE_QUARTER_INCH_THRUCUT
 10
46.03871600489702
 20
5.373647967720103
 30
0.0
  0
VERTEX
  5
214
  8
THREE_QUARTER_INCH_THRUCUT
 10
45.35255859420777
 20
5.373647990375389
 30
0.0
 42
1.0
  0
VERTEX
  5
215
  8
THREE_QUARTER_INCH_THRUCUT
 10
45.1687108250432
 20
5.189797938897414
 30
0.0
  0
VERTEX
  5
216
  8
THREE_QUARTER_INCH_THRUCUT
 10
45.16871247184843
 20
5.057493490441971
 30
0.0
 42
1.0
  0
VERTEX
  5
217
  8
THREE_QUARTER_INCH_THRUCUT
 10
45.35256023494542
 20
4.873648015702997
 30
0.0
  0
VERTEX
  5
218
  8
THREE_QUARTER_INCH_THRUCUT
 10
46.03871600489702
 20
4.87364801571303
 30
0.0
  0
VERTEX
  5
219
  8
THREE_QUARTER_INCH_THRUCUT
 10
46.03871600489702
 20
4.386471111350659
 30
0.0
  0
VERTEX
  5
21A
  8
THREE_QUARTER_INCH_THRUCUT
 10
46.29871600489709
 20
4.386471111350673
 30
0.0
  0
VERTEX
  5
21B
  8
THREE_QUARTER_INCH_THRUCUT
 10
46.29871600489715
 20
4.873648015713016
 30
0.0
  0
VERTEX
  5
21C
  8
THREE_QUARTER_INCH_THRUCUT
 10
46.98487177484873
 20
4.873648015702997
 30
0.0
 42
1.0
  0
VERTEX
  5
21D
  8
THREE_QUARTER_INCH_THRUCUT
 10
47.16871953794571
 20
5.057493490441985
 30
0.0
  0
VERTEX
  5
21E
  8
THREE_QUARTER_INCH_THRUCUT
 10
47.16872118475096
 20
5.189797938897428
 30
0.0
 42
1.0
  0
VERTEX
  5
21F
  8
THREE_QUARTER_INCH_THRUCUT
 10
46.98487341558637
 20
5.373647990375403
 30
0.0
  0
VERTEX
  5
220
  8
THREE_QUARTER_INCH_THRUCUT
 10
46.29871600489712
 20
5.373647967720117
 30
0.0
  0
VERTEX
  5
221
  8
THREE_QUARTER_INCH_THRUCUT
 10
46.29871600489701
 20
5.973648228074467
 30
0.0
  0
VERTEX
  5
222
  8
THREE_QUARTER_INCH_THRUCUT
 10
46.98486823786863
 20
5.97364821344388
 30
0.0
 42
1.0
  0
VERTEX
  5
223
  8
THREE_QUARTER_INCH_THRUCUT
 10
47.16871600489713
 20
6.157495976552696
 30
0.0
  0
VERTEX
  5
224
  8
THREE_QUARTER_INCH_THRUCUT
 10
47.16871600489701
 20
6.343649496213686
 30
0.0
 42
-0.4142106424158553
  0
VERTEX
  5
225
  8
THREE_QUARTER_INCH_THRUCUT
 10
47.29859466102523
 20
6.47364156685552
 30
0.0
  0
VERTEX
  5
226
  8
THREE_QUARTER_INCH_THRUCUT
 10
64.28871729922463
 20
6.473625708153278
 30
0.0
 42
-0.4142106424158553
  0
VERTEX
  5
227
  8
THREE_QUARTER_INCH_THRUCUT
 10
64.41871600489714
 20
6.343617778809246
 30
0.0
  0
VERTEX
  5
228
  8
THREE_QUARTER_INCH_THRUCUT
 10
64.41871600489702
 20
6.15746425914827
 30
0.0
 42
1.0
  0
VERTEX
  5
229
  8
THREE_QUARTER_INCH_THRUCUT
 10
64.60256377192553
 20
5.973616496039426
 30
0.0
  0
VERTEX
  5
22A
  8
THREE_QUARTER_INCH_THRUCUT
 10
65.28871600489714
 20
5.973616510670027
 30
0.0
  0
VERTEX
  5
22B
  8
THREE_QUARTER_INCH_THRUCUT
 10
65.28871600489705
 20
5.373616250315635
 30
0.0
  0
VERTEX
  5
22C
  8
THREE_QUARTER_INCH_THRUCUT
 10
64.60255859420778
 20
5.373616272970921
 30
0.0
 42
1.0
  0
VERTEX
  5
22D
  8
THREE_QUARTER_INCH_THRUCUT
 10
64.41871082504323
 20
5.189766221492974
 30
0.0
  0
VERTEX
  5
22E
  8
THREE_QUARTER_INCH_THRUCUT
 10
64.41871247184844
 20
5.057461773037531
 30
0.0
 42
1.0
  0
VERTEX
  5
22F
  8
THREE_QUARTER_INCH_THRUCUT
 10
64.60256023494546
 20
4.873616298298529
 30
0.0
  0
VERTEX
  5
230
  8
THREE_QUARTER_INCH_THRUCUT
 10
65.28871600489705
 20
4.873616298308562
 30
0.0
  0
VERTEX
  5
231
  8
THREE_QUARTER_INCH_THRUCUT
 10
65.28871600489705
 20
4.386439393946219
 30
0.0
  0
VERTEX
  5
232
  8
THREE_QUARTER_INCH_THRUCUT
 10
65.54871600489713
 20
4.386439393946219
 30
0.0
  0
VERTEX
  5
233
  8
THREE_QUARTER_INCH_THRUCUT
 10
65.54871600489713
 20
4.873616298308576
 30
0.0
  0
VERTEX
  5
234
  8
THREE_QUARTER_INCH_THRUCUT
 10
66.23487177484873
 20
4.873616298298543
 30
0.0
 42
1.0
  0
VERTEX
  5
235
  8
THREE_QUARTER_INCH_THRUCUT
 10
66.41871953794572
 20
5.057461773037531
 30
0.0
  0
VERTEX
  5
236
  8
THREE_QUARTER_INCH_THRUCUT
 10
66.41872118475095
 20
5.189766221492974
 30
0.0
 42
1.0
  0
VERTEX
  5
237
  8
THREE_QUARTER_INCH_THRUCUT
 10
66.23487341558638
 20
5.373616272970921
 30
0.0
  0
VERTEX
  5
238
  8
THREE_QUARTER_INCH_THRUCUT
 10
65.54871600489713
 20
5.373616250315678
 30
0.0
  0
VERTEX
  5
239
  8
THREE_QUARTER_INCH_THRUCUT
 10
65.54871600489702
 20
5.973616510670027
 30
0.0
  0
VERTEX
  5
23A
  8
THREE_QUARTER_INCH_THRUCUT
 10
66.23486823786862
 20
5.973616496039426
 30
0.0
 42
1.0
  0
VERTEX
  5
23B
  8
THREE_QUARTER_INCH_THRUCUT
 10
66.41871600489714
 20
6.157464259148256
 30
0.0
  0
VERTEX
  5
23C
  8
THREE_QUARTER_INCH_THRUCUT
 10
66.41871600489702
 20
6.343617778809246
 30
0.0
 42
-0.4142106424158553
  0
VERTEX
  5
23D
  8
THREE_QUARTER_INCH_THRUCUT
 10
66.54871471067491
 20
6.473625708153278
 30
0.0
  0
VERTEX
  5
23E
  8
THREE_QUARTER_INCH_THRUCUT
 10
77.60259710937217
 20
6.473633637504406
 30
0.0
  0
VERTEX
  5
23F
  8
THREE_QUARTER_INCH_THRUCUT
 10
77.60257709482195
 20
6.340720599107115
 30
0.0
 42
-0.1988557026438834
  0
VERTEX
  5
240
  8
THREE_QUARTER_INCH_THRUCUT
 10
77.48787111315116
 20
6.06121737167912
 30
0.0
  0
VERTEX
  5
241
  8
THREE_QUARTER_INCH_THRUCUT
 10
76.98411634584394
 20
5.55813111972985
 30
0.0
 42
0.4142135623730944
  0
VERTEX
  5
242
  8
THREE_QUARTER_INCH_THRUCUT
 10
76.98363594721059
 20
4.718479858717927
 30
0.0
  0
VERTEX
  5
243
  8
THREE_QUARTER_INCH_THRUCUT
 10
77.60261329477476
 20
4.098857261018651
 30
0.0
  0
VERTEX
  5
244
  8
THREE_QUARTER_INCH_THRUCUT
 10
78.22159064233875
 20
3.479234663319332
 30
0.0
 42
-0.4142135623730944
  0
VERTEX
  5
245
  8
THREE_QUARTER_INCH_THRUCUT
 10
78.2211102437054
 20
2.639583402307395
 30
0.0
  0
VERTEX
  5
246
  8
THREE_QUARTER_INCH_THRUCUT
 10
77.71735547639821
 20
2.13649715035821
 30
0.0
 42
0.1988557026438834
  0
VERTEX
  5
247
  8
THREE_QUARTER_INCH_THRUCUT
 10
77.60264949472742
 20
1.856993922930215
 30
0.0
  0
VERTEX
  5
248
  8
THREE_QUARTER_INCH_THRUCUT
 10
77.60262948017802
 20
1.723633637504179
 30
0.0
  0
VERTEX
  5
249
  8
THREE_QUARTER_INCH_THRUCUT
 10
64.7871188462135
 20
1.723633637504157
 30
0.0
  0
VERTEX
  5
24A
  8
THREE_QUARTER_INCH_THRUCUT
 10
51.79893180235148
 20
1.723633637504136
 30
0.0
  0
SEQEND
  5
3D8
  8
THREE_QUARTER_INCH_THRUCUT
  0
POLYLINE
  5
8B
  8
THREE_QUARTER_INCH_THRUCUT
 66
     1
 10
0.0
 20
0.0
 30
0.0
 70
     1
  0
VERTEX
  5
24B
  8
THREE_QUARTER_INCH_THRUCUT
 10
7.55778957437942
 20
2.080575205168024
 30
0.0
  0
VERTEX
  5
24C
  8
THREE_QUARTER_INCH_THRUCUT
 10
6.87163734140784
 20
2.080575219798639
 30
0.0
 42
1.0
  0
VERTEX
  5
24D
  8
THREE_QUARTER_INCH_THRUCUT
 10
6.687789574379302
 20
1.896727456689824
 30
0.0
  0
VERTEX
  5
24E
  8
THREE_QUARTER_INCH_THRUCUT
 10
6.687789574379401
 20
1.710573937028833
 30
0.0
 42
-0.4142106424158553
  0
VERTEX
  5
24F
  8
THREE_QUARTER_INCH_THRUCUT
 10
6.557910918473375
 20
1.580581866386972
 30
0.0
  0
VERTEX
  5
250
  8
THREE_QUARTER_INCH_THRUCUT
 10
3.317791418769865
 20
1.580589795737829
 30
0.0
  0
VERTEX
  5
251
  8
THREE_QUARTER_INCH_THRUCUT
 10
3.31674118780797
 20
6.330589795738383
 30
0.0
  0
VERTEX
  5
252
  8
THREE_QUARTER_INCH_THRUCUT
 10
13.31800537183377
 20
6.330589795738383
 30
0.0
  0
VERTEX
  5
253
  8
THREE_QUARTER_INCH_THRUCUT
 10
26.30619241569578
 20
6.330589795738362
 30
0.0
  0
VERTEX
  5
254
  8
THREE_QUARTER_INCH_THRUCUT
 10
39.12170304966031
 20
6.330589795738341
 30
0.0
  0
VERTEX
  5
255
  8
THREE_QUARTER_INCH_THRUCUT
 10
39.1217230642097
 20
6.197229510312305
 30
0.0
 42
0.1988557026438834
  0
VERTEX
  5
256
  8
THREE_QUARTER_INCH_THRUCUT
 10
39.2364290458805
 20
5.91772628288431
 30
0.0
  0
VERTEX
  5
257
  8
THREE_QUARTER_INCH_THRUCUT
 10
39.74018381318768
 20
5.414640030935125
 30
0.0
 42
-0.4142135623730944
  0
VERTEX
  5
258
  8
THREE_QUARTER_INCH_THRUCUT
 10
39.74066421182104
 20
4.574988769923188
 30
0.0
  0
VERTEX
  5
259
  8
THREE_QUARTER_INCH_THRUCUT
 10
39.12168686425704
 20
3.955366172223869
 30
0.0
  0
VERTEX
  5
25A
  8
THREE_QUARTER_INCH_THRUCUT
 10
38.50270951669287
 20
3.335743574524592
 30
0.0
 42
0.4142135623730944
  0
VERTEX
  5
25B
  8
THREE_QUARTER_INCH_THRUCUT
 10
38.50318991532623
 20
2.496092313512669
 30
0.0
  0
VERTEX
  5
25C
  8
THREE_QUARTER_INCH_THRUCUT
 10
39.00694468263345
 20
1.993006061563399
 30
0.0
 42
-0.1988557026438834
  0
VERTEX
  5
25D
  8
THREE_QUARTER_INCH_THRUCUT
 10
39.12165066430424
 20
1.713502834135404
 30
0.0
  0
VERTEX
  5
25E
  8
THREE_QUARTER_INCH_THRUCUT
 10
39.12167067885446
 20
1.580589795738113
 30
0.0
  0
VERTEX
  5
25F
  8
THREE_QUARTER_INCH_THRUCUT
 10
28.06778828015721
 20
1.580597725089241
 30
0.0
 42
-0.4142106424158553
  0
VERTEX
  5
260
  8
THREE_QUARTER_INCH_THRUCUT
 10
27.9377895743793
 20
1.710605654433273
 30
0.0
  0
VERTEX
  5
261
  8
THREE_QUARTER_INCH_THRUCUT
 10
27.93778957437942
 20
1.896759174094264
 30
0.0
 42
1.0
  0
VERTEX
  5
262
  8
THREE_QUARTER_INCH_THRUCUT
 10
27.75394180735091
 20
2.080606937203093
 30
0.0
  0
VERTEX
  5
263
  8
THREE_QUARTER_INCH_THRUCUT
 10
27.06778957437931
 20
2.080606922572493
 30
0.0
  0
VERTEX
  5
264
  8
THREE_QUARTER_INCH_THRUCUT
 10
27.06778957437941
 20
2.680607182926842
 30
0.0
  0
VERTEX
  5
265
  8
THREE_QUARTER_INCH_THRUCUT
 10
27.75394698506866
 20
2.680607160271599
 30
0.0
 42
1.0
  0
VERTEX
  5
266
  8
THREE_QUARTER_INCH_THRUCUT
 10
27.93779475423324
 20
2.864457211749546
 30
0.0
  0
VERTEX
  5
267
  8
THREE_QUARTER_INCH_THRUCUT
 10
27.93779310742801
 20
2.996761660204989
 30
0.0
 42
1.0
  0
VERTEX
  5
268
  8
THREE_QUARTER_INCH_THRUCUT
 10
27.75394534433101
 20
3.180607134943976
 30
0.0
  0
VERTEX
  5
269
  8
THREE_QUARTER_INCH_THRUCUT
 10
27.06778957437943
 20
3.180607134933943
 30
0.0
  0
VERTEX
  5
26A
  8
THREE_QUARTER_INCH_THRUCUT
 10
27.06778957437943
 20
3.667784039296301
 30
0.0
  0
VERTEX
  5
26B
  8
THREE_QUARTER_INCH_THRUCUT
 10
26.80778957437935
 20
3.667784039296301
 30
0.0
  0
VERTEX
  5
26C
  8
THREE_QUARTER_INCH_THRUCUT
 10
26.80778957437935
 20
3.180607134933958
 30
0.0
  0
VERTEX
  5
26D
  8
THREE_QUARTER_INCH_THRUCUT
 10
26.12163380442774
 20
3.18060713494399
 30
0.0
 42
1.0
  0
VERTEX
  5
26E
  8
THREE_QUARTER_INCH_THRUCUT
 10
25.93778604133073
 20
2.996761660204989
 30
0.0
  0
VERTEX
  5
26F
  8
THREE_QUARTER_INCH_THRUCUT
 10
25.93778439452552
 20
2.864457211749546
 30
0.0
 42
1.0
  0
VERTEX
  5
270
  8
THREE_QUARTER_INCH_THRUCUT
 10
26.12163216369007
 20
2.680607160271599
 30
0.0
  0
VERTEX
  5
271
  8
THREE_QUARTER_INCH_THRUCUT
 10
26.80778957437935
 20
2.680607182926884
 30
0.0
  0
VERTEX
  5
272
  8
THREE_QUARTER_INCH_THRUCUT
 10
26.80778957437943
 20
2.080606922572493
 30
0.0
  0
VERTEX
  5
273
  8
THREE_QUARTER_INCH_THRUCUT
 10
26.12163734140783
 20
2.080606937203093
 30
0.0
 42
1.0
  0
VERTEX
  5
274
  8
THREE_QUARTER_INCH_THRUCUT
 10
25.93778957437932
 20
1.89675917409425
 30
0.0
  0
VERTEX
  5
275
  8
THREE_QUARTER_INCH_THRUCUT
 10
25.93778957437943
 20
1.710605654433273
 30
0.0
 42
-0.4142106424158553
  0
VERTEX
  5
276
  8
THREE_QUARTER_INCH_THRUCUT
 10
25.80779086870691
 20
1.580597725089241
 30
0.0
  0
VERTEX
  5
277
  8
THREE_QUARTER_INCH_THRUCUT
 10
8.817668230507515
 20
1.580581866387
 30
0.0
 42
-0.4142106424158553
  0
VERTEX
  5
278
  8
THREE_QUARTER_INCH_THRUCUT
 10
8.687789574379302
 20
1.710573937028833
 30
0.0
  0
VERTEX
  5
279
  8
THREE_QUARTER_INCH_THRUCUT
 10
8.687789574379416
 20
1.896727456689824
 30
0.0
 42
1.0
  0
VERTEX
  5
27A
  8
THREE_QUARTER_INCH_THRUCUT
 10
8.50394180735092
 20
2.080575219798639
 30
0.0
  0
VERTEX
  5
27B
  8
THREE_QUARTER_INCH_THRUCUT
 10
7.817789574379297
 20
2.080575205168053
 30
0.0
  0
VERTEX
  5
27C
  8
THREE_QUARTER_INCH_THRUCUT
 10
7.817789574379411
 20
2.680575465522402
 30
0.0
  0
VERTEX
  5
27D
  8
THREE_QUARTER_INCH_THRUCUT
 10
8.503946985068659
 20
2.680575442867116
 30
0.0
 42
1.0
  0
VERTEX
  5
27E
  8
THREE_QUARTER_INCH_THRUCUT
 10
8.687794754233245
 20
2.864425494345092
 30
0.0
  0
VERTEX
  5
27F
  8
THREE_QUARTER_INCH_THRUCUT
 10
8.687793107428
 20
2.996729942800535
 30
0.0
 42
1.0
  0
VERTEX
  5
280
  8
THREE_QUARTER_INCH_THRUCUT
 10
8.503945344331022
 20
3.180575417539522
 30
0.0
  0
VERTEX
  5
281
  8
THREE_QUARTER_INCH_THRUCUT
 10
7.817789574379439
 20
3.180575417529504
 30
0.0
  0
VERTEX
  5
282
  8
THREE_QUARTER_INCH_THRUCUT
 10
7.817789574379383
 20
3.667752321891847
 30
0.0
  0
VERTEX
  5
283
  8
THREE_QUARTER_INCH_THRUCUT
 10
7.557789574379306
 20
3.667752321891861
 30
0.0
  0
VERTEX
  5
284
  8
THREE_QUARTER_INCH_THRUCUT
 10
7.557789574379306
 20
3.180575417529489
 30
0.0
  0
VERTEX
  5
285
  8
THREE_QUARTER_INCH_THRUCUT
 10
6.871633804427709
 20
3.180575417539522
 30
0.0
 42
1.0
  0
VERTEX
  5
286
  8
THREE_QUARTER_INCH_THRUCUT
 10
6.687786041330718
 20
2.996729942800549
 30
0.0
  0
VERTEX
  5
287
  8
THREE_QUARTER_INCH_THRUCUT
 10
6.687784394525487
 20
2.864425494345106
 30
0.0
 42
1.0
  0
VERTEX
  5
288
  8
THREE_QUARTER_INCH_THRUCUT
 10
6.871632163690059
 20
2.680575442867131
 30
0.0
  0
VERTEX
  5
289
  8
THREE_QUARTER_INCH_THRUCUT
 10
7.557789574379306
 20
2.680575465522416
 30
0.0
  0
SEQEND
  5
3D9
  8
THREE_QUARTER_INCH_THRUCUT
  0
POLYLINE
  5
8C
  8
THREE_QUARTER_INCH_THRUCUT
 66
     1
 10
0.0
 20
0.0
 30
0.0
 70
     1
  0
VERTEX
  5
28A
  8
THREE_QUARTER_INCH_THRUCUT
 10
68.2118673399814
 20
28.57253147575221
 30
0.0
  0
VERTEX
  5
28B
  8
THREE_QUARTER_INCH_THRUCUT
 10
68.21186733998509
 20
31.05095667260075
 30
0.0
 42
1.0
  0
VERTEX
  5
28C
  8
THREE_QUARTER_INCH_THRUCUT
 10
68.21186733998549
 20
31.31174407417557
 30
0.0
  0
VERTEX
  5
28D
  8
THREE_QUARTER_INCH_THRUCUT
 10
67.46186733998117
 20
31.31174407417523
 30
0.0
 42
1.0
  0
VERTEX
  5
28E
  8
THREE_QUARTER_INCH_THRUCUT
 10
67.4618673399814
 20
31.05095667260041
 30
0.0
  0
VERTEX
  5
28F
  8
THREE_QUARTER_INCH_THRUCUT
 10
67.46186733998321
 20
28.57253147575005
 30
0.0
 42
1.0
  0
VERTEX
  5
290
  8
THREE_QUARTER_INCH_THRUCUT
 10
67.46186733998344
 20
28.31174407417523
 30
0.0
  0
VERTEX
  5
291
  8
THREE_QUARTER_INCH_THRUCUT
 10
68.21186733998117
 20
28.31174407417739
 30
0.0
 42
1.0
  0
SEQEND
  5
3DA
  8
THREE_QUARTER_INCH_THRUCUT
  0
POLYLINE
  5
8D
  8
THREE_QUARTER_INCH_THRUCUT
 66
     1
 10
0.0
 20
0.0
 30
0.0
 70
     1
  0
VERTEX
  5
292
  8
THREE_QUARTER_INCH_THRUCUT
 10
46.21186733998063
 20
28.57253147574948
 30
0.0
  0
VERTEX
  5
293
  8
THREE_QUARTER_INCH_THRUCUT
 10
46.21186733998432
 20
31.05095667259803
 30
0.0
 42
1.0
  0
VERTEX
  5
294
  8
THREE_QUARTER_INCH_THRUCUT
 10
46.21186733998472
 20
31.31174407417284
 30
0.0
  0
VERTEX
  5
295
  8
THREE_QUARTER_INCH_THRUCUT
 10
45.4618673399804
 20
31.3117440741725
 30
0.0
 42
1.0
  0
VERTEX
  5
296
  8
THREE_QUARTER_INCH_THRUCUT
 10
45.46186733998063
 20
31.05095667259769
 30
0.0
  0
VERTEX
  5
297
  8
THREE_QUARTER_INCH_THRUCUT
 10
45.46186733998245
 20
28.57253147574732
 30
0.0
 42
1.0
  0
VERTEX
  5
298
  8
THREE_QUARTER_INCH_THRUCUT
 10
45.46186733998267
 20
28.3117440741725
 30
0.0
  0
VERTEX
  5
299
  8
THREE_QUARTER_INCH_THRUCUT
 10
46.2118673399804
 20
28.31174407417466
 30
0.0
 42
1.0
  0
SEQEND
  5
3DB
  8
THREE_QUARTER_INCH_THRUCUT
  0
POLYLINE
  5
8E
  8
THREE_QUARTER_INCH_THRUCUT
 66
     1
 10
0.0
 20
0.0
 30
0.0
 70
     1
  0
VERTEX
  5
29A
  8
THREE_QUARTER_INCH_THRUCUT
 10
24.21186733998063
 20
28.57253147575312
 30
0.0
  0
VERTEX
  5
29B
  8
THREE_QUARTER_INCH_THRUCUT
 10
24.21186733998432
 20
31.05095667260166
 30
0.0
 42
1.0
  0
VERTEX
  5
29C
  8
THREE_QUARTER_INCH_THRUCUT
 10
24.21186733998472
 20
31.31174407417648
 30
0.0
  0
VERTEX
  5
29D
  8
THREE_QUARTER_INCH_THRUCUT
 10
23.4618673399804
 20
31.31174407417614
 30
0.0
 42
1.0
  0
VERTEX
  5
29E
  8
THREE_QUARTER_INCH_THRUCUT
 10
23.46186733998063
 20
31.05095667260132
 30
0.0
  0
VERTEX
  5
29F
  8
THREE_QUARTER_INCH_THRUCUT
 10
23.46186733998245
 20
28.57253147575096
 30
0.0
 42
1.0
  0
VERTEX
  5
2A0
  8
THREE_QUARTER_INCH_THRUCUT
 10
23.46186733998267
 20
28.31174407417614
 30
0.0
  0
VERTEX
  5
2A1
  8
THREE_QUARTER_INCH_THRUCUT
 10
24.2118673399804
 20
28.3117440741783
 30
0.0
 42
1.0
  0
SEQEND
  5
3DC
  8
THREE_QUARTER_INCH_THRUCUT
  0
POLYLINE
  5
8F
  8
THREE_QUARTER_INCH_THRUCUT
 66
     1
 10
0.0
 20
0.0
 30
0.0
 70
     1
  0
VERTEX
  5
2A2
  8
THREE_QUARTER_INCH_THRUCUT
 10
7.226867340548841
 20
9.56174408266589
 30
0.0
  0
VERTEX
  5
2A3
  8
THREE_QUARTER_INCH_THRUCUT
 10
2.211867578115632
 20
9.561744074175827
 30
0.0
  0
VERTEX
  5
2A4
  8
THREE_QUARTER_INCH_THRUCUT
 10
2.211866234646211
 20
14.54304459290127
 30
0.0
 42
1.0
  0
VERTEX
  5
2A5
  8
THREE_QUARTER_INCH_THRUCUT
 10
1.943164552456326
 20
14.8117439333765
 30
0.0
  0
VERTEX
  5
2A6
  8
THREE_QUARTER_INCH_THRUCUT
 10
1.611868094354352
 20
14.8117439333765
 30
0.0
  0
VERTEX
  5
2A7
  8
THREE_QUARTER_INCH_THRUCUT
 10
1.594503094354311
 20
14.81326293337641
 30
0.0
  0
VERTEX
  5
2A8
  8
THREE_QUARTER_INCH_THRUCUT
 10
1.577665094354304
 20
14.81777393337651
 30
0.0
  0
VERTEX
  5
2A9
  8
THREE_QUARTER_INCH_THRUCUT
 10
1.561868094354284
 20
14.82514093337644
 30
0.0
  0
VERTEX
  5
2AA
  8
THREE_QUARTER_INCH_THRUCUT
 10
1.547589094354296
 20
14.83513893337643
 30
0.0
  0
VERTEX
  5
2AB
  8
THREE_QUARTER_INCH_THRUCUT
 10
1.535263094354266
 20
14.84746493337646
 30
0.0
  0
VERTEX
  5
2AC
  8
THREE_QUARTER_INCH_THRUCUT
 10
1.52526509435427
 20
14.86174393337645
 30
0.0
  0
VERTEX
  5
2AD
  8
THREE_QUARTER_INCH_THRUCUT
 10
1.517898094354339
 20
14.87754193337636
 30
0.0
  0
VERTEX
  5
2AE
  8
THREE_QUARTER_INCH_THRUCUT
 10
1.51338709435436
 20
14.89437893337648
 30
0.0
  0
VERTEX
  5
2AF
  8
THREE_QUARTER_INCH_THRUCUT
 10
1.511868094354329
 20
14.91174393337641
 30
0.0
  0
VERTEX
  5
2B0
  8
THREE_QUARTER_INCH_THRUCUT
 10
1.511868094354329
 20
16.31174343337633
 30
0.0
  0
VERTEX
  5
2B1
  8
THREE_QUARTER_INCH_THRUCUT
 10
1.511868094354329
 20
17.71174293337648
 30
0.0
  0
VERTEX
  5
2B2
  8
THREE_QUARTER_INCH_THRUCUT
 10
1.51338709435436
 20
17.7291079333764
 30
0.0
  0
VERTEX
  5
2B3
  8
THREE_QUARTER_INCH_THRUCUT
 10
1.517898094354339
 20
17.74594493337653
 30
0.0
  0
VERTEX
  5
2B4
  8
THREE_QUARTER_INCH_THRUCUT
 10
1.52526509435427
 20
17.76174293337643
 30
0.0
  0
VERTEX
  5
2B5
  8
THREE_QUARTER_INCH_THRUCUT
 10
1.535263094354266
 20
17.77602193337642
 30
0.0
  0
VERTEX
  5
2B6
  8
THREE_QUARTER_INCH_THRUCUT
 10
1.547589094354296
 20
17.78834793337645
 30
0.0
  0
VERTEX
  5
2B7
  8
THREE_QUARTER_INCH_THRUCUT
 10
1.561868094354284
 20
17.79834593337645
 30
0.0
  0
VERTEX
  5
2B8
  8
THREE_QUARTER_INCH_THRUCUT
 10
1.577665094354304
 20
17.80571293337638
 30
0.0
  0
VERTEX
  5
2B9
  8
THREE_QUARTER_INCH_THRUCUT
 10
1.594503094354311
 20
17.81022393337647
 30
0.0
  0
VERTEX
  5
2BA
  8
THREE_QUARTER_INCH_THRUCUT
 10
1.611868094354352
 20
17.81174293337639
 30
0.0
  0
VERTEX
  5
2BB
  8
THREE_QUARTER_INCH_THRUCUT
 10
1.943168973812251
 20
17.81174293337639
 30
0.0
 42
0.4142135623730996
  0
VERTEX
  5
2BC
  8
THREE_QUARTER_INCH_THRUCUT
 10
2.211869572508705
 20
17.81174295522199
 30
0.0
 42
0.4142135623731151
  0
VERTEX
  5
2BD
  8
THREE_QUARTER_INCH_THRUCUT
 10
2.211868445324173
 20
18.08044355391856
 30
0.0
  0
VERTEX
  5
2BE
  8
THREE_QUARTER_INCH_THRUCUT
 10
2.211867356965093
 20
22.18174407343475
 30
0.0
  0
VERTEX
  5
2BF
  8
THREE_QUARTER_INCH_THRUCUT
 10
2.811867600339555
 20
22.18174407343462
 30
0.0
  0
VERTEX
  5
2C0
  8
THREE_QUARTER_INCH_THRUCUT
 10
2.81186757768427
 20
21.49558666274537
 30
0.0
 42
1.0
  0
VERTEX
  5
2C1
  8
THREE_QUARTER_INCH_THRUCUT
 10
2.995717629162245
 20
21.3117388935808
 30
0.0
  0
VERTEX
  5
2C2
  8
THREE_QUARTER_INCH_THRUCUT
 10
3.128022077617688
 20
21.31174054038603
 30
0.0
 42
1.0
  0
VERTEX
  5
2C3
  8
THREE_QUARTER_INCH_THRUCUT
 10
3.311867552356675
 20
21.49558830348303
 30
0.0
  0
VERTEX
  5
2C4
  8
THREE_QUARTER_INCH_THRUCUT
 10
3.311867552346657
 20
22.18174407343459
 30
0.0
  0
VERTEX
  5
2C5
  8
THREE_QUARTER_INCH_THRUCUT
 10
3.799044456709
 20
22.18174407343465
 30
0.0
  0
VERTEX
  5
2C6
  8
THREE_QUARTER_INCH_THRUCUT
 10
3.799044456709014
 20
22.44174407343473
 30
0.0
  0
VERTEX
  5
2C7
  8
THREE_QUARTER_INCH_THRUCUT
 10
3.311867552346643
 20
22.44174407343473
 30
0.0
  0
VERTEX
  5
2C8
  8
THREE_QUARTER_INCH_THRUCUT
 10
3.311867552356675
 20
23.12789984338632
 30
0.0
 42
1.0
  0
VERTEX
  5
2C9
  8
THREE_QUARTER_INCH_THRUCUT
 10
3.128022077617702
 20
23.31174760648332
 30
0.0
  0
VERTEX
  5
2CA
  8
THREE_QUARTER_INCH_THRUCUT
 10
2.995717629162259
 20
23.31174925328855
 30
0.0
 42
1.0
  0
VERTEX
  5
2CB
  8
THREE_QUARTER_INCH_THRUCUT
 10
2.811867577684284
 20
23.12790148412397
 30
0.0
  0
VERTEX
  5
2CC
  8
THREE_QUARTER_INCH_THRUCUT
 10
2.81186760033957
 20
22.44174407343473
 30
0.0
  0
VERTEX
  5
2CD
  8
THREE_QUARTER_INCH_THRUCUT
 10
2.211867323005291
 20
22.44174407343461
 30
0.0
  0
VERTEX
  5
2CE
  8
THREE_QUARTER_INCH_THRUCUT
 10
2.211866234646211
 20
26.54304459295081
 30
0.0
 42
1.0
  0
VERTEX
  5
2CF
  8
THREE_QUARTER_INCH_THRUCUT
 10
1.943164552456326
 20
26.81174393337647
 30
0.0
  0
VERTEX
  5
2D0
  8
THREE_QUARTER_INCH_THRUCUT
 10
1.611868094354352
 20
26.81174393337647
 30
0.0
  0
VERTEX
  5
2D1
  8
THREE_QUARTER_INCH_THRUCUT
 10
1.594503094354311
 20
26.81326293337639
 30
0.0
  0
VERTEX
  5
2D2
  8
THREE_QUARTER_INCH_THRUCUT
 10
1.577665094354304
 20
26.81777393337648
 30
0.0
  0
VERTEX
  5
2D3
  8
THREE_QUARTER_INCH_THRUCUT
 10
1.561868094354284
 20
26.82514093337641
 30
0.0
  0
VERTEX
  5
2D4
  8
THREE_QUARTER_INCH_THRUCUT
 10
1.547589094354296
 20
26.83513893337641
 30
0.0
  0
VERTEX
  5
2D5
  8
THREE_QUARTER_INCH_THRUCUT
 10
1.535263094354266
 20
26.84746493337644
 30
0.0
  0
VERTEX
  5
2D6
  8
THREE_QUARTER_INCH_THRUCUT
 10
1.52526509435427
 20
26.86174393337642
 30
0.0
  0
VERTEX
  5
2D7
  8
THREE_QUARTER_INCH_THRUCUT
 10
1.517898094354339
 20
26.87754193337633
 30
0.0
  0
VERTEX
  5
2D8
  8
THREE_QUARTER_INCH_THRUCUT
 10
1.51338709435436
 20
26.89437893337645
 30
0.0
  0
VERTEX
  5
2D9
  8
THREE_QUARTER_INCH_THRUCUT
 10
1.511868094354329
 20
26.91174393337638
 30
0.0
  0
VERTEX
  5
2DA
  8
THREE_QUARTER_INCH_THRUCUT
 10
1.511868094354329
 20
28.3117434333763
 30
0.0
  0
VERTEX
  5
2DB
  8
THREE_QUARTER_INCH_THRUCUT
 10
1.511868094354329
 20
29.71174293337645
 30
0.0
  0
VERTEX
  5
2DC
  8
THREE_QUARTER_INCH_THRUCUT
 10
1.51338709435436
 20
29.72910793337638
 30
0.0
  0
VERTEX
  5
2DD
  8
THREE_QUARTER_INCH_THRUCUT
 10
1.517898094354339
 20
29.7459449333765
 30
0.0
  0
VERTEX
  5
2DE
  8
THREE_QUARTER_INCH_THRUCUT
 10
1.52526509435427
 20
29.7617429333764
 30
0.0
  0
VERTEX
  5
2DF
  8
THREE_QUARTER_INCH_THRUCUT
 10
1.535263094354266
 20
29.77602193337639
 30
0.0
  0
VERTEX
  5
2E0
  8
THREE_QUARTER_INCH_THRUCUT
 10
1.547589094354296
 20
29.78834793337642
 30
0.0
  0
VERTEX
  5
2E1
  8
THREE_QUARTER_INCH_THRUCUT
 10
1.561868094354284
 20
29.79834593337642
 30
0.0
  0
VERTEX
  5
2E2
  8
THREE_QUARTER_INCH_THRUCUT
 10
1.577665094354304
 20
29.80571293337635
 30
0.0
  0
VERTEX
  5
2E3
  8
THREE_QUARTER_INCH_THRUCUT
 10
1.594503094354311
 20
29.81022393337644
 30
0.0
  0
VERTEX
  5
2E4
  8
THREE_QUARTER_INCH_THRUCUT
 10
1.611868094354352
 20
29.81174293337636
 30
0.0
  0
VERTEX
  5
2E5
  8
THREE_QUARTER_INCH_THRUCUT
 10
1.943168973812251
 20
29.81174293337636
 30
0.0
 42
0.4142135623730996
  0
VERTEX
  5
2E6
  8
THREE_QUARTER_INCH_THRUCUT
 10
2.211869572508705
 20
29.81174295522197
 30
0.0
 42
0.4142135623731151
  0
VERTEX
  5
2E7
  8
THREE_QUARTER_INCH_THRUCUT
 10
2.211868445324173
 20
30.08044355391853
 30
0.0
  0
VERTEX
  5
2E8
  8
THREE_QUARTER_INCH_THRUCUT
 10
2.211867356965096
 20
34.18174407344758
 30
0.0
  0
VERTEX
  5
2E9
  8
THREE_QUARTER_INCH_THRUCUT
 10
2.811867600339562
 20
34.18174407344747
 30
0.0
  0
VERTEX
  5
2EA
  8
THREE_QUARTER_INCH_THRUCUT
 10
2.811867577684276
 20
33.49558666275822
 30
0.0
 42
1.0
  0
VERTEX
  5
2EB
  8
THREE_QUARTER_INCH_THRUCUT
 10
2.995717629162251
 20
33.31173889359363
 30
0.0
  0
VERTEX
  5
2EC
  8
THREE_QUARTER_INCH_THRUCUT
 10
3.128022077617694
 20
33.31174054039888
 30
0.0
 42
1.0
  0
VERTEX
  5
2ED
  8
THREE_QUARTER_INCH_THRUCUT
 10
3.311867552356682
 20
33.49558830349586
 30
0.0
  0
VERTEX
  5
2EE
  8
THREE_QUARTER_INCH_THRUCUT
 10
3.311867552346663
 20
34.18174407344744
 30
0.0
  0
VERTEX
  5
2EF
  8
THREE_QUARTER_INCH_THRUCUT
 10
3.799044456709006
 20
34.1817440734475
 30
0.0
  0
VERTEX
  5
2F0
  8
THREE_QUARTER_INCH_THRUCUT
 10
3.79904445670902
 20
34.44174407344757
 30
0.0
  0
VERTEX
  5
2F1
  8
THREE_QUARTER_INCH_THRUCUT
 10
3.311867552346649
 20
34.44174407344757
 30
0.0
  0
VERTEX
  5
2F2
  8
THREE_QUARTER_INCH_THRUCUT
 10
3.311867552356682
 20
35.12789984339917
 30
0.0
 42
1.0
  0
VERTEX
  5
2F3
  8
THREE_QUARTER_INCH_THRUCUT
 10
3.128022077617708
 20
35.31174760649616
 30
0.0
  0
VERTEX
  5
2F4
  8
THREE_QUARTER_INCH_THRUCUT
 10
2.995717629162265
 20
35.31174925330139
 30
0.0
 42
1.0
  0
VERTEX
  5
2F5
  8
THREE_QUARTER_INCH_THRUCUT
 10
2.81186757768429
 20
35.12790148413682
 30
0.0
  0
VERTEX
  5
2F6
  8
THREE_QUARTER_INCH_THRUCUT
 10
2.811867600339576
 20
34.44174407344757
 30
0.0
  0
VERTEX
  5
2F7
  8
THREE_QUARTER_INCH_THRUCUT
 10
2.211867323005294
 20
34.44174407344746
 30
0.0
  0
VERTEX
  5
2F8
  8
THREE_QUARTER_INCH_THRUCUT
 10
2.211866234646211
 20
38.54304459297651
 30
0.0
 42
1.0
  0
VERTEX
  5
2F9
  8
THREE_QUARTER_INCH_THRUCUT
 10
1.943164552456326
 20
38.81174393337647
 30
0.0
  0
VERTEX
  5
2FA
  8
THREE_QUARTER_INCH_THRUCUT
 10
1.611868094354352
 20
38.81174393337647
 30
0.0
  0
VERTEX
  5
2FB
  8
THREE_QUARTER_INCH_THRUCUT
 10
1.594503094354311
 20
38.81326293337639
 30
0.0
  0
VERTEX
  5
2FC
  8
THREE_QUARTER_INCH_THRUCUT
 10
1.577665094354304
 20
38.81777393337648
 30
0.0
  0
VERTEX
  5
2FD
  8
THREE_QUARTER_INCH_THRUCUT
 10
1.561868094354284
 20
38.82514093337641
 30
0.0
  0
VERTEX
  5
2FE
  8
THREE_QUARTER_INCH_THRUCUT
 10
1.547589094354296
 20
38.83513893337641
 30
0.0
  0
VERTEX
  5
2FF
  8
THREE_QUARTER_INCH_THRUCUT
 10
1.535263094354266
 20
38.84746493337644
 30
0.0
  0
VERTEX
  5
300
  8
THREE_QUARTER_INCH_THRUCUT
 10
1.52526509435427
 20
38.86174393337642
 30
0.0
  0
VERTEX
  5
301
  8
THREE_QUARTER_INCH_THRUCUT
 10
1.517898094354339
 20
38.87754193337633
 30
0.0
  0
VERTEX
  5
302
  8
THREE_QUARTER_INCH_THRUCUT
 10
1.51338709435436
 20
38.89437893337645
 30
0.0
  0
VERTEX
  5
303
  8
THREE_QUARTER_INCH_THRUCUT
 10
1.511868094354329
 20
38.91174393337638
 30
0.0
  0
VERTEX
  5
304
  8
THREE_QUARTER_INCH_THRUCUT
 10
1.511868094354329
 20
40.3117434333763
 30
0.0
  0
VERTEX
  5
305
  8
THREE_QUARTER_INCH_THRUCUT
 10
1.511868094354329
 20
41.71174293337645
 30
0.0
  0
VERTEX
  5
306
  8
THREE_QUARTER_INCH_THRUCUT
 10
1.51338709435436
 20
41.72910793337638
 30
0.0
  0
VERTEX
  5
307
  8
THREE_QUARTER_INCH_THRUCUT
 10
1.517898094354339
 20
41.7459449333765
 30
0.0
  0
VERTEX
  5
308
  8
THREE_QUARTER_INCH_THRUCUT
 10
1.52526509435427
 20
41.7617429333764
 30
0.0
  0
VERTEX
  5
309
  8
THREE_QUARTER_INCH_THRUCUT
 10
1.535263094354266
 20
41.77602193337639
 30
0.0
  0
VERTEX
  5
30A
  8
THREE_QUARTER_INCH_THRUCUT
 10
1.547589094354296
 20
41.78834793337642
 30
0.0
  0
VERTEX
  5
30B
  8
THREE_QUARTER_INCH_THRUCUT
 10
1.561868094354284
 20
41.79834593337642
 30
0.0
  0
VERTEX
  5
30C
  8
THREE_QUARTER_INCH_THRUCUT
 10
1.577665094354304
 20
41.80571293337635
 30
0.0
  0
VERTEX
  5
30D
  8
THREE_QUARTER_INCH_THRUCUT
 10
1.594503094354311
 20
41.81022393337644
 30
0.0
  0
VERTEX
  5
30E
  8
THREE_QUARTER_INCH_THRUCUT
 10
1.611868094354352
 20
41.81174293337636
 30
0.0
  0
VERTEX
  5
30F
  8
THREE_QUARTER_INCH_THRUCUT
 10
1.943168973812251
 20
41.81174293337636
 30
0.0
 42
0.4142135623730996
  0
VERTEX
  5
310
  8
THREE_QUARTER_INCH_THRUCUT
 10
2.211869572508705
 20
41.81174295522197
 30
0.0
 42
0.4142135623731151
  0
VERTEX
  5
311
  8
THREE_QUARTER_INCH_THRUCUT
 10
2.211868445324173
 20
42.08044355391853
 30
0.0
  0
VERTEX
  5
312
  8
THREE_QUARTER_INCH_THRUCUT
 10
2.211867339985021
 20
47.06174407269332
 30
0.0
  0
VERTEX
  5
313
  8
THREE_QUARTER_INCH_THRUCUT
 10
90.21186733998279
 20
47.06174407509916
 30
0.0
  0
VERTEX
  5
314
  8
THREE_QUARTER_INCH_THRUCUT
 10
90.21186733998279
 20
40.12424407417603
 30
0.0
  0
VERTEX
  5
315
  8
THREE_QUARTER_INCH_THRUCUT
 10
89.46186733998256
 20
40.12424407417739
 30
0.0
 42
1.0
  0
VERTEX
  5
316
  8
THREE_QUARTER_INCH_THRUCUT
 10
89.46186733998256
 20
39.86345667260257
 30
0.0
  0
VERTEX
  5
317
  8
THREE_QUARTER_INCH_THRUCUT
 10
89.46186733998302
 20
33.57253147575039
 30
0.0
 42
1.0
  0
VERTEX
  5
318
  8
THREE_QUARTER_INCH_THRUCUT
 10
89.46186733998302
 20
33.31174407417557
 30
0.0
  0
VERTEX
  5
319
  8
THREE_QUARTER_INCH_THRUCUT
 10
89.83686733998279
 20
33.31174407417603
 30
0.0
  0
VERTEX
  5
31A
  8
THREE_QUARTER_INCH_THRUCUT
 10
89.83686733998279
 20
31.31174407417603
 30
0.0
  0
VERTEX
  5
31B
  8
THREE_QUARTER_INCH_THRUCUT
 10
89.4618673399821
 20
31.31174407417557
 30
0.0
 42
1.0
  0
VERTEX
  5
31C
  8
THREE_QUARTER_INCH_THRUCUT
 10
89.4618673399821
 20
31.05095667260075
 30
0.0
  0
VERTEX
  5
31D
  8
THREE_QUARTER_INCH_THRUCUT
 10
89.46186733998302
 20
28.57253147575039
 30
0.0
 42
1.0
  0
VERTEX
  5
31E
  8
THREE_QUARTER_INCH_THRUCUT
 10
89.46186733998302
 20
28.31174407417557
 30
0.0
  0
VERTEX
  5
31F
  8
THREE_QUARTER_INCH_THRUCUT
 10
89.83686733998279
 20
28.31174407417603
 30
0.0
  0
VERTEX
  5
320
  8
THREE_QUARTER_INCH_THRUCUT
 10
89.83686733998279
 20
26.31174407417603
 30
0.0
  0
VERTEX
  5
321
  8
THREE_QUARTER_INCH_THRUCUT
 10
89.46186733998256
 20
26.31174407417739
 30
0.0
 42
1.0
  0
VERTEX
  5
322
  8
THREE_QUARTER_INCH_THRUCUT
 10
89.46186733998256
 20
26.05095667260257
 30
0.0
  0
VERTEX
  5
323
  8
THREE_QUARTER_INCH_THRUCUT
 10
89.46186733998302
 20
19.7600314757504
 30
0.0
 42
1.0
  0
VERTEX
  5
324
  8
THREE_QUARTER_INCH_THRUCUT
 10
89.46186733998302
 20
19.49924407417559
 30
0.0
  0
VERTEX
  5
325
  8
THREE_QUARTER_INCH_THRUCUT
 10
90.21186733998279
 20
19.49924407417604
 30
0.0
  0
VERTEX
  5
326
  8
THREE_QUARTER_INCH_THRUCUT
 10
90.21186733998279
 20
9.561744074176055
 30
0.0
  0
VERTEX
  5
327
  8
THREE_QUARTER_INCH_THRUCUT
 10
84.48686734054814
 20
9.561744065686064
 30
0.0
  0
VERTEX
  5
328
  8
THREE_QUARTER_INCH_THRUCUT
 10
84.48686734054878
 20
10.16174433453032
 30
0.0
  0
VERTEX
  5
329
  8
THREE_QUARTER_INCH_THRUCUT
 10
85.17302475123803
 20
10.16174431187503
 30
0.0
 42
1.0
  0
VERTEX
  5
32A
  8
THREE_QUARTER_INCH_THRUCUT
 10
85.3568725204026
 20
10.34559436335301
 30
0.0
  0
VERTEX
  5
32B
  8
THREE_QUARTER_INCH_THRUCUT
 10
85.35687087359737
 20
10.47789881180845
 30
0.0
 42
1.0
  0
VERTEX
  5
32C
  8
THREE_QUARTER_INCH_THRUCUT
 10
85.17302311050038
 20
10.66174428654742
 30
0.0
  0
VERTEX
  5
32D
  8
THREE_QUARTER_INCH_THRUCUT
 10
84.48686734054878
 20
10.66174428653742
 30
0.0
  0
VERTEX
  5
32E
  8
THREE_QUARTER_INCH_THRUCUT
 10
84.48686734054873
 20
11.14892119089976
 30
0.0
  0
VERTEX
  5
32F
  8
THREE_QUARTER_INCH_THRUCUT
 10
84.22686734054868
 20
11.14892119089976
 30
0.0
  0
VERTEX
  5
330
  8
THREE_QUARTER_INCH_THRUCUT
 10
84.22686734054868
 20
10.66174428653742
 30
0.0
  0
VERTEX
  5
331
  8
THREE_QUARTER_INCH_THRUCUT
 10
83.54071157059708
 20
10.66174428654742
 30
0.0
 42
1.0
  0
VERTEX
  5
332
  8
THREE_QUARTER_INCH_THRUCUT
 10
83.35686380750009
 20
10.47789881180845
 30
0.0
  0
VERTEX
  5
333
  8
THREE_QUARTER_INCH_THRUCUT
 10
83.35686216069486
 20
10.34559436335301
 30
0.0
 42
1.0
  0
VERTEX
  5
334
  8
THREE_QUARTER_INCH_THRUCUT
 10
83.54070992985943
 20
10.16174431187503
 30
0.0
  0
VERTEX
  5
335
  8
THREE_QUARTER_INCH_THRUCUT
 10
84.22686734054868
 20
10.16174433453032
 30
0.0
  0
VERTEX
  5
336
  8
THREE_QUARTER_INCH_THRUCUT
 10
84.22686734054885
 20
9.561744082665932
 30
0.0
  0
VERTEX
  5
337
  8
THREE_QUARTER_INCH_THRUCUT
 10
80.09765474212445
 20
9.561744074176055
 30
0.0
 42
1.0
  0
VERTEX
  5
338
  8
THREE_QUARTER_INCH_THRUCUT
 10
79.83686734054963
 20
9.561744074176055
 30
0.0
  0
VERTEX
  5
339
  8
THREE_QUARTER_INCH_THRUCUT
 10
79.83686734054895
 20
9.061744074176055
 30
0.0
  0
VERTEX
  5
33A
  8
THREE_QUARTER_INCH_THRUCUT
 10
77.83686734054895
 20
9.061744074176055
 30
0.0
  0
VERTEX
  5
33B
  8
THREE_QUARTER_INCH_THRUCUT
 10
77.83686734054781
 20
9.561744074176055
 30
0.0
 42
1.0
  0
VERTEX
  5
33C
  8
THREE_QUARTER_INCH_THRUCUT
 10
77.576079938973
 20
9.561744074176055
 30
0.0
  0
VERTEX
  5
33D
  8
THREE_QUARTER_INCH_THRUCUT
 10
73.48686734054867
 20
9.561744065686064
 30
0.0
  0
VERTEX
  5
33E
  8
THREE_QUARTER_INCH_THRUCUT
 10
73.48686734054878
 20
10.16174433453032
 30
0.0
  0
VERTEX
  5
33F
  8
THREE_QUARTER_INCH_THRUCUT
 10
74.17302475123803
 20
10.16174431187503
 30
0.0
 42
1.0
  0
VERTEX
  5
340
  8
THREE_QUARTER_INCH_THRUCUT
 10
74.3568725204026
 20
10.34559436335301
 30
0.0
  0
VERTEX
  5
341
  8
THREE_QUARTER_INCH_THRUCUT
 10
74.35687087359737
 20
10.47789881180845
 30
0.0
 42
1.0
  0
VERTEX
  5
342
  8
THREE_QUARTER_INCH_THRUCUT
 10
74.17302311050038
 20
10.66174428654742
 30
0.0
  0
VERTEX
  5
343
  8
THREE_QUARTER_INCH_THRUCUT
 10
73.48686734054878
 20
10.66174428653742
 30
0.0
  0
VERTEX
  5
344
  8
THREE_QUARTER_INCH_THRUCUT
 10
73.48686734054873
 20
11.14892119089976
 30
0.0
  0
VERTEX
  5
345
  8
THREE_QUARTER_INCH_THRUCUT
 10
73.22686734054868
 20
11.14892119089976
 30
0.0
  0
VERTEX
  5
346
  8
THREE_QUARTER_INCH_THRUCUT
 10
73.22686734054868
 20
10.66174428653742
 30
0.0
  0
VERTEX
  5
347
  8
THREE_QUARTER_INCH_THRUCUT
 10
72.54071157059708
 20
10.66174428654742
 30
0.0
 42
1.0
  0
VERTEX
  5
348
  8
THREE_QUARTER_INCH_THRUCUT
 10
72.35686380750009
 20
10.47789881180845
 30
0.0
  0
VERTEX
  5
349
  8
THREE_QUARTER_INCH_THRUCUT
 10
72.35686216069486
 20
10.34559436335301
 30
0.0
 42
1.0
  0
VERTEX
  5
34A
  8
THREE_QUARTER_INCH_THRUCUT
 10
72.54070992985943
 20
10.16174431187503
 30
0.0
  0
VERTEX
  5
34B
  8
THREE_QUARTER_INCH_THRUCUT
 10
73.22686734054868
 20
10.16174433453032
 30
0.0
  0
VERTEX
  5
34C
  8
THREE_QUARTER_INCH_THRUCUT
 10
73.22686734054885
 20
9.561744082665932
 30
0.0
  0
VERTEX
  5
34D
  8
THREE_QUARTER_INCH_THRUCUT
 10
62.48686734054866
 20
9.561744065686064
 30
0.0
  0
VERTEX
  5
34E
  8
THREE_QUARTER_INCH_THRUCUT
 10
62.48686734054877
 20
10.16174433453032
 30
0.0
  0
VERTEX
  5
34F
  8
THREE_QUARTER_INCH_THRUCUT
 10
63.17302475123802
 20
10.16174431187503
 30
0.0
 42
1.0
  0
VERTEX
  5
350
  8
THREE_QUARTER_INCH_THRUCUT
 10
63.35687252040259
 20
10.34559436335301
 30
0.0
  0
VERTEX
  5
351
  8
THREE_QUARTER_INCH_THRUCUT
 10
63.35687087359736
 20
10.47789881180845
 30
0.0
 42
1.0
  0
VERTEX
  5
352
  8
THREE_QUARTER_INCH_THRUCUT
 10
63.17302311050037
 20
10.66174428654742
 30
0.0
  0
VERTEX
  5
353
  8
THREE_QUARTER_INCH_THRUCUT
 10
62.48686734054877
 20
10.66174428653742
 30
0.0
  0
VERTEX
  5
354
  8
THREE_QUARTER_INCH_THRUCUT
 10
62.48686734054871
 20
11.14892119089976
 30
0.0
  0
VERTEX
  5
355
  8
THREE_QUARTER_INCH_THRUCUT
 10
62.22686734054867
 20
11.14892119089976
 30
0.0
  0
VERTEX
  5
356
  8
THREE_QUARTER_INCH_THRUCUT
 10
62.22686734054867
 20
10.66174428653742
 30
0.0
  0
VERTEX
  5
357
  8
THREE_QUARTER_INCH_THRUCUT
 10
61.54071157059708
 20
10.66174428654742
 30
0.0
 42
1.0
  0
VERTEX
  5
358
  8
THREE_QUARTER_INCH_THRUCUT
 10
61.35686380750008
 20
10.47789881180845
 30
0.0
  0
VERTEX
  5
359
  8
THREE_QUARTER_INCH_THRUCUT
 10
61.35686216069485
 20
10.34559436335301
 30
0.0
 42
1.0
  0
VERTEX
  5
35A
  8
THREE_QUARTER_INCH_THRUCUT
 10
61.54070992985942
 20
10.16174431187503
 30
0.0
  0
VERTEX
  5
35B
  8
THREE_QUARTER_INCH_THRUCUT
 10
62.22686734054867
 20
10.16174433453032
 30
0.0
  0
VERTEX
  5
35C
  8
THREE_QUARTER_INCH_THRUCUT
 10
62.22686734054884
 20
9.561744082665932
 30
0.0
  0
VERTEX
  5
35D
  8
THREE_QUARTER_INCH_THRUCUT
 10
58.09765474212438
 20
9.561744074176055
 30
0.0
 42
1.0
  0
VERTEX
  5
35E
  8
THREE_QUARTER_INCH_THRUCUT
 10
57.83686734054956
 20
9.561744074176055
 30
0.0
  0
VERTEX
  5
35F
  8
THREE_QUARTER_INCH_THRUCUT
 10
57.83686734054876
 20
9.061744074176055
 30
0.0
  0
VERTEX
  5
360
  8
THREE_QUARTER_INCH_THRUCUT
 10
55.83686734054876
 20
9.061744074176055
 30
0.0
  0
VERTEX
  5
361
  8
THREE_QUARTER_INCH_THRUCUT
 10
55.83686734054592
 20
9.561744074176055
 30
0.0
 42
1.0
  0
VERTEX
  5
362
  8
THREE_QUARTER_INCH_THRUCUT
 10
55.57607993897111
 20
9.561744074176055
 30
0.0
  0
VERTEX
  5
363
  8
THREE_QUARTER_INCH_THRUCUT
 10
51.48686734054866
 20
9.561744065686064
 30
0.0
  0
VERTEX
  5
364
  8
THREE_QUARTER_INCH_THRUCUT
 10
51.48686734054878
 20
10.16174433453032
 30
0.0
  0
VERTEX
  5
365
  8
THREE_QUARTER_INCH_THRUCUT
 10
52.17302475123802
 20
10.16174431187503
 30
0.0
 42
1.0
  0
VERTEX
  5
366
  8
THREE_QUARTER_INCH_THRUCUT
 10
52.3568725204026
 20
10.34559436335301
 30
0.0
  0
VERTEX
  5
367
  8
THREE_QUARTER_INCH_THRUCUT
 10
52.35687087359737
 20
10.47789881180845
 30
0.0
 42
1.0
  0
VERTEX
  5
368
  8
THREE_QUARTER_INCH_THRUCUT
 10
52.17302311050037
 20
10.66174428654742
 30
0.0
  0
VERTEX
  5
369
  8
THREE_QUARTER_INCH_THRUCUT
 10
51.48686734054878
 20
10.66174428653742
 30
0.0
  0
VERTEX
  5
36A
  8
THREE_QUARTER_INCH_THRUCUT
 10
51.48686734054872
 20
11.14892119089976
 30
0.0
  0
VERTEX
  5
36B
  8
THREE_QUARTER_INCH_THRUCUT
 10
51.22686734054867
 20
11.14892119089976
 30
0.0
  0
VERTEX
  5
36C
  8
THREE_QUARTER_INCH_THRUCUT
 10
51.22686734054867
 20
10.66174428653742
 30
0.0
  0
VERTEX
  5
36D
  8
THREE_QUARTER_INCH_THRUCUT
 10
50.54071157059708
 20
10.66174428654742
 30
0.0
 42
1.0
  0
VERTEX
  5
36E
  8
THREE_QUARTER_INCH_THRUCUT
 10
50.35686380750008
 20
10.47789881180845
 30
0.0
  0
VERTEX
  5
36F
  8
THREE_QUARTER_INCH_THRUCUT
 10
50.35686216069485
 20
10.34559436335301
 30
0.0
 42
1.0
  0
VERTEX
  5
370
  8
THREE_QUARTER_INCH_THRUCUT
 10
50.54070992985942
 20
10.16174431187503
 30
0.0
  0
VERTEX
  5
371
  8
THREE_QUARTER_INCH_THRUCUT
 10
51.22686734054867
 20
10.16174433453032
 30
0.0
  0
VERTEX
  5
372
  8
THREE_QUARTER_INCH_THRUCUT
 10
51.22686734054884
 20
9.561744082665932
 30
0.0
  0
VERTEX
  5
373
  8
THREE_QUARTER_INCH_THRUCUT
 10
40.48686734054866
 20
9.561744065686064
 30
0.0
  0
VERTEX
  5
374
  8
THREE_QUARTER_INCH_THRUCUT
 10
40.48686734054878
 20
10.16174433453032
 30
0.0
  0
VERTEX
  5
375
  8
THREE_QUARTER_INCH_THRUCUT
 10
41.17302475123802
 20
10.16174431187503
 30
0.0
 42
1.0
  0
VERTEX
  5
376
  8
THREE_QUARTER_INCH_THRUCUT
 10
41.3568725204026
 20
10.34559436335301
 30
0.0
  0
VERTEX
  5
377
  8
THREE_QUARTER_INCH_THRUCUT
 10
41.35687087359737
 20
10.47789881180845
 30
0.0
 42
1.0
  0
VERTEX
  5
378
  8
THREE_QUARTER_INCH_THRUCUT
 10
41.17302311050037
 20
10.66174428654742
 30
0.0
  0
VERTEX
  5
379
  8
THREE_QUARTER_INCH_THRUCUT
 10
40.48686734054878
 20
10.66174428653742
 30
0.0
  0
VERTEX
  5
37A
  8
THREE_QUARTER_INCH_THRUCUT
 10
40.48686734054872
 20
11.14892119089976
 30
0.0
  0
VERTEX
  5
37B
  8
THREE_QUARTER_INCH_THRUCUT
 10
40.22686734054867
 20
11.14892119089976
 30
0.0
  0
VERTEX
  5
37C
  8
THREE_QUARTER_INCH_THRUCUT
 10
40.22686734054867
 20
10.66174428653742
 30
0.0
  0
VERTEX
  5
37D
  8
THREE_QUARTER_INCH_THRUCUT
 10
39.54071157059708
 20
10.66174428654742
 30
0.0
 42
1.0
  0
VERTEX
  5
37E
  8
THREE_QUARTER_INCH_THRUCUT
 10
39.35686380750008
 20
10.47789881180845
 30
0.0
  0
VERTEX
  5
37F
  8
THREE_QUARTER_INCH_THRUCUT
 10
39.35686216069485
 20
10.34559436335301
 30
0.0
 42
1.0
  0
VERTEX
  5
380
  8
THREE_QUARTER_INCH_THRUCUT
 10
39.54070992985942
 20
10.16174431187503
 30
0.0
  0
VERTEX
  5
381
  8
THREE_QUARTER_INCH_THRUCUT
 10
40.22686734054867
 20
10.16174433453032
 30
0.0
  0
VERTEX
  5
382
  8
THREE_QUARTER_INCH_THRUCUT
 10
40.22686734054884
 20
9.561744082665932
 30
0.0
  0
VERTEX
  5
383
  8
THREE_QUARTER_INCH_THRUCUT
 10
36.09765474212438
 20
9.561744074176055
 30
0.0
 42
1.0
  0
VERTEX
  5
384
  8
THREE_QUARTER_INCH_THRUCUT
 10
35.83686734054956
 20
9.561744074176055
 30
0.0
  0
VERTEX
  5
385
  8
THREE_QUARTER_INCH_THRUCUT
 10
35.83686734054876
 20
9.061744074176055
 30
0.0
  0
VERTEX
  5
386
  8
THREE_QUARTER_INCH_THRUCUT
 10
33.83686734054876
 20
9.061744074176055
 30
0.0
  0
VERTEX
  5
387
  8
THREE_QUARTER_INCH_THRUCUT
 10
33.83686734054956
 20
9.561744074176055
 30
0.0
 42
1.0
  0
VERTEX
  5
388
  8
THREE_QUARTER_INCH_THRUCUT
 10
33.57607993897474
 20
9.561744074176055
 30
0.0
  0
VERTEX
  5
389
  8
THREE_QUARTER_INCH_THRUCUT
 10
29.48686734054865
 20
9.561744065686064
 30
0.0
  0
VERTEX
  5
38A
  8
THREE_QUARTER_INCH_THRUCUT
 10
29.48686734054878
 20
10.16174433453032
 30
0.0
  0
VERTEX
  5
38B
  8
THREE_QUARTER_INCH_THRUCUT
 10
30.17302475123802
 20
10.16174431187503
 30
0.0
 42
1.0
  0
VERTEX
  5
38C
  8
THREE_QUARTER_INCH_THRUCUT
 10
30.3568725204026
 20
10.34559436335301
 30
0.0
  0
VERTEX
  5
38D
  8
THREE_QUARTER_INCH_THRUCUT
 10
30.35687087359737
 20
10.47789881180845
 30
0.0
 42
1.0
  0
VERTEX
  5
38E
  8
THREE_QUARTER_INCH_THRUCUT
 10
30.17302311050037
 20
10.66174428654742
 30
0.0
  0
VERTEX
  5
38F
  8
THREE_QUARTER_INCH_THRUCUT
 10
29.48686734054878
 20
10.66174428653742
 30
0.0
  0
VERTEX
  5
390
  8
THREE_QUARTER_INCH_THRUCUT
 10
29.48686734054872
 20
11.14892119089976
 30
0.0
  0
VERTEX
  5
391
  8
THREE_QUARTER_INCH_THRUCUT
 10
29.22686734054867
 20
11.14892119089976
 30
0.0
  0
VERTEX
  5
392
  8
THREE_QUARTER_INCH_THRUCUT
 10
29.22686734054867
 20
10.66174428653742
 30
0.0
  0
VERTEX
  5
393
  8
THREE_QUARTER_INCH_THRUCUT
 10
28.54071157059708
 20
10.66174428654742
 30
0.0
 42
1.0
  0
VERTEX
  5
394
  8
THREE_QUARTER_INCH_THRUCUT
 10
28.35686380750008
 20
10.47789881180845
 30
0.0
  0
VERTEX
  5
395
  8
THREE_QUARTER_INCH_THRUCUT
 10
28.35686216069485
 20
10.34559436335301
 30
0.0
 42
1.0
  0
VERTEX
  5
396
  8
THREE_QUARTER_INCH_THRUCUT
 10
28.54070992985942
 20
10.16174431187503
 30
0.0
  0
VERTEX
  5
397
  8
THREE_QUARTER_INCH_THRUCUT
 10
29.22686734054867
 20
10.16174433453032
 30
0.0
  0
VERTEX
  5
398
  8
THREE_QUARTER_INCH_THRUCUT
 10
29.22686734054884
 20
9.561744082665932
 30
0.0
  0
VERTEX
  5
399
  8
THREE_QUARTER_INCH_THRUCUT
 10
18.4868673405486
 20
9.561744065686064
 30
0.0
  0
VERTEX
  5
39A
  8
THREE_QUARTER_INCH_THRUCUT
 10
18.48686734054878
 20
10.16174433453032
 30
0.0
  0
VERTEX
  5
39B
  8
THREE_QUARTER_INCH_THRUCUT
 10
19.17302475123802
 20
10.16174431187503
 30
0.0
 42
1.0
  0
VERTEX
  5
39C
  8
THREE_QUARTER_INCH_THRUCUT
 10
19.3568725204026
 20
10.34559436335301
 30
0.0
  0
VERTEX
  5
39D
  8
THREE_QUARTER_INCH_THRUCUT
 10
19.35687087359737
 20
10.47789881180845
 30
0.0
 42
1.0
  0
VERTEX
  5
39E
  8
THREE_QUARTER_INCH_THRUCUT
 10
19.17302311050037
 20
10.66174428654742
 30
0.0
  0
VERTEX
  5
39F
  8
THREE_QUARTER_INCH_THRUCUT
 10
18.48686734054878
 20
10.66174428653742
 30
0.0
  0
VERTEX
  5
3A0
  8
THREE_QUARTER_INCH_THRUCUT
 10
18.48686734054872
 20
11.14892119089976
 30
0.0
  0
VERTEX
  5
3A1
  8
THREE_QUARTER_INCH_THRUCUT
 10
18.22686734054867
 20
11.14892119089976
 30
0.0
  0
VERTEX
  5
3A2
  8
THREE_QUARTER_INCH_THRUCUT
 10
18.22686734054867
 20
10.66174428653742
 30
0.0
  0
VERTEX
  5
3A3
  8
THREE_QUARTER_INCH_THRUCUT
 10
17.54071157059708
 20
10.66174428654742
 30
0.0
 42
1.0
  0
VERTEX
  5
3A4
  8
THREE_QUARTER_INCH_THRUCUT
 10
17.35686380750008
 20
10.47789881180845
 30
0.0
  0
VERTEX
  5
3A5
  8
THREE_QUARTER_INCH_THRUCUT
 10
17.35686216069485
 20
10.34559436335301
 30
0.0
 42
1.0
  0
VERTEX
  5
3A6
  8
THREE_QUARTER_INCH_THRUCUT
 10
17.54070992985942
 20
10.16174431187503
 30
0.0
  0
VERTEX
  5
3A7
  8
THREE_QUARTER_INCH_THRUCUT
 10
18.22686734054867
 20
10.16174433453032
 30
0.0
  0
VERTEX
  5
3A8
  8
THREE_QUARTER_INCH_THRUCUT
 10
18.22686734054884
 20
9.561744082665932
 30
0.0
  0
VERTEX
  5
3A9
  8
THREE_QUARTER_INCH_THRUCUT
 10
14.09765474212438
 20
9.561744074176055
 30
0.0
 42
1.0
  0
VERTEX
  5
3AA
  8
THREE_QUARTER_INCH_THRUCUT
 10
13.83686734054957
 20
9.561744074176055
 30
0.0
  0
VERTEX
  5
3AB
  8
THREE_QUARTER_INCH_THRUCUT
 10
13.83686734054878
 20
9.061744074176055
 30
0.0
  0
VERTEX
  5
3AC
  8
THREE_QUARTER_INCH_THRUCUT
 10
11.83686734054878
 20
9.061744074176055
 30
0.0
  0
VERTEX
  5
3AD
  8
THREE_QUARTER_INCH_THRUCUT
 10
11.83686734054878
 20
9.561744074176055
 30
0.0
 42
1.0
  0
VERTEX
  5
3AE
  8
THREE_QUARTER_INCH_THRUCUT
 10
11.57607993897555
 20
9.561744074176055
 30
0.0
  0
VERTEX
  5
3AF
  8
THREE_QUARTER_INCH_THRUCUT
 10
7.486867340548647
 20
9.561744065686021
 30
0.0
  0
VERTEX
  5
3B0
  8
THREE_QUARTER_INCH_THRUCUT
 10
7.486867340548775
 20
10.16174433453032
 30
0.0
  0
VERTEX
  5
3B1
  8
THREE_QUARTER_INCH_THRUCUT
 10
8.173024751238023
 20
10.16174431187503
 30
0.0
 42
1.0
  0
VERTEX
  5
3B2
  8
THREE_QUARTER_INCH_THRUCUT
 10
8.356872520402595
 20
10.34559436335301
 30
0.0
  0
VERTEX
  5
3B3
  8
THREE_QUARTER_INCH_THRUCUT
 10
8.356870873597364
 20
10.47789881180845
 30
0.0
 42
1.0
  0
VERTEX
  5
3B4
  8
THREE_QUARTER_INCH_THRUCUT
 10
8.173023110500372
 20
10.66174428654742
 30
0.0
  0
VERTEX
  5
3B5
  8
THREE_QUARTER_INCH_THRUCUT
 10
7.486867340548775
 20
10.66174428653742
 30
0.0
  0
VERTEX
  5
3B6
  8
THREE_QUARTER_INCH_THRUCUT
 10
7.486867340548718
 20
11.14892119089976
 30
0.0
  0
VERTEX
  5
3B7
  8
THREE_QUARTER_INCH_THRUCUT
 10
7.226867340548671
 20
11.14892119089976
 30
0.0
  0
VERTEX
  5
3B8
  8
THREE_QUARTER_INCH_THRUCUT
 10
7.226867340548671
 20
10.66174428653742
 30
0.0
  0
VERTEX
  5
3B9
  8
THREE_QUARTER_INCH_THRUCUT
 10
6.540711570597074
 20
10.66174428654742
 30
0.0
 42
1.0
  0
VERTEX
  5
3BA
  8
THREE_QUARTER_INCH_THRUCUT
 10
6.356863807500082
 20
10.47789881180845
 30
0.0
  0
VERTEX
  5
3BB
  8
THREE_QUARTER_INCH_THRUCUT
 10
6.356862160694851
 20
10.34559436335301
 30
0.0
 42
1.0
  0
VERTEX
  5
3BC
  8
THREE_QUARTER_INCH_THRUCUT
 10
6.540709929859423
 20
10.16174431187503
 30
0.0
  0
VERTEX
  5
3BD
  8
THREE_QUARTER_INCH_THRUCUT
 10
7.226867340548671
 20
10.16174433453032
 30
0.0
  0
SEQEND
  5
3DD
  8
THREE_QUARTER_INCH_THRUCUT
  0
ENDSEC
  0
EOF
