  0
SECTION
  2
HEADER
  9
$ACADVER
  1
AC1009
  9
$DWGCODEPAGE
  3
ansi_1252
  9
$INSBASE
 10
0.0
 20
0.0
 30
0.0
  9
$EXTMIN
 10
1.364735059010053
 20
2.103657062263038
 30
0.0
  9
$EXTMAX
 10
90.5911577545493
 20
44.97612538985231
 30
0.0
  9
$LIMMIN
 10
0.0
 20
0.0
  9
$LIMMAX
 10
12.0
 20
9.0
  9
$ORTHOMODE
 70
     0
  9
$REGENMODE
 70
     1
  9
$FILLMODE
 70
     1
  9
$QTEXTMODE
 70
     0
  9
$MIRRTEXT
 70
     1
  9
$DRAGMODE
 70
     2
  9
$LTSCALE
 40
1.0
  9
$OSMODE
 70
    37
  9
$ATTMODE
 70
     1
  9
$TEXTSIZE
 40
0.2
  9
$TRACEWID
 40
0.05
  9
$TEXTSTYLE
  7
STANDARD
  9
$CLAYER
  8
0
  9
$CELTYPE
  6
BYLAYER
  9
$CECOLOR
 62
   256
  9
$DIMSCALE
 40
1.0
  9
$DIMASZ
 40
0.18
  9
$DIMEXO
 40
0.0625
  9
$DIMDLI
 40
0.38
  9
$DIMRND
 40
0.0
  9
$DIMDLE
 40
0.0
  9
$DIMEXE
 40
0.18
  9
$DIMTP
 40
0.0
  9
$DIMTM
 40
0.0
  9
$DIMTXT
 40
0.18
  9
$DIMCEN
 40
0.09
  9
$DIMTSZ
 40
0.0
  9
$DIMTOL
 70
     0
  9
$DIMLIM
 70
     0
  9
$DIMTIH
 70
     1
  9
$DIMTOH
 70
     1
  9
$DIMSE1
 70
     0
  9
$DIMSE2
 70
     0
  9
$DIMTAD
 70
     0
  9
$DIMZIN
 70
     0
  9
$DIMBLK
  1

  9
$DIMASO
 70
     1
  9
$DIMSHO
 70
     1
  9
$DIMPOST
  1

  9
$DIMAPOST
  1

  9
$DIMALT
 70
     0
  9
$DIMALTD
 70
     2
  9
$DIMALTF
 40
25.4
  9
$DIMLFAC
 40
1.0
  9
$DIMTOFL
 70
     0
  9
$DIMTVP
 40
0.0
  9
$DIMTIX
 70
     0
  9
$DIMSOXD
 70
     0
  9
$DIMSAH
 70
     0
  9
$DIMBLK1
  1

  9
$DIMBLK2
  1

  9
$DIMSTYLE
  2
STANDARD
  9
$DIMCLRD
 70
     0
  9
$DIMCLRE
 70
     0
  9
$DIMCLRT
 70
     0
  9
$DIMTFAC
 40
1.0
  9
$DIMGAP
 40
0.09
  9
$LUNITS
 70
     2
  9
$LUPREC
 70
     4
  9
$SKETCHINC
 40
0.1
  9
$FILLETRAD
 40
0.5
  9
$AUNITS
 70
     0
  9
$AUPREC
 70
     0
  9
$MENU
  1
.
  9
$ELEVATION
 40
0.0
  9
$PELEVATION
 40
0.0
  9
$THICKNESS
 40
0.0
  9
$LIMCHECK
 70
     0
  9
$CHAMFERA
 40
0.0
  9
$CHAMFERB
 40
0.0
  9
$SKPOLY
 70
     0
  9
$TDCREATE
 40
2454910.5
  9
$TDUPDATE
 40
2457884.616791887
  9
$TDINDWG
 40
0.0000000116
  9
$TDUSRTIMER
 40
0.0000000116
  9
$USRTIMER
 70
     1
  9
$ANGBASE
 50
0.0
  9
$ANGDIR
 70
     0
  9
$PDMODE
 70
     0
  9
$PDSIZE
 40
0.0
  9
$PLINEWID
 40
0.0
  9
$COORDS
 70
     1
  9
$SPLFRAME
 70
     0
  9
$SPLINETYPE
 70
     6
  9
$SPLINESEGS
 70
     8
  9
$ATTDIA
 70
     0
  9
$ATTREQ
 70
     1
  9
$HANDLING
 70
     1
  9
$HANDSEED
  5
320
  9
$SURFTAB1
 70
     6
  9
$SURFTAB2
 70
     6
  9
$SURFTYPE
 70
     6
  9
$SURFU
 70
     6
  9
$SURFV
 70
     6
  9
$UCSNAME
  2

  9
$UCSORG
 10
0.0
 20
0.0
 30
0.0
  9
$UCSXDIR
 10
1.0
 20
0.0
 30
0.0
  9
$UCSYDIR
 10
0.0
 20
1.0
 30
0.0
  9
$PUCSNAME
  2

  9
$PUCSORG
 10
0.0
 20
0.0
 30
0.0
  9
$PUCSXDIR
 10
1.0
 20
0.0
 30
0.0
  9
$PUCSYDIR
 10
0.0
 20
1.0
 30
0.0
  9
$USERI1
 70
     0
  9
$USERI2
 70
     0
  9
$USERI3
 70
     0
  9
$USERI4
 70
     0
  9
$USERI5
 70
     0
  9
$USERR1
 40
0.0
  9
$USERR2
 40
0.0
  9
$USERR3
 40
0.0
  9
$USERR4
 40
0.0
  9
$USERR5
 40
0.0
  9
$WORLDVIEW
 70
     1
  9
$SHADEDGE
 70
     3
  9
$SHADEDIF
 70
    70
  9
$TILEMODE
 70
     1
  9
$MAXACTVP
 70
    64
  9
$PLIMCHECK
 70
     0
  9
$PEXTMIN
 10
1.000000000000000E+20
 20
1.000000000000000E+20
 30
1.000000000000000E+20
  9
$PEXTMAX
 10
-1.000000000000000E+20
 20
-1.000000000000000E+20
 30
-1.000000000000000E+20
  9
$PLIMMIN
 10
0.0
 20
0.0
  9
$PLIMMAX
 10
12.0
 20
9.0
  9
$UNITMODE
 70
     0
  9
$VISRETAIN
 70
     1
  9
$PLINEGEN
 70
     0
  9
$PSLTSCALE
 70
     1
  0
ENDSEC
  0
SECTION
  2
TABLES
  0
TABLE
  2
VPORT
 70
     1
  0
VPORT
  2
*ACTIVE
 70
     0
 10
0.0
 20
0.0
 11
1.0
 21
1.0
 12
10.42990654205607
 22
4.5
 13
0.0
 23
0.0
 14
0.5
 24
0.5
 15
0.5
 25
0.5
 16
0.0
 26
0.0
 36
1.0
 17
0.0
 27
0.0
 37
0.0
 40
9.0
 41
1.972972972850329
 42
50.0
 43
0.0
 44
0.0
 50
0.0
 51
0.0
 71
     0
 72
   100
 73
     1
 74
     3
 75
     0
 76
     0
 77
     0
 78
     0
  0
ENDTAB
  0
TABLE
  2
LTYPE
 70
     2
  0
LTYPE
  2
CONTINUOUS
 70
     0
  3
Solid line
 72
    65
 73
     0
 40
0.0
  0
LTYPE
  2
CONTINUOUS2
 70
     0
  3
Solid Line
 72
    65
 73
     0
 40
0.0
  0
ENDTAB
  0
TABLE
  2
LAYER
 70
     3
  0
LAYER
  2
0
 70
     0
 62
     7
  6
CONTINUOUS
  0
LAYER
  2
THREE_QUARTER_INCH_THRUCUT
 70
     0
 62
    18
  6
CONTINUOUS
  0
LAYER
  2
LABELS
 70
     0
 62
     5
  6
CONTINUOUS
  0
ENDTAB
  0
TABLE
  2
STYLE
 70
     1
  0
STYLE
  2
STANDARD
 70
     0
 40
0.0
 41
1.0
 50
0.0
 71
     0
 42
0.2
  3
txt
  4

  0
ENDTAB
  0
TABLE
  2
VIEW
 70
     0
  0
ENDTAB
  0
TABLE
  2
UCS
 70
     0
  0
ENDTAB
  0
TABLE
  2
APPID
 70
     1
  0
APPID
  2
ACAD
 70
     0
  0
ENDTAB
  0
TABLE
  2
DIMSTYLE
 70
     1
  0
DIMSTYLE
  2
STANDARD
 70
     0
  3

  4

  5

  6

  7

 40
1.0
 41
0.18
 42
0.0625
 43
0.38
 44
0.18
 45
0.0
 46
0.0
 47
0.0
 48
0.0
140
0.18
141
0.09
142
0.0
143
25.4
144
1.0
145
0.0
146
1.0
147
0.09
 71
     0
 72
     0
 73
     1
 74
     1
 75
     0
 76
     0
 77
     0
 78
     0
170
     0
171
     2
172
     0
173
     0
174
     0
175
     0
176
     0
177
     0
178
     0
  0
ENDTAB
  0
ENDSEC
  0
SECTION
  2
BLOCKS
  0
BLOCK
  8
0
  2
$MODEL_SPACE
 70
     0
 10
0.0
 20
0.0
 30
0.0
  3
$MODEL_SPACE
  1

  0
ENDBLK
  5
21
  8
0
  0
BLOCK
 67
     1
  8
0
  2
$PAPER_SPACE
 70
     0
 10
0.0
 20
0.0
 30
0.0
  3
$PAPER_SPACE
  1

  0
ENDBLK
  5
1D
 67
     1
  8
0
  0
ENDSEC
  0
SECTION
  2
ENTITIES
  0
POLYLINE
  5
70
  8
THREE_QUARTER_INCH_THRUCUT
 66
     1
 10
0.0
 20
0.0
 30
0.0
 70
     1
  0
VERTEX
  5
9C
  8
THREE_QUARTER_INCH_THRUCUT
 10
6.181978512454304
 20
19.86165179684015
 30
0.0
 42
0.961490096133456
  0
VERTEX
  5
9D
  8
THREE_QUARTER_INCH_THRUCUT
 10
6.228960929060714
 20
19.4647400725626
 30
0.0
 42
0.9614707681241729
  0
VERTEX
  5
9E
  8
THREE_QUARTER_INCH_THRUCUT
 10
6.213265512454305
 20
19.86411479684015
 30
0.0
 42
0.0196430313934635
  0
VERTEX
  5
9F
  8
THREE_QUARTER_INCH_THRUCUT
 10
6.197577630274274
 20
19.86349826346556
 30
0.0
 42
0.0196329840983488
  0
SEQEND
  5
2FC
  8
THREE_QUARTER_INCH_THRUCUT
  0
POLYLINE
  5
71
  8
THREE_QUARTER_INCH_THRUCUT
 66
     1
 10
0.0
 20
0.0
 30
0.0
 70
     1
  0
VERTEX
  5
A0
  8
THREE_QUARTER_INCH_THRUCUT
 10
28.1785355124543
 20
19.86107579684015
 30
0.0
 42
0.9203497392141604
  0
VERTEX
  5
A1
  8
THREE_QUARTER_INCH_THRUCUT
 10
28.21500978625604
 20
19.46413585348325
 30
0.0
 42
0.920351574329487
  0
VERTEX
  5
A2
  8
THREE_QUARTER_INCH_THRUCUT
 10
28.2445515124543
 20
19.86165179684015
 30
0.0
 42
0.0414759603059265
  0
VERTEX
  5
A3
  8
THREE_QUARTER_INCH_THRUCUT
 10
28.21151918345769
 20
19.86410662169741
 30
0.0
 42
0.0414769555563666
  0
SEQEND
  5
2FD
  8
THREE_QUARTER_INCH_THRUCUT
  0
POLYLINE
  5
72
  8
THREE_QUARTER_INCH_THRUCUT
 66
     1
 10
0.0
 20
0.0
 30
0.0
 70
     1
  0
VERTEX
  5
A4
  8
THREE_QUARTER_INCH_THRUCUT
 10
50.18197851245429
 20
19.86165179684015
 30
0.0
 42
0.9614900961335096
  0
VERTEX
  5
A5
  8
THREE_QUARTER_INCH_THRUCUT
 10
50.22896092906069
 20
19.46474007256227
 30
0.0
 42
0.9614707681242158
  0
VERTEX
  5
A6
  8
THREE_QUARTER_INCH_THRUCUT
 10
50.21326551245428
 20
19.86411479684015
 30
0.0
 42
0.0196430313934835
  0
VERTEX
  5
A7
  8
THREE_QUARTER_INCH_THRUCUT
 10
50.19757763027425
 20
19.86349826346556
 30
0.0
 42
0.0196329840981646
  0
SEQEND
  5
2FE
  8
THREE_QUARTER_INCH_THRUCUT
  0
POLYLINE
  5
73
  8
THREE_QUARTER_INCH_THRUCUT
 66
     1
 10
0.0
 20
0.0
 30
0.0
 70
     1
  0
VERTEX
  5
A8
  8
THREE_QUARTER_INCH_THRUCUT
 10
75.18198051245426
 20
20.36160779684016
 30
0.0
 42
0.9614900961334168
  0
VERTEX
  5
A9
  8
THREE_QUARTER_INCH_THRUCUT
 10
75.22896292906066
 20
19.96469607256274
 30
0.0
 42
0.9614707681242272
  0
VERTEX
  5
AA
  8
THREE_QUARTER_INCH_THRUCUT
 10
75.21326751245428
 20
20.36407079684016
 30
0.0
 42
0.0196430313934347
  0
VERTEX
  5
AB
  8
THREE_QUARTER_INCH_THRUCUT
 10
75.19757963027422
 20
20.36345426346555
 30
0.0
 42
0.0196329840982132
  0
SEQEND
  5
2FF
  8
THREE_QUARTER_INCH_THRUCUT
  0
POLYLINE
  5
74
  8
THREE_QUARTER_INCH_THRUCUT
 66
     1
 10
0.0
 20
0.0
 30
0.0
 70
     1
  0
VERTEX
  5
AC
  8
THREE_QUARTER_INCH_THRUCUT
 10
8.573907189140634
 20
5.801150812263037
 30
0.0
 42
0.9614900961334168
  0
VERTEX
  5
AD
  8
THREE_QUARTER_INCH_THRUCUT
 10
8.620889605747017
 20
5.404239087985621
 30
0.0
 42
0.9614707681242272
  0
VERTEX
  5
AE
  8
THREE_QUARTER_INCH_THRUCUT
 10
8.605194189140654
 20
5.803613812263036
 30
0.0
 42
0.0196430313934347
  0
VERTEX
  5
AF
  8
THREE_QUARTER_INCH_THRUCUT
 10
8.589506306960594
 20
5.802997278888432
 30
0.0
 42
0.0196329840982132
  0
SEQEND
  5
300
  8
THREE_QUARTER_INCH_THRUCUT
  0
POLYLINE
  5
75
  8
THREE_QUARTER_INCH_THRUCUT
 66
     1
 10
0.0
 20
0.0
 30
0.0
 70
     1
  0
VERTEX
  5
B0
  8
THREE_QUARTER_INCH_THRUCUT
 10
33.57390518914067
 20
5.301194812263033
 30
0.0
 42
0.9614900961335152
  0
VERTEX
  5
B1
  8
THREE_QUARTER_INCH_THRUCUT
 10
33.62088760574706
 20
4.904283087985155
 30
0.0
 42
0.9614707681242143
  0
VERTEX
  5
B2
  8
THREE_QUARTER_INCH_THRUCUT
 10
33.60519218914066
 20
5.303657812263031
 30
0.0
 42
0.0196430313935235
  0
VERTEX
  5
B3
  8
THREE_QUARTER_INCH_THRUCUT
 10
33.58950430696064
 20
5.303041278888434
 30
0.0
 42
0.0196329840980716
  0
SEQEND
  5
301
  8
THREE_QUARTER_INCH_THRUCUT
  0
POLYLINE
  5
76
  8
THREE_QUARTER_INCH_THRUCUT
 66
     1
 10
0.0
 20
0.0
 30
0.0
 70
     1
  0
VERTEX
  5
B4
  8
THREE_QUARTER_INCH_THRUCUT
 10
55.63992218914066
 20
5.300618812263044
 30
0.0
 42
-0.9203497392142354
  0
VERTEX
  5
B5
  8
THREE_QUARTER_INCH_THRUCUT
 10
55.60344791533887
 20
4.903678868906082
 30
0.0
 42
-0.9203515743295231
  0
VERTEX
  5
B6
  8
THREE_QUARTER_INCH_THRUCUT
 10
55.57390618914061
 20
5.301194812263047
 30
0.0
 42
-0.0414759603059335
  0
VERTEX
  5
B7
  8
THREE_QUARTER_INCH_THRUCUT
 10
55.60693851813723
 20
5.3036496371203
 30
0.0
 42
-0.041476955556153
  0
SEQEND
  5
302
  8
THREE_QUARTER_INCH_THRUCUT
  0
POLYLINE
  5
77
  8
THREE_QUARTER_INCH_THRUCUT
 66
     1
 10
0.0
 20
0.0
 30
0.0
 70
     1
  0
VERTEX
  5
B8
  8
THREE_QUARTER_INCH_THRUCUT
 10
77.63647918914066
 20
5.301194812263047
 30
0.0
 42
-0.9614900961334423
  0
VERTEX
  5
B9
  8
THREE_QUARTER_INCH_THRUCUT
 10
77.58949677253426
 20
4.904283087985332
 30
0.0
 42
-0.9614707681242259
  0
VERTEX
  5
BA
  8
THREE_QUARTER_INCH_THRUCUT
 10
77.60519218914064
 20
5.303657812263038
 30
0.0
 42
-0.0196430313934435
  0
VERTEX
  5
BB
  8
THREE_QUARTER_INCH_THRUCUT
 10
77.62088007132067
 20
5.303041278888442
 30
0.0
 42
-0.0196329840985384
  0
SEQEND
  5
303
  8
THREE_QUARTER_INCH_THRUCUT
  0
POLYLINE
  5
78
  8
THREE_QUARTER_INCH_THRUCUT
 66
     1
 10
0.0
 20
0.0
 30
0.0
 70
     1
  0
VERTEX
  5
BC
  8
THREE_QUARTER_INCH_THRUCUT
 10
1.695183512454297
 20
23.16411404684016
 30
0.0
  0
VERTEX
  5
BD
  8
THREE_QUARTER_INCH_THRUCUT
 10
1.695183512454301
 20
19.66411479684016
 30
0.0
 42
0.4142135572611445
  0
VERTEX
  5
BE
  8
THREE_QUARTER_INCH_THRUCUT
 10
4.695183486274363
 20
16.66411479684016
 30
0.0
  0
VERTEX
  5
BF
  8
THREE_QUARTER_INCH_THRUCUT
 10
81.21326551245429
 20
16.66411404684016
 30
0.0
  0
VERTEX
  5
C0
  8
THREE_QUARTER_INCH_THRUCUT
 10
82.18181502025163
 20
17.6325646328285
 30
0.0
 42
0.4142135623730944
  0
VERTEX
  5
C1
  8
THREE_QUARTER_INCH_THRUCUT
 10
82.18181502025163
 20
18.94566369299465
 30
0.0
  0
VERTEX
  5
C2
  8
THREE_QUARTER_INCH_THRUCUT
 10
80.24471600465691
 20
20.88256440068566
 30
0.0
 42
-0.4142135623730946
  0
VERTEX
  5
C3
  8
THREE_QUARTER_INCH_THRUCUT
 10
80.24471600465691
 20
22.19566346085181
 30
0.0
  0
VERTEX
  5
C4
  8
THREE_QUARTER_INCH_THRUCUT
 10
81.21326551245429
 20
23.16411404684016
 30
0.0
  0
VERTEX
  5
C5
  8
THREE_QUARTER_INCH_THRUCUT
 10
70.58826551245429
 20
23.16411404684016
 30
0.0
  0
VERTEX
  5
C6
  8
THREE_QUARTER_INCH_THRUCUT
 10
70.58826551245429
 20
22.04411479684016
 30
0.0
 42
-1.0
  0
VERTEX
  5
C7
  8
THREE_QUARTER_INCH_THRUCUT
 10
70.58826551245429
 20
21.66411479684016
 30
0.0
  0
VERTEX
  5
C8
  8
THREE_QUARTER_INCH_THRUCUT
 10
69.83826551245429
 20
21.66411479684016
 30
0.0
 42
-1.0
  0
VERTEX
  5
C9
  8
THREE_QUARTER_INCH_THRUCUT
 10
69.83826551245429
 20
22.04411479684016
 30
0.0
  0
VERTEX
  5
CA
  8
THREE_QUARTER_INCH_THRUCUT
 10
69.83826551245429
 20
23.16411404684016
 30
0.0
  0
VERTEX
  5
CB
  8
THREE_QUARTER_INCH_THRUCUT
 10
48.5882655124543
 20
23.16411404684016
 30
0.0
  0
VERTEX
  5
CC
  8
THREE_QUARTER_INCH_THRUCUT
 10
48.5882655124543
 20
22.04411479684016
 30
0.0
 42
-1.0
  0
VERTEX
  5
CD
  8
THREE_QUARTER_INCH_THRUCUT
 10
48.5882655124543
 20
21.66411479684016
 30
0.0
  0
VERTEX
  5
CE
  8
THREE_QUARTER_INCH_THRUCUT
 10
47.8382655124543
 20
21.66411479684016
 30
0.0
 42
-1.0
  0
VERTEX
  5
CF
  8
THREE_QUARTER_INCH_THRUCUT
 10
47.8382655124543
 20
22.04411479684016
 30
0.0
  0
VERTEX
  5
D0
  8
THREE_QUARTER_INCH_THRUCUT
 10
47.8382655124543
 20
23.16411404684016
 30
0.0
  0
VERTEX
  5
D1
  8
THREE_QUARTER_INCH_THRUCUT
 10
26.5882655124543
 20
23.16411404684016
 30
0.0
  0
VERTEX
  5
D2
  8
THREE_QUARTER_INCH_THRUCUT
 10
26.58826551245431
 20
22.04411479684016
 30
0.0
 42
-1.0
  0
VERTEX
  5
D3
  8
THREE_QUARTER_INCH_THRUCUT
 10
26.58826551245431
 20
21.66411479684016
 30
0.0
  0
VERTEX
  5
D4
  8
THREE_QUARTER_INCH_THRUCUT
 10
25.83826551245431
 20
21.66411479684016
 30
0.0
 42
-1.0
  0
VERTEX
  5
D5
  8
THREE_QUARTER_INCH_THRUCUT
 10
25.83826551245431
 20
22.04411479684016
 30
0.0
  0
VERTEX
  5
D6
  8
THREE_QUARTER_INCH_THRUCUT
 10
25.83826551245432
 20
23.16411404684016
 30
0.0
  0
VERTEX
  5
D7
  8
THREE_QUARTER_INCH_THRUCUT
 10
4.588265512454294
 20
23.16411404684016
 30
0.0
  0
VERTEX
  5
D8
  8
THREE_QUARTER_INCH_THRUCUT
 10
4.588265512454301
 20
22.04411479684016
 30
0.0
 42
-1.0
  0
VERTEX
  5
D9
  8
THREE_QUARTER_INCH_THRUCUT
 10
4.588265512454301
 20
21.66411479684016
 30
0.0
  0
VERTEX
  5
DA
  8
THREE_QUARTER_INCH_THRUCUT
 10
3.838265512454301
 20
21.66411479684016
 30
0.0
 42
-1.0
  0
VERTEX
  5
DB
  8
THREE_QUARTER_INCH_THRUCUT
 10
3.838265512454301
 20
22.04411479684016
 30
0.0
  0
VERTEX
  5
DC
  8
THREE_QUARTER_INCH_THRUCUT
 10
3.838265512454301
 20
23.16411404684016
 30
0.0
  0
SEQEND
  5
304
  8
THREE_QUARTER_INCH_THRUCUT
  0
POLYLINE
  5
79
  8
THREE_QUARTER_INCH_THRUCUT
 66
     1
 10
0.0
 20
0.0
 30
0.0
 70
     1
  0
VERTEX
  5
DD
  8
THREE_QUARTER_INCH_THRUCUT
 10
2.605192189140659
 20
2.103657062263038
 30
0.0
  0
VERTEX
  5
DE
  8
THREE_QUARTER_INCH_THRUCUT
 10
79.12327421532058
 20
2.103657812263036
 30
0.0
 42
0.4142135572611445
  0
VERTEX
  5
DF
  8
THREE_QUARTER_INCH_THRUCUT
 10
82.12327418914066
 20
5.103657812263036
 30
0.0
  0
VERTEX
  5
E0
  8
THREE_QUARTER_INCH_THRUCUT
 10
82.12327418914062
 20
8.603657062263038
 30
0.0
  0
VERTEX
  5
E1
  8
THREE_QUARTER_INCH_THRUCUT
 10
79.98019218914065
 20
8.603657062263038
 30
0.0
  0
VERTEX
  5
E2
  8
THREE_QUARTER_INCH_THRUCUT
 10
79.98019218914067
 20
7.483657812263031
 30
0.0
 42
-1.0
  0
VERTEX
  5
E3
  8
THREE_QUARTER_INCH_THRUCUT
 10
79.98019218914067
 20
7.103657812263036
 30
0.0
  0
VERTEX
  5
E4
  8
THREE_QUARTER_INCH_THRUCUT
 10
79.23019218914067
 20
7.103657812263036
 30
0.0
 42
-1.0
  0
VERTEX
  5
E5
  8
THREE_QUARTER_INCH_THRUCUT
 10
79.23019218914067
 20
7.483657812263031
 30
0.0
  0
VERTEX
  5
E6
  8
THREE_QUARTER_INCH_THRUCUT
 10
79.23019218914067
 20
8.603657062263038
 30
0.0
  0
VERTEX
  5
E7
  8
THREE_QUARTER_INCH_THRUCUT
 10
57.98019218914065
 20
8.603657062263038
 30
0.0
  0
VERTEX
  5
E8
  8
THREE_QUARTER_INCH_THRUCUT
 10
57.98019218914066
 20
7.483657812263031
 30
0.0
 42
-1.0
  0
VERTEX
  5
E9
  8
THREE_QUARTER_INCH_THRUCUT
 10
57.98019218914066
 20
7.103657812263036
 30
0.0
  0
VERTEX
  5
EA
  8
THREE_QUARTER_INCH_THRUCUT
 10
57.23019218914066
 20
7.103657812263036
 30
0.0
 42
-1.0
  0
VERTEX
  5
EB
  8
THREE_QUARTER_INCH_THRUCUT
 10
57.23019218914066
 20
7.483657812263031
 30
0.0
  0
VERTEX
  5
EC
  8
THREE_QUARTER_INCH_THRUCUT
 10
57.23019218914067
 20
8.603657062263038
 30
0.0
  0
VERTEX
  5
ED
  8
THREE_QUARTER_INCH_THRUCUT
 10
35.98019218914066
 20
8.603657062263038
 30
0.0
  0
VERTEX
  5
EE
  8
THREE_QUARTER_INCH_THRUCUT
 10
35.98019218914066
 20
7.483657812263031
 30
0.0
 42
-1.0
  0
VERTEX
  5
EF
  8
THREE_QUARTER_INCH_THRUCUT
 10
35.98019218914066
 20
7.103657812263036
 30
0.0
  0
VERTEX
  5
F0
  8
THREE_QUARTER_INCH_THRUCUT
 10
35.23019218914066
 20
7.103657812263036
 30
0.0
 42
-1.0
  0
VERTEX
  5
F1
  8
THREE_QUARTER_INCH_THRUCUT
 10
35.23019218914066
 20
7.483657812263031
 30
0.0
  0
VERTEX
  5
F2
  8
THREE_QUARTER_INCH_THRUCUT
 10
35.23019218914067
 20
8.603657062263038
 30
0.0
  0
VERTEX
  5
F3
  8
THREE_QUARTER_INCH_THRUCUT
 10
13.98019218914066
 20
8.603657062263038
 30
0.0
  0
VERTEX
  5
F4
  8
THREE_QUARTER_INCH_THRUCUT
 10
13.98019218914066
 20
7.483657812263031
 30
0.0
 42
-1.0
  0
VERTEX
  5
F5
  8
THREE_QUARTER_INCH_THRUCUT
 10
13.98019218914066
 20
7.103657812263036
 30
0.0
  0
VERTEX
  5
F6
  8
THREE_QUARTER_INCH_THRUCUT
 10
13.23019218914066
 20
7.103657812263036
 30
0.0
 42
-1.0
  0
VERTEX
  5
F7
  8
THREE_QUARTER_INCH_THRUCUT
 10
13.23019218914066
 20
7.483657812263031
 30
0.0
  0
VERTEX
  5
F8
  8
THREE_QUARTER_INCH_THRUCUT
 10
13.23019218914066
 20
8.603657062263038
 30
0.0
  0
VERTEX
  5
F9
  8
THREE_QUARTER_INCH_THRUCUT
 10
2.605192189140659
 20
8.603657062263038
 30
0.0
  0
VERTEX
  5
FA
  8
THREE_QUARTER_INCH_THRUCUT
 10
1.636642681343287
 20
7.635206476274691
 30
0.0
 42
0.4142135623730946
  0
VERTEX
  5
FB
  8
THREE_QUARTER_INCH_THRUCUT
 10
1.636642681343287
 20
6.322107416108544
 30
0.0
  0
VERTEX
  5
FC
  8
THREE_QUARTER_INCH_THRUCUT
 10
3.573741696938005
 20
4.385206708417531
 30
0.0
 42
-0.4142135623730944
  0
VERTEX
  5
FD
  8
THREE_QUARTER_INCH_THRUCUT
 10
3.573741696938005
 20
3.072107648251384
 30
0.0
  0
SEQEND
  5
305
  8
THREE_QUARTER_INCH_THRUCUT
  0
POLYLINE
  5
7A
  8
THREE_QUARTER_INCH_THRUCUT
 66
     1
 10
0.0
 20
0.0
 30
0.0
 70
     1
  0
VERTEX
  5
FE
  8
THREE_QUARTER_INCH_THRUCUT
 10
8.573907189140634
 20
13.05115081226304
 30
0.0
 42
0.9614900961334168
  0
VERTEX
  5
FF
  8
THREE_QUARTER_INCH_THRUCUT
 10
8.620889605747017
 20
12.65423908798562
 30
0.0
 42
0.9614707681242272
  0
VERTEX
  5
100
  8
THREE_QUARTER_INCH_THRUCUT
 10
8.605194189140654
 20
13.05361381226304
 30
0.0
 42
0.0196430313934347
  0
VERTEX
  5
101
  8
THREE_QUARTER_INCH_THRUCUT
 10
8.589506306960594
 20
13.05299727888843
 30
0.0
 42
0.0196329840982132
  0
SEQEND
  5
306
  8
THREE_QUARTER_INCH_THRUCUT
  0
POLYLINE
  5
7B
  8
THREE_QUARTER_INCH_THRUCUT
 66
     1
 10
0.0
 20
0.0
 30
0.0
 70
     1
  0
VERTEX
  5
102
  8
THREE_QUARTER_INCH_THRUCUT
 10
33.57390518914067
 20
12.55119481226303
 30
0.0
 42
0.9614900961335152
  0
VERTEX
  5
103
  8
THREE_QUARTER_INCH_THRUCUT
 10
33.62088760574706
 20
12.15428308798515
 30
0.0
 42
0.9614707681242143
  0
VERTEX
  5
104
  8
THREE_QUARTER_INCH_THRUCUT
 10
33.60519218914066
 20
12.55365781226303
 30
0.0
 42
0.0196430313935235
  0
VERTEX
  5
105
  8
THREE_QUARTER_INCH_THRUCUT
 10
33.58950430696064
 20
12.55304127888843
 30
0.0
 42
0.0196329840980716
  0
SEQEND
  5
307
  8
THREE_QUARTER_INCH_THRUCUT
  0
POLYLINE
  5
7C
  8
THREE_QUARTER_INCH_THRUCUT
 66
     1
 10
0.0
 20
0.0
 30
0.0
 70
     1
  0
VERTEX
  5
106
  8
THREE_QUARTER_INCH_THRUCUT
 10
55.63992218914066
 20
12.55061881226304
 30
0.0
 42
-0.9203497392142354
  0
VERTEX
  5
107
  8
THREE_QUARTER_INCH_THRUCUT
 10
55.60344791533887
 20
12.15367886890608
 30
0.0
 42
-0.9203515743295231
  0
VERTEX
  5
108
  8
THREE_QUARTER_INCH_THRUCUT
 10
55.57390618914061
 20
12.55119481226305
 30
0.0
 42
-0.0414759603059335
  0
VERTEX
  5
109
  8
THREE_QUARTER_INCH_THRUCUT
 10
55.60693851813723
 20
12.5536496371203
 30
0.0
 42
-0.041476955556153
  0
SEQEND
  5
308
  8
THREE_QUARTER_INCH_THRUCUT
  0
POLYLINE
  5
7D
  8
THREE_QUARTER_INCH_THRUCUT
 66
     1
 10
0.0
 20
0.0
 30
0.0
 70
     1
  0
VERTEX
  5
10A
  8
THREE_QUARTER_INCH_THRUCUT
 10
77.63647918914066
 20
12.55119481226305
 30
0.0
 42
-0.9614900961334423
  0
VERTEX
  5
10B
  8
THREE_QUARTER_INCH_THRUCUT
 10
77.58949677253426
 20
12.15428308798533
 30
0.0
 42
-0.9614707681242259
  0
VERTEX
  5
10C
  8
THREE_QUARTER_INCH_THRUCUT
 10
77.60519218914064
 20
12.55365781226304
 30
0.0
 42
-0.0196430313934435
  0
VERTEX
  5
10D
  8
THREE_QUARTER_INCH_THRUCUT
 10
77.62088007132067
 20
12.55304127888844
 30
0.0
 42
-0.0196329840985384
  0
SEQEND
  5
309
  8
THREE_QUARTER_INCH_THRUCUT
  0
POLYLINE
  5
7E
  8
THREE_QUARTER_INCH_THRUCUT
 66
     1
 10
0.0
 20
0.0
 30
0.0
 70
     1
  0
VERTEX
  5
10E
  8
THREE_QUARTER_INCH_THRUCUT
 10
2.605192189140659
 20
9.353657062263038
 30
0.0
  0
VERTEX
  5
10F
  8
THREE_QUARTER_INCH_THRUCUT
 10
79.12327421532058
 20
9.353657812263036
 30
0.0
 42
0.4142135572611445
  0
VERTEX
  5
110
  8
THREE_QUARTER_INCH_THRUCUT
 10
82.12327418914066
 20
12.35365781226304
 30
0.0
  0
VERTEX
  5
111
  8
THREE_QUARTER_INCH_THRUCUT
 10
82.12327418914062
 20
15.85365706226304
 30
0.0
  0
VERTEX
  5
112
  8
THREE_QUARTER_INCH_THRUCUT
 10
79.98019218914065
 20
15.85365706226304
 30
0.0
  0
VERTEX
  5
113
  8
THREE_QUARTER_INCH_THRUCUT
 10
79.98019218914067
 20
14.73365781226303
 30
0.0
 42
-1.0
  0
VERTEX
  5
114
  8
THREE_QUARTER_INCH_THRUCUT
 10
79.98019218914067
 20
14.35365781226304
 30
0.0
  0
VERTEX
  5
115
  8
THREE_QUARTER_INCH_THRUCUT
 10
79.23019218914067
 20
14.35365781226304
 30
0.0
 42
-1.0
  0
VERTEX
  5
116
  8
THREE_QUARTER_INCH_THRUCUT
 10
79.23019218914067
 20
14.73365781226303
 30
0.0
  0
VERTEX
  5
117
  8
THREE_QUARTER_INCH_THRUCUT
 10
79.23019218914067
 20
15.85365706226304
 30
0.0
  0
VERTEX
  5
118
  8
THREE_QUARTER_INCH_THRUCUT
 10
57.98019218914065
 20
15.85365706226304
 30
0.0
  0
VERTEX
  5
119
  8
THREE_QUARTER_INCH_THRUCUT
 10
57.98019218914066
 20
14.73365781226303
 30
0.0
 42
-1.0
  0
VERTEX
  5
11A
  8
THREE_QUARTER_INCH_THRUCUT
 10
57.98019218914066
 20
14.35365781226304
 30
0.0
  0
VERTEX
  5
11B
  8
THREE_QUARTER_INCH_THRUCUT
 10
57.23019218914066
 20
14.35365781226304
 30
0.0
 42
-1.0
  0
VERTEX
  5
11C
  8
THREE_QUARTER_INCH_THRUCUT
 10
57.23019218914066
 20
14.73365781226303
 30
0.0
  0
VERTEX
  5
11D
  8
THREE_QUARTER_INCH_THRUCUT
 10
57.23019218914067
 20
15.85365706226304
 30
0.0
  0
VERTEX
  5
11E
  8
THREE_QUARTER_INCH_THRUCUT
 10
35.98019218914066
 20
15.85365706226304
 30
0.0
  0
VERTEX
  5
11F
  8
THREE_QUARTER_INCH_THRUCUT
 10
35.98019218914066
 20
14.73365781226303
 30
0.0
 42
-1.0
  0
VERTEX
  5
120
  8
THREE_QUARTER_INCH_THRUCUT
 10
35.98019218914066
 20
14.35365781226304
 30
0.0
  0
VERTEX
  5
121
  8
THREE_QUARTER_INCH_THRUCUT
 10
35.23019218914066
 20
14.35365781226304
 30
0.0
 42
-1.0
  0
VERTEX
  5
122
  8
THREE_QUARTER_INCH_THRUCUT
 10
35.23019218914066
 20
14.73365781226303
 30
0.0
  0
VERTEX
  5
123
  8
THREE_QUARTER_INCH_THRUCUT
 10
35.23019218914067
 20
15.85365706226304
 30
0.0
  0
VERTEX
  5
124
  8
THREE_QUARTER_INCH_THRUCUT
 10
13.98019218914066
 20
15.85365706226304
 30
0.0
  0
VERTEX
  5
125
  8
THREE_QUARTER_INCH_THRUCUT
 10
13.98019218914066
 20
14.73365781226303
 30
0.0
 42
-1.0
  0
VERTEX
  5
126
  8
THREE_QUARTER_INCH_THRUCUT
 10
13.98019218914066
 20
14.35365781226304
 30
0.0
  0
VERTEX
  5
127
  8
THREE_QUARTER_INCH_THRUCUT
 10
13.23019218914066
 20
14.35365781226304
 30
0.0
 42
-1.0
  0
VERTEX
  5
128
  8
THREE_QUARTER_INCH_THRUCUT
 10
13.23019218914066
 20
14.73365781226303
 30
0.0
  0
VERTEX
  5
129
  8
THREE_QUARTER_INCH_THRUCUT
 10
13.23019218914066
 20
15.85365706226304
 30
0.0
  0
VERTEX
  5
12A
  8
THREE_QUARTER_INCH_THRUCUT
 10
2.605192189140659
 20
15.85365706226304
 30
0.0
  0
VERTEX
  5
12B
  8
THREE_QUARTER_INCH_THRUCUT
 10
1.636642681343287
 20
14.88520647627469
 30
0.0
 42
0.4142135623730946
  0
VERTEX
  5
12C
  8
THREE_QUARTER_INCH_THRUCUT
 10
1.636642681343287
 20
13.57210741610854
 30
0.0
  0
VERTEX
  5
12D
  8
THREE_QUARTER_INCH_THRUCUT
 10
3.573741696938005
 20
11.63520670841753
 30
0.0
 42
-0.4142135623730944
  0
VERTEX
  5
12E
  8
THREE_QUARTER_INCH_THRUCUT
 10
3.573741696938005
 20
10.32210764825138
 30
0.0
  0
SEQEND
  5
30A
  8
THREE_QUARTER_INCH_THRUCUT
  0
POLYLINE
  5
7F
  8
THREE_QUARTER_INCH_THRUCUT
 66
     1
 10
0.0
 20
0.0
 30
0.0
 70
     1
  0
VERTEX
  5
12F
  8
THREE_QUARTER_INCH_THRUCUT
 10
6.181978512454304
 20
27.11165179684016
 30
0.0
 42
0.961490096133456
  0
VERTEX
  5
130
  8
THREE_QUARTER_INCH_THRUCUT
 10
6.228960929060712
 20
26.71474007256261
 30
0.0
 42
0.9614707681241729
  0
VERTEX
  5
131
  8
THREE_QUARTER_INCH_THRUCUT
 10
6.213265512454306
 20
27.11411479684016
 30
0.0
 42
0.0196430313934635
  0
VERTEX
  5
132
  8
THREE_QUARTER_INCH_THRUCUT
 10
6.197577630274274
 20
27.11349826346556
 30
0.0
 42
0.0196329840983488
  0
SEQEND
  5
30B
  8
THREE_QUARTER_INCH_THRUCUT
  0
POLYLINE
  5
80
  8
THREE_QUARTER_INCH_THRUCUT
 66
     1
 10
0.0
 20
0.0
 30
0.0
 70
     1
  0
VERTEX
  5
133
  8
THREE_QUARTER_INCH_THRUCUT
 10
28.1785355124543
 20
27.11107579684015
 30
0.0
 42
0.9203497392141604
  0
VERTEX
  5
134
  8
THREE_QUARTER_INCH_THRUCUT
 10
28.21500978625604
 20
26.71413585348325
 30
0.0
 42
0.920351574329487
  0
VERTEX
  5
135
  8
THREE_QUARTER_INCH_THRUCUT
 10
28.2445515124543
 20
27.11165179684016
 30
0.0
 42
0.0414759603059265
  0
VERTEX
  5
136
  8
THREE_QUARTER_INCH_THRUCUT
 10
28.21151918345769
 20
27.11410662169742
 30
0.0
 42
0.0414769555563666
  0
SEQEND
  5
30C
  8
THREE_QUARTER_INCH_THRUCUT
  0
POLYLINE
  5
81
  8
THREE_QUARTER_INCH_THRUCUT
 66
     1
 10
0.0
 20
0.0
 30
0.0
 70
     1
  0
VERTEX
  5
137
  8
THREE_QUARTER_INCH_THRUCUT
 10
50.18197851245429
 20
27.11165179684016
 30
0.0
 42
0.9614900961335096
  0
VERTEX
  5
138
  8
THREE_QUARTER_INCH_THRUCUT
 10
50.22896092906069
 20
26.71474007256227
 30
0.0
 42
0.9614707681242158
  0
VERTEX
  5
139
  8
THREE_QUARTER_INCH_THRUCUT
 10
50.21326551245428
 20
27.11411479684016
 30
0.0
 42
0.0196430313934835
  0
VERTEX
  5
13A
  8
THREE_QUARTER_INCH_THRUCUT
 10
50.19757763027425
 20
27.11349826346556
 30
0.0
 42
0.0196329840981646
  0
SEQEND
  5
30D
  8
THREE_QUARTER_INCH_THRUCUT
  0
POLYLINE
  5
82
  8
THREE_QUARTER_INCH_THRUCUT
 66
     1
 10
0.0
 20
0.0
 30
0.0
 70
     1
  0
VERTEX
  5
13B
  8
THREE_QUARTER_INCH_THRUCUT
 10
75.18198051245426
 20
27.61160779684016
 30
0.0
 42
0.9614900961334168
  0
VERTEX
  5
13C
  8
THREE_QUARTER_INCH_THRUCUT
 10
75.22896292906066
 20
27.21469607256275
 30
0.0
 42
0.9614707681242272
  0
VERTEX
  5
13D
  8
THREE_QUARTER_INCH_THRUCUT
 10
75.21326751245428
 20
27.61407079684016
 30
0.0
 42
0.0196430313934347
  0
VERTEX
  5
13E
  8
THREE_QUARTER_INCH_THRUCUT
 10
75.19757963027422
 20
27.61345426346556
 30
0.0
 42
0.0196329840982132
  0
SEQEND
  5
30E
  8
THREE_QUARTER_INCH_THRUCUT
  0
POLYLINE
  5
83
  8
THREE_QUARTER_INCH_THRUCUT
 66
     1
 10
0.0
 20
0.0
 30
0.0
 70
     1
  0
VERTEX
  5
13F
  8
THREE_QUARTER_INCH_THRUCUT
 10
1.6951835124543
 20
30.41411404684017
 30
0.0
  0
VERTEX
  5
140
  8
THREE_QUARTER_INCH_THRUCUT
 10
1.6951835124543
 20
26.91411479684016
 30
0.0
 42
0.4142135572611445
  0
VERTEX
  5
141
  8
THREE_QUARTER_INCH_THRUCUT
 10
4.695183486274363
 20
23.91411479684016
 30
0.0
  0
VERTEX
  5
142
  8
THREE_QUARTER_INCH_THRUCUT
 10
81.21326551245429
 20
23.91411404684016
 30
0.0
  0
VERTEX
  5
143
  8
THREE_QUARTER_INCH_THRUCUT
 10
82.18181502025163
 20
24.8825646328285
 30
0.0
 42
0.4142135623730944
  0
VERTEX
  5
144
  8
THREE_QUARTER_INCH_THRUCUT
 10
82.18181502025163
 20
26.19566369299466
 30
0.0
  0
VERTEX
  5
145
  8
THREE_QUARTER_INCH_THRUCUT
 10
80.24471600465691
 20
28.13256440068567
 30
0.0
 42
-0.4142135623730946
  0
VERTEX
  5
146
  8
THREE_QUARTER_INCH_THRUCUT
 10
80.24471600465691
 20
29.44566346085182
 30
0.0
  0
VERTEX
  5
147
  8
THREE_QUARTER_INCH_THRUCUT
 10
81.21326551245429
 20
30.41411404684016
 30
0.0
  0
VERTEX
  5
148
  8
THREE_QUARTER_INCH_THRUCUT
 10
70.58826551245429
 20
30.41411404684016
 30
0.0
  0
VERTEX
  5
149
  8
THREE_QUARTER_INCH_THRUCUT
 10
70.58826551245429
 20
29.29411479684016
 30
0.0
 42
-1.0
  0
VERTEX
  5
14A
  8
THREE_QUARTER_INCH_THRUCUT
 10
70.58826551245429
 20
28.91411479684016
 30
0.0
  0
VERTEX
  5
14B
  8
THREE_QUARTER_INCH_THRUCUT
 10
69.83826551245429
 20
28.91411479684016
 30
0.0
 42
-1.0
  0
VERTEX
  5
14C
  8
THREE_QUARTER_INCH_THRUCUT
 10
69.83826551245429
 20
29.29411479684016
 30
0.0
  0
VERTEX
  5
14D
  8
THREE_QUARTER_INCH_THRUCUT
 10
69.83826551245429
 20
30.41411404684016
 30
0.0
  0
VERTEX
  5
14E
  8
THREE_QUARTER_INCH_THRUCUT
 10
48.5882655124543
 20
30.41411404684016
 30
0.0
  0
VERTEX
  5
14F
  8
THREE_QUARTER_INCH_THRUCUT
 10
48.5882655124543
 20
29.29411479684016
 30
0.0
 42
-1.0
  0
VERTEX
  5
150
  8
THREE_QUARTER_INCH_THRUCUT
 10
48.5882655124543
 20
28.91411479684016
 30
0.0
  0
VERTEX
  5
151
  8
THREE_QUARTER_INCH_THRUCUT
 10
47.8382655124543
 20
28.91411479684016
 30
0.0
 42
-1.0
  0
VERTEX
  5
152
  8
THREE_QUARTER_INCH_THRUCUT
 10
47.8382655124543
 20
29.29411479684016
 30
0.0
  0
VERTEX
  5
153
  8
THREE_QUARTER_INCH_THRUCUT
 10
47.8382655124543
 20
30.41411404684016
 30
0.0
  0
VERTEX
  5
154
  8
THREE_QUARTER_INCH_THRUCUT
 10
26.5882655124543
 20
30.41411404684016
 30
0.0
  0
VERTEX
  5
155
  8
THREE_QUARTER_INCH_THRUCUT
 10
26.58826551245431
 20
29.29411479684016
 30
0.0
 42
-1.0
  0
VERTEX
  5
156
  8
THREE_QUARTER_INCH_THRUCUT
 10
26.58826551245431
 20
28.91411479684016
 30
0.0
  0
VERTEX
  5
157
  8
THREE_QUARTER_INCH_THRUCUT
 10
25.83826551245431
 20
28.91411479684016
 30
0.0
 42
-1.0
  0
VERTEX
  5
158
  8
THREE_QUARTER_INCH_THRUCUT
 10
25.83826551245431
 20
29.29411479684016
 30
0.0
  0
VERTEX
  5
159
  8
THREE_QUARTER_INCH_THRUCUT
 10
25.83826551245432
 20
30.41411404684016
 30
0.0
  0
VERTEX
  5
15A
  8
THREE_QUARTER_INCH_THRUCUT
 10
4.588265512454292
 20
30.41411404684016
 30
0.0
  0
VERTEX
  5
15B
  8
THREE_QUARTER_INCH_THRUCUT
 10
4.588265512454299
 20
29.29411479684016
 30
0.0
 42
-1.0
  0
VERTEX
  5
15C
  8
THREE_QUARTER_INCH_THRUCUT
 10
4.588265512454299
 20
28.91411479684016
 30
0.0
  0
VERTEX
  5
15D
  8
THREE_QUARTER_INCH_THRUCUT
 10
3.838265512454299
 20
28.91411479684016
 30
0.0
 42
-1.0
  0
VERTEX
  5
15E
  8
THREE_QUARTER_INCH_THRUCUT
 10
3.838265512454299
 20
29.29411479684016
 30
0.0
  0
VERTEX
  5
15F
  8
THREE_QUARTER_INCH_THRUCUT
 10
3.838265512454299
 20
30.41411404684016
 30
0.0
  0
SEQEND
  5
30F
  8
THREE_QUARTER_INCH_THRUCUT
  0
POLYLINE
  5
84
  8
THREE_QUARTER_INCH_THRUCUT
 66
     1
 10
0.0
 20
0.0
 30
0.0
 70
     1
  0
VERTEX
  5
160
  8
THREE_QUARTER_INCH_THRUCUT
 10
40.31941558011667
 20
42.17361876485231
 30
0.0
 42
0.9614900961334168
  0
VERTEX
  5
161
  8
THREE_QUARTER_INCH_THRUCUT
 10
40.36639799672305
 20
41.77670704057489
 30
0.0
 42
0.9614707681242272
  0
VERTEX
  5
162
  8
THREE_QUARTER_INCH_THRUCUT
 10
40.35070258011669
 20
42.17608176485231
 30
0.0
 42
0.0196430313934347
  0
VERTEX
  5
163
  8
THREE_QUARTER_INCH_THRUCUT
 10
40.33501469793663
 20
42.1754652314777
 30
0.0
 42
0.0196329840982132
  0
SEQEND
  5
310
  8
THREE_QUARTER_INCH_THRUCUT
  0
POLYLINE
  5
85
  8
THREE_QUARTER_INCH_THRUCUT
 66
     1
 10
0.0
 20
0.0
 30
0.0
 70
     1
  0
VERTEX
  5
164
  8
THREE_QUARTER_INCH_THRUCUT
 10
52.31941558011667
 20
42.17361876485231
 30
0.0
 42
0.9614900961334168
  0
VERTEX
  5
165
  8
THREE_QUARTER_INCH_THRUCUT
 10
52.36639799672305
 20
41.77670704057489
 30
0.0
 42
0.9614707681242272
  0
VERTEX
  5
166
  8
THREE_QUARTER_INCH_THRUCUT
 10
52.35070258011669
 20
42.17608176485231
 30
0.0
 42
0.0196430313934347
  0
VERTEX
  5
167
  8
THREE_QUARTER_INCH_THRUCUT
 10
52.33501469793663
 20
42.1754652314777
 30
0.0
 42
0.0196329840982132
  0
SEQEND
  5
311
  8
THREE_QUARTER_INCH_THRUCUT
  0
POLYLINE
  5
86
  8
THREE_QUARTER_INCH_THRUCUT
 66
     1
 10
0.0
 20
0.0
 30
0.0
 70
     1
  0
VERTEX
  5
168
  8
THREE_QUARTER_INCH_THRUCUT
 10
77.31941358011669
 20
41.67366276485231
 30
0.0
 42
0.9614900961335152
  0
VERTEX
  5
169
  8
THREE_QUARTER_INCH_THRUCUT
 10
77.36639599672309
 20
41.27675104057442
 30
0.0
 42
0.9614707681242143
  0
VERTEX
  5
16A
  8
THREE_QUARTER_INCH_THRUCUT
 10
77.35070058011668
 20
41.6761257648523
 30
0.0
 42
0.0196430313935235
  0
VERTEX
  5
16B
  8
THREE_QUARTER_INCH_THRUCUT
 10
77.33501269793668
 20
41.6755092314777
 30
0.0
 42
0.0196329840980716
  0
SEQEND
  5
312
  8
THREE_QUARTER_INCH_THRUCUT
  0
POLYLINE
  5
87
  8
THREE_QUARTER_INCH_THRUCUT
 66
     1
 10
0.0
 20
0.0
 30
0.0
 70
     1
  0
VERTEX
  5
16C
  8
THREE_QUARTER_INCH_THRUCUT
 10
15.31941358011668
 20
41.67366276485231
 30
0.0
 42
0.9614900961335096
  0
VERTEX
  5
16D
  8
THREE_QUARTER_INCH_THRUCUT
 10
15.36639599672309
 20
41.27675104057442
 30
0.0
 42
0.9614707681242158
  0
VERTEX
  5
16E
  8
THREE_QUARTER_INCH_THRUCUT
 10
15.35070058011667
 20
41.6761257648523
 30
0.0
 42
0.0196430313934835
  0
VERTEX
  5
16F
  8
THREE_QUARTER_INCH_THRUCUT
 10
15.33501269793664
 20
41.6755092314777
 30
0.0
 42
0.0196329840981646
  0
SEQEND
  5
313
  8
THREE_QUARTER_INCH_THRUCUT
  0
POLYLINE
  5
88
  8
THREE_QUARTER_INCH_THRUCUT
 66
     1
 10
0.0
 20
0.0
 30
0.0
 70
     1
  0
VERTEX
  5
170
  8
THREE_QUARTER_INCH_THRUCUT
 10
3.35070058011668
 20
38.47612538985231
 30
0.0
  0
VERTEX
  5
171
  8
THREE_QUARTER_INCH_THRUCUT
 10
4.319250122505103
 20
39.44457589435675
 30
0.0
 42
0.4142135623730944
  0
VERTEX
  5
172
  8
THREE_QUARTER_INCH_THRUCUT
 10
4.319250122505103
 20
40.75767500141929
 30
0.0
  0
VERTEX
  5
173
  8
THREE_QUARTER_INCH_THRUCUT
 10
2.382151037728271
 20
42.69457577828533
 30
0.0
 42
-0.4142135623730946
  0
VERTEX
  5
174
  8
THREE_QUARTER_INCH_THRUCUT
 10
2.382151037728271
 20
44.00767488534787
 30
0.0
  0
VERTEX
  5
175
  8
THREE_QUARTER_INCH_THRUCUT
 10
3.35070058011668
 20
44.97612538985231
 30
0.0
  0
VERTEX
  5
176
  8
THREE_QUARTER_INCH_THRUCUT
 10
12.97570058011673
 20
44.97612538985231
 30
0.0
  0
VERTEX
  5
177
  8
THREE_QUARTER_INCH_THRUCUT
 10
12.97570058011668
 20
43.85612576485231
 30
0.0
  0
VERTEX
  5
178
  8
THREE_QUARTER_INCH_THRUCUT
 10
12.94442758011668
 20
43.8535337648523
 30
0.0
  0
VERTEX
  5
179
  8
THREE_QUARTER_INCH_THRUCUT
 10
12.91400758011668
 20
43.84583076485231
 30
0.0
  0
VERTEX
  5
17A
  8
THREE_QUARTER_INCH_THRUCUT
 10
12.88527058011668
 20
43.8332257648523
 30
0.0
  0
VERTEX
  5
17B
  8
THREE_QUARTER_INCH_THRUCUT
 10
12.85899958011668
 20
43.81606176485231
 30
0.0
  0
VERTEX
  5
17C
  8
THREE_QUARTER_INCH_THRUCUT
 10
12.83591258011669
 20
43.79480876485229
 30
0.0
  0
VERTEX
  5
17D
  8
THREE_QUARTER_INCH_THRUCUT
 10
12.81663858011668
 20
43.77004576485231
 30
0.0
  0
VERTEX
  5
17E
  8
THREE_QUARTER_INCH_THRUCUT
 10
12.80170358011668
 20
43.7424477648523
 30
0.0
  0
VERTEX
  5
17F
  8
THREE_QUARTER_INCH_THRUCUT
 10
12.79151358011669
 20
43.7127677648523
 30
0.0
  0
VERTEX
  5
180
  8
THREE_QUARTER_INCH_THRUCUT
 10
12.78634858011668
 20
43.68181576485232
 30
0.0
  0
VERTEX
  5
181
  8
THREE_QUARTER_INCH_THRUCUT
 10
12.78634858011668
 20
43.65043576485232
 30
0.0
  0
VERTEX
  5
182
  8
THREE_QUARTER_INCH_THRUCUT
 10
12.79151358011669
 20
43.61948276485231
 30
0.0
  0
VERTEX
  5
183
  8
THREE_QUARTER_INCH_THRUCUT
 10
12.80170358011668
 20
43.58980376485229
 30
0.0
  0
VERTEX
  5
184
  8
THREE_QUARTER_INCH_THRUCUT
 10
12.81663858011668
 20
43.56220576485231
 30
0.0
  0
VERTEX
  5
185
  8
THREE_QUARTER_INCH_THRUCUT
 10
12.83591258011669
 20
43.53744176485232
 30
0.0
  0
VERTEX
  5
186
  8
THREE_QUARTER_INCH_THRUCUT
 10
12.85899958011668
 20
43.5161887648523
 30
0.0
  0
VERTEX
  5
187
  8
THREE_QUARTER_INCH_THRUCUT
 10
12.88527058011668
 20
43.49902576485229
 30
0.0
  0
VERTEX
  5
188
  8
THREE_QUARTER_INCH_THRUCUT
 10
12.91400758011668
 20
43.48641976485231
 30
0.0
  0
VERTEX
  5
189
  8
THREE_QUARTER_INCH_THRUCUT
 10
12.94442758011668
 20
43.47871676485231
 30
0.0
  0
VERTEX
  5
18A
  8
THREE_QUARTER_INCH_THRUCUT
 10
12.97570058011668
 20
43.47612576485231
 30
0.0
  0
VERTEX
  5
18B
  8
THREE_QUARTER_INCH_THRUCUT
 10
13.72570058011668
 20
43.47612576485231
 30
0.0
  0
VERTEX
  5
18C
  8
THREE_QUARTER_INCH_THRUCUT
 10
13.75697258011668
 20
43.47871676485231
 30
0.0
  0
VERTEX
  5
18D
  8
THREE_QUARTER_INCH_THRUCUT
 10
13.78739258011668
 20
43.48641976485231
 30
0.0
  0
VERTEX
  5
18E
  8
THREE_QUARTER_INCH_THRUCUT
 10
13.81613058011668
 20
43.49902576485229
 30
0.0
  0
VERTEX
  5
18F
  8
THREE_QUARTER_INCH_THRUCUT
 10
13.84240058011668
 20
43.5161887648523
 30
0.0
  0
VERTEX
  5
190
  8
THREE_QUARTER_INCH_THRUCUT
 10
13.86548758011668
 20
43.53744176485232
 30
0.0
  0
VERTEX
  5
191
  8
THREE_QUARTER_INCH_THRUCUT
 10
13.88476158011668
 20
43.56220576485231
 30
0.0
  0
VERTEX
  5
192
  8
THREE_QUARTER_INCH_THRUCUT
 10
13.89969658011668
 20
43.58980376485229
 30
0.0
  0
VERTEX
  5
193
  8
THREE_QUARTER_INCH_THRUCUT
 10
13.90988658011668
 20
43.61948276485231
 30
0.0
  0
VERTEX
  5
194
  8
THREE_QUARTER_INCH_THRUCUT
 10
13.91505158011668
 20
43.65043576485232
 30
0.0
  0
VERTEX
  5
195
  8
THREE_QUARTER_INCH_THRUCUT
 10
13.91505158011668
 20
43.68181576485232
 30
0.0
  0
VERTEX
  5
196
  8
THREE_QUARTER_INCH_THRUCUT
 10
13.90988658011668
 20
43.7127677648523
 30
0.0
  0
VERTEX
  5
197
  8
THREE_QUARTER_INCH_THRUCUT
 10
13.89969658011668
 20
43.7424477648523
 30
0.0
  0
VERTEX
  5
198
  8
THREE_QUARTER_INCH_THRUCUT
 10
13.88476158011668
 20
43.77004576485231
 30
0.0
  0
VERTEX
  5
199
  8
THREE_QUARTER_INCH_THRUCUT
 10
13.86548758011668
 20
43.79480876485229
 30
0.0
  0
VERTEX
  5
19A
  8
THREE_QUARTER_INCH_THRUCUT
 10
13.84240058011668
 20
43.81606176485231
 30
0.0
  0
VERTEX
  5
19B
  8
THREE_QUARTER_INCH_THRUCUT
 10
13.81613058011668
 20
43.8332257648523
 30
0.0
  0
VERTEX
  5
19C
  8
THREE_QUARTER_INCH_THRUCUT
 10
13.78739258011668
 20
43.84583076485231
 30
0.0
  0
VERTEX
  5
19D
  8
THREE_QUARTER_INCH_THRUCUT
 10
13.75697258011668
 20
43.8535337648523
 30
0.0
  0
VERTEX
  5
19E
  8
THREE_QUARTER_INCH_THRUCUT
 10
13.72570058011668
 20
43.85612576485231
 30
0.0
  0
VERTEX
  5
19F
  8
THREE_QUARTER_INCH_THRUCUT
 10
13.72570058011668
 20
44.97612538985231
 30
0.0
  0
VERTEX
  5
1A0
  8
THREE_QUARTER_INCH_THRUCUT
 10
34.97570058011668
 20
44.97612538985231
 30
0.0
  0
VERTEX
  5
1A1
  8
THREE_QUARTER_INCH_THRUCUT
 10
34.97570058011668
 20
43.85612576485231
 30
0.0
  0
VERTEX
  5
1A2
  8
THREE_QUARTER_INCH_THRUCUT
 10
34.94442758011667
 20
43.8535337648523
 30
0.0
  0
VERTEX
  5
1A3
  8
THREE_QUARTER_INCH_THRUCUT
 10
34.91400758011667
 20
43.84583076485231
 30
0.0
  0
VERTEX
  5
1A4
  8
THREE_QUARTER_INCH_THRUCUT
 10
34.88527058011667
 20
43.8332257648523
 30
0.0
  0
VERTEX
  5
1A5
  8
THREE_QUARTER_INCH_THRUCUT
 10
34.85899958011669
 20
43.81606176485231
 30
0.0
  0
VERTEX
  5
1A6
  8
THREE_QUARTER_INCH_THRUCUT
 10
34.83591258011667
 20
43.79480876485229
 30
0.0
  0
VERTEX
  5
1A7
  8
THREE_QUARTER_INCH_THRUCUT
 10
34.81663858011669
 20
43.77004576485231
 30
0.0
  0
VERTEX
  5
1A8
  8
THREE_QUARTER_INCH_THRUCUT
 10
34.80170358011668
 20
43.7424477648523
 30
0.0
  0
VERTEX
  5
1A9
  8
THREE_QUARTER_INCH_THRUCUT
 10
34.79151358011669
 20
43.7127677648523
 30
0.0
  0
VERTEX
  5
1AA
  8
THREE_QUARTER_INCH_THRUCUT
 10
34.78634858011668
 20
43.68181576485232
 30
0.0
  0
VERTEX
  5
1AB
  8
THREE_QUARTER_INCH_THRUCUT
 10
34.78634858011668
 20
43.65043576485232
 30
0.0
  0
VERTEX
  5
1AC
  8
THREE_QUARTER_INCH_THRUCUT
 10
34.79151358011669
 20
43.61948276485231
 30
0.0
  0
VERTEX
  5
1AD
  8
THREE_QUARTER_INCH_THRUCUT
 10
34.80170358011668
 20
43.58980376485229
 30
0.0
  0
VERTEX
  5
1AE
  8
THREE_QUARTER_INCH_THRUCUT
 10
34.81663858011669
 20
43.56220576485231
 30
0.0
  0
VERTEX
  5
1AF
  8
THREE_QUARTER_INCH_THRUCUT
 10
34.83591258011667
 20
43.53744176485232
 30
0.0
  0
VERTEX
  5
1B0
  8
THREE_QUARTER_INCH_THRUCUT
 10
34.85899958011669
 20
43.5161887648523
 30
0.0
  0
VERTEX
  5
1B1
  8
THREE_QUARTER_INCH_THRUCUT
 10
34.88527058011667
 20
43.49902576485229
 30
0.0
  0
VERTEX
  5
1B2
  8
THREE_QUARTER_INCH_THRUCUT
 10
34.91400758011667
 20
43.48641976485231
 30
0.0
  0
VERTEX
  5
1B3
  8
THREE_QUARTER_INCH_THRUCUT
 10
34.94442758011667
 20
43.47871676485231
 30
0.0
  0
VERTEX
  5
1B4
  8
THREE_QUARTER_INCH_THRUCUT
 10
34.97570058011668
 20
43.47612576485231
 30
0.0
  0
VERTEX
  5
1B5
  8
THREE_QUARTER_INCH_THRUCUT
 10
35.72570058011668
 20
43.47612576485231
 30
0.0
  0
VERTEX
  5
1B6
  8
THREE_QUARTER_INCH_THRUCUT
 10
35.75697258011667
 20
43.47871676485231
 30
0.0
  0
VERTEX
  5
1B7
  8
THREE_QUARTER_INCH_THRUCUT
 10
35.78739258011669
 20
43.48641976485231
 30
0.0
  0
VERTEX
  5
1B8
  8
THREE_QUARTER_INCH_THRUCUT
 10
35.81613058011668
 20
43.49902576485229
 30
0.0
  0
VERTEX
  5
1B9
  8
THREE_QUARTER_INCH_THRUCUT
 10
35.84240058011667
 20
43.5161887648523
 30
0.0
  0
VERTEX
  5
1BA
  8
THREE_QUARTER_INCH_THRUCUT
 10
35.86548758011668
 20
43.53744176485232
 30
0.0
  0
VERTEX
  5
1BB
  8
THREE_QUARTER_INCH_THRUCUT
 10
35.88476158011667
 20
43.56220576485231
 30
0.0
  0
VERTEX
  5
1BC
  8
THREE_QUARTER_INCH_THRUCUT
 10
35.89969658011667
 20
43.58980376485229
 30
0.0
  0
VERTEX
  5
1BD
  8
THREE_QUARTER_INCH_THRUCUT
 10
35.90988658011668
 20
43.61948276485231
 30
0.0
  0
VERTEX
  5
1BE
  8
THREE_QUARTER_INCH_THRUCUT
 10
35.91505158011667
 20
43.65043576485232
 30
0.0
  0
VERTEX
  5
1BF
  8
THREE_QUARTER_INCH_THRUCUT
 10
35.91505158011667
 20
43.68181576485232
 30
0.0
  0
VERTEX
  5
1C0
  8
THREE_QUARTER_INCH_THRUCUT
 10
35.90988658011668
 20
43.7127677648523
 30
0.0
  0
VERTEX
  5
1C1
  8
THREE_QUARTER_INCH_THRUCUT
 10
35.89969658011667
 20
43.7424477648523
 30
0.0
  0
VERTEX
  5
1C2
  8
THREE_QUARTER_INCH_THRUCUT
 10
35.88476158011667
 20
43.77004576485231
 30
0.0
  0
VERTEX
  5
1C3
  8
THREE_QUARTER_INCH_THRUCUT
 10
35.86548758011668
 20
43.79480876485229
 30
0.0
  0
VERTEX
  5
1C4
  8
THREE_QUARTER_INCH_THRUCUT
 10
35.84240058011667
 20
43.81606176485231
 30
0.0
  0
VERTEX
  5
1C5
  8
THREE_QUARTER_INCH_THRUCUT
 10
35.81613058011668
 20
43.8332257648523
 30
0.0
  0
VERTEX
  5
1C6
  8
THREE_QUARTER_INCH_THRUCUT
 10
35.78739258011669
 20
43.84583076485231
 30
0.0
  0
VERTEX
  5
1C7
  8
THREE_QUARTER_INCH_THRUCUT
 10
35.75697258011667
 20
43.8535337648523
 30
0.0
  0
VERTEX
  5
1C8
  8
THREE_QUARTER_INCH_THRUCUT
 10
35.72570058011668
 20
43.85612576485231
 30
0.0
  0
VERTEX
  5
1C9
  8
THREE_QUARTER_INCH_THRUCUT
 10
35.72570058011668
 20
44.97612538985231
 30
0.0
  0
VERTEX
  5
1CA
  8
THREE_QUARTER_INCH_THRUCUT
 10
56.97570058011674
 20
44.97612538985231
 30
0.0
  0
VERTEX
  5
1CB
  8
THREE_QUARTER_INCH_THRUCUT
 10
56.97570058011669
 20
43.85612576485231
 30
0.0
  0
VERTEX
  5
1CC
  8
THREE_QUARTER_INCH_THRUCUT
 10
56.94442758011667
 20
43.8535337648523
 30
0.0
  0
VERTEX
  5
1CD
  8
THREE_QUARTER_INCH_THRUCUT
 10
56.91400758011667
 20
43.84583076485231
 30
0.0
  0
VERTEX
  5
1CE
  8
THREE_QUARTER_INCH_THRUCUT
 10
56.88527058011667
 20
43.8332257648523
 30
0.0
  0
VERTEX
  5
1CF
  8
THREE_QUARTER_INCH_THRUCUT
 10
56.85899958011669
 20
43.81606176485231
 30
0.0
  0
VERTEX
  5
1D0
  8
THREE_QUARTER_INCH_THRUCUT
 10
56.83591258011668
 20
43.79480876485229
 30
0.0
  0
VERTEX
  5
1D1
  8
THREE_QUARTER_INCH_THRUCUT
 10
56.81663858011669
 20
43.77004576485231
 30
0.0
  0
VERTEX
  5
1D2
  8
THREE_QUARTER_INCH_THRUCUT
 10
56.80170358011668
 20
43.7424477648523
 30
0.0
  0
VERTEX
  5
1D3
  8
THREE_QUARTER_INCH_THRUCUT
 10
56.79151358011669
 20
43.7127677648523
 30
0.0
  0
VERTEX
  5
1D4
  8
THREE_QUARTER_INCH_THRUCUT
 10
56.78634858011668
 20
43.68181576485232
 30
0.0
  0
VERTEX
  5
1D5
  8
THREE_QUARTER_INCH_THRUCUT
 10
56.78634858011668
 20
43.65043576485232
 30
0.0
  0
VERTEX
  5
1D6
  8
THREE_QUARTER_INCH_THRUCUT
 10
56.79151358011669
 20
43.61948276485231
 30
0.0
  0
VERTEX
  5
1D7
  8
THREE_QUARTER_INCH_THRUCUT
 10
56.80170358011668
 20
43.58980376485229
 30
0.0
  0
VERTEX
  5
1D8
  8
THREE_QUARTER_INCH_THRUCUT
 10
56.81663858011669
 20
43.56220576485231
 30
0.0
  0
VERTEX
  5
1D9
  8
THREE_QUARTER_INCH_THRUCUT
 10
56.83591258011668
 20
43.53744176485232
 30
0.0
  0
VERTEX
  5
1DA
  8
THREE_QUARTER_INCH_THRUCUT
 10
56.85899958011669
 20
43.5161887648523
 30
0.0
  0
VERTEX
  5
1DB
  8
THREE_QUARTER_INCH_THRUCUT
 10
56.88527058011667
 20
43.49902576485229
 30
0.0
  0
VERTEX
  5
1DC
  8
THREE_QUARTER_INCH_THRUCUT
 10
56.91400758011667
 20
43.48641976485231
 30
0.0
  0
VERTEX
  5
1DD
  8
THREE_QUARTER_INCH_THRUCUT
 10
56.94442758011667
 20
43.47871676485231
 30
0.0
  0
VERTEX
  5
1DE
  8
THREE_QUARTER_INCH_THRUCUT
 10
56.97570058011669
 20
43.47612576485231
 30
0.0
  0
VERTEX
  5
1DF
  8
THREE_QUARTER_INCH_THRUCUT
 10
57.72570058011669
 20
43.47612576485231
 30
0.0
  0
VERTEX
  5
1E0
  8
THREE_QUARTER_INCH_THRUCUT
 10
57.75697258011667
 20
43.47871676485231
 30
0.0
  0
VERTEX
  5
1E1
  8
THREE_QUARTER_INCH_THRUCUT
 10
57.78739258011669
 20
43.48641976485231
 30
0.0
  0
VERTEX
  5
1E2
  8
THREE_QUARTER_INCH_THRUCUT
 10
57.81613058011669
 20
43.49902576485229
 30
0.0
  0
VERTEX
  5
1E3
  8
THREE_QUARTER_INCH_THRUCUT
 10
57.84240058011667
 20
43.5161887648523
 30
0.0
  0
VERTEX
  5
1E4
  8
THREE_QUARTER_INCH_THRUCUT
 10
57.86548758011668
 20
43.53744176485232
 30
0.0
  0
VERTEX
  5
1E5
  8
THREE_QUARTER_INCH_THRUCUT
 10
57.88476158011667
 20
43.56220576485231
 30
0.0
  0
VERTEX
  5
1E6
  8
THREE_QUARTER_INCH_THRUCUT
 10
57.89969658011668
 20
43.58980376485229
 30
0.0
  0
VERTEX
  5
1E7
  8
THREE_QUARTER_INCH_THRUCUT
 10
57.90988658011668
 20
43.61948276485231
 30
0.0
  0
VERTEX
  5
1E8
  8
THREE_QUARTER_INCH_THRUCUT
 10
57.91505158011668
 20
43.65043576485232
 30
0.0
  0
VERTEX
  5
1E9
  8
THREE_QUARTER_INCH_THRUCUT
 10
57.91505158011668
 20
43.68181576485232
 30
0.0
  0
VERTEX
  5
1EA
  8
THREE_QUARTER_INCH_THRUCUT
 10
57.90988658011668
 20
43.7127677648523
 30
0.0
  0
VERTEX
  5
1EB
  8
THREE_QUARTER_INCH_THRUCUT
 10
57.89969658011668
 20
43.7424477648523
 30
0.0
  0
VERTEX
  5
1EC
  8
THREE_QUARTER_INCH_THRUCUT
 10
57.88476158011667
 20
43.77004576485231
 30
0.0
  0
VERTEX
  5
1ED
  8
THREE_QUARTER_INCH_THRUCUT
 10
57.86548758011668
 20
43.79480876485229
 30
0.0
  0
VERTEX
  5
1EE
  8
THREE_QUARTER_INCH_THRUCUT
 10
57.84240058011667
 20
43.81606176485231
 30
0.0
  0
VERTEX
  5
1EF
  8
THREE_QUARTER_INCH_THRUCUT
 10
57.81613058011669
 20
43.8332257648523
 30
0.0
  0
VERTEX
  5
1F0
  8
THREE_QUARTER_INCH_THRUCUT
 10
57.78739258011669
 20
43.84583076485231
 30
0.0
  0
VERTEX
  5
1F1
  8
THREE_QUARTER_INCH_THRUCUT
 10
57.75697258011667
 20
43.8535337648523
 30
0.0
  0
VERTEX
  5
1F2
  8
THREE_QUARTER_INCH_THRUCUT
 10
57.72570058011669
 20
43.85612576485231
 30
0.0
  0
VERTEX
  5
1F3
  8
THREE_QUARTER_INCH_THRUCUT
 10
57.72570058011669
 20
44.97612538985231
 30
0.0
  0
VERTEX
  5
1F4
  8
THREE_QUARTER_INCH_THRUCUT
 10
78.97570058011671
 20
44.97612538985231
 30
0.0
  0
VERTEX
  5
1F5
  8
THREE_QUARTER_INCH_THRUCUT
 10
78.97570058011665
 20
43.85612576485231
 30
0.0
  0
VERTEX
  5
1F6
  8
THREE_QUARTER_INCH_THRUCUT
 10
78.94442758011665
 20
43.8535337648523
 30
0.0
  0
VERTEX
  5
1F7
  8
THREE_QUARTER_INCH_THRUCUT
 10
78.91400758011666
 20
43.84583076485231
 30
0.0
  0
VERTEX
  5
1F8
  8
THREE_QUARTER_INCH_THRUCUT
 10
78.88527058011668
 20
43.8332257648523
 30
0.0
  0
VERTEX
  5
1F9
  8
THREE_QUARTER_INCH_THRUCUT
 10
78.85899958011667
 20
43.81606176485231
 30
0.0
  0
VERTEX
  5
1FA
  8
THREE_QUARTER_INCH_THRUCUT
 10
78.83591258011664
 20
43.79480876485229
 30
0.0
  0
VERTEX
  5
1FB
  8
THREE_QUARTER_INCH_THRUCUT
 10
78.81663858011665
 20
43.77004576485231
 30
0.0
  0
VERTEX
  5
1FC
  8
THREE_QUARTER_INCH_THRUCUT
 10
78.80170358011667
 20
43.7424477648523
 30
0.0
  0
VERTEX
  5
1FD
  8
THREE_QUARTER_INCH_THRUCUT
 10
78.79151358011664
 20
43.7127677648523
 30
0.0
  0
VERTEX
  5
1FE
  8
THREE_QUARTER_INCH_THRUCUT
 10
78.78634858011667
 20
43.68181576485232
 30
0.0
  0
VERTEX
  5
1FF
  8
THREE_QUARTER_INCH_THRUCUT
 10
78.78634858011667
 20
43.65043576485232
 30
0.0
  0
VERTEX
  5
200
  8
THREE_QUARTER_INCH_THRUCUT
 10
78.79151358011664
 20
43.61948276485231
 30
0.0
  0
VERTEX
  5
201
  8
THREE_QUARTER_INCH_THRUCUT
 10
78.80170358011667
 20
43.58980376485229
 30
0.0
  0
VERTEX
  5
202
  8
THREE_QUARTER_INCH_THRUCUT
 10
78.81663858011665
 20
43.56220576485231
 30
0.0
  0
VERTEX
  5
203
  8
THREE_QUARTER_INCH_THRUCUT
 10
78.83591258011664
 20
43.53744176485232
 30
0.0
  0
VERTEX
  5
204
  8
THREE_QUARTER_INCH_THRUCUT
 10
78.85899958011667
 20
43.5161887648523
 30
0.0
  0
VERTEX
  5
205
  8
THREE_QUARTER_INCH_THRUCUT
 10
78.88527058011668
 20
43.49902576485229
 30
0.0
  0
VERTEX
  5
206
  8
THREE_QUARTER_INCH_THRUCUT
 10
78.91400758011666
 20
43.48641976485231
 30
0.0
  0
VERTEX
  5
207
  8
THREE_QUARTER_INCH_THRUCUT
 10
78.94442758011665
 20
43.47871676485231
 30
0.0
  0
VERTEX
  5
208
  8
THREE_QUARTER_INCH_THRUCUT
 10
78.97570058011665
 20
43.47612576485231
 30
0.0
  0
VERTEX
  5
209
  8
THREE_QUARTER_INCH_THRUCUT
 10
79.72570058011665
 20
43.47612576485231
 30
0.0
  0
VERTEX
  5
20A
  8
THREE_QUARTER_INCH_THRUCUT
 10
79.75697258011665
 20
43.47871676485231
 30
0.0
  0
VERTEX
  5
20B
  8
THREE_QUARTER_INCH_THRUCUT
 10
79.78739258011665
 20
43.48641976485231
 30
0.0
  0
VERTEX
  5
20C
  8
THREE_QUARTER_INCH_THRUCUT
 10
79.81613058011668
 20
43.49902576485229
 30
0.0
  0
VERTEX
  5
20D
  8
THREE_QUARTER_INCH_THRUCUT
 10
79.84240058011669
 20
43.5161887648523
 30
0.0
  0
VERTEX
  5
20E
  8
THREE_QUARTER_INCH_THRUCUT
 10
79.86548758011666
 20
43.53744176485232
 30
0.0
  0
VERTEX
  5
20F
  8
THREE_QUARTER_INCH_THRUCUT
 10
79.88476158011666
 20
43.56220576485231
 30
0.0
  0
VERTEX
  5
210
  8
THREE_QUARTER_INCH_THRUCUT
 10
79.89969658011664
 20
43.58980376485229
 30
0.0
  0
VERTEX
  5
211
  8
THREE_QUARTER_INCH_THRUCUT
 10
79.90988658011666
 20
43.61948276485231
 30
0.0
  0
VERTEX
  5
212
  8
THREE_QUARTER_INCH_THRUCUT
 10
79.91505158011664
 20
43.65043576485232
 30
0.0
  0
VERTEX
  5
213
  8
THREE_QUARTER_INCH_THRUCUT
 10
79.91505158011664
 20
43.68181576485232
 30
0.0
  0
VERTEX
  5
214
  8
THREE_QUARTER_INCH_THRUCUT
 10
79.90988658011666
 20
43.7127677648523
 30
0.0
  0
VERTEX
  5
215
  8
THREE_QUARTER_INCH_THRUCUT
 10
79.89969658011664
 20
43.7424477648523
 30
0.0
  0
VERTEX
  5
216
  8
THREE_QUARTER_INCH_THRUCUT
 10
79.88476158011666
 20
43.77004576485231
 30
0.0
  0
VERTEX
  5
217
  8
THREE_QUARTER_INCH_THRUCUT
 10
79.86548758011666
 20
43.79480876485229
 30
0.0
  0
VERTEX
  5
218
  8
THREE_QUARTER_INCH_THRUCUT
 10
79.84240058011669
 20
43.81606176485231
 30
0.0
  0
VERTEX
  5
219
  8
THREE_QUARTER_INCH_THRUCUT
 10
79.81613058011668
 20
43.8332257648523
 30
0.0
  0
VERTEX
  5
21A
  8
THREE_QUARTER_INCH_THRUCUT
 10
79.78739258011665
 20
43.84583076485231
 30
0.0
  0
VERTEX
  5
21B
  8
THREE_QUARTER_INCH_THRUCUT
 10
79.75697258011665
 20
43.8535337648523
 30
0.0
  0
VERTEX
  5
21C
  8
THREE_QUARTER_INCH_THRUCUT
 10
79.72570058011665
 20
43.85612576485231
 30
0.0
  0
VERTEX
  5
21D
  8
THREE_QUARTER_INCH_THRUCUT
 10
79.72570058011662
 20
44.97612538985231
 30
0.0
  0
VERTEX
  5
21E
  8
THREE_QUARTER_INCH_THRUCUT
 10
89.35070058011667
 20
44.97612538985231
 30
0.0
  0
VERTEX
  5
21F
  8
THREE_QUARTER_INCH_THRUCUT
 10
88.38215103772825
 20
44.00767488534787
 30
0.0
 42
0.4142135623730946
  0
VERTEX
  5
220
  8
THREE_QUARTER_INCH_THRUCUT
 10
88.38215103772825
 20
42.69457577828533
 30
0.0
  0
VERTEX
  5
221
  8
THREE_QUARTER_INCH_THRUCUT
 10
90.31925012250508
 20
40.75767500141929
 30
0.0
 42
-0.4142135623730944
  0
VERTEX
  5
222
  8
THREE_QUARTER_INCH_THRUCUT
 10
90.31925012250508
 20
39.44457589435675
 30
0.0
  0
VERTEX
  5
223
  8
THREE_QUARTER_INCH_THRUCUT
 10
89.35070058011665
 20
38.47612538985231
 30
0.0
  0
VERTEX
  5
224
  8
THREE_QUARTER_INCH_THRUCUT
 10
46.35070058011668
 20
38.4761247648523
 30
0.0
  0
SEQEND
  5
314
  8
THREE_QUARTER_INCH_THRUCUT
  0
POLYLINE
  5
89
  8
THREE_QUARTER_INCH_THRUCUT
 66
     1
 10
0.0
 20
0.0
 30
0.0
 70
     1
  0
VERTEX
  5
225
  8
THREE_QUARTER_INCH_THRUCUT
 10
40.29098458090424
 20
34.91985331238866
 30
0.0
 42
0.9614900961334168
  0
VERTEX
  5
226
  8
THREE_QUARTER_INCH_THRUCUT
 10
40.33796699751063
 20
34.52294158811124
 30
0.0
 42
0.9614707681242272
  0
VERTEX
  5
227
  8
THREE_QUARTER_INCH_THRUCUT
 10
40.32227158090426
 20
34.92231631238867
 30
0.0
 42
0.0196430313934347
  0
VERTEX
  5
228
  8
THREE_QUARTER_INCH_THRUCUT
 10
40.3065836987242
 20
34.92169977901406
 30
0.0
 42
0.0196329840982132
  0
SEQEND
  5
315
  8
THREE_QUARTER_INCH_THRUCUT
  0
POLYLINE
  5
8A
  8
THREE_QUARTER_INCH_THRUCUT
 66
     1
 10
0.0
 20
0.0
 30
0.0
 70
     1
  0
VERTEX
  5
229
  8
THREE_QUARTER_INCH_THRUCUT
 10
52.29098458090424
 20
34.91985331238866
 30
0.0
 42
0.9614900961334168
  0
VERTEX
  5
22A
  8
THREE_QUARTER_INCH_THRUCUT
 10
52.33796699751063
 20
34.52294158811124
 30
0.0
 42
0.9614707681242272
  0
VERTEX
  5
22B
  8
THREE_QUARTER_INCH_THRUCUT
 10
52.32227158090426
 20
34.92231631238867
 30
0.0
 42
0.0196430313934347
  0
VERTEX
  5
22C
  8
THREE_QUARTER_INCH_THRUCUT
 10
52.3065836987242
 20
34.92169977901406
 30
0.0
 42
0.0196329840982132
  0
SEQEND
  5
316
  8
THREE_QUARTER_INCH_THRUCUT
  0
POLYLINE
  5
8B
  8
THREE_QUARTER_INCH_THRUCUT
 66
     1
 10
0.0
 20
0.0
 30
0.0
 70
     1
  0
VERTEX
  5
22D
  8
THREE_QUARTER_INCH_THRUCUT
 10
77.29098258090426
 20
34.41989731238866
 30
0.0
 42
0.9614900961335152
  0
VERTEX
  5
22E
  8
THREE_QUARTER_INCH_THRUCUT
 10
77.33796499751065
 20
34.02298558811078
 30
0.0
 42
0.9614707681242143
  0
VERTEX
  5
22F
  8
THREE_QUARTER_INCH_THRUCUT
 10
77.32226958090425
 20
34.42236031238865
 30
0.0
 42
0.0196430313935235
  0
VERTEX
  5
230
  8
THREE_QUARTER_INCH_THRUCUT
 10
77.30658169872424
 20
34.42174377901406
 30
0.0
 42
0.0196329840980716
  0
SEQEND
  5
317
  8
THREE_QUARTER_INCH_THRUCUT
  0
POLYLINE
  5
8C
  8
THREE_QUARTER_INCH_THRUCUT
 66
     1
 10
0.0
 20
0.0
 30
0.0
 70
     1
  0
VERTEX
  5
231
  8
THREE_QUARTER_INCH_THRUCUT
 10
15.29098258090426
 20
34.41989731238866
 30
0.0
 42
0.9614900961335096
  0
VERTEX
  5
232
  8
THREE_QUARTER_INCH_THRUCUT
 10
15.33796499751066
 20
34.02298558811078
 30
0.0
 42
0.9614707681242158
  0
VERTEX
  5
233
  8
THREE_QUARTER_INCH_THRUCUT
 10
15.32226958090425
 20
34.42236031238865
 30
0.0
 42
0.0196430313934835
  0
VERTEX
  5
234
  8
THREE_QUARTER_INCH_THRUCUT
 10
15.30658169872422
 20
34.42174377901406
 30
0.0
 42
0.0196329840981646
  0
SEQEND
  5
318
  8
THREE_QUARTER_INCH_THRUCUT
  0
POLYLINE
  5
8D
  8
THREE_QUARTER_INCH_THRUCUT
 66
     1
 10
0.0
 20
0.0
 30
0.0
 70
     1
  0
VERTEX
  5
235
  8
THREE_QUARTER_INCH_THRUCUT
 10
3.322269580904255
 20
31.22235993738867
 30
0.0
  0
VERTEX
  5
236
  8
THREE_QUARTER_INCH_THRUCUT
 10
4.290819123292678
 20
32.19081044189311
 30
0.0
 42
0.4142135623730944
  0
VERTEX
  5
237
  8
THREE_QUARTER_INCH_THRUCUT
 10
4.290819123292678
 20
33.50390954895565
 30
0.0
  0
VERTEX
  5
238
  8
THREE_QUARTER_INCH_THRUCUT
 10
2.353720038515846
 20
35.44081032582168
 30
0.0
 42
-0.4142135623730946
  0
VERTEX
  5
239
  8
THREE_QUARTER_INCH_THRUCUT
 10
2.353720038515846
 20
36.75390943288422
 30
0.0
  0
VERTEX
  5
23A
  8
THREE_QUARTER_INCH_THRUCUT
 10
3.322269580904255
 20
37.72235993738867
 30
0.0
  0
VERTEX
  5
23B
  8
THREE_QUARTER_INCH_THRUCUT
 10
12.9472695809043
 20
37.72235993738867
 30
0.0
  0
VERTEX
  5
23C
  8
THREE_QUARTER_INCH_THRUCUT
 10
12.94726958090425
 20
36.60236031238866
 30
0.0
  0
VERTEX
  5
23D
  8
THREE_QUARTER_INCH_THRUCUT
 10
12.91599658090426
 20
36.59976831238865
 30
0.0
  0
VERTEX
  5
23E
  8
THREE_QUARTER_INCH_THRUCUT
 10
12.88557658090426
 20
36.59206531238866
 30
0.0
  0
VERTEX
  5
23F
  8
THREE_QUARTER_INCH_THRUCUT
 10
12.85683958090426
 20
36.57946031238865
 30
0.0
  0
VERTEX
  5
240
  8
THREE_QUARTER_INCH_THRUCUT
 10
12.83056858090426
 20
36.56229631238866
 30
0.0
  0
VERTEX
  5
241
  8
THREE_QUARTER_INCH_THRUCUT
 10
12.80748158090427
 20
36.54104331238864
 30
0.0
  0
VERTEX
  5
242
  8
THREE_QUARTER_INCH_THRUCUT
 10
12.78820758090426
 20
36.51628031238867
 30
0.0
  0
VERTEX
  5
243
  8
THREE_QUARTER_INCH_THRUCUT
 10
12.77327258090425
 20
36.48868231238865
 30
0.0
  0
VERTEX
  5
244
  8
THREE_QUARTER_INCH_THRUCUT
 10
12.76308258090426
 20
36.45900231238866
 30
0.0
  0
VERTEX
  5
245
  8
THREE_QUARTER_INCH_THRUCUT
 10
12.75791758090426
 20
36.42805031238867
 30
0.0
  0
VERTEX
  5
246
  8
THREE_QUARTER_INCH_THRUCUT
 10
12.75791758090426
 20
36.39667031238867
 30
0.0
  0
VERTEX
  5
247
  8
THREE_QUARTER_INCH_THRUCUT
 10
12.76308258090426
 20
36.36571731238866
 30
0.0
  0
VERTEX
  5
248
  8
THREE_QUARTER_INCH_THRUCUT
 10
12.77327258090425
 20
36.33603831238865
 30
0.0
  0
VERTEX
  5
249
  8
THREE_QUARTER_INCH_THRUCUT
 10
12.78820758090426
 20
36.30844031238866
 30
0.0
  0
VERTEX
  5
24A
  8
THREE_QUARTER_INCH_THRUCUT
 10
12.80748158090427
 20
36.28367631238867
 30
0.0
  0
VERTEX
  5
24B
  8
THREE_QUARTER_INCH_THRUCUT
 10
12.83056858090426
 20
36.26242331238866
 30
0.0
  0
VERTEX
  5
24C
  8
THREE_QUARTER_INCH_THRUCUT
 10
12.85683958090426
 20
36.24526031238864
 30
0.0
  0
VERTEX
  5
24D
  8
THREE_QUARTER_INCH_THRUCUT
 10
12.88557658090426
 20
36.23265431238867
 30
0.0
  0
VERTEX
  5
24E
  8
THREE_QUARTER_INCH_THRUCUT
 10
12.91599658090426
 20
36.22495131238866
 30
0.0
  0
VERTEX
  5
24F
  8
THREE_QUARTER_INCH_THRUCUT
 10
12.94726958090425
 20
36.22236031238867
 30
0.0
  0
VERTEX
  5
250
  8
THREE_QUARTER_INCH_THRUCUT
 10
13.69726958090425
 20
36.22236031238867
 30
0.0
  0
VERTEX
  5
251
  8
THREE_QUARTER_INCH_THRUCUT
 10
13.72854158090426
 20
36.22495131238866
 30
0.0
  0
VERTEX
  5
252
  8
THREE_QUARTER_INCH_THRUCUT
 10
13.75896158090426
 20
36.23265431238867
 30
0.0
  0
VERTEX
  5
253
  8
THREE_QUARTER_INCH_THRUCUT
 10
13.78769958090426
 20
36.24526031238864
 30
0.0
  0
VERTEX
  5
254
  8
THREE_QUARTER_INCH_THRUCUT
 10
13.81396958090426
 20
36.26242331238866
 30
0.0
  0
VERTEX
  5
255
  8
THREE_QUARTER_INCH_THRUCUT
 10
13.83705658090425
 20
36.28367631238867
 30
0.0
  0
VERTEX
  5
256
  8
THREE_QUARTER_INCH_THRUCUT
 10
13.85633058090426
 20
36.30844031238866
 30
0.0
  0
VERTEX
  5
257
  8
THREE_QUARTER_INCH_THRUCUT
 10
13.87126558090426
 20
36.33603831238865
 30
0.0
  0
VERTEX
  5
258
  8
THREE_QUARTER_INCH_THRUCUT
 10
13.88145558090426
 20
36.36571731238866
 30
0.0
  0
VERTEX
  5
259
  8
THREE_QUARTER_INCH_THRUCUT
 10
13.88662058090426
 20
36.39667031238867
 30
0.0
  0
VERTEX
  5
25A
  8
THREE_QUARTER_INCH_THRUCUT
 10
13.88662058090426
 20
36.42805031238867
 30
0.0
  0
VERTEX
  5
25B
  8
THREE_QUARTER_INCH_THRUCUT
 10
13.88145558090426
 20
36.45900231238866
 30
0.0
  0
VERTEX
  5
25C
  8
THREE_QUARTER_INCH_THRUCUT
 10
13.87126558090426
 20
36.48868231238865
 30
0.0
  0
VERTEX
  5
25D
  8
THREE_QUARTER_INCH_THRUCUT
 10
13.85633058090426
 20
36.51628031238867
 30
0.0
  0
VERTEX
  5
25E
  8
THREE_QUARTER_INCH_THRUCUT
 10
13.83705658090425
 20
36.54104331238864
 30
0.0
  0
VERTEX
  5
25F
  8
THREE_QUARTER_INCH_THRUCUT
 10
13.81396958090426
 20
36.56229631238866
 30
0.0
  0
VERTEX
  5
260
  8
THREE_QUARTER_INCH_THRUCUT
 10
13.78769958090426
 20
36.57946031238865
 30
0.0
  0
VERTEX
  5
261
  8
THREE_QUARTER_INCH_THRUCUT
 10
13.75896158090426
 20
36.59206531238866
 30
0.0
  0
VERTEX
  5
262
  8
THREE_QUARTER_INCH_THRUCUT
 10
13.72854158090426
 20
36.59976831238865
 30
0.0
  0
VERTEX
  5
263
  8
THREE_QUARTER_INCH_THRUCUT
 10
13.69726958090425
 20
36.60236031238866
 30
0.0
  0
VERTEX
  5
264
  8
THREE_QUARTER_INCH_THRUCUT
 10
13.69726958090425
 20
37.72235993738867
 30
0.0
  0
VERTEX
  5
265
  8
THREE_QUARTER_INCH_THRUCUT
 10
34.94726958090425
 20
37.72235993738867
 30
0.0
  0
VERTEX
  5
266
  8
THREE_QUARTER_INCH_THRUCUT
 10
34.94726958090425
 20
36.60236031238866
 30
0.0
  0
VERTEX
  5
267
  8
THREE_QUARTER_INCH_THRUCUT
 10
34.91599658090424
 20
36.59976831238865
 30
0.0
  0
VERTEX
  5
268
  8
THREE_QUARTER_INCH_THRUCUT
 10
34.88557658090425
 20
36.59206531238866
 30
0.0
  0
VERTEX
  5
269
  8
THREE_QUARTER_INCH_THRUCUT
 10
34.85683958090424
 20
36.57946031238865
 30
0.0
  0
VERTEX
  5
26A
  8
THREE_QUARTER_INCH_THRUCUT
 10
34.83056858090426
 20
36.56229631238866
 30
0.0
  0
VERTEX
  5
26B
  8
THREE_QUARTER_INCH_THRUCUT
 10
34.80748158090424
 20
36.54104331238864
 30
0.0
  0
VERTEX
  5
26C
  8
THREE_QUARTER_INCH_THRUCUT
 10
34.78820758090426
 20
36.51628031238867
 30
0.0
  0
VERTEX
  5
26D
  8
THREE_QUARTER_INCH_THRUCUT
 10
34.77327258090425
 20
36.48868231238865
 30
0.0
  0
VERTEX
  5
26E
  8
THREE_QUARTER_INCH_THRUCUT
 10
34.76308258090426
 20
36.45900231238866
 30
0.0
  0
VERTEX
  5
26F
  8
THREE_QUARTER_INCH_THRUCUT
 10
34.75791758090426
 20
36.42805031238867
 30
0.0
  0
VERTEX
  5
270
  8
THREE_QUARTER_INCH_THRUCUT
 10
34.75791758090426
 20
36.39667031238867
 30
0.0
  0
VERTEX
  5
271
  8
THREE_QUARTER_INCH_THRUCUT
 10
34.76308258090426
 20
36.36571731238866
 30
0.0
  0
VERTEX
  5
272
  8
THREE_QUARTER_INCH_THRUCUT
 10
34.77327258090425
 20
36.33603831238865
 30
0.0
  0
VERTEX
  5
273
  8
THREE_QUARTER_INCH_THRUCUT
 10
34.78820758090426
 20
36.30844031238866
 30
0.0
  0
VERTEX
  5
274
  8
THREE_QUARTER_INCH_THRUCUT
 10
34.80748158090424
 20
36.28367631238867
 30
0.0
  0
VERTEX
  5
275
  8
THREE_QUARTER_INCH_THRUCUT
 10
34.83056858090426
 20
36.26242331238866
 30
0.0
  0
VERTEX
  5
276
  8
THREE_QUARTER_INCH_THRUCUT
 10
34.85683958090424
 20
36.24526031238864
 30
0.0
  0
VERTEX
  5
277
  8
THREE_QUARTER_INCH_THRUCUT
 10
34.88557658090425
 20
36.23265431238867
 30
0.0
  0
VERTEX
  5
278
  8
THREE_QUARTER_INCH_THRUCUT
 10
34.91599658090424
 20
36.22495131238866
 30
0.0
  0
VERTEX
  5
279
  8
THREE_QUARTER_INCH_THRUCUT
 10
34.94726958090425
 20
36.22236031238867
 30
0.0
  0
VERTEX
  5
27A
  8
THREE_QUARTER_INCH_THRUCUT
 10
35.69726958090425
 20
36.22236031238867
 30
0.0
  0
VERTEX
  5
27B
  8
THREE_QUARTER_INCH_THRUCUT
 10
35.72854158090424
 20
36.22495131238866
 30
0.0
  0
VERTEX
  5
27C
  8
THREE_QUARTER_INCH_THRUCUT
 10
35.75896158090426
 20
36.23265431238867
 30
0.0
  0
VERTEX
  5
27D
  8
THREE_QUARTER_INCH_THRUCUT
 10
35.78769958090425
 20
36.24526031238864
 30
0.0
  0
VERTEX
  5
27E
  8
THREE_QUARTER_INCH_THRUCUT
 10
35.81396958090425
 20
36.26242331238866
 30
0.0
  0
VERTEX
  5
27F
  8
THREE_QUARTER_INCH_THRUCUT
 10
35.83705658090425
 20
36.28367631238867
 30
0.0
  0
VERTEX
  5
280
  8
THREE_QUARTER_INCH_THRUCUT
 10
35.85633058090425
 20
36.30844031238866
 30
0.0
  0
VERTEX
  5
281
  8
THREE_QUARTER_INCH_THRUCUT
 10
35.87126558090424
 20
36.33603831238865
 30
0.0
  0
VERTEX
  5
282
  8
THREE_QUARTER_INCH_THRUCUT
 10
35.88145558090425
 20
36.36571731238866
 30
0.0
  0
VERTEX
  5
283
  8
THREE_QUARTER_INCH_THRUCUT
 10
35.88662058090424
 20
36.39667031238867
 30
0.0
  0
VERTEX
  5
284
  8
THREE_QUARTER_INCH_THRUCUT
 10
35.88662058090424
 20
36.42805031238867
 30
0.0
  0
VERTEX
  5
285
  8
THREE_QUARTER_INCH_THRUCUT
 10
35.88145558090425
 20
36.45900231238866
 30
0.0
  0
VERTEX
  5
286
  8
THREE_QUARTER_INCH_THRUCUT
 10
35.87126558090424
 20
36.48868231238865
 30
0.0
  0
VERTEX
  5
287
  8
THREE_QUARTER_INCH_THRUCUT
 10
35.85633058090425
 20
36.51628031238867
 30
0.0
  0
VERTEX
  5
288
  8
THREE_QUARTER_INCH_THRUCUT
 10
35.83705658090425
 20
36.54104331238864
 30
0.0
  0
VERTEX
  5
289
  8
THREE_QUARTER_INCH_THRUCUT
 10
35.81396958090425
 20
36.56229631238866
 30
0.0
  0
VERTEX
  5
28A
  8
THREE_QUARTER_INCH_THRUCUT
 10
35.78769958090425
 20
36.57946031238865
 30
0.0
  0
VERTEX
  5
28B
  8
THREE_QUARTER_INCH_THRUCUT
 10
35.75896158090426
 20
36.59206531238866
 30
0.0
  0
VERTEX
  5
28C
  8
THREE_QUARTER_INCH_THRUCUT
 10
35.72854158090424
 20
36.59976831238865
 30
0.0
  0
VERTEX
  5
28D
  8
THREE_QUARTER_INCH_THRUCUT
 10
35.69726958090425
 20
36.60236031238866
 30
0.0
  0
VERTEX
  5
28E
  8
THREE_QUARTER_INCH_THRUCUT
 10
35.69726958090425
 20
37.72235993738867
 30
0.0
  0
VERTEX
  5
28F
  8
THREE_QUARTER_INCH_THRUCUT
 10
56.94726958090431
 20
37.72235993738867
 30
0.0
  0
VERTEX
  5
290
  8
THREE_QUARTER_INCH_THRUCUT
 10
56.94726958090427
 20
36.60236031238866
 30
0.0
  0
VERTEX
  5
291
  8
THREE_QUARTER_INCH_THRUCUT
 10
56.91599658090424
 20
36.59976831238865
 30
0.0
  0
VERTEX
  5
292
  8
THREE_QUARTER_INCH_THRUCUT
 10
56.88557658090425
 20
36.59206531238866
 30
0.0
  0
VERTEX
  5
293
  8
THREE_QUARTER_INCH_THRUCUT
 10
56.85683958090424
 20
36.57946031238865
 30
0.0
  0
VERTEX
  5
294
  8
THREE_QUARTER_INCH_THRUCUT
 10
56.83056858090426
 20
36.56229631238866
 30
0.0
  0
VERTEX
  5
295
  8
THREE_QUARTER_INCH_THRUCUT
 10
56.80748158090426
 20
36.54104331238864
 30
0.0
  0
VERTEX
  5
296
  8
THREE_QUARTER_INCH_THRUCUT
 10
56.78820758090426
 20
36.51628031238867
 30
0.0
  0
VERTEX
  5
297
  8
THREE_QUARTER_INCH_THRUCUT
 10
56.77327258090425
 20
36.48868231238865
 30
0.0
  0
VERTEX
  5
298
  8
THREE_QUARTER_INCH_THRUCUT
 10
56.76308258090426
 20
36.45900231238866
 30
0.0
  0
VERTEX
  5
299
  8
THREE_QUARTER_INCH_THRUCUT
 10
56.75791758090426
 20
36.42805031238867
 30
0.0
  0
VERTEX
  5
29A
  8
THREE_QUARTER_INCH_THRUCUT
 10
56.75791758090426
 20
36.39667031238867
 30
0.0
  0
VERTEX
  5
29B
  8
THREE_QUARTER_INCH_THRUCUT
 10
56.76308258090426
 20
36.36571731238866
 30
0.0
  0
VERTEX
  5
29C
  8
THREE_QUARTER_INCH_THRUCUT
 10
56.77327258090425
 20
36.33603831238865
 30
0.0
  0
VERTEX
  5
29D
  8
THREE_QUARTER_INCH_THRUCUT
 10
56.78820758090426
 20
36.30844031238866
 30
0.0
  0
VERTEX
  5
29E
  8
THREE_QUARTER_INCH_THRUCUT
 10
56.80748158090426
 20
36.28367631238867
 30
0.0
  0
VERTEX
  5
29F
  8
THREE_QUARTER_INCH_THRUCUT
 10
56.83056858090426
 20
36.26242331238866
 30
0.0
  0
VERTEX
  5
2A0
  8
THREE_QUARTER_INCH_THRUCUT
 10
56.85683958090424
 20
36.24526031238864
 30
0.0
  0
VERTEX
  5
2A1
  8
THREE_QUARTER_INCH_THRUCUT
 10
56.88557658090425
 20
36.23265431238867
 30
0.0
  0
VERTEX
  5
2A2
  8
THREE_QUARTER_INCH_THRUCUT
 10
56.91599658090424
 20
36.22495131238866
 30
0.0
  0
VERTEX
  5
2A3
  8
THREE_QUARTER_INCH_THRUCUT
 10
56.94726958090427
 20
36.22236031238867
 30
0.0
  0
VERTEX
  5
2A4
  8
THREE_QUARTER_INCH_THRUCUT
 10
57.69726958090427
 20
36.22236031238867
 30
0.0
  0
VERTEX
  5
2A5
  8
THREE_QUARTER_INCH_THRUCUT
 10
57.72854158090424
 20
36.22495131238866
 30
0.0
  0
VERTEX
  5
2A6
  8
THREE_QUARTER_INCH_THRUCUT
 10
57.75896158090426
 20
36.23265431238867
 30
0.0
  0
VERTEX
  5
2A7
  8
THREE_QUARTER_INCH_THRUCUT
 10
57.78769958090427
 20
36.24526031238864
 30
0.0
  0
VERTEX
  5
2A8
  8
THREE_QUARTER_INCH_THRUCUT
 10
57.81396958090425
 20
36.26242331238866
 30
0.0
  0
VERTEX
  5
2A9
  8
THREE_QUARTER_INCH_THRUCUT
 10
57.83705658090425
 20
36.28367631238867
 30
0.0
  0
VERTEX
  5
2AA
  8
THREE_QUARTER_INCH_THRUCUT
 10
57.85633058090425
 20
36.30844031238866
 30
0.0
  0
VERTEX
  5
2AB
  8
THREE_QUARTER_INCH_THRUCUT
 10
57.87126558090426
 20
36.33603831238865
 30
0.0
  0
VERTEX
  5
2AC
  8
THREE_QUARTER_INCH_THRUCUT
 10
57.88145558090425
 20
36.36571731238866
 30
0.0
  0
VERTEX
  5
2AD
  8
THREE_QUARTER_INCH_THRUCUT
 10
57.88662058090426
 20
36.39667031238867
 30
0.0
  0
VERTEX
  5
2AE
  8
THREE_QUARTER_INCH_THRUCUT
 10
57.88662058090426
 20
36.42805031238867
 30
0.0
  0
VERTEX
  5
2AF
  8
THREE_QUARTER_INCH_THRUCUT
 10
57.88145558090425
 20
36.45900231238866
 30
0.0
  0
VERTEX
  5
2B0
  8
THREE_QUARTER_INCH_THRUCUT
 10
57.87126558090426
 20
36.48868231238865
 30
0.0
  0
VERTEX
  5
2B1
  8
THREE_QUARTER_INCH_THRUCUT
 10
57.85633058090425
 20
36.51628031238867
 30
0.0
  0
VERTEX
  5
2B2
  8
THREE_QUARTER_INCH_THRUCUT
 10
57.83705658090425
 20
36.54104331238864
 30
0.0
  0
VERTEX
  5
2B3
  8
THREE_QUARTER_INCH_THRUCUT
 10
57.81396958090425
 20
36.56229631238866
 30
0.0
  0
VERTEX
  5
2B4
  8
THREE_QUARTER_INCH_THRUCUT
 10
57.78769958090427
 20
36.57946031238865
 30
0.0
  0
VERTEX
  5
2B5
  8
THREE_QUARTER_INCH_THRUCUT
 10
57.75896158090426
 20
36.59206531238866
 30
0.0
  0
VERTEX
  5
2B6
  8
THREE_QUARTER_INCH_THRUCUT
 10
57.72854158090424
 20
36.59976831238865
 30
0.0
  0
VERTEX
  5
2B7
  8
THREE_QUARTER_INCH_THRUCUT
 10
57.69726958090427
 20
36.60236031238866
 30
0.0
  0
VERTEX
  5
2B8
  8
THREE_QUARTER_INCH_THRUCUT
 10
57.69726958090427
 20
37.72235993738867
 30
0.0
  0
VERTEX
  5
2B9
  8
THREE_QUARTER_INCH_THRUCUT
 10
78.94726958090428
 20
37.72235993738867
 30
0.0
  0
VERTEX
  5
2BA
  8
THREE_QUARTER_INCH_THRUCUT
 10
78.94726958090422
 20
36.60236031238866
 30
0.0
  0
VERTEX
  5
2BB
  8
THREE_QUARTER_INCH_THRUCUT
 10
78.91599658090422
 20
36.59976831238865
 30
0.0
  0
VERTEX
  5
2BC
  8
THREE_QUARTER_INCH_THRUCUT
 10
78.88557658090423
 20
36.59206531238866
 30
0.0
  0
VERTEX
  5
2BD
  8
THREE_QUARTER_INCH_THRUCUT
 10
78.85683958090425
 20
36.57946031238865
 30
0.0
  0
VERTEX
  5
2BE
  8
THREE_QUARTER_INCH_THRUCUT
 10
78.83056858090424
 20
36.56229631238866
 30
0.0
  0
VERTEX
  5
2BF
  8
THREE_QUARTER_INCH_THRUCUT
 10
78.80748158090421
 20
36.54104331238864
 30
0.0
  0
VERTEX
  5
2C0
  8
THREE_QUARTER_INCH_THRUCUT
 10
78.78820758090421
 20
36.51628031238867
 30
0.0
  0
VERTEX
  5
2C1
  8
THREE_QUARTER_INCH_THRUCUT
 10
78.77327258090423
 20
36.48868231238865
 30
0.0
  0
VERTEX
  5
2C2
  8
THREE_QUARTER_INCH_THRUCUT
 10
78.76308258090421
 20
36.45900231238866
 30
0.0
  0
VERTEX
  5
2C3
  8
THREE_QUARTER_INCH_THRUCUT
 10
78.75791758090423
 20
36.42805031238867
 30
0.0
  0
VERTEX
  5
2C4
  8
THREE_QUARTER_INCH_THRUCUT
 10
78.75791758090423
 20
36.39667031238867
 30
0.0
  0
VERTEX
  5
2C5
  8
THREE_QUARTER_INCH_THRUCUT
 10
78.76308258090421
 20
36.36571731238866
 30
0.0
  0
VERTEX
  5
2C6
  8
THREE_QUARTER_INCH_THRUCUT
 10
78.77327258090423
 20
36.33603831238865
 30
0.0
  0
VERTEX
  5
2C7
  8
THREE_QUARTER_INCH_THRUCUT
 10
78.78820758090421
 20
36.30844031238866
 30
0.0
  0
VERTEX
  5
2C8
  8
THREE_QUARTER_INCH_THRUCUT
 10
78.80748158090421
 20
36.28367631238867
 30
0.0
  0
VERTEX
  5
2C9
  8
THREE_QUARTER_INCH_THRUCUT
 10
78.83056858090424
 20
36.26242331238866
 30
0.0
  0
VERTEX
  5
2CA
  8
THREE_QUARTER_INCH_THRUCUT
 10
78.85683958090425
 20
36.24526031238864
 30
0.0
  0
VERTEX
  5
2CB
  8
THREE_QUARTER_INCH_THRUCUT
 10
78.88557658090423
 20
36.23265431238867
 30
0.0
  0
VERTEX
  5
2CC
  8
THREE_QUARTER_INCH_THRUCUT
 10
78.91599658090422
 20
36.22495131238866
 30
0.0
  0
VERTEX
  5
2CD
  8
THREE_QUARTER_INCH_THRUCUT
 10
78.94726958090422
 20
36.22236031238867
 30
0.0
  0
VERTEX
  5
2CE
  8
THREE_QUARTER_INCH_THRUCUT
 10
79.69726958090422
 20
36.22236031238867
 30
0.0
  0
VERTEX
  5
2CF
  8
THREE_QUARTER_INCH_THRUCUT
 10
79.72854158090422
 20
36.22495131238866
 30
0.0
  0
VERTEX
  5
2D0
  8
THREE_QUARTER_INCH_THRUCUT
 10
79.75896158090421
 20
36.23265431238867
 30
0.0
  0
VERTEX
  5
2D1
  8
THREE_QUARTER_INCH_THRUCUT
 10
79.78769958090425
 20
36.24526031238864
 30
0.0
  0
VERTEX
  5
2D2
  8
THREE_QUARTER_INCH_THRUCUT
 10
79.81396958090426
 20
36.26242331238866
 30
0.0
  0
VERTEX
  5
2D3
  8
THREE_QUARTER_INCH_THRUCUT
 10
79.83705658090423
 20
36.28367631238867
 30
0.0
  0
VERTEX
  5
2D4
  8
THREE_QUARTER_INCH_THRUCUT
 10
79.85633058090423
 20
36.30844031238866
 30
0.0
  0
VERTEX
  5
2D5
  8
THREE_QUARTER_INCH_THRUCUT
 10
79.87126558090421
 20
36.33603831238865
 30
0.0
  0
VERTEX
  5
2D6
  8
THREE_QUARTER_INCH_THRUCUT
 10
79.88145558090423
 20
36.36571731238866
 30
0.0
  0
VERTEX
  5
2D7
  8
THREE_QUARTER_INCH_THRUCUT
 10
79.88662058090421
 20
36.39667031238867
 30
0.0
  0
VERTEX
  5
2D8
  8
THREE_QUARTER_INCH_THRUCUT
 10
79.88662058090421
 20
36.42805031238867
 30
0.0
  0
VERTEX
  5
2D9
  8
THREE_QUARTER_INCH_THRUCUT
 10
79.88145558090423
 20
36.45900231238866
 30
0.0
  0
VERTEX
  5
2DA
  8
THREE_QUARTER_INCH_THRUCUT
 10
79.87126558090421
 20
36.48868231238865
 30
0.0
  0
VERTEX
  5
2DB
  8
THREE_QUARTER_INCH_THRUCUT
 10
79.85633058090423
 20
36.51628031238867
 30
0.0
  0
VERTEX
  5
2DC
  8
THREE_QUARTER_INCH_THRUCUT
 10
79.83705658090423
 20
36.54104331238864
 30
0.0
  0
VERTEX
  5
2DD
  8
THREE_QUARTER_INCH_THRUCUT
 10
79.81396958090426
 20
36.56229631238866
 30
0.0
  0
VERTEX
  5
2DE
  8
THREE_QUARTER_INCH_THRUCUT
 10
79.78769958090425
 20
36.57946031238865
 30
0.0
  0
VERTEX
  5
2DF
  8
THREE_QUARTER_INCH_THRUCUT
 10
79.75896158090421
 20
36.59206531238866
 30
0.0
  0
VERTEX
  5
2E0
  8
THREE_QUARTER_INCH_THRUCUT
 10
79.72854158090422
 20
36.59976831238865
 30
0.0
  0
VERTEX
  5
2E1
  8
THREE_QUARTER_INCH_THRUCUT
 10
79.69726958090422
 20
36.60236031238866
 30
0.0
  0
VERTEX
  5
2E2
  8
THREE_QUARTER_INCH_THRUCUT
 10
79.69726958090419
 20
37.72235993738867
 30
0.0
  0
VERTEX
  5
2E3
  8
THREE_QUARTER_INCH_THRUCUT
 10
89.32226958090425
 20
37.72235993738867
 30
0.0
  0
VERTEX
  5
2E4
  8
THREE_QUARTER_INCH_THRUCUT
 10
88.35372003851583
 20
36.75390943288422
 30
0.0
 42
0.4142135623730946
  0
VERTEX
  5
2E5
  8
THREE_QUARTER_INCH_THRUCUT
 10
88.35372003851583
 20
35.44081032582168
 30
0.0
  0
VERTEX
  5
2E6
  8
THREE_QUARTER_INCH_THRUCUT
 10
90.29081912329266
 20
33.50390954895565
 30
0.0
 42
-0.4142135623730944
  0
VERTEX
  5
2E7
  8
THREE_QUARTER_INCH_THRUCUT
 10
90.29081912329266
 20
32.19081044189311
 30
0.0
  0
VERTEX
  5
2E8
  8
THREE_QUARTER_INCH_THRUCUT
 10
89.32226958090422
 20
31.22235993738867
 30
0.0
  0
VERTEX
  5
2E9
  8
THREE_QUARTER_INCH_THRUCUT
 10
46.32226958090425
 20
31.22235931238865
 30
0.0
  0
SEQEND
  5
319
  8
THREE_QUARTER_INCH_THRUCUT
  0
POLYLINE
  5
8F
  8
LABELS
 66
     1
 10
0.0
 20
0.0
 30
0.0
 70
     1
  0
VERTEX
  5
2EA
  8
LABELS
 10
6.35131808011667
 20
42.47360837725056
 30
0.0
 42
0.4142135623730951
  0
VERTEX
  5
2EB
  8
LABELS
 10
5.60131808011667
 20
41.72360837725056
 30
0.0
 42
0.4142135623730951
  0
VERTEX
  5
2EC
  8
LABELS
 10
6.35131808011667
 20
40.97360837725056
 30
0.0
 42
0.4142135623730951
  0
VERTEX
  5
2ED
  8
LABELS
 10
7.10131808011667
 20
41.72360837725056
 30
0.0
 42
0.4142135623730951
  0
SEQEND
  5
31A
  8
LABELS
  0
POLYLINE
  5
90
  8
LABELS
 66
     1
 10
0.0
 20
0.0
 30
0.0
  0
VERTEX
  5
2EE
  8
LABELS
 10
85.60070058011667
 20
42.47612538985231
 30
0.0
  0
VERTEX
  5
2EF
  8
LABELS
 10
87.10070058011665
 20
40.97612538985232
 30
0.0
  0
SEQEND
  5
31B
  8
LABELS
  0
POLYLINE
  5
91
  8
LABELS
 66
     1
 10
0.0
 20
0.0
 30
0.0
  0
VERTEX
  5
2F0
  8
LABELS
 10
87.10070058011664
 20
42.47612538985231
 30
0.0
  0
VERTEX
  5
2F1
  8
LABELS
 10
85.60070058011665
 20
40.97612538985232
 30
0.0
  0
SEQEND
  5
31C
  8
LABELS
  0
POLYLINE
  5
92
  8
LABELS
 66
     1
 10
0.0
 20
0.0
 30
0.0
 70
     1
  0
VERTEX
  5
2F2
  8
LABELS
 10
6.322887080904245
 20
35.21984292478691
 30
0.0
 42
0.4142135623730951
  0
VERTEX
  5
2F3
  8
LABELS
 10
5.572887080904245
 20
34.46984292478691
 30
0.0
 42
0.4142135623730951
  0
VERTEX
  5
2F4
  8
LABELS
 10
6.322887080904245
 20
33.71984292478691
 30
0.0
 42
0.4142135623730951
  0
VERTEX
  5
2F5
  8
LABELS
 10
7.072887080904245
 20
34.46984292478691
 30
0.0
 42
0.4142135623730951
  0
SEQEND
  5
31D
  8
LABELS
  0
POLYLINE
  5
93
  8
LABELS
 66
     1
 10
0.0
 20
0.0
 30
0.0
  0
VERTEX
  5
2F6
  8
LABELS
 10
85.57226958090423
 20
35.22235993738866
 30
0.0
  0
VERTEX
  5
2F7
  8
LABELS
 10
87.07226958090423
 20
33.72235993738867
 30
0.0
  0
SEQEND
  5
31E
  8
LABELS
  0
POLYLINE
  5
94
  8
LABELS
 66
     1
 10
0.0
 20
0.0
 30
0.0
  0
VERTEX
  5
2F8
  8
LABELS
 10
87.0722695809042
 20
35.22235993738866
 30
0.0
  0
VERTEX
  5
2F9
  8
LABELS
 10
85.57226958090423
 20
33.72235993738867
 30
0.0
  0
SEQEND
  5
31F
  8
LABELS
  0
ENDSEC
  0
EOF
