  0
SECTION
  2
HEADER
  9
$ACADVER
  1
AC1009
  9
$DWGCODEPAGE
  3
ansi_1252
  9
$INSBASE
 10
0.0
 20
0.0
 30
0.0
  9
$EXTMIN
 10
0.8756194655467686
 20
1.580581866386972
 30
0.0
  9
$EXTMAX
 10
89.57561871117522
 20
45.57626448091651
 30
0.0
  9
$LIMMIN
 10
0.0
 20
0.0
  9
$LIMMAX
 10
12.0
 20
9.0
  9
$ORTHOMODE
 70
     0
  9
$REGENMODE
 70
     1
  9
$FILLMODE
 70
     1
  9
$QTEXTMODE
 70
     0
  9
$MIRRTEXT
 70
     1
  9
$DRAGMODE
 70
     2
  9
$LTSCALE
 40
1.0
  9
$OSMODE
 70
    37
  9
$ATTMODE
 70
     1
  9
$TEXTSIZE
 40
0.2
  9
$TRACEWID
 40
0.05
  9
$TEXTSTYLE
  7
STANDARD
  9
$CLAYER
  8
0
  9
$CELTYPE
  6
BYLAYER
  9
$CECOLOR
 62
   256
  9
$DIMSCALE
 40
1.0
  9
$DIMASZ
 40
0.18
  9
$DIMEXO
 40
0.0625
  9
$DIMDLI
 40
0.38
  9
$DIMRND
 40
0.0
  9
$DIMDLE
 40
0.0
  9
$DIMEXE
 40
0.18
  9
$DIMTP
 40
0.0
  9
$DIMTM
 40
0.0
  9
$DIMTXT
 40
0.18
  9
$DIMCEN
 40
0.09
  9
$DIMTSZ
 40
0.0
  9
$DIMTOL
 70
     0
  9
$DIMLIM
 70
     0
  9
$DIMTIH
 70
     1
  9
$DIMTOH
 70
     1
  9
$DIMSE1
 70
     0
  9
$DIMSE2
 70
     0
  9
$DIMTAD
 70
     0
  9
$DIMZIN
 70
     0
  9
$DIMBLK
  1

  9
$DIMASO
 70
     1
  9
$DIMSHO
 70
     1
  9
$DIMPOST
  1

  9
$DIMAPOST
  1

  9
$DIMALT
 70
     0
  9
$DIMALTD
 70
     2
  9
$DIMALTF
 40
25.4
  9
$DIMLFAC
 40
1.0
  9
$DIMTOFL
 70
     0
  9
$DIMTVP
 40
0.0
  9
$DIMTIX
 70
     0
  9
$DIMSOXD
 70
     0
  9
$DIMSAH
 70
     0
  9
$DIMBLK1
  1

  9
$DIMBLK2
  1

  9
$DIMSTYLE
  2
STANDARD
  9
$DIMCLRD
 70
     0
  9
$DIMCLRE
 70
     0
  9
$DIMCLRT
 70
     0
  9
$DIMTFAC
 40
1.0
  9
$DIMGAP
 40
0.09
  9
$LUNITS
 70
     2
  9
$LUPREC
 70
     4
  9
$SKETCHINC
 40
0.1
  9
$FILLETRAD
 40
0.5
  9
$AUNITS
 70
     0
  9
$AUPREC
 70
     0
  9
$MENU
  1
.
  9
$ELEVATION
 40
0.0
  9
$PELEVATION
 40
0.0
  9
$THICKNESS
 40
0.0
  9
$LIMCHECK
 70
     0
  9
$CHAMFERA
 40
0.0
  9
$CHAMFERB
 40
0.0
  9
$SKPOLY
 70
     0
  9
$TDCREATE
 40
2454910.5
  9
$TDUPDATE
 40
2457898.459609444
  9
$TDINDWG
 40
0.0000000116
  9
$TDUSRTIMER
 40
0.0000000116
  9
$USRTIMER
 70
     1
  9
$ANGBASE
 50
0.0
  9
$ANGDIR
 70
     0
  9
$PDMODE
 70
     0
  9
$PDSIZE
 40
0.0
  9
$PLINEWID
 40
0.0
  9
$COORDS
 70
     1
  9
$SPLFRAME
 70
     0
  9
$SPLINETYPE
 70
     6
  9
$SPLINESEGS
 70
     8
  9
$ATTDIA
 70
     0
  9
$ATTREQ
 70
     1
  9
$HANDLING
 70
     1
  9
$HANDSEED
  5
35D
  9
$SURFTAB1
 70
     6
  9
$SURFTAB2
 70
     6
  9
$SURFTYPE
 70
     6
  9
$SURFU
 70
     6
  9
$SURFV
 70
     6
  9
$UCSNAME
  2

  9
$UCSORG
 10
0.0
 20
0.0
 30
0.0
  9
$UCSXDIR
 10
1.0
 20
0.0
 30
0.0
  9
$UCSYDIR
 10
0.0
 20
1.0
 30
0.0
  9
$PUCSNAME
  2

  9
$PUCSORG
 10
0.0
 20
0.0
 30
0.0
  9
$PUCSXDIR
 10
1.0
 20
0.0
 30
0.0
  9
$PUCSYDIR
 10
0.0
 20
1.0
 30
0.0
  9
$USERI1
 70
     0
  9
$USERI2
 70
     0
  9
$USERI3
 70
     0
  9
$USERI4
 70
     0
  9
$USERI5
 70
     0
  9
$USERR1
 40
0.0
  9
$USERR2
 40
0.0
  9
$USERR3
 40
0.0
  9
$USERR4
 40
0.0
  9
$USERR5
 40
0.0
  9
$WORLDVIEW
 70
     1
  9
$SHADEDGE
 70
     3
  9
$SHADEDIF
 70
    70
  9
$TILEMODE
 70
     1
  9
$MAXACTVP
 70
    64
  9
$PLIMCHECK
 70
     0
  9
$PEXTMIN
 10
1.000000000000000E+20
 20
1.000000000000000E+20
 30
1.000000000000000E+20
  9
$PEXTMAX
 10
-1.000000000000000E+20
 20
-1.000000000000000E+20
 30
-1.000000000000000E+20
  9
$PLIMMIN
 10
0.0
 20
0.0
  9
$PLIMMAX
 10
12.0
 20
9.0
  9
$UNITMODE
 70
     0
  9
$VISRETAIN
 70
     1
  9
$PLINEGEN
 70
     0
  9
$PSLTSCALE
 70
     1
  0
ENDSEC
  0
SECTION
  2
TABLES
  0
TABLE
  2
VPORT
 70
     1
  0
VPORT
  2
*ACTIVE
 70
     0
 10
0.0
 20
0.0
 11
1.0
 21
1.0
 12
10.42990654205607
 22
4.5
 13
0.0
 23
0.0
 14
0.5
 24
0.5
 15
0.5
 25
0.5
 16
0.0
 26
0.0
 36
1.0
 17
0.0
 27
0.0
 37
0.0
 40
9.0
 41
1.972972972850329
 42
50.0
 43
0.0
 44
0.0
 50
0.0
 51
0.0
 71
     0
 72
   100
 73
     1
 74
     3
 75
     0
 76
     0
 77
     0
 78
     0
  0
ENDTAB
  0
TABLE
  2
LTYPE
 70
     2
  0
LTYPE
  2
CONTINUOUS
 70
     0
  3
Solid line
 72
    65
 73
     0
 40
0.0
  0
LTYPE
  2
CONTINUOUS2
 70
     0
  3
Solid Line
 72
    65
 73
     0
 40
0.0
  0
ENDTAB
  0
TABLE
  2
LAYER
 70
     5
  0
LAYER
  2
0
 70
     0
 62
     7
  6
CONTINUOUS
  0
LAYER
  2
SCREW_LOCATION_RECESS
 70
     0
 62
     1
  6
CONTINUOUS
  0
LAYER
  2
LABELS
 70
     0
 62
   150
  6
CONTINUOUS
  0
LAYER
  2
THREE_QUARTER_INCH_THRUCUT
 70
     0
 62
    18
  6
CONTINUOUS
  0
LAYER
  2
THREE_QUARTER_INCH_CUTOUT
 70
     0
 62
    18
  6
CONTINUOUS
  0
ENDTAB
  0
TABLE
  2
STYLE
 70
     1
  0
STYLE
  2
STANDARD
 70
     0
 40
0.0
 41
1.0
 50
0.0
 71
     0
 42
0.2
  3
txt
  4

  0
ENDTAB
  0
TABLE
  2
VIEW
 70
     0
  0
ENDTAB
  0
TABLE
  2
UCS
 70
     0
  0
ENDTAB
  0
TABLE
  2
APPID
 70
     1
  0
APPID
  2
ACAD
 70
     0
  0
ENDTAB
  0
TABLE
  2
DIMSTYLE
 70
     1
  0
DIMSTYLE
  2
STANDARD
 70
     0
  3

  4

  5

  6

  7

 40
1.0
 41
0.18
 42
0.0625
 43
0.38
 44
0.18
 45
0.0
 46
0.0
 47
0.0
 48
0.0
140
0.18
141
0.09
142
0.0
143
25.4
144
1.0
145
0.0
146
1.0
147
0.09
 71
     0
 72
     0
 73
     1
 74
     1
 75
     0
 76
     0
 77
     0
 78
     0
170
     0
171
     2
172
     0
173
     0
174
     0
175
     0
176
     0
177
     0
178
     0
  0
ENDTAB
  0
ENDSEC
  0
SECTION
  2
BLOCKS
  0
BLOCK
  8
0
  2
$MODEL_SPACE
 70
     0
 10
0.0
 20
0.0
 30
0.0
  3
$MODEL_SPACE
  1

  0
ENDBLK
  5
21
  8
0
  0
BLOCK
 67
     1
  8
0
  2
$PAPER_SPACE
 70
     0
 10
0.0
 20
0.0
 30
0.0
  3
$PAPER_SPACE
  1

  0
ENDBLK
  5
1D
 67
     1
  8
0
  0
ENDSEC
  0
SECTION
  2
ENTITIES
  0
POLYLINE
  5
70
  8
SCREW_LOCATION_RECESS
 66
     1
 10
0.0
 20
0.0
 30
0.0
 70
     1
  0
VERTEX
  5
9D
  8
SCREW_LOCATION_RECESS
 10
89.20061871117541
 20
41.35741448319634
 30
0.0
 42
-0.4142135623730951
  0
VERTEX
  5
9E
  8
SCREW_LOCATION_RECESS
 10
89.2005187111754
 20
41.35751448319631
 30
0.0
 42
-0.4142135623730951
  0
VERTEX
  5
9F
  8
SCREW_LOCATION_RECESS
 10
89.20061871117541
 20
41.35761448319629
 30
0.0
 42
-0.4142135623730951
  0
VERTEX
  5
A0
  8
SCREW_LOCATION_RECESS
 10
89.20071871117541
 20
41.35751448319631
 30
0.0
 42
-0.4142135623730951
  0
SEQEND
  5
33A
  8
SCREW_LOCATION_RECESS
  0
POLYLINE
  5
71
  8
SCREW_LOCATION_RECESS
 66
     1
 10
0.0
 20
0.0
 30
0.0
 70
     1
  0
VERTEX
  5
A1
  8
SCREW_LOCATION_RECESS
 10
89.20061871117541
 20
33.66991448319632
 30
0.0
 42
-0.4142135623730951
  0
VERTEX
  5
A2
  8
SCREW_LOCATION_RECESS
 10
89.20055371117542
 20
33.6699794831963
 30
0.0
 42
-0.4142135623730951
  0
VERTEX
  5
A3
  8
SCREW_LOCATION_RECESS
 10
89.20061871117541
 20
33.67004448319629
 30
0.0
 42
-0.4142135623730951
  0
VERTEX
  5
A4
  8
SCREW_LOCATION_RECESS
 10
89.20068371117542
 20
33.6699794831963
 30
0.0
 42
-0.4142135623730951
  0
SEQEND
  5
33B
  8
SCREW_LOCATION_RECESS
  0
POLYLINE
  5
72
  8
SCREW_LOCATION_RECESS
 66
     1
 10
0.0
 20
0.0
 30
0.0
 70
     1
  0
VERTEX
  5
A5
  8
SCREW_LOCATION_RECESS
 10
89.20061871117541
 20
41.35741448319634
 30
0.0
 42
-0.4142135623730951
  0
VERTEX
  5
A6
  8
SCREW_LOCATION_RECESS
 10
89.2005187111754
 20
41.35751448319631
 30
0.0
 42
-0.4142135623730951
  0
VERTEX
  5
A7
  8
SCREW_LOCATION_RECESS
 10
89.20061871117541
 20
41.35761448319629
 30
0.0
 42
-0.4142135623730951
  0
VERTEX
  5
A8
  8
SCREW_LOCATION_RECESS
 10
89.20071871117541
 20
41.35751448319631
 30
0.0
 42
-0.4142135623730951
  0
SEQEND
  5
33C
  8
SCREW_LOCATION_RECESS
  0
POLYLINE
  5
73
  8
SCREW_LOCATION_RECESS
 66
     1
 10
0.0
 20
0.0
 30
0.0
 70
     1
  0
VERTEX
  5
A9
  8
SCREW_LOCATION_RECESS
 10
89.20061871117541
 20
33.66991448319632
 30
0.0
 42
-0.4142135623730951
  0
VERTEX
  5
AA
  8
SCREW_LOCATION_RECESS
 10
89.20055371117542
 20
33.6699794831963
 30
0.0
 42
-0.4142135623730951
  0
VERTEX
  5
AB
  8
SCREW_LOCATION_RECESS
 10
89.20061871117541
 20
33.67004448319629
 30
0.0
 42
-0.4142135623730951
  0
VERTEX
  5
AC
  8
SCREW_LOCATION_RECESS
 10
89.20068371117542
 20
33.6699794831963
 30
0.0
 42
-0.4142135623730951
  0
SEQEND
  5
33D
  8
SCREW_LOCATION_RECESS
  0
POLYLINE
  5
74
  8
SCREW_LOCATION_RECESS
 66
     1
 10
0.0
 20
0.0
 30
0.0
 70
     1
  0
VERTEX
  5
AD
  8
SCREW_LOCATION_RECESS
 10
89.20061871117525
 20
41.97751448045002
 30
0.0
 42
-0.4142135623730976
  0
VERTEX
  5
AE
  8
SCREW_LOCATION_RECESS
 10
89.07061871117527
 20
42.10751448045004
 30
0.0
 42
-0.4142135623730951
  0
VERTEX
  5
AF
  8
SCREW_LOCATION_RECESS
 10
89.20061871117525
 20
42.23751448045005
 30
0.0
 42
-0.4142135623730951
  0
VERTEX
  5
B0
  8
SCREW_LOCATION_RECESS
 10
89.33061871117525
 20
42.10751448045004
 30
0.0
 42
-0.4142135623730976
  0
SEQEND
  5
33E
  8
SCREW_LOCATION_RECESS
  0
POLYLINE
  5
75
  8
SCREW_LOCATION_RECESS
 66
     1
 10
0.0
 20
0.0
 30
0.0
 70
     1
  0
VERTEX
  5
B1
  8
SCREW_LOCATION_RECESS
 10
84.45061870990239
 20
44.69626445122184
 30
0.0
 42
-0.4142135623730951
  0
VERTEX
  5
B2
  8
SCREW_LOCATION_RECESS
 10
84.32061870989224
 20
44.82626445121177
 30
0.0
 42
-0.4142135623730951
  0
VERTEX
  5
B3
  8
SCREW_LOCATION_RECESS
 10
84.45061870988214
 20
44.9562644512218
 30
0.0
 42
-0.4142135623730951
  0
VERTEX
  5
B4
  8
SCREW_LOCATION_RECESS
 10
84.58061870989228
 20
44.82626445123202
 30
0.0
 42
-0.4142135623730951
  0
SEQEND
  5
33F
  8
SCREW_LOCATION_RECESS
  0
POLYLINE
  5
76
  8
SCREW_LOCATION_RECESS
 66
     1
 10
0.0
 20
0.0
 30
0.0
 70
     1
  0
VERTEX
  5
B5
  8
SCREW_LOCATION_RECESS
 10
73.45061870989139
 20
44.95626445035876
 30
0.0
 42
0.4142135623730976
  0
VERTEX
  5
B6
  8
SCREW_LOCATION_RECESS
 10
73.32061870990151
 20
44.82626445034874
 30
0.0
 42
0.4142135623730951
  0
VERTEX
  5
B7
  8
SCREW_LOCATION_RECESS
 10
73.45061870991165
 20
44.69626445035883
 30
0.0
 42
0.4142135623730951
  0
VERTEX
  5
B8
  8
SCREW_LOCATION_RECESS
 10
73.58061870990157
 20
44.82626445036899
 30
0.0
 42
0.4142135623730976
  0
SEQEND
  5
340
  8
SCREW_LOCATION_RECESS
  0
POLYLINE
  5
77
  8
SCREW_LOCATION_RECESS
 66
     1
 10
0.0
 20
0.0
 30
0.0
 70
     1
  0
VERTEX
  5
B9
  8
SCREW_LOCATION_RECESS
 10
67.57561871116758
 20
44.95626445033326
 30
0.0
 42
0.4142135623730976
  0
VERTEX
  5
BA
  8
SCREW_LOCATION_RECESS
 10
67.44561871117769
 20
44.82626445032324
 30
0.0
 42
0.4142135623730951
  0
VERTEX
  5
BB
  8
SCREW_LOCATION_RECESS
 10
67.57561871118783
 20
44.69626445033332
 30
0.0
 42
0.4142135623730951
  0
VERTEX
  5
BC
  8
SCREW_LOCATION_RECESS
 10
67.70561871117775
 20
44.82626445034349
 30
0.0
 42
0.4142135623730976
  0
SEQEND
  5
341
  8
SCREW_LOCATION_RECESS
  0
POLYLINE
  5
78
  8
SCREW_LOCATION_RECESS
 66
     1
 10
0.0
 20
0.0
 30
0.0
 70
     1
  0
VERTEX
  5
BD
  8
SCREW_LOCATION_RECESS
 10
5.950618712452032
 20
44.69626445464957
 30
0.0
 42
0.4142135623730951
  0
VERTEX
  5
BE
  8
SCREW_LOCATION_RECESS
 10
6.080618712462188
 20
44.82626445463949
 30
0.0
 42
0.4142135623730951
  0
VERTEX
  5
BF
  8
SCREW_LOCATION_RECESS
 10
5.95061871247229
 20
44.95626445464951
 30
0.0
 42
0.4142135623730951
  0
VERTEX
  5
C0
  8
SCREW_LOCATION_RECESS
 10
5.82061871246214
 20
44.82626445465975
 30
0.0
 42
0.4142135623730951
  0
SEQEND
  5
342
  8
SCREW_LOCATION_RECESS
  0
POLYLINE
  5
79
  8
SCREW_LOCATION_RECESS
 66
     1
 10
0.0
 20
0.0
 30
0.0
 70
     1
  0
VERTEX
  5
C1
  8
SCREW_LOCATION_RECESS
 10
38.95061871245202
 20
44.69626445207877
 30
0.0
 42
0.4142135623730951
  0
VERTEX
  5
C2
  8
SCREW_LOCATION_RECESS
 10
39.08061871246216
 20
44.8262644520687
 30
0.0
 42
0.4142135623730951
  0
VERTEX
  5
C3
  8
SCREW_LOCATION_RECESS
 10
38.95061871247227
 20
44.95626445207873
 30
0.0
 42
0.4142135623730951
  0
VERTEX
  5
C4
  8
SCREW_LOCATION_RECESS
 10
38.82061871246213
 20
44.82626445208896
 30
0.0
 42
0.4142135623730951
  0
SEQEND
  5
343
  8
SCREW_LOCATION_RECESS
  0
POLYLINE
  5
7A
  8
SCREW_LOCATION_RECESS
 66
     1
 10
0.0
 20
0.0
 30
0.0
 70
     1
  0
VERTEX
  5
C5
  8
SCREW_LOCATION_RECESS
 10
16.95061871247227
 20
44.95626445379258
 30
0.0
 42
-0.4142135623730951
  0
VERTEX
  5
C6
  8
SCREW_LOCATION_RECESS
 10
17.08061871246215
 20
44.82626445378256
 30
0.0
 42
-0.4142135623730951
  0
VERTEX
  5
C7
  8
SCREW_LOCATION_RECESS
 10
16.95061871245201
 20
44.69626445379265
 30
0.0
 42
-0.4142135623730951
  0
VERTEX
  5
C8
  8
SCREW_LOCATION_RECESS
 10
16.82061871246209
 20
44.82626445380282
 30
0.0
 42
-0.4142135623730951
  0
SEQEND
  5
344
  8
SCREW_LOCATION_RECESS
  0
POLYLINE
  5
7B
  8
SCREW_LOCATION_RECESS
 66
     1
 10
0.0
 20
0.0
 30
0.0
 70
     1
  0
VERTEX
  5
C9
  8
SCREW_LOCATION_RECESS
 10
27.95061871247227
 20
44.95626445293566
 30
0.0
 42
-0.4142135623730951
  0
VERTEX
  5
CA
  8
SCREW_LOCATION_RECESS
 10
28.08061871246215
 20
44.82626445292563
 30
0.0
 42
-0.4142135623730951
  0
VERTEX
  5
CB
  8
SCREW_LOCATION_RECESS
 10
27.95061871245201
 20
44.69626445293571
 30
0.0
 42
-0.4142135623730951
  0
VERTEX
  5
CC
  8
SCREW_LOCATION_RECESS
 10
27.82061871246209
 20
44.82626445294589
 30
0.0
 42
-0.4142135623730951
  0
SEQEND
  5
345
  8
SCREW_LOCATION_RECESS
  0
POLYLINE
  5
7C
  8
SCREW_LOCATION_RECESS
 66
     1
 10
0.0
 20
0.0
 30
0.0
 70
     1
  0
VERTEX
  5
CD
  8
SCREW_LOCATION_RECESS
 10
49.95061871245202
 20
44.69626445122184
 30
0.0
 42
0.4142135623730951
  0
VERTEX
  5
CE
  8
SCREW_LOCATION_RECESS
 10
50.08061871246216
 20
44.82626445121177
 30
0.0
 42
0.4142135623730951
  0
VERTEX
  5
CF
  8
SCREW_LOCATION_RECESS
 10
49.95061871247227
 20
44.9562644512218
 30
0.0
 42
0.4142135623730951
  0
VERTEX
  5
D0
  8
SCREW_LOCATION_RECESS
 10
49.82061871246213
 20
44.82626445123202
 30
0.0
 42
0.4142135623730951
  0
SEQEND
  5
346
  8
SCREW_LOCATION_RECESS
  0
POLYLINE
  5
7D
  8
SCREW_LOCATION_RECESS
 66
     1
 10
0.0
 20
0.0
 30
0.0
 70
     1
  0
VERTEX
  5
D1
  8
SCREW_LOCATION_RECESS
 10
60.95061871246303
 20
44.95626445035876
 30
0.0
 42
-0.4142135623730976
  0
VERTEX
  5
D2
  8
SCREW_LOCATION_RECESS
 10
61.0806187124529
 20
44.82626445034874
 30
0.0
 42
-0.4142135623730951
  0
VERTEX
  5
D3
  8
SCREW_LOCATION_RECESS
 10
60.95061871244276
 20
44.69626445035883
 30
0.0
 42
-0.4142135623730951
  0
VERTEX
  5
D4
  8
SCREW_LOCATION_RECESS
 10
60.82061871245284
 20
44.82626445036899
 30
0.0
 42
-0.4142135623730976
  0
SEQEND
  5
347
  8
SCREW_LOCATION_RECESS
  0
POLYLINE
  5
7E
  8
SCREW_LOCATION_RECESS
 66
     1
 10
0.0
 20
0.0
 30
0.0
 70
     1
  0
VERTEX
  5
D5
  8
SCREW_LOCATION_RECESS
 10
1.95061871115645
 20
44.69626445485513
 30
0.0
 42
0.4142135623730951
  0
VERTEX
  5
D6
  8
SCREW_LOCATION_RECESS
 10
2.080618711166606
 20
44.82626445484505
 30
0.0
 42
0.4142135623730951
  0
VERTEX
  5
D7
  8
SCREW_LOCATION_RECESS
 10
1.950618711176707
 20
44.95626445485507
 30
0.0
 42
0.4142135623730951
  0
VERTEX
  5
D8
  8
SCREW_LOCATION_RECESS
 10
1.820618711166558
 20
44.82626445486531
 30
0.0
 42
0.4142135623730951
  0
SEQEND
  5
348
  8
SCREW_LOCATION_RECESS
  0
POLYLINE
  5
7F
  8
SCREW_LOCATION_RECESS
 66
     1
 10
0.0
 20
0.0
 30
0.0
 70
     1
  0
VERTEX
  5
D9
  8
SCREW_LOCATION_RECESS
 10
89.20061871117495
 20
12.91501448159539
 30
0.0
 42
-0.4142135623730951
  0
VERTEX
  5
DA
  8
SCREW_LOCATION_RECESS
 10
89.07061871117497
 20
13.04501448159541
 30
0.0
 42
-0.4142135623730951
  0
VERTEX
  5
DB
  8
SCREW_LOCATION_RECESS
 10
89.20061871117495
 20
13.1750144815954
 30
0.0
 42
-0.4142135623730951
  0
VERTEX
  5
DC
  8
SCREW_LOCATION_RECESS
 10
89.33061871117495
 20
13.04501448159541
 30
0.0
 42
-0.4142135623730951
  0
SEQEND
  5
349
  8
SCREW_LOCATION_RECESS
  0
POLYLINE
  5
80
  8
SCREW_LOCATION_RECESS
 66
     1
 10
0.0
 20
0.0
 30
0.0
 70
     1
  0
VERTEX
  5
DD
  8
SCREW_LOCATION_RECESS
 10
67.20061871116627
 20
18.82126448000846
 30
0.0
 42
-0.4142135623730951
  0
VERTEX
  5
DE
  8
SCREW_LOCATION_RECESS
 10
67.07061871116625
 20
18.95126448000845
 30
0.0
 42
-0.4142135623730951
  0
VERTEX
  5
DF
  8
SCREW_LOCATION_RECESS
 10
67.20061871116627
 20
19.08126448000842
 30
0.0
 42
-0.4142135623730951
  0
VERTEX
  5
E0
  8
SCREW_LOCATION_RECESS
 10
67.3306187111663
 20
18.95126448000845
 30
0.0
 42
-0.4142135623730951
  0
SEQEND
  5
34A
  8
SCREW_LOCATION_RECESS
  0
POLYLINE
  5
81
  8
SCREW_LOCATION_RECESS
 66
     1
 10
0.0
 20
0.0
 30
0.0
 70
     1
  0
VERTEX
  5
E1
  8
SCREW_LOCATION_RECESS
 10
67.20061871190674
 20
37.83126447829457
 30
0.0
 42
0.4142135623730951
  0
VERTEX
  5
E2
  8
SCREW_LOCATION_RECESS
 10
67.0706187118966
 20
37.70126447830472
 30
0.0
 42
0.4142135623730951
  0
VERTEX
  5
E3
  8
SCREW_LOCATION_RECESS
 10
67.20061871188649
 20
37.57126447829461
 30
0.0
 42
0.4142135623730951
  0
VERTEX
  5
E4
  8
SCREW_LOCATION_RECESS
 10
67.33061871189663
 20
37.70126447828446
 30
0.0
 42
0.4142135623730951
  0
SEQEND
  5
34B
  8
SCREW_LOCATION_RECESS
  0
POLYLINE
  5
82
  8
SCREW_LOCATION_RECESS
 66
     1
 10
0.0
 20
0.0
 30
0.0
 70
     1
  0
VERTEX
  5
E5
  8
SCREW_LOCATION_RECESS
 10
45.20061871116548
 20
18.82126448000573
 30
0.0
 42
-0.4142135623730951
  0
VERTEX
  5
E6
  8
SCREW_LOCATION_RECESS
 10
45.07061871116546
 20
18.95126448000572
 30
0.0
 42
-0.4142135623730951
  0
VERTEX
  5
E7
  8
SCREW_LOCATION_RECESS
 10
45.20061871116548
 20
19.08126448000569
 30
0.0
 42
-0.4142135623730951
  0
VERTEX
  5
E8
  8
SCREW_LOCATION_RECESS
 10
45.33061871116549
 20
18.95126448000572
 30
0.0
 42
-0.4142135623730951
  0
SEQEND
  5
34C
  8
SCREW_LOCATION_RECESS
  0
POLYLINE
  5
83
  8
SCREW_LOCATION_RECESS
 66
     1
 10
0.0
 20
0.0
 30
0.0
 70
     1
  0
VERTEX
  5
E9
  8
SCREW_LOCATION_RECESS
 10
45.20061871190595
 20
37.83126447829184
 30
0.0
 42
0.4142135623730951
  0
VERTEX
  5
EA
  8
SCREW_LOCATION_RECESS
 10
45.0706187118958
 20
37.70126447830199
 30
0.0
 42
0.4142135623730951
  0
VERTEX
  5
EB
  8
SCREW_LOCATION_RECESS
 10
45.2006187118857
 20
37.57126447829188
 30
0.0
 42
0.4142135623730951
  0
VERTEX
  5
EC
  8
SCREW_LOCATION_RECESS
 10
45.33061871189583
 20
37.70126447828174
 30
0.0
 42
0.4142135623730951
  0
SEQEND
  5
34D
  8
SCREW_LOCATION_RECESS
  0
POLYLINE
  5
84
  8
SCREW_LOCATION_RECESS
 66
     1
 10
0.0
 20
0.0
 30
0.0
 70
     1
  0
VERTEX
  5
ED
  8
SCREW_LOCATION_RECESS
 10
23.20061871116547
 20
18.82126448000936
 30
0.0
 42
-0.4142135623730951
  0
VERTEX
  5
EE
  8
SCREW_LOCATION_RECESS
 10
23.07061871116545
 20
18.95126448000936
 30
0.0
 42
-0.4142135623730951
  0
VERTEX
  5
EF
  8
SCREW_LOCATION_RECESS
 10
23.20061871116547
 20
19.08126448000933
 30
0.0
 42
-0.4142135623730951
  0
VERTEX
  5
F0
  8
SCREW_LOCATION_RECESS
 10
23.33061871116549
 20
18.95126448000936
 30
0.0
 42
-0.4142135623730951
  0
SEQEND
  5
34E
  8
SCREW_LOCATION_RECESS
  0
POLYLINE
  5
85
  8
SCREW_LOCATION_RECESS
 66
     1
 10
0.0
 20
0.0
 30
0.0
 70
     1
  0
VERTEX
  5
F1
  8
SCREW_LOCATION_RECESS
 10
23.20061871190594
 20
37.83126447829548
 30
0.0
 42
0.4142135623730951
  0
VERTEX
  5
F2
  8
SCREW_LOCATION_RECESS
 10
23.0706187118958
 20
37.70126447830562
 30
0.0
 42
0.4142135623730951
  0
VERTEX
  5
F3
  8
SCREW_LOCATION_RECESS
 10
23.20061871188569
 20
37.57126447829552
 30
0.0
 42
0.4142135623730951
  0
VERTEX
  5
F4
  8
SCREW_LOCATION_RECESS
 10
23.33061871189583
 20
37.70126447828537
 30
0.0
 42
0.4142135623730951
  0
SEQEND
  5
34F
  8
SCREW_LOCATION_RECESS
  0
POLYLINE
  5
87
  8
LABELS
 66
     1
 10
0.0
 20
0.0
 30
0.0
  0
VERTEX
  5
F5
  8
LABELS
 10
5.810609354844321
 20
14.26530360914149
 30
0.0
  0
VERTEX
  5
F6
  8
LABELS
 10
5.775138321792998
 20
14.27426108757484
 30
0.0
  0
VERTEX
  5
F7
  8
LABELS
 10
5.740003265722736
 20
14.28361740324902
 30
0.0
  0
VERTEX
  5
F8
  8
LABELS
 10
5.705211310685991
 20
14.29336804384732
 30
0.0
  0
VERTEX
  5
F9
  8
LABELS
 10
5.670769580735215
 20
14.30350849705302
 30
0.0
  0
VERTEX
  5
FA
  8
LABELS
 10
5.636685199922864
 20
14.31403425054939
 30
0.0
  0
VERTEX
  5
FB
  8
LABELS
 10
5.602965292301391
 20
14.3249407920197
 30
0.0
  0
VERTEX
  5
FC
  8
LABELS
 10
5.569616981923252
 20
14.33622360914725
 30
0.0
  0
VERTEX
  5
FD
  8
LABELS
 10
5.536647392840901
 20
14.34787818961529
 30
0.0
  0
VERTEX
  5
FE
  8
LABELS
 10
5.504063649106794
 20
14.35990002110712
 30
0.0
  0
VERTEX
  5
FF
  8
LABELS
 10
5.471872874773383
 20
14.372284591306
 30
0.0
  0
VERTEX
  5
100
  8
LABELS
 10
5.440082193893124
 20
14.38502738789522
 30
0.0
  0
VERTEX
  5
101
  8
LABELS
 10
5.408698730518471
 20
14.39812389855805
 30
0.0
  0
VERTEX
  5
102
  8
LABELS
 10
5.377729608701879
 20
14.41156961097778
 30
0.0
  0
VERTEX
  5
103
  8
LABELS
 10
5.347181952495802
 20
14.42536001283767
 30
0.0
  0
VERTEX
  5
104
  8
LABELS
 10
5.317062885952695
 20
14.439490591821
 30
0.0
  0
VERTEX
  5
105
  8
LABELS
 10
5.287379533125012
 20
14.45395683561106
 30
0.0
  0
VERTEX
  5
106
  8
LABELS
 10
5.258139018065209
 20
14.46875423189111
 30
0.0
  0
VERTEX
  5
107
  8
LABELS
 10
5.229348464825739
 20
14.48387826834444
 30
0.0
  0
VERTEX
  5
108
  8
LABELS
 10
5.201014997459056
 20
14.49932443265433
 30
0.0
  0
VERTEX
  5
109
  8
LABELS
 10
5.173145740017616
 20
14.51508821250405
 30
0.0
  0
VERTEX
  5
10A
  8
LABELS
 10
5.145747816553873
 20
14.53116509557688
 30
0.0
  0
VERTEX
  5
10B
  8
LABELS
 10
5.118828351120283
 20
14.54755056955609
 30
0.0
  0
VERTEX
  5
10C
  8
LABELS
 10
5.092394467769298
 20
14.56424012212497
 30
0.0
  0
VERTEX
  5
10D
  8
LABELS
 10
5.066453290553374
 20
14.58122924096678
 30
0.0
  0
VERTEX
  5
10E
  8
LABELS
 10
5.041011943524966
 20
14.59851341376482
 30
0.0
  0
VERTEX
  5
10F
  8
LABELS
 10
5.016077550736527
 20
14.61608812820235
 30
0.0
  0
VERTEX
  5
110
  8
LABELS
 10
4.991657236240512
 20
14.63394887196266
 30
0.0
  0
VERTEX
  5
111
  8
LABELS
 10
4.967758124089376
 20
14.65209113272901
 30
0.0
  0
VERTEX
  5
112
  8
LABELS
 10
4.944387338335574
 20
14.67051039818469
 30
0.0
  0
VERTEX
  5
113
  8
LABELS
 10
4.921552003031559
 20
14.68920215601298
 30
0.0
  0
VERTEX
  5
114
  8
LABELS
 10
4.899259242229787
 20
14.70816189389715
 30
0.0
  0
VERTEX
  5
115
  8
LABELS
 10
4.877516179982713
 20
14.72738509952048
 30
0.0
  0
VERTEX
  5
116
  8
LABELS
 10
4.85632994034279
 20
14.74686726056624
 30
0.0
  0
VERTEX
  5
117
  8
LABELS
 10
4.835707647362472
 20
14.76660386471772
 30
0.0
  0
VERTEX
  5
118
  8
LABELS
 10
4.815656425094216
 20
14.78659039965819
 30
0.0
  0
VERTEX
  5
119
  8
LABELS
 10
4.796183397590475
 20
14.80682235307093
 30
0.0
  0
VERTEX
  5
11A
  8
LABELS
 10
4.777295688903703
 20
14.82729521263922
 30
0.0
  0
VERTEX
  5
11B
  8
LABELS
 10
4.759000423086356
 20
14.84800446604633
 30
0.0
  0
VERTEX
  5
11C
  8
LABELS
 10
4.741304724190887
 20
14.86894560097554
 30
0.0
  0
VERTEX
  5
11D
  8
LABELS
 10
4.724215716269753
 20
14.89011410511013
 30
0.0
  0
VERTEX
  5
11E
  8
LABELS
 10
4.707740523375406
 20
14.91150546613337
 30
0.0
  0
VERTEX
  5
11F
  8
LABELS
 10
4.691886269560301
 20
14.93311517172855
 30
0.0
  0
VERTEX
  5
120
  8
LABELS
 10
4.676660078876894
 20
14.95493870957893
 30
0.0
  0
VERTEX
  5
121
  8
LABELS
 10
4.662069075377637
 20
14.97697156736781
 30
0.0
  0
VERTEX
  5
122
  8
LABELS
 10
4.648120383114987
 20
14.99920923277845
 30
0.0
  0
VERTEX
  5
123
  8
LABELS
 10
4.634821126141398
 20
15.02164719349413
 30
0.0
  0
VERTEX
  5
124
  8
LABELS
 10
4.622178428509324
 20
15.04428093719814
 30
0.0
  0
VERTEX
  5
125
  8
LABELS
 10
4.610199414271218
 20
15.06710595157374
 30
0.0
  0
VERTEX
  5
126
  8
LABELS
 10
4.598891207479539
 20
15.09011772430421
 30
0.0
  0
VERTEX
  5
127
  8
LABELS
 10
4.588260932186737
 20
15.11331174307283
 30
0.0
  0
VERTEX
  5
128
  8
LABELS
 10
4.578315712445267
 20
15.13668349556289
 30
0.0
  0
VERTEX
  5
129
  8
LABELS
 10
4.569062672307587
 20
15.16022846945765
 30
0.0
  0
VERTEX
  5
12A
  8
LABELS
 10
4.560508935826149
 20
15.18394215244039
 30
0.0
  0
VERTEX
  5
12B
  8
LABELS
 10
4.552661627053407
 20
15.2078200321944
 30
0.0
  0
VERTEX
  5
12C
  8
LABELS
 10
4.545527870041817
 20
15.23185759640294
 30
0.0
  0
VERTEX
  5
12D
  8
LABELS
 10
4.539114788843833
 20
15.2560503327493
 30
0.0
  0
VERTEX
  5
12E
  8
LABELS
 10
4.53342950751191
 20
15.28039372891675
 30
0.0
  0
VERTEX
  5
12F
  8
LABELS
 10
4.528479150098501
 20
15.30488327258858
 30
0.0
  0
VERTEX
  5
130
  8
LABELS
 10
4.524270840656062
 20
15.32951445144805
 30
0.0
  0
VERTEX
  5
131
  8
LABELS
 10
4.520811703237047
 20
15.35428275317844
 30
0.0
  0
VERTEX
  5
132
  8
LABELS
 10
4.518108861893911
 20
15.37918366546304
 30
0.0
  0
VERTEX
  5
133
  8
LABELS
 10
4.516169440679109
 20
15.40421267598512
 30
0.0
  0
VERTEX
  5
134
  8
LABELS
 10
4.515000563645094
 20
15.42936527242795
 30
0.0
  0
VERTEX
  5
135
  8
LABELS
 10
4.514609354844321
 20
15.45463694247482
 30
0.0
  0
VERTEX
  5
136
  8
LABELS
 10
4.514776912959862
 20
15.47324874512608
 30
0.0
  0
VERTEX
  5
137
  8
LABELS
 10
4.515278246893399
 20
15.49180398998832
 30
0.0
  0
VERTEX
  5
138
  8
LABELS
 10
4.516111346025299
 20
15.51030126334462
 30
0.0
  0
VERTEX
  5
139
  8
LABELS
 10
4.51727419973593
 20
15.52873915147805
 30
0.0
  0
VERTEX
  5
13A
  8
LABELS
 10
4.518764797405659
 20
15.54711624067167
 30
0.0
  0
VERTEX
  5
13B
  8
LABELS
 10
4.520581128414857
 20
15.56543111720856
 30
0.0
  0
VERTEX
  5
13C
  8
LABELS
 10
4.522721182143892
 20
15.58368236737179
 30
0.0
  0
VERTEX
  5
13D
  8
LABELS
 10
4.525182947973128
 20
15.60186857744444
 30
0.0
  0
VERTEX
  5
13E
  8
LABELS
 10
4.527964415282938
 20
15.61998833370957
 30
0.0
  0
VERTEX
  5
13F
  8
LABELS
 10
4.531063573453686
 20
15.63804022245025
 30
0.0
  0
VERTEX
  5
140
  8
LABELS
 10
4.534478411865743
 20
15.65602282994956
 30
0.0
  0
VERTEX
  5
141
  8
LABELS
 10
4.538206919899476
 20
15.67393474249057
 30
0.0
  0
VERTEX
  5
142
  8
LABELS
 10
4.542247086935253
 20
15.69177454635634
 30
0.0
  0
VERTEX
  5
143
  8
LABELS
 10
4.546596902353444
 20
15.70954082782996
 30
0.0
  0
VERTEX
  5
144
  8
LABELS
 10
4.551254355534414
 20
15.72723217319448
 30
0.0
  0
VERTEX
  5
145
  8
LABELS
 10
4.556217435858533
 20
15.744847168733
 30
0.0
  0
VERTEX
  5
146
  8
LABELS
 10
4.56148413270617
 20
15.76238440072856
 30
0.0
  0
VERTEX
  5
147
  8
LABELS
 10
4.56705243545769
 20
15.77984245546425
 30
0.0
  0
VERTEX
  5
148
  8
LABELS
 10
4.572920333493464
 20
15.79721991922314
 30
0.0
  0
VERTEX
  5
149
  8
LABELS
 10
4.57908581619386
 20
15.81451537828829
 30
0.0
  0
VERTEX
  5
14A
  8
LABELS
 10
4.585546872939244
 20
15.83172741894279
 30
0.0
  0
VERTEX
  5
14B
  8
LABELS
 10
4.592301493109986
 20
15.84885462746969
 30
0.0
  0
VERTEX
  5
14C
  8
LABELS
 10
4.599347666086453
 20
15.86589559015208
 30
0.0
  0
VERTEX
  5
14D
  8
LABELS
 10
4.606683381249015
 20
15.88284889327302
 30
0.0
  0
VERTEX
  5
14E
  8
LABELS
 10
4.622215395653891
 20
15.91648686596285
 30
0.0
  0
VERTEX
  5
14F
  8
LABELS
 10
4.638881451367558
 20
15.94975723580375
 30
0.0
  0
VERTEX
  5
150
  8
LABELS
 10
4.656665463432963
 20
15.98264869306029
 30
0.0
  0
VERTEX
  5
151
  8
LABELS
 10
4.67555134689305
 20
16.01514992799704
 30
0.0
  0
VERTEX
  5
152
  8
LABELS
 10
4.695523016790763
 20
16.04724963087857
 30
0.0
  0
VERTEX
  5
153
  8
LABELS
 10
4.716564388169049
 20
16.07893649196945
 30
0.0
  0
VERTEX
  5
154
  8
LABELS
 10
4.738659376070851
 20
16.11019920153426
 30
0.0
  0
VERTEX
  5
155
  8
LABELS
 10
4.761791895539115
 20
16.14102644983756
 30
0.0
  0
VERTEX
  5
156
  8
LABELS
 10
4.785945861616785
 20
16.17140692714393
 30
0.0
  0
VERTEX
  5
157
  8
LABELS
 10
4.811105189346808
 20
16.20132932371794
 30
0.0
  0
VERTEX
  5
158
  8
LABELS
 10
4.837253793772128
 20
16.23078232982414
 30
0.0
  0
VERTEX
  5
159
  8
LABELS
 10
4.864375589935689
 20
16.25975463572713
 30
0.0
  0
VERTEX
  5
15A
  8
LABELS
 10
4.892454492880436
 20
16.28823493169147
 30
0.0
  0
VERTEX
  5
15B
  8
LABELS
 10
4.921474417649314
 20
16.31621190798172
 30
0.0
  0
VERTEX
  5
15C
  8
LABELS
 10
4.951419279285269
 20
16.34367425486246
 30
0.0
  0
VERTEX
  5
15D
  8
LABELS
 10
4.982272992831246
 20
16.37061066259825
 30
0.0
  0
VERTEX
  5
15E
  8
LABELS
 10
5.014019473330189
 20
16.39700982145368
 30
0.0
  0
VERTEX
  5
15F
  8
LABELS
 10
5.046642635825043
 20
16.42286042169331
 30
0.0
  0
VERTEX
  5
160
  8
LABELS
 10
5.080126395358755
 20
16.44815115358171
 30
0.0
  0
VERTEX
  5
161
  8
LABELS
 10
5.114454666974266
 20
16.47287070738346
 30
0.0
  0
VERTEX
  5
162
  8
LABELS
 10
5.149611365714524
 20
16.49700777336312
 30
0.0
  0
VERTEX
  5
163
  8
LABELS
 10
5.185580406622474
 20
16.52055104178525
 30
0.0
  0
VERTEX
  5
164
  8
LABELS
 10
5.222345704741059
 20
16.54348920291445
 30
0.0
  0
VERTEX
  5
165
  8
LABELS
 10
5.259891175113226
 20
16.56581094701527
 30
0.0
  0
VERTEX
  5
166
  8
LABELS
 10
5.298200732781918
 20
16.58750496435228
 30
0.0
  0
VERTEX
  5
167
  8
LABELS
 10
5.337258292790082
 20
16.60855994519006
 30
0.0
  0
VERTEX
  5
168
  8
LABELS
 10
5.377047770180661
 20
16.62896457979318
 30
0.0
  0
VERTEX
  5
169
  8
LABELS
 10
5.417553079996601
 20
16.64870755842621
 30
0.0
  0
VERTEX
  5
16A
  8
LABELS
 10
5.458758137280847
 20
16.66777757135371
 30
0.0
  0
VERTEX
  5
16B
  8
LABELS
 10
5.500646857076344
 20
16.68616330884026
 30
0.0
  0
VERTEX
  5
16C
  8
LABELS
 10
5.543203154426037
 20
16.70385346115044
 30
0.0
  0
VERTEX
  5
16D
  8
LABELS
 10
5.58641094437287
 20
16.7208367185488
 30
0.0
  0
VERTEX
  5
16E
  8
LABELS
 10
5.63025414195979
 20
16.73710177129992
 30
0.0
  0
VERTEX
  5
16F
  8
LABELS
 10
5.674716662229739
 20
16.75263730966838
 30
0.0
  0
VERTEX
  5
170
  8
LABELS
 10
5.719782420225664
 20
16.76743202391873
 30
0.0
  0
VERTEX
  5
171
  8
LABELS
 10
5.76543533099051
 20
16.78147460431556
 30
0.0
  0
VERTEX
  5
172
  8
LABELS
 10
5.81165930956722
 20
16.79475374112344
 30
0.0
  0
VERTEX
  5
173
  8
LABELS
 10
5.858438270998743
 20
16.80725812460692
 30
0.0
  0
VERTEX
  5
174
  8
LABELS
 10
5.905756130328021
 20
16.8189764450306
 30
0.0
  0
VERTEX
  5
175
  8
LABELS
 10
5.953596802597998
 20
16.82989739265903
 30
0.0
  0
VERTEX
  5
176
  8
LABELS
 10
6.001944202851621
 20
16.84000965775678
 30
0.0
  0
VERTEX
  5
177
  8
LABELS
 10
6.050782246131834
 20
16.84930193058843
 30
0.0
  0
VERTEX
  5
178
  8
LABELS
 10
6.100094847481582
 20
16.85776290141855
 30
0.0
  0
VERTEX
  5
179
  8
LABELS
 10
6.149865921943811
 20
16.86538126051171
 30
0.0
  0
VERTEX
  5
17A
  8
LABELS
 10
6.200079384561465
 20
16.87214569813247
 30
0.0
  0
VERTEX
  5
17B
  8
LABELS
 10
6.250719150377488
 20
16.87804490454542
 30
0.0
  0
VERTEX
  5
17C
  8
LABELS
 10
6.301769134434828
 20
16.88306757001511
 30
0.0
  0
VERTEX
  5
17D
  8
LABELS
 10
6.353213251776427
 20
16.88720238480613
 30
0.0
  0
VERTEX
  5
17E
  8
LABELS
 10
6.40503541744523
 20
16.89043803918304
 30
0.0
  0
VERTEX
  5
17F
  8
LABELS
 10
6.457219546484184
 20
16.89276322341041
 30
0.0
  0
VERTEX
  5
180
  8
LABELS
 10
6.509749553936233
 20
16.89416662775282
 30
0.0
  0
VERTEX
  5
181
  8
LABELS
 10
6.562609354844322
 20
16.89463694247483
 30
0.0
  0
VERTEX
  5
182
  8
LABELS
 10
6.615469155752411
 20
16.89416662775282
 30
0.0
  0
VERTEX
  5
183
  8
LABELS
 10
6.66799916320446
 20
16.89276322341041
 30
0.0
  0
VERTEX
  5
184
  8
LABELS
 10
6.720183292243414
 20
16.89043803918304
 30
0.0
  0
VERTEX
  5
185
  8
LABELS
 10
6.772005457912217
 20
16.88720238480613
 30
0.0
  0
VERTEX
  5
186
  8
LABELS
 10
6.823449575253816
 20
16.88306757001511
 30
0.0
  0
VERTEX
  5
187
  8
LABELS
 10
6.874499559311155
 20
16.87804490454542
 30
0.0
  0
VERTEX
  5
188
  8
LABELS
 10
6.925139325127178
 20
16.87214569813247
 30
0.0
  0
VERTEX
  5
189
  8
LABELS
 10
6.975352787744832
 20
16.86538126051171
 30
0.0
  0
VERTEX
  5
18A
  8
LABELS
 10
7.02512386220706
 20
16.85776290141855
 30
0.0
  0
VERTEX
  5
18B
  8
LABELS
 10
7.074436463556808
 20
16.84930193058843
 30
0.0
  0
VERTEX
  5
18C
  8
LABELS
 10
7.123274506837022
 20
16.84000965775678
 30
0.0
  0
VERTEX
  5
18D
  8
LABELS
 10
7.171621907090644
 20
16.82989739265903
 30
0.0
  0
VERTEX
  5
18E
  8
LABELS
 10
7.219462579360622
 20
16.8189764450306
 30
0.0
  0
VERTEX
  5
18F
  8
LABELS
 10
7.266780438689899
 20
16.80725812460692
 30
0.0
  0
VERTEX
  5
190
  8
LABELS
 10
7.313559400121422
 20
16.79475374112344
 30
0.0
  0
VERTEX
  5
191
  8
LABELS
 10
7.359783378698133
 20
16.78147460431556
 30
0.0
  0
VERTEX
  5
192
  8
LABELS
 10
7.405436289462978
 20
16.76743202391873
 30
0.0
  0
VERTEX
  5
193
  8
LABELS
 10
7.450502047458904
 20
16.75263730966838
 30
0.0
  0
VERTEX
  5
194
  8
LABELS
 10
7.494964567728853
 20
16.73710177129992
 30
0.0
  0
VERTEX
  5
195
  8
LABELS
 10
7.538807765315772
 20
16.7208367185488
 30
0.0
  0
VERTEX
  5
196
  8
LABELS
 10
7.582015555262606
 20
16.70385346115044
 30
0.0
  0
VERTEX
  5
197
  8
LABELS
 10
7.624571852612299
 20
16.68616330884026
 30
0.0
  0
VERTEX
  5
198
  8
LABELS
 10
7.666460572407796
 20
16.66777757135371
 30
0.0
  0
VERTEX
  5
199
  8
LABELS
 10
7.707665629692041
 20
16.64870755842621
 30
0.0
  0
VERTEX
  5
19A
  8
LABELS
 10
7.748170939507982
 20
16.62896457979318
 30
0.0
  0
VERTEX
  5
19B
  8
LABELS
 10
7.78796041689856
 20
16.60855994519006
 30
0.0
  0
VERTEX
  5
19C
  8
LABELS
 10
7.827017976906724
 20
16.58750496435228
 30
0.0
  0
VERTEX
  5
19D
  8
LABELS
 10
7.865327534575417
 20
16.56581094701527
 30
0.0
  0
VERTEX
  5
19E
  8
LABELS
 10
7.902873004947583
 20
16.54348920291445
 30
0.0
  0
VERTEX
  5
19F
  8
LABELS
 10
7.939638303066168
 20
16.52055104178525
 30
0.0
  0
VERTEX
  5
1A0
  8
LABELS
 10
7.975607343974119
 20
16.49700777336311
 30
0.0
  0
VERTEX
  5
1A1
  8
LABELS
 10
8.010764042714376
 20
16.47287070738346
 30
0.0
  0
VERTEX
  5
1A2
  8
LABELS
 10
8.045092314329889
 20
16.44815115358171
 30
0.0
  0
VERTEX
  5
1A3
  8
LABELS
 10
8.078576073863598
 20
16.42286042169331
 30
0.0
  0
VERTEX
  5
1A4
  8
LABELS
 10
8.111199236358454
 20
16.39700982145368
 30
0.0
  0
VERTEX
  5
1A5
  8
LABELS
 10
8.142945716857398
 20
16.37061066259825
 30
0.0
  0
VERTEX
  5
1A6
  8
LABELS
 10
8.173799430403374
 20
16.34367425486245
 30
0.0
  0
VERTEX
  5
1A7
  8
LABELS
 10
8.203744292039328
 20
16.31621190798171
 30
0.0
  0
VERTEX
  5
1A8
  8
LABELS
 10
8.232764216808206
 20
16.28823493169146
 30
0.0
  0
VERTEX
  5
1A9
  8
LABELS
 10
8.260843119752954
 20
16.25975463572713
 30
0.0
  0
VERTEX
  5
1AA
  8
LABELS
 10
8.287964915916511
 20
16.23078232982414
 30
0.0
  0
VERTEX
  5
1AB
  8
LABELS
 10
8.31411352034183
 20
16.20132932371793
 30
0.0
  0
VERTEX
  5
1AC
  8
LABELS
 10
8.339272848071854
 20
16.17140692714393
 30
0.0
  0
VERTEX
  5
1AD
  8
LABELS
 10
8.363426814149525
 20
16.14102644983756
 30
0.0
  0
VERTEX
  5
1AE
  8
LABELS
 10
8.38655933361779
 20
16.11019920153426
 30
0.0
  0
VERTEX
  5
1AF
  8
LABELS
 10
8.408654321519592
 20
16.07893649196945
 30
0.0
  0
VERTEX
  5
1B0
  8
LABELS
 10
8.429695692897877
 20
16.04724963087857
 30
0.0
  0
VERTEX
  5
1B1
  8
LABELS
 10
8.44966736279559
 20
16.01514992799703
 30
0.0
  0
VERTEX
  5
1B2
  8
LABELS
 10
8.468553246255677
 20
15.98264869306028
 30
0.0
  0
VERTEX
  5
1B3
  8
LABELS
 10
8.486337258321083
 20
15.94975723580374
 30
0.0
  0
VERTEX
  5
1B4
  8
LABELS
 10
8.50300331403475
 20
15.91648686596285
 30
0.0
  0
VERTEX
  5
1B5
  8
LABELS
 10
8.518535328439626
 20
15.88284889327302
 30
0.0
  0
VERTEX
  5
1B6
  8
LABELS
 10
8.525871043602187
 20
15.86589559015208
 30
0.0
  0
VERTEX
  5
1B7
  8
LABELS
 10
8.532917216578655
 20
15.84885462746969
 30
0.0
  0
VERTEX
  5
1B8
  8
LABELS
 10
8.539671836749397
 20
15.83172741894279
 30
0.0
  0
VERTEX
  5
1B9
  8
LABELS
 10
8.546132893494782
 20
15.81451537828829
 30
0.0
  0
VERTEX
  5
1BA
  8
LABELS
 10
8.552298376195179
 20
15.79721991922314
 30
0.0
  0
VERTEX
  5
1BB
  8
LABELS
 10
8.558166274230953
 20
15.77984245546425
 30
0.0
  0
VERTEX
  5
1BC
  8
LABELS
 10
8.563734576982473
 20
15.76238440072856
 30
0.0
  0
VERTEX
  5
1BD
  8
LABELS
 10
8.569001273830109
 20
15.744847168733
 30
0.0
  0
VERTEX
  5
1BE
  8
LABELS
 10
8.573964354154228
 20
15.72723217319448
 30
0.0
  0
VERTEX
  5
1BF
  8
LABELS
 10
8.578621807335198
 20
15.70954082782996
 30
0.0
  0
VERTEX
  5
1C0
  8
LABELS
 10
8.582971622753387
 20
15.69177454635634
 30
0.0
  0
VERTEX
  5
1C1
  8
LABELS
 10
8.587011789789166
 20
15.67393474249057
 30
0.0
  0
VERTEX
  5
1C2
  8
LABELS
 10
8.590740297822899
 20
15.65602282994956
 30
0.0
  0
VERTEX
  5
1C3
  8
LABELS
 10
8.594155136234956
 20
15.63804022245025
 30
0.0
  0
VERTEX
  5
1C4
  8
LABELS
 10
8.597254294405705
 20
15.61998833370957
 30
0.0
  0
VERTEX
  5
1C5
  8
LABELS
 10
8.600035761715514
 20
15.60186857744444
 30
0.0
  0
VERTEX
  5
1C6
  8
LABELS
 10
8.602497527544752
 20
15.58368236737179
 30
0.0
  0
VERTEX
  5
1C7
  8
LABELS
 10
8.604637581273785
 20
15.56543111720856
 30
0.0
  0
VERTEX
  5
1C8
  8
LABELS
 10
8.606453912282984
 20
15.54711624067167
 30
0.0
  0
VERTEX
  5
1C9
  8
LABELS
 10
8.607944509952713
 20
15.52873915147805
 30
0.0
  0
VERTEX
  5
1CA
  8
LABELS
 10
8.609107363663345
 20
15.51030126334462
 30
0.0
  0
VERTEX
  5
1CB
  8
LABELS
 10
8.609940462795244
 20
15.49180398998832
 30
0.0
  0
VERTEX
  5
1CC
  8
LABELS
 10
8.610441796728779
 20
15.47324874512608
 30
0.0
  0
VERTEX
  5
1CD
  8
LABELS
 10
8.610609354844321
 20
15.45463694247482
 30
0.0
  0
VERTEX
  5
1CE
  8
LABELS
 10
8.610255522689286
 20
15.4300007467837
 30
0.0
  0
VERTEX
  5
1CF
  8
LABELS
 10
8.609198138583228
 20
15.40547471118514
 30
0.0
  0
VERTEX
  5
1D0
  8
LABELS
 10
8.60744337106472
 20
15.38106280314373
 30
0.0
  0
VERTEX
  5
1D1
  8
LABELS
 10
8.604997388672341
 20
15.35676899012405
 30
0.0
  0
VERTEX
  5
1D2
  8
LABELS
 10
8.601866359944664
 20
15.33259723959068
 30
0.0
  0
VERTEX
  5
1D3
  8
LABELS
 10
8.598056453420265
 20
15.3085515190082
 30
0.0
  0
VERTEX
  5
1D4
  8
LABELS
 10
8.593573837637717
 20
15.28463579584119
 30
0.0
  0
VERTEX
  5
1D5
  8
LABELS
 10
8.588424681135596
 20
15.26085403755423
 30
0.0
  0
VERTEX
  5
1D6
  8
LABELS
 10
8.582615152452476
 20
15.23721021161191
 30
0.0
  0
VERTEX
  5
1D7
  8
LABELS
 10
8.576151420126934
 20
15.21370828547879
 30
0.0
  0
VERTEX
  5
1D8
  8
LABELS
 10
8.56903965269754
 20
15.19035222661947
 30
0.0
  0
VERTEX
  5
1D9
  8
LABELS
 10
8.561286018702877
 20
15.16714600249852
 30
0.0
  0
VERTEX
  5
1DA
  8
LABELS
 10
8.552896686681514
 20
15.14409358058053
 30
0.0
  0
VERTEX
  5
1DB
  8
LABELS
 10
8.543877825172025
 20
15.12119892833007
 30
0.0
  0
VERTEX
  5
1DC
  8
LABELS
 10
8.534235602712988
 20
15.09846601321172
 30
0.0
  0
VERTEX
  5
1DD
  8
LABELS
 10
8.523976187842976
 20
15.07589880269007
 30
0.0
  0
VERTEX
  5
1DE
  8
LABELS
 10
8.513105749100566
 20
15.05350126422969
 30
0.0
  0
VERTEX
  5
1DF
  8
LABELS
 10
8.50163045502433
 20
15.03127736529518
 30
0.0
  0
VERTEX
  5
1E0
  8
LABELS
 10
8.489556474152845
 20
15.00923107335109
 30
0.0
  0
VERTEX
  5
1E1
  8
LABELS
 10
8.476889975024687
 20
14.98736635586203
 30
0.0
  0
VERTEX
  5
1E2
  8
LABELS
 10
8.463637126178428
 20
14.96568718029256
 30
0.0
  0
VERTEX
  5
1E3
  8
LABELS
 10
8.449804096152643
 20
14.94419751410727
 30
0.0
  0
VERTEX
  5
1E4
  8
LABELS
 10
8.435397053485909
 20
14.92290132477074
 30
0.0
  0
VERTEX
  5
1E5
  8
LABELS
 10
8.4204221667168
 20
14.90180257974754
 30
0.0
  0
VERTEX
  5
1E6
  8
LABELS
 10
8.404885604383889
 20
14.88090524650227
 30
0.0
  0
VERTEX
  5
1E7
  8
LABELS
 10
8.388793535025755
 20
14.86021329249949
 30
0.0
  0
VERTEX
  5
1E8
  8
LABELS
 10
8.37215212718097
 20
14.8397306852038
 30
0.0
  0
VERTEX
  5
1E9
  8
LABELS
 10
8.354967549388109
 20
14.81946139207977
 30
0.0
  0
VERTEX
  5
1EA
  8
LABELS
 10
8.337245970185744
 20
14.79940938059197
 30
0.0
  0
VERTEX
  5
1EB
  8
LABELS
 10
8.318993558112457
 20
14.779578618205
 30
0.0
  0
VERTEX
  5
1EC
  8
LABELS
 10
8.300216481706817
 20
14.75997307238344
 30
0.0
  0
VERTEX
  5
1ED
  8
LABELS
 10
8.280920909507403
 20
14.74059671059185
 30
0.0
  0
VERTEX
  5
1EE
  8
LABELS
 10
8.261113010052787
 20
14.72145350029483
 30
0.0
  0
VERTEX
  5
1EF
  8
LABELS
 10
8.240798951881542
 20
14.70254740895695
 30
0.0
  0
VERTEX
  5
1F0
  8
LABELS
 10
8.219984903532247
 20
14.6838824040428
 30
0.0
  0
VERTEX
  5
1F1
  8
LABELS
 10
8.198677033543476
 20
14.66546245301695
 30
0.0
  0
VERTEX
  5
1F2
  8
LABELS
 10
8.176881510453804
 20
14.64729152334398
 30
0.0
  0
VERTEX
  5
1F3
  8
LABELS
 10
8.154604502801801
 20
14.62937358248848
 30
0.0
  0
VERTEX
  5
1F4
  8
LABELS
 10
8.13185217912605
 20
14.61171259791503
 30
0.0
  0
VERTEX
  5
1F5
  8
LABELS
 10
8.10863070796512
 20
14.5943125370882
 30
0.0
  0
VERTEX
  5
1F6
  8
LABELS
 10
8.084946257857588
 20
14.57717736747258
 30
0.0
  0
VERTEX
  5
1F7
  8
LABELS
 10
8.060804997342029
 20
14.56031105653275
 30
0.0
  0
VERTEX
  5
1F8
  8
LABELS
 10
8.036213094957017
 20
14.54371757173328
 30
0.0
  0
VERTEX
  5
1F9
  8
LABELS
 10
8.011176719241126
 20
14.52740088053876
 30
0.0
  0
VERTEX
  5
1FA
  8
LABELS
 10
7.985702038732933
 20
14.51136495041377
 30
0.0
  0
VERTEX
  5
1FB
  8
LABELS
 10
7.959795221971013
 20
14.49561374882289
 30
0.0
  0
VERTEX
  5
1FC
  8
LABELS
 10
7.933462437493939
 20
14.4801512432307
 30
0.0
  0
VERTEX
  5
1FD
  8
LABELS
 10
7.906709853840288
 20
14.46498140110179
 30
0.0
  0
VERTEX
  5
1FE
  8
LABELS
 10
7.879543639548632
 20
14.45010818990072
 30
0.0
  0
VERTEX
  5
1FF
  8
LABELS
 10
7.851969963157549
 20
14.43553557709208
 30
0.0
  0
VERTEX
  5
200
  8
LABELS
 10
7.823994993205611
 20
14.42126753014045
 30
0.0
  0
VERTEX
  5
201
  8
LABELS
 10
7.795624898231396
 20
14.40730801651042
 30
0.0
  0
VERTEX
  5
202
  8
LABELS
 10
7.766865846773477
 20
14.39366100366656
 30
0.0
  0
VERTEX
  5
203
  8
LABELS
 10
7.737724007370428
 20
14.38033045907345
 30
0.0
  0
VERTEX
  5
204
  8
LABELS
 10
7.708205548560826
 20
14.36732035019568
 30
0.0
  0
VERTEX
  5
205
  8
LABELS
 10
7.678316638883243
 20
14.35463464449782
 30
0.0
  0
VERTEX
  5
206
  8
LABELS
 10
7.648063446876256
 20
14.34227730944445
 30
0.0
  0
VERTEX
  5
207
  8
LABELS
 10
7.617452141078441
 20
14.33025231250016
 30
0.0
  0
VERTEX
  5
208
  8
LABELS
 10
7.58648889002837
 20
14.31856362112952
 30
0.0
  0
VERTEX
  5
209
  8
LABELS
 10
7.55517986226462
 20
14.30721520279712
 30
0.0
  0
VERTEX
  5
20A
  8
LABELS
 10
7.523531226325765
 20
14.29621102496754
 30
0.0
  0
VERTEX
  5
20B
  8
LABELS
 10
7.49154915075038
 20
14.28555505510535
 30
0.0
  0
VERTEX
  5
20C
  8
LABELS
 10
7.45923980407704
 20
14.27525126067514
 30
0.0
  0
VERTEX
  5
20D
  8
LABELS
 10
7.42660935484432
 20
14.26530360914149
 30
0.0
  0
SEQEND
  5
350
  8
LABELS
  0
POLYLINE
  5
89
  8
THREE_QUARTER_INCH_THRUCUT
 66
     1
 10
0.0
 20
0.0
 30
0.0
 70
     1
  0
VERTEX
  5
20E
  8
THREE_QUARTER_INCH_THRUCUT
 10
1.575618949308071
 20
8.076264479993176
 30
0.0
  0
VERTEX
  5
20F
  8
THREE_QUARTER_INCH_THRUCUT
 10
1.57561760583865
 20
13.05756499871863
 30
0.0
 42
1.0
  0
VERTEX
  5
210
  8
THREE_QUARTER_INCH_THRUCUT
 10
1.306915923648765
 20
13.32626433919385
 30
0.0
  0
VERTEX
  5
211
  8
THREE_QUARTER_INCH_THRUCUT
 10
0.9756194655467914
 20
13.32626433919385
 30
0.0
  0
VERTEX
  5
212
  8
THREE_QUARTER_INCH_THRUCUT
 10
0.9582544655467506
 20
13.32778333919376
 30
0.0
  0
VERTEX
  5
213
  8
THREE_QUARTER_INCH_THRUCUT
 10
0.9414164655467436
 20
13.33229433919386
 30
0.0
  0
VERTEX
  5
214
  8
THREE_QUARTER_INCH_THRUCUT
 10
0.9256194655467231
 20
13.33966133919379
 30
0.0
  0
VERTEX
  5
215
  8
THREE_QUARTER_INCH_THRUCUT
 10
0.9113404655467354
 20
13.34965933919379
 30
0.0
  0
VERTEX
  5
216
  8
THREE_QUARTER_INCH_THRUCUT
 10
0.8990144655467054
 20
13.36198533919382
 30
0.0
  0
VERTEX
  5
217
  8
THREE_QUARTER_INCH_THRUCUT
 10
0.8890164655467094
 20
13.3762643391938
 30
0.0
  0
VERTEX
  5
218
  8
THREE_QUARTER_INCH_THRUCUT
 10
0.8816494655467784
 20
13.39206233919371
 30
0.0
  0
VERTEX
  5
219
  8
THREE_QUARTER_INCH_THRUCUT
 10
0.8771384655467989
 20
13.40889933919383
 30
0.0
  0
VERTEX
  5
21A
  8
THREE_QUARTER_INCH_THRUCUT
 10
0.8756194655467686
 20
13.42626433919376
 30
0.0
  0
VERTEX
  5
21B
  8
THREE_QUARTER_INCH_THRUCUT
 10
0.8756194655467686
 20
14.82626383919368
 30
0.0
  0
VERTEX
  5
21C
  8
THREE_QUARTER_INCH_THRUCUT
 10
0.8756194655467686
 20
16.22626333919382
 30
0.0
  0
VERTEX
  5
21D
  8
THREE_QUARTER_INCH_THRUCUT
 10
0.8771384655467989
 20
16.24362833919375
 30
0.0
  0
VERTEX
  5
21E
  8
THREE_QUARTER_INCH_THRUCUT
 10
0.8816494655467784
 20
16.26046533919387
 30
0.0
  0
VERTEX
  5
21F
  8
THREE_QUARTER_INCH_THRUCUT
 10
0.8890164655467094
 20
16.27626333919378
 30
0.0
  0
VERTEX
  5
220
  8
THREE_QUARTER_INCH_THRUCUT
 10
0.8990144655467054
 20
16.29054233919377
 30
0.0
  0
VERTEX
  5
221
  8
THREE_QUARTER_INCH_THRUCUT
 10
0.9113404655467354
 20
16.3028683391938
 30
0.0
  0
VERTEX
  5
222
  8
THREE_QUARTER_INCH_THRUCUT
 10
0.9256194655467231
 20
16.31286633919379
 30
0.0
  0
VERTEX
  5
223
  8
THREE_QUARTER_INCH_THRUCUT
 10
0.9414164655467436
 20
16.32023333919372
 30
0.0
  0
VERTEX
  5
224
  8
THREE_QUARTER_INCH_THRUCUT
 10
0.9582544655467506
 20
16.32474433919382
 30
0.0
  0
VERTEX
  5
225
  8
THREE_QUARTER_INCH_THRUCUT
 10
0.9756194655467914
 20
16.32626333919373
 30
0.0
  0
VERTEX
  5
226
  8
THREE_QUARTER_INCH_THRUCUT
 10
1.30692034500469
 20
16.32626333919373
 30
0.0
 42
0.4142135623730996
  0
VERTEX
  5
227
  8
THREE_QUARTER_INCH_THRUCUT
 10
1.575620943701145
 20
16.32626336103934
 30
0.0
 42
0.4142135623731151
  0
VERTEX
  5
228
  8
THREE_QUARTER_INCH_THRUCUT
 10
1.575619816516613
 20
16.59496395973591
 30
0.0
  0
VERTEX
  5
229
  8
THREE_QUARTER_INCH_THRUCUT
 10
1.57561760583865
 20
25.05756499876816
 30
0.0
 42
1.0
  0
VERTEX
  5
22A
  8
THREE_QUARTER_INCH_THRUCUT
 10
1.306915923648765
 20
25.32626433919381
 30
0.0
  0
VERTEX
  5
22B
  8
THREE_QUARTER_INCH_THRUCUT
 10
0.9756194655467914
 20
25.32626433919381
 30
0.0
  0
VERTEX
  5
22C
  8
THREE_QUARTER_INCH_THRUCUT
 10
0.9582544655467506
 20
25.32778333919373
 30
0.0
  0
VERTEX
  5
22D
  8
THREE_QUARTER_INCH_THRUCUT
 10
0.9414164655467436
 20
25.33229433919382
 30
0.0
  0
VERTEX
  5
22E
  8
THREE_QUARTER_INCH_THRUCUT
 10
0.9256194655467231
 20
25.33966133919375
 30
0.0
  0
VERTEX
  5
22F
  8
THREE_QUARTER_INCH_THRUCUT
 10
0.9113404655467354
 20
25.34965933919375
 30
0.0
  0
VERTEX
  5
230
  8
THREE_QUARTER_INCH_THRUCUT
 10
0.8990144655467054
 20
25.36198533919378
 30
0.0
  0
VERTEX
  5
231
  8
THREE_QUARTER_INCH_THRUCUT
 10
0.8890164655467094
 20
25.37626433919377
 30
0.0
  0
VERTEX
  5
232
  8
THREE_QUARTER_INCH_THRUCUT
 10
0.8816494655467784
 20
25.39206233919367
 30
0.0
  0
VERTEX
  5
233
  8
THREE_QUARTER_INCH_THRUCUT
 10
0.8771384655467989
 20
25.40889933919379
 30
0.0
  0
VERTEX
  5
234
  8
THREE_QUARTER_INCH_THRUCUT
 10
0.8756194655467686
 20
25.42626433919372
 30
0.0
  0
VERTEX
  5
235
  8
THREE_QUARTER_INCH_THRUCUT
 10
0.8756194655467686
 20
26.82626383919364
 30
0.0
  0
VERTEX
  5
236
  8
THREE_QUARTER_INCH_THRUCUT
 10
0.8756194655467686
 20
28.2262633391938
 30
0.0
  0
VERTEX
  5
237
  8
THREE_QUARTER_INCH_THRUCUT
 10
0.8771384655467989
 20
28.24362833919373
 30
0.0
  0
VERTEX
  5
238
  8
THREE_QUARTER_INCH_THRUCUT
 10
0.8816494655467784
 20
28.26046533919385
 30
0.0
  0
VERTEX
  5
239
  8
THREE_QUARTER_INCH_THRUCUT
 10
0.8890164655467094
 20
28.27626333919375
 30
0.0
  0
VERTEX
  5
23A
  8
THREE_QUARTER_INCH_THRUCUT
 10
0.8990144655467054
 20
28.29054233919374
 30
0.0
  0
VERTEX
  5
23B
  8
THREE_QUARTER_INCH_THRUCUT
 10
0.9113404655467354
 20
28.30286833919377
 30
0.0
  0
VERTEX
  5
23C
  8
THREE_QUARTER_INCH_THRUCUT
 10
0.9256194655467231
 20
28.31286633919377
 30
0.0
  0
VERTEX
  5
23D
  8
THREE_QUARTER_INCH_THRUCUT
 10
0.9414164655467436
 20
28.3202333391937
 30
0.0
  0
VERTEX
  5
23E
  8
THREE_QUARTER_INCH_THRUCUT
 10
0.9582544655467506
 20
28.32474433919379
 30
0.0
  0
VERTEX
  5
23F
  8
THREE_QUARTER_INCH_THRUCUT
 10
0.9756194655467914
 20
28.32626333919371
 30
0.0
  0
VERTEX
  5
240
  8
THREE_QUARTER_INCH_THRUCUT
 10
1.30692034500469
 20
28.32626333919371
 30
0.0
 42
0.4142135623730996
  0
VERTEX
  5
241
  8
THREE_QUARTER_INCH_THRUCUT
 10
1.575620943701145
 20
28.32626336103932
 30
0.0
 42
0.4142135623731151
  0
VERTEX
  5
242
  8
THREE_QUARTER_INCH_THRUCUT
 10
1.575619816516613
 20
28.59496395973589
 30
0.0
  0
VERTEX
  5
243
  8
THREE_QUARTER_INCH_THRUCUT
 10
1.57561760583865
 20
37.05756499879386
 30
0.0
 42
1.0
  0
VERTEX
  5
244
  8
THREE_QUARTER_INCH_THRUCUT
 10
1.306915923648765
 20
37.32626433919382
 30
0.0
  0
VERTEX
  5
245
  8
THREE_QUARTER_INCH_THRUCUT
 10
0.9756194655467914
 20
37.32626433919382
 30
0.0
  0
VERTEX
  5
246
  8
THREE_QUARTER_INCH_THRUCUT
 10
0.9582544655467506
 20
37.32778333919374
 30
0.0
  0
VERTEX
  5
247
  8
THREE_QUARTER_INCH_THRUCUT
 10
0.9414164655467436
 20
37.33229433919383
 30
0.0
  0
VERTEX
  5
248
  8
THREE_QUARTER_INCH_THRUCUT
 10
0.9256194655467231
 20
37.33966133919376
 30
0.0
  0
VERTEX
  5
249
  8
THREE_QUARTER_INCH_THRUCUT
 10
0.9113404655467354
 20
37.34965933919376
 30
0.0
  0
VERTEX
  5
24A
  8
THREE_QUARTER_INCH_THRUCUT
 10
0.8990144655467054
 20
37.36198533919379
 30
0.0
  0
VERTEX
  5
24B
  8
THREE_QUARTER_INCH_THRUCUT
 10
0.8890164655467094
 20
37.37626433919377
 30
0.0
  0
VERTEX
  5
24C
  8
THREE_QUARTER_INCH_THRUCUT
 10
0.8816494655467784
 20
37.39206233919368
 30
0.0
  0
VERTEX
  5
24D
  8
THREE_QUARTER_INCH_THRUCUT
 10
0.8771384655467989
 20
37.4088993391938
 30
0.0
  0
VERTEX
  5
24E
  8
THREE_QUARTER_INCH_THRUCUT
 10
0.8756194655467686
 20
37.42626433919373
 30
0.0
  0
VERTEX
  5
24F
  8
THREE_QUARTER_INCH_THRUCUT
 10
0.8756194655467686
 20
38.82626383919365
 30
0.0
  0
VERTEX
  5
250
  8
THREE_QUARTER_INCH_THRUCUT
 10
0.8756194655467686
 20
40.2262633391938
 30
0.0
  0
VERTEX
  5
251
  8
THREE_QUARTER_INCH_THRUCUT
 10
0.8771384655467989
 20
40.24362833919373
 30
0.0
  0
VERTEX
  5
252
  8
THREE_QUARTER_INCH_THRUCUT
 10
0.8816494655467784
 20
40.26046533919385
 30
0.0
  0
VERTEX
  5
253
  8
THREE_QUARTER_INCH_THRUCUT
 10
0.8890164655467094
 20
40.27626333919375
 30
0.0
  0
VERTEX
  5
254
  8
THREE_QUARTER_INCH_THRUCUT
 10
0.8990144655467054
 20
40.29054233919374
 30
0.0
  0
VERTEX
  5
255
  8
THREE_QUARTER_INCH_THRUCUT
 10
0.9113404655467354
 20
40.30286833919377
 30
0.0
  0
VERTEX
  5
256
  8
THREE_QUARTER_INCH_THRUCUT
 10
0.9256194655467231
 20
40.31286633919377
 30
0.0
  0
VERTEX
  5
257
  8
THREE_QUARTER_INCH_THRUCUT
 10
0.9414164655467436
 20
40.3202333391937
 30
0.0
  0
VERTEX
  5
258
  8
THREE_QUARTER_INCH_THRUCUT
 10
0.9582544655467506
 20
40.32474433919379
 30
0.0
  0
VERTEX
  5
259
  8
THREE_QUARTER_INCH_THRUCUT
 10
0.9756194655467914
 20
40.32626333919371
 30
0.0
  0
VERTEX
  5
25A
  8
THREE_QUARTER_INCH_THRUCUT
 10
1.30692034500469
 20
40.32626333919371
 30
0.0
 42
0.4142135623730996
  0
VERTEX
  5
25B
  8
THREE_QUARTER_INCH_THRUCUT
 10
1.575620943701145
 20
40.32626336103932
 30
0.0
 42
0.4142135623731151
  0
VERTEX
  5
25C
  8
THREE_QUARTER_INCH_THRUCUT
 10
1.575619816516613
 20
40.59496395973589
 30
0.0
  0
VERTEX
  5
25D
  8
THREE_QUARTER_INCH_THRUCUT
 10
1.575618711177461
 20
45.57626447851067
 30
0.0
  0
VERTEX
  5
25E
  8
THREE_QUARTER_INCH_THRUCUT
 10
89.57561871117522
 20
45.57626448091651
 30
0.0
  0
VERTEX
  5
25F
  8
THREE_QUARTER_INCH_THRUCUT
 10
89.57561871117522
 20
38.63876447999338
 30
0.0
  0
VERTEX
  5
260
  8
THREE_QUARTER_INCH_THRUCUT
 10
88.825618711175
 20
38.63876447999474
 30
0.0
 42
1.0
  0
VERTEX
  5
261
  8
THREE_QUARTER_INCH_THRUCUT
 10
88.825618711175
 20
38.37797707841992
 30
0.0
  0
VERTEX
  5
262
  8
THREE_QUARTER_INCH_THRUCUT
 10
88.82561871117545
 20
32.08705188156774
 30
0.0
 42
1.0
  0
VERTEX
  5
263
  8
THREE_QUARTER_INCH_THRUCUT
 10
88.82561871117545
 20
31.82626447999292
 30
0.0
  0
VERTEX
  5
264
  8
THREE_QUARTER_INCH_THRUCUT
 10
89.20061871117522
 20
31.82626447999338
 30
0.0
  0
VERTEX
  5
265
  8
THREE_QUARTER_INCH_THRUCUT
 10
89.20061871117522
 20
29.82626447999338
 30
0.0
  0
VERTEX
  5
266
  8
THREE_QUARTER_INCH_THRUCUT
 10
88.82561871117454
 20
29.82626447999292
 30
0.0
 42
1.0
  0
VERTEX
  5
267
  8
THREE_QUARTER_INCH_THRUCUT
 10
88.82561871117454
 20
29.56547707841811
 30
0.0
  0
VERTEX
  5
268
  8
THREE_QUARTER_INCH_THRUCUT
 10
88.82561871117545
 20
27.08705188156773
 30
0.0
 42
1.0
  0
VERTEX
  5
269
  8
THREE_QUARTER_INCH_THRUCUT
 10
88.82561871117545
 20
26.82626447999291
 30
0.0
  0
VERTEX
  5
26A
  8
THREE_QUARTER_INCH_THRUCUT
 10
89.20061871117522
 20
26.82626447999337
 30
0.0
  0
VERTEX
  5
26B
  8
THREE_QUARTER_INCH_THRUCUT
 10
89.20061871117522
 20
24.82626447999337
 30
0.0
  0
VERTEX
  5
26C
  8
THREE_QUARTER_INCH_THRUCUT
 10
88.825618711175
 20
24.82626447999473
 30
0.0
 42
1.0
  0
VERTEX
  5
26D
  8
THREE_QUARTER_INCH_THRUCUT
 10
88.825618711175
 20
24.56547707841992
 30
0.0
  0
VERTEX
  5
26E
  8
THREE_QUARTER_INCH_THRUCUT
 10
88.82561871117545
 20
18.27455188156775
 30
0.0
 42
1.0
  0
VERTEX
  5
26F
  8
THREE_QUARTER_INCH_THRUCUT
 10
88.82561871117545
 20
18.01376447999294
 30
0.0
  0
VERTEX
  5
270
  8
THREE_QUARTER_INCH_THRUCUT
 10
89.57561871117522
 20
18.01376447999339
 30
0.0
  0
VERTEX
  5
271
  8
THREE_QUARTER_INCH_THRUCUT
 10
89.57561871117522
 20
8.076264479993403
 30
0.0
  0
VERTEX
  5
272
  8
THREE_QUARTER_INCH_THRUCUT
 10
79.46140611331688
 20
8.076264479993403
 30
0.0
 42
1.0
  0
VERTEX
  5
273
  8
THREE_QUARTER_INCH_THRUCUT
 10
79.20061871174207
 20
8.076264479993403
 30
0.0
  0
VERTEX
  5
274
  8
THREE_QUARTER_INCH_THRUCUT
 10
79.20061871174138
 20
7.576264479993403
 30
0.0
  0
VERTEX
  5
275
  8
THREE_QUARTER_INCH_THRUCUT
 10
77.20061871174138
 20
7.576264479993403
 30
0.0
  0
VERTEX
  5
276
  8
THREE_QUARTER_INCH_THRUCUT
 10
77.20061871174025
 20
8.076264479993403
 30
0.0
 42
1.0
  0
VERTEX
  5
277
  8
THREE_QUARTER_INCH_THRUCUT
 10
76.93983131016543
 20
8.076264479993403
 30
0.0
  0
VERTEX
  5
278
  8
THREE_QUARTER_INCH_THRUCUT
 10
57.46140611331682
 20
8.076264479993403
 30
0.0
 42
1.0
  0
VERTEX
  5
279
  8
THREE_QUARTER_INCH_THRUCUT
 10
57.200618711742
 20
8.076264479993403
 30
0.0
  0
VERTEX
  5
27A
  8
THREE_QUARTER_INCH_THRUCUT
 10
57.20061871174121
 20
7.576264479993403
 30
0.0
  0
VERTEX
  5
27B
  8
THREE_QUARTER_INCH_THRUCUT
 10
55.20061871174121
 20
7.576264479993403
 30
0.0
  0
VERTEX
  5
27C
  8
THREE_QUARTER_INCH_THRUCUT
 10
55.20061871173836
 20
8.076264479993403
 30
0.0
 42
1.0
  0
VERTEX
  5
27D
  8
THREE_QUARTER_INCH_THRUCUT
 10
54.93983131016355
 20
8.076264479993403
 30
0.0
  0
VERTEX
  5
27E
  8
THREE_QUARTER_INCH_THRUCUT
 10
35.46140611331682
 20
8.076264479993403
 30
0.0
 42
1.0
  0
VERTEX
  5
27F
  8
THREE_QUARTER_INCH_THRUCUT
 10
35.200618711742
 20
8.076264479993403
 30
0.0
  0
VERTEX
  5
280
  8
THREE_QUARTER_INCH_THRUCUT
 10
35.20061871174121
 20
7.576264479993403
 30
0.0
  0
VERTEX
  5
281
  8
THREE_QUARTER_INCH_THRUCUT
 10
33.20061871174121
 20
7.576264479993403
 30
0.0
  0
VERTEX
  5
282
  8
THREE_QUARTER_INCH_THRUCUT
 10
33.200618711742
 20
8.076264479993403
 30
0.0
 42
1.0
  0
VERTEX
  5
283
  8
THREE_QUARTER_INCH_THRUCUT
 10
32.93983131016719
 20
8.076264479993403
 30
0.0
  0
VERTEX
  5
284
  8
THREE_QUARTER_INCH_THRUCUT
 10
13.46140611331683
 20
8.076264479993403
 30
0.0
 42
1.0
  0
VERTEX
  5
285
  8
THREE_QUARTER_INCH_THRUCUT
 10
13.20061871174201
 20
8.076264479993403
 30
0.0
  0
VERTEX
  5
286
  8
THREE_QUARTER_INCH_THRUCUT
 10
13.20061871174122
 20
7.576264479993403
 30
0.0
  0
VERTEX
  5
287
  8
THREE_QUARTER_INCH_THRUCUT
 10
11.20061871174122
 20
7.576264479993403
 30
0.0
  0
VERTEX
  5
288
  8
THREE_QUARTER_INCH_THRUCUT
 10
11.20061871174122
 20
8.076264479993403
 30
0.0
 42
1.0
  0
VERTEX
  5
289
  8
THREE_QUARTER_INCH_THRUCUT
 10
10.93983131016799
 20
8.076264479993403
 30
0.0
  0
SEQEND
  5
351
  8
THREE_QUARTER_INCH_THRUCUT
  0
POLYLINE
  5
8A
  8
THREE_QUARTER_INCH_THRUCUT
 66
     1
 10
0.0
 20
0.0
 30
0.0
 70
     1
  0
VERTEX
  5
28A
  8
THREE_QUARTER_INCH_THRUCUT
 10
67.57561871117386
 20
27.08705188156955
 30
0.0
  0
VERTEX
  5
28B
  8
THREE_QUARTER_INCH_THRUCUT
 10
67.57561871117755
 20
29.56547707841811
 30
0.0
 42
1.0
  0
VERTEX
  5
28C
  8
THREE_QUARTER_INCH_THRUCUT
 10
67.57561871117795
 20
29.82626447999292
 30
0.0
  0
VERTEX
  5
28D
  8
THREE_QUARTER_INCH_THRUCUT
 10
66.82561871117363
 20
29.82626447999258
 30
0.0
 42
1.0
  0
VERTEX
  5
28E
  8
THREE_QUARTER_INCH_THRUCUT
 10
66.82561871117386
 20
29.56547707841776
 30
0.0
  0
VERTEX
  5
28F
  8
THREE_QUARTER_INCH_THRUCUT
 10
66.82561871117568
 20
27.08705188156739
 30
0.0
 42
1.0
  0
VERTEX
  5
290
  8
THREE_QUARTER_INCH_THRUCUT
 10
66.8256187111759
 20
26.82626447999257
 30
0.0
  0
VERTEX
  5
291
  8
THREE_QUARTER_INCH_THRUCUT
 10
67.57561871117363
 20
26.82626447999473
 30
0.0
 42
1.0
  0
SEQEND
  5
352
  8
THREE_QUARTER_INCH_THRUCUT
  0
POLYLINE
  5
8B
  8
THREE_QUARTER_INCH_THRUCUT
 66
     1
 10
0.0
 20
0.0
 30
0.0
 70
     1
  0
VERTEX
  5
292
  8
THREE_QUARTER_INCH_THRUCUT
 10
45.57561871117306
 20
27.08705188156682
 30
0.0
  0
VERTEX
  5
293
  8
THREE_QUARTER_INCH_THRUCUT
 10
45.57561871117675
 20
29.56547707841538
 30
0.0
 42
1.0
  0
VERTEX
  5
294
  8
THREE_QUARTER_INCH_THRUCUT
 10
45.57561871117715
 20
29.82626447999019
 30
0.0
  0
VERTEX
  5
295
  8
THREE_QUARTER_INCH_THRUCUT
 10
44.82561871117283
 20
29.82626447998985
 30
0.0
 42
1.0
  0
VERTEX
  5
296
  8
THREE_QUARTER_INCH_THRUCUT
 10
44.82561871117306
 20
29.56547707841504
 30
0.0
  0
VERTEX
  5
297
  8
THREE_QUARTER_INCH_THRUCUT
 10
44.82561871117488
 20
27.08705188156466
 30
0.0
 42
1.0
  0
VERTEX
  5
298
  8
THREE_QUARTER_INCH_THRUCUT
 10
44.8256187111751
 20
26.82626447998985
 30
0.0
  0
VERTEX
  5
299
  8
THREE_QUARTER_INCH_THRUCUT
 10
45.57561871117283
 20
26.82626447999201
 30
0.0
 42
1.0
  0
SEQEND
  5
353
  8
THREE_QUARTER_INCH_THRUCUT
  0
POLYLINE
  5
8C
  8
THREE_QUARTER_INCH_THRUCUT
 66
     1
 10
0.0
 20
0.0
 30
0.0
 70
     1
  0
VERTEX
  5
29A
  8
THREE_QUARTER_INCH_THRUCUT
 10
23.57561871117306
 20
27.08705188157046
 30
0.0
  0
VERTEX
  5
29B
  8
THREE_QUARTER_INCH_THRUCUT
 10
23.57561871117675
 20
29.56547707841901
 30
0.0
 42
1.0
  0
VERTEX
  5
29C
  8
THREE_QUARTER_INCH_THRUCUT
 10
23.57561871117715
 20
29.82626447999383
 30
0.0
  0
VERTEX
  5
29D
  8
THREE_QUARTER_INCH_THRUCUT
 10
22.82561871117283
 20
29.82626447999349
 30
0.0
 42
1.0
  0
VERTEX
  5
29E
  8
THREE_QUARTER_INCH_THRUCUT
 10
22.82561871117306
 20
29.56547707841867
 30
0.0
  0
VERTEX
  5
29F
  8
THREE_QUARTER_INCH_THRUCUT
 10
22.82561871117488
 20
27.0870518815683
 30
0.0
 42
1.0
  0
VERTEX
  5
2A0
  8
THREE_QUARTER_INCH_THRUCUT
 10
22.8256187111751
 20
26.82626447999348
 30
0.0
  0
VERTEX
  5
2A1
  8
THREE_QUARTER_INCH_THRUCUT
 10
23.57561871117283
 20
26.82626447999564
 30
0.0
 42
1.0
  0
SEQEND
  5
354
  8
THREE_QUARTER_INCH_THRUCUT
  0
POLYLINE
  5
8E
  8
THREE_QUARTER_INCH_CUTOUT
 66
     1
 10
0.0
 20
0.0
 30
0.0
 70
     1
  0
VERTEX
  5
2A2
  8
THREE_QUARTER_INCH_CUTOUT
 10
36.12164312480942
 20
4.825480533159308
 30
0.0
 42
0.4142135623730951
  0
VERTEX
  5
2A3
  8
THREE_QUARTER_INCH_CUTOUT
 10
36.25164489667301
 20
4.955478761271493
 30
0.0
 42
0.4142135623730951
  0
VERTEX
  5
2A4
  8
THREE_QUARTER_INCH_CUTOUT
 10
36.1216466685608
 20
5.085480533135019
 30
0.0
 42
0.4142135623730951
  0
VERTEX
  5
2A5
  8
THREE_QUARTER_INCH_CUTOUT
 10
35.99164489669707
 20
4.955482305022898
 30
0.0
 42
0.4142135623730951
  0
SEQEND
  5
355
  8
THREE_QUARTER_INCH_CUTOUT
  0
POLYLINE
  5
8F
  8
THREE_QUARTER_INCH_CUTOUT
 66
     1
 10
0.0
 20
0.0
 30
0.0
 70
     1
  0
VERTEX
  5
2A6
  8
THREE_QUARTER_INCH_CUTOUT
 10
36.12171586518343
 20
2.825480531982087
 30
0.0
 42
0.4142135623730951
  0
VERTEX
  5
2A7
  8
THREE_QUARTER_INCH_CUTOUT
 10
36.25171763704708
 20
2.955478760094273
 30
0.0
 42
0.4142135623730951
  0
VERTEX
  5
2A8
  8
THREE_QUARTER_INCH_CUTOUT
 10
36.12171940893472
 20
3.085480531957863
 30
0.0
 42
0.4142135623730951
  0
VERTEX
  5
2A9
  8
THREE_QUARTER_INCH_CUTOUT
 10
35.99171763707119
 20
2.955482303845649
 30
0.0
 42
0.4142135623730951
  0
SEQEND
  5
356
  8
THREE_QUARTER_INCH_CUTOUT
  0
POLYLINE
  5
90
  8
THREE_QUARTER_INCH_CUTOUT
 66
     1
 10
0.0
 20
0.0
 30
0.0
 70
     1
  0
VERTEX
  5
2AA
  8
THREE_QUARTER_INCH_CUTOUT
 10
38.12167949421388
 20
3.825403272901447
 30
0.0
 42
0.4142135623730951
  0
VERTEX
  5
2AB
  8
THREE_QUARTER_INCH_CUTOUT
 10
38.25168126607744
 20
3.955401501013647
 30
0.0
 42
0.4142135623730951
  0
VERTEX
  5
2AC
  8
THREE_QUARTER_INCH_CUTOUT
 10
38.12168303796531
 20
4.085403272877265
 30
0.0
 42
0.4142135623730951
  0
VERTEX
  5
2AD
  8
THREE_QUARTER_INCH_CUTOUT
 10
37.99168126610164
 20
3.955405044765136
 30
0.0
 42
0.4142135623730951
  0
SEQEND
  5
357
  8
THREE_QUARTER_INCH_CUTOUT
  0
POLYLINE
  5
91
  8
THREE_QUARTER_INCH_CUTOUT
 66
     1
 10
0.0
 20
0.0
 30
0.0
 70
     1
  0
VERTEX
  5
2AE
  8
THREE_QUARTER_INCH_CUTOUT
 10
74.60256955532714
 20
4.968532304276472
 30
0.0
 42
0.4142135623730951
  0
VERTEX
  5
2AF
  8
THREE_QUARTER_INCH_CUTOUT
 10
74.73257132719073
 20
5.098530532388658
 30
0.0
 42
0.4142135623730951
  0
VERTEX
  5
2B0
  8
THREE_QUARTER_INCH_CUTOUT
 10
74.60257309907851
 20
5.228532304252184
 30
0.0
 42
0.4142135623730951
  0
VERTEX
  5
2B1
  8
THREE_QUARTER_INCH_CUTOUT
 10
74.47257132721478
 20
5.098534076140062
 30
0.0
 42
0.4142135623730951
  0
SEQEND
  5
358
  8
THREE_QUARTER_INCH_CUTOUT
  0
POLYLINE
  5
92
  8
THREE_QUARTER_INCH_CUTOUT
 66
     1
 10
0.0
 20
0.0
 30
0.0
 70
     1
  0
VERTEX
  5
2B2
  8
THREE_QUARTER_INCH_CUTOUT
 10
74.60264229570114
 20
2.968532303099252
 30
0.0
 42
0.4142135623730951
  0
VERTEX
  5
2B3
  8
THREE_QUARTER_INCH_CUTOUT
 10
74.73264406756479
 20
3.098530531211438
 30
0.0
 42
0.4142135623730951
  0
VERTEX
  5
2B4
  8
THREE_QUARTER_INCH_CUTOUT
 10
74.60264583945244
 20
3.228532303075028
 30
0.0
 42
0.4142135623730951
  0
VERTEX
  5
2B5
  8
THREE_QUARTER_INCH_CUTOUT
 10
74.4726440675889
 20
3.098534074962814
 30
0.0
 42
0.4142135623730951
  0
SEQEND
  5
359
  8
THREE_QUARTER_INCH_CUTOUT
  0
POLYLINE
  5
93
  8
THREE_QUARTER_INCH_CUTOUT
 66
     1
 10
0.0
 20
0.0
 30
0.0
 70
     1
  0
VERTEX
  5
2B6
  8
THREE_QUARTER_INCH_CUTOUT
 10
76.60260592473159
 20
3.968455044018611
 30
0.0
 42
0.4142135623730951
  0
VERTEX
  5
2B7
  8
THREE_QUARTER_INCH_CUTOUT
 10
76.73260769659515
 20
4.098453272130811
 30
0.0
 42
0.4142135623730951
  0
VERTEX
  5
2B8
  8
THREE_QUARTER_INCH_CUTOUT
 10
76.60260946848302
 20
4.22845504399443
 30
0.0
 42
0.4142135623730951
  0
VERTEX
  5
2B9
  8
THREE_QUARTER_INCH_CUTOUT
 10
76.47260769661935
 20
4.098456815882301
 30
0.0
 42
0.4142135623730951
  0
SEQEND
  5
35A
  8
THREE_QUARTER_INCH_CUTOUT
  0
POLYLINE
  5
94
  8
THREE_QUARTER_INCH_CUTOUT
 66
     1
 10
0.0
 20
0.0
 30
0.0
 70
     1
  0
VERTEX
  5
2BA
  8
THREE_QUARTER_INCH_CUTOUT
 10
41.79766761832568
 20
6.473641566855548
 30
0.0
  0
VERTEX
  5
2BB
  8
THREE_QUARTER_INCH_CUTOUT
 10
41.79871784928758
 20
1.723641566854994
 30
0.0
  0
VERTEX
  5
2BC
  8
THREE_QUARTER_INCH_CUTOUT
 10
45.03883734899109
 20
1.723633637504136
 30
0.0
 42
0.4142106424158553
  0
VERTEX
  5
2BD
  8
THREE_QUARTER_INCH_CUTOUT
 10
45.16871600489711
 20
1.853625708145998
 30
0.0
  0
VERTEX
  5
2BE
  8
THREE_QUARTER_INCH_CUTOUT
 10
45.16871600489701
 20
2.039779227806989
 30
0.0
 42
-1.0
  0
VERTEX
  5
2BF
  8
THREE_QUARTER_INCH_CUTOUT
 10
45.35256377192555
 20
2.223626990915804
 30
0.0
  0
VERTEX
  5
2C0
  8
THREE_QUARTER_INCH_CUTOUT
 10
46.03871600489713
 20
2.223626976285189
 30
0.0
  0
VERTEX
  5
2C1
  8
THREE_QUARTER_INCH_CUTOUT
 10
46.03871600489702
 20
2.823627236639581
 30
0.0
  0
VERTEX
  5
2C2
  8
THREE_QUARTER_INCH_CUTOUT
 10
45.35255859420777
 20
2.823627213984295
 30
0.0
 42
-1.0
  0
VERTEX
  5
2C3
  8
THREE_QUARTER_INCH_CUTOUT
 10
45.1687108250432
 20
3.007477265462271
 30
0.0
  0
VERTEX
  5
2C4
  8
THREE_QUARTER_INCH_CUTOUT
 10
45.16871247184843
 20
3.139781713917714
 30
0.0
 42
-1.0
  0
VERTEX
  5
2C5
  8
THREE_QUARTER_INCH_CUTOUT
 10
45.35256023494542
 20
3.323627188656687
 30
0.0
  0
VERTEX
  5
2C6
  8
THREE_QUARTER_INCH_CUTOUT
 10
46.03871600489702
 20
3.323627188646654
 30
0.0
  0
VERTEX
  5
2C7
  8
THREE_QUARTER_INCH_CUTOUT
 10
46.03871600489702
 20
3.810804093009025
 30
0.0
  0
VERTEX
  5
2C8
  8
THREE_QUARTER_INCH_CUTOUT
 10
46.29871600489709
 20
3.810804093009011
 30
0.0
  0
VERTEX
  5
2C9
  8
THREE_QUARTER_INCH_CUTOUT
 10
46.29871600489715
 20
3.323627188646668
 30
0.0
  0
VERTEX
  5
2CA
  8
THREE_QUARTER_INCH_CUTOUT
 10
46.98487177484873
 20
3.323627188656687
 30
0.0
 42
-1.0
  0
VERTEX
  5
2CB
  8
THREE_QUARTER_INCH_CUTOUT
 10
47.16871953794571
 20
3.139781713917699
 30
0.0
  0
VERTEX
  5
2CC
  8
THREE_QUARTER_INCH_CUTOUT
 10
47.16872118475096
 20
3.007477265462256
 30
0.0
 42
-1.0
  0
VERTEX
  5
2CD
  8
THREE_QUARTER_INCH_CUTOUT
 10
46.98487341558637
 20
2.823627213984281
 30
0.0
  0
VERTEX
  5
2CE
  8
THREE_QUARTER_INCH_CUTOUT
 10
46.29871600489712
 20
2.823627236639567
 30
0.0
  0
VERTEX
  5
2CF
  8
THREE_QUARTER_INCH_CUTOUT
 10
46.29871600489701
 20
2.223626976285217
 30
0.0
  0
VERTEX
  5
2D0
  8
THREE_QUARTER_INCH_CUTOUT
 10
46.98486823786863
 20
2.223626990915804
 30
0.0
 42
-1.0
  0
VERTEX
  5
2D1
  8
THREE_QUARTER_INCH_CUTOUT
 10
47.16871600489713
 20
2.039779227806989
 30
0.0
  0
VERTEX
  5
2D2
  8
THREE_QUARTER_INCH_CUTOUT
 10
47.16871600489701
 20
1.853625708145998
 30
0.0
 42
0.4142106424158553
  0
VERTEX
  5
2D3
  8
THREE_QUARTER_INCH_CUTOUT
 10
47.29859466102523
 20
1.723633637504165
 30
0.0
  0
VERTEX
  5
2D4
  8
THREE_QUARTER_INCH_CUTOUT
 10
64.28871729922463
 20
1.723649496206406
 30
0.0
 42
0.4142106424158553
  0
VERTEX
  5
2D5
  8
THREE_QUARTER_INCH_CUTOUT
 10
64.41871600489714
 20
1.853657425550438
 30
0.0
  0
VERTEX
  5
2D6
  8
THREE_QUARTER_INCH_CUTOUT
 10
64.41871600489702
 20
2.039810945211414
 30
0.0
 42
-1.0
  0
VERTEX
  5
2D7
  8
THREE_QUARTER_INCH_CUTOUT
 10
64.60256377192553
 20
2.223658708320258
 30
0.0
  0
VERTEX
  5
2D8
  8
THREE_QUARTER_INCH_CUTOUT
 10
65.28871600489714
 20
2.223658693689657
 30
0.0
  0
VERTEX
  5
2D9
  8
THREE_QUARTER_INCH_CUTOUT
 10
65.28871600489705
 20
2.823658954044049
 30
0.0
  0
VERTEX
  5
2DA
  8
THREE_QUARTER_INCH_CUTOUT
 10
64.60255859420778
 20
2.823658931388763
 30
0.0
 42
-1.0
  0
VERTEX
  5
2DB
  8
THREE_QUARTER_INCH_CUTOUT
 10
64.41871082504323
 20
3.00750898286671
 30
0.0
  0
VERTEX
  5
2DC
  8
THREE_QUARTER_INCH_CUTOUT
 10
64.41871247184844
 20
3.139813431322153
 30
0.0
 42
-1.0
  0
VERTEX
  5
2DD
  8
THREE_QUARTER_INCH_CUTOUT
 10
64.60256023494546
 20
3.323658906061155
 30
0.0
  0
VERTEX
  5
2DE
  8
THREE_QUARTER_INCH_CUTOUT
 10
65.28871600489705
 20
3.323658906051122
 30
0.0
  0
VERTEX
  5
2DF
  8
THREE_QUARTER_INCH_CUTOUT
 10
65.28871600489705
 20
3.810835810413465
 30
0.0
  0
VERTEX
  5
2E0
  8
THREE_QUARTER_INCH_CUTOUT
 10
65.54871600489713
 20
3.810835810413465
 30
0.0
  0
VERTEX
  5
2E1
  8
THREE_QUARTER_INCH_CUTOUT
 10
65.54871600489713
 20
3.323658906051108
 30
0.0
  0
VERTEX
  5
2E2
  8
THREE_QUARTER_INCH_CUTOUT
 10
66.23487177484873
 20
3.323658906061141
 30
0.0
 42
-1.0
  0
VERTEX
  5
2E3
  8
THREE_QUARTER_INCH_CUTOUT
 10
66.41871953794572
 20
3.139813431322153
 30
0.0
  0
VERTEX
  5
2E4
  8
THREE_QUARTER_INCH_CUTOUT
 10
66.41872118475095
 20
3.00750898286671
 30
0.0
 42
-1.0
  0
VERTEX
  5
2E5
  8
THREE_QUARTER_INCH_CUTOUT
 10
66.23487341558638
 20
2.823658931388763
 30
0.0
  0
VERTEX
  5
2E6
  8
THREE_QUARTER_INCH_CUTOUT
 10
65.54871600489713
 20
2.823658954044006
 30
0.0
  0
VERTEX
  5
2E7
  8
THREE_QUARTER_INCH_CUTOUT
 10
65.54871600489702
 20
2.223658693689657
 30
0.0
  0
VERTEX
  5
2E8
  8
THREE_QUARTER_INCH_CUTOUT
 10
66.23486823786862
 20
2.223658708320258
 30
0.0
 42
-1.0
  0
VERTEX
  5
2E9
  8
THREE_QUARTER_INCH_CUTOUT
 10
66.41871600489714
 20
2.039810945211428
 30
0.0
  0
VERTEX
  5
2EA
  8
THREE_QUARTER_INCH_CUTOUT
 10
66.41871600489702
 20
1.853657425550438
 30
0.0
 42
0.4142106424158553
  0
VERTEX
  5
2EB
  8
THREE_QUARTER_INCH_CUTOUT
 10
66.54871471067491
 20
1.723649496206406
 30
0.0
  0
VERTEX
  5
2EC
  8
THREE_QUARTER_INCH_CUTOUT
 10
77.60259710937217
 20
1.723641566855278
 30
0.0
  0
VERTEX
  5
2ED
  8
THREE_QUARTER_INCH_CUTOUT
 10
77.60257709482195
 20
1.856554605252569
 30
0.0
 42
0.1988557026438834
  0
VERTEX
  5
2EE
  8
THREE_QUARTER_INCH_CUTOUT
 10
77.48787111315116
 20
2.136057832680564
 30
0.0
  0
VERTEX
  5
2EF
  8
THREE_QUARTER_INCH_CUTOUT
 10
76.98411634584394
 20
2.639144084629834
 30
0.0
 42
-0.4142135623730944
  0
VERTEX
  5
2F0
  8
THREE_QUARTER_INCH_CUTOUT
 10
76.98363594721059
 20
3.478795345641757
 30
0.0
  0
VERTEX
  5
2F1
  8
THREE_QUARTER_INCH_CUTOUT
 10
77.60261329477476
 20
4.098417943341033
 30
0.0
  0
VERTEX
  5
2F2
  8
THREE_QUARTER_INCH_CUTOUT
 10
78.22159064233875
 20
4.718040541040352
 30
0.0
 42
0.4142135623730944
  0
VERTEX
  5
2F3
  8
THREE_QUARTER_INCH_CUTOUT
 10
78.2211102437054
 20
5.55769180205229
 30
0.0
  0
VERTEX
  5
2F4
  8
THREE_QUARTER_INCH_CUTOUT
 10
77.71735547639821
 20
6.060778054001474
 30
0.0
 42
-0.1988557026438834
  0
VERTEX
  5
2F5
  8
THREE_QUARTER_INCH_CUTOUT
 10
77.60264949472742
 20
6.340281281429469
 30
0.0
  0
VERTEX
  5
2F6
  8
THREE_QUARTER_INCH_CUTOUT
 10
77.60262948017802
 20
6.473641566855505
 30
0.0
  0
VERTEX
  5
2F7
  8
THREE_QUARTER_INCH_CUTOUT
 10
64.7871188462135
 20
6.473641566855527
 30
0.0
  0
VERTEX
  5
2F8
  8
THREE_QUARTER_INCH_CUTOUT
 10
51.79893180235148
 20
6.473641566855548
 30
0.0
  0
SEQEND
  5
35B
  8
THREE_QUARTER_INCH_CUTOUT
  0
POLYLINE
  5
95
  8
THREE_QUARTER_INCH_CUTOUT
 66
     1
 10
0.0
 20
0.0
 30
0.0
 70
     1
  0
VERTEX
  5
2F9
  8
THREE_QUARTER_INCH_CUTOUT
 10
3.31674118780797
 20
6.330589795738383
 30
0.0
  0
VERTEX
  5
2FA
  8
THREE_QUARTER_INCH_CUTOUT
 10
13.31800537183377
 20
6.330589795738383
 30
0.0
  0
VERTEX
  5
2FB
  8
THREE_QUARTER_INCH_CUTOUT
 10
26.30619241569578
 20
6.330589795738362
 30
0.0
  0
VERTEX
  5
2FC
  8
THREE_QUARTER_INCH_CUTOUT
 10
39.12170304966031
 20
6.330589795738341
 30
0.0
  0
VERTEX
  5
2FD
  8
THREE_QUARTER_INCH_CUTOUT
 10
39.1217230642097
 20
6.197229510312305
 30
0.0
 42
0.1988557026438834
  0
VERTEX
  5
2FE
  8
THREE_QUARTER_INCH_CUTOUT
 10
39.2364290458805
 20
5.91772628288431
 30
0.0
  0
VERTEX
  5
2FF
  8
THREE_QUARTER_INCH_CUTOUT
 10
39.74018381318768
 20
5.414640030935125
 30
0.0
 42
-0.4142135623730944
  0
VERTEX
  5
300
  8
THREE_QUARTER_INCH_CUTOUT
 10
39.74066421182104
 20
4.574988769923188
 30
0.0
  0
VERTEX
  5
301
  8
THREE_QUARTER_INCH_CUTOUT
 10
39.12168686425704
 20
3.955366172223869
 30
0.0
  0
VERTEX
  5
302
  8
THREE_QUARTER_INCH_CUTOUT
 10
38.50270951669287
 20
3.335743574524592
 30
0.0
 42
0.4142135623730944
  0
VERTEX
  5
303
  8
THREE_QUARTER_INCH_CUTOUT
 10
38.50318991532623
 20
2.496092313512669
 30
0.0
  0
VERTEX
  5
304
  8
THREE_QUARTER_INCH_CUTOUT
 10
39.00694468263345
 20
1.993006061563399
 30
0.0
 42
-0.1988557026438834
  0
VERTEX
  5
305
  8
THREE_QUARTER_INCH_CUTOUT
 10
39.12165066430424
 20
1.713502834135404
 30
0.0
  0
VERTEX
  5
306
  8
THREE_QUARTER_INCH_CUTOUT
 10
39.12167067885446
 20
1.580589795738113
 30
0.0
  0
VERTEX
  5
307
  8
THREE_QUARTER_INCH_CUTOUT
 10
28.06778828015721
 20
1.580597725089241
 30
0.0
 42
-0.4142106424158553
  0
VERTEX
  5
308
  8
THREE_QUARTER_INCH_CUTOUT
 10
27.9377895743793
 20
1.710605654433273
 30
0.0
  0
VERTEX
  5
309
  8
THREE_QUARTER_INCH_CUTOUT
 10
27.93778957437942
 20
1.896759174094264
 30
0.0
 42
1.0
  0
VERTEX
  5
30A
  8
THREE_QUARTER_INCH_CUTOUT
 10
27.75394180735091
 20
2.080606937203093
 30
0.0
  0
VERTEX
  5
30B
  8
THREE_QUARTER_INCH_CUTOUT
 10
27.06778957437931
 20
2.080606922572493
 30
0.0
  0
VERTEX
  5
30C
  8
THREE_QUARTER_INCH_CUTOUT
 10
27.06778957437941
 20
2.680607182926842
 30
0.0
  0
VERTEX
  5
30D
  8
THREE_QUARTER_INCH_CUTOUT
 10
27.75394698506866
 20
2.680607160271599
 30
0.0
 42
1.0
  0
VERTEX
  5
30E
  8
THREE_QUARTER_INCH_CUTOUT
 10
27.93779475423324
 20
2.864457211749546
 30
0.0
  0
VERTEX
  5
30F
  8
THREE_QUARTER_INCH_CUTOUT
 10
27.93779310742801
 20
2.996761660204989
 30
0.0
 42
1.0
  0
VERTEX
  5
310
  8
THREE_QUARTER_INCH_CUTOUT
 10
27.75394534433101
 20
3.180607134943976
 30
0.0
  0
VERTEX
  5
311
  8
THREE_QUARTER_INCH_CUTOUT
 10
27.06778957437943
 20
3.180607134933943
 30
0.0
  0
VERTEX
  5
312
  8
THREE_QUARTER_INCH_CUTOUT
 10
27.06778957437943
 20
3.667784039296301
 30
0.0
  0
VERTEX
  5
313
  8
THREE_QUARTER_INCH_CUTOUT
 10
26.80778957437935
 20
3.667784039296301
 30
0.0
  0
VERTEX
  5
314
  8
THREE_QUARTER_INCH_CUTOUT
 10
26.80778957437935
 20
3.180607134933958
 30
0.0
  0
VERTEX
  5
315
  8
THREE_QUARTER_INCH_CUTOUT
 10
26.12163380442774
 20
3.18060713494399
 30
0.0
 42
1.0
  0
VERTEX
  5
316
  8
THREE_QUARTER_INCH_CUTOUT
 10
25.93778604133073
 20
2.996761660204989
 30
0.0
  0
VERTEX
  5
317
  8
THREE_QUARTER_INCH_CUTOUT
 10
25.93778439452552
 20
2.864457211749546
 30
0.0
 42
1.0
  0
VERTEX
  5
318
  8
THREE_QUARTER_INCH_CUTOUT
 10
26.12163216369007
 20
2.680607160271599
 30
0.0
  0
VERTEX
  5
319
  8
THREE_QUARTER_INCH_CUTOUT
 10
26.80778957437935
 20
2.680607182926884
 30
0.0
  0
VERTEX
  5
31A
  8
THREE_QUARTER_INCH_CUTOUT
 10
26.80778957437943
 20
2.080606922572493
 30
0.0
  0
VERTEX
  5
31B
  8
THREE_QUARTER_INCH_CUTOUT
 10
26.12163734140783
 20
2.080606937203093
 30
0.0
 42
1.0
  0
VERTEX
  5
31C
  8
THREE_QUARTER_INCH_CUTOUT
 10
25.93778957437932
 20
1.89675917409425
 30
0.0
  0
VERTEX
  5
31D
  8
THREE_QUARTER_INCH_CUTOUT
 10
25.93778957437943
 20
1.710605654433273
 30
0.0
 42
-0.4142106424158553
  0
VERTEX
  5
31E
  8
THREE_QUARTER_INCH_CUTOUT
 10
25.80779086870691
 20
1.580597725089241
 30
0.0
  0
VERTEX
  5
31F
  8
THREE_QUARTER_INCH_CUTOUT
 10
8.817668230507515
 20
1.580581866387
 30
0.0
 42
-0.4142106424158553
  0
VERTEX
  5
320
  8
THREE_QUARTER_INCH_CUTOUT
 10
8.687789574379302
 20
1.710573937028833
 30
0.0
  0
VERTEX
  5
321
  8
THREE_QUARTER_INCH_CUTOUT
 10
8.687789574379416
 20
1.896727456689824
 30
0.0
 42
1.0
  0
VERTEX
  5
322
  8
THREE_QUARTER_INCH_CUTOUT
 10
8.50394180735092
 20
2.080575219798639
 30
0.0
  0
VERTEX
  5
323
  8
THREE_QUARTER_INCH_CUTOUT
 10
7.817789574379297
 20
2.080575205168053
 30
0.0
  0
VERTEX
  5
324
  8
THREE_QUARTER_INCH_CUTOUT
 10
7.817789574379411
 20
2.680575465522402
 30
0.0
  0
VERTEX
  5
325
  8
THREE_QUARTER_INCH_CUTOUT
 10
8.503946985068659
 20
2.680575442867116
 30
0.0
 42
1.0
  0
VERTEX
  5
326
  8
THREE_QUARTER_INCH_CUTOUT
 10
8.687794754233245
 20
2.864425494345092
 30
0.0
  0
VERTEX
  5
327
  8
THREE_QUARTER_INCH_CUTOUT
 10
8.687793107428
 20
2.996729942800535
 30
0.0
 42
1.0
  0
VERTEX
  5
328
  8
THREE_QUARTER_INCH_CUTOUT
 10
8.503945344331022
 20
3.180575417539522
 30
0.0
  0
VERTEX
  5
329
  8
THREE_QUARTER_INCH_CUTOUT
 10
7.817789574379439
 20
3.180575417529504
 30
0.0
  0
VERTEX
  5
32A
  8
THREE_QUARTER_INCH_CUTOUT
 10
7.817789574379383
 20
3.667752321891847
 30
0.0
  0
VERTEX
  5
32B
  8
THREE_QUARTER_INCH_CUTOUT
 10
7.557789574379306
 20
3.667752321891861
 30
0.0
  0
VERTEX
  5
32C
  8
THREE_QUARTER_INCH_CUTOUT
 10
7.557789574379306
 20
3.180575417529489
 30
0.0
  0
VERTEX
  5
32D
  8
THREE_QUARTER_INCH_CUTOUT
 10
6.871633804427709
 20
3.180575417539522
 30
0.0
 42
1.0
  0
VERTEX
  5
32E
  8
THREE_QUARTER_INCH_CUTOUT
 10
6.687786041330718
 20
2.996729942800549
 30
0.0
  0
VERTEX
  5
32F
  8
THREE_QUARTER_INCH_CUTOUT
 10
6.687784394525487
 20
2.864425494345106
 30
0.0
 42
1.0
  0
VERTEX
  5
330
  8
THREE_QUARTER_INCH_CUTOUT
 10
6.871632163690059
 20
2.680575442867131
 30
0.0
  0
VERTEX
  5
331
  8
THREE_QUARTER_INCH_CUTOUT
 10
7.557789574379306
 20
2.680575465522416
 30
0.0
  0
VERTEX
  5
332
  8
THREE_QUARTER_INCH_CUTOUT
 10
7.55778957437942
 20
2.080575205168024
 30
0.0
  0
VERTEX
  5
333
  8
THREE_QUARTER_INCH_CUTOUT
 10
6.87163734140784
 20
2.080575219798639
 30
0.0
 42
1.0
  0
VERTEX
  5
334
  8
THREE_QUARTER_INCH_CUTOUT
 10
6.687789574379302
 20
1.896727456689824
 30
0.0
  0
VERTEX
  5
335
  8
THREE_QUARTER_INCH_CUTOUT
 10
6.687789574379401
 20
1.710573937028833
 30
0.0
 42
-0.4142106424158553
  0
VERTEX
  5
336
  8
THREE_QUARTER_INCH_CUTOUT
 10
6.557910918473375
 20
1.580581866386972
 30
0.0
  0
VERTEX
  5
337
  8
THREE_QUARTER_INCH_CUTOUT
 10
3.317791418769865
 20
1.580589795737829
 30
0.0
  0
SEQEND
  5
35C
  8
THREE_QUARTER_INCH_CUTOUT
  0
ENDSEC
  0
EOF
