  0
SECTION
  2
HEADER
  9
$ACADVER
  1
AC1009
  9
$DWGCODEPAGE
  3
ansi_1252
  9
$INSBASE
 10
0.0
 20
0.0
 30
0.0
  9
$EXTMIN
 10
1.700000137267084
 20
0.8827606449592977
 30
0.0
  9
$EXTMAX
 10
76.95650815953941
 20
46.18901064818729
 30
0.0
  9
$LIMMIN
 10
0.0
 20
0.0
  9
$LIMMAX
 10
12.0
 20
9.0
  9
$ORTHOMODE
 70
     0
  9
$REGENMODE
 70
     1
  9
$FILLMODE
 70
     1
  9
$QTEXTMODE
 70
     0
  9
$MIRRTEXT
 70
     1
  9
$DRAGMODE
 70
     2
  9
$LTSCALE
 40
1.0
  9
$OSMODE
 70
    37
  9
$ATTMODE
 70
     1
  9
$TEXTSIZE
 40
0.2
  9
$TRACEWID
 40
0.05
  9
$TEXTSTYLE
  7
STANDARD
  9
$CLAYER
  8
0
  9
$CELTYPE
  6
BYLAYER
  9
$CECOLOR
 62
   256
  9
$DIMSCALE
 40
1.0
  9
$DIMASZ
 40
0.18
  9
$DIMEXO
 40
0.0625
  9
$DIMDLI
 40
0.38
  9
$DIMRND
 40
0.0
  9
$DIMDLE
 40
0.0
  9
$DIMEXE
 40
0.18
  9
$DIMTP
 40
0.0
  9
$DIMTM
 40
0.0
  9
$DIMTXT
 40
0.18
  9
$DIMCEN
 40
0.09
  9
$DIMTSZ
 40
0.0
  9
$DIMTOL
 70
     0
  9
$DIMLIM
 70
     0
  9
$DIMTIH
 70
     1
  9
$DIMTOH
 70
     1
  9
$DIMSE1
 70
     0
  9
$DIMSE2
 70
     0
  9
$DIMTAD
 70
     0
  9
$DIMZIN
 70
     0
  9
$DIMBLK
  1

  9
$DIMASO
 70
     1
  9
$DIMSHO
 70
     1
  9
$DIMPOST
  1

  9
$DIMAPOST
  1

  9
$DIMALT
 70
     0
  9
$DIMALTD
 70
     2
  9
$DIMALTF
 40
25.4
  9
$DIMLFAC
 40
1.0
  9
$DIMTOFL
 70
     0
  9
$DIMTVP
 40
0.0
  9
$DIMTIX
 70
     0
  9
$DIMSOXD
 70
     0
  9
$DIMSAH
 70
     0
  9
$DIMBLK1
  1

  9
$DIMBLK2
  1

  9
$DIMSTYLE
  2
STANDARD
  9
$DIMCLRD
 70
     0
  9
$DIMCLRE
 70
     0
  9
$DIMCLRT
 70
     0
  9
$DIMTFAC
 40
1.0
  9
$DIMGAP
 40
0.09
  9
$LUNITS
 70
     2
  9
$LUPREC
 70
     4
  9
$SKETCHINC
 40
0.1
  9
$FILLETRAD
 40
0.5
  9
$AUNITS
 70
     0
  9
$AUPREC
 70
     0
  9
$MENU
  1
.
  9
$ELEVATION
 40
0.0
  9
$PELEVATION
 40
0.0
  9
$THICKNESS
 40
0.0
  9
$LIMCHECK
 70
     0
  9
$CHAMFERA
 40
0.0
  9
$CHAMFERB
 40
0.0
  9
$SKPOLY
 70
     0
  9
$TDCREATE
 40
2454910.5
  9
$TDUPDATE
 40
2457884.61466221
  9
$TDINDWG
 40
0.0000000116
  9
$TDUSRTIMER
 40
0.0000000116
  9
$USRTIMER
 70
     1
  9
$ANGBASE
 50
0.0
  9
$ANGDIR
 70
     0
  9
$PDMODE
 70
     0
  9
$PDSIZE
 40
0.0
  9
$PLINEWID
 40
0.0
  9
$COORDS
 70
     1
  9
$SPLFRAME
 70
     0
  9
$SPLINETYPE
 70
     6
  9
$SPLINESEGS
 70
     8
  9
$ATTDIA
 70
     0
  9
$ATTREQ
 70
     1
  9
$HANDLING
 70
     1
  9
$HANDSEED
  5
487
  9
$SURFTAB1
 70
     6
  9
$SURFTAB2
 70
     6
  9
$SURFTYPE
 70
     6
  9
$SURFU
 70
     6
  9
$SURFV
 70
     6
  9
$UCSNAME
  2

  9
$UCSORG
 10
0.0
 20
0.0
 30
0.0
  9
$UCSXDIR
 10
1.0
 20
0.0
 30
0.0
  9
$UCSYDIR
 10
0.0
 20
1.0
 30
0.0
  9
$PUCSNAME
  2

  9
$PUCSORG
 10
0.0
 20
0.0
 30
0.0
  9
$PUCSXDIR
 10
1.0
 20
0.0
 30
0.0
  9
$PUCSYDIR
 10
0.0
 20
1.0
 30
0.0
  9
$USERI1
 70
     0
  9
$USERI2
 70
     0
  9
$USERI3
 70
     0
  9
$USERI4
 70
     0
  9
$USERI5
 70
     0
  9
$USERR1
 40
0.0
  9
$USERR2
 40
0.0
  9
$USERR3
 40
0.0
  9
$USERR4
 40
0.0
  9
$USERR5
 40
0.0
  9
$WORLDVIEW
 70
     1
  9
$SHADEDGE
 70
     3
  9
$SHADEDIF
 70
    70
  9
$TILEMODE
 70
     1
  9
$MAXACTVP
 70
    64
  9
$PLIMCHECK
 70
     0
  9
$PEXTMIN
 10
1.000000000000000E+20
 20
1.000000000000000E+20
 30
1.000000000000000E+20
  9
$PEXTMAX
 10
-1.000000000000000E+20
 20
-1.000000000000000E+20
 30
-1.000000000000000E+20
  9
$PLIMMIN
 10
0.0
 20
0.0
  9
$PLIMMAX
 10
12.0
 20
9.0
  9
$UNITMODE
 70
     0
  9
$VISRETAIN
 70
     1
  9
$PLINEGEN
 70
     0
  9
$PSLTSCALE
 70
     1
  0
ENDSEC
  0
SECTION
  2
TABLES
  0
TABLE
  2
VPORT
 70
     1
  0
VPORT
  2
*ACTIVE
 70
     0
 10
0.0
 20
0.0
 11
1.0
 21
1.0
 12
10.42990654205607
 22
4.5
 13
0.0
 23
0.0
 14
0.5
 24
0.5
 15
0.5
 25
0.5
 16
0.0
 26
0.0
 36
1.0
 17
0.0
 27
0.0
 37
0.0
 40
9.0
 41
1.972972972850329
 42
50.0
 43
0.0
 44
0.0
 50
0.0
 51
0.0
 71
     0
 72
   100
 73
     1
 74
     3
 75
     0
 76
     0
 77
     0
 78
     0
  0
ENDTAB
  0
TABLE
  2
LTYPE
 70
     2
  0
LTYPE
  2
CONTINUOUS
 70
     0
  3
Solid line
 72
    65
 73
     0
 40
0.0
  0
LTYPE
  2
CONTINUOUS2
 70
     0
  3
Solid Line
 72
    65
 73
     0
 40
0.0
  0
ENDTAB
  0
TABLE
  2
LAYER
 70
     4
  0
LAYER
  2
0
 70
     0
 62
     7
  6
CONTINUOUS
  0
LAYER
  2
LABELS
 70
     0
 62
   150
  6
CONTINUOUS
  0
LAYER
  2
SCREW_LOCATION_RECESS
 70
     0
 62
     1
  6
CONTINUOUS
  0
LAYER
  2
THREE_QUARTER_INCH_THRUCUT
 70
     0
 62
    18
  6
CONTINUOUS
  0
ENDTAB
  0
TABLE
  2
STYLE
 70
     1
  0
STYLE
  2
STANDARD
 70
     0
 40
0.0
 41
1.0
 50
0.0
 71
     0
 42
0.2
  3
txt
  4

  0
ENDTAB
  0
TABLE
  2
VIEW
 70
     0
  0
ENDTAB
  0
TABLE
  2
UCS
 70
     0
  0
ENDTAB
  0
TABLE
  2
APPID
 70
     1
  0
APPID
  2
ACAD
 70
     0
  0
ENDTAB
  0
TABLE
  2
DIMSTYLE
 70
     1
  0
DIMSTYLE
  2
STANDARD
 70
     0
  3

  4

  5

  6

  7

 40
1.0
 41
0.18
 42
0.0625
 43
0.38
 44
0.18
 45
0.0
 46
0.0
 47
0.0
 48
0.0
140
0.18
141
0.09
142
0.0
143
25.4
144
1.0
145
0.0
146
1.0
147
0.09
 71
     0
 72
     0
 73
     1
 74
     1
 75
     0
 76
     0
 77
     0
 78
     0
170
     0
171
     2
172
     0
173
     0
174
     0
175
     0
176
     0
177
     0
178
     0
  0
ENDTAB
  0
ENDSEC
  0
SECTION
  2
BLOCKS
  0
BLOCK
  8
0
  2
$MODEL_SPACE
 70
     0
 10
0.0
 20
0.0
 30
0.0
  3
$MODEL_SPACE
  1

  0
ENDBLK
  5
21
  8
0
  0
BLOCK
 67
     1
  8
0
  2
$PAPER_SPACE
 70
     0
 10
0.0
 20
0.0
 30
0.0
  3
$PAPER_SPACE
  1

  0
ENDBLK
  5
1D
 67
     1
  8
0
  0
ENDSEC
  0
SECTION
  2
ENTITIES
  0
POLYLINE
  5
70
  8
LABELS
 66
     1
 10
0.0
 20
0.0
 30
0.0
  0
VERTEX
  5
AC
  8
LABELS
 10
5.070359874746751
 20
19.07337828873594
 30
0.0
  0
VERTEX
  5
AD
  8
LABELS
 10
9.070359874746751
 20
19.07337828873594
 30
0.0
  0
VERTEX
  5
AE
  8
LABELS
 10
9.070359874746751
 20
17.50537828873618
 30
0.0
  0
VERTEX
  5
AF
  8
LABELS
 10
9.07001566698308
 20
17.47946364640219
 30
0.0
  0
VERTEX
  5
B0
  8
LABELS
 10
9.068989025137377
 20
17.45372521256429
 30
0.0
  0
VERTEX
  5
B1
  8
LABELS
 10
9.06728892137761
 20
17.42817122696857
 30
0.0
  0
VERTEX
  5
B2
  8
LABELS
 10
9.06492432787175
 20
17.40280992936114
 30
0.0
  0
VERTEX
  5
B3
  8
LABELS
 10
9.061904216787767
 20
17.37764955948808
 30
0.0
  0
VERTEX
  5
B4
  8
LABELS
 10
9.058237560293627
 20
17.3526983570955
 30
0.0
  0
VERTEX
  5
B5
  8
LABELS
 10
9.0539333305573
 20
17.32796456192947
 30
0.0
  0
VERTEX
  5
B6
  8
LABELS
 10
9.04900049974675
 20
17.30345641373611
 30
0.0
  0
VERTEX
  5
B7
  8
LABELS
 10
9.043448040029954
 20
17.27918215226149
 30
0.0
  0
VERTEX
  5
B8
  8
LABELS
 10
9.037284923574877
 20
17.25515001725172
 30
0.0
  0
VERTEX
  5
B9
  8
LABELS
 10
9.030520122549486
 20
17.23136824845288
 30
0.0
  0
VERTEX
  5
BA
  8
LABELS
 10
9.023162609121751
 20
17.20784508561108
 30
0.0
  0
VERTEX
  5
BB
  8
LABELS
 10
9.015221355459644
 20
17.1845887684724
 30
0.0
  0
VERTEX
  5
BC
  8
LABELS
 10
9.006705333731126
 20
17.16160753678294
 30
0.0
  0
VERTEX
  5
BD
  8
LABELS
 10
8.997623516104174
 20
17.13890963028879
 30
0.0
  0
VERTEX
  5
BE
  8
LABELS
 10
8.98798487474675
 20
17.11650328873605
 30
0.0
  0
VERTEX
  5
BF
  8
LABELS
 10
8.97779838182683
 20
17.09439675187081
 30
0.0
  0
VERTEX
  5
C0
  8
LABELS
 10
8.967073009512376
 20
17.07259825943916
 30
0.0
  0
VERTEX
  5
C1
  8
LABELS
 10
8.955817729971361
 20
17.0511160511872
 30
0.0
  0
VERTEX
  5
C2
  8
LABELS
 10
8.944041515371751
 20
17.02995836686103
 30
0.0
  0
VERTEX
  5
C3
  8
LABELS
 10
8.931753337881517
 20
17.00913344620673
 30
0.0
  0
VERTEX
  5
C4
  8
LABELS
 10
8.918962169668625
 20
16.98864952897039
 30
0.0
  0
VERTEX
  5
C5
  8
LABELS
 10
8.905676982901046
 20
16.96851485489812
 30
0.0
  0
VERTEX
  5
C6
  8
LABELS
 10
8.891906749746749
 20
16.94873766373601
 30
0.0
  0
VERTEX
  5
C7
  8
LABELS
 10
8.877660442373703
 20
16.92932619523015
 30
0.0
  0
VERTEX
  5
C8
  8
LABELS
 10
8.862947032949872
 20
16.91028868912662
 30
0.0
  0
VERTEX
  5
C9
  8
LABELS
 10
8.847775493643233
 20
16.89163338517155
 30
0.0
  0
VERTEX
  5
CA
  8
LABELS
 10
8.832154796621747
 20
16.873368523111
 30
0.0
  0
VERTEX
  5
CB
  8
LABELS
 10
8.81609391405339
 20
16.85550234269107
 30
0.0
  0
VERTEX
  5
CC
  8
LABELS
 10
8.799601818106122
 20
16.83804308365787
 30
0.0
  0
VERTEX
  5
CD
  8
LABELS
 10
8.78268748094792
 20
16.82099898575748
 30
0.0
  0
VERTEX
  5
CE
  8
LABELS
 10
8.765359874746748
 20
16.80437828873599
 30
0.0
  0
VERTEX
  5
CF
  8
LABELS
 10
8.747627971670578
 20
16.7881892323395
 30
0.0
  0
VERTEX
  5
D0
  8
LABELS
 10
8.729500743887373
 20
16.77244005631411
 30
0.0
  0
VERTEX
  5
D1
  8
LABELS
 10
8.710987163565107
 20
16.75713900040591
 30
0.0
  0
VERTEX
  5
D2
  8
LABELS
 10
8.692096202871747
 20
16.74229430436099
 30
0.0
  0
VERTEX
  5
D3
  8
LABELS
 10
8.672836833975264
 20
16.72791420792544
 30
0.0
  0
VERTEX
  5
D4
  8
LABELS
 10
8.653218029043623
 20
16.71400695084537
 30
0.0
  0
VERTEX
  5
D5
  8
LABELS
 10
8.633248760244795
 20
16.70058077286685
 30
0.0
  0
VERTEX
  5
D6
  8
LABELS
 10
8.612937999746748
 20
16.68764391373599
 30
0.0
  0
VERTEX
  5
D7
  8
LABELS
 10
8.59229471971745
 20
16.67520461319888
 30
0.0
  0
VERTEX
  5
D8
  8
LABELS
 10
8.571327892324874
 20
16.66327111100162
 30
0.0
  0
VERTEX
  5
D9
  8
LABELS
 10
8.550046489736982
 20
16.65185164689029
 30
0.0
  0
VERTEX
  5
DA
  8
LABELS
 10
8.528459484121749
 20
16.640954460611
 30
0.0
  0
VERTEX
  5
DB
  8
LABELS
 10
8.506575847647138
 20
16.63058779190983
 30
0.0
  0
VERTEX
  5
DC
  8
LABELS
 10
8.484404552481124
 20
16.62075988053288
 30
0.0
  0
VERTEX
  5
DD
  8
LABELS
 10
8.461954570791672
 20
16.61147896622624
 30
0.0
  0
VERTEX
  5
DE
  8
LABELS
 10
8.439234874746749
 20
16.60275328873602
 30
0.0
  0
VERTEX
  5
DF
  8
LABELS
 10
8.416254436514325
 20
16.59459108780829
 30
0.0
  0
VERTEX
  5
E0
  8
LABELS
 10
8.393022228262373
 20
16.58700060318915
 30
0.0
  0
VERTEX
  5
E1
  8
LABELS
 10
8.369547222158857
 20
16.57999007462471
 30
0.0
  0
VERTEX
  5
E2
  8
LABELS
 10
8.345838390371748
 20
16.57356774186104
 30
0.0
  0
VERTEX
  5
E3
  8
LABELS
 10
8.321904705069013
 20
16.56774184464425
 30
0.0
  0
VERTEX
  5
E4
  8
LABELS
 10
8.297755138418623
 20
16.56252062272043
 30
0.0
  0
VERTEX
  5
E5
  8
LABELS
 10
8.273398662588544
 20
16.55791231583567
 30
0.0
  0
VERTEX
  5
E6
  8
LABELS
 10
8.248844249746748
 20
16.55392516373607
 30
0.0
  0
VERTEX
  5
E7
  8
LABELS
 10
8.2241008720612
 20
16.55056740616772
 30
0.0
  0
VERTEX
  5
E8
  8
LABELS
 10
8.199177501699872
 20
16.54784728287671
 30
0.0
  0
VERTEX
  5
E9
  8
LABELS
 10
8.174083110830733
 20
16.54577303360914
 30
0.0
  0
VERTEX
  5
EA
  8
LABELS
 10
8.148826671621748
 20
16.5443528981111
 30
0.0
  0
VERTEX
  5
EB
  8
LABELS
 10
8.12341715624089
 20
16.54359511612869
 30
0.0
  0
VERTEX
  5
EC
  8
LABELS
 10
8.097863536856124
 20
16.543507927408
 30
0.0
  0
VERTEX
  5
ED
  8
LABELS
 10
8.072174785635422
 20
16.54409957169512
 30
0.0
  0
VERTEX
  5
EE
  8
LABELS
 10
8.04635987474675
 20
16.54537828873615
 30
0.0
  0
VERTEX
  5
EF
  8
LABELS
 10
8.02367936327214
 20
16.54578731583575
 30
0.0
  0
VERTEX
  5
F0
  8
LABELS
 10
8.001142345449875
 20
16.54675988053301
 30
0.0
  0
VERTEX
  5
F1
  8
LABELS
 10
7.978755596182297
 20
16.54828920792558
 30
0.0
  0
VERTEX
  5
F2
  8
LABELS
 10
7.956525890371751
 20
16.55036852311112
 30
0.0
  0
VERTEX
  5
F3
  8
LABELS
 10
7.934460002920579
 20
16.55299105118729
 30
0.0
  0
VERTEX
  5
F4
  8
LABELS
 10
7.912564708731125
 20
16.55615001725173
 30
0.0
  0
VERTEX
  5
F5
  8
LABELS
 10
7.890846782705735
 20
16.55983864640212
 30
0.0
  0
VERTEX
  5
F6
  8
LABELS
 10
7.86931299974675
 20
16.5640501637361
 30
0.0
  0
VERTEX
  5
F7
  8
LABELS
 10
7.847970134756515
 20
16.56877779435134
 30
0.0
  0
VERTEX
  5
F8
  8
LABELS
 10
7.826824962637375
 20
16.57401476334547
 30
0.0
  0
VERTEX
  5
F9
  8
LABELS
 10
7.805884258291671
 20
16.57975429581617
 30
0.0
  0
VERTEX
  5
FA
  8
LABELS
 10
7.78515479662175
 20
16.58598961686109
 30
0.0
  0
VERTEX
  5
FB
  8
LABELS
 10
7.764643352529953
 20
16.59271395157788
 30
0.0
  0
VERTEX
  5
FC
  8
LABELS
 10
7.744356700918624
 20
16.59992052506421
 30
0.0
  0
VERTEX
  5
FD
  8
LABELS
 10
7.724301616690108
 20
16.60760256241772
 30
0.0
  0
VERTEX
  5
FE
  8
LABELS
 10
7.704484874746749
 20
16.61575328873607
 30
0.0
  0
VERTEX
  5
FF
  8
LABELS
 10
7.684913249990889
 20
16.62436592911693
 30
0.0
  0
VERTEX
  5
100
  8
LABELS
 10
7.665593517324874
 20
16.63343370865794
 30
0.0
  0
VERTEX
  5
101
  8
LABELS
 10
7.646532451651045
 20
16.64294985245677
 30
0.0
  0
VERTEX
  5
102
  8
LABELS
 10
7.627736827871748
 20
16.65290758561106
 30
0.0
  0
VERTEX
  5
103
  8
LABELS
 10
7.609213420889326
 20
16.66330013321848
 30
0.0
  0
VERTEX
  5
104
  8
LABELS
 10
7.590969005606122
 20
16.67412072037668
 30
0.0
  0
VERTEX
  5
105
  8
LABELS
 10
7.573010356924481
 20
16.68536257218332
 30
0.0
  0
VERTEX
  5
106
  8
LABELS
 10
7.555344249746748
 20
16.69701891373606
 30
0.0
  0
VERTEX
  5
107
  8
LABELS
 10
7.537977458975263
 20
16.70908297013254
 30
0.0
  0
VERTEX
  5
108
  8
LABELS
 10
7.520916759512371
 20
16.72154796647043
 30
0.0
  0
VERTEX
  5
109
  8
LABELS
 10
7.504168926260418
 20
16.73440712784738
 30
0.0
  0
VERTEX
  5
10A
  8
LABELS
 10
7.487740734121745
 20
16.74765367936105
 30
0.0
  0
VERTEX
  5
10B
  8
LABELS
 10
7.471638957998699
 20
16.76128084610909
 30
0.0
  0
VERTEX
  5
10C
  8
LABELS
 10
7.455870372793621
 20
16.77528185318917
 30
0.0
  0
VERTEX
  5
10D
  8
LABELS
 10
7.440441753408854
 20
16.78964992569894
 30
0.0
  0
VERTEX
  5
10E
  8
LABELS
 10
7.425359874746745
 20
16.80437828873605
 30
0.0
  0
VERTEX
  5
10F
  8
LABELS
 10
7.410631511709635
 20
16.81946016739816
 30
0.0
  0
VERTEX
  5
110
  8
LABELS
 10
7.396263439199869
 20
16.83488878678292
 30
0.0
  0
VERTEX
  5
111
  8
LABELS
 10
7.382262432119791
 20
16.850657371988
 30
0.0
  0
VERTEX
  5
112
  8
LABELS
 10
7.368635265371744
 20
16.86675914811104
 30
0.0
  0
VERTEX
  5
113
  8
LABELS
 10
7.355388713858073
 20
16.88318734024971
 30
0.0
  0
VERTEX
  5
114
  8
LABELS
 10
7.342529552481119
 20
16.89993517350167
 30
0.0
  0
VERTEX
  5
115
  8
LABELS
 10
7.330064556143229
 20
16.91699587296456
 30
0.0
  0
VERTEX
  5
116
  8
LABELS
 10
7.318000499746744
 20
16.93436266373604
 30
0.0
  0
VERTEX
  5
117
  8
LABELS
 10
7.306344158194009
 20
16.95202877091378
 30
0.0
  0
VERTEX
  5
118
  8
LABELS
 10
7.295102306387369
 20
16.96998741959542
 30
0.0
  0
VERTEX
  5
119
  8
LABELS
 10
7.284281719229165
 20
16.98823183487862
 30
0.0
  0
VERTEX
  5
11A
  8
LABELS
 10
7.273889171621744
 20
17.00675524186104
 30
0.0
  0
VERTEX
  5
11B
  8
LABELS
 10
7.263931438467448
 20
17.02555086564033
 30
0.0
  0
VERTEX
  5
11C
  8
LABELS
 10
7.25441529466862
 20
17.04461193131417
 30
0.0
  0
VERTEX
  5
11D
  8
LABELS
 10
7.245347515127603
 20
17.06393166398018
 30
0.0
  0
VERTEX
  5
11E
  8
LABELS
 10
7.236734874746745
 20
17.08350328873604
 30
0.0
  0
VERTEX
  5
11F
  8
LABELS
 10
7.228584148428386
 20
17.1033200306794
 30
0.0
  0
VERTEX
  5
120
  8
LABELS
 10
7.220902111074871
 20
17.12337511490791
 30
0.0
  0
VERTEX
  5
121
  8
LABELS
 10
7.213695537588542
 20
17.14366176651924
 30
0.0
  0
VERTEX
  5
122
  8
LABELS
 10
7.206971202871745
 20
17.16417321061104
 30
0.0
  0
VERTEX
  5
123
  8
LABELS
 10
7.200735881826824
 20
17.18490267228096
 30
0.0
  0
VERTEX
  5
124
  8
LABELS
 10
7.194996349356121
 20
17.20584337662666
 30
0.0
  0
VERTEX
  5
125
  8
LABELS
 10
7.189759380361981
 20
17.2269885487458
 30
0.0
  0
VERTEX
  5
126
  8
LABELS
 10
7.185031749746748
 20
17.24833141373604
 30
0.0
  0
VERTEX
  5
127
  8
LABELS
 10
7.180820232412764
 20
17.26986519669502
 30
0.0
  0
VERTEX
  5
128
  8
LABELS
 10
7.177131603262374
 20
17.29158312272041
 30
0.0
  0
VERTEX
  5
129
  8
LABELS
 10
7.173972637197922
 20
17.31347841690986
 30
0.0
  0
VERTEX
  5
12A
  8
LABELS
 10
7.171350109121751
 20
17.33554430436103
 30
0.0
  0
VERTEX
  5
12B
  8
LABELS
 10
7.169270793936206
 20
17.35777401017157
 30
0.0
  0
VERTEX
  5
12C
  8
LABELS
 10
7.167741466543628
 20
17.38016075943916
 30
0.0
  0
VERTEX
  5
12D
  8
LABELS
 10
7.166768901846363
 20
17.40269777726142
 30
0.0
  0
VERTEX
  5
12E
  8
LABELS
 10
7.166359874746755
 20
17.42537828873603
 30
0.0
  0
VERTEX
  5
12F
  8
LABELS
 10
7.166359874746755
 20
19.04137828873601
 30
0.0
  0
VERTEX
  5
130
  8
LABELS
 10
7.166359874746755
 20
17.45737828873595
 30
0.0
  0
VERTEX
  5
131
  8
LABELS
 10
7.165984539053396
 20
17.42897158097228
 30
0.0
  0
VERTEX
  5
132
  8
LABELS
 10
7.16486500169988
 20
17.40075743912658
 30
0.0
  0
VERTEX
  5
133
  8
LABELS
 10
7.163010967276051
 20
17.37274483536682
 30
0.0
  0
VERTEX
  5
134
  8
LABELS
 10
7.160432140371755
 20
17.34494274186096
 30
0.0
  0
VERTEX
  5
135
  8
LABELS
 10
7.157138225576833
 20
17.31736013077698
 30
0.0
  0
VERTEX
  5
136
  8
LABELS
 10
7.15313892748113
 20
17.29000597428285
 30
0.0
  0
VERTEX
  5
137
  8
LABELS
 10
7.148443950674489
 20
17.26288924454652
 30
0.0
  0
VERTEX
  5
138
  8
LABELS
 10
7.143062999746754
 20
17.23601891373598
 30
0.0
  0
VERTEX
  5
139
  8
LABELS
 10
7.13700577928777
 20
17.20940395401918
 30
0.0
  0
VERTEX
  5
13A
  8
LABELS
 10
7.13028199388738
 20
17.18305333756411
 30
0.0
  0
VERTEX
  5
13B
  8
LABELS
 10
7.122901348135426
 20
17.15697603653872
 30
0.0
  0
VERTEX
  5
13C
  8
LABELS
 10
7.114873546621754
 20
17.13118102311099
 30
0.0
  0
VERTEX
  5
13D
  8
LABELS
 10
7.106208293936207
 20
17.10567726944888
 30
0.0
  0
VERTEX
  5
13E
  8
LABELS
 10
7.09691529466863
 20
17.08047374772037
 30
0.0
  0
VERTEX
  5
13F
  8
LABELS
 10
7.087004253408864
 20
17.05557943009342
 30
0.0
  0
VERTEX
  5
140
  8
LABELS
 10
7.076484874746754
 20
17.031003288736
 30
0.0
  0
VERTEX
  5
141
  8
LABELS
 10
7.065366863272144
 20
17.00675429581608
 30
0.0
  0
VERTEX
  5
142
  8
LABELS
 10
7.053659923574878
 20
16.98284142350163
 30
0.0
  0
VERTEX
  5
143
  8
LABELS
 10
7.041373760244801
 20
16.95927364396061
 30
0.0
  0
VERTEX
  5
144
  8
LABELS
 10
7.028518077871754
 20
16.93605992936101
 30
0.0
  0
VERTEX
  5
145
  8
LABELS
 10
7.015102581045582
 20
16.91320925187078
 30
0.0
  0
VERTEX
  5
146
  8
LABELS
 10
7.001136974356129
 20
16.89073058365789
 30
0.0
  0
VERTEX
  5
147
  8
LABELS
 10
6.986630962393238
 20
16.86863289689032
 30
0.0
  0
VERTEX
  5
148
  8
LABELS
 10
6.971594249746753
 20
16.84692516373602
 30
0.0
  0
VERTEX
  5
149
  8
LABELS
 10
6.956036541006519
 20
16.82561635636297
 30
0.0
  0
VERTEX
  5
14A
  8
LABELS
 10
6.939967540762378
 20
16.80471544693915
 30
0.0
  0
VERTEX
  5
14B
  8
LABELS
 10
6.923396953604175
 20
16.78423140763251
 30
0.0
  0
VERTEX
  5
14C
  8
LABELS
 10
6.906334484121753
 20
16.76417321061103
 30
0.0
  0
VERTEX
  5
14D
  8
LABELS
 10
6.888789836904956
 20
16.74454982804267
 30
0.0
  0
VERTEX
  5
14E
  8
LABELS
 10
6.870772716543629
 20
16.72537023209541
 30
0.0
  0
VERTEX
  5
14F
  8
LABELS
 10
6.852292827627613
 20
16.7066433949372
 30
0.0
  0
VERTEX
  5
150
  8
LABELS
 10
6.833359874746753
 20
16.68837828873603
 30
0.0
  0
VERTEX
  5
151
  8
LABELS
 10
6.813983562490893
 20
16.67058388565986
 30
0.0
  0
VERTEX
  5
152
  8
LABELS
 10
6.794173595449878
 20
16.65326915787666
 30
0.0
  0
VERTEX
  5
153
  8
LABELS
 10
6.77393967821355
 20
16.63644307755439
 30
0.0
  0
VERTEX
  5
154
  8
LABELS
 10
6.753291515371752
 20
16.62011461686103
 30
0.0
  0
VERTEX
  5
155
  8
LABELS
 10
6.73223881151433
 20
16.60429274796455
 30
0.0
  0
VERTEX
  5
156
  8
LABELS
 10
6.710791271231127
 20
16.58898644303291
 30
0.0
  0
VERTEX
  5
157
  8
LABELS
 10
6.688958599111986
 20
16.57420467423408
 30
0.0
  0
VERTEX
  5
158
  8
LABELS
 10
6.666750499746752
 20
16.55995641373604
 30
0.0
  0
VERTEX
  5
159
  8
LABELS
 10
6.644176677725268
 20
16.54625063370674
 30
0.0
  0
VERTEX
  5
15A
  8
LABELS
 10
6.621246837637377
 20
16.53309630631416
 30
0.0
  0
VERTEX
  5
15B
  8
LABELS
 10
6.597970684072925
 20
16.52050240372627
 30
0.0
  0
VERTEX
  5
15C
  8
LABELS
 10
6.574357921621752
 20
16.50847789811103
 30
0.0
  0
VERTEX
  5
15D
  8
LABELS
 10
6.550418254873705
 20
16.49703176163642
 30
0.0
  0
VERTEX
  5
15E
  8
LABELS
 10
6.526161388418627
 20
16.4861729664704
 30
0.0
  0
VERTEX
  5
15F
  8
LABELS
 10
6.501597026846362
 20
16.47591048478094
 30
0.0
  0
VERTEX
  5
160
  8
LABELS
 10
6.476734874746752
 20
16.46625328873602
 30
0.0
  0
VERTEX
  5
161
  8
LABELS
 10
6.451584636709642
 20
16.45721035050359
 30
0.0
  0
VERTEX
  5
162
  8
LABELS
 10
6.426156017324876
 20
16.44879064225163
 30
0.0
  0
VERTEX
  5
163
  8
LABELS
 10
6.400458721182298
 20
16.44100313614811
 30
0.0
  0
VERTEX
  5
164
  8
LABELS
 10
6.374502452871751
 20
16.433856804361
 30
0.0
  0
VERTEX
  5
165
  8
LABELS
 10
6.348296916983079
 20
16.42736061905826
 30
0.0
  0
VERTEX
  5
166
  8
LABELS
 10
6.321851818106126
 20
16.42152355240786
 30
0.0
  0
VERTEX
  5
167
  8
LABELS
 10
6.295176860830735
 20
16.41635457657778
 30
0.0
  0
VERTEX
  5
168
  8
LABELS
 10
6.268281749746751
 20
16.41186266373598
 30
0.0
  0
VERTEX
  5
169
  8
LABELS
 10
6.241176189444016
 20
16.40805678605042
 30
0.0
  0
VERTEX
  5
16A
  8
LABELS
 10
6.213869884512375
 20
16.40494591568909
 30
0.0
  0
VERTEX
  5
16B
  8
LABELS
 10
6.186372539541672
 20
16.40253902481994
 30
0.0
  0
VERTEX
  5
16C
  8
LABELS
 10
6.158693859121751
 20
16.40084508561095
 30
0.0
  0
VERTEX
  5
16D
  8
LABELS
 10
6.130843547842455
 20
16.39987307023009
 30
0.0
  0
VERTEX
  5
16E
  8
LABELS
 10
6.102831310293626
 20
16.39963195084531
 30
0.0
  0
VERTEX
  5
16F
  8
LABELS
 10
6.07466685106511
 20
16.4001306996246
 30
0.0
  0
VERTEX
  5
170
  8
LABELS
 10
6.04635987474675
 20
16.40137828873591
 30
0.0
  0
VERTEX
  5
171
  8
LABELS
 10
6.021185375235032
 20
16.40169731949763
 30
0.0
  0
VERTEX
  5
172
  8
LABELS
 10
5.996167003653
 20
16.40264928482966
 30
0.0
  0
VERTEX
  5
173
  8
LABELS
 10
5.971312450430343
 20
16.40422649430232
 30
0.0
  0
VERTEX
  5
174
  8
LABELS
 10
5.946629405996749
 20
16.40642125748591
 30
0.0
  0
VERTEX
  5
175
  8
LABELS
 10
5.922125560781906
 20
16.40922588395076
 30
0.0
  0
VERTEX
  5
176
  8
LABELS
 10
5.897808605215499
 20
16.41263268326716
 30
0.0
  0
VERTEX
  5
177
  8
LABELS
 10
5.873686229727218
 20
16.41663396500545
 30
0.0
  0
VERTEX
  5
178
  8
LABELS
 10
5.849766124746749
 20
16.42122203873591
 30
0.0
  0
VERTEX
  5
179
  8
LABELS
 10
5.82605598070378
 20
16.42638921402888
 30
0.0
  0
VERTEX
  5
17A
  8
LABELS
 10
5.802563488027999
 20
16.43212780045467
 30
0.0
  0
VERTEX
  5
17B
  8
LABELS
 10
5.779296337149093
 20
16.43843010758357
 30
0.0
  0
VERTEX
  5
17C
  8
LABELS
 10
5.756262218496749
 20
16.44528844498591
 30
0.0
  0
VERTEX
  5
17D
  8
LABELS
 10
5.733468822500655
 20
16.452695122232
 30
0.0
  0
VERTEX
  5
17E
  8
LABELS
 10
5.710923839590499
 20
16.46064244889216
 30
0.0
  0
VERTEX
  5
17F
  8
LABELS
 10
5.688634960195968
 20
16.46912273453669
 30
0.0
  0
VERTEX
  5
180
  8
LABELS
 10
5.666609874746749
 20
16.47812828873591
 30
0.0
  0
VERTEX
  5
181
  8
LABELS
 10
5.644856273672531
 20
16.48765142106013
 30
0.0
  0
VERTEX
  5
182
  8
LABELS
 10
5.623381847403
 20
16.49768444107966
 30
0.0
  0
VERTEX
  5
183
  8
LABELS
 10
5.602194286367843
 20
16.50821965836482
 30
0.0
  0
VERTEX
  5
184
  8
LABELS
 10
5.581301280996749
 20
16.51924938248591
 30
0.0
  0
VERTEX
  5
185
  8
LABELS
 10
5.560710521719405
 20
16.53076592301326
 30
0.0
  0
VERTEX
  5
186
  8
LABELS
 10
5.540429698965498
 20
16.54276158951716
 30
0.0
  0
VERTEX
  5
187
  8
LABELS
 10
5.520466503164718
 20
16.55522869156794
 30
0.0
  0
VERTEX
  5
188
  8
LABELS
 10
5.500828624746749
 20
16.56815953873591
 30
0.0
  0
VERTEX
  5
189
  8
LABELS
 10
5.48152375414128
 20
16.58154644059138
 30
0.0
  0
VERTEX
  5
18A
  8
LABELS
 10
5.462559581777998
 20
16.59538170670466
 30
0.0
  0
VERTEX
  5
18B
  8
LABELS
 10
5.443943798086591
 20
16.60965764664607
 30
0.0
  0
VERTEX
  5
18C
  8
LABELS
 10
5.425684093496749
 20
16.62436656998591
 30
0.0
  0
VERTEX
  5
18D
  8
LABELS
 10
5.407788158438154
 20
16.63950078629451
 30
0.0
  0
VERTEX
  5
18E
  8
LABELS
 10
5.390263683340498
 20
16.65505260514216
 30
0.0
  0
VERTEX
  5
18F
  8
LABELS
 10
5.373118358633468
 20
16.67101433609919
 30
0.0
  0
VERTEX
  5
190
  8
LABELS
 10
5.356359874746749
 20
16.68737828873591
 30
0.0
  0
VERTEX
  5
191
  8
LABELS
 10
5.339995922110031
 20
16.70413677262264
 30
0.0
  0
VERTEX
  5
192
  8
LABELS
 10
5.324034191153
 20
16.72128209732967
 30
0.0
  0
VERTEX
  5
193
  8
LABELS
 10
5.308482372305344
 20
16.73880657242733
 30
0.0
  0
VERTEX
  5
194
  8
LABELS
 10
5.29334815599675
 20
16.75670250748592
 30
0.0
  0
VERTEX
  5
195
  8
LABELS
 10
5.278639232656905
 20
16.77496221207576
 30
0.0
  0
VERTEX
  5
196
  8
LABELS
 10
5.264363292715499
 20
16.79357799576717
 30
0.0
  0
VERTEX
  5
197
  8
LABELS
 10
5.250528026602218
 20
16.81254216813046
 30
0.0
  0
VERTEX
  5
198
  8
LABELS
 10
5.237141124746749
 20
16.83184703873592
 30
0.0
  0
VERTEX
  5
199
  8
LABELS
 10
5.224210277578781
 20
16.85148491715389
 30
0.0
  0
VERTEX
  5
19A
  8
LABELS
 10
5.211743175527999
 20
16.87144811295467
 30
0.0
  0
VERTEX
  5
19B
  8
LABELS
 10
5.199747509024093
 20
16.89172893570858
 30
0.0
  0
VERTEX
  5
19C
  8
LABELS
 10
5.18823096849675
 20
16.91231969498593
 30
0.0
  0
VERTEX
  5
19D
  8
LABELS
 10
5.177201244375656
 20
16.93321270035703
 30
0.0
  0
VERTEX
  5
19E
  8
LABELS
 10
5.1666660270905
 20
16.95440026139219
 30
0.0
  0
VERTEX
  5
19F
  8
LABELS
 10
5.156633007070969
 20
16.97587468766172
 30
0.0
  0
VERTEX
  5
1A0
  8
LABELS
 10
5.14710987474675
 20
16.99762828873595
 30
0.0
  0
VERTEX
  5
1A1
  8
LABELS
 10
5.138104320547532
 20
17.01965337418517
 30
0.0
  0
VERTEX
  5
1A2
  8
LABELS
 10
5.129624034903001
 20
17.04194225357971
 30
0.0
  0
VERTEX
  5
1A3
  8
LABELS
 10
5.121676708242845
 20
17.06448723648986
 30
0.0
  0
VERTEX
  5
1A4
  8
LABELS
 10
5.114270030996751
 20
17.08728063248596
 30
0.0
  0
VERTEX
  5
1A5
  8
LABELS
 10
5.107411693594408
 20
17.11031475113831
 30
0.0
  0
VERTEX
  5
1A6
  8
LABELS
 10
5.101109386465501
 20
17.13358190201722
 30
0.0
  0
VERTEX
  5
1A7
  8
LABELS
 10
5.09537080003972
 20
17.15707439469301
 30
0.0
  0
VERTEX
  5
1A8
  8
LABELS
 10
5.090203624746751
 20
17.18078453873598
 30
0.0
  0
VERTEX
  5
1A9
  8
LABELS
 10
5.085615551016282
 20
17.20470464371645
 30
0.0
  0
VERTEX
  5
1AA
  8
LABELS
 10
5.081614269278001
 20
17.22882701920474
 30
0.0
  0
VERTEX
  5
1AB
  8
LABELS
 10
5.078207469961594
 20
17.25314397477115
 30
0.0
  0
VERTEX
  5
1AC
  8
LABELS
 10
5.075402843496751
 20
17.277647819986
 30
0.0
  0
VERTEX
  5
1AD
  8
LABELS
 10
5.073208080313157
 20
17.3023308644196
 30
0.0
  0
VERTEX
  5
1AE
  8
LABELS
 10
5.071630870840501
 20
17.32718541764226
 30
0.0
  0
VERTEX
  5
1AF
  8
LABELS
 10
5.07067890550847
 20
17.3522037892243
 30
0.0
  0
VERTEX
  5
1B0
  8
LABELS
 10
5.070359874746751
 20
17.37737828873603
 30
0.0
  0
VERTEX
  5
1B1
  8
LABELS
 10
5.070359874746751
 20
19.04137828873601
 30
0.0
  0
SEQEND
  5
454
  8
LABELS
  0
POLYLINE
  5
71
  8
LABELS
 66
     1
 10
0.0
 20
0.0
 30
0.0
 70
     1
  0
VERTEX
  5
1B2
  8
LABELS
 10
35.14799624295554
 20
4.864691045710702
 30
0.0
 42
0.4142135623730951
  0
VERTEX
  5
1B3
  8
LABELS
 10
34.39799624295554
 20
4.114691045710702
 30
0.0
 42
0.4142135623730951
  0
VERTEX
  5
1B4
  8
LABELS
 10
35.14799624295554
 20
3.364691045710702
 30
0.0
 42
0.4142135623730951
  0
VERTEX
  5
1B5
  8
LABELS
 10
35.89799624295554
 20
4.114691045710702
 30
0.0
 42
0.4142135623730951
  0
SEQEND
  5
455
  8
LABELS
  0
POLYLINE
  5
72
  8
LABELS
 66
     1
 10
0.0
 20
0.0
 30
0.0
  0
VERTEX
  5
1B6
  8
LABELS
 10
42.6884261595394
 20
4.950563556668746
 30
0.0
  0
VERTEX
  5
1B7
  8
LABELS
 10
44.18842615953939
 20
3.450563556668762
 30
0.0
  0
SEQEND
  5
456
  8
LABELS
  0
POLYLINE
  5
73
  8
LABELS
 66
     1
 10
0.0
 20
0.0
 30
0.0
  0
VERTEX
  5
1B8
  8
LABELS
 10
44.18842615953938
 20
4.950563556668746
 30
0.0
  0
VERTEX
  5
1B9
  8
LABELS
 10
42.68842615953939
 20
3.450563556668762
 30
0.0
  0
SEQEND
  5
457
  8
LABELS
  0
POLYLINE
  5
74
  8
LABELS
 66
     1
 10
0.0
 20
0.0
 30
0.0
  0
VERTEX
  5
1BA
  8
LABELS
 10
5.07035987474675
 20
19.07337828873594
 30
0.0
  0
VERTEX
  5
1BB
  8
LABELS
 10
9.07035987474675
 20
19.07337828873594
 30
0.0
  0
VERTEX
  5
1BC
  8
LABELS
 10
9.07035987474675
 20
17.50537828873618
 30
0.0
  0
VERTEX
  5
1BD
  8
LABELS
 10
9.070015666983078
 20
17.47946364640219
 30
0.0
  0
VERTEX
  5
1BE
  8
LABELS
 10
9.068989025137375
 20
17.45372521256429
 30
0.0
  0
VERTEX
  5
1BF
  8
LABELS
 10
9.06728892137761
 20
17.42817122696857
 30
0.0
  0
VERTEX
  5
1C0
  8
LABELS
 10
9.06492432787175
 20
17.40280992936114
 30
0.0
  0
VERTEX
  5
1C1
  8
LABELS
 10
9.061904216787767
 20
17.37764955948808
 30
0.0
  0
VERTEX
  5
1C2
  8
LABELS
 10
9.058237560293627
 20
17.3526983570955
 30
0.0
  0
VERTEX
  5
1C3
  8
LABELS
 10
9.0539333305573
 20
17.32796456192947
 30
0.0
  0
VERTEX
  5
1C4
  8
LABELS
 10
9.04900049974675
 20
17.30345641373611
 30
0.0
  0
VERTEX
  5
1C5
  8
LABELS
 10
9.043448040029954
 20
17.27918215226149
 30
0.0
  0
VERTEX
  5
1C6
  8
LABELS
 10
9.037284923574877
 20
17.25515001725172
 30
0.0
  0
VERTEX
  5
1C7
  8
LABELS
 10
9.030520122549486
 20
17.23136824845288
 30
0.0
  0
VERTEX
  5
1C8
  8
LABELS
 10
9.023162609121748
 20
17.20784508561108
 30
0.0
  0
VERTEX
  5
1C9
  8
LABELS
 10
9.01522135545964
 20
17.1845887684724
 30
0.0
  0
VERTEX
  5
1CA
  8
LABELS
 10
9.006705333731123
 20
17.16160753678294
 30
0.0
  0
VERTEX
  5
1CB
  8
LABELS
 10
8.99762351610417
 20
17.13890963028879
 30
0.0
  0
VERTEX
  5
1CC
  8
LABELS
 10
8.987984874746747
 20
17.11650328873605
 30
0.0
  0
VERTEX
  5
1CD
  8
LABELS
 10
8.977798381826826
 20
17.09439675187081
 30
0.0
  0
VERTEX
  5
1CE
  8
LABELS
 10
8.967073009512372
 20
17.07259825943916
 30
0.0
  0
VERTEX
  5
1CF
  8
LABELS
 10
8.955817729971358
 20
17.0511160511872
 30
0.0
  0
VERTEX
  5
1D0
  8
LABELS
 10
8.944041515371747
 20
17.02995836686103
 30
0.0
  0
VERTEX
  5
1D1
  8
LABELS
 10
8.931753337881513
 20
17.00913344620673
 30
0.0
  0
VERTEX
  5
1D2
  8
LABELS
 10
8.918962169668621
 20
16.98864952897039
 30
0.0
  0
VERTEX
  5
1D3
  8
LABELS
 10
8.905676982901042
 20
16.96851485489812
 30
0.0
  0
VERTEX
  5
1D4
  8
LABELS
 10
8.891906749746745
 20
16.94873766373601
 30
0.0
  0
VERTEX
  5
1D5
  8
LABELS
 10
8.8776604423737
 20
16.92932619523015
 30
0.0
  0
VERTEX
  5
1D6
  8
LABELS
 10
8.862947032949869
 20
16.91028868912662
 30
0.0
  0
VERTEX
  5
1D7
  8
LABELS
 10
8.84777549364323
 20
16.89163338517155
 30
0.0
  0
VERTEX
  5
1D8
  8
LABELS
 10
8.832154796621746
 20
16.873368523111
 30
0.0
  0
VERTEX
  5
1D9
  8
LABELS
 10
8.816093914053386
 20
16.85550234269107
 30
0.0
  0
VERTEX
  5
1DA
  8
LABELS
 10
8.79960181810612
 20
16.83804308365787
 30
0.0
  0
VERTEX
  5
1DB
  8
LABELS
 10
8.782687480947919
 20
16.82099898575748
 30
0.0
  0
VERTEX
  5
1DC
  8
LABELS
 10
8.765359874746746
 20
16.80437828873599
 30
0.0
  0
VERTEX
  5
1DD
  8
LABELS
 10
8.747627971670575
 20
16.7881892323395
 30
0.0
  0
VERTEX
  5
1DE
  8
LABELS
 10
8.729500743887371
 20
16.77244005631411
 30
0.0
  0
VERTEX
  5
1DF
  8
LABELS
 10
8.710987163565107
 20
16.75713900040591
 30
0.0
  0
VERTEX
  5
1E0
  8
LABELS
 10
8.692096202871747
 20
16.74229430436099
 30
0.0
  0
VERTEX
  5
1E1
  8
LABELS
 10
8.672836833975264
 20
16.72791420792544
 30
0.0
  0
VERTEX
  5
1E2
  8
LABELS
 10
8.653218029043623
 20
16.71400695084537
 30
0.0
  0
VERTEX
  5
1E3
  8
LABELS
 10
8.633248760244795
 20
16.70058077286685
 30
0.0
  0
VERTEX
  5
1E4
  8
LABELS
 10
8.612937999746746
 20
16.68764391373599
 30
0.0
  0
VERTEX
  5
1E5
  8
LABELS
 10
8.592294719717447
 20
16.67520461319888
 30
0.0
  0
VERTEX
  5
1E6
  8
LABELS
 10
8.57132789232487
 20
16.66327111100162
 30
0.0
  0
VERTEX
  5
1E7
  8
LABELS
 10
8.550046489736978
 20
16.65185164689029
 30
0.0
  0
VERTEX
  5
1E8
  8
LABELS
 10
8.528459484121745
 20
16.640954460611
 30
0.0
  0
VERTEX
  5
1E9
  8
LABELS
 10
8.506575847647134
 20
16.63058779190983
 30
0.0
  0
VERTEX
  5
1EA
  8
LABELS
 10
8.48440455248112
 20
16.62075988053288
 30
0.0
  0
VERTEX
  5
1EB
  8
LABELS
 10
8.461954570791669
 20
16.61147896622624
 30
0.0
  0
VERTEX
  5
1EC
  8
LABELS
 10
8.439234874746745
 20
16.60275328873602
 30
0.0
  0
VERTEX
  5
1ED
  8
LABELS
 10
8.416254436514322
 20
16.59459108780829
 30
0.0
  0
VERTEX
  5
1EE
  8
LABELS
 10
8.39302222826237
 20
16.58700060318915
 30
0.0
  0
VERTEX
  5
1EF
  8
LABELS
 10
8.369547222158854
 20
16.57999007462471
 30
0.0
  0
VERTEX
  5
1F0
  8
LABELS
 10
8.345838390371744
 20
16.57356774186104
 30
0.0
  0
VERTEX
  5
1F1
  8
LABELS
 10
8.32190470506901
 20
16.56774184464425
 30
0.0
  0
VERTEX
  5
1F2
  8
LABELS
 10
8.29775513841862
 20
16.56252062272043
 30
0.0
  0
VERTEX
  5
1F3
  8
LABELS
 10
8.27339866258854
 20
16.55791231583567
 30
0.0
  0
VERTEX
  5
1F4
  8
LABELS
 10
8.248844249746746
 20
16.55392516373607
 30
0.0
  0
VERTEX
  5
1F5
  8
LABELS
 10
8.2241008720612
 20
16.55056740616772
 30
0.0
  0
VERTEX
  5
1F6
  8
LABELS
 10
8.199177501699872
 20
16.54784728287671
 30
0.0
  0
VERTEX
  5
1F7
  8
LABELS
 10
8.174083110830733
 20
16.54577303360914
 30
0.0
  0
VERTEX
  5
1F8
  8
LABELS
 10
8.148826671621748
 20
16.5443528981111
 30
0.0
  0
VERTEX
  5
1F9
  8
LABELS
 10
8.123417156240887
 20
16.54359511612869
 30
0.0
  0
VERTEX
  5
1FA
  8
LABELS
 10
8.097863536856122
 20
16.543507927408
 30
0.0
  0
VERTEX
  5
1FB
  8
LABELS
 10
8.07217478563542
 20
16.54409957169512
 30
0.0
  0
VERTEX
  5
1FC
  8
LABELS
 10
8.046359874746749
 20
16.54537828873615
 30
0.0
  0
VERTEX
  5
1FD
  8
LABELS
 10
8.02367936327214
 20
16.54578731583575
 30
0.0
  0
VERTEX
  5
1FE
  8
LABELS
 10
8.001142345449875
 20
16.54675988053301
 30
0.0
  0
VERTEX
  5
1FF
  8
LABELS
 10
7.978755596182296
 20
16.54828920792558
 30
0.0
  0
VERTEX
  5
200
  8
LABELS
 10
7.956525890371749
 20
16.55036852311112
 30
0.0
  0
VERTEX
  5
201
  8
LABELS
 10
7.934460002920577
 20
16.55299105118729
 30
0.0
  0
VERTEX
  5
202
  8
LABELS
 10
7.912564708731123
 20
16.55615001725173
 30
0.0
  0
VERTEX
  5
203
  8
LABELS
 10
7.890846782705733
 20
16.55983864640212
 30
0.0
  0
VERTEX
  5
204
  8
LABELS
 10
7.869312999746748
 20
16.5640501637361
 30
0.0
  0
VERTEX
  5
205
  8
LABELS
 10
7.847970134756514
 20
16.56877779435134
 30
0.0
  0
VERTEX
  5
206
  8
LABELS
 10
7.826824962637374
 20
16.57401476334547
 30
0.0
  0
VERTEX
  5
207
  8
LABELS
 10
7.80588425829167
 20
16.57975429581617
 30
0.0
  0
VERTEX
  5
208
  8
LABELS
 10
7.785154796621748
 20
16.58598961686109
 30
0.0
  0
VERTEX
  5
209
  8
LABELS
 10
7.764643352529951
 20
16.59271395157788
 30
0.0
  0
VERTEX
  5
20A
  8
LABELS
 10
7.744356700918622
 20
16.59992052506421
 30
0.0
  0
VERTEX
  5
20B
  8
LABELS
 10
7.724301616690107
 20
16.60760256241772
 30
0.0
  0
VERTEX
  5
20C
  8
LABELS
 10
7.704484874746747
 20
16.61575328873607
 30
0.0
  0
VERTEX
  5
20D
  8
LABELS
 10
7.684913249990887
 20
16.62436592911693
 30
0.0
  0
VERTEX
  5
20E
  8
LABELS
 10
7.665593517324872
 20
16.63343370865794
 30
0.0
  0
VERTEX
  5
20F
  8
LABELS
 10
7.646532451651043
 20
16.64294985245677
 30
0.0
  0
VERTEX
  5
210
  8
LABELS
 10
7.627736827871746
 20
16.65290758561106
 30
0.0
  0
VERTEX
  5
211
  8
LABELS
 10
7.609213420889324
 20
16.66330013321848
 30
0.0
  0
VERTEX
  5
212
  8
LABELS
 10
7.59096900560612
 20
16.67412072037668
 30
0.0
  0
VERTEX
  5
213
  8
LABELS
 10
7.573010356924479
 20
16.68536257218332
 30
0.0
  0
VERTEX
  5
214
  8
LABELS
 10
7.555344249746746
 20
16.69701891373606
 30
0.0
  0
VERTEX
  5
215
  8
LABELS
 10
7.537977458975261
 20
16.70908297013254
 30
0.0
  0
VERTEX
  5
216
  8
LABELS
 10
7.520916759512369
 20
16.72154796647043
 30
0.0
  0
VERTEX
  5
217
  8
LABELS
 10
7.504168926260416
 20
16.73440712784738
 30
0.0
  0
VERTEX
  5
218
  8
LABELS
 10
7.487740734121743
 20
16.74765367936105
 30
0.0
  0
VERTEX
  5
219
  8
LABELS
 10
7.471638957998698
 20
16.76128084610909
 30
0.0
  0
VERTEX
  5
21A
  8
LABELS
 10
7.455870372793619
 20
16.77528185318917
 30
0.0
  0
VERTEX
  5
21B
  8
LABELS
 10
7.440441753408852
 20
16.78964992569894
 30
0.0
  0
VERTEX
  5
21C
  8
LABELS
 10
7.425359874746743
 20
16.80437828873605
 30
0.0
  0
VERTEX
  5
21D
  8
LABELS
 10
7.410631511709633
 20
16.81946016739816
 30
0.0
  0
VERTEX
  5
21E
  8
LABELS
 10
7.396263439199867
 20
16.83488878678292
 30
0.0
  0
VERTEX
  5
21F
  8
LABELS
 10
7.38226243211979
 20
16.850657371988
 30
0.0
  0
VERTEX
  5
220
  8
LABELS
 10
7.368635265371743
 20
16.86675914811104
 30
0.0
  0
VERTEX
  5
221
  8
LABELS
 10
7.355388713858071
 20
16.88318734024971
 30
0.0
  0
VERTEX
  5
222
  8
LABELS
 10
7.342529552481118
 20
16.89993517350167
 30
0.0
  0
VERTEX
  5
223
  8
LABELS
 10
7.330064556143228
 20
16.91699587296456
 30
0.0
  0
VERTEX
  5
224
  8
LABELS
 10
7.318000499746742
 20
16.93436266373604
 30
0.0
  0
VERTEX
  5
225
  8
LABELS
 10
7.306344158194007
 20
16.95202877091378
 30
0.0
  0
VERTEX
  5
226
  8
LABELS
 10
7.295102306387367
 20
16.96998741959542
 30
0.0
  0
VERTEX
  5
227
  8
LABELS
 10
7.284281719229163
 20
16.98823183487862
 30
0.0
  0
VERTEX
  5
228
  8
LABELS
 10
7.273889171621742
 20
17.00675524186104
 30
0.0
  0
VERTEX
  5
229
  8
LABELS
 10
7.263931438467447
 20
17.02555086564033
 30
0.0
  0
VERTEX
  5
22A
  8
LABELS
 10
7.254415294668618
 20
17.04461193131417
 30
0.0
  0
VERTEX
  5
22B
  8
LABELS
 10
7.245347515127602
 20
17.06393166398018
 30
0.0
  0
VERTEX
  5
22C
  8
LABELS
 10
7.236734874746743
 20
17.08350328873604
 30
0.0
  0
VERTEX
  5
22D
  8
LABELS
 10
7.228584148428384
 20
17.1033200306794
 30
0.0
  0
VERTEX
  5
22E
  8
LABELS
 10
7.220902111074869
 20
17.12337511490791
 30
0.0
  0
VERTEX
  5
22F
  8
LABELS
 10
7.21369553758854
 20
17.14366176651924
 30
0.0
  0
VERTEX
  5
230
  8
LABELS
 10
7.206971202871744
 20
17.16417321061104
 30
0.0
  0
VERTEX
  5
231
  8
LABELS
 10
7.200735881826822
 20
17.18490267228096
 30
0.0
  0
VERTEX
  5
232
  8
LABELS
 10
7.194996349356119
 20
17.20584337662666
 30
0.0
  0
VERTEX
  5
233
  8
LABELS
 10
7.189759380361979
 20
17.2269885487458
 30
0.0
  0
VERTEX
  5
234
  8
LABELS
 10
7.185031749746746
 20
17.24833141373604
 30
0.0
  0
VERTEX
  5
235
  8
LABELS
 10
7.180820232412763
 20
17.26986519669502
 30
0.0
  0
VERTEX
  5
236
  8
LABELS
 10
7.177131603262373
 20
17.29158312272041
 30
0.0
  0
VERTEX
  5
237
  8
LABELS
 10
7.17397263719792
 20
17.31347841690986
 30
0.0
  0
VERTEX
  5
238
  8
LABELS
 10
7.171350109121749
 20
17.33554430436103
 30
0.0
  0
VERTEX
  5
239
  8
LABELS
 10
7.169270793936204
 20
17.35777401017157
 30
0.0
  0
VERTEX
  5
23A
  8
LABELS
 10
7.167741466543626
 20
17.38016075943916
 30
0.0
  0
VERTEX
  5
23B
  8
LABELS
 10
7.166768901846361
 20
17.40269777726142
 30
0.0
  0
VERTEX
  5
23C
  8
LABELS
 10
7.166359874746753
 20
17.42537828873603
 30
0.0
  0
VERTEX
  5
23D
  8
LABELS
 10
7.166359874746753
 20
19.04137828873601
 30
0.0
  0
VERTEX
  5
23E
  8
LABELS
 10
7.166359874746753
 20
17.45737828873595
 30
0.0
  0
VERTEX
  5
23F
  8
LABELS
 10
7.165984539053394
 20
17.42897158097228
 30
0.0
  0
VERTEX
  5
240
  8
LABELS
 10
7.164865001699878
 20
17.40075743912658
 30
0.0
  0
VERTEX
  5
241
  8
LABELS
 10
7.163010967276049
 20
17.37274483536682
 30
0.0
  0
VERTEX
  5
242
  8
LABELS
 10
7.160432140371753
 20
17.34494274186096
 30
0.0
  0
VERTEX
  5
243
  8
LABELS
 10
7.157138225576832
 20
17.31736013077698
 30
0.0
  0
VERTEX
  5
244
  8
LABELS
 10
7.153138927481129
 20
17.29000597428285
 30
0.0
  0
VERTEX
  5
245
  8
LABELS
 10
7.148443950674487
 20
17.26288924454652
 30
0.0
  0
VERTEX
  5
246
  8
LABELS
 10
7.143062999746753
 20
17.23601891373598
 30
0.0
  0
VERTEX
  5
247
  8
LABELS
 10
7.137005779287768
 20
17.20940395401918
 30
0.0
  0
VERTEX
  5
248
  8
LABELS
 10
7.130281993887378
 20
17.18305333756411
 30
0.0
  0
VERTEX
  5
249
  8
LABELS
 10
7.122901348135424
 20
17.15697603653872
 30
0.0
  0
VERTEX
  5
24A
  8
LABELS
 10
7.114873546621753
 20
17.13118102311099
 30
0.0
  0
VERTEX
  5
24B
  8
LABELS
 10
7.106208293936206
 20
17.10567726944888
 30
0.0
  0
VERTEX
  5
24C
  8
LABELS
 10
7.096915294668628
 20
17.08047374772037
 30
0.0
  0
VERTEX
  5
24D
  8
LABELS
 10
7.087004253408862
 20
17.05557943009342
 30
0.0
  0
VERTEX
  5
24E
  8
LABELS
 10
7.076484874746752
 20
17.031003288736
 30
0.0
  0
VERTEX
  5
24F
  8
LABELS
 10
7.065366863272143
 20
17.00675429581608
 30
0.0
  0
VERTEX
  5
250
  8
LABELS
 10
7.053659923574877
 20
16.98284142350163
 30
0.0
  0
VERTEX
  5
251
  8
LABELS
 10
7.041373760244799
 20
16.95927364396061
 30
0.0
  0
VERTEX
  5
252
  8
LABELS
 10
7.028518077871752
 20
16.93605992936101
 30
0.0
  0
VERTEX
  5
253
  8
LABELS
 10
7.01510258104558
 20
16.91320925187078
 30
0.0
  0
VERTEX
  5
254
  8
LABELS
 10
7.001136974356127
 20
16.89073058365789
 30
0.0
  0
VERTEX
  5
255
  8
LABELS
 10
6.986630962393236
 20
16.86863289689032
 30
0.0
  0
VERTEX
  5
256
  8
LABELS
 10
6.971594249746751
 20
16.84692516373602
 30
0.0
  0
VERTEX
  5
257
  8
LABELS
 10
6.956036541006517
 20
16.82561635636297
 30
0.0
  0
VERTEX
  5
258
  8
LABELS
 10
6.939967540762376
 20
16.80471544693915
 30
0.0
  0
VERTEX
  5
259
  8
LABELS
 10
6.923396953604173
 20
16.78423140763251
 30
0.0
  0
VERTEX
  5
25A
  8
LABELS
 10
6.906334484121751
 20
16.76417321061103
 30
0.0
  0
VERTEX
  5
25B
  8
LABELS
 10
6.888789836904954
 20
16.74454982804267
 30
0.0
  0
VERTEX
  5
25C
  8
LABELS
 10
6.870772716543627
 20
16.72537023209541
 30
0.0
  0
VERTEX
  5
25D
  8
LABELS
 10
6.852292827627611
 20
16.7066433949372
 30
0.0
  0
VERTEX
  5
25E
  8
LABELS
 10
6.833359874746751
 20
16.68837828873603
 30
0.0
  0
VERTEX
  5
25F
  8
LABELS
 10
6.813983562490892
 20
16.67058388565986
 30
0.0
  0
VERTEX
  5
260
  8
LABELS
 10
6.794173595449876
 20
16.65326915787666
 30
0.0
  0
VERTEX
  5
261
  8
LABELS
 10
6.773939678213548
 20
16.63644307755439
 30
0.0
  0
VERTEX
  5
262
  8
LABELS
 10
6.753291515371751
 20
16.62011461686103
 30
0.0
  0
VERTEX
  5
263
  8
LABELS
 10
6.732238811514328
 20
16.60429274796455
 30
0.0
  0
VERTEX
  5
264
  8
LABELS
 10
6.710791271231125
 20
16.58898644303291
 30
0.0
  0
VERTEX
  5
265
  8
LABELS
 10
6.688958599111984
 20
16.57420467423408
 30
0.0
  0
VERTEX
  5
266
  8
LABELS
 10
6.66675049974675
 20
16.55995641373604
 30
0.0
  0
VERTEX
  5
267
  8
LABELS
 10
6.644176677725266
 20
16.54625063370674
 30
0.0
  0
VERTEX
  5
268
  8
LABELS
 10
6.621246837637376
 20
16.53309630631416
 30
0.0
  0
VERTEX
  5
269
  8
LABELS
 10
6.597970684072923
 20
16.52050240372627
 30
0.0
  0
VERTEX
  5
26A
  8
LABELS
 10
6.57435792162175
 20
16.50847789811103
 30
0.0
  0
VERTEX
  5
26B
  8
LABELS
 10
6.550418254873703
 20
16.49703176163642
 30
0.0
  0
VERTEX
  5
26C
  8
LABELS
 10
6.526161388418625
 20
16.4861729664704
 30
0.0
  0
VERTEX
  5
26D
  8
LABELS
 10
6.50159702684636
 20
16.47591048478094
 30
0.0
  0
VERTEX
  5
26E
  8
LABELS
 10
6.47673487474675
 20
16.46625328873602
 30
0.0
  0
VERTEX
  5
26F
  8
LABELS
 10
6.45158463670964
 20
16.45721035050359
 30
0.0
  0
VERTEX
  5
270
  8
LABELS
 10
6.426156017324875
 20
16.44879064225163
 30
0.0
  0
VERTEX
  5
271
  8
LABELS
 10
6.400458721182297
 20
16.44100313614811
 30
0.0
  0
VERTEX
  5
272
  8
LABELS
 10
6.37450245287175
 20
16.433856804361
 30
0.0
  0
VERTEX
  5
273
  8
LABELS
 10
6.348296916983077
 20
16.42736061905826
 30
0.0
  0
VERTEX
  5
274
  8
LABELS
 10
6.321851818106124
 20
16.42152355240786
 30
0.0
  0
VERTEX
  5
275
  8
LABELS
 10
6.295176860830733
 20
16.41635457657778
 30
0.0
  0
VERTEX
  5
276
  8
LABELS
 10
6.268281749746749
 20
16.41186266373598
 30
0.0
  0
VERTEX
  5
277
  8
LABELS
 10
6.241176189444015
 20
16.40805678605042
 30
0.0
  0
VERTEX
  5
278
  8
LABELS
 10
6.213869884512373
 20
16.40494591568909
 30
0.0
  0
VERTEX
  5
279
  8
LABELS
 10
6.18637253954167
 20
16.40253902481994
 30
0.0
  0
VERTEX
  5
27A
  8
LABELS
 10
6.158693859121749
 20
16.40084508561095
 30
0.0
  0
VERTEX
  5
27B
  8
LABELS
 10
6.130843547842453
 20
16.39987307023009
 30
0.0
  0
VERTEX
  5
27C
  8
LABELS
 10
6.102831310293624
 20
16.39963195084531
 30
0.0
  0
VERTEX
  5
27D
  8
LABELS
 10
6.074666851065108
 20
16.4001306996246
 30
0.0
  0
VERTEX
  5
27E
  8
LABELS
 10
6.046359874746749
 20
16.40137828873591
 30
0.0
  0
VERTEX
  5
27F
  8
LABELS
 10
6.02118537523503
 20
16.40169731949763
 30
0.0
  0
VERTEX
  5
280
  8
LABELS
 10
5.996167003652999
 20
16.40264928482966
 30
0.0
  0
VERTEX
  5
281
  8
LABELS
 10
5.971312450430341
 20
16.40422649430232
 30
0.0
  0
VERTEX
  5
282
  8
LABELS
 10
5.946629405996747
 20
16.40642125748591
 30
0.0
  0
VERTEX
  5
283
  8
LABELS
 10
5.922125560781904
 20
16.40922588395076
 30
0.0
  0
VERTEX
  5
284
  8
LABELS
 10
5.897808605215497
 20
16.41263268326716
 30
0.0
  0
VERTEX
  5
285
  8
LABELS
 10
5.873686229727216
 20
16.41663396500545
 30
0.0
  0
VERTEX
  5
286
  8
LABELS
 10
5.849766124746747
 20
16.42122203873591
 30
0.0
  0
VERTEX
  5
287
  8
LABELS
 10
5.826055980703778
 20
16.42638921402888
 30
0.0
  0
VERTEX
  5
288
  8
LABELS
 10
5.802563488027998
 20
16.43212780045467
 30
0.0
  0
VERTEX
  5
289
  8
LABELS
 10
5.779296337149091
 20
16.43843010758357
 30
0.0
  0
VERTEX
  5
28A
  8
LABELS
 10
5.756262218496747
 20
16.44528844498591
 30
0.0
  0
VERTEX
  5
28B
  8
LABELS
 10
5.733468822500654
 20
16.452695122232
 30
0.0
  0
VERTEX
  5
28C
  8
LABELS
 10
5.710923839590497
 20
16.46064244889216
 30
0.0
  0
VERTEX
  5
28D
  8
LABELS
 10
5.688634960195966
 20
16.46912273453669
 30
0.0
  0
VERTEX
  5
28E
  8
LABELS
 10
5.666609874746747
 20
16.47812828873591
 30
0.0
  0
VERTEX
  5
28F
  8
LABELS
 10
5.644856273672529
 20
16.48765142106013
 30
0.0
  0
VERTEX
  5
290
  8
LABELS
 10
5.623381847402998
 20
16.49768444107966
 30
0.0
  0
VERTEX
  5
291
  8
LABELS
 10
5.602194286367841
 20
16.50821965836482
 30
0.0
  0
VERTEX
  5
292
  8
LABELS
 10
5.581301280996747
 20
16.51924938248591
 30
0.0
  0
VERTEX
  5
293
  8
LABELS
 10
5.560710521719403
 20
16.53076592301326
 30
0.0
  0
VERTEX
  5
294
  8
LABELS
 10
5.540429698965497
 20
16.54276158951716
 30
0.0
  0
VERTEX
  5
295
  8
LABELS
 10
5.520466503164716
 20
16.55522869156794
 30
0.0
  0
VERTEX
  5
296
  8
LABELS
 10
5.500828624746747
 20
16.56815953873591
 30
0.0
  0
VERTEX
  5
297
  8
LABELS
 10
5.481523754141278
 20
16.58154644059138
 30
0.0
  0
VERTEX
  5
298
  8
LABELS
 10
5.462559581777996
 20
16.59538170670466
 30
0.0
  0
VERTEX
  5
299
  8
LABELS
 10
5.44394379808659
 20
16.60965764664607
 30
0.0
  0
VERTEX
  5
29A
  8
LABELS
 10
5.425684093496747
 20
16.62436656998591
 30
0.0
  0
VERTEX
  5
29B
  8
LABELS
 10
5.407788158438152
 20
16.63950078629451
 30
0.0
  0
VERTEX
  5
29C
  8
LABELS
 10
5.390263683340496
 20
16.65505260514216
 30
0.0
  0
VERTEX
  5
29D
  8
LABELS
 10
5.373118358633466
 20
16.67101433609919
 30
0.0
  0
VERTEX
  5
29E
  8
LABELS
 10
5.356359874746747
 20
16.68737828873591
 30
0.0
  0
VERTEX
  5
29F
  8
LABELS
 10
5.339995922110029
 20
16.70413677262264
 30
0.0
  0
VERTEX
  5
2A0
  8
LABELS
 10
5.324034191152998
 20
16.72128209732967
 30
0.0
  0
VERTEX
  5
2A1
  8
LABELS
 10
5.308482372305342
 20
16.73880657242733
 30
0.0
  0
VERTEX
  5
2A2
  8
LABELS
 10
5.293348155996748
 20
16.75670250748592
 30
0.0
  0
VERTEX
  5
2A3
  8
LABELS
 10
5.278639232656904
 20
16.77496221207576
 30
0.0
  0
VERTEX
  5
2A4
  8
LABELS
 10
5.264363292715498
 20
16.79357799576717
 30
0.0
  0
VERTEX
  5
2A5
  8
LABELS
 10
5.250528026602217
 20
16.81254216813046
 30
0.0
  0
VERTEX
  5
2A6
  8
LABELS
 10
5.237141124746747
 20
16.83184703873592
 30
0.0
  0
VERTEX
  5
2A7
  8
LABELS
 10
5.224210277578779
 20
16.85148491715389
 30
0.0
  0
VERTEX
  5
2A8
  8
LABELS
 10
5.211743175527998
 20
16.87144811295467
 30
0.0
  0
VERTEX
  5
2A9
  8
LABELS
 10
5.199747509024092
 20
16.89172893570858
 30
0.0
  0
VERTEX
  5
2AA
  8
LABELS
 10
5.188230968496748
 20
16.91231969498593
 30
0.0
  0
VERTEX
  5
2AB
  8
LABELS
 10
5.177201244375654
 20
16.93321270035703
 30
0.0
  0
VERTEX
  5
2AC
  8
LABELS
 10
5.166666027090498
 20
16.95440026139219
 30
0.0
  0
VERTEX
  5
2AD
  8
LABELS
 10
5.156633007070967
 20
16.97587468766172
 30
0.0
  0
VERTEX
  5
2AE
  8
LABELS
 10
5.147109874746748
 20
16.99762828873595
 30
0.0
  0
VERTEX
  5
2AF
  8
LABELS
 10
5.13810432054753
 20
17.01965337418517
 30
0.0
  0
VERTEX
  5
2B0
  8
LABELS
 10
5.129624034902999
 20
17.04194225357971
 30
0.0
  0
VERTEX
  5
2B1
  8
LABELS
 10
5.121676708242843
 20
17.06448723648986
 30
0.0
  0
VERTEX
  5
2B2
  8
LABELS
 10
5.114270030996749
 20
17.08728063248596
 30
0.0
  0
VERTEX
  5
2B3
  8
LABELS
 10
5.107411693594406
 20
17.11031475113831
 30
0.0
  0
VERTEX
  5
2B4
  8
LABELS
 10
5.1011093864655
 20
17.13358190201722
 30
0.0
  0
VERTEX
  5
2B5
  8
LABELS
 10
5.095370800039718
 20
17.15707439469301
 30
0.0
  0
VERTEX
  5
2B6
  8
LABELS
 10
5.090203624746749
 20
17.18078453873598
 30
0.0
  0
VERTEX
  5
2B7
  8
LABELS
 10
5.08561555101628
 20
17.20470464371645
 30
0.0
  0
VERTEX
  5
2B8
  8
LABELS
 10
5.081614269277999
 20
17.22882701920474
 30
0.0
  0
VERTEX
  5
2B9
  8
LABELS
 10
5.078207469961592
 20
17.25314397477115
 30
0.0
  0
VERTEX
  5
2BA
  8
LABELS
 10
5.075402843496749
 20
17.277647819986
 30
0.0
  0
VERTEX
  5
2BB
  8
LABELS
 10
5.073208080313155
 20
17.3023308644196
 30
0.0
  0
VERTEX
  5
2BC
  8
LABELS
 10
5.071630870840499
 20
17.32718541764226
 30
0.0
  0
VERTEX
  5
2BD
  8
LABELS
 10
5.070678905508468
 20
17.3522037892243
 30
0.0
  0
VERTEX
  5
2BE
  8
LABELS
 10
5.07035987474675
 20
17.37737828873603
 30
0.0
  0
VERTEX
  5
2BF
  8
LABELS
 10
5.07035987474675
 20
19.04137828873601
 30
0.0
  0
SEQEND
  5
458
  8
LABELS
  0
POLYLINE
  5
76
  8
SCREW_LOCATION_RECESS
 66
     1
 10
0.0
 20
0.0
 30
0.0
 70
     1
  0
VERTEX
  5
2C0
  8
SCREW_LOCATION_RECESS
 10
67.53977770820288
 20
42.66276064668828
 30
0.0
 42
0.4142135623730951
  0
VERTEX
  5
2C1
  8
SCREW_LOCATION_RECESS
 10
67.4097777082029
 20
42.53276064668827
 30
0.0
 42
0.4142135623730951
  0
VERTEX
  5
2C2
  8
SCREW_LOCATION_RECESS
 10
67.53977770820288
 20
42.40276064668826
 30
0.0
 42
0.4142135623730951
  0
VERTEX
  5
2C3
  8
SCREW_LOCATION_RECESS
 10
67.66977770820287
 20
42.53276064668827
 30
0.0
 42
0.4142135623730951
  0
SEQEND
  5
459
  8
SCREW_LOCATION_RECESS
  0
POLYLINE
  5
77
  8
SCREW_LOCATION_RECESS
 66
     1
 10
0.0
 20
0.0
 30
0.0
 70
     1
  0
VERTEX
  5
2C4
  8
SCREW_LOCATION_RECESS
 10
2.289777708201441
 20
38.25651064720481
 30
0.0
 42
0.4142135623730951
  0
VERTEX
  5
2C5
  8
SCREW_LOCATION_RECESS
 10
2.159777708201453
 20
38.12651064720479
 30
0.0
 42
0.4142135623730951
  0
VERTEX
  5
2C6
  8
SCREW_LOCATION_RECESS
 10
2.289777708201441
 20
37.99651064720477
 30
0.0
 42
0.4142135623730951
  0
VERTEX
  5
2C7
  8
SCREW_LOCATION_RECESS
 10
2.419777708201423
 20
38.12651064720479
 30
0.0
 42
0.4142135623730951
  0
SEQEND
  5
45A
  8
SCREW_LOCATION_RECESS
  0
POLYLINE
  5
78
  8
SCREW_LOCATION_RECESS
 66
     1
 10
0.0
 20
0.0
 30
0.0
 70
     1
  0
VERTEX
  5
2C8
  8
SCREW_LOCATION_RECESS
 10
2.289777708201377
 20
19.62151064617174
 30
0.0
 42
-0.4142135623730951
  0
VERTEX
  5
2C9
  8
SCREW_LOCATION_RECESS
 10
2.159777708201389
 20
19.75151064617176
 30
0.0
 42
-0.4142135623730951
  0
VERTEX
  5
2CA
  8
SCREW_LOCATION_RECESS
 10
2.289777708201377
 20
19.88151064617178
 30
0.0
 42
-0.4142135623730951
  0
VERTEX
  5
2CB
  8
SCREW_LOCATION_RECESS
 10
2.419777708201352
 20
19.75151064617176
 30
0.0
 42
-0.4142135623730951
  0
SEQEND
  5
45B
  8
SCREW_LOCATION_RECESS
  0
POLYLINE
  5
79
  8
SCREW_LOCATION_RECESS
 66
     1
 10
0.0
 20
0.0
 30
0.0
 70
     1
  0
VERTEX
  5
2CC
  8
SCREW_LOCATION_RECESS
 10
6.289777709477235
 20
45.30901063510888
 30
0.0
 42
0.4142135623730951
  0
VERTEX
  5
2CD
  8
SCREW_LOCATION_RECESS
 10
6.419777709487391
 20
45.4390106350988
 30
0.0
 42
0.4142135623730951
  0
VERTEX
  5
2CE
  8
SCREW_LOCATION_RECESS
 10
6.289777709497493
 20
45.56901063510882
 30
0.0
 42
0.4142135623730951
  0
VERTEX
  5
2CF
  8
SCREW_LOCATION_RECESS
 10
6.159777709487344
 20
45.43901063511906
 30
0.0
 42
0.4142135623730951
  0
SEQEND
  5
45C
  8
SCREW_LOCATION_RECESS
  0
POLYLINE
  5
7A
  8
SCREW_LOCATION_RECESS
 66
     1
 10
0.0
 20
0.0
 30
0.0
 70
     1
  0
VERTEX
  5
2D0
  8
SCREW_LOCATION_RECESS
 10
39.28977770947724
 20
45.30901063253808
 30
0.0
 42
0.4142135623730951
  0
VERTEX
  5
2D1
  8
SCREW_LOCATION_RECESS
 10
39.41977770948738
 20
45.43901063252801
 30
0.0
 42
0.4142135623730951
  0
VERTEX
  5
2D2
  8
SCREW_LOCATION_RECESS
 10
39.28977770949749
 20
45.56901063253805
 30
0.0
 42
0.4142135623730951
  0
VERTEX
  5
2D3
  8
SCREW_LOCATION_RECESS
 10
39.15977770948734
 20
45.43901063254827
 30
0.0
 42
0.4142135623730951
  0
SEQEND
  5
45D
  8
SCREW_LOCATION_RECESS
  0
POLYLINE
  5
7B
  8
SCREW_LOCATION_RECESS
 66
     1
 10
0.0
 20
0.0
 30
0.0
 70
     1
  0
VERTEX
  5
2D4
  8
SCREW_LOCATION_RECESS
 10
17.28977770949749
 20
45.5690106342519
 30
0.0
 42
-0.4142135623730951
  0
VERTEX
  5
2D5
  8
SCREW_LOCATION_RECESS
 10
17.41977770948736
 20
45.43901063424187
 30
0.0
 42
-0.4142135623730951
  0
VERTEX
  5
2D6
  8
SCREW_LOCATION_RECESS
 10
17.28977770947723
 20
45.30901063425196
 30
0.0
 42
-0.4142135623730951
  0
VERTEX
  5
2D7
  8
SCREW_LOCATION_RECESS
 10
17.15977770948731
 20
45.43901063426213
 30
0.0
 42
-0.4142135623730951
  0
SEQEND
  5
45E
  8
SCREW_LOCATION_RECESS
  0
POLYLINE
  5
7C
  8
SCREW_LOCATION_RECESS
 66
     1
 10
0.0
 20
0.0
 30
0.0
 70
     1
  0
VERTEX
  5
2D8
  8
SCREW_LOCATION_RECESS
 10
28.28977770949749
 20
45.56901063339497
 30
0.0
 42
-0.4142135623730951
  0
VERTEX
  5
2D9
  8
SCREW_LOCATION_RECESS
 10
28.41977770948736
 20
45.43901063338494
 30
0.0
 42
-0.4142135623730951
  0
VERTEX
  5
2DA
  8
SCREW_LOCATION_RECESS
 10
28.28977770947723
 20
45.30901063339503
 30
0.0
 42
-0.4142135623730951
  0
VERTEX
  5
2DB
  8
SCREW_LOCATION_RECESS
 10
28.15977770948731
 20
45.4390106334052
 30
0.0
 42
-0.4142135623730951
  0
SEQEND
  5
45F
  8
SCREW_LOCATION_RECESS
  0
POLYLINE
  5
7D
  8
SCREW_LOCATION_RECESS
 66
     1
 10
0.0
 20
0.0
 30
0.0
 70
     1
  0
VERTEX
  5
2DC
  8
SCREW_LOCATION_RECESS
 10
50.28977770947724
 20
45.30901063168115
 30
0.0
 42
0.4142135623730951
  0
VERTEX
  5
2DD
  8
SCREW_LOCATION_RECESS
 10
50.41977770948738
 20
45.43901063167108
 30
0.0
 42
0.4142135623730951
  0
VERTEX
  5
2DE
  8
SCREW_LOCATION_RECESS
 10
50.28977770949749
 20
45.56901063168111
 30
0.0
 42
0.4142135623730951
  0
VERTEX
  5
2DF
  8
SCREW_LOCATION_RECESS
 10
50.15977770948734
 20
45.43901063169133
 30
0.0
 42
0.4142135623730951
  0
SEQEND
  5
460
  8
SCREW_LOCATION_RECESS
  0
POLYLINE
  5
7E
  8
SCREW_LOCATION_RECESS
 66
     1
 10
0.0
 20
0.0
 30
0.0
 70
     1
  0
VERTEX
  5
2E0
  8
SCREW_LOCATION_RECESS
 10
61.28977770948823
 20
45.56901063081807
 30
0.0
 42
-0.4142135623730976
  0
VERTEX
  5
2E1
  8
SCREW_LOCATION_RECESS
 10
61.41977770947811
 20
45.43901063080805
 30
0.0
 42
-0.4142135623730951
  0
VERTEX
  5
2E2
  8
SCREW_LOCATION_RECESS
 10
61.28977770946797
 20
45.30901063081814
 30
0.0
 42
-0.4142135623730951
  0
VERTEX
  5
2E3
  8
SCREW_LOCATION_RECESS
 10
61.15977770947805
 20
45.4390106308283
 30
0.0
 42
-0.4142135623730976
  0
SEQEND
  5
461
  8
SCREW_LOCATION_RECESS
  0
POLYLINE
  5
7F
  8
SCREW_LOCATION_RECESS
 66
     1
 10
0.0
 20
0.0
 30
0.0
 70
     1
  0
VERTEX
  5
2E4
  8
SCREW_LOCATION_RECESS
 10
2.289777708181653
 20
45.30901063531444
 30
0.0
 42
0.4142135623730951
  0
VERTEX
  5
2E5
  8
SCREW_LOCATION_RECESS
 10
2.419777708191809
 20
45.43901063530436
 30
0.0
 42
0.4142135623730951
  0
VERTEX
  5
2E6
  8
SCREW_LOCATION_RECESS
 10
2.28977770820191
 20
45.56901063531438
 30
0.0
 42
0.4142135623730951
  0
VERTEX
  5
2E7
  8
SCREW_LOCATION_RECESS
 10
2.159777708191761
 20
45.43901063532462
 30
0.0
 42
0.4142135623730951
  0
SEQEND
  5
462
  8
SCREW_LOCATION_RECESS
  0
POLYLINE
  5
80
  8
SCREW_LOCATION_RECESS
 66
     1
 10
0.0
 20
0.0
 30
0.0
 70
     1
  0
VERTEX
  5
2E8
  8
SCREW_LOCATION_RECESS
 10
67.03977770948919
 20
45.56901063081807
 30
0.0
 42
-0.4142135623730976
  0
VERTEX
  5
2E9
  8
SCREW_LOCATION_RECESS
 10
67.16977770947908
 20
45.43901063080805
 30
0.0
 42
-0.4142135623730951
  0
VERTEX
  5
2EA
  8
SCREW_LOCATION_RECESS
 10
67.03977770946894
 20
45.30901063081814
 30
0.0
 42
-0.4142135623730951
  0
VERTEX
  5
2EB
  8
SCREW_LOCATION_RECESS
 10
66.90977770947902
 20
45.4390106308283
 30
0.0
 42
-0.4142135623730976
  0
SEQEND
  5
463
  8
SCREW_LOCATION_RECESS
  0
POLYLINE
  5
81
  8
SCREW_LOCATION_RECESS
 66
     1
 10
0.0
 20
0.0
 30
0.0
 70
     1
  0
VERTEX
  5
2EC
  8
SCREW_LOCATION_RECESS
 10
45.53977770819168
 20
38.44401064667343
 30
0.0
 42
0.4142135623730951
  0
VERTEX
  5
2ED
  8
SCREW_LOCATION_RECESS
 10
45.40977770819165
 20
38.31401064667345
 30
0.0
 42
0.4142135623730951
  0
VERTEX
  5
2EE
  8
SCREW_LOCATION_RECESS
 10
45.53977770819168
 20
38.18401064667347
 30
0.0
 42
0.4142135623730951
  0
VERTEX
  5
2EF
  8
SCREW_LOCATION_RECESS
 10
45.6697777081917
 20
38.31401064667345
 30
0.0
 42
0.4142135623730951
  0
SEQEND
  5
464
  8
SCREW_LOCATION_RECESS
  0
POLYLINE
  5
82
  8
SCREW_LOCATION_RECESS
 66
     1
 10
0.0
 20
0.0
 30
0.0
 70
     1
  0
VERTEX
  5
2F0
  8
SCREW_LOCATION_RECESS
 10
45.53977770893215
 20
19.43401064838731
 30
0.0
 42
-0.4142135623730951
  0
VERTEX
  5
2F1
  8
SCREW_LOCATION_RECESS
 10
45.409777708922
 20
19.56401064837716
 30
0.0
 42
-0.4142135623730951
  0
VERTEX
  5
2F2
  8
SCREW_LOCATION_RECESS
 10
45.5397777089119
 20
19.69401064838727
 30
0.0
 42
-0.4142135623730951
  0
VERTEX
  5
2F3
  8
SCREW_LOCATION_RECESS
 10
45.66977770892204
 20
19.56401064839741
 30
0.0
 42
-0.4142135623730951
  0
SEQEND
  5
465
  8
SCREW_LOCATION_RECESS
  0
POLYLINE
  5
83
  8
SCREW_LOCATION_RECESS
 66
     1
 10
0.0
 20
0.0
 30
0.0
 70
     1
  0
VERTEX
  5
2F4
  8
SCREW_LOCATION_RECESS
 10
23.53977770819331
 20
38.44401064667343
 30
0.0
 42
0.4142135623730951
  0
VERTEX
  5
2F5
  8
SCREW_LOCATION_RECESS
 10
23.4097777081933
 20
38.31401064667345
 30
0.0
 42
0.4142135623730951
  0
VERTEX
  5
2F6
  8
SCREW_LOCATION_RECESS
 10
23.53977770819331
 20
38.18401064667347
 30
0.0
 42
0.4142135623730951
  0
VERTEX
  5
2F7
  8
SCREW_LOCATION_RECESS
 10
23.66977770819334
 20
38.31401064667345
 30
0.0
 42
0.4142135623730951
  0
SEQEND
  5
466
  8
SCREW_LOCATION_RECESS
  0
POLYLINE
  5
84
  8
SCREW_LOCATION_RECESS
 66
     1
 10
0.0
 20
0.0
 30
0.0
 70
     1
  0
VERTEX
  5
2F8
  8
SCREW_LOCATION_RECESS
 10
23.53977770893378
 20
19.43401064838731
 30
0.0
 42
-0.4142135623730951
  0
VERTEX
  5
2F9
  8
SCREW_LOCATION_RECESS
 10
23.40977770892364
 20
19.56401064837716
 30
0.0
 42
-0.4142135623730951
  0
VERTEX
  5
2FA
  8
SCREW_LOCATION_RECESS
 10
23.53977770891353
 20
19.69401064838727
 30
0.0
 42
-0.4142135623730951
  0
VERTEX
  5
2FB
  8
SCREW_LOCATION_RECESS
 10
23.66977770892368
 20
19.56401064839741
 30
0.0
 42
-0.4142135623730951
  0
SEQEND
  5
467
  8
SCREW_LOCATION_RECESS
  0
POLYLINE
  5
85
  8
SCREW_LOCATION_RECESS
 66
     1
 10
0.0
 20
0.0
 30
0.0
 70
     1
  0
VERTEX
  5
2FC
  8
SCREW_LOCATION_RECESS
 10
6.289777709477235
 20
12.56901065826767
 30
0.0
 42
-0.4142135623730951
  0
VERTEX
  5
2FD
  8
SCREW_LOCATION_RECESS
 10
6.419777709487391
 20
12.43901065827774
 30
0.0
 42
-0.4142135623730951
  0
VERTEX
  5
2FE
  8
SCREW_LOCATION_RECESS
 10
6.289777709497493
 20
12.30901065826772
 30
0.0
 42
-0.4142135623730951
  0
VERTEX
  5
2FF
  8
SCREW_LOCATION_RECESS
 10
6.159777709487344
 20
12.43901065825749
 30
0.0
 42
-0.4142135623730951
  0
SEQEND
  5
468
  8
SCREW_LOCATION_RECESS
  0
POLYLINE
  5
86
  8
SCREW_LOCATION_RECESS
 66
     1
 10
0.0
 20
0.0
 30
0.0
 70
     1
  0
VERTEX
  5
300
  8
SCREW_LOCATION_RECESS
 10
39.28977770947724
 20
12.56901066083847
 30
0.0
 42
-0.4142135623730951
  0
VERTEX
  5
301
  8
SCREW_LOCATION_RECESS
 10
39.41977770948738
 20
12.43901066084854
 30
0.0
 42
-0.4142135623730951
  0
VERTEX
  5
302
  8
SCREW_LOCATION_RECESS
 10
39.28977770949749
 20
12.3090106608385
 30
0.0
 42
-0.4142135623730951
  0
VERTEX
  5
303
  8
SCREW_LOCATION_RECESS
 10
39.15977770948734
 20
12.43901066082828
 30
0.0
 42
-0.4142135623730951
  0
SEQEND
  5
469
  8
SCREW_LOCATION_RECESS
  0
POLYLINE
  5
87
  8
SCREW_LOCATION_RECESS
 66
     1
 10
0.0
 20
0.0
 30
0.0
 70
     1
  0
VERTEX
  5
304
  8
SCREW_LOCATION_RECESS
 10
17.28977770949749
 20
12.30901065912465
 30
0.0
 42
0.4142135623730951
  0
VERTEX
  5
305
  8
SCREW_LOCATION_RECESS
 10
17.41977770948736
 20
12.43901065913467
 30
0.0
 42
0.4142135623730951
  0
VERTEX
  5
306
  8
SCREW_LOCATION_RECESS
 10
17.28977770947723
 20
12.56901065912459
 30
0.0
 42
0.4142135623730951
  0
VERTEX
  5
307
  8
SCREW_LOCATION_RECESS
 10
17.15977770948731
 20
12.43901065911442
 30
0.0
 42
0.4142135623730951
  0
SEQEND
  5
46A
  8
SCREW_LOCATION_RECESS
  0
POLYLINE
  5
88
  8
SCREW_LOCATION_RECESS
 66
     1
 10
0.0
 20
0.0
 30
0.0
 70
     1
  0
VERTEX
  5
308
  8
SCREW_LOCATION_RECESS
 10
28.28977770949749
 20
12.30901065998158
 30
0.0
 42
0.4142135623730951
  0
VERTEX
  5
309
  8
SCREW_LOCATION_RECESS
 10
28.41977770948736
 20
12.43901065999161
 30
0.0
 42
0.4142135623730951
  0
VERTEX
  5
30A
  8
SCREW_LOCATION_RECESS
 10
28.28977770947723
 20
12.56901065998152
 30
0.0
 42
0.4142135623730951
  0
VERTEX
  5
30B
  8
SCREW_LOCATION_RECESS
 10
28.15977770948731
 20
12.43901065997134
 30
0.0
 42
0.4142135623730951
  0
SEQEND
  5
46B
  8
SCREW_LOCATION_RECESS
  0
POLYLINE
  5
89
  8
SCREW_LOCATION_RECESS
 66
     1
 10
0.0
 20
0.0
 30
0.0
 70
     1
  0
VERTEX
  5
30C
  8
SCREW_LOCATION_RECESS
 10
50.28977770947724
 20
12.5690106616954
 30
0.0
 42
-0.4142135623730951
  0
VERTEX
  5
30D
  8
SCREW_LOCATION_RECESS
 10
50.41977770948738
 20
12.43901066170547
 30
0.0
 42
-0.4142135623730951
  0
VERTEX
  5
30E
  8
SCREW_LOCATION_RECESS
 10
50.28977770949749
 20
12.30901066169544
 30
0.0
 42
-0.4142135623730951
  0
VERTEX
  5
30F
  8
SCREW_LOCATION_RECESS
 10
50.15977770948734
 20
12.43901066168522
 30
0.0
 42
-0.4142135623730951
  0
SEQEND
  5
46C
  8
SCREW_LOCATION_RECESS
  0
POLYLINE
  5
8A
  8
SCREW_LOCATION_RECESS
 66
     1
 10
0.0
 20
0.0
 30
0.0
 70
     1
  0
VERTEX
  5
310
  8
SCREW_LOCATION_RECESS
 10
61.28977770948823
 20
12.30901066255848
 30
0.0
 42
0.4142135623730976
  0
VERTEX
  5
311
  8
SCREW_LOCATION_RECESS
 10
61.41977770947811
 20
12.4390106625685
 30
0.0
 42
0.4142135623730951
  0
VERTEX
  5
312
  8
SCREW_LOCATION_RECESS
 10
61.28977770946797
 20
12.56901066255841
 30
0.0
 42
0.4142135623730951
  0
VERTEX
  5
313
  8
SCREW_LOCATION_RECESS
 10
61.15977770947805
 20
12.43901066254825
 30
0.0
 42
0.4142135623730976
  0
SEQEND
  5
46D
  8
SCREW_LOCATION_RECESS
  0
POLYLINE
  5
8B
  8
SCREW_LOCATION_RECESS
 66
     1
 10
0.0
 20
0.0
 30
0.0
 70
     1
  0
VERTEX
  5
314
  8
SCREW_LOCATION_RECESS
 10
2.289777708181653
 20
12.56901065806211
 30
0.0
 42
-0.4142135623730951
  0
VERTEX
  5
315
  8
SCREW_LOCATION_RECESS
 10
2.419777708191809
 20
12.43901065807218
 30
0.0
 42
-0.4142135623730951
  0
VERTEX
  5
316
  8
SCREW_LOCATION_RECESS
 10
2.28977770820191
 20
12.30901065806216
 30
0.0
 42
-0.4142135623730951
  0
VERTEX
  5
317
  8
SCREW_LOCATION_RECESS
 10
2.159777708191761
 20
12.43901065805193
 30
0.0
 42
-0.4142135623730951
  0
SEQEND
  5
46E
  8
SCREW_LOCATION_RECESS
  0
POLYLINE
  5
8C
  8
SCREW_LOCATION_RECESS
 66
     1
 10
0.0
 20
0.0
 30
0.0
 70
     1
  0
VERTEX
  5
318
  8
SCREW_LOCATION_RECESS
 10
67.03977770948919
 20
12.30901066255848
 30
0.0
 42
0.4142135623730976
  0
VERTEX
  5
319
  8
SCREW_LOCATION_RECESS
 10
67.16977770947908
 20
12.4390106625685
 30
0.0
 42
0.4142135623730951
  0
VERTEX
  5
31A
  8
SCREW_LOCATION_RECESS
 10
67.03977770946894
 20
12.56901066255841
 30
0.0
 42
0.4142135623730951
  0
VERTEX
  5
31B
  8
SCREW_LOCATION_RECESS
 10
66.90977770947902
 20
12.43901066254825
 30
0.0
 42
0.4142135623730976
  0
SEQEND
  5
46F
  8
SCREW_LOCATION_RECESS
  0
POLYLINE
  5
8E
  8
THREE_QUARTER_INCH_THRUCUT
 66
     1
 10
0.0
 20
0.0
 30
0.0
 70
     1
  0
VERTEX
  5
31C
  8
THREE_QUARTER_INCH_THRUCUT
 10
18.42909664506263
 20
8.045898559799625
 30
0.0
  0
VERTEX
  5
31D
  8
THREE_QUARTER_INCH_THRUCUT
 10
30.92777082028803
 20
8.045898559799625
 30
0.0
 42
0.414213562373097
  0
VERTEX
  5
31E
  8
THREE_QUARTER_INCH_THRUCUT
 10
31.67777082028803
 20
8.795898559799621
 30
0.0
  0
VERTEX
  5
31F
  8
THREE_QUARTER_INCH_THRUCUT
 10
31.67777082028803
 20
10.29590347783242
 30
0.0
 42
0.415274653617304
  0
VERTEX
  5
320
  8
THREE_QUARTER_INCH_THRUCUT
 10
30.92505475181662
 20
11.04589855979962
 30
0.0
  0
VERTEX
  5
321
  8
THREE_QUARTER_INCH_THRUCUT
 10
18.42777082028803
 20
11.04589855979962
 30
0.0
 42
0.414213562373097
  0
VERTEX
  5
322
  8
THREE_QUARTER_INCH_THRUCUT
 10
17.67777082028803
 20
10.29589855979962
 30
0.0
  0
VERTEX
  5
323
  8
THREE_QUARTER_INCH_THRUCUT
 10
17.67777082028803
 20
8.795897387924622
 30
0.0
 42
0.4147314242563471
  0
SEQEND
  5
470
  8
THREE_QUARTER_INCH_THRUCUT
  0
POLYLINE
  5
8F
  8
THREE_QUARTER_INCH_THRUCUT
 66
     1
 10
0.0
 20
0.0
 30
0.0
 70
     1
  0
VERTEX
  5
324
  8
THREE_QUARTER_INCH_THRUCUT
 10
2.586391573052609
 20
8.109016906700061
 30
0.0
  0
VERTEX
  5
325
  8
THREE_QUARTER_INCH_THRUCUT
 10
15.08506574827801
 20
8.109016906700061
 30
0.0
 42
0.414213562373097
  0
VERTEX
  5
326
  8
THREE_QUARTER_INCH_THRUCUT
 10
15.83506574827801
 20
8.859016906700061
 30
0.0
  0
VERTEX
  5
327
  8
THREE_QUARTER_INCH_THRUCUT
 10
15.83506574827801
 20
10.35902182473286
 30
0.0
 42
0.415274653617304
  0
VERTEX
  5
328
  8
THREE_QUARTER_INCH_THRUCUT
 10
15.0823496798066
 20
11.10901690670006
 30
0.0
  0
VERTEX
  5
329
  8
THREE_QUARTER_INCH_THRUCUT
 10
2.585065748278012
 20
11.10901690670006
 30
0.0
 42
0.414213562373097
  0
VERTEX
  5
32A
  8
THREE_QUARTER_INCH_THRUCUT
 10
1.835065748278012
 20
10.35901690670006
 30
0.0
  0
VERTEX
  5
32B
  8
THREE_QUARTER_INCH_THRUCUT
 10
1.835065748278012
 20
8.859015734825062
 30
0.0
 42
0.4147314242563471
  0
SEQEND
  5
471
  8
THREE_QUARTER_INCH_THRUCUT
  0
POLYLINE
  5
90
  8
THREE_QUARTER_INCH_THRUCUT
 66
     1
 10
0.0
 20
0.0
 30
0.0
 70
     1
  0
VERTEX
  5
32C
  8
THREE_QUARTER_INCH_THRUCUT
 10
23.67774984464896
 20
9.675895559799454
 30
0.0
 42
0.4142135623730951
  0
VERTEX
  5
32D
  8
THREE_QUARTER_INCH_THRUCUT
 10
23.54774984464896
 20
9.545895559799458
 30
0.0
 42
0.4142135623730951
  0
VERTEX
  5
32E
  8
THREE_QUARTER_INCH_THRUCUT
 10
23.67774984464896
 20
9.415895559799434
 30
0.0
 42
0.4142135623730951
  0
VERTEX
  5
32F
  8
THREE_QUARTER_INCH_THRUCUT
 10
23.80774984464895
 20
9.545895559799458
 30
0.0
 42
0.4142135623730951
  0
SEQEND
  5
472
  8
THREE_QUARTER_INCH_THRUCUT
  0
POLYLINE
  5
91
  8
THREE_QUARTER_INCH_THRUCUT
 66
     1
 10
0.0
 20
0.0
 30
0.0
 70
     1
  0
VERTEX
  5
330
  8
THREE_QUARTER_INCH_THRUCUT
 10
25.67774984464896
 20
9.675895559799454
 30
0.0
 42
0.4142135623730951
  0
VERTEX
  5
331
  8
THREE_QUARTER_INCH_THRUCUT
 10
25.54774984464896
 20
9.545895559799458
 30
0.0
 42
0.4142135623730951
  0
VERTEX
  5
332
  8
THREE_QUARTER_INCH_THRUCUT
 10
25.67774984464896
 20
9.415895559799434
 30
0.0
 42
0.4142135623730951
  0
VERTEX
  5
333
  8
THREE_QUARTER_INCH_THRUCUT
 10
25.80774984464895
 20
9.545895559799458
 30
0.0
 42
0.4142135623730951
  0
SEQEND
  5
473
  8
THREE_QUARTER_INCH_THRUCUT
  0
POLYLINE
  5
92
  8
THREE_QUARTER_INCH_THRUCUT
 66
     1
 10
0.0
 20
0.0
 30
0.0
 70
     1
  0
VERTEX
  5
334
  8
THREE_QUARTER_INCH_THRUCUT
 10
28.30274984464896
 20
9.675895559799454
 30
0.0
 42
0.4142135623730951
  0
VERTEX
  5
335
  8
THREE_QUARTER_INCH_THRUCUT
 10
28.17274984464896
 20
9.545895559799458
 30
0.0
 42
0.4142135623730951
  0
VERTEX
  5
336
  8
THREE_QUARTER_INCH_THRUCUT
 10
28.30274984464896
 20
9.415895559799434
 30
0.0
 42
0.4142135623730951
  0
VERTEX
  5
337
  8
THREE_QUARTER_INCH_THRUCUT
 10
28.43274984464895
 20
9.545895559799458
 30
0.0
 42
0.4142135623730951
  0
SEQEND
  5
474
  8
THREE_QUARTER_INCH_THRUCUT
  0
POLYLINE
  5
93
  8
THREE_QUARTER_INCH_THRUCUT
 66
     1
 10
0.0
 20
0.0
 30
0.0
 70
     1
  0
VERTEX
  5
338
  8
THREE_QUARTER_INCH_THRUCUT
 10
30.92774984464896
 20
9.675895559799454
 30
0.0
 42
0.4142135623730951
  0
VERTEX
  5
339
  8
THREE_QUARTER_INCH_THRUCUT
 10
30.79774984464896
 20
9.545895559799458
 30
0.0
 42
0.4142135623730951
  0
VERTEX
  5
33A
  8
THREE_QUARTER_INCH_THRUCUT
 10
30.92774984464896
 20
9.415895559799434
 30
0.0
 42
0.4142135623730951
  0
VERTEX
  5
33B
  8
THREE_QUARTER_INCH_THRUCUT
 10
31.05774984464895
 20
9.545895559799458
 30
0.0
 42
0.4142135623730951
  0
SEQEND
  5
475
  8
THREE_QUARTER_INCH_THRUCUT
  0
POLYLINE
  5
94
  8
THREE_QUARTER_INCH_THRUCUT
 66
     1
 10
0.0
 20
0.0
 30
0.0
 70
     1
  0
VERTEX
  5
33C
  8
THREE_QUARTER_INCH_THRUCUT
 10
21.05274984464896
 20
9.675895559799454
 30
0.0
 42
0.4142135623730951
  0
VERTEX
  5
33D
  8
THREE_QUARTER_INCH_THRUCUT
 10
20.92274984464896
 20
9.545895559799458
 30
0.0
 42
0.4142135623730951
  0
VERTEX
  5
33E
  8
THREE_QUARTER_INCH_THRUCUT
 10
21.05274984464896
 20
9.415895559799434
 30
0.0
 42
0.4142135623730951
  0
VERTEX
  5
33F
  8
THREE_QUARTER_INCH_THRUCUT
 10
21.18274984464895
 20
9.545895559799458
 30
0.0
 42
0.4142135623730951
  0
SEQEND
  5
476
  8
THREE_QUARTER_INCH_THRUCUT
  0
POLYLINE
  5
95
  8
THREE_QUARTER_INCH_THRUCUT
 66
     1
 10
0.0
 20
0.0
 30
0.0
 70
     1
  0
VERTEX
  5
340
  8
THREE_QUARTER_INCH_THRUCUT
 10
18.42774984464896
 20
9.675895559799454
 30
0.0
 42
0.4142135623730951
  0
VERTEX
  5
341
  8
THREE_QUARTER_INCH_THRUCUT
 10
18.29774984464896
 20
9.545895559799458
 30
0.0
 42
0.4142135623730951
  0
VERTEX
  5
342
  8
THREE_QUARTER_INCH_THRUCUT
 10
18.42774984464896
 20
9.415895559799434
 30
0.0
 42
0.4142135623730951
  0
VERTEX
  5
343
  8
THREE_QUARTER_INCH_THRUCUT
 10
18.55774984464895
 20
9.545895559799458
 30
0.0
 42
0.4142135623730951
  0
SEQEND
  5
477
  8
THREE_QUARTER_INCH_THRUCUT
  0
POLYLINE
  5
96
  8
THREE_QUARTER_INCH_THRUCUT
 66
     1
 10
0.0
 20
0.0
 30
0.0
 70
     1
  0
VERTEX
  5
344
  8
THREE_QUARTER_INCH_THRUCUT
 10
7.835044772638938
 20
9.739013906699894
 30
0.0
 42
0.4142135623730951
  0
VERTEX
  5
345
  8
THREE_QUARTER_INCH_THRUCUT
 10
7.705044772638942
 20
9.609013906699898
 30
0.0
 42
0.4142135623730951
  0
VERTEX
  5
346
  8
THREE_QUARTER_INCH_THRUCUT
 10
7.835044772638938
 20
9.479013906699874
 30
0.0
 42
0.4142135623730951
  0
VERTEX
  5
347
  8
THREE_QUARTER_INCH_THRUCUT
 10
7.965044772638933
 20
9.609013906699898
 30
0.0
 42
0.4142135623730951
  0
SEQEND
  5
478
  8
THREE_QUARTER_INCH_THRUCUT
  0
POLYLINE
  5
97
  8
THREE_QUARTER_INCH_THRUCUT
 66
     1
 10
0.0
 20
0.0
 30
0.0
 70
     1
  0
VERTEX
  5
348
  8
THREE_QUARTER_INCH_THRUCUT
 10
9.835044772638938
 20
9.739013906699894
 30
0.0
 42
0.4142135623730951
  0
VERTEX
  5
349
  8
THREE_QUARTER_INCH_THRUCUT
 10
9.705044772638942
 20
9.609013906699898
 30
0.0
 42
0.4142135623730951
  0
VERTEX
  5
34A
  8
THREE_QUARTER_INCH_THRUCUT
 10
9.835044772638938
 20
9.479013906699874
 30
0.0
 42
0.4142135623730951
  0
VERTEX
  5
34B
  8
THREE_QUARTER_INCH_THRUCUT
 10
9.965044772638933
 20
9.609013906699898
 30
0.0
 42
0.4142135623730951
  0
SEQEND
  5
479
  8
THREE_QUARTER_INCH_THRUCUT
  0
POLYLINE
  5
98
  8
THREE_QUARTER_INCH_THRUCUT
 66
     1
 10
0.0
 20
0.0
 30
0.0
 70
     1
  0
VERTEX
  5
34C
  8
THREE_QUARTER_INCH_THRUCUT
 10
12.46004477263894
 20
9.739013906699894
 30
0.0
 42
0.4142135623730951
  0
VERTEX
  5
34D
  8
THREE_QUARTER_INCH_THRUCUT
 10
12.33004477263894
 20
9.609013906699898
 30
0.0
 42
0.4142135623730951
  0
VERTEX
  5
34E
  8
THREE_QUARTER_INCH_THRUCUT
 10
12.46004477263894
 20
9.479013906699874
 30
0.0
 42
0.4142135623730951
  0
VERTEX
  5
34F
  8
THREE_QUARTER_INCH_THRUCUT
 10
12.59004477263893
 20
9.609013906699898
 30
0.0
 42
0.4142135623730951
  0
SEQEND
  5
47A
  8
THREE_QUARTER_INCH_THRUCUT
  0
POLYLINE
  5
99
  8
THREE_QUARTER_INCH_THRUCUT
 66
     1
 10
0.0
 20
0.0
 30
0.0
 70
     1
  0
VERTEX
  5
350
  8
THREE_QUARTER_INCH_THRUCUT
 10
15.08504477263894
 20
9.739013906699894
 30
0.0
 42
0.4142135623730951
  0
VERTEX
  5
351
  8
THREE_QUARTER_INCH_THRUCUT
 10
14.95504477263894
 20
9.609013906699898
 30
0.0
 42
0.4142135623730951
  0
VERTEX
  5
352
  8
THREE_QUARTER_INCH_THRUCUT
 10
15.08504477263894
 20
9.479013906699874
 30
0.0
 42
0.4142135623730951
  0
VERTEX
  5
353
  8
THREE_QUARTER_INCH_THRUCUT
 10
15.21504477263893
 20
9.609013906699898
 30
0.0
 42
0.4142135623730951
  0
SEQEND
  5
47B
  8
THREE_QUARTER_INCH_THRUCUT
  0
POLYLINE
  5
9A
  8
THREE_QUARTER_INCH_THRUCUT
 66
     1
 10
0.0
 20
0.0
 30
0.0
 70
     1
  0
VERTEX
  5
354
  8
THREE_QUARTER_INCH_THRUCUT
 10
5.210044772638938
 20
9.739013906699894
 30
0.0
 42
0.4142135623730951
  0
VERTEX
  5
355
  8
THREE_QUARTER_INCH_THRUCUT
 10
5.080044772638942
 20
9.609013906699898
 30
0.0
 42
0.4142135623730951
  0
VERTEX
  5
356
  8
THREE_QUARTER_INCH_THRUCUT
 10
5.210044772638938
 20
9.479013906699874
 30
0.0
 42
0.4142135623730951
  0
VERTEX
  5
357
  8
THREE_QUARTER_INCH_THRUCUT
 10
5.340044772638933
 20
9.609013906699898
 30
0.0
 42
0.4142135623730951
  0
SEQEND
  5
47C
  8
THREE_QUARTER_INCH_THRUCUT
  0
POLYLINE
  5
9B
  8
THREE_QUARTER_INCH_THRUCUT
 66
     1
 10
0.0
 20
0.0
 30
0.0
 70
     1
  0
VERTEX
  5
358
  8
THREE_QUARTER_INCH_THRUCUT
 10
2.585044772638938
 20
9.739013906699894
 30
0.0
 42
0.4142135623730951
  0
VERTEX
  5
359
  8
THREE_QUARTER_INCH_THRUCUT
 10
2.455044772638942
 20
9.609013906699898
 30
0.0
 42
0.4142135623730951
  0
VERTEX
  5
35A
  8
THREE_QUARTER_INCH_THRUCUT
 10
2.585044772638938
 20
9.479013906699874
 30
0.0
 42
0.4142135623730951
  0
VERTEX
  5
35B
  8
THREE_QUARTER_INCH_THRUCUT
 10
2.715044772638933
 20
9.609013906699898
 30
0.0
 42
0.4142135623730951
  0
SEQEND
  5
47D
  8
THREE_QUARTER_INCH_THRUCUT
  0
POLYLINE
  5
9C
  8
THREE_QUARTER_INCH_THRUCUT
 66
     1
 10
0.0
 20
0.0
 30
0.0
 70
     1
  0
VERTEX
  5
35C
  8
THREE_QUARTER_INCH_THRUCUT
 10
1.700000137267084
 20
7.382760644959298
 30
0.0
  0
VERTEX
  5
35D
  8
THREE_QUARTER_INCH_THRUCUT
 10
3.843082137267088
 20
7.382760644959294
 30
0.0
  0
VERTEX
  5
35E
  8
THREE_QUARTER_INCH_THRUCUT
 10
3.843082137267088
 20
6.262761019959299
 30
0.0
  0
VERTEX
  5
35F
  8
THREE_QUARTER_INCH_THRUCUT
 10
3.811809137267089
 20
6.260169019959292
 30
0.0
  0
VERTEX
  5
360
  8
THREE_QUARTER_INCH_THRUCUT
 10
3.78138913726709
 20
6.2524660199593
 30
0.0
  0
VERTEX
  5
361
  8
THREE_QUARTER_INCH_THRUCUT
 10
3.75265213726709
 20
6.239861019959292
 30
0.0
  0
VERTEX
  5
362
  8
THREE_QUARTER_INCH_THRUCUT
 10
3.726381137267089
 20
6.222697019959298
 30
0.0
  0
VERTEX
  5
363
  8
THREE_QUARTER_INCH_THRUCUT
 10
3.703294137267089
 20
6.201444019959297
 30
0.0
  0
VERTEX
  5
364
  8
THREE_QUARTER_INCH_THRUCUT
 10
3.68402013726709
 20
6.176681019959297
 30
0.0
  0
VERTEX
  5
365
  8
THREE_QUARTER_INCH_THRUCUT
 10
3.669085137267088
 20
6.149083019959292
 30
0.0
  0
VERTEX
  5
366
  8
THREE_QUARTER_INCH_THRUCUT
 10
3.658895137267087
 20
6.119403019959293
 30
0.0
  0
VERTEX
  5
367
  8
THREE_QUARTER_INCH_THRUCUT
 10
3.653730137267091
 20
6.088451019959294
 30
0.0
  0
VERTEX
  5
368
  8
THREE_QUARTER_INCH_THRUCUT
 10
3.653730137267091
 20
6.057071019959295
 30
0.0
  0
VERTEX
  5
369
  8
THREE_QUARTER_INCH_THRUCUT
 10
3.658895137267087
 20
6.026118019959299
 30
0.0
  0
VERTEX
  5
36A
  8
THREE_QUARTER_INCH_THRUCUT
 10
3.669085137267088
 20
5.996439019959297
 30
0.0
  0
VERTEX
  5
36B
  8
THREE_QUARTER_INCH_THRUCUT
 10
3.68402013726709
 20
5.968841019959299
 30
0.0
  0
VERTEX
  5
36C
  8
THREE_QUARTER_INCH_THRUCUT
 10
3.703294137267089
 20
5.944077019959295
 30
0.0
  0
VERTEX
  5
36D
  8
THREE_QUARTER_INCH_THRUCUT
 10
3.726381137267089
 20
5.922824019959293
 30
0.0
  0
VERTEX
  5
36E
  8
THREE_QUARTER_INCH_THRUCUT
 10
3.75265213726709
 20
5.905661019959297
 30
0.0
  0
VERTEX
  5
36F
  8
THREE_QUARTER_INCH_THRUCUT
 10
3.78138913726709
 20
5.893055019959291
 30
0.0
  0
VERTEX
  5
370
  8
THREE_QUARTER_INCH_THRUCUT
 10
3.811809137267089
 20
5.885352019959299
 30
0.0
  0
VERTEX
  5
371
  8
THREE_QUARTER_INCH_THRUCUT
 10
3.843082137267088
 20
5.882761019959297
 30
0.0
  0
VERTEX
  5
372
  8
THREE_QUARTER_INCH_THRUCUT
 10
4.593082137267089
 20
5.882761019959297
 30
0.0
  0
VERTEX
  5
373
  8
THREE_QUARTER_INCH_THRUCUT
 10
4.62435413726709
 20
5.885352019959299
 30
0.0
  0
VERTEX
  5
374
  8
THREE_QUARTER_INCH_THRUCUT
 10
4.65477413726709
 20
5.893055019959291
 30
0.0
  0
VERTEX
  5
375
  8
THREE_QUARTER_INCH_THRUCUT
 10
4.68351213726709
 20
5.905661019959297
 30
0.0
  0
VERTEX
  5
376
  8
THREE_QUARTER_INCH_THRUCUT
 10
4.709782137267091
 20
5.922824019959293
 30
0.0
  0
VERTEX
  5
377
  8
THREE_QUARTER_INCH_THRUCUT
 10
4.732869137267087
 20
5.944077019959295
 30
0.0
  0
VERTEX
  5
378
  8
THREE_QUARTER_INCH_THRUCUT
 10
4.75214313726709
 20
5.968841019959299
 30
0.0
  0
VERTEX
  5
379
  8
THREE_QUARTER_INCH_THRUCUT
 10
4.767078137267092
 20
5.996439019959297
 30
0.0
  0
VERTEX
  5
37A
  8
THREE_QUARTER_INCH_THRUCUT
 10
4.77726813726709
 20
6.026118019959299
 30
0.0
  0
VERTEX
  5
37B
  8
THREE_QUARTER_INCH_THRUCUT
 10
4.782433137267091
 20
6.057071019959295
 30
0.0
  0
VERTEX
  5
37C
  8
THREE_QUARTER_INCH_THRUCUT
 10
4.782433137267091
 20
6.088451019959294
 30
0.0
  0
VERTEX
  5
37D
  8
THREE_QUARTER_INCH_THRUCUT
 10
4.77726813726709
 20
6.119403019959293
 30
0.0
  0
VERTEX
  5
37E
  8
THREE_QUARTER_INCH_THRUCUT
 10
4.767078137267092
 20
6.149083019959292
 30
0.0
  0
VERTEX
  5
37F
  8
THREE_QUARTER_INCH_THRUCUT
 10
4.75214313726709
 20
6.176681019959297
 30
0.0
  0
VERTEX
  5
380
  8
THREE_QUARTER_INCH_THRUCUT
 10
4.732869137267087
 20
6.201444019959297
 30
0.0
  0
VERTEX
  5
381
  8
THREE_QUARTER_INCH_THRUCUT
 10
4.709782137267091
 20
6.222697019959298
 30
0.0
  0
VERTEX
  5
382
  8
THREE_QUARTER_INCH_THRUCUT
 10
4.68351213726709
 20
6.239861019959292
 30
0.0
  0
VERTEX
  5
383
  8
THREE_QUARTER_INCH_THRUCUT
 10
4.65477413726709
 20
6.2524660199593
 30
0.0
  0
VERTEX
  5
384
  8
THREE_QUARTER_INCH_THRUCUT
 10
4.62435413726709
 20
6.260169019959292
 30
0.0
  0
VERTEX
  5
385
  8
THREE_QUARTER_INCH_THRUCUT
 10
4.593082137267089
 20
6.262761019959299
 30
0.0
  0
VERTEX
  5
386
  8
THREE_QUARTER_INCH_THRUCUT
 10
4.593082137267087
 20
7.382760644959294
 30
0.0
  0
VERTEX
  5
387
  8
THREE_QUARTER_INCH_THRUCUT
 10
25.84308213726709
 20
7.382760644959294
 30
0.0
  0
VERTEX
  5
388
  8
THREE_QUARTER_INCH_THRUCUT
 10
25.84308213726709
 20
6.262761019959299
 30
0.0
  0
VERTEX
  5
389
  8
THREE_QUARTER_INCH_THRUCUT
 10
25.81180913726709
 20
6.260169019959292
 30
0.0
  0
VERTEX
  5
38A
  8
THREE_QUARTER_INCH_THRUCUT
 10
25.78138913726709
 20
6.2524660199593
 30
0.0
  0
VERTEX
  5
38B
  8
THREE_QUARTER_INCH_THRUCUT
 10
25.75265213726709
 20
6.239861019959292
 30
0.0
  0
VERTEX
  5
38C
  8
THREE_QUARTER_INCH_THRUCUT
 10
25.72638113726709
 20
6.222697019959298
 30
0.0
  0
VERTEX
  5
38D
  8
THREE_QUARTER_INCH_THRUCUT
 10
25.70329413726708
 20
6.201444019959297
 30
0.0
  0
VERTEX
  5
38E
  8
THREE_QUARTER_INCH_THRUCUT
 10
25.68402013726709
 20
6.176681019959297
 30
0.0
  0
VERTEX
  5
38F
  8
THREE_QUARTER_INCH_THRUCUT
 10
25.66908513726709
 20
6.149083019959292
 30
0.0
  0
VERTEX
  5
390
  8
THREE_QUARTER_INCH_THRUCUT
 10
25.65889513726709
 20
6.119403019959293
 30
0.0
  0
VERTEX
  5
391
  8
THREE_QUARTER_INCH_THRUCUT
 10
25.65373013726709
 20
6.088451019959294
 30
0.0
  0
VERTEX
  5
392
  8
THREE_QUARTER_INCH_THRUCUT
 10
25.65373013726709
 20
6.057071019959295
 30
0.0
  0
VERTEX
  5
393
  8
THREE_QUARTER_INCH_THRUCUT
 10
25.65889513726709
 20
6.026118019959299
 30
0.0
  0
VERTEX
  5
394
  8
THREE_QUARTER_INCH_THRUCUT
 10
25.66908513726709
 20
5.996439019959297
 30
0.0
  0
VERTEX
  5
395
  8
THREE_QUARTER_INCH_THRUCUT
 10
25.68402013726709
 20
5.968841019959299
 30
0.0
  0
VERTEX
  5
396
  8
THREE_QUARTER_INCH_THRUCUT
 10
25.70329413726708
 20
5.944077019959295
 30
0.0
  0
VERTEX
  5
397
  8
THREE_QUARTER_INCH_THRUCUT
 10
25.72638113726709
 20
5.922824019959293
 30
0.0
  0
VERTEX
  5
398
  8
THREE_QUARTER_INCH_THRUCUT
 10
25.75265213726709
 20
5.905661019959297
 30
0.0
  0
VERTEX
  5
399
  8
THREE_QUARTER_INCH_THRUCUT
 10
25.78138913726709
 20
5.893055019959291
 30
0.0
  0
VERTEX
  5
39A
  8
THREE_QUARTER_INCH_THRUCUT
 10
25.81180913726709
 20
5.885352019959299
 30
0.0
  0
VERTEX
  5
39B
  8
THREE_QUARTER_INCH_THRUCUT
 10
25.84308213726709
 20
5.882761019959297
 30
0.0
  0
VERTEX
  5
39C
  8
THREE_QUARTER_INCH_THRUCUT
 10
26.59308213726709
 20
5.882761019959297
 30
0.0
  0
VERTEX
  5
39D
  8
THREE_QUARTER_INCH_THRUCUT
 10
26.62435413726709
 20
5.885352019959299
 30
0.0
  0
VERTEX
  5
39E
  8
THREE_QUARTER_INCH_THRUCUT
 10
26.65477413726709
 20
5.893055019959291
 30
0.0
  0
VERTEX
  5
39F
  8
THREE_QUARTER_INCH_THRUCUT
 10
26.68351213726709
 20
5.905661019959297
 30
0.0
  0
VERTEX
  5
3A0
  8
THREE_QUARTER_INCH_THRUCUT
 10
26.70978213726709
 20
5.922824019959293
 30
0.0
  0
VERTEX
  5
3A1
  8
THREE_QUARTER_INCH_THRUCUT
 10
26.73286913726709
 20
5.944077019959295
 30
0.0
  0
VERTEX
  5
3A2
  8
THREE_QUARTER_INCH_THRUCUT
 10
26.75214313726709
 20
5.968841019959299
 30
0.0
  0
VERTEX
  5
3A3
  8
THREE_QUARTER_INCH_THRUCUT
 10
26.76707813726709
 20
5.996439019959297
 30
0.0
  0
VERTEX
  5
3A4
  8
THREE_QUARTER_INCH_THRUCUT
 10
26.77726813726709
 20
6.026118019959299
 30
0.0
  0
VERTEX
  5
3A5
  8
THREE_QUARTER_INCH_THRUCUT
 10
26.78243313726709
 20
6.057071019959295
 30
0.0
  0
VERTEX
  5
3A6
  8
THREE_QUARTER_INCH_THRUCUT
 10
26.78243313726709
 20
6.088451019959294
 30
0.0
  0
VERTEX
  5
3A7
  8
THREE_QUARTER_INCH_THRUCUT
 10
26.77726813726709
 20
6.119403019959293
 30
0.0
  0
VERTEX
  5
3A8
  8
THREE_QUARTER_INCH_THRUCUT
 10
26.76707813726709
 20
6.149083019959292
 30
0.0
  0
VERTEX
  5
3A9
  8
THREE_QUARTER_INCH_THRUCUT
 10
26.75214313726709
 20
6.176681019959297
 30
0.0
  0
VERTEX
  5
3AA
  8
THREE_QUARTER_INCH_THRUCUT
 10
26.73286913726709
 20
6.201444019959297
 30
0.0
  0
VERTEX
  5
3AB
  8
THREE_QUARTER_INCH_THRUCUT
 10
26.70978213726709
 20
6.222697019959298
 30
0.0
  0
VERTEX
  5
3AC
  8
THREE_QUARTER_INCH_THRUCUT
 10
26.68351213726709
 20
6.239861019959292
 30
0.0
  0
VERTEX
  5
3AD
  8
THREE_QUARTER_INCH_THRUCUT
 10
26.65477413726709
 20
6.2524660199593
 30
0.0
  0
VERTEX
  5
3AE
  8
THREE_QUARTER_INCH_THRUCUT
 10
26.62435413726709
 20
6.260169019959292
 30
0.0
  0
VERTEX
  5
3AF
  8
THREE_QUARTER_INCH_THRUCUT
 10
26.59308213726709
 20
6.262761019959299
 30
0.0
  0
VERTEX
  5
3B0
  8
THREE_QUARTER_INCH_THRUCUT
 10
26.59308213726708
 20
7.382760644959294
 30
0.0
  0
VERTEX
  5
3B1
  8
THREE_QUARTER_INCH_THRUCUT
 10
38.21808213726708
 20
7.382760644959298
 30
0.0
  0
VERTEX
  5
3B2
  8
THREE_QUARTER_INCH_THRUCUT
 10
37.24953259487867
 20
6.414310140454862
 30
0.0
 42
0.4142135623730946
  0
VERTEX
  5
3B3
  8
THREE_QUARTER_INCH_THRUCUT
 10
37.24953259487867
 20
5.101211033392321
 30
0.0
  0
VERTEX
  5
3B4
  8
THREE_QUARTER_INCH_THRUCUT
 10
39.18663167965549
 20
3.164310256526284
 30
0.0
 42
-0.4142135623730944
  0
VERTEX
  5
3B5
  8
THREE_QUARTER_INCH_THRUCUT
 10
39.18663167965549
 20
1.85121114946374
 30
0.0
  0
VERTEX
  5
3B6
  8
THREE_QUARTER_INCH_THRUCUT
 10
38.21808213726708
 20
0.8827606449592977
 30
0.0
  0
VERTEX
  5
3B7
  8
THREE_QUARTER_INCH_THRUCUT
 10
4.699999378048613
 20
0.8827610199594851
 30
0.0
 42
-0.4142133630070195
  0
VERTEX
  5
3B8
  8
THREE_QUARTER_INCH_THRUCUT
 10
1.700000137267112
 20
3.882761258159825
 30
0.0
  0
SEQEND
  5
47E
  8
THREE_QUARTER_INCH_THRUCUT
  0
POLYLINE
  5
9D
  8
THREE_QUARTER_INCH_THRUCUT
 66
     1
 10
0.0
 20
0.0
 30
0.0
 70
     1
  0
VERTEX
  5
3B9
  8
THREE_QUARTER_INCH_THRUCUT
 10
40.43842615953939
 20
0.9505635566687547
 30
0.0
  0
VERTEX
  5
3BA
  8
THREE_QUARTER_INCH_THRUCUT
 10
41.40697570192781
 20
1.919014061173157
 30
0.0
 42
0.4142135623730944
  0
VERTEX
  5
3BB
  8
THREE_QUARTER_INCH_THRUCUT
 10
41.40697570192781
 20
3.232113168235741
 30
0.0
  0
VERTEX
  5
3BC
  8
THREE_QUARTER_INCH_THRUCUT
 10
39.46987661715097
 20
5.169013945101767
 30
0.0
 42
-0.4142135623730946
  0
VERTEX
  5
3BD
  8
THREE_QUARTER_INCH_THRUCUT
 10
39.46987661715097
 20
6.482113052164323
 30
0.0
  0
VERTEX
  5
3BE
  8
THREE_QUARTER_INCH_THRUCUT
 10
40.43842615953939
 20
7.450563556668754
 30
0.0
  0
VERTEX
  5
3BF
  8
THREE_QUARTER_INCH_THRUCUT
 10
52.06342615953956
 20
7.450563556668754
 30
0.0
  0
VERTEX
  5
3C0
  8
THREE_QUARTER_INCH_THRUCUT
 10
52.06342615953942
 20
6.330563931668763
 30
0.0
  0
VERTEX
  5
3C1
  8
THREE_QUARTER_INCH_THRUCUT
 10
52.03215415953942
 20
6.327971931668742
 30
0.0
  0
VERTEX
  5
3C2
  8
THREE_QUARTER_INCH_THRUCUT
 10
52.00173415953942
 20
6.32026893166875
 30
0.0
  0
VERTEX
  5
3C3
  8
THREE_QUARTER_INCH_THRUCUT
 10
51.97299615953939
 20
6.307663931668742
 30
0.0
  0
VERTEX
  5
3C4
  8
THREE_QUARTER_INCH_THRUCUT
 10
51.94672615953944
 20
6.290499931668762
 30
0.0
  0
VERTEX
  5
3C5
  8
THREE_QUARTER_INCH_THRUCUT
 10
51.92363915953941
 20
6.269246931668761
 30
0.0
  0
VERTEX
  5
3C6
  8
THREE_QUARTER_INCH_THRUCUT
 10
51.90436515953941
 20
6.244483931668753
 30
0.0
  0
VERTEX
  5
3C7
  8
THREE_QUARTER_INCH_THRUCUT
 10
51.88943015953943
 20
6.216885931668742
 30
0.0
  0
VERTEX
  5
3C8
  8
THREE_QUARTER_INCH_THRUCUT
 10
51.87924015953941
 20
6.187205931668757
 30
0.0
  0
VERTEX
  5
3C9
  8
THREE_QUARTER_INCH_THRUCUT
 10
51.87407515953943
 20
6.156253931668743
 30
0.0
  0
VERTEX
  5
3CA
  8
THREE_QUARTER_INCH_THRUCUT
 10
51.87407515953943
 20
6.124873931668759
 30
0.0
  0
VERTEX
  5
3CB
  8
THREE_QUARTER_INCH_THRUCUT
 10
51.87924015953941
 20
6.093920931668748
 30
0.0
  0
VERTEX
  5
3CC
  8
THREE_QUARTER_INCH_THRUCUT
 10
51.88943015953943
 20
6.064241931668761
 30
0.0
  0
VERTEX
  5
3CD
  8
THREE_QUARTER_INCH_THRUCUT
 10
51.90436515953941
 20
6.036643931668749
 30
0.0
  0
VERTEX
  5
3CE
  8
THREE_QUARTER_INCH_THRUCUT
 10
51.92363915953941
 20
6.011879931668744
 30
0.0
  0
VERTEX
  5
3CF
  8
THREE_QUARTER_INCH_THRUCUT
 10
51.94672615953944
 20
5.990626931668743
 30
0.0
  0
VERTEX
  5
3D0
  8
THREE_QUARTER_INCH_THRUCUT
 10
51.97299615953939
 20
5.973463931668761
 30
0.0
  0
VERTEX
  5
3D1
  8
THREE_QUARTER_INCH_THRUCUT
 10
52.00173415953942
 20
5.960857931668755
 30
0.0
  0
VERTEX
  5
3D2
  8
THREE_QUARTER_INCH_THRUCUT
 10
52.03215415953942
 20
5.953154931668763
 30
0.0
  0
VERTEX
  5
3D3
  8
THREE_QUARTER_INCH_THRUCUT
 10
52.06342615953942
 20
5.950563931668739
 30
0.0
  0
VERTEX
  5
3D4
  8
THREE_QUARTER_INCH_THRUCUT
 10
52.81342615953942
 20
5.950563931668739
 30
0.0
  0
VERTEX
  5
3D5
  8
THREE_QUARTER_INCH_THRUCUT
 10
52.84469915953942
 20
5.953154931668763
 30
0.0
  0
VERTEX
  5
3D6
  8
THREE_QUARTER_INCH_THRUCUT
 10
52.87511915953941
 20
5.960857931668755
 30
0.0
  0
VERTEX
  5
3D7
  8
THREE_QUARTER_INCH_THRUCUT
 10
52.90385615953944
 20
5.973463931668761
 30
0.0
  0
VERTEX
  5
3D8
  8
THREE_QUARTER_INCH_THRUCUT
 10
52.9301271595394
 20
5.990626931668743
 30
0.0
  0
VERTEX
  5
3D9
  8
THREE_QUARTER_INCH_THRUCUT
 10
52.95321415953943
 20
6.011879931668744
 30
0.0
  0
VERTEX
  5
3DA
  8
THREE_QUARTER_INCH_THRUCUT
 10
52.97248815953942
 20
6.036643931668749
 30
0.0
  0
VERTEX
  5
3DB
  8
THREE_QUARTER_INCH_THRUCUT
 10
52.9874231595394
 20
6.064241931668761
 30
0.0
  0
VERTEX
  5
3DC
  8
THREE_QUARTER_INCH_THRUCUT
 10
52.99761315953937
 20
6.093920931668748
 30
0.0
  0
VERTEX
  5
3DD
  8
THREE_QUARTER_INCH_THRUCUT
 10
53.0027781595394
 20
6.124873931668759
 30
0.0
  0
VERTEX
  5
3DE
  8
THREE_QUARTER_INCH_THRUCUT
 10
53.0027781595394
 20
6.156253931668743
 30
0.0
  0
VERTEX
  5
3DF
  8
THREE_QUARTER_INCH_THRUCUT
 10
52.99761315953937
 20
6.187205931668757
 30
0.0
  0
VERTEX
  5
3E0
  8
THREE_QUARTER_INCH_THRUCUT
 10
52.9874231595394
 20
6.216885931668742
 30
0.0
  0
VERTEX
  5
3E1
  8
THREE_QUARTER_INCH_THRUCUT
 10
52.97248815953942
 20
6.244483931668753
 30
0.0
  0
VERTEX
  5
3E2
  8
THREE_QUARTER_INCH_THRUCUT
 10
52.95321415953943
 20
6.269246931668761
 30
0.0
  0
VERTEX
  5
3E3
  8
THREE_QUARTER_INCH_THRUCUT
 10
52.9301271595394
 20
6.290499931668762
 30
0.0
  0
VERTEX
  5
3E4
  8
THREE_QUARTER_INCH_THRUCUT
 10
52.90385615953944
 20
6.307663931668742
 30
0.0
  0
VERTEX
  5
3E5
  8
THREE_QUARTER_INCH_THRUCUT
 10
52.87511915953941
 20
6.32026893166875
 30
0.0
  0
VERTEX
  5
3E6
  8
THREE_QUARTER_INCH_THRUCUT
 10
52.84469915953942
 20
6.327971931668742
 30
0.0
  0
VERTEX
  5
3E7
  8
THREE_QUARTER_INCH_THRUCUT
 10
52.81342615953942
 20
6.330563931668763
 30
0.0
  0
VERTEX
  5
3E8
  8
THREE_QUARTER_INCH_THRUCUT
 10
52.81342615953928
 20
7.450563556668754
 30
0.0
  0
VERTEX
  5
3E9
  8
THREE_QUARTER_INCH_THRUCUT
 10
74.06342615953942
 20
7.450563556668754
 30
0.0
  0
VERTEX
  5
3EA
  8
THREE_QUARTER_INCH_THRUCUT
 10
74.06342615953942
 20
6.330563931668763
 30
0.0
  0
VERTEX
  5
3EB
  8
THREE_QUARTER_INCH_THRUCUT
 10
74.03215415953942
 20
6.327971931668742
 30
0.0
  0
VERTEX
  5
3EC
  8
THREE_QUARTER_INCH_THRUCUT
 10
74.00173415953942
 20
6.32026893166875
 30
0.0
  0
VERTEX
  5
3ED
  8
THREE_QUARTER_INCH_THRUCUT
 10
73.97299615953939
 20
6.307663931668742
 30
0.0
  0
VERTEX
  5
3EE
  8
THREE_QUARTER_INCH_THRUCUT
 10
73.94672615953944
 20
6.290499931668734
 30
0.0
  0
VERTEX
  5
3EF
  8
THREE_QUARTER_INCH_THRUCUT
 10
73.9236391595394
 20
6.269246931668732
 30
0.0
  0
VERTEX
  5
3F0
  8
THREE_QUARTER_INCH_THRUCUT
 10
73.90436515953941
 20
6.244483931668753
 30
0.0
  0
VERTEX
  5
3F1
  8
THREE_QUARTER_INCH_THRUCUT
 10
73.88943015953943
 20
6.216885931668742
 30
0.0
  0
VERTEX
  5
3F2
  8
THREE_QUARTER_INCH_THRUCUT
 10
73.8792401595394
 20
6.187205931668728
 30
0.0
  0
VERTEX
  5
3F3
  8
THREE_QUARTER_INCH_THRUCUT
 10
73.87407515953943
 20
6.156253931668743
 30
0.0
  0
VERTEX
  5
3F4
  8
THREE_QUARTER_INCH_THRUCUT
 10
73.87407515953943
 20
6.124873931668759
 30
0.0
  0
VERTEX
  5
3F5
  8
THREE_QUARTER_INCH_THRUCUT
 10
73.8792401595394
 20
6.093920931668748
 30
0.0
  0
VERTEX
  5
3F6
  8
THREE_QUARTER_INCH_THRUCUT
 10
73.88943015953943
 20
6.064241931668761
 30
0.0
  0
VERTEX
  5
3F7
  8
THREE_QUARTER_INCH_THRUCUT
 10
73.90436515953941
 20
6.036643931668749
 30
0.0
  0
VERTEX
  5
3F8
  8
THREE_QUARTER_INCH_THRUCUT
 10
73.9236391595394
 20
6.011879931668744
 30
0.0
  0
VERTEX
  5
3F9
  8
THREE_QUARTER_INCH_THRUCUT
 10
73.94672615953944
 20
5.990626931668743
 30
0.0
  0
VERTEX
  5
3FA
  8
THREE_QUARTER_INCH_THRUCUT
 10
73.97299615953939
 20
5.973463931668761
 30
0.0
  0
VERTEX
  5
3FB
  8
THREE_QUARTER_INCH_THRUCUT
 10
74.00173415953942
 20
5.960857931668755
 30
0.0
  0
VERTEX
  5
3FC
  8
THREE_QUARTER_INCH_THRUCUT
 10
74.03215415953942
 20
5.953154931668763
 30
0.0
  0
VERTEX
  5
3FD
  8
THREE_QUARTER_INCH_THRUCUT
 10
74.06342615953942
 20
5.950563931668739
 30
0.0
  0
VERTEX
  5
3FE
  8
THREE_QUARTER_INCH_THRUCUT
 10
74.81342615953942
 20
5.950563931668739
 30
0.0
  0
VERTEX
  5
3FF
  8
THREE_QUARTER_INCH_THRUCUT
 10
74.84469915953942
 20
5.953154931668763
 30
0.0
  0
VERTEX
  5
400
  8
THREE_QUARTER_INCH_THRUCUT
 10
74.87511915953941
 20
5.960857931668755
 30
0.0
  0
VERTEX
  5
401
  8
THREE_QUARTER_INCH_THRUCUT
 10
74.90385615953939
 20
5.973463931668761
 30
0.0
  0
VERTEX
  5
402
  8
THREE_QUARTER_INCH_THRUCUT
 10
74.9301271595394
 20
5.990626931668743
 30
0.0
  0
VERTEX
  5
403
  8
THREE_QUARTER_INCH_THRUCUT
 10
74.95321415953943
 20
6.011879931668744
 30
0.0
  0
VERTEX
  5
404
  8
THREE_QUARTER_INCH_THRUCUT
 10
74.97248815953942
 20
6.036643931668749
 30
0.0
  0
VERTEX
  5
405
  8
THREE_QUARTER_INCH_THRUCUT
 10
74.9874231595394
 20
6.064241931668761
 30
0.0
  0
VERTEX
  5
406
  8
THREE_QUARTER_INCH_THRUCUT
 10
74.99761315953943
 20
6.093920931668748
 30
0.0
  0
VERTEX
  5
407
  8
THREE_QUARTER_INCH_THRUCUT
 10
75.0027781595394
 20
6.124873931668759
 30
0.0
  0
VERTEX
  5
408
  8
THREE_QUARTER_INCH_THRUCUT
 10
75.0027781595394
 20
6.156253931668743
 30
0.0
  0
VERTEX
  5
409
  8
THREE_QUARTER_INCH_THRUCUT
 10
74.99761315953943
 20
6.187205931668728
 30
0.0
  0
VERTEX
  5
40A
  8
THREE_QUARTER_INCH_THRUCUT
 10
74.9874231595394
 20
6.216885931668742
 30
0.0
  0
VERTEX
  5
40B
  8
THREE_QUARTER_INCH_THRUCUT
 10
74.97248815953942
 20
6.244483931668753
 30
0.0
  0
VERTEX
  5
40C
  8
THREE_QUARTER_INCH_THRUCUT
 10
74.95321415953943
 20
6.269246931668732
 30
0.0
  0
VERTEX
  5
40D
  8
THREE_QUARTER_INCH_THRUCUT
 10
74.9301271595394
 20
6.290499931668734
 30
0.0
  0
VERTEX
  5
40E
  8
THREE_QUARTER_INCH_THRUCUT
 10
74.90385615953939
 20
6.307663931668742
 30
0.0
  0
VERTEX
  5
40F
  8
THREE_QUARTER_INCH_THRUCUT
 10
74.87511915953941
 20
6.32026893166875
 30
0.0
  0
VERTEX
  5
410
  8
THREE_QUARTER_INCH_THRUCUT
 10
74.84469915953942
 20
6.327971931668742
 30
0.0
  0
VERTEX
  5
411
  8
THREE_QUARTER_INCH_THRUCUT
 10
74.81342615953942
 20
6.330563931668763
 30
0.0
  0
VERTEX
  5
412
  8
THREE_QUARTER_INCH_THRUCUT
 10
74.81342615953942
 20
7.450563556668754
 30
0.0
  0
VERTEX
  5
413
  8
THREE_QUARTER_INCH_THRUCUT
 10
76.95650815953938
 20
7.450563556668754
 30
0.0
  0
VERTEX
  5
414
  8
THREE_QUARTER_INCH_THRUCUT
 10
76.95650815953941
 20
3.950564169869267
 30
0.0
 42
-0.4142133630070199
  0
VERTEX
  5
415
  8
THREE_QUARTER_INCH_THRUCUT
 10
73.9565089187579
 20
0.9505639316689385
 30
0.0
  0
SEQEND
  5
47F
  8
THREE_QUARTER_INCH_THRUCUT
  0
POLYLINE
  5
9E
  8
THREE_QUARTER_INCH_THRUCUT
 66
     1
 10
0.0
 20
0.0
 30
0.0
 70
     1
  0
VERTEX
  5
416
  8
THREE_QUARTER_INCH_THRUCUT
 10
1.91477770820287
 20
11.68901064622375
 30
0.0
  0
VERTEX
  5
417
  8
THREE_QUARTER_INCH_THRUCUT
 10
1.914777708202877
 20
27.43901064668827
 30
0.0
  0
VERTEX
  5
418
  8
THREE_QUARTER_INCH_THRUCUT
 10
2.664777708202877
 20
27.43901064668827
 30
0.0
 42
1.0
  0
VERTEX
  5
419
  8
THREE_QUARTER_INCH_THRUCUT
 10
2.664777708202877
 20
27.81901064668816
 30
0.0
  0
VERTEX
  5
41A
  8
THREE_QUARTER_INCH_THRUCUT
 10
2.664777708202877
 20
30.05901064668839
 30
0.0
 42
1.0
  0
VERTEX
  5
41B
  8
THREE_QUARTER_INCH_THRUCUT
 10
2.664777708202877
 20
30.43901064668827
 30
0.0
  0
VERTEX
  5
41C
  8
THREE_QUARTER_INCH_THRUCUT
 10
1.914777708202877
 20
30.43901064668827
 30
0.0
  0
VERTEX
  5
41D
  8
THREE_QUARTER_INCH_THRUCUT
 10
1.914777708202877
 20
46.18901064818729
 30
0.0
  0
VERTEX
  5
41E
  8
THREE_QUARTER_INCH_THRUCUT
 10
67.91477770820288
 20
46.18901063526752
 30
0.0
  0
VERTEX
  5
41F
  8
THREE_QUARTER_INCH_THRUCUT
 10
67.91477770820288
 20
39.25151064668827
 30
0.0
  0
VERTEX
  5
420
  8
THREE_QUARTER_INCH_THRUCUT
 10
67.1647777081995
 20
39.25151064668805
 30
0.0
 42
1.0
  0
VERTEX
  5
421
  8
THREE_QUARTER_INCH_THRUCUT
 10
67.16477770819938
 20
38.99072324511323
 30
0.0
  0
VERTEX
  5
422
  8
THREE_QUARTER_INCH_THRUCUT
 10
67.16477770819719
 20
32.69979804826286
 30
0.0
 42
1.0
  0
VERTEX
  5
423
  8
THREE_QUARTER_INCH_THRUCUT
 10
67.16477770819694
 20
32.43901064668805
 30
0.0
  0
VERTEX
  5
424
  8
THREE_QUARTER_INCH_THRUCUT
 10
67.53977770820288
 20
32.43901064668827
 30
0.0
  0
VERTEX
  5
425
  8
THREE_QUARTER_INCH_THRUCUT
 10
67.53977770820288
 20
30.43901064668827
 30
0.0
  0
VERTEX
  5
426
  8
THREE_QUARTER_INCH_THRUCUT
 10
67.16477770820421
 20
30.43901064668805
 30
0.0
 42
1.0
  0
VERTEX
  5
427
  8
THREE_QUARTER_INCH_THRUCUT
 10
67.1647777082041
 20
30.17822324511323
 30
0.0
  0
VERTEX
  5
428
  8
THREE_QUARTER_INCH_THRUCUT
 10
67.1647777082002
 20
27.69979804826286
 30
0.0
 42
1.0
  0
VERTEX
  5
429
  8
THREE_QUARTER_INCH_THRUCUT
 10
67.16477770819981
 20
27.43901064668805
 30
0.0
  0
VERTEX
  5
42A
  8
THREE_QUARTER_INCH_THRUCUT
 10
67.53977770820288
 20
27.43901064668827
 30
0.0
  0
VERTEX
  5
42B
  8
THREE_QUARTER_INCH_THRUCUT
 10
67.53977770820288
 20
25.43901064668827
 30
0.0
  0
VERTEX
  5
42C
  8
THREE_QUARTER_INCH_THRUCUT
 10
67.16477770820421
 20
25.43901064668805
 30
0.0
 42
1.0
  0
VERTEX
  5
42D
  8
THREE_QUARTER_INCH_THRUCUT
 10
67.16477770820416
 20
25.17822324511323
 30
0.0
  0
VERTEX
  5
42E
  8
THREE_QUARTER_INCH_THRUCUT
 10
67.16477770819711
 20
18.88729804826286
 30
0.0
 42
1.0
  0
VERTEX
  5
42F
  8
THREE_QUARTER_INCH_THRUCUT
 10
67.1647777081968
 20
18.62651064668805
 30
0.0
  0
VERTEX
  5
430
  8
THREE_QUARTER_INCH_THRUCUT
 10
67.91477770820288
 20
18.62651064668827
 30
0.0
  0
VERTEX
  5
431
  8
THREE_QUARTER_INCH_THRUCUT
 10
67.91477770820288
 20
11.6890106417313
 30
0.0
  0
SEQEND
  5
480
  8
THREE_QUARTER_INCH_THRUCUT
  0
POLYLINE
  5
9F
  8
THREE_QUARTER_INCH_THRUCUT
 66
     1
 10
0.0
 20
0.0
 30
0.0
 70
     1
  0
VERTEX
  5
432
  8
THREE_QUARTER_INCH_THRUCUT
 10
45.91477770819927
 20
30.17822324511232
 30
0.0
  0
VERTEX
  5
433
  8
THREE_QUARTER_INCH_THRUCUT
 10
45.91477770820296
 20
27.69979804826377
 30
0.0
 42
-1.0
  0
VERTEX
  5
434
  8
THREE_QUARTER_INCH_THRUCUT
 10
45.91477770820336
 20
27.43901064668896
 30
0.0
  0
VERTEX
  5
435
  8
THREE_QUARTER_INCH_THRUCUT
 10
45.16477770819904
 20
27.4390106466893
 30
0.0
 42
-1.0
  0
VERTEX
  5
436
  8
THREE_QUARTER_INCH_THRUCUT
 10
45.16477770819927
 20
27.69979804826411
 30
0.0
  0
VERTEX
  5
437
  8
THREE_QUARTER_INCH_THRUCUT
 10
45.16477770820109
 20
30.17822324511448
 30
0.0
 42
-1.0
  0
VERTEX
  5
438
  8
THREE_QUARTER_INCH_THRUCUT
 10
45.16477770820131
 20
30.4390106466893
 30
0.0
  0
VERTEX
  5
439
  8
THREE_QUARTER_INCH_THRUCUT
 10
45.91477770819904
 20
30.43901064668714
 30
0.0
 42
-1.0
  0
SEQEND
  5
481
  8
THREE_QUARTER_INCH_THRUCUT
  0
POLYLINE
  5
A0
  8
THREE_QUARTER_INCH_THRUCUT
 66
     1
 10
0.0
 20
0.0
 30
0.0
 70
     1
  0
VERTEX
  5
43A
  8
THREE_QUARTER_INCH_THRUCUT
 10
23.9147777082009
 20
30.17822324511232
 30
0.0
  0
VERTEX
  5
43B
  8
THREE_QUARTER_INCH_THRUCUT
 10
23.9147777082046
 20
27.69979804826377
 30
0.0
 42
-1.0
  0
VERTEX
  5
43C
  8
THREE_QUARTER_INCH_THRUCUT
 10
23.91477770820499
 20
27.43901064668896
 30
0.0
  0
VERTEX
  5
43D
  8
THREE_QUARTER_INCH_THRUCUT
 10
23.16477770820067
 20
27.4390106466893
 30
0.0
 42
-1.0
  0
VERTEX
  5
43E
  8
THREE_QUARTER_INCH_THRUCUT
 10
23.1647777082009
 20
27.69979804826411
 30
0.0
  0
VERTEX
  5
43F
  8
THREE_QUARTER_INCH_THRUCUT
 10
23.16477770820272
 20
30.17822324511448
 30
0.0
 42
-1.0
  0
VERTEX
  5
440
  8
THREE_QUARTER_INCH_THRUCUT
 10
23.16477770820295
 20
30.4390106466893
 30
0.0
  0
VERTEX
  5
441
  8
THREE_QUARTER_INCH_THRUCUT
 10
23.91477770820067
 20
30.43901064668714
 30
0.0
 42
-1.0
  0
SEQEND
  5
482
  8
THREE_QUARTER_INCH_THRUCUT
  0
POLYLINE
  5
A1
  8
THREE_QUARTER_INCH_THRUCUT
 66
     1
 10
0.0
 20
0.0
 30
0.0
 70
     1
  0
VERTEX
  5
442
  8
THREE_QUARTER_INCH_THRUCUT
 10
6.186795137267092
 20
4.080298019959294
 30
0.0
 42
0.961490096133456
  0
VERTEX
  5
443
  8
THREE_QUARTER_INCH_THRUCUT
 10
6.233777553873502
 20
3.683386295681742
 30
0.0
 42
0.9614707681241729
  0
VERTEX
  5
444
  8
THREE_QUARTER_INCH_THRUCUT
 10
6.218082137267093
 20
4.082761019959293
 30
0.0
 42
0.0196430313934635
  0
VERTEX
  5
445
  8
THREE_QUARTER_INCH_THRUCUT
 10
6.202394255087063
 20
4.082144486584696
 30
0.0
 42
0.0196329840983488
  0
SEQEND
  5
483
  8
THREE_QUARTER_INCH_THRUCUT
  0
POLYLINE
  5
A2
  8
THREE_QUARTER_INCH_THRUCUT
 66
     1
 10
0.0
 20
0.0
 30
0.0
 70
     1
  0
VERTEX
  5
446
  8
THREE_QUARTER_INCH_THRUCUT
 10
28.18335213726708
 20
4.079722019959291
 30
0.0
 42
0.9203497392141604
  0
VERTEX
  5
447
  8
THREE_QUARTER_INCH_THRUCUT
 10
28.21982641106882
 20
3.682782076602385
 30
0.0
 42
0.920351574329487
  0
VERTEX
  5
448
  8
THREE_QUARTER_INCH_THRUCUT
 10
28.24936813726708
 20
4.080298019959294
 30
0.0
 42
0.0414759603059265
  0
VERTEX
  5
449
  8
THREE_QUARTER_INCH_THRUCUT
 10
28.21633580827047
 20
4.082752844816554
 30
0.0
 42
0.0414769555563666
  0
SEQEND
  5
484
  8
THREE_QUARTER_INCH_THRUCUT
  0
POLYLINE
  5
A3
  8
THREE_QUARTER_INCH_THRUCUT
 66
     1
 10
0.0
 20
0.0
 30
0.0
 70
     1
  0
VERTEX
  5
44A
  8
THREE_QUARTER_INCH_THRUCUT
 10
50.47315615953944
 20
4.147524931668755
 30
0.0
 42
-0.9203497392142354
  0
VERTEX
  5
44B
  8
THREE_QUARTER_INCH_THRUCUT
 10
50.43668188573766
 20
3.7505849883118
 30
0.0
 42
-0.9203515743295231
  0
VERTEX
  5
44C
  8
THREE_QUARTER_INCH_THRUCUT
 10
50.4071401595394
 20
4.14810093166875
 30
0.0
 42
-0.0414759603059335
  0
VERTEX
  5
44D
  8
THREE_QUARTER_INCH_THRUCUT
 10
50.44017248853602
 20
4.150555756526018
 30
0.0
 42
-0.041476955556153
  0
SEQEND
  5
485
  8
THREE_QUARTER_INCH_THRUCUT
  0
POLYLINE
  5
A4
  8
THREE_QUARTER_INCH_THRUCUT
 66
     1
 10
0.0
 20
0.0
 30
0.0
 70
     1
  0
VERTEX
  5
44E
  8
THREE_QUARTER_INCH_THRUCUT
 10
72.46971315953944
 20
4.14810093166875
 30
0.0
 42
-0.9614900961334423
  0
VERTEX
  5
44F
  8
THREE_QUARTER_INCH_THRUCUT
 10
72.42273074293304
 20
3.751189207391036
 30
0.0
 42
-0.9614707681242259
  0
VERTEX
  5
450
  8
THREE_QUARTER_INCH_THRUCUT
 10
72.43842615953942
 20
4.150563931668756
 30
0.0
 42
-0.0196430313934435
  0
VERTEX
  5
451
  8
THREE_QUARTER_INCH_THRUCUT
 10
72.45411404171945
 20
4.149947398294131
 30
0.0
 42
-0.0196329840985384
  0
SEQEND
  5
486
  8
THREE_QUARTER_INCH_THRUCUT
  0
ENDSEC
  0
EOF
