  0
SECTION
  2
HEADER
  9
$ACADVER
  1
AC1009
  9
$DWGCODEPAGE
  3
ansi_1252
  9
$INSBASE
 10
0.0
 20
0.0
 30
0.0
  9
$EXTMIN
 10
1.575286888356086
 20
1.627105039765282
 30
0.0
  9
$EXTMAX
 10
94.65209760944127
 20
47.28471316205197
 30
0.0
  9
$LIMMIN
 10
0.0
 20
0.0
  9
$LIMMAX
 10
12.0
 20
9.0
  9
$ORTHOMODE
 70
     0
  9
$REGENMODE
 70
     1
  9
$FILLMODE
 70
     1
  9
$QTEXTMODE
 70
     0
  9
$MIRRTEXT
 70
     1
  9
$DRAGMODE
 70
     2
  9
$LTSCALE
 40
1.0
  9
$OSMODE
 70
    37
  9
$ATTMODE
 70
     1
  9
$TEXTSIZE
 40
0.2
  9
$TRACEWID
 40
0.05
  9
$TEXTSTYLE
  7
STANDARD
  9
$CLAYER
  8
0
  9
$CELTYPE
  6
BYLAYER
  9
$CECOLOR
 62
   256
  9
$DIMSCALE
 40
1.0
  9
$DIMASZ
 40
0.18
  9
$DIMEXO
 40
0.0625
  9
$DIMDLI
 40
0.38
  9
$DIMRND
 40
0.0
  9
$DIMDLE
 40
0.0
  9
$DIMEXE
 40
0.18
  9
$DIMTP
 40
0.0
  9
$DIMTM
 40
0.0
  9
$DIMTXT
 40
0.18
  9
$DIMCEN
 40
0.09
  9
$DIMTSZ
 40
0.0
  9
$DIMTOL
 70
     0
  9
$DIMLIM
 70
     0
  9
$DIMTIH
 70
     1
  9
$DIMTOH
 70
     1
  9
$DIMSE1
 70
     0
  9
$DIMSE2
 70
     0
  9
$DIMTAD
 70
     0
  9
$DIMZIN
 70
     0
  9
$DIMBLK
  1

  9
$DIMASO
 70
     1
  9
$DIMSHO
 70
     1
  9
$DIMPOST
  1

  9
$DIMAPOST
  1

  9
$DIMALT
 70
     0
  9
$DIMALTD
 70
     2
  9
$DIMALTF
 40
25.4
  9
$DIMLFAC
 40
1.0
  9
$DIMTOFL
 70
     0
  9
$DIMTVP
 40
0.0
  9
$DIMTIX
 70
     0
  9
$DIMSOXD
 70
     0
  9
$DIMSAH
 70
     0
  9
$DIMBLK1
  1

  9
$DIMBLK2
  1

  9
$DIMSTYLE
  2
STANDARD
  9
$DIMCLRD
 70
     0
  9
$DIMCLRE
 70
     0
  9
$DIMCLRT
 70
     0
  9
$DIMTFAC
 40
1.0
  9
$DIMGAP
 40
0.09
  9
$LUNITS
 70
     2
  9
$LUPREC
 70
     4
  9
$SKETCHINC
 40
0.1
  9
$FILLETRAD
 40
0.5
  9
$AUNITS
 70
     0
  9
$AUPREC
 70
     0
  9
$MENU
  1
.
  9
$ELEVATION
 40
0.0
  9
$PELEVATION
 40
0.0
  9
$THICKNESS
 40
0.0
  9
$LIMCHECK
 70
     0
  9
$CHAMFERA
 40
0.0
  9
$CHAMFERB
 40
0.0
  9
$SKPOLY
 70
     0
  9
$TDCREATE
 40
2454910.5
  9
$TDUPDATE
 40
2457902.637807037
  9
$TDINDWG
 40
0.0000000116
  9
$TDUSRTIMER
 40
0.0000000116
  9
$USRTIMER
 70
     1
  9
$ANGBASE
 50
0.0
  9
$ANGDIR
 70
     0
  9
$PDMODE
 70
     0
  9
$PDSIZE
 40
0.0
  9
$PLINEWID
 40
0.0
  9
$COORDS
 70
     1
  9
$SPLFRAME
 70
     0
  9
$SPLINETYPE
 70
     6
  9
$SPLINESEGS
 70
     8
  9
$ATTDIA
 70
     0
  9
$ATTREQ
 70
     1
  9
$HANDLING
 70
     1
  9
$HANDSEED
  5
43F
  9
$SURFTAB1
 70
     6
  9
$SURFTAB2
 70
     6
  9
$SURFTYPE
 70
     6
  9
$SURFU
 70
     6
  9
$SURFV
 70
     6
  9
$UCSNAME
  2

  9
$UCSORG
 10
0.0
 20
0.0
 30
0.0
  9
$UCSXDIR
 10
1.0
 20
0.0
 30
0.0
  9
$UCSYDIR
 10
0.0
 20
1.0
 30
0.0
  9
$PUCSNAME
  2

  9
$PUCSORG
 10
0.0
 20
0.0
 30
0.0
  9
$PUCSXDIR
 10
1.0
 20
0.0
 30
0.0
  9
$PUCSYDIR
 10
0.0
 20
1.0
 30
0.0
  9
$USERI1
 70
     0
  9
$USERI2
 70
     0
  9
$USERI3
 70
     0
  9
$USERI4
 70
     0
  9
$USERI5
 70
     0
  9
$USERR1
 40
0.0
  9
$USERR2
 40
0.0
  9
$USERR3
 40
0.0
  9
$USERR4
 40
0.0
  9
$USERR5
 40
0.0
  9
$WORLDVIEW
 70
     1
  9
$SHADEDGE
 70
     3
  9
$SHADEDIF
 70
    70
  9
$TILEMODE
 70
     1
  9
$MAXACTVP
 70
    64
  9
$PLIMCHECK
 70
     0
  9
$PEXTMIN
 10
1.000000000000000E+20
 20
1.000000000000000E+20
 30
1.000000000000000E+20
  9
$PEXTMAX
 10
-1.000000000000000E+20
 20
-1.000000000000000E+20
 30
-1.000000000000000E+20
  9
$PLIMMIN
 10
0.0
 20
0.0
  9
$PLIMMAX
 10
12.0
 20
9.0
  9
$UNITMODE
 70
     0
  9
$VISRETAIN
 70
     1
  9
$PLINEGEN
 70
     0
  9
$PSLTSCALE
 70
     1
  0
ENDSEC
  0
SECTION
  2
TABLES
  0
TABLE
  2
VPORT
 70
     1
  0
VPORT
  2
*ACTIVE
 70
     0
 10
0.0
 20
0.0
 11
1.0
 21
1.0
 12
10.42990654205607
 22
4.5
 13
0.0
 23
0.0
 14
0.5
 24
0.5
 15
0.5
 25
0.5
 16
0.0
 26
0.0
 36
1.0
 17
0.0
 27
0.0
 37
0.0
 40
9.0
 41
1.972972972850329
 42
50.0
 43
0.0
 44
0.0
 50
0.0
 51
0.0
 71
     0
 72
   100
 73
     1
 74
     3
 75
     0
 76
     0
 77
     0
 78
     0
  0
ENDTAB
  0
TABLE
  2
LTYPE
 70
     2
  0
LTYPE
  2
CONTINUOUS
 70
     0
  3
Solid line
 72
    65
 73
     0
 40
0.0
  0
LTYPE
  2
CONTINUOUS2
 70
     0
  3
Solid Line
 72
    65
 73
     0
 40
0.0
  0
ENDTAB
  0
TABLE
  2
LAYER
 70
     6
  0
LAYER
  2
0
 70
     0
 62
     7
  6
CONTINUOUS
  0
LAYER
  2
SCREW_LOCATION_RECESS
 70
     0
 62
     1
  6
CONTINUOUS
  0
LAYER
  2
LABELS
 70
     0
 62
   150
  6
CONTINUOUS
  0
LAYER
  2
THREE_QUARTER_INCH_THRUCUT
 70
     0
 62
    18
  6
CONTINUOUS
  0
LAYER
  2
OPTIONAL_ATFAB_FURNITURE_C
 70
     0
 62
   105
  6
CONTINUOUS
  0
LAYER
  2
OPTIONAL_ATFAB_FURNITURE_S
 70
     0
 62
   245
  6
CONTINUOUS
  0
ENDTAB
  0
TABLE
  2
STYLE
 70
     1
  0
STYLE
  2
STANDARD
 70
     0
 40
0.0
 41
1.0
 50
0.0
 71
     0
 42
0.2
  3
txt
  4

  0
ENDTAB
  0
TABLE
  2
VIEW
 70
     0
  0
ENDTAB
  0
TABLE
  2
UCS
 70
     0
  0
ENDTAB
  0
TABLE
  2
APPID
 70
     1
  0
APPID
  2
ACAD
 70
     0
  0
ENDTAB
  0
TABLE
  2
DIMSTYLE
 70
     1
  0
DIMSTYLE
  2
STANDARD
 70
     0
  3

  4

  5

  6

  7

 40
1.0
 41
0.18
 42
0.0625
 43
0.38
 44
0.18
 45
0.0
 46
0.0
 47
0.0
 48
0.0
140
0.18
141
0.09
142
0.0
143
25.4
144
1.0
145
0.0
146
1.0
147
0.09
 71
     0
 72
     0
 73
     1
 74
     1
 75
     0
 76
     0
 77
     0
 78
     0
170
     0
171
     2
172
     0
173
     0
174
     0
175
     0
176
     0
177
     0
178
     0
  0
ENDTAB
  0
ENDSEC
  0
SECTION
  2
BLOCKS
  0
BLOCK
  8
0
  2
$MODEL_SPACE
 70
     0
 10
0.0
 20
0.0
 30
0.0
  3
$MODEL_SPACE
  1

  0
ENDBLK
  5
21
  8
0
  0
BLOCK
 67
     1
  8
0
  2
$PAPER_SPACE
 70
     0
 10
0.0
 20
0.0
 30
0.0
  3
$PAPER_SPACE
  1

  0
ENDBLK
  5
1D
 67
     1
  8
0
  0
ENDSEC
  0
SECTION
  2
ENTITIES
  0
POLYLINE
  5
70
  8
SCREW_LOCATION_RECESS
 66
     1
 10
0.0
 20
0.0
 30
0.0
 70
     1
  0
VERTEX
  5
AF
  8
SCREW_LOCATION_RECESS
 10
23.95028688837401
 20
35.91471316206142
 30
0.0
 42
0.4142135623730951
  0
VERTEX
  5
B0
  8
SCREW_LOCATION_RECESS
 10
23.82028688837404
 20
35.78471316206142
 30
0.0
 42
0.4142135623730951
  0
VERTEX
  5
B1
  8
SCREW_LOCATION_RECESS
 10
23.95028688837401
 20
35.6547131620614
 30
0.0
 42
0.4142135623730951
  0
VERTEX
  5
B2
  8
SCREW_LOCATION_RECESS
 10
24.08028688837401
 20
35.78471316206142
 30
0.0
 42
0.4142135623730951
  0
SEQEND
  5
40B
  8
SCREW_LOCATION_RECESS
  0
POLYLINE
  5
71
  8
SCREW_LOCATION_RECESS
 66
     1
 10
0.0
 20
0.0
 30
0.0
 70
     1
  0
VERTEX
  5
B3
  8
SCREW_LOCATION_RECESS
 10
45.95028688837402
 20
35.91471316206142
 30
0.0
 42
0.4142135623730951
  0
VERTEX
  5
B4
  8
SCREW_LOCATION_RECESS
 10
45.82028688837404
 20
35.78471316206142
 30
0.0
 42
0.4142135623730951
  0
VERTEX
  5
B5
  8
SCREW_LOCATION_RECESS
 10
45.95028688837402
 20
35.6547131620614
 30
0.0
 42
0.4142135623730951
  0
VERTEX
  5
B6
  8
SCREW_LOCATION_RECESS
 10
46.08028688837403
 20
35.78471316206142
 30
0.0
 42
0.4142135623730951
  0
SEQEND
  5
40C
  8
SCREW_LOCATION_RECESS
  0
POLYLINE
  5
72
  8
SCREW_LOCATION_RECESS
 66
     1
 10
0.0
 20
0.0
 30
0.0
 70
     1
  0
VERTEX
  5
B7
  8
SCREW_LOCATION_RECESS
 10
23.95028688837401
 20
17.15471316204566
 30
0.0
 42
-0.4142135623730951
  0
VERTEX
  5
B8
  8
SCREW_LOCATION_RECESS
 10
23.82028688837404
 20
17.28471316204568
 30
0.0
 42
-0.4142135623730951
  0
VERTEX
  5
B9
  8
SCREW_LOCATION_RECESS
 10
23.95028688837401
 20
17.4147131620457
 30
0.0
 42
-0.4142135623730951
  0
VERTEX
  5
BA
  8
SCREW_LOCATION_RECESS
 10
24.08028688837401
 20
17.28471316204568
 30
0.0
 42
-0.4142135623730951
  0
SEQEND
  5
40D
  8
SCREW_LOCATION_RECESS
  0
POLYLINE
  5
73
  8
SCREW_LOCATION_RECESS
 66
     1
 10
0.0
 20
0.0
 30
0.0
 70
     1
  0
VERTEX
  5
BB
  8
SCREW_LOCATION_RECESS
 10
45.95028688837402
 20
17.15471316204567
 30
0.0
 42
-0.4142135623730951
  0
VERTEX
  5
BC
  8
SCREW_LOCATION_RECESS
 10
45.82028688837404
 20
17.28471316204568
 30
0.0
 42
-0.4142135623730951
  0
VERTEX
  5
BD
  8
SCREW_LOCATION_RECESS
 10
45.95028688837402
 20
17.41471316204569
 30
0.0
 42
-0.4142135623730951
  0
VERTEX
  5
BE
  8
SCREW_LOCATION_RECESS
 10
46.08028688837403
 20
17.28471316204568
 30
0.0
 42
-0.4142135623730951
  0
SEQEND
  5
40E
  8
SCREW_LOCATION_RECESS
  0
POLYLINE
  5
74
  8
SCREW_LOCATION_RECESS
 66
     1
 10
0.0
 20
0.0
 30
0.0
 70
     1
  0
VERTEX
  5
BF
  8
SCREW_LOCATION_RECESS
 10
51.47028688892202
 20
10.16471316424081
 30
0.0
 42
0.4142135623730951
  0
VERTEX
  5
C0
  8
SCREW_LOCATION_RECESS
 10
51.34028688892198
 20
10.03471316424076
 30
0.0
 42
0.4142135623730951
  0
VERTEX
  5
C1
  8
SCREW_LOCATION_RECESS
 10
51.47028688892202
 20
9.90471316424085
 30
0.0
 42
0.4142135623730951
  0
VERTEX
  5
C2
  8
SCREW_LOCATION_RECESS
 10
51.60028688892203
 20
10.03471316424075
 30
0.0
 42
0.4142135623730951
  0
SEQEND
  5
40F
  8
SCREW_LOCATION_RECESS
  0
POLYLINE
  5
75
  8
SCREW_LOCATION_RECESS
 66
     1
 10
0.0
 20
0.0
 30
0.0
 70
     1
  0
VERTEX
  5
C3
  8
SCREW_LOCATION_RECESS
 10
40.47028688892201
 20
10.16471316425416
 30
0.0
 42
0.4142135623730951
  0
VERTEX
  5
C4
  8
SCREW_LOCATION_RECESS
 10
40.34028688892198
 20
10.03471316425409
 30
0.0
 42
0.4142135623730951
  0
VERTEX
  5
C5
  8
SCREW_LOCATION_RECESS
 10
40.47028688892201
 20
9.904713164254195
 30
0.0
 42
0.4142135623730951
  0
VERTEX
  5
C6
  8
SCREW_LOCATION_RECESS
 10
40.60028688892203
 20
10.03471316425409
 30
0.0
 42
0.4142135623730951
  0
SEQEND
  5
410
  8
SCREW_LOCATION_RECESS
  0
POLYLINE
  5
76
  8
SCREW_LOCATION_RECESS
 66
     1
 10
0.0
 20
0.0
 30
0.0
 70
     1
  0
VERTEX
  5
C7
  8
SCREW_LOCATION_RECESS
 10
7.470286888922001
 20
10.16471316423103
 30
0.0
 42
0.4142135623730951
  0
VERTEX
  5
C8
  8
SCREW_LOCATION_RECESS
 10
7.340286888921984
 20
10.03471316423098
 30
0.0
 42
0.4142135623730951
  0
VERTEX
  5
C9
  8
SCREW_LOCATION_RECESS
 10
7.470286888922001
 20
9.904713164231067
 30
0.0
 42
0.4142135623730951
  0
VERTEX
  5
CA
  8
SCREW_LOCATION_RECESS
 10
7.600286888922021
 20
10.03471316423096
 30
0.0
 42
0.4142135623730951
  0
SEQEND
  5
411
  8
SCREW_LOCATION_RECESS
  0
POLYLINE
  5
77
  8
SCREW_LOCATION_RECESS
 66
     1
 10
0.0
 20
0.0
 30
0.0
 70
     1
  0
VERTEX
  5
CB
  8
SCREW_LOCATION_RECESS
 10
29.47028688892199
 20
9.904713164246491
 30
0.0
 42
-0.4142135623730951
  0
VERTEX
  5
CC
  8
SCREW_LOCATION_RECESS
 10
29.34028688892198
 20
10.03471316424639
 30
0.0
 42
-0.4142135623730951
  0
VERTEX
  5
CD
  8
SCREW_LOCATION_RECESS
 10
29.47028688892199
 20
10.16471316424644
 30
0.0
 42
-0.4142135623730951
  0
VERTEX
  5
CE
  8
SCREW_LOCATION_RECESS
 10
29.60028688892203
 20
10.03471316424639
 30
0.0
 42
-0.4142135623730951
  0
SEQEND
  5
412
  8
SCREW_LOCATION_RECESS
  0
POLYLINE
  5
78
  8
SCREW_LOCATION_RECESS
 66
     1
 10
0.0
 20
0.0
 30
0.0
 70
     1
  0
VERTEX
  5
CF
  8
SCREW_LOCATION_RECESS
 10
18.47028688892199
 20
9.904713164238778
 30
0.0
 42
-0.4142135623730951
  0
VERTEX
  5
D0
  8
SCREW_LOCATION_RECESS
 10
18.34028688892198
 20
10.03471316423869
 30
0.0
 42
-0.4142135623730951
  0
VERTEX
  5
D1
  8
SCREW_LOCATION_RECESS
 10
18.47028688892199
 20
10.16471316423873
 30
0.0
 42
-0.4142135623730951
  0
VERTEX
  5
D2
  8
SCREW_LOCATION_RECESS
 10
18.60028688892204
 20
10.03471316423867
 30
0.0
 42
-0.4142135623730951
  0
SEQEND
  5
413
  8
SCREW_LOCATION_RECESS
  0
POLYLINE
  5
79
  8
SCREW_LOCATION_RECESS
 66
     1
 10
0.0
 20
0.0
 30
0.0
 70
     1
  0
VERTEX
  5
D3
  8
SCREW_LOCATION_RECESS
 10
66.23153688835832
 20
9.90471316423808
 30
0.0
 42
-0.4142135623730951
  0
VERTEX
  5
D4
  8
SCREW_LOCATION_RECESS
 10
66.1015368883583
 20
10.03471316423799
 30
0.0
 42
-0.4142135623730951
  0
VERTEX
  5
D5
  8
SCREW_LOCATION_RECESS
 10
66.23153688835832
 20
10.16471316423804
 30
0.0
 42
-0.4142135623730951
  0
VERTEX
  5
D6
  8
SCREW_LOCATION_RECESS
 10
66.36153688835833
 20
10.03471316423799
 30
0.0
 42
-0.4142135623730951
  0
SEQEND
  5
414
  8
SCREW_LOCATION_RECESS
  0
POLYLINE
  5
7A
  8
SCREW_LOCATION_RECESS
 66
     1
 10
0.0
 20
0.0
 30
0.0
 70
     1
  0
VERTEX
  5
D7
  8
SCREW_LOCATION_RECESS
 10
62.47028688891188
 20
9.904713164269602
 30
0.0
 42
-0.4142135623730951
  0
VERTEX
  5
D8
  8
SCREW_LOCATION_RECESS
 10
62.34028688892199
 20
10.03471316427964
 30
0.0
 42
-0.4142135623730951
  0
VERTEX
  5
D9
  8
SCREW_LOCATION_RECESS
 10
62.47028688893213
 20
10.16471316426957
 30
0.0
 42
-0.4142135623730951
  0
VERTEX
  5
DA
  8
SCREW_LOCATION_RECESS
 10
62.60028688892201
 20
10.03471316425939
 30
0.0
 42
-0.4142135623730951
  0
SEQEND
  5
415
  8
SCREW_LOCATION_RECESS
  0
POLYLINE
  5
7B
  8
SCREW_LOCATION_RECESS
 66
     1
 10
0.0
 20
0.0
 30
0.0
 70
     1
  0
VERTEX
  5
DB
  8
SCREW_LOCATION_RECESS
 10
66.20028688741134
 20
9.904713189533892
 30
0.0
 42
-0.4142135623730951
  0
VERTEX
  5
DC
  8
SCREW_LOCATION_RECESS
 10
66.07028688742143
 20
10.03471318954393
 30
0.0
 42
-0.4142135623730951
  0
VERTEX
  5
DD
  8
SCREW_LOCATION_RECESS
 10
66.20028688743159
 20
10.16471318953385
 30
0.0
 42
-0.4142135623730951
  0
VERTEX
  5
DE
  8
SCREW_LOCATION_RECESS
 10
66.33028688742147
 20
10.03471318952367
 30
0.0
 42
-0.4142135623730951
  0
SEQEND
  5
416
  8
SCREW_LOCATION_RECESS
  0
POLYLINE
  5
7C
  8
SCREW_LOCATION_RECESS
 66
     1
 10
0.0
 20
0.0
 30
0.0
 70
     1
  0
VERTEX
  5
DF
  8
SCREW_LOCATION_RECESS
 10
1.950286888355556
 20
19.75846316205045
 30
0.0
 42
0.4142135623730951
  0
VERTEX
  5
E0
  8
SCREW_LOCATION_RECESS
 10
1.820286888355543
 20
19.62846316205039
 30
0.0
 42
0.4142135623730951
  0
VERTEX
  5
E1
  8
SCREW_LOCATION_RECESS
 10
1.950286888355556
 20
19.49846316205049
 30
0.0
 42
0.4142135623730951
  0
VERTEX
  5
E2
  8
SCREW_LOCATION_RECESS
 10
2.080286888355587
 20
19.62846316205039
 30
0.0
 42
0.4142135623730951
  0
SEQEND
  5
417
  8
SCREW_LOCATION_RECESS
  0
POLYLINE
  5
7D
  8
SCREW_LOCATION_RECESS
 66
     1
 10
0.0
 20
0.0
 30
0.0
 70
     1
  0
VERTEX
  5
E3
  8
SCREW_LOCATION_RECESS
 10
1.950286888355801
 20
33.57096316365291
 30
0.0
 42
0.4142135623730951
  0
VERTEX
  5
E4
  8
SCREW_LOCATION_RECESS
 10
1.820286888355823
 20
33.44096316365288
 30
0.0
 42
0.4142135623730951
  0
VERTEX
  5
E5
  8
SCREW_LOCATION_RECESS
 10
1.950286888355801
 20
33.31096316365289
 30
0.0
 42
0.4142135623730951
  0
VERTEX
  5
E6
  8
SCREW_LOCATION_RECESS
 10
2.080286888355797
 20
33.44096316365288
 30
0.0
 42
0.4142135623730951
  0
SEQEND
  5
418
  8
SCREW_LOCATION_RECESS
  0
POLYLINE
  5
7F
  8
LABELS
 66
     1
 10
0.0
 20
0.0
 30
0.0
  0
VERTEX
  5
E7
  8
LABELS
 10
5.933757125445696
 20
15.54459183068004
 30
0.0
  0
VERTEX
  5
E8
  8
LABELS
 10
9.933757125445698
 20
14.04059183067991
 30
0.0
  0
VERTEX
  5
E9
  8
LABELS
 10
9.933757125445698
 20
13.92859183068006
 30
0.0
  0
VERTEX
  5
EA
  8
LABELS
 10
6.941757125445706
 20
12.80859183067994
 30
0.0
  0
VERTEX
  5
EB
  8
LABELS
 10
6.941757125445706
 20
15.14459183068018
 30
0.0
  0
VERTEX
  5
EC
  8
LABELS
 10
6.941757125445706
 20
12.80859183067994
 30
0.0
  0
VERTEX
  5
ED
  8
LABELS
 10
5.933757125445696
 20
12.42459183067992
 30
0.0
  0
SEQEND
  5
419
  8
LABELS
  0
POLYLINE
  5
81
  8
THREE_QUARTER_INCH_THRUCUT
 66
     1
 10
0.0
 20
0.0
 30
0.0
 70
     1
  0
VERTEX
  5
EE
  8
THREE_QUARTER_INCH_THRUCUT
 10
46.3252868883573
 20
27.77392576047689
 30
0.0
  0
VERTEX
  5
EF
  8
THREE_QUARTER_INCH_THRUCUT
 10
46.32528688835622
 20
25.29550056362653
 30
0.0
 42
-1.0
  0
VERTEX
  5
F0
  8
THREE_QUARTER_INCH_THRUCUT
 10
46.32528688835611
 20
25.03471316205172
 30
0.0
  0
VERTEX
  5
F1
  8
THREE_QUARTER_INCH_THRUCUT
 10
45.57528688835742
 20
25.03471316205308
 30
0.0
 42
-1.0
  0
VERTEX
  5
F2
  8
THREE_QUARTER_INCH_THRUCUT
 10
45.57528688835742
 20
25.2955005636279
 30
0.0
  0
VERTEX
  5
F3
  8
THREE_QUARTER_INCH_THRUCUT
 10
45.57528688835722
 20
27.77392576047825
 30
0.0
 42
-1.0
  0
VERTEX
  5
F4
  8
THREE_QUARTER_INCH_THRUCUT
 10
45.57528688835722
 20
28.03471316205307
 30
0.0
  0
VERTEX
  5
F5
  8
THREE_QUARTER_INCH_THRUCUT
 10
46.32528688835742
 20
28.0347131620517
 30
0.0
 42
-1.0
  0
SEQEND
  5
41A
  8
THREE_QUARTER_INCH_THRUCUT
  0
POLYLINE
  5
82
  8
THREE_QUARTER_INCH_THRUCUT
 66
     1
 10
0.0
 20
0.0
 30
0.0
 70
     1
  0
VERTEX
  5
F6
  8
THREE_QUARTER_INCH_THRUCUT
 10
23.57528688835074
 20
25.29550056363017
 30
0.0
  0
VERTEX
  5
F7
  8
THREE_QUARTER_INCH_THRUCUT
 10
23.57528688836205
 20
27.77392576047325
 30
0.0
 42
-1.0
  0
VERTEX
  5
F8
  8
THREE_QUARTER_INCH_THRUCUT
 10
23.57528688836325
 20
28.03471316204806
 30
0.0
  0
VERTEX
  5
F9
  8
THREE_QUARTER_INCH_THRUCUT
 10
24.32528688835742
 20
28.0347131620517
 30
0.0
 42
-1.0
  0
VERTEX
  5
FA
  8
THREE_QUARTER_INCH_THRUCUT
 10
24.32528688835731
 20
27.77392576047689
 30
0.0
  0
VERTEX
  5
FB
  8
THREE_QUARTER_INCH_THRUCUT
 10
24.32528688835623
 20
25.29550056362653
 30
0.0
 42
-1.0
  0
VERTEX
  5
FC
  8
THREE_QUARTER_INCH_THRUCUT
 10
24.32528688835611
 20
25.03471316205172
 30
0.0
  0
VERTEX
  5
FD
  8
THREE_QUARTER_INCH_THRUCUT
 10
23.57528688835015
 20
25.03471316205535
 30
0.0
 42
-1.0
  0
SEQEND
  5
41B
  8
THREE_QUARTER_INCH_THRUCUT
  0
POLYLINE
  5
83
  8
THREE_QUARTER_INCH_THRUCUT
 66
     1
 10
0.0
 20
0.0
 30
0.0
 70
     1
  0
VERTEX
  5
FE
  8
THREE_QUARTER_INCH_THRUCUT
 10
5.701681189685807
 20
4.337125766827503
 30
0.0
 42
0.4142135623730951
  0
VERTEX
  5
FF
  8
THREE_QUARTER_INCH_THRUCUT
 10
5.542463103514386
 20
4.245204055377533
 30
0.0
 42
0.4142135623730951
  0
VERTEX
  5
100
  8
THREE_QUARTER_INCH_THRUCUT
 10
5.634384814964413
 20
4.085985969206197
 30
0.0
 42
0.4142135623730951
  0
VERTEX
  5
101
  8
THREE_QUARTER_INCH_THRUCUT
 10
5.793602901135976
 20
4.17790768065611
 30
0.0
 42
0.4142135623730951
  0
SEQEND
  5
41C
  8
THREE_QUARTER_INCH_THRUCUT
  0
POLYLINE
  5
84
  8
THREE_QUARTER_INCH_THRUCUT
 66
     1
 10
0.0
 20
0.0
 30
0.0
 70
     1
  0
VERTEX
  5
102
  8
THREE_QUARTER_INCH_THRUCUT
 10
6.219249018389654
 20
6.268996247136945
 30
0.0
 42
0.4142135623730951
  0
VERTEX
  5
103
  8
THREE_QUARTER_INCH_THRUCUT
 10
6.060030932218233
 20
6.177074535686975
 30
0.0
 42
0.4142135623730951
  0
VERTEX
  5
104
  8
THREE_QUARTER_INCH_THRUCUT
 10
6.151952643668373
 20
6.017856449515525
 30
0.0
 42
0.4142135623730951
  0
VERTEX
  5
105
  8
THREE_QUARTER_INCH_THRUCUT
 10
6.311170729839738
 20
6.109778160965496
 30
0.0
 42
0.4142135623730951
  0
SEQEND
  5
41D
  8
THREE_QUARTER_INCH_THRUCUT
  0
POLYLINE
  5
85
  8
THREE_QUARTER_INCH_THRUCUT
 66
     1
 10
0.0
 20
0.0
 30
0.0
 70
     1
  0
VERTEX
  5
106
  8
THREE_QUARTER_INCH_THRUCUT
 10
4.028633448489295
 20
5.82077372409457
 30
0.0
 42
0.4142135623730951
  0
VERTEX
  5
107
  8
THREE_QUARTER_INCH_THRUCUT
 10
3.869415362317874
 20
5.7288520126446
 30
0.0
 42
0.4142135623730951
  0
VERTEX
  5
108
  8
THREE_QUARTER_INCH_THRUCUT
 10
3.961337073767901
 20
5.569633926473093
 30
0.0
 42
0.4142135623730951
  0
VERTEX
  5
109
  8
THREE_QUARTER_INCH_THRUCUT
 10
4.120555159939322
 20
5.661555637923064
 30
0.0
 42
0.4142135623730951
  0
SEQEND
  5
41E
  8
THREE_QUARTER_INCH_THRUCUT
  0
POLYLINE
  5
86
  8
THREE_QUARTER_INCH_THRUCUT
 66
     1
 10
0.0
 20
0.0
 30
0.0
 70
     1
  0
VERTEX
  5
10A
  8
THREE_QUARTER_INCH_THRUCUT
 10
65.9380877536023
 20
6.377120898468588
 30
0.0
  0
VERTEX
  5
10B
  8
THREE_QUARTER_INCH_THRUCUT
 10
55.93808810802286
 20
6.377120898468588
 30
0.0
  0
VERTEX
  5
10C
  8
THREE_QUARTER_INCH_THRUCUT
 10
53.27904018405686
 20
6.37711823372045
 30
0.0
  0
VERTEX
  5
10D
  8
THREE_QUARTER_INCH_THRUCUT
 10
19.81795470905038
 20
6.377093750294582
 30
0.0
 42
-0.4142135623731033
  0
VERTEX
  5
10E
  8
THREE_QUARTER_INCH_THRUCUT
 10
19.62795492459865
 20
6.187084485355106
 30
0.0
 42
-0.4142135623731126
  0
VERTEX
  5
10F
  8
THREE_QUARTER_INCH_THRUCUT
 10
19.43795470905063
 20
6.377084269806849
 30
0.0
 42
0.0034227606007967
  0
VERTEX
  5
110
  8
THREE_QUARTER_INCH_THRUCUT
 10
19.43795645950617
 20
6.827084485348896
 30
0.0
  0
VERTEX
  5
111
  8
THREE_QUARTER_INCH_THRUCUT
 10
17.93819295515489
 20
6.827094986426962
 30
0.0
 42
-0.0072107587634131
  0
VERTEX
  5
112
  8
THREE_QUARTER_INCH_THRUCUT
 10
16.45156397360286
 20
6.848561667592596
 30
0.0
 42
0.0001135149948654
  0
VERTEX
  5
113
  8
THREE_QUARTER_INCH_THRUCUT
 10
16.43858082703606
 20
6.398748518709388
 30
0.0
 42
-0.4142138179706592
  0
VERTEX
  5
114
  8
THREE_QUARTER_INCH_THRUCUT
 10
16.24252057668578
 20
6.215008372745094
 30
0.0
  0
VERTEX
  5
115
  8
THREE_QUARTER_INCH_THRUCUT
 10
16.23280415825805
 20
6.215568494288231
 30
0.0
  0
VERTEX
  5
116
  8
THREE_QUARTER_INCH_THRUCUT
 10
16.22323032508616
 20
6.216606007039784
 30
0.0
  0
VERTEX
  5
117
  8
THREE_QUARTER_INCH_THRUCUT
 10
16.21381045177493
 20
6.218108769100075
 30
0.0
  0
VERTEX
  5
118
  8
THREE_QUARTER_INCH_THRUCUT
 10
16.20455591292923
 20
6.220064638569425
 30
0.0
  0
VERTEX
  5
119
  8
THREE_QUARTER_INCH_THRUCUT
 10
16.1954780831539
 20
6.222461473548153
 30
0.0
  0
VERTEX
  5
11A
  8
THREE_QUARTER_INCH_THRUCUT
 10
16.18658833705379
 20
6.225287132136579
 30
0.0
  0
VERTEX
  5
11B
  8
THREE_QUARTER_INCH_THRUCUT
 10
16.17789804923375
 20
6.228529472435025
 30
0.0
  0
VERTEX
  5
11C
  8
THREE_QUARTER_INCH_THRUCUT
 10
16.16941859429863
 20
6.23217635254381
 30
0.0
  0
VERTEX
  5
11D
  8
THREE_QUARTER_INCH_THRUCUT
 10
16.16116134685328
 20
6.236215630563255
 30
0.0
  0
VERTEX
  5
11E
  8
THREE_QUARTER_INCH_THRUCUT
 10
16.15313768150255
 20
6.240635164593678
 30
0.0
  0
VERTEX
  5
11F
  8
THREE_QUARTER_INCH_THRUCUT
 10
16.14535897285128
 20
6.245422812735402
 30
0.0
  0
VERTEX
  5
120
  8
THREE_QUARTER_INCH_THRUCUT
 10
16.13783659550433
 20
6.250566433088746
 30
0.0
  0
VERTEX
  5
121
  8
THREE_QUARTER_INCH_THRUCUT
 10
16.13058192406653
 20
6.25605388375403
 30
0.0
  0
VERTEX
  5
122
  8
THREE_QUARTER_INCH_THRUCUT
 10
16.12360633314276
 20
6.261873022831576
 30
0.0
  0
VERTEX
  5
123
  8
THREE_QUARTER_INCH_THRUCUT
 10
16.11692119733785
 20
6.268011708421701
 30
0.0
  0
VERTEX
  5
124
  8
THREE_QUARTER_INCH_THRUCUT
 10
16.11053789125665
 20
6.274457798624729
 30
0.0
  0
VERTEX
  5
125
  8
THREE_QUARTER_INCH_THRUCUT
 10
16.10446778950401
 20
6.281199151540978
 30
0.0
  0
VERTEX
  5
126
  8
THREE_QUARTER_INCH_THRUCUT
 10
16.09872226668477
 20
6.288223625270769
 30
0.0
  0
VERTEX
  5
127
  8
THREE_QUARTER_INCH_THRUCUT
 10
16.0933126974038
 20
6.29551907791442
 30
0.0
  0
VERTEX
  5
128
  8
THREE_QUARTER_INCH_THRUCUT
 10
16.08825045626594
 20
6.303073367572255
 30
0.0
  0
VERTEX
  5
129
  8
THREE_QUARTER_INCH_THRUCUT
 10
16.08354691787603
 20
6.310874352344593
 30
0.0
  0
VERTEX
  5
12A
  8
THREE_QUARTER_INCH_THRUCUT
 10
16.07921345683893
 20
6.318909890331752
 30
0.0
  0
VERTEX
  5
12B
  8
THREE_QUARTER_INCH_THRUCUT
 10
16.07526144775947
 20
6.327167839634054
 30
0.0
  0
VERTEX
  5
12C
  8
THREE_QUARTER_INCH_THRUCUT
 10
16.07170226524253
 20
6.33563605835182
 30
0.0
  0
VERTEX
  5
12D
  8
THREE_QUARTER_INCH_THRUCUT
 10
16.06854728389293
 20
6.344302404585369
 30
0.0
  0
VERTEX
  5
12E
  8
THREE_QUARTER_INCH_THRUCUT
 10
16.06580787831554
 20
6.353154736435023
 30
0.0
  0
VERTEX
  5
12F
  8
THREE_QUARTER_INCH_THRUCUT
 10
16.0634954231152
 20
6.362180912001101
 30
0.0
  0
VERTEX
  5
130
  8
THREE_QUARTER_INCH_THRUCUT
 10
16.06162129289676
 20
6.371368789383921
 30
0.0
  0
VERTEX
  5
131
  8
THREE_QUARTER_INCH_THRUCUT
 10
16.06019686226507
 20
6.380706226683806
 30
0.0
  0
VERTEX
  5
132
  8
THREE_QUARTER_INCH_THRUCUT
 10
16.05923350582497
 20
6.390181082001077
 30
0.0
  0
VERTEX
  5
133
  8
THREE_QUARTER_INCH_THRUCUT
 10
16.05874259818133
 20
6.399781213436053
 30
0.0
  0
VERTEX
  5
134
  8
THREE_QUARTER_INCH_THRUCUT
 10
16.05873551393897
 20
6.409494479089053
 30
0.0
  0
VERTEX
  5
135
  8
THREE_QUARTER_INCH_THRUCUT
 10
15.85808358276932
 20
6.416700552841371
 30
0.0
  0
VERTEX
  5
136
  8
THREE_QUARTER_INCH_THRUCUT
 10
15.65761879838573
 20
6.424615960057589
 30
0.0
  0
VERTEX
  5
137
  8
THREE_QUARTER_INCH_THRUCUT
 10
15.4573423565056
 20
6.433239469794203
 30
0.0
  0
VERTEX
  5
138
  8
THREE_QUARTER_INCH_THRUCUT
 10
15.2572554528463
 20
6.44256985110771
 30
0.0
  0
VERTEX
  5
139
  8
THREE_QUARTER_INCH_THRUCUT
 10
15.05735928312525
 20
6.452605873054609
 30
0.0
  0
VERTEX
  5
13A
  8
THREE_QUARTER_INCH_THRUCUT
 10
14.85765504305984
 20
6.463346304691397
 30
0.0
  0
VERTEX
  5
13B
  8
THREE_QUARTER_INCH_THRUCUT
 10
14.65814392836746
 20
6.474789915074571
 30
0.0
  0
VERTEX
  5
13C
  8
THREE_QUARTER_INCH_THRUCUT
 10
14.4588271347655
 20
6.48693547326063
 30
0.0
  0
VERTEX
  5
13D
  8
THREE_QUARTER_INCH_THRUCUT
 10
14.25970585797137
 20
6.49978174830607
 30
0.0
  0
VERTEX
  5
13E
  8
THREE_QUARTER_INCH_THRUCUT
 10
14.06078129370246
 20
6.513327509267389
 30
0.0
  0
VERTEX
  5
13F
  8
THREE_QUARTER_INCH_THRUCUT
 10
13.86205463767617
 20
6.527571525201084
 30
0.0
  0
VERTEX
  5
140
  8
THREE_QUARTER_INCH_THRUCUT
 10
13.66352708560988
 20
6.542512565163653
 30
0.0
  0
VERTEX
  5
141
  8
THREE_QUARTER_INCH_THRUCUT
 10
13.465199833221
 20
6.558149398211594
 30
0.0
  0
VERTEX
  5
142
  8
THREE_QUARTER_INCH_THRUCUT
 10
13.26707407622692
 20
6.574480793401404
 30
0.0
  0
VERTEX
  5
143
  8
THREE_QUARTER_INCH_THRUCUT
 10
13.06915101034504
 20
6.591505519789582
 30
0.0
  0
VERTEX
  5
144
  8
THREE_QUARTER_INCH_THRUCUT
 10
12.87143183129275
 20
6.609222346432622
 30
0.0
  0
VERTEX
  5
145
  8
THREE_QUARTER_INCH_THRUCUT
 10
12.67391773478745
 20
6.627630042387024
 30
0.0
  0
VERTEX
  5
146
  8
THREE_QUARTER_INCH_THRUCUT
 10
12.47660991654653
 20
6.646727376709285
 30
0.0
  0
VERTEX
  5
147
  8
THREE_QUARTER_INCH_THRUCUT
 10
12.27950957228739
 20
6.666513118455903
 30
0.0
  0
VERTEX
  5
148
  8
THREE_QUARTER_INCH_THRUCUT
 10
12.08261789772742
 20
6.686986036683376
 30
0.0
  0
VERTEX
  5
149
  8
THREE_QUARTER_INCH_THRUCUT
 10
11.88593608858403
 20
6.708144900448199
 30
0.0
  0
VERTEX
  5
14A
  8
THREE_QUARTER_INCH_THRUCUT
 10
11.6894653405746
 20
6.729988478806873
 30
0.0
  0
VERTEX
  5
14B
  8
THREE_QUARTER_INCH_THRUCUT
 10
11.49320684941653
 20
6.752515540815892
 30
0.0
  0
VERTEX
  5
14C
  8
THREE_QUARTER_INCH_THRUCUT
 10
11.29716181082722
 20
6.775724855531756
 30
0.0
  0
VERTEX
  5
14D
  8
THREE_QUARTER_INCH_THRUCUT
 10
11.10133142052406
 20
6.799615192010961
 30
0.0
  0
VERTEX
  5
14E
  8
THREE_QUARTER_INCH_THRUCUT
 10
10.90571687422445
 20
6.824185319310006
 30
0.0
  0
VERTEX
  5
14F
  8
THREE_QUARTER_INCH_THRUCUT
 10
10.71031936764578
 20
6.849434006485387
 30
0.0
  0
VERTEX
  5
150
  8
THREE_QUARTER_INCH_THRUCUT
 10
10.51514009650544
 20
6.875360022593602
 30
0.0
  0
VERTEX
  5
151
  8
THREE_QUARTER_INCH_THRUCUT
 10
10.32018025652085
 20
6.901962136691148
 30
0.0
  0
VERTEX
  5
152
  8
THREE_QUARTER_INCH_THRUCUT
 10
10.12544104340938
 20
6.929239117834525
 30
0.0
  0
VERTEX
  5
153
  8
THREE_QUARTER_INCH_THRUCUT
 10
9.930923652888438
 20
6.957189735080229
 30
0.0
  0
VERTEX
  5
154
  8
THREE_QUARTER_INCH_THRUCUT
 10
9.736629280675416
 20
6.985812757484757
 30
0.0
  0
VERTEX
  5
155
  8
THREE_QUARTER_INCH_THRUCUT
 10
9.542559122487711
 20
7.015106954104606
 30
0.0
  0
VERTEX
  5
156
  8
THREE_QUARTER_INCH_THRUCUT
 10
9.348714374042718
 20
7.045071093996274
 30
0.0
  0
VERTEX
  5
157
  8
THREE_QUARTER_INCH_THRUCUT
 10
9.155096231057833
 20
7.07570394621626
 30
0.0
  0
VERTEX
  5
158
  8
THREE_QUARTER_INCH_THRUCUT
 10
8.96170588925045
 20
7.10700427982106
 30
0.0
  0
VERTEX
  5
159
  8
THREE_QUARTER_INCH_THRUCUT
 10
8.768544544337963
 20
7.138970863867171
 30
0.0
  0
VERTEX
  5
15A
  8
THREE_QUARTER_INCH_THRUCUT
 10
8.575613392037774
 20
7.171602467411091
 30
0.0
  0
VERTEX
  5
15B
  8
THREE_QUARTER_INCH_THRUCUT
 10
8.382913628067271
 20
7.20489785950932
 30
0.0
  0
VERTEX
  5
15C
  8
THREE_QUARTER_INCH_THRUCUT
 10
8.190446448143854
 20
7.238855809218352
 30
0.0
  0
VERTEX
  5
15D
  8
THREE_QUARTER_INCH_THRUCUT
 10
7.998213047984917
 20
7.273475085594686
 30
0.0
  0
VERTEX
  5
15E
  8
THREE_QUARTER_INCH_THRUCUT
 10
7.806214623307858
 20
7.308754457694819
 30
0.0
  0
VERTEX
  5
15F
  8
THREE_QUARTER_INCH_THRUCUT
 10
7.614452369830069
 20
7.344692694575249
 30
0.0
  0
VERTEX
  5
160
  8
THREE_QUARTER_INCH_THRUCUT
 10
7.422927483268946
 20
7.381288565292475
 30
0.0
  0
VERTEX
  5
161
  8
THREE_QUARTER_INCH_THRUCUT
 10
7.231641159341886
 20
7.418540838902992
 30
0.0
  0
VERTEX
  5
162
  8
THREE_QUARTER_INCH_THRUCUT
 10
7.040594593766285
 20
7.456448284463297
 30
0.0
  0
VERTEX
  5
163
  8
THREE_QUARTER_INCH_THRUCUT
 10
6.849788982259536
 20
7.495009671029891
 30
0.0
  0
VERTEX
  5
164
  8
THREE_QUARTER_INCH_THRUCUT
 10
6.659225520539038
 20
7.534223767659268
 30
0.0
  0
VERTEX
  5
165
  8
THREE_QUARTER_INCH_THRUCUT
 10
6.468905404322184
 20
7.574089343407928
 30
0.0
  0
VERTEX
  5
166
  8
THREE_QUARTER_INCH_THRUCUT
 10
6.278829829326369
 20
7.614605167332368
 30
0.0
  0
VERTEX
  5
167
  8
THREE_QUARTER_INCH_THRUCUT
 10
6.088999991268992
 20
7.655770008489084
 30
0.0
  0
VERTEX
  5
168
  8
THREE_QUARTER_INCH_THRUCUT
 10
5.899417085867444
 20
7.697582635934574
 30
0.0
  0
VERTEX
  5
169
  8
THREE_QUARTER_INCH_THRUCUT
 10
5.710082308839124
 20
7.740041818725336
 30
0.0
  0
VERTEX
  5
16A
  8
THREE_QUARTER_INCH_THRUCUT
 10
5.520996855901426
 20
7.783146325917869
 30
0.0
  0
VERTEX
  5
16B
  8
THREE_QUARTER_INCH_THRUCUT
 10
5.332161922771746
 20
7.826894926568668
 30
0.0
  0
VERTEX
  5
16C
  8
THREE_QUARTER_INCH_THRUCUT
 10
5.143578705167478
 20
7.871286389734232
 30
0.0
  0
VERTEX
  5
16D
  8
THREE_QUARTER_INCH_THRUCUT
 10
4.955248398806019
 20
7.916319484471058
 30
0.0
  0
VERTEX
  5
16E
  8
THREE_QUARTER_INCH_THRUCUT
 10
4.767172199404765
 20
7.961992979835644
 30
0.0
  0
VERTEX
  5
16F
  8
THREE_QUARTER_INCH_THRUCUT
 10
4.579351302681109
 20
8.008305644884485
 30
0.0
  0
VERTEX
  5
170
  8
THREE_QUARTER_INCH_THRUCUT
 10
4.391786904352451
 20
8.055256248674082
 30
0.0
  0
VERTEX
  5
171
  8
THREE_QUARTER_INCH_THRUCUT
 10
4.204480200136183
 20
8.102843560260933
 30
0.0
  0
VERTEX
  5
172
  8
THREE_QUARTER_INCH_THRUCUT
 10
4.017432385749702
 20
8.151066348701532
 30
0.0
  0
VERTEX
  5
173
  8
THREE_QUARTER_INCH_THRUCUT
 10
3.830644656910402
 20
8.199923383052377
 30
0.0
  0
VERTEX
  5
174
  8
THREE_QUARTER_INCH_THRUCUT
 10
3.64411820933568
 20
8.249413432369968
 30
0.0
  0
VERTEX
  5
175
  8
THREE_QUARTER_INCH_THRUCUT
 10
3.609335524667493
 20
8.119524483822763
 30
0.0
 42
0.1988557026438834
  0
VERTEX
  5
176
  8
THREE_QUARTER_INCH_THRUCUT
 10
3.64779223636716
 20
7.819857005275358
 30
0.0
  0
VERTEX
  5
177
  8
THREE_QUARTER_INCH_THRUCUT
 10
4.00417367289176
 20
7.20353167382631
 30
0.0
 42
-0.4142135623730944
  0
VERTEX
  5
178
  8
THREE_QUARTER_INCH_THRUCUT
 10
3.787319964744391
 20
6.392366499423067
 30
0.0
  0
VERTEX
  5
179
  8
THREE_QUARTER_INCH_THRUCUT
 10
3.029063629783785
 20
5.954060155789696
 30
0.0
  0
VERTEX
  5
17A
  8
THREE_QUARTER_INCH_THRUCUT
 10
2.270807294823292
 20
5.515753812156268
 30
0.0
 42
0.4142135623730944
  0
VERTEX
  5
17B
  8
THREE_QUARTER_INCH_THRUCUT
 10
2.053953586675952
 20
4.704588637753082
 30
0.0
  0
VERTEX
  5
17C
  8
THREE_QUARTER_INCH_THRUCUT
 10
2.410335023200552
 20
4.088263306304091
 30
0.0
 42
-0.1988557026438834
  0
VERTEX
  5
17D
  8
THREE_QUARTER_INCH_THRUCUT
 10
2.448791734900219
 20
3.788595827756685
 30
0.0
  0
VERTEX
  5
17E
  8
THREE_QUARTER_INCH_THRUCUT
 10
2.413862638008901
 20
3.658161948358432
 30
0.0
  0
VERTEX
  5
17F
  8
THREE_QUARTER_INCH_THRUCUT
 10
2.629847854960633
 20
3.600854104838691
 30
0.0
  0
VERTEX
  5
180
  8
THREE_QUARTER_INCH_THRUCUT
 10
2.846148580239348
 20
3.54433017929177
 30
0.0
  0
VERTEX
  5
181
  8
THREE_QUARTER_INCH_THRUCUT
 10
3.062763256585183
 20
3.488591778056267
 30
0.0
  0
VERTEX
  5
182
  8
THREE_QUARTER_INCH_THRUCUT
 10
3.279690326738275
 20
3.433640507470778
 30
0.0
  0
VERTEX
  5
183
  8
THREE_QUARTER_INCH_THRUCUT
 10
3.496928233438762
 20
3.379477973873899
 30
0.0
  0
VERTEX
  5
184
  8
THREE_QUARTER_INCH_THRUCUT
 10
3.714475419426782
 20
3.326105783604228
 30
0.0
  0
VERTEX
  5
185
  8
THREE_QUARTER_INCH_THRUCUT
 10
3.932330327442472
 20
3.27352554300036
 30
0.0
  0
VERTEX
  5
186
  8
THREE_QUARTER_INCH_THRUCUT
 10
4.15049140022597
 20
3.221738858400893
 30
0.0
  0
VERTEX
  5
187
  8
THREE_QUARTER_INCH_THRUCUT
 10
4.368957080517413
 20
3.170747336144423
 30
0.0
  0
VERTEX
  5
188
  8
THREE_QUARTER_INCH_THRUCUT
 10
4.587725811056941
 20
3.120552582569546
 30
0.0
  0
VERTEX
  5
189
  8
THREE_QUARTER_INCH_THRUCUT
 10
4.806796034584689
 20
3.07115620401486
 30
0.0
  0
VERTEX
  5
18A
  8
THREE_QUARTER_INCH_THRUCUT
 10
5.026166193840796
 20
3.022559806818962
 30
0.0
  0
VERTEX
  5
18B
  8
THREE_QUARTER_INCH_THRUCUT
 10
5.245834731565399
 20
2.974764997320447
 30
0.0
  0
VERTEX
  5
18C
  8
THREE_QUARTER_INCH_THRUCUT
 10
5.465800090498635
 20
2.927773381857913
 30
0.0
  0
VERTEX
  5
18D
  8
THREE_QUARTER_INCH_THRUCUT
 10
5.686060713380643
 20
2.881586566769955
 30
0.0
  0
VERTEX
  5
18E
  8
THREE_QUARTER_INCH_THRUCUT
 10
5.90661504295156
 20
2.836206158395171
 30
0.0
  0
VERTEX
  5
18F
  8
THREE_QUARTER_INCH_THRUCUT
 10
6.127461521951522
 20
2.791633763072158
 30
0.0
  0
VERTEX
  5
190
  8
THREE_QUARTER_INCH_THRUCUT
 10
6.348598593120671
 20
2.747870987139512
 30
0.0
  0
VERTEX
  5
191
  8
THREE_QUARTER_INCH_THRUCUT
 10
6.570024699199141
 20
2.70491943693583
 30
0.0
  0
VERTEX
  5
192
  8
THREE_QUARTER_INCH_THRUCUT
 10
6.791738282927071
 20
2.662780718799707
 30
0.0
  0
VERTEX
  5
193
  8
THREE_QUARTER_INCH_THRUCUT
 10
7.013737787044597
 20
2.621456439069743
 30
0.0
  0
VERTEX
  5
194
  8
THREE_QUARTER_INCH_THRUCUT
 10
7.23602165429186
 20
2.580948204084531
 30
0.0
  0
VERTEX
  5
195
  8
THREE_QUARTER_INCH_THRUCUT
 10
7.458588327408995
 20
2.54125762018267
 30
0.0
  0
VERTEX
  5
196
  8
THREE_QUARTER_INCH_THRUCUT
 10
7.68143624913614
 20
2.502386293702756
 30
0.0
  0
VERTEX
  5
197
  8
THREE_QUARTER_INCH_THRUCUT
 10
7.904563862213433
 20
2.464335830983385
 30
0.0
  0
VERTEX
  5
198
  8
THREE_QUARTER_INCH_THRUCUT
 10
8.127969609381012
 20
2.427107838363155
 30
0.0
  0
VERTEX
  5
199
  8
THREE_QUARTER_INCH_THRUCUT
 10
8.351651933379012
 20
2.390703922180663
 30
0.0
  0
VERTEX
  5
19A
  8
THREE_QUARTER_INCH_THRUCUT
 10
8.575609276947574
 20
2.355125688774503
 30
0.0
  0
VERTEX
  5
19B
  8
THREE_QUARTER_INCH_THRUCUT
 10
8.799840082826835
 20
2.320374744483274
 30
0.0
  0
VERTEX
  5
19C
  8
THREE_QUARTER_INCH_THRUCUT
 10
9.024342793756931
 20
2.286452695645572
 30
0.0
  0
VERTEX
  5
19D
  8
THREE_QUARTER_INCH_THRUCUT
 10
9.249115852477999
 20
2.253361148599993
 30
0.0
  0
VERTEX
  5
19E
  8
THREE_QUARTER_INCH_THRUCUT
 10
9.474157701730181
 20
2.221101709685135
 30
0.0
  0
VERTEX
  5
19F
  8
THREE_QUARTER_INCH_THRUCUT
 10
9.699466784253612
 20
2.189675985239593
 30
0.0
  0
VERTEX
  5
1A0
  8
THREE_QUARTER_INCH_THRUCUT
 10
9.92504154278843
 20
2.159085581601965
 30
0.0
  0
VERTEX
  5
1A1
  8
THREE_QUARTER_INCH_THRUCUT
 10
10.15088042007477
 20
2.129332105110847
 30
0.0
  0
VERTEX
  5
1A2
  8
THREE_QUARTER_INCH_THRUCUT
 10
10.37698185885277
 20
2.100417162104836
 30
0.0
  0
VERTEX
  5
1A3
  8
THREE_QUARTER_INCH_THRUCUT
 10
10.60334430186257
 20
2.072342358922529
 30
0.0
  0
VERTEX
  5
1A4
  8
THREE_QUARTER_INCH_THRUCUT
 10
10.82996619184431
 20
2.045109301902523
 30
0.0
  0
VERTEX
  5
1A5
  8
THREE_QUARTER_INCH_THRUCUT
 10
11.05684597153813
 20
2.018719597383412
 30
0.0
  0
VERTEX
  5
1A6
  8
THREE_QUARTER_INCH_THRUCUT
 10
11.28398208368415
 20
1.993174851703795
 30
0.0
  0
VERTEX
  5
1A7
  8
THREE_QUARTER_INCH_THRUCUT
 10
11.51137297102253
 20
1.968476671202269
 30
0.0
  0
VERTEX
  5
1A8
  8
THREE_QUARTER_INCH_THRUCUT
 10
11.73901707629339
 20
1.944626662217429
 30
0.0
  0
VERTEX
  5
1A9
  8
THREE_QUARTER_INCH_THRUCUT
 10
11.96691284223688
 20
1.921626431087873
 30
0.0
  0
VERTEX
  5
1AA
  8
THREE_QUARTER_INCH_THRUCUT
 10
12.19505871159313
 20
1.899477584152196
 30
0.0
  0
VERTEX
  5
1AB
  8
THREE_QUARTER_INCH_THRUCUT
 10
12.42345312710229
 20
1.878181727748997
 30
0.0
  0
VERTEX
  5
1AC
  8
THREE_QUARTER_INCH_THRUCUT
 10
12.65209453150448
 20
1.857740468216871
 30
0.0
  0
VERTEX
  5
1AD
  8
THREE_QUARTER_INCH_THRUCUT
 10
12.88098136753984
 20
1.838155411894415
 30
0.0
  0
VERTEX
  5
1AE
  8
THREE_QUARTER_INCH_THRUCUT
 10
13.11011207794852
 20
1.819428165120226
 30
0.0
  0
VERTEX
  5
1AF
  8
THREE_QUARTER_INCH_THRUCUT
 10
13.33948510547066
 20
1.8015603342329
 30
0.0
  0
VERTEX
  5
1B0
  8
THREE_QUARTER_INCH_THRUCUT
 10
13.56909889284638
 20
1.784553525571034
 30
0.0
  0
VERTEX
  5
1B1
  8
THREE_QUARTER_INCH_THRUCUT
 10
13.79895188281582
 20
1.768409345473225
 30
0.0
  0
VERTEX
  5
1B2
  8
THREE_QUARTER_INCH_THRUCUT
 10
14.02904251811913
 20
1.75312940027807
 30
0.0
  0
VERTEX
  5
1B3
  8
THREE_QUARTER_INCH_THRUCUT
 10
14.25936924149645
 20
1.738715296324164
 30
0.0
  0
VERTEX
  5
1B4
  8
THREE_QUARTER_INCH_THRUCUT
 10
14.4899304956879
 20
1.725168639950105
 30
0.0
  0
VERTEX
  5
1B5
  8
THREE_QUARTER_INCH_THRUCUT
 10
14.72072472343363
 20
1.71249103749449
 30
0.0
  0
VERTEX
  5
1B6
  8
THREE_QUARTER_INCH_THRUCUT
 10
14.95175036747377
 20
1.700684095295914
 30
0.0
  0
VERTEX
  5
1B7
  8
THREE_QUARTER_INCH_THRUCUT
 10
15.18300587054846
 20
1.689749419692975
 30
0.0
  0
VERTEX
  5
1B8
  8
THREE_QUARTER_INCH_THRUCUT
 10
15.41448967539785
 20
1.679688617024269
 30
0.0
  0
VERTEX
  5
1B9
  8
THREE_QUARTER_INCH_THRUCUT
 10
15.64620022476206
 20
1.670503293628393
 30
0.0
  0
VERTEX
  5
1BA
  8
THREE_QUARTER_INCH_THRUCUT
 10
15.87813596138124
 20
1.662195055843945
 30
0.0
  0
VERTEX
  5
1BB
  8
THREE_QUARTER_INCH_THRUCUT
 10
16.11029532799552
 20
1.654765510009519
 30
0.0
  0
VERTEX
  5
1BC
  8
THREE_QUARTER_INCH_THRUCUT
 10
16.34267676734504
 20
1.648216262463713
 30
0.0
  0
VERTEX
  5
1BD
  8
THREE_QUARTER_INCH_THRUCUT
 10
16.57527872216994
 20
1.642548919545124
 30
0.0
  0
VERTEX
  5
1BE
  8
THREE_QUARTER_INCH_THRUCUT
 10
16.80809963521035
 20
1.637765087592348
 30
0.0
 42
0.4142106424158553
  0
VERTEX
  5
1BF
  8
THREE_QUARTER_INCH_THRUCUT
 10
16.93809834098825
 20
1.76776508758501
 30
0.0
  0
VERTEX
  5
1C0
  8
THREE_QUARTER_INCH_THRUCUT
 10
16.93809834098771
 20
1.943290276823396
 30
0.0
 42
-1.0
  0
VERTEX
  5
1C1
  8
THREE_QUARTER_INCH_THRUCUT
 10
17.12194610801579
 20
2.127138039932211
 30
0.0
  0
VERTEX
  5
1C2
  8
THREE_QUARTER_INCH_THRUCUT
 10
17.8080983409874
 20
2.127138025301624
 30
0.0
  0
VERTEX
  5
1C3
  8
THREE_QUARTER_INCH_THRUCUT
 10
17.80809834098729
 20
2.727138285655988
 30
0.0
  0
VERTEX
  5
1C4
  8
THREE_QUARTER_INCH_THRUCUT
 10
17.12194093029804
 20
2.727138263000702
 30
0.0
 42
-1.0
  0
VERTEX
  5
1C5
  8
THREE_QUARTER_INCH_THRUCUT
 10
16.93809316113347
 20
2.910988314478677
 30
0.0
  0
VERTEX
  5
1C6
  8
THREE_QUARTER_INCH_THRUCUT
 10
16.9380948079387
 20
3.04329276293412
 30
0.0
 42
-1.0
  0
VERTEX
  5
1C7
  8
THREE_QUARTER_INCH_THRUCUT
 10
17.12194257103569
 20
3.227138237673094
 30
0.0
  0
VERTEX
  5
1C8
  8
THREE_QUARTER_INCH_THRUCUT
 10
17.80809834098729
 20
3.227138237663089
 30
0.0
  0
VERTEX
  5
1C9
  8
THREE_QUARTER_INCH_THRUCUT
 10
17.80809834098729
 20
3.714315142025432
 30
0.0
  0
VERTEX
  5
1CA
  8
THREE_QUARTER_INCH_THRUCUT
 10
18.06809834098739
 20
3.714315142025432
 30
0.0
  0
VERTEX
  5
1CB
  8
THREE_QUARTER_INCH_THRUCUT
 10
18.06809834098739
 20
3.227138237663089
 30
0.0
  0
VERTEX
  5
1CC
  8
THREE_QUARTER_INCH_THRUCUT
 10
18.75425411093899
 20
3.227138237673094
 30
0.0
 42
-1.0
  0
VERTEX
  5
1CD
  8
THREE_QUARTER_INCH_THRUCUT
 10
18.93810187403598
 20
3.04329276293412
 30
0.0
  0
VERTEX
  5
1CE
  8
THREE_QUARTER_INCH_THRUCUT
 10
18.93810352084121
 20
2.910988314478677
 30
0.0
 42
-1.0
  0
VERTEX
  5
1CF
  8
THREE_QUARTER_INCH_THRUCUT
 10
18.75425575167664
 20
2.727138263000702
 30
0.0
  0
VERTEX
  5
1D0
  8
THREE_QUARTER_INCH_THRUCUT
 10
18.06809834098739
 20
2.727138285655988
 30
0.0
  0
VERTEX
  5
1D1
  8
THREE_QUARTER_INCH_THRUCUT
 10
18.06809834098728
 20
2.127138025301624
 30
0.0
  0
VERTEX
  5
1D2
  8
THREE_QUARTER_INCH_THRUCUT
 10
18.75425057395888
 20
2.127138039932211
 30
0.0
 42
-1.0
  0
VERTEX
  5
1D3
  8
THREE_QUARTER_INCH_THRUCUT
 10
18.93809834098739
 20
1.943290276823396
 30
0.0
  0
VERTEX
  5
1D4
  8
THREE_QUARTER_INCH_THRUCUT
 10
18.93809834098728
 20
1.757136757162405
 30
0.0
 42
0.4142106424158553
  0
VERTEX
  5
1D5
  8
THREE_QUARTER_INCH_THRUCUT
 10
19.06809704665976
 20
1.627128827818629
 30
0.0
  0
VERTEX
  5
1D6
  8
THREE_QUARTER_INCH_THRUCUT
 10
30.16787453694116
 20
1.627128827818629
 30
0.0
  0
VERTEX
  5
1D7
  8
THREE_QUARTER_INCH_THRUCUT
 10
41.18309963520951
 20
1.627128827818629
 30
0.0
 42
0.4142106424158553
  0
VERTEX
  5
1D8
  8
THREE_QUARTER_INCH_THRUCUT
 10
41.3130983409874
 20
1.757136757162405
 30
0.0
  0
VERTEX
  5
1D9
  8
THREE_QUARTER_INCH_THRUCUT
 10
41.31309834098729
 20
1.943290276823396
 30
0.0
 42
-1.0
  0
VERTEX
  5
1DA
  8
THREE_QUARTER_INCH_THRUCUT
 10
41.4969461080158
 20
2.127138039932211
 30
0.0
  0
VERTEX
  5
1DB
  8
THREE_QUARTER_INCH_THRUCUT
 10
42.18309834098741
 20
2.127138025301624
 30
0.0
  0
VERTEX
  5
1DC
  8
THREE_QUARTER_INCH_THRUCUT
 10
42.18309834098729
 20
2.727138285655988
 30
0.0
  0
VERTEX
  5
1DD
  8
THREE_QUARTER_INCH_THRUCUT
 10
41.49694093029805
 20
2.727138263000702
 30
0.0
 42
-1.0
  0
VERTEX
  5
1DE
  8
THREE_QUARTER_INCH_THRUCUT
 10
41.31309316113347
 20
2.910988314478677
 30
0.0
  0
VERTEX
  5
1DF
  8
THREE_QUARTER_INCH_THRUCUT
 10
41.3130948079387
 20
3.04329276293412
 30
0.0
 42
-1.0
  0
VERTEX
  5
1E0
  8
THREE_QUARTER_INCH_THRUCUT
 10
41.4969425710357
 20
3.227138237673094
 30
0.0
  0
VERTEX
  5
1E1
  8
THREE_QUARTER_INCH_THRUCUT
 10
42.18309834098729
 20
3.227138237663089
 30
0.0
  0
VERTEX
  5
1E2
  8
THREE_QUARTER_INCH_THRUCUT
 10
42.18309834098729
 20
3.714315142025432
 30
0.0
  0
VERTEX
  5
1E3
  8
THREE_QUARTER_INCH_THRUCUT
 10
42.4430983409874
 20
3.714315142025432
 30
0.0
  0
VERTEX
  5
1E4
  8
THREE_QUARTER_INCH_THRUCUT
 10
42.4430983409874
 20
3.227138237663089
 30
0.0
  0
VERTEX
  5
1E5
  8
THREE_QUARTER_INCH_THRUCUT
 10
43.12925411093899
 20
3.227138237673087
 30
0.0
 42
-1.0
  0
VERTEX
  5
1E6
  8
THREE_QUARTER_INCH_THRUCUT
 10
43.31310187403599
 20
3.043292762934113
 30
0.0
  0
VERTEX
  5
1E7
  8
THREE_QUARTER_INCH_THRUCUT
 10
43.31310352084122
 20
2.91098831447867
 30
0.0
 42
-1.0
  0
VERTEX
  5
1E8
  8
THREE_QUARTER_INCH_THRUCUT
 10
43.12925575167665
 20
2.727138263000695
 30
0.0
  0
VERTEX
  5
1E9
  8
THREE_QUARTER_INCH_THRUCUT
 10
42.4430983409874
 20
2.727138285655988
 30
0.0
  0
VERTEX
  5
1EA
  8
THREE_QUARTER_INCH_THRUCUT
 10
42.44309834098728
 20
2.127138025301624
 30
0.0
  0
VERTEX
  5
1EB
  8
THREE_QUARTER_INCH_THRUCUT
 10
43.12925057395889
 20
2.127138039932204
 30
0.0
 42
-1.0
  0
VERTEX
  5
1EC
  8
THREE_QUARTER_INCH_THRUCUT
 10
43.3130983409874
 20
1.943290276823389
 30
0.0
  0
VERTEX
  5
1ED
  8
THREE_QUARTER_INCH_THRUCUT
 10
43.31309834098729
 20
1.757136757162398
 30
0.0
 42
0.4142106424158553
  0
VERTEX
  5
1EE
  8
THREE_QUARTER_INCH_THRUCUT
 10
43.44309704665979
 20
1.627128827818622
 30
0.0
  0
VERTEX
  5
1EF
  8
THREE_QUARTER_INCH_THRUCUT
 10
60.43309963520951
 20
1.627105039765282
 30
0.0
 42
0.4142106424158553
  0
VERTEX
  5
1F0
  8
THREE_QUARTER_INCH_THRUCUT
 10
60.5630983409874
 20
1.757105039757944
 30
0.0
  0
VERTEX
  5
1F1
  8
THREE_QUARTER_INCH_THRUCUT
 10
60.56309834098729
 20
1.943258559418935
 30
0.0
 42
-1.0
  0
VERTEX
  5
1F2
  8
THREE_QUARTER_INCH_THRUCUT
 10
60.7469461080158
 20
2.12710632252775
 30
0.0
  0
VERTEX
  5
1F3
  8
THREE_QUARTER_INCH_THRUCUT
 10
61.43309834098741
 20
2.127106307897163
 30
0.0
  0
VERTEX
  5
1F4
  8
THREE_QUARTER_INCH_THRUCUT
 10
61.43309834098729
 20
2.727106568251527
 30
0.0
  0
VERTEX
  5
1F5
  8
THREE_QUARTER_INCH_THRUCUT
 10
60.74694093029805
 20
2.727106545596241
 30
0.0
 42
-1.0
  0
VERTEX
  5
1F6
  8
THREE_QUARTER_INCH_THRUCUT
 10
60.56309316113347
 20
2.910956597074216
 30
0.0
  0
VERTEX
  5
1F7
  8
THREE_QUARTER_INCH_THRUCUT
 10
60.5630948079387
 20
3.043261045529659
 30
0.0
 42
-1.0
  0
VERTEX
  5
1F8
  8
THREE_QUARTER_INCH_THRUCUT
 10
60.7469425710357
 20
3.227106520268633
 30
0.0
  0
VERTEX
  5
1F9
  8
THREE_QUARTER_INCH_THRUCUT
 10
61.43309834098729
 20
3.227106520258628
 30
0.0
  0
VERTEX
  5
1FA
  8
THREE_QUARTER_INCH_THRUCUT
 10
61.43309834098729
 20
3.714283424620971
 30
0.0
  0
VERTEX
  5
1FB
  8
THREE_QUARTER_INCH_THRUCUT
 10
61.6930983409874
 20
3.714283424620971
 30
0.0
  0
VERTEX
  5
1FC
  8
THREE_QUARTER_INCH_THRUCUT
 10
61.6930983409874
 20
3.227106520258628
 30
0.0
  0
VERTEX
  5
1FD
  8
THREE_QUARTER_INCH_THRUCUT
 10
62.379254110939
 20
3.227106520268633
 30
0.0
 42
-1.0
  0
VERTEX
  5
1FE
  8
THREE_QUARTER_INCH_THRUCUT
 10
62.56310187403599
 20
3.043261045529659
 30
0.0
  0
VERTEX
  5
1FF
  8
THREE_QUARTER_INCH_THRUCUT
 10
62.56310352084122
 20
2.910956597074216
 30
0.0
 42
-1.0
  0
VERTEX
  5
200
  8
THREE_QUARTER_INCH_THRUCUT
 10
62.37925575167665
 20
2.727106545596241
 30
0.0
  0
VERTEX
  5
201
  8
THREE_QUARTER_INCH_THRUCUT
 10
61.6930983409874
 20
2.727106568251527
 30
0.0
  0
VERTEX
  5
202
  8
THREE_QUARTER_INCH_THRUCUT
 10
61.69309834098729
 20
2.127106307897163
 30
0.0
  0
VERTEX
  5
203
  8
THREE_QUARTER_INCH_THRUCUT
 10
62.3792505739589
 20
2.12710632252775
 30
0.0
 42
-1.0
  0
VERTEX
  5
204
  8
THREE_QUARTER_INCH_THRUCUT
 10
62.56309834098741
 20
1.943258559418935
 30
0.0
  0
VERTEX
  5
205
  8
THREE_QUARTER_INCH_THRUCUT
 10
62.5630983409873
 20
1.757105039757944
 30
0.0
 42
0.4142106424158553
  0
VERTEX
  5
206
  8
THREE_QUARTER_INCH_THRUCUT
 10
62.6930970466598
 20
1.627105039765282
 30
0.0
  0
VERTEX
  5
207
  8
THREE_QUARTER_INCH_THRUCUT
 10
65.93808766430001
 20
1.627120898467509
 30
0.0
  0
SEQEND
  5
41F
  8
THREE_QUARTER_INCH_THRUCUT
  0
POLYLINE
  5
87
  8
THREE_QUARTER_INCH_THRUCUT
 66
     1
 10
0.0
 20
0.0
 30
0.0
 70
     1
  0
VERTEX
  5
208
  8
THREE_QUARTER_INCH_THRUCUT
 10
7.340286888922147
 20
46.78471315611355
 30
0.0
  0
VERTEX
  5
209
  8
THREE_QUARTER_INCH_THRUCUT
 10
2.325286888356086
 20
46.78471316205197
 30
0.0
  0
VERTEX
  5
20A
  8
THREE_QUARTER_INCH_THRUCUT
 10
2.325286888355404
 20
37.10800056362474
 30
0.0
 42
-1.0
  0
VERTEX
  5
20B
  8
THREE_QUARTER_INCH_THRUCUT
 10
2.325286888355404
 20
36.84721316204993
 30
0.0
  0
VERTEX
  5
20C
  8
THREE_QUARTER_INCH_THRUCUT
 10
1.575286888356086
 20
36.84721316205197
 30
0.0
  0
VERTEX
  5
20D
  8
THREE_QUARTER_INCH_THRUCUT
 10
1.575286888356086
 20
30.03471316205197
 30
0.0
  0
VERTEX
  5
20E
  8
THREE_QUARTER_INCH_THRUCUT
 10
1.950286888355404
 20
30.03471316204992
 30
0.0
 42
-1.0
  0
VERTEX
  5
20F
  8
THREE_QUARTER_INCH_THRUCUT
 10
1.950286888355489
 20
29.77392576047511
 30
0.0
  0
VERTEX
  5
210
  8
THREE_QUARTER_INCH_THRUCUT
 10
1.950286888356086
 20
28.03471316205197
 30
0.0
  0
VERTEX
  5
211
  8
THREE_QUARTER_INCH_THRUCUT
 10
2.325286888355404
 20
28.0347131620572
 30
0.0
 42
-1.0
  0
VERTEX
  5
212
  8
THREE_QUARTER_INCH_THRUCUT
 10
2.32528688835546
 20
27.77392576048238
 30
0.0
  0
VERTEX
  5
213
  8
THREE_QUARTER_INCH_THRUCUT
 10
2.32528688835546
 20
25.29550056362475
 30
0.0
 42
-1.0
  0
VERTEX
  5
214
  8
THREE_QUARTER_INCH_THRUCUT
 10
2.32528688835546
 20
25.03471316204994
 30
0.0
  0
VERTEX
  5
215
  8
THREE_QUARTER_INCH_THRUCUT
 10
1.950286888356086
 20
25.03471316205198
 30
0.0
  0
VERTEX
  5
216
  8
THREE_QUARTER_INCH_THRUCUT
 10
1.950286888355489
 20
23.29550056362475
 30
0.0
 42
-1.0
  0
VERTEX
  5
217
  8
THREE_QUARTER_INCH_THRUCUT
 10
1.950286888355404
 20
23.03471316204994
 30
0.0
  0
VERTEX
  5
218
  8
THREE_QUARTER_INCH_THRUCUT
 10
1.575286888356086
 20
23.03471316205198
 30
0.0
  0
VERTEX
  5
219
  8
THREE_QUARTER_INCH_THRUCUT
 10
1.575286888356086
 20
16.22221316205198
 30
0.0
  0
VERTEX
  5
21A
  8
THREE_QUARTER_INCH_THRUCUT
 10
2.325286888355404
 20
16.22221316204994
 30
0.0
 42
-1.0
  0
VERTEX
  5
21B
  8
THREE_QUARTER_INCH_THRUCUT
 10
2.325286888355432
 20
15.96142576047512
 30
0.0
  0
VERTEX
  5
21C
  8
THREE_QUARTER_INCH_THRUCUT
 10
2.325286888356086
 20
9.784713162051982
 30
0.0
  0
VERTEX
  5
21D
  8
THREE_QUARTER_INCH_THRUCUT
 10
2.325286888356086
 20
9.284713166231793
 30
0.0
  0
VERTEX
  5
21E
  8
THREE_QUARTER_INCH_THRUCUT
 10
67.57528688948587
 20
9.284713163534686
 30
0.0
  0
VERTEX
  5
21F
  8
THREE_QUARTER_INCH_THRUCUT
 10
67.57528578414671
 20
14.26601368230947
 30
0.0
 42
-0.4142135623731151
  0
VERTEX
  5
220
  8
THREE_QUARTER_INCH_THRUCUT
 10
67.57528465696218
 20
14.53471428100604
 30
0.0
 42
-0.4142135623730996
  0
VERTEX
  5
221
  8
THREE_QUARTER_INCH_THRUCUT
 10
67.84398525565864
 20
14.53471430285165
 30
0.0
  0
VERTEX
  5
222
  8
THREE_QUARTER_INCH_THRUCUT
 10
68.17528613511654
 20
14.53471430285165
 30
0.0
  0
VERTEX
  5
223
  8
THREE_QUARTER_INCH_THRUCUT
 10
68.19265113511658
 20
14.53623330285157
 30
0.0
  0
VERTEX
  5
224
  8
THREE_QUARTER_INCH_THRUCUT
 10
68.20948913511658
 20
14.54074430285166
 30
0.0
  0
VERTEX
  5
225
  8
THREE_QUARTER_INCH_THRUCUT
 10
68.2252861351166
 20
14.54811130285159
 30
0.0
  0
VERTEX
  5
226
  8
THREE_QUARTER_INCH_THRUCUT
 10
68.23956513511659
 20
14.55810930285159
 30
0.0
  0
VERTEX
  5
227
  8
THREE_QUARTER_INCH_THRUCUT
 10
68.25189113511662
 20
14.57043530285162
 30
0.0
  0
VERTEX
  5
228
  8
THREE_QUARTER_INCH_THRUCUT
 10
68.26188913511662
 20
14.58471430285161
 30
0.0
  0
VERTEX
  5
229
  8
THREE_QUARTER_INCH_THRUCUT
 10
68.26925613511655
 20
14.60051230285151
 30
0.0
  0
VERTEX
  5
22A
  8
THREE_QUARTER_INCH_THRUCUT
 10
68.27376713511653
 20
14.61734930285163
 30
0.0
  0
VERTEX
  5
22B
  8
THREE_QUARTER_INCH_THRUCUT
 10
68.27528613511656
 20
14.63471430285156
 30
0.0
  0
VERTEX
  5
22C
  8
THREE_QUARTER_INCH_THRUCUT
 10
68.27528613511656
 20
16.03471380285171
 30
0.0
  0
VERTEX
  5
22D
  8
THREE_QUARTER_INCH_THRUCUT
 10
68.27528613511656
 20
17.43471330285163
 30
0.0
  0
VERTEX
  5
22E
  8
THREE_QUARTER_INCH_THRUCUT
 10
68.27376713511653
 20
17.45207830285156
 30
0.0
  0
VERTEX
  5
22F
  8
THREE_QUARTER_INCH_THRUCUT
 10
68.26925613511655
 20
17.46891530285168
 30
0.0
  0
VERTEX
  5
230
  8
THREE_QUARTER_INCH_THRUCUT
 10
68.26188913511662
 20
17.48471330285158
 30
0.0
  0
VERTEX
  5
231
  8
THREE_QUARTER_INCH_THRUCUT
 10
68.25189113511662
 20
17.49899230285157
 30
0.0
  0
VERTEX
  5
232
  8
THREE_QUARTER_INCH_THRUCUT
 10
68.23956513511659
 20
17.5113183028516
 30
0.0
  0
VERTEX
  5
233
  8
THREE_QUARTER_INCH_THRUCUT
 10
68.2252861351166
 20
17.5213163028516
 30
0.0
  0
VERTEX
  5
234
  8
THREE_QUARTER_INCH_THRUCUT
 10
68.20948913511658
 20
17.52868330285153
 30
0.0
  0
VERTEX
  5
235
  8
THREE_QUARTER_INCH_THRUCUT
 10
68.19265113511658
 20
17.53319430285162
 30
0.0
  0
VERTEX
  5
236
  8
THREE_QUARTER_INCH_THRUCUT
 10
68.17528613511654
 20
17.53471330285154
 30
0.0
  0
VERTEX
  5
237
  8
THREE_QUARTER_INCH_THRUCUT
 10
67.84398967701456
 20
17.53471330285154
 30
0.0
 42
-1.0
  0
VERTEX
  5
238
  8
THREE_QUARTER_INCH_THRUCUT
 10
67.57528799482468
 20
17.8034126432515
 30
0.0
  0
VERTEX
  5
239
  8
THREE_QUARTER_INCH_THRUCUT
 10
67.57528690646556
 20
21.90471316278056
 30
0.0
  0
VERTEX
  5
23A
  8
THREE_QUARTER_INCH_THRUCUT
 10
66.97528662913133
 20
21.90471316278045
 30
0.0
  0
VERTEX
  5
23B
  8
THREE_QUARTER_INCH_THRUCUT
 10
66.97528665178662
 20
21.2185557520912
 30
0.0
 42
-1.0
  0
VERTEX
  5
23C
  8
THREE_QUARTER_INCH_THRUCUT
 10
66.79143660030864
 20
21.03470798292662
 30
0.0
  0
VERTEX
  5
23D
  8
THREE_QUARTER_INCH_THRUCUT
 10
66.6591321518532
 20
21.03470962973186
 30
0.0
 42
-1.0
  0
VERTEX
  5
23E
  8
THREE_QUARTER_INCH_THRUCUT
 10
66.47528667711423
 20
21.21855739282884
 30
0.0
  0
VERTEX
  5
23F
  8
THREE_QUARTER_INCH_THRUCUT
 10
66.47528667712423
 20
21.90471316278042
 30
0.0
  0
VERTEX
  5
240
  8
THREE_QUARTER_INCH_THRUCUT
 10
65.98810977276189
 20
21.90471316278048
 30
0.0
  0
VERTEX
  5
241
  8
THREE_QUARTER_INCH_THRUCUT
 10
65.98810977276189
 20
22.16471316278055
 30
0.0
  0
VERTEX
  5
242
  8
THREE_QUARTER_INCH_THRUCUT
 10
66.47528667712423
 20
22.16471316278055
 30
0.0
  0
VERTEX
  5
243
  8
THREE_QUARTER_INCH_THRUCUT
 10
66.47528667711423
 20
22.85086893273215
 30
0.0
 42
-1.0
  0
VERTEX
  5
244
  8
THREE_QUARTER_INCH_THRUCUT
 10
66.6591321518532
 20
23.03471669582914
 30
0.0
  0
VERTEX
  5
245
  8
THREE_QUARTER_INCH_THRUCUT
 10
66.79143660030864
 20
23.03471834263437
 30
0.0
 42
-1.0
  0
VERTEX
  5
246
  8
THREE_QUARTER_INCH_THRUCUT
 10
66.97528665178662
 20
22.8508705734698
 30
0.0
  0
VERTEX
  5
247
  8
THREE_QUARTER_INCH_THRUCUT
 10
66.97528662913133
 20
22.16471316278055
 30
0.0
  0
VERTEX
  5
248
  8
THREE_QUARTER_INCH_THRUCUT
 10
67.57528687250583
 20
22.16471316278038
 30
0.0
  0
VERTEX
  5
249
  8
THREE_QUARTER_INCH_THRUCUT
 10
67.57528578414671
 20
26.26601368230947
 30
0.0
 42
-0.4142135623731151
  0
VERTEX
  5
24A
  8
THREE_QUARTER_INCH_THRUCUT
 10
67.57528465696218
 20
26.53471428100604
 30
0.0
 42
-0.4142135623730996
  0
VERTEX
  5
24B
  8
THREE_QUARTER_INCH_THRUCUT
 10
67.84398525565864
 20
26.53471430285165
 30
0.0
  0
VERTEX
  5
24C
  8
THREE_QUARTER_INCH_THRUCUT
 10
68.17528613511654
 20
26.53471430285165
 30
0.0
  0
VERTEX
  5
24D
  8
THREE_QUARTER_INCH_THRUCUT
 10
68.19265113511658
 20
26.53623330285157
 30
0.0
  0
VERTEX
  5
24E
  8
THREE_QUARTER_INCH_THRUCUT
 10
68.20948913511658
 20
26.54074430285166
 30
0.0
  0
VERTEX
  5
24F
  8
THREE_QUARTER_INCH_THRUCUT
 10
68.2252861351166
 20
26.54811130285159
 30
0.0
  0
VERTEX
  5
250
  8
THREE_QUARTER_INCH_THRUCUT
 10
68.23956513511659
 20
26.55810930285159
 30
0.0
  0
VERTEX
  5
251
  8
THREE_QUARTER_INCH_THRUCUT
 10
68.25189113511662
 20
26.57043530285162
 30
0.0
  0
VERTEX
  5
252
  8
THREE_QUARTER_INCH_THRUCUT
 10
68.26188913511662
 20
26.58471430285161
 30
0.0
  0
VERTEX
  5
253
  8
THREE_QUARTER_INCH_THRUCUT
 10
68.26925613511655
 20
26.60051230285151
 30
0.0
  0
VERTEX
  5
254
  8
THREE_QUARTER_INCH_THRUCUT
 10
68.27376713511653
 20
26.61734930285163
 30
0.0
  0
VERTEX
  5
255
  8
THREE_QUARTER_INCH_THRUCUT
 10
68.27528613511656
 20
26.63471430285156
 30
0.0
  0
VERTEX
  5
256
  8
THREE_QUARTER_INCH_THRUCUT
 10
68.27528613511656
 20
28.03471380285169
 30
0.0
  0
VERTEX
  5
257
  8
THREE_QUARTER_INCH_THRUCUT
 10
68.27528613511656
 20
29.43471330285162
 30
0.0
  0
VERTEX
  5
258
  8
THREE_QUARTER_INCH_THRUCUT
 10
68.27376713511653
 20
29.45207830285154
 30
0.0
  0
VERTEX
  5
259
  8
THREE_QUARTER_INCH_THRUCUT
 10
68.26925613511655
 20
29.46891530285167
 30
0.0
  0
VERTEX
  5
25A
  8
THREE_QUARTER_INCH_THRUCUT
 10
68.26188913511662
 20
29.48471330285157
 30
0.0
  0
VERTEX
  5
25B
  8
THREE_QUARTER_INCH_THRUCUT
 10
68.25189113511662
 20
29.49899230285156
 30
0.0
  0
VERTEX
  5
25C
  8
THREE_QUARTER_INCH_THRUCUT
 10
68.23956513511659
 20
29.51131830285159
 30
0.0
  0
VERTEX
  5
25D
  8
THREE_QUARTER_INCH_THRUCUT
 10
68.2252861351166
 20
29.52131630285158
 30
0.0
  0
VERTEX
  5
25E
  8
THREE_QUARTER_INCH_THRUCUT
 10
68.20948913511658
 20
29.52868330285152
 30
0.0
  0
VERTEX
  5
25F
  8
THREE_QUARTER_INCH_THRUCUT
 10
68.19265113511658
 20
29.53319430285161
 30
0.0
  0
VERTEX
  5
260
  8
THREE_QUARTER_INCH_THRUCUT
 10
68.17528613511654
 20
29.53471330285153
 30
0.0
  0
VERTEX
  5
261
  8
THREE_QUARTER_INCH_THRUCUT
 10
67.84398967701456
 20
29.53471330285153
 30
0.0
 42
-1.0
  0
VERTEX
  5
262
  8
THREE_QUARTER_INCH_THRUCUT
 10
67.57528799482468
 20
29.80341264327718
 30
0.0
  0
VERTEX
  5
263
  8
THREE_QUARTER_INCH_THRUCUT
 10
67.57528690646562
 20
33.90471316279341
 30
0.0
  0
VERTEX
  5
264
  8
THREE_QUARTER_INCH_THRUCUT
 10
66.97528662913133
 20
33.9047131627933
 30
0.0
  0
VERTEX
  5
265
  8
THREE_QUARTER_INCH_THRUCUT
 10
66.97528665178662
 20
33.21855575210405
 30
0.0
 42
-1.0
  0
VERTEX
  5
266
  8
THREE_QUARTER_INCH_THRUCUT
 10
66.79143660030864
 20
33.03470798293947
 30
0.0
  0
VERTEX
  5
267
  8
THREE_QUARTER_INCH_THRUCUT
 10
66.6591321518532
 20
33.03470962974471
 30
0.0
 42
-1.0
  0
VERTEX
  5
268
  8
THREE_QUARTER_INCH_THRUCUT
 10
66.47528667711423
 20
33.21855739284169
 30
0.0
  0
VERTEX
  5
269
  8
THREE_QUARTER_INCH_THRUCUT
 10
66.47528667712423
 20
33.90471316279327
 30
0.0
  0
VERTEX
  5
26A
  8
THREE_QUARTER_INCH_THRUCUT
 10
65.98810977276189
 20
33.90471316279333
 30
0.0
  0
VERTEX
  5
26B
  8
THREE_QUARTER_INCH_THRUCUT
 10
65.98810977276189
 20
34.1647131627934
 30
0.0
  0
VERTEX
  5
26C
  8
THREE_QUARTER_INCH_THRUCUT
 10
66.47528667712423
 20
34.1647131627934
 30
0.0
  0
VERTEX
  5
26D
  8
THREE_QUARTER_INCH_THRUCUT
 10
66.47528667711423
 20
34.850868932745
 30
0.0
 42
-1.0
  0
VERTEX
  5
26E
  8
THREE_QUARTER_INCH_THRUCUT
 10
66.6591321518532
 20
35.03471669584199
 30
0.0
  0
VERTEX
  5
26F
  8
THREE_QUARTER_INCH_THRUCUT
 10
66.79143660030864
 20
35.03471834264722
 30
0.0
 42
-1.0
  0
VERTEX
  5
270
  8
THREE_QUARTER_INCH_THRUCUT
 10
66.97528665178662
 20
34.85087057348265
 30
0.0
  0
VERTEX
  5
271
  8
THREE_QUARTER_INCH_THRUCUT
 10
66.97528662913133
 20
34.1647131627934
 30
0.0
  0
VERTEX
  5
272
  8
THREE_QUARTER_INCH_THRUCUT
 10
67.57528687250583
 20
34.16471316279329
 30
0.0
  0
VERTEX
  5
273
  8
THREE_QUARTER_INCH_THRUCUT
 10
67.57528578414671
 20
38.26601368230946
 30
0.0
 42
-0.4142135623731151
  0
VERTEX
  5
274
  8
THREE_QUARTER_INCH_THRUCUT
 10
67.57528465696218
 20
38.53471428100603
 30
0.0
 42
-0.4142135623730996
  0
VERTEX
  5
275
  8
THREE_QUARTER_INCH_THRUCUT
 10
67.84398525565864
 20
38.53471430285164
 30
0.0
  0
VERTEX
  5
276
  8
THREE_QUARTER_INCH_THRUCUT
 10
68.17528613511654
 20
38.53471430285164
 30
0.0
  0
VERTEX
  5
277
  8
THREE_QUARTER_INCH_THRUCUT
 10
68.19265113511658
 20
38.53623330285156
 30
0.0
  0
VERTEX
  5
278
  8
THREE_QUARTER_INCH_THRUCUT
 10
68.20948913511658
 20
38.54074430285165
 30
0.0
  0
VERTEX
  5
279
  8
THREE_QUARTER_INCH_THRUCUT
 10
68.2252861351166
 20
38.54811130285158
 30
0.0
  0
VERTEX
  5
27A
  8
THREE_QUARTER_INCH_THRUCUT
 10
68.23956513511659
 20
38.55810930285158
 30
0.0
  0
VERTEX
  5
27B
  8
THREE_QUARTER_INCH_THRUCUT
 10
68.25189113511662
 20
38.57043530285161
 30
0.0
  0
VERTEX
  5
27C
  8
THREE_QUARTER_INCH_THRUCUT
 10
68.26188913511662
 20
38.58471430285159
 30
0.0
  0
VERTEX
  5
27D
  8
THREE_QUARTER_INCH_THRUCUT
 10
68.26925613511655
 20
38.6005123028515
 30
0.0
  0
VERTEX
  5
27E
  8
THREE_QUARTER_INCH_THRUCUT
 10
68.27376713511653
 20
38.61734930285162
 30
0.0
  0
VERTEX
  5
27F
  8
THREE_QUARTER_INCH_THRUCUT
 10
68.27528613511656
 20
38.63471430285155
 30
0.0
  0
VERTEX
  5
280
  8
THREE_QUARTER_INCH_THRUCUT
 10
68.27528613511656
 20
40.0347138028517
 30
0.0
  0
VERTEX
  5
281
  8
THREE_QUARTER_INCH_THRUCUT
 10
68.27528613511656
 20
41.43471330285162
 30
0.0
  0
VERTEX
  5
282
  8
THREE_QUARTER_INCH_THRUCUT
 10
68.27376713511653
 20
41.45207830285155
 30
0.0
  0
VERTEX
  5
283
  8
THREE_QUARTER_INCH_THRUCUT
 10
68.26925613511655
 20
41.46891530285167
 30
0.0
  0
VERTEX
  5
284
  8
THREE_QUARTER_INCH_THRUCUT
 10
68.26188913511662
 20
41.48471330285157
 30
0.0
  0
VERTEX
  5
285
  8
THREE_QUARTER_INCH_THRUCUT
 10
68.25189113511662
 20
41.49899230285156
 30
0.0
  0
VERTEX
  5
286
  8
THREE_QUARTER_INCH_THRUCUT
 10
68.23956513511659
 20
41.51131830285159
 30
0.0
  0
VERTEX
  5
287
  8
THREE_QUARTER_INCH_THRUCUT
 10
68.2252861351166
 20
41.52131630285159
 30
0.0
  0
VERTEX
  5
288
  8
THREE_QUARTER_INCH_THRUCUT
 10
68.20948913511658
 20
41.52868330285152
 30
0.0
  0
VERTEX
  5
289
  8
THREE_QUARTER_INCH_THRUCUT
 10
68.19265113511658
 20
41.53319430285161
 30
0.0
  0
VERTEX
  5
28A
  8
THREE_QUARTER_INCH_THRUCUT
 10
68.17528613511654
 20
41.53471330285153
 30
0.0
  0
VERTEX
  5
28B
  8
THREE_QUARTER_INCH_THRUCUT
 10
67.84398967701456
 20
41.53471330285153
 30
0.0
 42
-1.0
  0
VERTEX
  5
28C
  8
THREE_QUARTER_INCH_THRUCUT
 10
67.57528799482468
 20
41.80341264332675
 30
0.0
  0
VERTEX
  5
28D
  8
THREE_QUARTER_INCH_THRUCUT
 10
67.57528665135531
 20
46.78471316205209
 30
0.0
  0
VERTEX
  5
28E
  8
THREE_QUARTER_INCH_THRUCUT
 10
62.60028688892173
 20
46.78471317309345
 30
0.0
  0
VERTEX
  5
28F
  8
THREE_QUARTER_INCH_THRUCUT
 10
62.6002868889221
 20
46.18471290680064
 30
0.0
  0
VERTEX
  5
290
  8
THREE_QUARTER_INCH_THRUCUT
 10
63.28644429961135
 20
46.18471292945593
 30
0.0
 42
-1.0
  0
VERTEX
  5
291
  8
THREE_QUARTER_INCH_THRUCUT
 10
63.47029206877592
 20
46.00086287797795
 30
0.0
  0
VERTEX
  5
292
  8
THREE_QUARTER_INCH_THRUCUT
 10
63.47029042197069
 20
45.86855842952251
 30
0.0
 42
-1.0
  0
VERTEX
  5
293
  8
THREE_QUARTER_INCH_THRUCUT
 10
63.2864426588737
 20
45.68471295478354
 30
0.0
  0
VERTEX
  5
294
  8
THREE_QUARTER_INCH_THRUCUT
 10
62.6002868889221
 20
45.68471295479354
 30
0.0
  0
VERTEX
  5
295
  8
THREE_QUARTER_INCH_THRUCUT
 10
62.60028688892204
 20
45.1975360504312
 30
0.0
  0
VERTEX
  5
296
  8
THREE_QUARTER_INCH_THRUCUT
 10
62.34028688892199
 20
45.1975360504312
 30
0.0
  0
VERTEX
  5
297
  8
THREE_QUARTER_INCH_THRUCUT
 10
62.34028688892199
 20
45.68471295479354
 30
0.0
  0
VERTEX
  5
298
  8
THREE_QUARTER_INCH_THRUCUT
 10
61.6541311189704
 20
45.68471295478354
 30
0.0
 42
-1.0
  0
VERTEX
  5
299
  8
THREE_QUARTER_INCH_THRUCUT
 10
61.47028335587341
 20
45.86855842952251
 30
0.0
  0
VERTEX
  5
29A
  8
THREE_QUARTER_INCH_THRUCUT
 10
61.47028170906817
 20
46.00086287797795
 30
0.0
 42
-1.0
  0
VERTEX
  5
29B
  8
THREE_QUARTER_INCH_THRUCUT
 10
61.65412947823275
 20
46.18471292945593
 30
0.0
  0
VERTEX
  5
29C
  8
THREE_QUARTER_INCH_THRUCUT
 10
62.34028688892199
 20
46.18471290680064
 30
0.0
  0
VERTEX
  5
29D
  8
THREE_QUARTER_INCH_THRUCUT
 10
62.34028688892217
 20
46.78471315611358
 30
0.0
  0
VERTEX
  5
29E
  8
THREE_QUARTER_INCH_THRUCUT
 10
58.21107429050095
 20
46.78471316205197
 30
0.0
 42
-1.0
  0
VERTEX
  5
29F
  8
THREE_QUARTER_INCH_THRUCUT
 10
57.95028688892613
 20
46.78471316205197
 30
0.0
  0
VERTEX
  5
2A0
  8
THREE_QUARTER_INCH_THRUCUT
 10
57.95028688892209
 20
47.28471316205197
 30
0.0
  0
VERTEX
  5
2A1
  8
THREE_QUARTER_INCH_THRUCUT
 10
55.95028688892209
 20
47.28471316205197
 30
0.0
  0
VERTEX
  5
2A2
  8
THREE_QUARTER_INCH_THRUCUT
 10
55.95028688891885
 20
46.78471316205197
 30
0.0
 42
-1.0
  0
VERTEX
  5
2A3
  8
THREE_QUARTER_INCH_THRUCUT
 10
55.68949948734404
 20
46.78471316205197
 30
0.0
  0
VERTEX
  5
2A4
  8
THREE_QUARTER_INCH_THRUCUT
 10
51.60028688892199
 20
46.78471317309342
 30
0.0
  0
VERTEX
  5
2A5
  8
THREE_QUARTER_INCH_THRUCUT
 10
51.6002868889221
 20
46.18471290680064
 30
0.0
  0
VERTEX
  5
2A6
  8
THREE_QUARTER_INCH_THRUCUT
 10
52.28644429961135
 20
46.18471292945593
 30
0.0
 42
-1.0
  0
VERTEX
  5
2A7
  8
THREE_QUARTER_INCH_THRUCUT
 10
52.47029206877592
 20
46.00086287797795
 30
0.0
  0
VERTEX
  5
2A8
  8
THREE_QUARTER_INCH_THRUCUT
 10
52.47029042197069
 20
45.86855842952251
 30
0.0
 42
-1.0
  0
VERTEX
  5
2A9
  8
THREE_QUARTER_INCH_THRUCUT
 10
52.2864426588737
 20
45.68471295478354
 30
0.0
  0
VERTEX
  5
2AA
  8
THREE_QUARTER_INCH_THRUCUT
 10
51.6002868889221
 20
45.68471295479354
 30
0.0
  0
VERTEX
  5
2AB
  8
THREE_QUARTER_INCH_THRUCUT
 10
51.60028688892204
 20
45.1975360504312
 30
0.0
  0
VERTEX
  5
2AC
  8
THREE_QUARTER_INCH_THRUCUT
 10
51.34028688892199
 20
45.1975360504312
 30
0.0
  0
VERTEX
  5
2AD
  8
THREE_QUARTER_INCH_THRUCUT
 10
51.34028688892199
 20
45.68471295479354
 30
0.0
  0
VERTEX
  5
2AE
  8
THREE_QUARTER_INCH_THRUCUT
 10
50.6541311189704
 20
45.68471295478354
 30
0.0
 42
-1.0
  0
VERTEX
  5
2AF
  8
THREE_QUARTER_INCH_THRUCUT
 10
50.47028335587341
 20
45.86855842952251
 30
0.0
  0
VERTEX
  5
2B0
  8
THREE_QUARTER_INCH_THRUCUT
 10
50.47028170906817
 20
46.00086287797795
 30
0.0
 42
-1.0
  0
VERTEX
  5
2B1
  8
THREE_QUARTER_INCH_THRUCUT
 10
50.65412947823275
 20
46.18471292945593
 30
0.0
  0
VERTEX
  5
2B2
  8
THREE_QUARTER_INCH_THRUCUT
 10
51.34028688892199
 20
46.18471290680064
 30
0.0
  0
VERTEX
  5
2B3
  8
THREE_QUARTER_INCH_THRUCUT
 10
51.34028688892217
 20
46.78471315611355
 30
0.0
  0
VERTEX
  5
2B4
  8
THREE_QUARTER_INCH_THRUCUT
 10
40.60028688892162
 20
46.78471317309342
 30
0.0
  0
VERTEX
  5
2B5
  8
THREE_QUARTER_INCH_THRUCUT
 10
40.6002868889221
 20
46.18471290680064
 30
0.0
  0
VERTEX
  5
2B6
  8
THREE_QUARTER_INCH_THRUCUT
 10
41.28644429961135
 20
46.18471292945593
 30
0.0
 42
-1.0
  0
VERTEX
  5
2B7
  8
THREE_QUARTER_INCH_THRUCUT
 10
41.47029206877592
 20
46.00086287797795
 30
0.0
  0
VERTEX
  5
2B8
  8
THREE_QUARTER_INCH_THRUCUT
 10
41.47029042197069
 20
45.86855842952251
 30
0.0
 42
-1.0
  0
VERTEX
  5
2B9
  8
THREE_QUARTER_INCH_THRUCUT
 10
41.2864426588737
 20
45.68471295478354
 30
0.0
  0
VERTEX
  5
2BA
  8
THREE_QUARTER_INCH_THRUCUT
 10
40.6002868889221
 20
45.68471295479354
 30
0.0
  0
VERTEX
  5
2BB
  8
THREE_QUARTER_INCH_THRUCUT
 10
40.60028688892204
 20
45.1975360504312
 30
0.0
  0
VERTEX
  5
2BC
  8
THREE_QUARTER_INCH_THRUCUT
 10
40.34028688892199
 20
45.1975360504312
 30
0.0
  0
VERTEX
  5
2BD
  8
THREE_QUARTER_INCH_THRUCUT
 10
40.34028688892199
 20
45.68471295479354
 30
0.0
  0
VERTEX
  5
2BE
  8
THREE_QUARTER_INCH_THRUCUT
 10
39.65413111897038
 20
45.68471295478354
 30
0.0
 42
-1.0
  0
VERTEX
  5
2BF
  8
THREE_QUARTER_INCH_THRUCUT
 10
39.47028335587339
 20
45.86855842952251
 30
0.0
  0
VERTEX
  5
2C0
  8
THREE_QUARTER_INCH_THRUCUT
 10
39.47028170906816
 20
46.00086287797795
 30
0.0
 42
-1.0
  0
VERTEX
  5
2C1
  8
THREE_QUARTER_INCH_THRUCUT
 10
39.65412947823273
 20
46.18471292945593
 30
0.0
  0
VERTEX
  5
2C2
  8
THREE_QUARTER_INCH_THRUCUT
 10
40.34028688892199
 20
46.18471290680064
 30
0.0
  0
VERTEX
  5
2C3
  8
THREE_QUARTER_INCH_THRUCUT
 10
40.34028688892217
 20
46.78471315611355
 30
0.0
  0
VERTEX
  5
2C4
  8
THREE_QUARTER_INCH_THRUCUT
 10
36.21107429050096
 20
46.78471316205197
 30
0.0
 42
-1.0
  0
VERTEX
  5
2C5
  8
THREE_QUARTER_INCH_THRUCUT
 10
35.95028688892614
 20
46.78471316205197
 30
0.0
  0
VERTEX
  5
2C6
  8
THREE_QUARTER_INCH_THRUCUT
 10
35.95028688892211
 20
47.28471316205197
 30
0.0
  0
VERTEX
  5
2C7
  8
THREE_QUARTER_INCH_THRUCUT
 10
33.95028688892211
 20
47.28471316205197
 30
0.0
  0
VERTEX
  5
2C8
  8
THREE_QUARTER_INCH_THRUCUT
 10
33.95028688891887
 20
46.78471316205197
 30
0.0
 42
-1.0
  0
VERTEX
  5
2C9
  8
THREE_QUARTER_INCH_THRUCUT
 10
33.68949948734408
 20
46.78471316205197
 30
0.0
  0
VERTEX
  5
2CA
  8
THREE_QUARTER_INCH_THRUCUT
 10
29.60028688892197
 20
46.78471317309342
 30
0.0
  0
VERTEX
  5
2CB
  8
THREE_QUARTER_INCH_THRUCUT
 10
29.60028688892208
 20
46.18471290680064
 30
0.0
  0
VERTEX
  5
2CC
  8
THREE_QUARTER_INCH_THRUCUT
 10
30.28644429961133
 20
46.18471292945593
 30
0.0
 42
-1.0
  0
VERTEX
  5
2CD
  8
THREE_QUARTER_INCH_THRUCUT
 10
30.4702920687759
 20
46.00086287797795
 30
0.0
  0
VERTEX
  5
2CE
  8
THREE_QUARTER_INCH_THRUCUT
 10
30.47029042197067
 20
45.86855842952251
 30
0.0
 42
-1.0
  0
VERTEX
  5
2CF
  8
THREE_QUARTER_INCH_THRUCUT
 10
30.28644265887368
 20
45.68471295478354
 30
0.0
  0
VERTEX
  5
2D0
  8
THREE_QUARTER_INCH_THRUCUT
 10
29.60028688892208
 20
45.68471295479354
 30
0.0
  0
VERTEX
  5
2D1
  8
THREE_QUARTER_INCH_THRUCUT
 10
29.60028688892202
 20
45.1975360504312
 30
0.0
  0
VERTEX
  5
2D2
  8
THREE_QUARTER_INCH_THRUCUT
 10
29.34028688892198
 20
45.1975360504312
 30
0.0
  0
VERTEX
  5
2D3
  8
THREE_QUARTER_INCH_THRUCUT
 10
29.34028688892198
 20
45.68471295479354
 30
0.0
  0
VERTEX
  5
2D4
  8
THREE_QUARTER_INCH_THRUCUT
 10
28.65413111897038
 20
45.68471295478354
 30
0.0
 42
-1.0
  0
VERTEX
  5
2D5
  8
THREE_QUARTER_INCH_THRUCUT
 10
28.47028335587339
 20
45.86855842952251
 30
0.0
  0
VERTEX
  5
2D6
  8
THREE_QUARTER_INCH_THRUCUT
 10
28.47028170906816
 20
46.00086287797795
 30
0.0
 42
-1.0
  0
VERTEX
  5
2D7
  8
THREE_QUARTER_INCH_THRUCUT
 10
28.65412947823273
 20
46.18471292945593
 30
0.0
  0
VERTEX
  5
2D8
  8
THREE_QUARTER_INCH_THRUCUT
 10
29.34028688892198
 20
46.18471290680064
 30
0.0
  0
VERTEX
  5
2D9
  8
THREE_QUARTER_INCH_THRUCUT
 10
29.34028688892215
 20
46.78471315611355
 30
0.0
  0
VERTEX
  5
2DA
  8
THREE_QUARTER_INCH_THRUCUT
 10
18.60028688892197
 20
46.78471317309342
 30
0.0
  0
VERTEX
  5
2DB
  8
THREE_QUARTER_INCH_THRUCUT
 10
18.60028688892208
 20
46.18471290680064
 30
0.0
  0
VERTEX
  5
2DC
  8
THREE_QUARTER_INCH_THRUCUT
 10
19.28644429961133
 20
46.18471292945593
 30
0.0
 42
-1.0
  0
VERTEX
  5
2DD
  8
THREE_QUARTER_INCH_THRUCUT
 10
19.4702920687759
 20
46.00086287797795
 30
0.0
  0
VERTEX
  5
2DE
  8
THREE_QUARTER_INCH_THRUCUT
 10
19.47029042197067
 20
45.86855842952251
 30
0.0
 42
-1.0
  0
VERTEX
  5
2DF
  8
THREE_QUARTER_INCH_THRUCUT
 10
19.28644265887368
 20
45.68471295478354
 30
0.0
  0
VERTEX
  5
2E0
  8
THREE_QUARTER_INCH_THRUCUT
 10
18.60028688892208
 20
45.68471295479354
 30
0.0
  0
VERTEX
  5
2E1
  8
THREE_QUARTER_INCH_THRUCUT
 10
18.60028688892202
 20
45.1975360504312
 30
0.0
  0
VERTEX
  5
2E2
  8
THREE_QUARTER_INCH_THRUCUT
 10
18.34028688892198
 20
45.1975360504312
 30
0.0
  0
VERTEX
  5
2E3
  8
THREE_QUARTER_INCH_THRUCUT
 10
18.34028688892198
 20
45.68471295479354
 30
0.0
  0
VERTEX
  5
2E4
  8
THREE_QUARTER_INCH_THRUCUT
 10
17.65413111897038
 20
45.68471295478354
 30
0.0
 42
-1.0
  0
VERTEX
  5
2E5
  8
THREE_QUARTER_INCH_THRUCUT
 10
17.47028335587339
 20
45.86855842952251
 30
0.0
  0
VERTEX
  5
2E6
  8
THREE_QUARTER_INCH_THRUCUT
 10
17.47028170906816
 20
46.00086287797795
 30
0.0
 42
-1.0
  0
VERTEX
  5
2E7
  8
THREE_QUARTER_INCH_THRUCUT
 10
17.65412947823273
 20
46.18471292945593
 30
0.0
  0
VERTEX
  5
2E8
  8
THREE_QUARTER_INCH_THRUCUT
 10
18.34028688892198
 20
46.18471290680064
 30
0.0
  0
VERTEX
  5
2E9
  8
THREE_QUARTER_INCH_THRUCUT
 10
18.34028688892215
 20
46.78471315611355
 30
0.0
  0
VERTEX
  5
2EA
  8
THREE_QUARTER_INCH_THRUCUT
 10
14.21107429049368
 20
46.78471316205197
 30
0.0
 42
-1.0
  0
VERTEX
  5
2EB
  8
THREE_QUARTER_INCH_THRUCUT
 10
13.95028688891886
 20
46.78471316205197
 30
0.0
  0
VERTEX
  5
2EC
  8
THREE_QUARTER_INCH_THRUCUT
 10
13.9502868889221
 20
47.28471316205197
 30
0.0
  0
VERTEX
  5
2ED
  8
THREE_QUARTER_INCH_THRUCUT
 10
11.9502868889221
 20
47.28471316205197
 30
0.0
  0
VERTEX
  5
2EE
  8
THREE_QUARTER_INCH_THRUCUT
 10
11.95028688892614
 20
46.78471316205197
 30
0.0
 42
-1.0
  0
VERTEX
  5
2EF
  8
THREE_QUARTER_INCH_THRUCUT
 10
11.68949948735135
 20
46.78471316205197
 30
0.0
  0
VERTEX
  5
2F0
  8
THREE_QUARTER_INCH_THRUCUT
 10
7.600286888921968
 20
46.78471317309342
 30
0.0
  0
VERTEX
  5
2F1
  8
THREE_QUARTER_INCH_THRUCUT
 10
7.600286888922081
 20
46.18471290680064
 30
0.0
  0
VERTEX
  5
2F2
  8
THREE_QUARTER_INCH_THRUCUT
 10
8.286444299611329
 20
46.18471292945593
 30
0.0
 42
-1.0
  0
VERTEX
  5
2F3
  8
THREE_QUARTER_INCH_THRUCUT
 10
8.470292068775901
 20
46.00086287797795
 30
0.0
  0
VERTEX
  5
2F4
  8
THREE_QUARTER_INCH_THRUCUT
 10
8.47029042197067
 20
45.86855842952251
 30
0.0
 42
-1.0
  0
VERTEX
  5
2F5
  8
THREE_QUARTER_INCH_THRUCUT
 10
8.286442658873678
 20
45.68471295478354
 30
0.0
  0
VERTEX
  5
2F6
  8
THREE_QUARTER_INCH_THRUCUT
 10
7.600286888922081
 20
45.68471295479354
 30
0.0
  0
VERTEX
  5
2F7
  8
THREE_QUARTER_INCH_THRUCUT
 10
7.600286888922025
 20
45.1975360504312
 30
0.0
  0
VERTEX
  5
2F8
  8
THREE_QUARTER_INCH_THRUCUT
 10
7.340286888921977
 20
45.1975360504312
 30
0.0
  0
VERTEX
  5
2F9
  8
THREE_QUARTER_INCH_THRUCUT
 10
7.340286888921977
 20
45.68471295479354
 30
0.0
  0
VERTEX
  5
2FA
  8
THREE_QUARTER_INCH_THRUCUT
 10
6.65413111897038
 20
45.68471295478354
 30
0.0
 42
-1.0
  0
VERTEX
  5
2FB
  8
THREE_QUARTER_INCH_THRUCUT
 10
6.470283355873388
 20
45.86855842952251
 30
0.0
  0
VERTEX
  5
2FC
  8
THREE_QUARTER_INCH_THRUCUT
 10
6.470281709068157
 20
46.00086287797795
 30
0.0
 42
-1.0
  0
VERTEX
  5
2FD
  8
THREE_QUARTER_INCH_THRUCUT
 10
6.654129478232729
 20
46.18471292945593
 30
0.0
  0
VERTEX
  5
2FE
  8
THREE_QUARTER_INCH_THRUCUT
 10
7.340286888921977
 20
46.18471290680064
 30
0.0
  0
SEQEND
  5
420
  8
THREE_QUARTER_INCH_THRUCUT
  0
POLYLINE
  5
89
  8
OPTIONAL_ATFAB_FURNITURE_C
 66
     1
 10
0.0
 20
0.0
 30
0.0
 70
     1
  0
VERTEX
  5
2FF
  8
OPTIONAL_ATFAB_FURNITURE_C
 10
72.07023082065224
 20
46.60154063397486
 30
0.0
  0
VERTEX
  5
300
  8
OPTIONAL_ATFAB_FURNITURE_C
 10
72.07023082065223
 20
45.70768905617281
 30
0.0
 42
-1.0
  0
VERTEX
  5
301
  8
OPTIONAL_ATFAB_FURNITURE_C
 10
71.75932592402546
 20
45.70768905617281
 30
0.0
 42
0.4142135623730959
  0
VERTEX
  5
302
  8
OPTIONAL_ATFAB_FURNITURE_C
 10
71.60387347571208
 20
45.86314150448625
 30
0.0
  0
VERTEX
  5
303
  8
OPTIONAL_ATFAB_FURNITURE_C
 10
70.01242903610375
 20
45.86314150448625
 30
0.0
  0
VERTEX
  5
304
  8
OPTIONAL_ATFAB_FURNITURE_C
 10
70.01242903610374
 20
44.27169706487788
 30
0.0
 42
0.4142135623730951
  0
VERTEX
  5
305
  8
OPTIONAL_ATFAB_FURNITURE_C
 10
70.16788148441712
 20
44.11624461656453
 30
0.0
 42
-1.0
  0
VERTEX
  5
306
  8
OPTIONAL_ATFAB_FURNITURE_C
 10
70.16788148441712
 20
43.80533971993781
 30
0.0
  0
VERTEX
  5
307
  8
OPTIONAL_ATFAB_FURNITURE_C
 10
69.27402990661518
 20
43.80533971993781
 30
0.0
  0
VERTEX
  5
308
  8
OPTIONAL_ATFAB_FURNITURE_C
 10
69.27402990661518
 20
31.9093411127562
 30
0.0
  0
VERTEX
  5
309
  8
OPTIONAL_ATFAB_FURNITURE_C
 10
70.16788148441712
 20
31.9093411127562
 30
0.0
 42
-1.0
  0
VERTEX
  5
30A
  8
OPTIONAL_ATFAB_FURNITURE_C
 10
70.16788148441712
 20
31.5984362161294
 30
0.0
 42
0.4142135623730951
  0
VERTEX
  5
30B
  8
OPTIONAL_ATFAB_FURNITURE_C
 10
70.01242903610374
 20
31.44298376781605
 30
0.0
  0
VERTEX
  5
30C
  8
OPTIONAL_ATFAB_FURNITURE_C
 10
70.01242903610375
 20
29.85153932820771
 30
0.0
  0
VERTEX
  5
30D
  8
OPTIONAL_ATFAB_FURNITURE_C
 10
71.60387347571208
 20
29.85153932820771
 30
0.0
 42
0.4142135623730951
  0
VERTEX
  5
30E
  8
OPTIONAL_ATFAB_FURNITURE_C
 10
71.75932592402546
 20
30.00699177652108
 30
0.0
 42
-1.0
  0
VERTEX
  5
30F
  8
OPTIONAL_ATFAB_FURNITURE_C
 10
72.07023082065223
 20
30.00699177652108
 30
0.0
  0
VERTEX
  5
310
  8
OPTIONAL_ATFAB_FURNITURE_C
 10
72.07023082065224
 20
29.11314019871914
 30
0.0
  0
VERTEX
  5
311
  8
OPTIONAL_ATFAB_FURNITURE_C
 10
83.96622942783381
 20
29.11314019871914
 30
0.0
  0
VERTEX
  5
312
  8
OPTIONAL_ATFAB_FURNITURE_C
 10
83.96622942783381
 20
30.00699177652108
 30
0.0
 42
-1.0
  0
VERTEX
  5
313
  8
OPTIONAL_ATFAB_FURNITURE_C
 10
84.2771343244606
 20
30.00699177652108
 30
0.0
 42
0.4142135623730951
  0
VERTEX
  5
314
  8
OPTIONAL_ATFAB_FURNITURE_C
 10
84.43258677277396
 20
29.85153932820771
 30
0.0
  0
VERTEX
  5
315
  8
OPTIONAL_ATFAB_FURNITURE_C
 10
86.02403121238228
 20
29.85153932820771
 30
0.0
  0
VERTEX
  5
316
  8
OPTIONAL_ATFAB_FURNITURE_C
 10
86.02403121238234
 20
31.44298376781605
 30
0.0
 42
0.4142135623730951
  0
VERTEX
  5
317
  8
OPTIONAL_ATFAB_FURNITURE_C
 10
85.86857876406893
 20
31.5984362161294
 30
0.0
 42
-1.0
  0
VERTEX
  5
318
  8
OPTIONAL_ATFAB_FURNITURE_C
 10
85.86857876406893
 20
31.9093411127562
 30
0.0
  0
VERTEX
  5
319
  8
OPTIONAL_ATFAB_FURNITURE_C
 10
86.76243034187087
 20
31.9093411127562
 30
0.0
  0
VERTEX
  5
31A
  8
OPTIONAL_ATFAB_FURNITURE_C
 10
86.76243034187087
 20
43.80533971993781
 30
0.0
  0
VERTEX
  5
31B
  8
OPTIONAL_ATFAB_FURNITURE_C
 10
85.86857876406893
 20
43.80533971993771
 30
0.0
 42
-1.0
  0
VERTEX
  5
31C
  8
OPTIONAL_ATFAB_FURNITURE_C
 10
85.86857876406893
 20
44.11624461656453
 30
0.0
 42
0.4142135623730951
  0
VERTEX
  5
31D
  8
OPTIONAL_ATFAB_FURNITURE_C
 10
86.02403121238234
 20
44.27169706487788
 30
0.0
  0
VERTEX
  5
31E
  8
OPTIONAL_ATFAB_FURNITURE_C
 10
86.02403121238228
 20
45.86314150448625
 30
0.0
  0
VERTEX
  5
31F
  8
OPTIONAL_ATFAB_FURNITURE_C
 10
84.43258677277396
 20
45.86314150448625
 30
0.0
 42
0.4142135623730951
  0
VERTEX
  5
320
  8
OPTIONAL_ATFAB_FURNITURE_C
 10
84.2771343244606
 20
45.70768905617281
 30
0.0
 42
-1.0
  0
VERTEX
  5
321
  8
OPTIONAL_ATFAB_FURNITURE_C
 10
83.96622942783381
 20
45.70768905617281
 30
0.0
  0
VERTEX
  5
322
  8
OPTIONAL_ATFAB_FURNITURE_C
 10
83.96622942783381
 20
46.60154063397486
 30
0.0
  0
SEQEND
  5
421
  8
OPTIONAL_ATFAB_FURNITURE_C
  0
POLYLINE
  5
8A
  8
OPTIONAL_ATFAB_FURNITURE_C
 66
     1
 10
0.0
 20
0.0
 30
0.0
 70
     1
  0
VERTEX
  5
323
  8
OPTIONAL_ATFAB_FURNITURE_C
 10
76.92565751482113
 20
11.35194891162622
 30
0.0
  0
VERTEX
  5
324
  8
OPTIONAL_ATFAB_FURNITURE_C
 10
74.1537754951664
 20
11.35194891162458
 30
0.0
  0
VERTEX
  5
325
  8
OPTIONAL_ATFAB_FURNITURE_C
 10
74.1537754951664
 20
10.45615943785818
 30
0.0
 42
-0.9999999999999998
  0
VERTEX
  5
326
  8
OPTIONAL_ATFAB_FURNITURE_C
 10
73.84219654779801
 20
10.45615943785818
 30
0.0
 42
0.4142135623730951
  0
VERTEX
  5
327
  8
OPTIONAL_ATFAB_FURNITURE_C
 10
73.68640707411382
 20
10.61194891154238
 30
0.0
  0
VERTEX
  5
328
  8
OPTIONAL_ATFAB_FURNITURE_C
 10
68.4714310228
 20
10.61194891154238
 30
0.0
  0
VERTEX
  5
329
  8
OPTIONAL_ATFAB_FURNITURE_C
 10
68.47143102280162
 20
7.840066891887723
 30
0.0
  0
VERTEX
  5
32A
  8
OPTIONAL_ATFAB_FURNITURE_C
 10
69.36722049656811
 20
7.840066891887723
 30
0.0
 42
-0.9999999999999998
  0
VERTEX
  5
32B
  8
OPTIONAL_ATFAB_FURNITURE_C
 10
69.36722049656811
 20
7.528487944519284
 30
0.0
 42
0.4142135623730951
  0
VERTEX
  5
32C
  8
OPTIONAL_ATFAB_FURNITURE_C
 10
69.21143102288391
 20
7.372698470835083
 30
0.0
  0
VERTEX
  5
32D
  8
OPTIONAL_ATFAB_FURNITURE_C
 10
69.21143102288391
 20
2.157722419521306
 30
0.0
  0
VERTEX
  5
32E
  8
OPTIONAL_ATFAB_FURNITURE_C
 10
71.9833130425385
 20
2.157722419522955
 30
0.0
  0
VERTEX
  5
32F
  8
OPTIONAL_ATFAB_FURNITURE_C
 10
71.9833130425385
 20
3.053511893289418
 30
0.0
 42
-0.9999999999999998
  0
VERTEX
  5
330
  8
OPTIONAL_ATFAB_FURNITURE_C
 10
72.294891989907
 20
3.053511893289418
 30
0.0
 42
0.4142135623730951
  0
VERTEX
  5
331
  8
OPTIONAL_ATFAB_FURNITURE_C
 10
72.45068146359122
 20
2.897722419605152
 30
0.0
  0
VERTEX
  5
332
  8
OPTIONAL_ATFAB_FURNITURE_C
 10
77.66565751490492
 20
2.897722419605152
 30
0.0
  0
VERTEX
  5
333
  8
OPTIONAL_ATFAB_FURNITURE_C
 10
77.66565751490342
 20
5.669604439259793
 30
0.0
  0
VERTEX
  5
334
  8
OPTIONAL_ATFAB_FURNITURE_C
 10
76.7698680411369
 20
5.669604439259793
 30
0.0
 42
-0.9999999999999998
  0
VERTEX
  5
335
  8
OPTIONAL_ATFAB_FURNITURE_C
 10
76.7698680411369
 20
5.981183386628182
 30
0.0
 42
0.4142135623730951
  0
VERTEX
  5
336
  8
OPTIONAL_ATFAB_FURNITURE_C
 10
76.92565751482113
 20
6.136972860312433
 30
0.0
  0
SEQEND
  5
422
  8
OPTIONAL_ATFAB_FURNITURE_C
  0
POLYLINE
  5
8B
  8
OPTIONAL_ATFAB_FURNITURE_C
 66
     1
 10
0.0
 20
0.0
 30
0.0
 70
     1
  0
VERTEX
  5
337
  8
OPTIONAL_ATFAB_FURNITURE_C
 10
71.98331304253861
 20
5.669604439259857
 30
0.0
  0
VERTEX
  5
338
  8
OPTIONAL_ATFAB_FURNITURE_C
 10
74.1537754951664
 20
5.669604439259857
 30
0.0
  0
VERTEX
  5
339
  8
OPTIONAL_ATFAB_FURNITURE_C
 10
74.1537754951664
 20
7.840066891887723
 30
0.0
  0
VERTEX
  5
33A
  8
OPTIONAL_ATFAB_FURNITURE_C
 10
71.98331304253861
 20
7.840066891887723
 30
0.0
  0
SEQEND
  5
423
  8
OPTIONAL_ATFAB_FURNITURE_C
  0
POLYLINE
  5
8C
  8
OPTIONAL_ATFAB_FURNITURE_C
 66
     1
 10
0.0
 20
0.0
 30
0.0
 70
     1
  0
VERTEX
  5
33B
  8
OPTIONAL_ATFAB_FURNITURE_C
 10
78.29454249821144
 20
11.31883087883936
 30
0.0
  0
VERTEX
  5
33C
  8
OPTIONAL_ATFAB_FURNITURE_C
 10
87.48876899031315
 20
11.31883087883936
 30
0.0
  0
VERTEX
  5
33D
  8
OPTIONAL_ATFAB_FURNITURE_C
 10
87.48876899031315
 20
2.12460438673439
 30
0.0
  0
VERTEX
  5
33E
  8
OPTIONAL_ATFAB_FURNITURE_C
 10
78.29454249821144
 20
2.12460438673439
 30
0.0
  0
SEQEND
  5
424
  8
OPTIONAL_ATFAB_FURNITURE_C
  0
POLYLINE
  5
8D
  8
OPTIONAL_ATFAB_FURNITURE_C
 66
     1
 10
0.0
 20
0.0
 30
0.0
 70
     1
  0
VERTEX
  5
33F
  8
OPTIONAL_ATFAB_FURNITURE_C
 10
88.39527945285384
 20
3.602833684860229
 30
0.0
  0
VERTEX
  5
340
  8
OPTIONAL_ATFAB_FURNITURE_C
 10
91.52742463048718
 20
3.602833684860229
 30
0.0
  0
VERTEX
  5
341
  8
OPTIONAL_ATFAB_FURNITURE_C
 10
91.52742463048834
 20
5.907347283545533
 30
0.0
 42
0.4142135623732199
  0
VERTEX
  5
342
  8
OPTIONAL_ATFAB_FURNITURE_C
 10
91.37163515680417
 20
6.063136757229842
 30
0.0
 42
-1.0
  0
VERTEX
  5
343
  8
OPTIONAL_ATFAB_FURNITURE_C
 10
91.37163515680423
 20
6.374715704598231
 30
0.0
  0
VERTEX
  5
344
  8
OPTIONAL_ATFAB_FURNITURE_C
 10
92.42321410417252
 20
6.374715704597918
 30
0.0
 42
-1.0
  0
VERTEX
  5
345
  8
OPTIONAL_ATFAB_FURNITURE_C
 10
92.42321410417252
 20
6.063136757229415
 30
0.0
 42
0.4142135623729871
  0
VERTEX
  5
346
  8
OPTIONAL_ATFAB_FURNITURE_C
 10
92.26742463048826
 20
5.907347283545334
 30
0.0
  0
VERTEX
  5
347
  8
OPTIONAL_ATFAB_FURNITURE_C
 10
92.26742463048676
 20
2.862833684860334
 30
0.0
  0
VERTEX
  5
348
  8
OPTIONAL_ATFAB_FURNITURE_C
 10
94.45736076732767
 20
2.862833684860334
 30
0.0
  0
VERTEX
  5
349
  8
OPTIONAL_ATFAB_FURNITURE_C
 10
94.45736076732668
 20
6.374715704597037
 30
0.0
  0
VERTEX
  5
34A
  8
OPTIONAL_ATFAB_FURNITURE_C
 10
93.56157129364492
 20
6.374715704597321
 30
0.0
 42
-1.0
  0
VERTEX
  5
34B
  8
OPTIONAL_ATFAB_FURNITURE_C
 10
93.56157129364497
 20
6.686294651965625
 30
0.0
 42
0.4142135623729953
  0
VERTEX
  5
34C
  8
OPTIONAL_ATFAB_FURNITURE_C
 10
93.71736076732917
 20
6.842084125649819
 30
0.0
  0
VERTEX
  5
34D
  8
OPTIONAL_ATFAB_FURNITURE_C
 10
93.71736076733008
 20
8.545178157224314
 30
0.0
  0
VERTEX
  5
34E
  8
OPTIONAL_ATFAB_FURNITURE_C
 10
91.9071614725945
 20
8.54517815722511
 30
0.0
  0
VERTEX
  5
34F
  8
OPTIONAL_ATFAB_FURNITURE_C
 10
90.5657419054866
 20
17.73940464933213
 30
0.0
  0
VERTEX
  5
350
  8
OPTIONAL_ATFAB_FURNITURE_C
 10
88.39527945285987
 20
17.73940464933301
 30
0.0
  0
SEQEND
  5
425
  8
OPTIONAL_ATFAB_FURNITURE_C
  0
POLYLINE
  5
8E
  8
OPTIONAL_ATFAB_FURNITURE_C
 66
     1
 10
0.0
 20
0.0
 30
0.0
 70
     1
  0
VERTEX
  5
351
  8
OPTIONAL_ATFAB_FURNITURE_C
 10
88.59001629496838
 20
20.64986710196041
 30
0.0
  0
VERTEX
  5
352
  8
OPTIONAL_ATFAB_FURNITURE_C
 10
89.48580576865014
 20
20.64986710196013
 30
0.0
 42
-1.0
  0
VERTEX
  5
353
  8
OPTIONAL_ATFAB_FURNITURE_C
 10
89.48580576865014
 20
20.33828815459162
 30
0.0
 42
0.4142135623729867
  0
VERTEX
  5
354
  8
OPTIONAL_ATFAB_FURNITURE_C
 10
89.33001629496594
 20
20.18249868090751
 30
0.0
  0
VERTEX
  5
355
  8
OPTIONAL_ATFAB_FURNITURE_C
 10
89.33001629496503
 20
18.47940464933313
 30
0.0
  0
VERTEX
  5
356
  8
OPTIONAL_ATFAB_FURNITURE_C
 10
91.14021558970062
 20
18.47940464933231
 30
0.0
  0
VERTEX
  5
357
  8
OPTIONAL_ATFAB_FURNITURE_C
 10
92.48163515680851
 20
9.285178157225232
 30
0.0
  0
VERTEX
  5
358
  8
OPTIONAL_ATFAB_FURNITURE_C
 10
94.65209760943524
 20
9.285178157224323
 30
0.0
  0
VERTEX
  5
359
  8
OPTIONAL_ATFAB_FURNITURE_C
 10
94.65209760944127
 20
23.42174912169713
 30
0.0
  0
VERTEX
  5
35A
  8
OPTIONAL_ATFAB_FURNITURE_C
 10
91.519952431808
 20
23.42174912169722
 30
0.0
  0
VERTEX
  5
35B
  8
OPTIONAL_ATFAB_FURNITURE_C
 10
91.51995243180674
 20
21.11723552301183
 30
0.0
 42
0.4142135623732574
  0
VERTEX
  5
35C
  8
OPTIONAL_ATFAB_FURNITURE_C
 10
91.675741905491
 20
20.96144604932752
 30
0.0
 42
-1.0
  0
VERTEX
  5
35D
  8
OPTIONAL_ATFAB_FURNITURE_C
 10
91.67574190549088
 20
20.64986710195913
 30
0.0
  0
VERTEX
  5
35E
  8
OPTIONAL_ATFAB_FURNITURE_C
 10
90.62416295812251
 20
20.64986710195942
 30
0.0
 42
-1.0
  0
VERTEX
  5
35F
  8
OPTIONAL_ATFAB_FURNITURE_C
 10
90.62416295812265
 20
20.96144604932783
 30
0.0
 42
0.4142135623729847
  0
VERTEX
  5
360
  8
OPTIONAL_ATFAB_FURNITURE_C
 10
90.77995243180685
 20
21.11723552301203
 30
0.0
  0
VERTEX
  5
361
  8
OPTIONAL_ATFAB_FURNITURE_C
 10
90.77995243180838
 20
24.16174912169703
 30
0.0
  0
VERTEX
  5
362
  8
OPTIONAL_ATFAB_FURNITURE_C
 10
88.59001629496753
 20
24.16174912169703
 30
0.0
  0
SEQEND
  5
426
  8
OPTIONAL_ATFAB_FURNITURE_C
  0
POLYLINE
  5
8F
  8
OPTIONAL_ATFAB_FURNITURE_C
 66
     1
 10
0.0
 20
0.0
 30
0.0
 70
     1
  0
VERTEX
  5
363
  8
OPTIONAL_ATFAB_FURNITURE_C
 10
88.05635711808047
 20
26.44973204551597
 30
0.0
  0
VERTEX
  5
364
  8
OPTIONAL_ATFAB_FURNITURE_C
 10
91.1885022957138
 20
26.44973204551597
 30
0.0
  0
VERTEX
  5
365
  8
OPTIONAL_ATFAB_FURNITURE_C
 10
91.18850229571497
 20
28.75424564420127
 30
0.0
 42
0.4142135623732199
  0
VERTEX
  5
366
  8
OPTIONAL_ATFAB_FURNITURE_C
 10
91.0327128220308
 20
28.91003511788558
 30
0.0
 42
-1.0
  0
VERTEX
  5
367
  8
OPTIONAL_ATFAB_FURNITURE_C
 10
91.03271282203086
 20
29.22161406525397
 30
0.0
  0
VERTEX
  5
368
  8
OPTIONAL_ATFAB_FURNITURE_C
 10
92.08429176939914
 20
29.22161406525365
 30
0.0
 42
-1.0
  0
VERTEX
  5
369
  8
OPTIONAL_ATFAB_FURNITURE_C
 10
92.08429176939914
 20
28.91003511788515
 30
0.0
 42
0.4142135623729871
  0
VERTEX
  5
36A
  8
OPTIONAL_ATFAB_FURNITURE_C
 10
91.92850229571489
 20
28.75424564420107
 30
0.0
  0
VERTEX
  5
36B
  8
OPTIONAL_ATFAB_FURNITURE_C
 10
91.92850229571339
 20
25.70973204551607
 30
0.0
  0
VERTEX
  5
36C
  8
OPTIONAL_ATFAB_FURNITURE_C
 10
94.1184384325543
 20
25.70973204551607
 30
0.0
  0
VERTEX
  5
36D
  8
OPTIONAL_ATFAB_FURNITURE_C
 10
94.1184384325533
 20
29.22161406525277
 30
0.0
  0
VERTEX
  5
36E
  8
OPTIONAL_ATFAB_FURNITURE_C
 10
93.22264895887155
 20
29.22161406525306
 30
0.0
 42
-1.0
  0
VERTEX
  5
36F
  8
OPTIONAL_ATFAB_FURNITURE_C
 10
93.2226489588716
 20
29.53319301262136
 30
0.0
 42
0.4142135623729953
  0
VERTEX
  5
370
  8
OPTIONAL_ATFAB_FURNITURE_C
 10
93.3784384325558
 20
29.68898248630556
 30
0.0
  0
VERTEX
  5
371
  8
OPTIONAL_ATFAB_FURNITURE_C
 10
93.3784384325567
 20
31.39207651788005
 30
0.0
  0
VERTEX
  5
372
  8
OPTIONAL_ATFAB_FURNITURE_C
 10
91.56823913782112
 20
31.39207651788085
 30
0.0
  0
VERTEX
  5
373
  8
OPTIONAL_ATFAB_FURNITURE_C
 10
90.22681957071323
 20
40.58630300998787
 30
0.0
  0
VERTEX
  5
374
  8
OPTIONAL_ATFAB_FURNITURE_C
 10
88.0563571180865
 20
40.58630300998875
 30
0.0
  0
SEQEND
  5
427
  8
OPTIONAL_ATFAB_FURNITURE_C
  0
POLYLINE
  5
90
  8
OPTIONAL_ATFAB_FURNITURE_C
 66
     1
 10
0.0
 20
0.0
 30
0.0
 70
     1
  0
VERTEX
  5
375
  8
OPTIONAL_ATFAB_FURNITURE_C
 10
88.251093960195
 20
43.49676546261615
 30
0.0
  0
VERTEX
  5
376
  8
OPTIONAL_ATFAB_FURNITURE_C
 10
89.14688343387677
 20
43.49676546261586
 30
0.0
 42
-1.0
  0
VERTEX
  5
377
  8
OPTIONAL_ATFAB_FURNITURE_C
 10
89.14688343387677
 20
43.18518651524736
 30
0.0
 42
0.4142135623729867
  0
VERTEX
  5
378
  8
OPTIONAL_ATFAB_FURNITURE_C
 10
88.99109396019257
 20
43.02939704156325
 30
0.0
  0
VERTEX
  5
379
  8
OPTIONAL_ATFAB_FURNITURE_C
 10
88.99109396019166
 20
41.32630300998887
 30
0.0
  0
VERTEX
  5
37A
  8
OPTIONAL_ATFAB_FURNITURE_C
 10
90.80129325492724
 20
41.32630300998805
 30
0.0
  0
VERTEX
  5
37B
  8
OPTIONAL_ATFAB_FURNITURE_C
 10
92.14271282203514
 20
32.13207651788097
 30
0.0
  0
VERTEX
  5
37C
  8
OPTIONAL_ATFAB_FURNITURE_C
 10
94.31317527466187
 20
32.13207651788006
 30
0.0
  0
VERTEX
  5
37D
  8
OPTIONAL_ATFAB_FURNITURE_C
 10
94.3131752746679
 20
46.26864748235287
 30
0.0
  0
VERTEX
  5
37E
  8
OPTIONAL_ATFAB_FURNITURE_C
 10
91.18103009703462
 20
46.26864748235295
 30
0.0
  0
VERTEX
  5
37F
  8
OPTIONAL_ATFAB_FURNITURE_C
 10
91.18103009703337
 20
43.96413388366756
 30
0.0
 42
0.4142135623732574
  0
VERTEX
  5
380
  8
OPTIONAL_ATFAB_FURNITURE_C
 10
91.33681957071762
 20
43.80834440998326
 30
0.0
 42
-1.0
  0
VERTEX
  5
381
  8
OPTIONAL_ATFAB_FURNITURE_C
 10
91.33681957071751
 20
43.49676546261487
 30
0.0
  0
VERTEX
  5
382
  8
OPTIONAL_ATFAB_FURNITURE_C
 10
90.28524062334914
 20
43.49676546261515
 30
0.0
 42
-1.0
  0
VERTEX
  5
383
  8
OPTIONAL_ATFAB_FURNITURE_C
 10
90.28524062334928
 20
43.80834440998357
 30
0.0
 42
0.4142135623729847
  0
VERTEX
  5
384
  8
OPTIONAL_ATFAB_FURNITURE_C
 10
90.44103009703348
 20
43.96413388366776
 30
0.0
  0
VERTEX
  5
385
  8
OPTIONAL_ATFAB_FURNITURE_C
 10
90.44103009703501
 20
47.00864748235276
 30
0.0
  0
VERTEX
  5
386
  8
OPTIONAL_ATFAB_FURNITURE_C
 10
88.25109396019415
 20
47.00864748235276
 30
0.0
  0
SEQEND
  5
428
  8
OPTIONAL_ATFAB_FURNITURE_C
  0
POLYLINE
  5
91
  8
OPTIONAL_ATFAB_FURNITURE_C
 66
     1
 10
0.0
 20
0.0
 30
0.0
 70
     1
  0
VERTEX
  5
387
  8
OPTIONAL_ATFAB_FURNITURE_C
 10
84.35662381268155
 20
8.342475174889927
 30
0.0
 42
1.0
  0
VERTEX
  5
388
  8
OPTIONAL_ATFAB_FURNITURE_C
 10
84.04504486531316
 20
8.342475174889927
 30
0.0
 42
-0.4142135623730968
  0
VERTEX
  5
389
  8
OPTIONAL_ATFAB_FURNITURE_C
 10
83.88925539162894
 20
8.186685701205732
 30
0.0
  0
VERTEX
  5
38A
  8
OPTIONAL_ATFAB_FURNITURE_C
 10
81.27089820215895
 20
8.186685701205732
 30
0.0
 42
1.0
  0
VERTEX
  5
38B
  8
OPTIONAL_ATFAB_FURNITURE_C
 10
81.27089820215895
 20
7.875106753837372
 30
0.0
 42
-0.4142135623730937
  0
VERTEX
  5
38C
  8
OPTIONAL_ATFAB_FURNITURE_C
 10
81.42668767584316
 20
7.719317280153163
 30
0.0
  0
VERTEX
  5
38D
  8
OPTIONAL_ATFAB_FURNITURE_C
 10
81.42668767584316
 20
5.100960090683813
 30
0.0
 42
1.0
  0
VERTEX
  5
38E
  8
OPTIONAL_ATFAB_FURNITURE_C
 10
81.73826662321154
 20
5.100960090683813
 30
0.0
 42
-0.4142135623730977
  0
VERTEX
  5
38F
  8
OPTIONAL_ATFAB_FURNITURE_C
 10
81.89405609689575
 20
5.256749564367993
 30
0.0
  0
VERTEX
  5
390
  8
OPTIONAL_ATFAB_FURNITURE_C
 10
84.51241328636574
 20
5.256749564367993
 30
0.0
 42
1.0
  0
VERTEX
  5
391
  8
OPTIONAL_ATFAB_FURNITURE_C
 10
84.51241328636574
 20
5.568328511736453
 30
0.0
 42
-0.4142135623730937
  0
VERTEX
  5
392
  8
OPTIONAL_ATFAB_FURNITURE_C
 10
84.35662381268155
 20
5.724117985420591
 30
0.0
  0
SEQEND
  5
429
  8
OPTIONAL_ATFAB_FURNITURE_C
  0
POLYLINE
  5
92
  8
OPTIONAL_ATFAB_FURNITURE_C
 66
     1
 10
0.0
 20
0.0
 30
0.0
  0
VERTEX
  5
393
  8
OPTIONAL_ATFAB_FURNITURE_C
 10
72.69399878759843
 20
12.63518067750049
 30
0.0
  0
VERTEX
  5
394
  8
OPTIONAL_ATFAB_FURNITURE_C
 10
74.60413961183757
 20
21.37938089512823
 30
0.0
  0
VERTEX
  5
395
  8
OPTIONAL_ATFAB_FURNITURE_C
 10
73.00880886102146
 20
21.37938089512834
 30
0.0
 42
0.4142135623730951
  0
VERTEX
  5
396
  8
OPTIONAL_ATFAB_FURNITURE_C
 10
72.85335641270808
 20
21.22392844681496
 30
0.0
 42
-1.0
  0
VERTEX
  5
397
  8
OPTIONAL_ATFAB_FURNITURE_C
 10
72.54245151608131
 20
21.22392844681496
 30
0.0
  0
VERTEX
  5
398
  8
OPTIONAL_ATFAB_FURNITURE_C
 10
72.54245151608134
 20
22.27323247293025
 30
0.0
 42
-1.0
  0
VERTEX
  5
399
  8
OPTIONAL_ATFAB_FURNITURE_C
 10
72.85335641270808
 20
22.27323247293025
 30
0.0
 42
0.4142135623730951
  0
VERTEX
  5
39A
  8
OPTIONAL_ATFAB_FURNITURE_C
 10
73.00880886102146
 20
22.11778002461688
 30
0.0
  0
VERTEX
  5
39B
  8
OPTIONAL_ATFAB_FURNITURE_C
 10
83.97209277832278
 20
22.11778002461688
 30
0.0
 42
0.4142135623730951
  0
VERTEX
  5
39C
  8
OPTIONAL_ATFAB_FURNITURE_C
 10
84.12754522663616
 20
22.27323247293025
 30
0.0
 42
-1.0
  0
VERTEX
  5
39D
  8
OPTIONAL_ATFAB_FURNITURE_C
 10
84.43845012326292
 20
22.27323247293025
 30
0.0
  0
VERTEX
  5
39E
  8
OPTIONAL_ATFAB_FURNITURE_C
 10
84.43845012326292
 20
21.22392844681496
 30
0.0
 42
-1.0
  0
VERTEX
  5
39F
  8
OPTIONAL_ATFAB_FURNITURE_C
 10
84.12754522663616
 20
21.22392844681496
 30
0.0
 42
0.4142135623730951
  0
VERTEX
  5
3A0
  8
OPTIONAL_ATFAB_FURNITURE_C
 10
83.97209277832278
 20
21.37938089512834
 30
0.0
  0
VERTEX
  5
3A1
  8
OPTIONAL_ATFAB_FURNITURE_C
 10
82.37676202750674
 20
21.37938089512823
 30
0.0
  0
VERTEX
  5
3A2
  8
OPTIONAL_ATFAB_FURNITURE_C
 10
84.2869028517458
 20
12.63518067750049
 30
0.0
  0
SEQEND
  5
42A
  8
OPTIONAL_ATFAB_FURNITURE_C
  0
POLYLINE
  5
93
  8
OPTIONAL_ATFAB_FURNITURE_C
 66
     1
 10
0.0
 20
0.0
 30
0.0
  0
VERTEX
  5
3A3
  8
OPTIONAL_ATFAB_FURNITURE_C
 10
84.2869028517458
 20
12.63518067750049
 30
0.0
  0
VERTEX
  5
3A4
  8
OPTIONAL_ATFAB_FURNITURE_C
 10
87.23465103729998
 20
12.63518067750049
 30
0.0
  0
VERTEX
  5
3A5
  8
OPTIONAL_ATFAB_FURNITURE_C
 10
87.23465103729998
 20
17.49306968729364
 30
0.0
  0
VERTEX
  5
3A6
  8
OPTIONAL_ATFAB_FURNITURE_C
 10
86.34079945949803
 20
17.49306968729364
 30
0.0
 42
-1.0
  0
VERTEX
  5
3A7
  8
OPTIONAL_ATFAB_FURNITURE_C
 10
86.34079945949803
 20
17.80397458392047
 30
0.0
 42
0.4142135623730951
  0
VERTEX
  5
3A8
  8
OPTIONAL_ATFAB_FURNITURE_C
 10
86.4962519078114
 20
17.95942703223384
 30
0.0
  0
VERTEX
  5
3A9
  8
OPTIONAL_ATFAB_FURNITURE_C
 10
86.4962519078114
 20
24.41070363723922
 30
0.0
 42
0.4142135623730784
  0
VERTEX
  5
3AA
  8
OPTIONAL_ATFAB_FURNITURE_C
 10
86.34079945949803
 20
24.56615608555256
 30
0.0
 42
-1.0
  0
VERTEX
  5
3AB
  8
OPTIONAL_ATFAB_FURNITURE_C
 10
86.34079945949803
 20
24.87706098217937
 30
0.0
  0
VERTEX
  5
3AC
  8
OPTIONAL_ATFAB_FURNITURE_C
 10
87.23465103729998
 20
24.87706098217937
 30
0.0
  0
VERTEX
  5
3AD
  8
OPTIONAL_ATFAB_FURNITURE_C
 10
87.23465103729995
 20
27.63634193974199
 30
0.0
  0
VERTEX
  5
3AE
  8
OPTIONAL_ATFAB_FURNITURE_C
 10
81.87154157048822
 20
27.63634193974199
 30
0.0
 42
0.4142135623730284
  0
VERTEX
  5
3AF
  8
OPTIONAL_ATFAB_FURNITURE_C
 10
81.71608912217486
 20
27.48088949142864
 30
0.0
 42
-1.0
  0
VERTEX
  5
3B0
  8
OPTIONAL_ATFAB_FURNITURE_C
 10
81.40518422554811
 20
27.48088949142864
 30
0.0
  0
VERTEX
  5
3B1
  8
OPTIONAL_ATFAB_FURNITURE_C
 10
81.40518422554811
 20
28.37474106923052
 30
0.0
  0
VERTEX
  5
3B2
  8
OPTIONAL_ATFAB_FURNITURE_C
 10
75.57571741379621
 20
28.37474106923052
 30
0.0
  0
VERTEX
  5
3B3
  8
OPTIONAL_ATFAB_FURNITURE_C
 10
75.57571741379617
 20
27.48088949142864
 30
0.0
 42
-1.0
  0
VERTEX
  5
3B4
  8
OPTIONAL_ATFAB_FURNITURE_C
 10
75.26481251716942
 20
27.48088949142864
 30
0.0
 42
0.414213562373095
  0
VERTEX
  5
3B5
  8
OPTIONAL_ATFAB_FURNITURE_C
 10
75.10936006885603
 20
27.63634193974199
 30
0.0
  0
VERTEX
  5
3B6
  8
OPTIONAL_ATFAB_FURNITURE_C
 10
69.74625060204428
 20
27.63634193974199
 30
0.0
  0
VERTEX
  5
3B7
  8
OPTIONAL_ATFAB_FURNITURE_C
 10
69.7462506020443
 20
17.49306968729364
 30
0.0
  0
VERTEX
  5
3B8
  8
OPTIONAL_ATFAB_FURNITURE_C
 10
70.64010217984624
 20
17.49306968729364
 30
0.0
 42
-1.0
  0
VERTEX
  5
3B9
  8
OPTIONAL_ATFAB_FURNITURE_C
 10
70.64010217984624
 20
17.18216479066687
 30
0.0
 42
0.4142135623730951
  0
VERTEX
  5
3BA
  8
OPTIONAL_ATFAB_FURNITURE_C
 10
70.48464973153285
 20
17.02671234235349
 30
0.0
  0
VERTEX
  5
3BB
  8
OPTIONAL_ATFAB_FURNITURE_C
 10
70.48464973153281
 20
12.63518067750049
 30
0.0
  0
VERTEX
  5
3BC
  8
OPTIONAL_ATFAB_FURNITURE_C
 10
72.69399878759843
 20
12.63518067750049
 30
0.0
  0
SEQEND
  5
42B
  8
OPTIONAL_ATFAB_FURNITURE_C
  0
POLYLINE
  5
95
  8
OPTIONAL_ATFAB_FURNITURE_S
 66
     1
 10
0.0
 20
0.0
 30
0.0
 70
     1
  0
VERTEX
  5
3BD
  8
OPTIONAL_ATFAB_FURNITURE_S
 10
86.86545147255572
 20
26.59987824883021
 30
0.0
 42
0.4142135623730951
  0
VERTEX
  5
3BE
  8
OPTIONAL_ATFAB_FURNITURE_S
 10
86.7554514725557
 20
26.48987824883019
 30
0.0
 42
0.4142135623730951
  0
VERTEX
  5
3BF
  8
OPTIONAL_ATFAB_FURNITURE_S
 10
86.86545147255572
 20
26.3798782488302
 30
0.0
 42
0.4142135623730951
  0
VERTEX
  5
3C0
  8
OPTIONAL_ATFAB_FURNITURE_S
 10
86.9754514725557
 20
26.48987824883019
 30
0.0
 42
0.4142135623730951
  0
SEQEND
  5
42C
  8
OPTIONAL_ATFAB_FURNITURE_S
  0
POLYLINE
  5
96
  8
OPTIONAL_ATFAB_FURNITURE_S
 66
     1
 10
0.0
 20
0.0
 30
0.0
 70
     1
  0
VERTEX
  5
3C1
  8
OPTIONAL_ATFAB_FURNITURE_S
 10
86.86545147255572
 20
14.94094462532642
 30
0.0
 42
0.4142135623730951
  0
VERTEX
  5
3C2
  8
OPTIONAL_ATFAB_FURNITURE_S
 10
86.7554514725557
 20
14.83094462532642
 30
0.0
 42
0.4142135623730951
  0
VERTEX
  5
3C3
  8
OPTIONAL_ATFAB_FURNITURE_S
 10
86.86545147255572
 20
14.72094462532642
 30
0.0
 42
0.4142135623730951
  0
VERTEX
  5
3C4
  8
OPTIONAL_ATFAB_FURNITURE_S
 10
86.9754514725557
 20
14.83094462532642
 30
0.0
 42
0.4142135623730951
  0
SEQEND
  5
42D
  8
OPTIONAL_ATFAB_FURNITURE_S
  0
POLYLINE
  5
97
  8
OPTIONAL_ATFAB_FURNITURE_S
 66
     1
 10
0.0
 20
0.0
 30
0.0
 70
     1
  0
VERTEX
  5
3C5
  8
OPTIONAL_ATFAB_FURNITURE_S
 10
79.04127049180327
 20
28.11553961988567
 30
0.0
 42
0.4142135623730951
  0
VERTEX
  5
3C6
  8
OPTIONAL_ATFAB_FURNITURE_S
 10
78.93127049180326
 20
28.00553961988567
 30
0.0
 42
0.4142135623730951
  0
VERTEX
  5
3C7
  8
OPTIONAL_ATFAB_FURNITURE_S
 10
79.04127049180327
 20
27.89553961988565
 30
0.0
 42
0.4142135623730951
  0
VERTEX
  5
3C8
  8
OPTIONAL_ATFAB_FURNITURE_S
 10
79.15127049180329
 20
28.00553961988567
 30
0.0
 42
0.4142135623730951
  0
SEQEND
  5
42E
  8
OPTIONAL_ATFAB_FURNITURE_S
  0
POLYLINE
  5
98
  8
OPTIONAL_ATFAB_FURNITURE_S
 66
     1
 10
0.0
 20
0.0
 30
0.0
 70
     1
  0
VERTEX
  5
3C9
  8
OPTIONAL_ATFAB_FURNITURE_S
 10
71.28037195133703
 20
21.85857857527201
 30
0.0
 42
0.4142135623730951
  0
VERTEX
  5
3CA
  8
OPTIONAL_ATFAB_FURNITURE_S
 10
71.17037195133703
 20
21.74857857527201
 30
0.0
 42
0.4142135623730951
  0
VERTEX
  5
3CB
  8
OPTIONAL_ATFAB_FURNITURE_S
 10
71.28037195133703
 20
21.63857857527201
 30
0.0
 42
0.4142135623730951
  0
VERTEX
  5
3CC
  8
OPTIONAL_ATFAB_FURNITURE_S
 10
71.39037195133703
 20
21.74857857527201
 30
0.0
 42
0.4142135623730951
  0
SEQEND
  5
42F
  8
OPTIONAL_ATFAB_FURNITURE_S
  0
POLYLINE
  5
99
  8
OPTIONAL_ATFAB_FURNITURE_S
 66
     1
 10
0.0
 20
0.0
 30
0.0
 70
     1
  0
VERTEX
  5
3CD
  8
OPTIONAL_ATFAB_FURNITURE_S
 10
70.11545016678859
 20
20.1486016438247
 30
0.0
 42
0.4142135623730951
  0
VERTEX
  5
3CE
  8
OPTIONAL_ATFAB_FURNITURE_S
 10
70.00545016678859
 20
20.03860164382471
 30
0.0
 42
0.4142135623730951
  0
VERTEX
  5
3CF
  8
OPTIONAL_ATFAB_FURNITURE_S
 10
70.11545016678859
 20
19.92860164382471
 30
0.0
 42
0.4142135623730951
  0
VERTEX
  5
3D0
  8
OPTIONAL_ATFAB_FURNITURE_S
 10
70.22545016678859
 20
20.03860164382471
 30
0.0
 42
0.4142135623730951
  0
SEQEND
  5
430
  8
OPTIONAL_ATFAB_FURNITURE_S
  0
POLYLINE
  5
9A
  8
OPTIONAL_ATFAB_FURNITURE_S
 66
     1
 10
0.0
 20
0.0
 30
0.0
 70
     1
  0
VERTEX
  5
3D1
  8
OPTIONAL_ATFAB_FURNITURE_S
 10
69.64322947135948
 20
33.28336383310399
 30
0.0
 42
0.4142135623730951
  0
VERTEX
  5
3D2
  8
OPTIONAL_ATFAB_FURNITURE_S
 10
69.53322947135948
 20
33.17336383310399
 30
0.0
 42
0.4142135623730951
  0
VERTEX
  5
3D3
  8
OPTIONAL_ATFAB_FURNITURE_S
 10
69.64322947135948
 20
33.06336383310399
 30
0.0
 42
0.4142135623730951
  0
VERTEX
  5
3D4
  8
OPTIONAL_ATFAB_FURNITURE_S
 10
69.75322947135948
 20
33.17336383310399
 30
0.0
 42
0.4142135623730951
  0
SEQEND
  5
431
  8
OPTIONAL_ATFAB_FURNITURE_S
  0
POLYLINE
  5
9B
  8
OPTIONAL_ATFAB_FURNITURE_S
 66
     1
 10
0.0
 20
0.0
 30
0.0
 70
     1
  0
VERTEX
  5
3D5
  8
OPTIONAL_ATFAB_FURNITURE_S
 10
69.64322947135948
 20
42.65131676823256
 30
0.0
 42
0.4142135623730951
  0
VERTEX
  5
3D6
  8
OPTIONAL_ATFAB_FURNITURE_S
 10
69.53322947135948
 20
42.54131676823256
 30
0.0
 42
0.4142135623730951
  0
VERTEX
  5
3D7
  8
OPTIONAL_ATFAB_FURNITURE_S
 10
69.64322947135948
 20
42.43131676823256
 30
0.0
 42
0.4142135623730951
  0
VERTEX
  5
3D8
  8
OPTIONAL_ATFAB_FURNITURE_S
 10
69.75322947135948
 20
42.54131676823256
 30
0.0
 42
0.4142135623730951
  0
SEQEND
  5
432
  8
OPTIONAL_ATFAB_FURNITURE_S
  0
POLYLINE
  5
9C
  8
OPTIONAL_ATFAB_FURNITURE_S
 66
     1
 10
0.0
 20
0.0
 30
0.0
 70
     1
  0
VERTEX
  5
3D9
  8
OPTIONAL_ATFAB_FURNITURE_S
 10
70.5973720327112
 20
2.636472419564058
 30
0.0
 42
0.4142135623730951
  0
VERTEX
  5
3DA
  8
OPTIONAL_ATFAB_FURNITURE_S
 10
70.48862203271122
 20
2.527722419564057
 30
0.0
 42
0.4142135623730951
  0
VERTEX
  5
3DB
  8
OPTIONAL_ATFAB_FURNITURE_S
 10
70.5973720327112
 20
2.418972419564057
 30
0.0
 42
0.4142135623730951
  0
VERTEX
  5
3DC
  8
OPTIONAL_ATFAB_FURNITURE_S
 10
70.70612203271119
 20
2.527722419564057
 30
0.0
 42
0.4142135623730951
  0
SEQEND
  5
433
  8
OPTIONAL_ATFAB_FURNITURE_S
  0
POLYLINE
  5
9D
  8
OPTIONAL_ATFAB_FURNITURE_S
 66
     1
 10
0.0
 20
0.0
 30
0.0
 70
     1
  0
VERTEX
  5
3DD
  8
OPTIONAL_ATFAB_FURNITURE_S
 10
77.29565751486382
 20
4.39241342943248
 30
0.0
 42
0.4142135623730951
  0
VERTEX
  5
3DE
  8
OPTIONAL_ATFAB_FURNITURE_S
 10
77.18690751486383
 20
4.28366342943248
 30
0.0
 42
0.4142135623730951
  0
VERTEX
  5
3DF
  8
OPTIONAL_ATFAB_FURNITURE_S
 10
77.29565751486382
 20
4.174913429432479
 30
0.0
 42
0.4142135623730951
  0
VERTEX
  5
3E0
  8
OPTIONAL_ATFAB_FURNITURE_S
 10
77.4044075148638
 20
4.28366342943248
 30
0.0
 42
0.4142135623730951
  0
SEQEND
  5
434
  8
OPTIONAL_ATFAB_FURNITURE_S
  0
POLYLINE
  5
9E
  8
OPTIONAL_ATFAB_FURNITURE_S
 66
     1
 10
0.0
 20
0.0
 30
0.0
 70
     1
  0
VERTEX
  5
3E1
  8
OPTIONAL_ATFAB_FURNITURE_S
 10
68.8414310228411
 20
9.334757901715044
 30
0.0
 42
0.4142135623730951
  0
VERTEX
  5
3E2
  8
OPTIONAL_ATFAB_FURNITURE_S
 10
68.73268102284112
 20
9.226007901715043
 30
0.0
 42
0.4142135623730951
  0
VERTEX
  5
3E3
  8
OPTIONAL_ATFAB_FURNITURE_S
 10
68.8414310228411
 20
9.117257901715043
 30
0.0
 42
0.4142135623730951
  0
VERTEX
  5
3E4
  8
OPTIONAL_ATFAB_FURNITURE_S
 10
68.9501810228411
 20
9.226007901715043
 30
0.0
 42
0.4142135623730951
  0
SEQEND
  5
435
  8
OPTIONAL_ATFAB_FURNITURE_S
  0
POLYLINE
  5
9F
  8
OPTIONAL_ATFAB_FURNITURE_S
 66
     1
 10
0.0
 20
0.0
 30
0.0
 70
     1
  0
VERTEX
  5
3E5
  8
OPTIONAL_ATFAB_FURNITURE_S
 10
75.5397165049938
 20
11.09069891158511
 30
0.0
 42
0.4142135623730951
  0
VERTEX
  5
3E6
  8
OPTIONAL_ATFAB_FURNITURE_S
 10
75.43096650499382
 20
10.98194891158511
 30
0.0
 42
0.4142135623730951
  0
VERTEX
  5
3E7
  8
OPTIONAL_ATFAB_FURNITURE_S
 10
75.5397165049938
 20
10.87319891158511
 30
0.0
 42
0.4142135623730951
  0
VERTEX
  5
3E8
  8
OPTIONAL_ATFAB_FURNITURE_S
 10
75.64846650499379
 20
10.98194891158511
 30
0.0
 42
0.4142135623730951
  0
SEQEND
  5
436
  8
OPTIONAL_ATFAB_FURNITURE_S
  0
POLYLINE
  5
A0
  8
OPTIONAL_ATFAB_FURNITURE_S
 66
     1
 10
0.0
 20
0.0
 30
0.0
 70
     1
  0
VERTEX
  5
3E9
  8
OPTIONAL_ATFAB_FURNITURE_S
 10
79.86061508702684
 20
7.925435701164986
 30
0.0
 42
0.4142135623730951
  0
VERTEX
  5
3EA
  8
OPTIONAL_ATFAB_FURNITURE_S
 10
79.75186508702684
 20
7.816685701164985
 30
0.0
 42
0.4142135623730951
  0
VERTEX
  5
3EB
  8
OPTIONAL_ATFAB_FURNITURE_S
 10
79.86061508702684
 20
7.707935701164985
 30
0.0
 42
0.4142135623730951
  0
VERTEX
  5
3EC
  8
OPTIONAL_ATFAB_FURNITURE_S
 10
79.96936508702684
 20
7.816685701164985
 30
0.0
 42
0.4142135623730951
  0
SEQEND
  5
437
  8
OPTIONAL_ATFAB_FURNITURE_S
  0
POLYLINE
  5
A1
  8
OPTIONAL_ATFAB_FURNITURE_S
 66
     1
 10
0.0
 20
0.0
 30
0.0
 70
     1
  0
VERTEX
  5
3ED
  8
OPTIONAL_ATFAB_FURNITURE_S
 10
83.98662381264045
 20
9.861508290022414
 30
0.0
 42
0.4142135623730951
  0
VERTEX
  5
3EE
  8
OPTIONAL_ATFAB_FURNITURE_S
 10
83.87787381264046
 20
9.752758290022413
 30
0.0
 42
0.4142135623730951
  0
VERTEX
  5
3EF
  8
OPTIONAL_ATFAB_FURNITURE_S
 10
83.98662381264045
 20
9.644008290022413
 30
0.0
 42
0.4142135623730951
  0
VERTEX
  5
3F0
  8
OPTIONAL_ATFAB_FURNITURE_S
 10
84.09537381264043
 20
9.752758290022413
 30
0.0
 42
0.4142135623730951
  0
SEQEND
  5
438
  8
OPTIONAL_ATFAB_FURNITURE_S
  0
POLYLINE
  5
A2
  8
OPTIONAL_ATFAB_FURNITURE_S
 66
     1
 10
0.0
 20
0.0
 30
0.0
 70
     1
  0
VERTEX
  5
3F1
  8
OPTIONAL_ATFAB_FURNITURE_S
 10
85.92269640149784
 20
5.735499564408826
 30
0.0
 42
0.4142135623730951
  0
VERTEX
  5
3F2
  8
OPTIONAL_ATFAB_FURNITURE_S
 10
85.81394640149786
 20
5.626749564408826
 30
0.0
 42
0.4142135623730951
  0
VERTEX
  5
3F3
  8
OPTIONAL_ATFAB_FURNITURE_S
 10
85.92269640149784
 20
5.517999564408825
 30
0.0
 42
0.4142135623730951
  0
VERTEX
  5
3F4
  8
OPTIONAL_ATFAB_FURNITURE_S
 10
86.03144640149783
 20
5.626749564408826
 30
0.0
 42
0.4142135623730951
  0
SEQEND
  5
439
  8
OPTIONAL_ATFAB_FURNITURE_S
  0
POLYLINE
  5
A3
  8
OPTIONAL_ATFAB_FURNITURE_S
 66
     1
 10
0.0
 20
0.0
 30
0.0
 70
     1
  0
VERTEX
  5
3F5
  8
OPTIONAL_ATFAB_FURNITURE_S
 10
81.79668767588424
 20
3.799426975551398
 30
0.0
 42
0.4142135623730951
  0
VERTEX
  5
3F6
  8
OPTIONAL_ATFAB_FURNITURE_S
 10
81.68793767588424
 20
3.690676975551398
 30
0.0
 42
0.4142135623730951
  0
VERTEX
  5
3F7
  8
OPTIONAL_ATFAB_FURNITURE_S
 10
81.79668767588424
 20
3.581926975551397
 30
0.0
 42
0.4142135623730951
  0
VERTEX
  5
3F8
  8
OPTIONAL_ATFAB_FURNITURE_S
 10
81.90543767588424
 20
3.690676975551398
 30
0.0
 42
0.4142135623730951
  0
SEQEND
  5
43A
  8
OPTIONAL_ATFAB_FURNITURE_S
  0
POLYLINE
  5
A4
  8
OPTIONAL_ATFAB_FURNITURE_S
 66
     1
 10
0.0
 20
0.0
 30
0.0
 70
     1
  0
VERTEX
  5
3F9
  8
OPTIONAL_ATFAB_FURNITURE_S
 10
91.78867463052798
 20
7.69363303014714
 30
0.0
 42
0.4142135623730951
  0
VERTEX
  5
3FA
  8
OPTIONAL_ATFAB_FURNITURE_S
 10
91.897424630528
 20
7.584883030147125
 30
0.0
 42
0.4142135623730951
  0
VERTEX
  5
3FB
  8
OPTIONAL_ATFAB_FURNITURE_S
 10
92.00617463052798
 20
7.69363303014714
 30
0.0
 42
0.4142135623730951
  0
VERTEX
  5
3FC
  8
OPTIONAL_ATFAB_FURNITURE_S
 10
91.897424630528
 20
7.802383030147126
 30
0.0
 42
0.4142135623730951
  0
SEQEND
  5
43B
  8
OPTIONAL_ATFAB_FURNITURE_S
  0
POLYLINE
  5
A5
  8
OPTIONAL_ATFAB_FURNITURE_S
 66
     1
 10
0.0
 20
0.0
 30
0.0
 70
     1
  0
VERTEX
  5
3FD
  8
OPTIONAL_ATFAB_FURNITURE_S
 10
91.4497522957546
 20
30.54053139080288
 30
0.0
 42
0.4142135623730951
  0
VERTEX
  5
3FE
  8
OPTIONAL_ATFAB_FURNITURE_S
 10
91.55850229575462
 20
30.43178139080286
 30
0.0
 42
0.4142135623730951
  0
VERTEX
  5
3FF
  8
OPTIONAL_ATFAB_FURNITURE_S
 10
91.66725229575461
 20
30.54053139080288
 30
0.0
 42
0.4142135623730951
  0
VERTEX
  5
400
  8
OPTIONAL_ATFAB_FURNITURE_S
 10
91.55850229575462
 20
30.64928139080286
 30
0.0
 42
0.4142135623730951
  0
SEQEND
  5
43C
  8
OPTIONAL_ATFAB_FURNITURE_S
  0
POLYLINE
  5
A6
  8
OPTIONAL_ATFAB_FURNITURE_S
 66
     1
 10
0.0
 20
0.0
 30
0.0
 70
     1
  0
VERTEX
  5
401
  8
OPTIONAL_ATFAB_FURNITURE_S
 10
91.04120243176722
 20
19.33094977641011
 30
0.0
 42
0.4142135623730951
  0
VERTEX
  5
402
  8
OPTIONAL_ATFAB_FURNITURE_S
 10
91.14995243176723
 20
19.22219977641012
 30
0.0
 42
0.4142135623730951
  0
VERTEX
  5
403
  8
OPTIONAL_ATFAB_FURNITURE_S
 10
91.25870243176722
 20
19.33094977641011
 30
0.0
 42
0.4142135623730951
  0
VERTEX
  5
404
  8
OPTIONAL_ATFAB_FURNITURE_S
 10
91.14995243176723
 20
19.43969977641009
 30
0.0
 42
0.4142135623730951
  0
SEQEND
  5
43D
  8
OPTIONAL_ATFAB_FURNITURE_S
  0
POLYLINE
  5
A7
  8
OPTIONAL_ATFAB_FURNITURE_S
 66
     1
 10
0.0
 20
0.0
 30
0.0
 70
     1
  0
VERTEX
  5
405
  8
OPTIONAL_ATFAB_FURNITURE_S
 10
90.70228009699385
 20
42.17784813706584
 30
0.0
 42
0.4142135623730951
  0
VERTEX
  5
406
  8
OPTIONAL_ATFAB_FURNITURE_S
 10
90.81103009699386
 20
42.06909813706586
 30
0.0
 42
0.4142135623730951
  0
VERTEX
  5
407
  8
OPTIONAL_ATFAB_FURNITURE_S
 10
90.91978009699385
 20
42.17784813706584
 30
0.0
 42
0.4142135623730951
  0
VERTEX
  5
408
  8
OPTIONAL_ATFAB_FURNITURE_S
 10
90.81103009699386
 20
42.28659813706583
 30
0.0
 42
0.4142135623730951
  0
SEQEND
  5
43E
  8
OPTIONAL_ATFAB_FURNITURE_S
  0
ENDSEC
  0
EOF
