  0
SECTION
  2
HEADER
  9
$ACADVER
  1
AC1009
  9
$DWGCODEPAGE
  3
ansi_1252
  9
$INSBASE
 10
0.0
 20
0.0
 30
0.0
  9
$EXTMIN
 10
1.849086497679977
 20
1.922554609967591
 30
0.0
  9
$EXTMAX
 10
89.84908649880752
 20
46.1037744907287
 30
0.0
  9
$LIMMIN
 10
0.0
 20
0.0
  9
$LIMMAX
 10
12.0
 20
9.0
  9
$ORTHOMODE
 70
     0
  9
$REGENMODE
 70
     1
  9
$FILLMODE
 70
     1
  9
$QTEXTMODE
 70
     0
  9
$MIRRTEXT
 70
     1
  9
$DRAGMODE
 70
     2
  9
$LTSCALE
 40
1.0
  9
$OSMODE
 70
    37
  9
$ATTMODE
 70
     1
  9
$TEXTSIZE
 40
0.2
  9
$TRACEWID
 40
0.05
  9
$TEXTSTYLE
  7
STANDARD
  9
$CLAYER
  8
0
  9
$CELTYPE
  6
BYLAYER
  9
$CECOLOR
 62
   256
  9
$DIMSCALE
 40
1.0
  9
$DIMASZ
 40
0.18
  9
$DIMEXO
 40
0.0625
  9
$DIMDLI
 40
0.38
  9
$DIMRND
 40
0.0
  9
$DIMDLE
 40
0.0
  9
$DIMEXE
 40
0.18
  9
$DIMTP
 40
0.0
  9
$DIMTM
 40
0.0
  9
$DIMTXT
 40
0.18
  9
$DIMCEN
 40
0.09
  9
$DIMTSZ
 40
0.0
  9
$DIMTOL
 70
     0
  9
$DIMLIM
 70
     0
  9
$DIMTIH
 70
     1
  9
$DIMTOH
 70
     1
  9
$DIMSE1
 70
     0
  9
$DIMSE2
 70
     0
  9
$DIMTAD
 70
     0
  9
$DIMZIN
 70
     0
  9
$DIMBLK
  1

  9
$DIMASO
 70
     1
  9
$DIMSHO
 70
     1
  9
$DIMPOST
  1

  9
$DIMAPOST
  1

  9
$DIMALT
 70
     0
  9
$DIMALTD
 70
     2
  9
$DIMALTF
 40
25.4
  9
$DIMLFAC
 40
1.0
  9
$DIMTOFL
 70
     0
  9
$DIMTVP
 40
0.0
  9
$DIMTIX
 70
     0
  9
$DIMSOXD
 70
     0
  9
$DIMSAH
 70
     0
  9
$DIMBLK1
  1

  9
$DIMBLK2
  1

  9
$DIMSTYLE
  2
STANDARD
  9
$DIMCLRD
 70
     0
  9
$DIMCLRE
 70
     0
  9
$DIMCLRT
 70
     0
  9
$DIMTFAC
 40
1.0
  9
$DIMGAP
 40
0.09
  9
$LUNITS
 70
     2
  9
$LUPREC
 70
     4
  9
$SKETCHINC
 40
0.1
  9
$FILLETRAD
 40
0.5
  9
$AUNITS
 70
     0
  9
$AUPREC
 70
     0
  9
$MENU
  1
.
  9
$ELEVATION
 40
0.0
  9
$PELEVATION
 40
0.0
  9
$THICKNESS
 40
0.0
  9
$LIMCHECK
 70
     0
  9
$CHAMFERA
 40
0.0
  9
$CHAMFERB
 40
0.0
  9
$SKPOLY
 70
     0
  9
$TDCREATE
 40
2454910.5
  9
$TDUPDATE
 40
2457902.609046319
  9
$TDINDWG
 40
0.0000000116
  9
$TDUSRTIMER
 40
0.0000000116
  9
$USRTIMER
 70
     1
  9
$ANGBASE
 50
0.0
  9
$ANGDIR
 70
     0
  9
$PDMODE
 70
     0
  9
$PDSIZE
 40
0.0
  9
$PLINEWID
 40
0.0
  9
$COORDS
 70
     1
  9
$SPLFRAME
 70
     0
  9
$SPLINETYPE
 70
     6
  9
$SPLINESEGS
 70
     8
  9
$ATTDIA
 70
     0
  9
$ATTREQ
 70
     1
  9
$HANDLING
 70
     1
  9
$HANDSEED
  5
409
  9
$SURFTAB1
 70
     6
  9
$SURFTAB2
 70
     6
  9
$SURFTYPE
 70
     6
  9
$SURFU
 70
     6
  9
$SURFV
 70
     6
  9
$UCSNAME
  2

  9
$UCSORG
 10
0.0
 20
0.0
 30
0.0
  9
$UCSXDIR
 10
1.0
 20
0.0
 30
0.0
  9
$UCSYDIR
 10
0.0
 20
1.0
 30
0.0
  9
$PUCSNAME
  2

  9
$PUCSORG
 10
0.0
 20
0.0
 30
0.0
  9
$PUCSXDIR
 10
1.0
 20
0.0
 30
0.0
  9
$PUCSYDIR
 10
0.0
 20
1.0
 30
0.0
  9
$USERI1
 70
     0
  9
$USERI2
 70
     0
  9
$USERI3
 70
     0
  9
$USERI4
 70
     0
  9
$USERI5
 70
     0
  9
$USERR1
 40
0.0
  9
$USERR2
 40
0.0
  9
$USERR3
 40
0.0
  9
$USERR4
 40
0.0
  9
$USERR5
 40
0.0
  9
$WORLDVIEW
 70
     1
  9
$SHADEDGE
 70
     3
  9
$SHADEDIF
 70
    70
  9
$TILEMODE
 70
     1
  9
$MAXACTVP
 70
    64
  9
$PLIMCHECK
 70
     0
  9
$PEXTMIN
 10
1.000000000000000E+20
 20
1.000000000000000E+20
 30
1.000000000000000E+20
  9
$PEXTMAX
 10
-1.000000000000000E+20
 20
-1.000000000000000E+20
 30
-1.000000000000000E+20
  9
$PLIMMIN
 10
0.0
 20
0.0
  9
$PLIMMAX
 10
12.0
 20
9.0
  9
$UNITMODE
 70
     0
  9
$VISRETAIN
 70
     1
  9
$PLINEGEN
 70
     0
  9
$PSLTSCALE
 70
     1
  0
ENDSEC
  0
SECTION
  2
TABLES
  0
TABLE
  2
VPORT
 70
     1
  0
VPORT
  2
*ACTIVE
 70
     0
 10
0.0
 20
0.0
 11
1.0
 21
1.0
 12
10.42990654205607
 22
4.5
 13
0.0
 23
0.0
 14
0.5
 24
0.5
 15
0.5
 25
0.5
 16
0.0
 26
0.0
 36
1.0
 17
0.0
 27
0.0
 37
0.0
 40
9.0
 41
1.972972972850329
 42
50.0
 43
0.0
 44
0.0
 50
0.0
 51
0.0
 71
     0
 72
   100
 73
     1
 74
     3
 75
     0
 76
     0
 77
     0
 78
     0
  0
ENDTAB
  0
TABLE
  2
LTYPE
 70
     2
  0
LTYPE
  2
CONTINUOUS
 70
     0
  3
Solid line
 72
    65
 73
     0
 40
0.0
  0
LTYPE
  2
CONTINUOUS2
 70
     0
  3
Solid Line
 72
    65
 73
     0
 40
0.0
  0
ENDTAB
  0
TABLE
  2
LAYER
 70
     4
  0
LAYER
  2
0
 70
     0
 62
     7
  6
CONTINUOUS
  0
LAYER
  2
LABELS
 70
     0
 62
   150
  6
CONTINUOUS
  0
LAYER
  2
SCREW_LOCATION_RECESS
 70
     0
 62
     1
  6
CONTINUOUS
  0
LAYER
  2
THREE_QUARTER_INCH_THRUCUT
 70
     0
 62
    18
  6
CONTINUOUS
  0
ENDTAB
  0
TABLE
  2
STYLE
 70
     1
  0
STYLE
  2
STANDARD
 70
     0
 40
0.0
 41
1.0
 50
0.0
 71
     0
 42
0.2
  3
txt
  4

  0
ENDTAB
  0
TABLE
  2
VIEW
 70
     0
  0
ENDTAB
  0
TABLE
  2
UCS
 70
     0
  0
ENDTAB
  0
TABLE
  2
APPID
 70
     1
  0
APPID
  2
ACAD
 70
     0
  0
ENDTAB
  0
TABLE
  2
DIMSTYLE
 70
     1
  0
DIMSTYLE
  2
STANDARD
 70
     0
  3

  4

  5

  6

  7

 40
1.0
 41
0.18
 42
0.0625
 43
0.38
 44
0.18
 45
0.0
 46
0.0
 47
0.0
 48
0.0
140
0.18
141
0.09
142
0.0
143
25.4
144
1.0
145
0.0
146
1.0
147
0.09
 71
     0
 72
     0
 73
     1
 74
     1
 75
     0
 76
     0
 77
     0
 78
     0
170
     0
171
     2
172
     0
173
     0
174
     0
175
     0
176
     0
177
     0
178
     0
  0
ENDTAB
  0
ENDSEC
  0
SECTION
  2
BLOCKS
  0
BLOCK
  8
0
  2
$MODEL_SPACE
 70
     0
 10
0.0
 20
0.0
 30
0.0
  3
$MODEL_SPACE
  1

  0
ENDBLK
  5
21
  8
0
  0
BLOCK
 67
     1
  8
0
  2
$PAPER_SPACE
 70
     0
 10
0.0
 20
0.0
 30
0.0
  3
$PAPER_SPACE
  1

  0
ENDBLK
  5
1D
 67
     1
  8
0
  0
ENDSEC
  0
SECTION
  2
ENTITIES
  0
POLYLINE
  5
70
  8
LABELS
 66
     1
 10
0.0
 20
0.0
 30
0.0
  0
VERTEX
  5
AC
  8
LABELS
 10
6.897631081320341
 20
17.47450911387671
 30
0.0
  0
VERTEX
  5
AD
  8
LABELS
 10
10.89763108132034
 20
17.47450911387671
 30
0.0
  0
VERTEX
  5
AE
  8
LABELS
 10
10.89763108132034
 20
15.90650911387672
 30
0.0
  0
VERTEX
  5
AF
  8
LABELS
 10
10.89728687355667
 20
15.88059447154274
 30
0.0
  0
VERTEX
  5
B0
  8
LABELS
 10
10.89626023171097
 20
15.85485603770485
 30
0.0
  0
VERTEX
  5
B1
  8
LABELS
 10
10.8945601279512
 20
15.82930205210914
 30
0.0
  0
VERTEX
  5
B2
  8
LABELS
 10
10.89219553444534
 20
15.80394075450172
 30
0.0
  0
VERTEX
  5
B3
  8
LABELS
 10
10.88917542336136
 20
15.77878038462867
 30
0.0
  0
VERTEX
  5
B4
  8
LABELS
 10
10.88550876686722
 20
15.75382918223609
 30
0.0
  0
VERTEX
  5
B5
  8
LABELS
 10
10.88120453713089
 20
15.72909538707008
 30
0.0
  0
VERTEX
  5
B6
  8
LABELS
 10
10.87627170632034
 20
15.70458723887672
 30
0.0
  0
VERTEX
  5
B7
  8
LABELS
 10
10.87071924660355
 20
15.68031297740211
 30
0.0
  0
VERTEX
  5
B8
  8
LABELS
 10
10.86455613014847
 20
15.65628084239234
 30
0.0
  0
VERTEX
  5
B9
  8
LABELS
 10
10.85779132912308
 20
15.63249907359351
 30
0.0
  0
VERTEX
  5
BA
  8
LABELS
 10
10.85043381569534
 20
15.60897591075172
 30
0.0
  0
VERTEX
  5
BB
  8
LABELS
 10
10.84249256203324
 20
15.58571959361304
 30
0.0
  0
VERTEX
  5
BC
  8
LABELS
 10
10.83397654030472
 20
15.56273836192359
 30
0.0
  0
VERTEX
  5
BD
  8
LABELS
 10
10.82489472267777
 20
15.54004045542945
 30
0.0
  0
VERTEX
  5
BE
  8
LABELS
 10
10.81525608132034
 20
15.51763411387671
 30
0.0
  0
VERTEX
  5
BF
  8
LABELS
 10
10.80506958840042
 20
15.49552757701148
 30
0.0
  0
VERTEX
  5
C0
  8
LABELS
 10
10.79434421608597
 20
15.47372908457984
 30
0.0
  0
VERTEX
  5
C1
  8
LABELS
 10
10.78308893654496
 20
15.45224687632788
 30
0.0
  0
VERTEX
  5
C2
  8
LABELS
 10
10.77131272194535
 20
15.43108919200171
 30
0.0
  0
VERTEX
  5
C3
  8
LABELS
 10
10.75902454445511
 20
15.41026427134741
 30
0.0
  0
VERTEX
  5
C4
  8
LABELS
 10
10.74623337624222
 20
15.38978035411108
 30
0.0
  0
VERTEX
  5
C5
  8
LABELS
 10
10.73294818947464
 20
15.36964568003881
 30
0.0
  0
VERTEX
  5
C6
  8
LABELS
 10
10.71917795632035
 20
15.34986848887671
 30
0.0
  0
VERTEX
  5
C7
  8
LABELS
 10
10.7049316489473
 20
15.33045702037085
 30
0.0
  0
VERTEX
  5
C8
  8
LABELS
 10
10.69021823952347
 20
15.31141951426733
 30
0.0
  0
VERTEX
  5
C9
  8
LABELS
 10
10.67504670021683
 20
15.29276421031225
 30
0.0
  0
VERTEX
  5
CA
  8
LABELS
 10
10.65942600319535
 20
15.2744993482517
 30
0.0
  0
VERTEX
  5
CB
  8
LABELS
 10
10.64336512062699
 20
15.25663316783178
 30
0.0
  0
VERTEX
  5
CC
  8
LABELS
 10
10.62687302467972
 20
15.23917390879857
 30
0.0
  0
VERTEX
  5
CD
  8
LABELS
 10
10.60995868752152
 20
15.22212981089818
 30
0.0
  0
VERTEX
  5
CE
  8
LABELS
 10
10.59263108132035
 20
15.2055091138767
 30
0.0
  0
VERTEX
  5
CF
  8
LABELS
 10
10.57489917824418
 20
15.18932005748021
 30
0.0
  0
VERTEX
  5
D0
  8
LABELS
 10
10.55677195046097
 20
15.17357088145482
 30
0.0
  0
VERTEX
  5
D1
  8
LABELS
 10
10.53825837013871
 20
15.15826982554662
 30
0.0
  0
VERTEX
  5
D2
  8
LABELS
 10
10.51936740944535
 20
15.14342512950169
 30
0.0
  0
VERTEX
  5
D3
  8
LABELS
 10
10.50010804054887
 20
15.12904503306615
 30
0.0
  0
VERTEX
  5
D4
  8
LABELS
 10
10.48048923561723
 20
15.11513777598607
 30
0.0
  0
VERTEX
  5
D5
  8
LABELS
 10
10.4605199668184
 20
15.10171159800755
 30
0.0
  0
VERTEX
  5
D6
  8
LABELS
 10
10.44020920632035
 20
15.08877473887669
 30
0.0
  0
VERTEX
  5
D7
  8
LABELS
 10
10.41956592629105
 20
15.07633543833958
 30
0.0
  0
VERTEX
  5
D8
  8
LABELS
 10
10.39859909889847
 20
15.06440193614231
 30
0.0
  0
VERTEX
  5
D9
  8
LABELS
 10
10.37731769631058
 20
15.05298247203098
 30
0.0
  0
VERTEX
  5
DA
  8
LABELS
 10
10.35573069069535
 20
15.04208528575169
 30
0.0
  0
VERTEX
  5
DB
  8
LABELS
 10
10.33384705422074
 20
15.03171861705051
 30
0.0
  0
VERTEX
  5
DC
  8
LABELS
 10
10.31167575905472
 20
15.02189070567356
 30
0.0
  0
VERTEX
  5
DD
  8
LABELS
 10
10.28922577736527
 20
15.01260979136692
 30
0.0
  0
VERTEX
  5
DE
  8
LABELS
 10
10.26650608132035
 20
15.00388411387668
 30
0.0
  0
VERTEX
  5
DF
  8
LABELS
 10
10.24352564308793
 20
14.99572191294895
 30
0.0
  0
VERTEX
  5
E0
  8
LABELS
 10
10.22029343483598
 20
14.98813142832981
 30
0.0
  0
VERTEX
  5
E1
  8
LABELS
 10
10.19681842873246
 20
14.98112089976535
 30
0.0
  0
VERTEX
  5
E2
  8
LABELS
 10
10.17310959694535
 20
14.97469856700168
 30
0.0
  0
VERTEX
  5
E3
  8
LABELS
 10
10.14917591164262
 20
14.96887266978488
 30
0.0
  0
VERTEX
  5
E4
  8
LABELS
 10
10.12502634499222
 20
14.96365144786106
 30
0.0
  0
VERTEX
  5
E5
  8
LABELS
 10
10.10066986916214
 20
14.95904314097629
 30
0.0
  0
VERTEX
  5
E6
  8
LABELS
 10
10.07611545632035
 20
14.95505598887668
 30
0.0
  0
VERTEX
  5
E7
  8
LABELS
 10
10.0513720786348
 20
14.95169823130832
 30
0.0
  0
VERTEX
  5
E8
  8
LABELS
 10
10.02644870827347
 20
14.94897810801731
 30
0.0
  0
VERTEX
  5
E9
  8
LABELS
 10
10.00135431740433
 20
14.94690385874973
 30
0.0
  0
VERTEX
  5
EA
  8
LABELS
 10
9.976097878195343
 20
14.94548372325168
 30
0.0
  0
VERTEX
  5
EB
  8
LABELS
 10
9.950688362814482
 20
14.94472594126926
 30
0.0
  0
VERTEX
  5
EC
  8
LABELS
 10
9.925134743429716
 20
14.94463875254856
 30
0.0
  0
VERTEX
  5
ED
  8
LABELS
 10
9.899445992209014
 20
14.94523039683567
 30
0.0
  0
VERTEX
  5
EE
  8
LABELS
 10
9.87363108132034
 20
14.94650911387668
 30
0.0
  0
VERTEX
  5
EF
  8
LABELS
 10
9.850950569845732
 20
14.9469181409763
 30
0.0
  0
VERTEX
  5
F0
  8
LABELS
 10
9.828413552023468
 20
14.94789070567357
 30
0.0
  0
VERTEX
  5
F1
  8
LABELS
 10
9.806026802755891
 20
14.94942003306615
 30
0.0
  0
VERTEX
  5
F2
  8
LABELS
 10
9.783797096945346
 20
14.9514993482517
 30
0.0
  0
VERTEX
  5
F3
  8
LABELS
 10
9.761731209494174
 20
14.95412187632787
 30
0.0
  0
VERTEX
  5
F4
  8
LABELS
 10
9.739835915304724
 20
14.95728084239233
 30
0.0
  0
VERTEX
  5
F5
  8
LABELS
 10
9.718117989279335
 20
14.96096947154272
 30
0.0
  0
VERTEX
  5
F6
  8
LABELS
 10
9.69658420632035
 20
14.96518098887671
 30
0.0
  0
VERTEX
  5
F7
  8
LABELS
 10
9.675241341330118
 20
14.96990861949194
 30
0.0
  0
VERTEX
  5
F8
  8
LABELS
 10
9.654096169210977
 20
14.97514558848608
 30
0.0
  0
VERTEX
  5
F9
  8
LABELS
 10
9.633155464865276
 20
14.98088512095679
 30
0.0
  0
VERTEX
  5
FA
  8
LABELS
 10
9.612426003195356
 20
14.98712044200171
 30
0.0
  0
VERTEX
  5
FB
  8
LABELS
 10
9.591914559103559
 20
14.99384477671851
 30
0.0
  0
VERTEX
  5
FC
  8
LABELS
 10
9.571627907492232
 20
15.00105135020483
 30
0.0
  0
VERTEX
  5
FD
  8
LABELS
 10
9.551572823263719
 20
15.00873338755835
 30
0.0
  0
VERTEX
  5
FE
  8
LABELS
 10
9.53175608132036
 20
15.01688411387671
 30
0.0
  0
VERTEX
  5
FF
  8
LABELS
 10
9.512184456564501
 20
15.02549675425757
 30
0.0
  0
VERTEX
  5
100
  8
LABELS
 10
9.492864723898485
 20
15.03456453379858
 30
0.0
  0
VERTEX
  5
101
  8
LABELS
 10
9.473803658224657
 20
15.04408067759741
 30
0.0
  0
VERTEX
  5
102
  8
LABELS
 10
9.455008034445362
 20
15.05403841075171
 30
0.0
  0
VERTEX
  5
103
  8
LABELS
 10
9.43648462746294
 20
15.06443095835913
 30
0.0
  0
VERTEX
  5
104
  8
LABELS
 10
9.418240212179738
 20
15.07525154551733
 30
0.0
  0
VERTEX
  5
105
  8
LABELS
 10
9.400281563498098
 20
15.08649339732397
 30
0.0
  0
VERTEX
  5
106
  8
LABELS
 10
9.382615456320366
 20
15.0981497388767
 30
0.0
  0
VERTEX
  5
107
  8
LABELS
 10
9.365248665548881
 20
15.11021379527319
 30
0.0
  0
VERTEX
  5
108
  8
LABELS
 10
9.348187966085991
 20
15.12267879161108
 30
0.0
  0
VERTEX
  5
109
  8
LABELS
 10
9.331440132834038
 20
15.13553795298803
 30
0.0
  0
VERTEX
  5
10A
  8
LABELS
 10
9.315011940695367
 20
15.1487845045017
 30
0.0
  0
VERTEX
  5
10B
  8
LABELS
 10
9.29891016457232
 20
15.16241167124975
 30
0.0
  0
VERTEX
  5
10C
  8
LABELS
 10
9.283141579367241
 20
15.17641267832983
 30
0.0
  0
VERTEX
  5
10D
  8
LABELS
 10
9.267712959982475
 20
15.19078075083959
 30
0.0
  0
VERTEX
  5
10E
  8
LABELS
 10
9.252631081320366
 20
15.2055091138767
 30
0.0
  0
VERTEX
  5
10F
  8
LABELS
 10
9.237902718283259
 20
15.22059099253881
 30
0.0
  0
VERTEX
  5
110
  8
LABELS
 10
9.223534645773492
 20
15.23601961192357
 30
0.0
  0
VERTEX
  5
111
  8
LABELS
 10
9.209533638693413
 20
15.25178819712865
 30
0.0
  0
VERTEX
  5
112
  8
LABELS
 10
9.195906471945367
 20
15.26788997325169
 30
0.0
  0
VERTEX
  5
113
  8
LABELS
 10
9.182659920431696
 20
15.28431816539037
 30
0.0
  0
VERTEX
  5
114
  8
LABELS
 10
9.169800759054741
 20
15.30106599864232
 30
0.0
  0
VERTEX
  5
115
  8
LABELS
 10
9.157335762716851
 20
15.31812669810521
 30
0.0
  0
VERTEX
  5
116
  8
LABELS
 10
9.145271706320367
 20
15.3354934888767
 30
0.0
  0
VERTEX
  5
117
  8
LABELS
 10
9.133615364767632
 20
15.35315959605443
 30
0.0
  0
VERTEX
  5
118
  8
LABELS
 10
9.12237351296099
 20
15.37111824473607
 30
0.0
  0
VERTEX
  5
119
  8
LABELS
 10
9.111552925802787
 20
15.38936266001927
 30
0.0
  0
VERTEX
  5
11A
  8
LABELS
 10
9.101160378195363
 20
15.4078860670017
 30
0.0
  0
VERTEX
  5
11B
  8
LABELS
 10
9.091202645041065
 20
15.426681690781
 30
0.0
  0
VERTEX
  5
11C
  8
LABELS
 10
9.081686501242238
 20
15.44574275645483
 30
0.0
  0
VERTEX
  5
11D
  8
LABELS
 10
9.072618721701222
 20
15.46506248912084
 30
0.0
  0
VERTEX
  5
11E
  8
LABELS
 10
9.064006081320361
 20
15.48463411387671
 30
0.0
  0
VERTEX
  5
11F
  8
LABELS
 10
9.055855355002002
 20
15.50445085582007
 30
0.0
  0
VERTEX
  5
120
  8
LABELS
 10
9.048173317648486
 20
15.52450594004859
 30
0.0
  0
VERTEX
  5
121
  8
LABELS
 10
9.040966744162159
 20
15.54479259165992
 30
0.0
  0
VERTEX
  5
122
  8
LABELS
 10
9.034242409445358
 20
15.56530403575172
 30
0.0
  0
VERTEX
  5
123
  8
LABELS
 10
9.028007088400434
 20
15.58603349742164
 30
0.0
  0
VERTEX
  5
124
  8
LABELS
 10
9.02226755592973
 20
15.60697420176735
 30
0.0
  0
VERTEX
  5
125
  8
LABELS
 10
9.017030586935588
 20
15.62811937388649
 30
0.0
  0
VERTEX
  5
126
  8
LABELS
 10
9.012302956320354
 20
15.64946223887674
 30
0.0
  0
VERTEX
  5
127
  8
LABELS
 10
9.00809143898637
 20
15.67099602183572
 30
0.0
  0
VERTEX
  5
128
  8
LABELS
 10
9.004402809835979
 20
15.69271394786112
 30
0.0
  0
VERTEX
  5
129
  8
LABELS
 10
9.001243843771524
 20
15.71460924205058
 30
0.0
  0
VERTEX
  5
12A
  8
LABELS
 10
8.99862131569535
 20
15.73667512950176
 30
0.0
  0
VERTEX
  5
12B
  8
LABELS
 10
8.996542000509802
 20
15.75890483531231
 30
0.0
  0
VERTEX
  5
12C
  8
LABELS
 10
8.995012673117223
 20
15.7812915845799
 30
0.0
  0
VERTEX
  5
12D
  8
LABELS
 10
8.994040108419956
 20
15.80382860240217
 30
0.0
  0
VERTEX
  5
12E
  8
LABELS
 10
8.993631081320345
 20
15.82650911387679
 30
0.0
  0
VERTEX
  5
12F
  8
LABELS
 10
8.993631081320345
 20
17.44250911387678
 30
0.0
  0
VERTEX
  5
130
  8
LABELS
 10
8.993631081320345
 20
15.85850911387672
 30
0.0
  0
VERTEX
  5
131
  8
LABELS
 10
8.993255745626985
 20
15.83010240611305
 30
0.0
  0
VERTEX
  5
132
  8
LABELS
 10
8.99213620827347
 20
15.80188826426735
 30
0.0
  0
VERTEX
  5
133
  8
LABELS
 10
8.990282173849641
 20
15.77387566050758
 30
0.0
  0
VERTEX
  5
134
  8
LABELS
 10
8.987703346945345
 20
15.74607356700173
 30
0.0
  0
VERTEX
  5
135
  8
LABELS
 10
8.984409432150422
 20
15.71849095591774
 30
0.0
  0
VERTEX
  5
136
  8
LABELS
 10
8.980410134054718
 20
15.6911367994236
 30
0.0
  0
VERTEX
  5
137
  8
LABELS
 10
8.975715157248079
 20
15.66402006968728
 30
0.0
  0
VERTEX
  5
138
  8
LABELS
 10
8.970334206320345
 20
15.63714973887673
 30
0.0
  0
VERTEX
  5
139
  8
LABELS
 10
8.96427698586136
 20
15.61053477915993
 30
0.0
  0
VERTEX
  5
13A
  8
LABELS
 10
8.957553200460971
 20
15.58418416270485
 30
0.0
  0
VERTEX
  5
13B
  8
LABELS
 10
8.950172554709019
 20
15.55810686167947
 30
0.0
  0
VERTEX
  5
13C
  8
LABELS
 10
8.942144753195347
 20
15.53231184825173
 30
0.0
  0
VERTEX
  5
13D
  8
LABELS
 10
8.9334795005098
 20
15.50680809458962
 30
0.0
  0
VERTEX
  5
13E
  8
LABELS
 10
8.924186501242222
 20
15.48160457286111
 30
0.0
  0
VERTEX
  5
13F
  8
LABELS
 10
8.914275459982456
 20
15.45671025523415
 30
0.0
  0
VERTEX
  5
140
  8
LABELS
 10
8.90375608132035
 20
15.43213411387673
 30
0.0
  0
VERTEX
  5
141
  8
LABELS
 10
8.892638069845741
 20
15.40788512095681
 30
0.0
  0
VERTEX
  5
142
  8
LABELS
 10
8.880931130148475
 20
15.38397224864236
 30
0.0
  0
VERTEX
  5
143
  8
LABELS
 10
8.868644966818398
 20
15.36040446910134
 30
0.0
  0
VERTEX
  5
144
  8
LABELS
 10
8.85578928444535
 20
15.33719075450173
 30
0.0
  0
VERTEX
  5
145
  8
LABELS
 10
8.84237378761918
 20
15.31434007701149
 30
0.0
  0
VERTEX
  5
146
  8
LABELS
 10
8.828408180929728
 20
15.2918614087986
 30
0.0
  0
VERTEX
  5
147
  8
LABELS
 10
8.813902168966838
 20
15.26976372203102
 30
0.0
  0
VERTEX
  5
148
  8
LABELS
 10
8.798865456320351
 20
15.24805598887673
 30
0.0
  0
VERTEX
  5
149
  8
LABELS
 10
8.783307747580118
 20
15.22674718150368
 30
0.0
  0
VERTEX
  5
14A
  8
LABELS
 10
8.767238747335977
 20
15.20584627207985
 30
0.0
  0
VERTEX
  5
14B
  8
LABELS
 10
8.750668160177774
 20
15.1853622327732
 30
0.0
  0
VERTEX
  5
14C
  8
LABELS
 10
8.733605690695352
 20
15.16530403575172
 30
0.0
  0
VERTEX
  5
14D
  8
LABELS
 10
8.716061043478554
 20
15.14568065318336
 30
0.0
  0
VERTEX
  5
14E
  8
LABELS
 10
8.698043923117227
 20
15.12650105723609
 30
0.0
  0
VERTEX
  5
14F
  8
LABELS
 10
8.679564034201213
 20
15.10777422007789
 30
0.0
  0
VERTEX
  5
150
  8
LABELS
 10
8.660631081320354
 20
15.08950911387671
 30
0.0
  0
VERTEX
  5
151
  8
LABELS
 10
8.641254769064496
 20
15.07171471080054
 30
0.0
  0
VERTEX
  5
152
  8
LABELS
 10
8.621444802023479
 20
15.05439998301733
 30
0.0
  0
VERTEX
  5
153
  8
LABELS
 10
8.601210884787152
 20
15.03757390269507
 30
0.0
  0
VERTEX
  5
154
  8
LABELS
 10
8.580562721945356
 20
15.0212454420017
 30
0.0
  0
VERTEX
  5
155
  8
LABELS
 10
8.559510018087934
 20
15.00542357310522
 30
0.0
  0
VERTEX
  5
156
  8
LABELS
 10
8.53806247780473
 20
14.99011726817358
 30
0.0
  0
VERTEX
  5
157
  8
LABELS
 10
8.516229805685587
 20
14.97533549937475
 30
0.0
  0
VERTEX
  5
158
  8
LABELS
 10
8.494021706320353
 20
14.9610872388767
 30
0.0
  0
VERTEX
  5
159
  8
LABELS
 10
8.471447884298868
 20
14.9473814588474
 30
0.0
  0
VERTEX
  5
15A
  8
LABELS
 10
8.448518044210978
 20
14.93422713145482
 30
0.0
  0
VERTEX
  5
15B
  8
LABELS
 10
8.425241890646525
 20
14.92163322886693
 30
0.0
  0
VERTEX
  5
15C
  8
LABELS
 10
8.401629128195353
 20
14.90960872325169
 30
0.0
  0
VERTEX
  5
15D
  8
LABELS
 10
8.377689461447307
 20
14.89816258677708
 30
0.0
  0
VERTEX
  5
15E
  8
LABELS
 10
8.353432594992228
 20
14.88730379161106
 30
0.0
  0
VERTEX
  5
15F
  8
LABELS
 10
8.32886823341996
 20
14.87704130992161
 30
0.0
  0
VERTEX
  5
160
  8
LABELS
 10
8.304006081320352
 20
14.86738411387669
 30
0.0
  0
VERTEX
  5
161
  8
LABELS
 10
8.278855843283242
 20
14.85834117564426
 30
0.0
  0
VERTEX
  5
162
  8
LABELS
 10
8.253427223898477
 20
14.84992146739231
 30
0.0
  0
VERTEX
  5
163
  8
LABELS
 10
8.227729927755899
 20
14.84213396128879
 30
0.0
  0
VERTEX
  5
164
  8
LABELS
 10
8.201773659445351
 20
14.83498762950168
 30
0.0
  0
VERTEX
  5
165
  8
LABELS
 10
8.17556812355668
 20
14.82849144419895
 30
0.0
  0
VERTEX
  5
166
  8
LABELS
 10
8.149123024679724
 20
14.82265437754856
 30
0.0
  0
VERTEX
  5
167
  8
LABELS
 10
8.122448067404331
 20
14.81748540171848
 30
0.0
  0
VERTEX
  5
168
  8
LABELS
 10
8.095552956320349
 20
14.81299348887668
 30
0.0
  0
VERTEX
  5
169
  8
LABELS
 10
8.068447396017614
 20
14.80918761119113
 30
0.0
  0
VERTEX
  5
16A
  8
LABELS
 10
8.041141091085972
 20
14.8060767408298
 30
0.0
  0
VERTEX
  5
16B
  8
LABELS
 10
8.013643746115267
 20
14.80366984996066
 30
0.0
  0
VERTEX
  5
16C
  8
LABELS
 10
7.985965065695344
 20
14.80197591075168
 30
0.0
  0
VERTEX
  5
16D
  8
LABELS
 10
7.958114754416046
 20
14.80100389537082
 30
0.0
  0
VERTEX
  5
16E
  8
LABELS
 10
7.930102516867217
 20
14.80076277598605
 30
0.0
  0
VERTEX
  5
16F
  8
LABELS
 10
7.9019380576387
 20
14.80126152476535
 30
0.0
  0
VERTEX
  5
170
  8
LABELS
 10
7.87363108132034
 20
14.80250911387668
 30
0.0
  0
VERTEX
  5
171
  8
LABELS
 10
7.848456581808622
 20
14.8028281446384
 30
0.0
  0
VERTEX
  5
172
  8
LABELS
 10
7.823438210226592
 20
14.80378010997043
 30
0.0
  0
VERTEX
  5
173
  8
LABELS
 10
7.798583657003936
 20
14.80535731944308
 30
0.0
  0
VERTEX
  5
174
  8
LABELS
 10
7.773900612570344
 20
14.80755208262668
 30
0.0
  0
VERTEX
  5
175
  8
LABELS
 10
7.749396767355501
 20
14.81035670909152
 30
0.0
  0
VERTEX
  5
176
  8
LABELS
 10
7.725079811789096
 20
14.81376350840793
 30
0.0
  0
VERTEX
  5
177
  8
LABELS
 10
7.700957436300816
 20
14.81776479014621
 30
0.0
  0
VERTEX
  5
178
  8
LABELS
 10
7.677037331320347
 20
14.82235286387668
 30
0.0
  0
VERTEX
  5
179
  8
LABELS
 10
7.653327187277378
 20
14.82752003916964
 30
0.0
  0
VERTEX
  5
17A
  8
LABELS
 10
7.629834694601598
 20
14.83325862559542
 30
0.0
  0
VERTEX
  5
17B
  8
LABELS
 10
7.606567543722692
 20
14.83956093272433
 30
0.0
  0
VERTEX
  5
17C
  8
LABELS
 10
7.583533425070349
 20
14.84641927012667
 30
0.0
  0
VERTEX
  5
17D
  8
LABELS
 10
7.560740029074256
 20
14.85382594737277
 30
0.0
  0
VERTEX
  5
17E
  8
LABELS
 10
7.5381950461641
 20
14.86177327403292
 30
0.0
  0
VERTEX
  5
17F
  8
LABELS
 10
7.51590616676957
 20
14.87025355967745
 30
0.0
  0
VERTEX
  5
180
  8
LABELS
 10
7.49388108132035
 20
14.87925911387667
 30
0.0
  0
VERTEX
  5
181
  8
LABELS
 10
7.472127480246131
 20
14.88878224620089
 30
0.0
  0
VERTEX
  5
182
  8
LABELS
 10
7.450653053976601
 20
14.89881526622042
 30
0.0
  0
VERTEX
  5
183
  8
LABELS
 10
7.429465492941445
 20
14.90935048350557
 30
0.0
  0
VERTEX
  5
184
  8
LABELS
 10
7.408572487570352
 20
14.92038020762667
 30
0.0
  0
VERTEX
  5
185
  8
LABELS
 10
7.387981728293008
 20
14.93189674815401
 30
0.0
  0
VERTEX
  5
186
  8
LABELS
 10
7.367700905539102
 20
14.94389241465791
 30
0.0
  0
VERTEX
  5
187
  8
LABELS
 10
7.34773770973832
 20
14.95635951670869
 30
0.0
  0
VERTEX
  5
188
  8
LABELS
 10
7.328099831320351
 20
14.96929036387666
 30
0.0
  0
VERTEX
  5
189
  8
LABELS
 10
7.308794960714883
 20
14.98267726573213
 30
0.0
  0
VERTEX
  5
18A
  8
LABELS
 10
7.2898307883516
 20
14.99651253184541
 30
0.0
  0
VERTEX
  5
18B
  8
LABELS
 10
7.271215004660194
 20
15.01078847178682
 30
0.0
  0
VERTEX
  5
18C
  8
LABELS
 10
7.25295530007035
 20
15.02549739512666
 30
0.0
  0
VERTEX
  5
18D
  8
LABELS
 10
7.235059365011757
 20
15.04063161143525
 30
0.0
  0
VERTEX
  5
18E
  8
LABELS
 10
7.2175348899141
 20
15.0561834302829
 30
0.0
  0
VERTEX
  5
18F
  8
LABELS
 10
7.200389565207069
 20
15.07214516123993
 30
0.0
  0
VERTEX
  5
190
  8
LABELS
 10
7.18363108132035
 20
15.08850911387665
 30
0.0
  0
VERTEX
  5
191
  8
LABELS
 10
7.16726712868363
 20
15.10526759776337
 30
0.0
  0
VERTEX
  5
192
  8
LABELS
 10
7.151305397726599
 20
15.1224129224704
 30
0.0
  0
VERTEX
  5
193
  8
LABELS
 10
7.135753578878942
 20
15.13993739756805
 30
0.0
  0
VERTEX
  5
194
  8
LABELS
 10
7.120619362570348
 20
15.15783333262664
 30
0.0
  0
VERTEX
  5
195
  8
LABELS
 10
7.105910439230504
 20
15.17609303721649
 30
0.0
  0
VERTEX
  5
196
  8
LABELS
 10
7.091634499289097
 20
15.19470882090789
 30
0.0
  0
VERTEX
  5
197
  8
LABELS
 10
7.077799233175815
 20
15.21367299327117
 30
0.0
  0
VERTEX
  5
198
  8
LABELS
 10
7.064412331320347
 20
15.23297786387663
 30
0.0
  0
VERTEX
  5
199
  8
LABELS
 10
7.051481484152379
 20
15.2526157422946
 30
0.0
  0
VERTEX
  5
19A
  8
LABELS
 10
7.039014382101596
 20
15.27257893809538
 30
0.0
  0
VERTEX
  5
19B
  8
LABELS
 10
7.02701871559769
 20
15.29285976084929
 30
0.0
  0
VERTEX
  5
19C
  8
LABELS
 10
7.015502175070345
 20
15.31345052012663
 30
0.0
  0
VERTEX
  5
19D
  8
LABELS
 10
7.004472450949251
 20
15.33434352549772
 30
0.0
  0
VERTEX
  5
19E
  8
LABELS
 10
6.993937233664095
 20
15.35553108653287
 30
0.0
  0
VERTEX
  5
19F
  8
LABELS
 10
6.983904213644563
 20
15.3770055128024
 30
0.0
  0
VERTEX
  5
1A0
  8
LABELS
 10
6.974381081320344
 20
15.39875911387661
 30
0.0
  0
VERTEX
  5
1A1
  8
LABELS
 10
6.965375527121125
 20
15.42078419932583
 30
0.0
  0
VERTEX
  5
1A2
  8
LABELS
 10
6.956895241476594
 20
15.44307307872036
 30
0.0
  0
VERTEX
  5
1A3
  8
LABELS
 10
6.948947914816437
 20
15.46561806163052
 30
0.0
  0
VERTEX
  5
1A4
  8
LABELS
 10
6.941541237570343
 20
15.4884114576266
 30
0.0
  0
VERTEX
  5
1A5
  8
LABELS
 10
6.934682900167999
 20
15.51144557627894
 30
0.0
  0
VERTEX
  5
1A6
  8
LABELS
 10
6.928380593039093
 20
15.53471272715785
 30
0.0
  0
VERTEX
  5
1A7
  8
LABELS
 10
6.922642006613311
 20
15.55820521983363
 30
0.0
  0
VERTEX
  5
1A8
  8
LABELS
 10
6.917474831320343
 20
15.58191536387659
 30
0.0
  0
VERTEX
  5
1A9
  8
LABELS
 10
6.912886757589874
 20
15.60583546885706
 30
0.0
  0
VERTEX
  5
1AA
  8
LABELS
 10
6.908885475851593
 20
15.62995784434533
 30
0.0
  0
VERTEX
  5
1AB
  8
LABELS
 10
6.905478676535186
 20
15.65427479991174
 30
0.0
  0
VERTEX
  5
1AC
  8
LABELS
 10
6.902674050070342
 20
15.67877864512658
 30
0.0
  0
VERTEX
  5
1AD
  8
LABELS
 10
6.900479286886748
 20
15.70346168956017
 30
0.0
  0
VERTEX
  5
1AE
  8
LABELS
 10
6.898902077414091
 20
15.72831624278282
 30
0.0
  0
VERTEX
  5
1AF
  8
LABELS
 10
6.89795011208206
 20
15.75333461436485
 30
0.0
  0
VERTEX
  5
1B0
  8
LABELS
 10
6.897631081320341
 20
15.77850911387656
 30
0.0
  0
VERTEX
  5
1B1
  8
LABELS
 10
6.897631081320341
 20
17.44250911387678
 30
0.0
  0
SEQEND
  5
3D6
  8
LABELS
  0
POLYLINE
  5
72
  8
SCREW_LOCATION_RECESS
 66
     1
 10
0.0
 20
0.0
 30
0.0
 70
     1
  0
VERTEX
  5
1B2
  8
SCREW_LOCATION_RECESS
 10
70.7697867657786
 20
3.292495311277603
 30
0.0
 42
0.4142135623730951
  0
VERTEX
  5
1B3
  8
SCREW_LOCATION_RECESS
 10
70.89978676577863
 20
3.422495311277599
 30
0.0
 42
0.4142135623730951
  0
VERTEX
  5
1B4
  8
SCREW_LOCATION_RECESS
 10
70.7697867657786
 20
3.552495311277594
 30
0.0
 42
0.4142135623730951
  0
VERTEX
  5
1B5
  8
SCREW_LOCATION_RECESS
 10
70.63978676577861
 20
3.422495311277599
 30
0.0
 42
0.4142135623730951
  0
SEQEND
  5
3D7
  8
SCREW_LOCATION_RECESS
  0
POLYLINE
  5
73
  8
SCREW_LOCATION_RECESS
 66
     1
 10
0.0
 20
0.0
 30
0.0
 70
     1
  0
VERTEX
  5
1B6
  8
SCREW_LOCATION_RECESS
 10
48.76978676577863
 20
3.292495311277603
 30
0.0
 42
0.4142135623730951
  0
VERTEX
  5
1B7
  8
SCREW_LOCATION_RECESS
 10
48.89978676577866
 20
3.422495311277599
 30
0.0
 42
0.4142135623730951
  0
VERTEX
  5
1B8
  8
SCREW_LOCATION_RECESS
 10
48.76978676577863
 20
3.552495311277594
 30
0.0
 42
0.4142135623730951
  0
VERTEX
  5
1B9
  8
SCREW_LOCATION_RECESS
 10
48.63978676577864
 20
3.422495311277599
 30
0.0
 42
0.4142135623730951
  0
SEQEND
  5
3D8
  8
SCREW_LOCATION_RECESS
  0
POLYLINE
  5
74
  8
SCREW_LOCATION_RECESS
 66
     1
 10
0.0
 20
0.0
 30
0.0
 70
     1
  0
VERTEX
  5
1BA
  8
SCREW_LOCATION_RECESS
 10
26.76978676577863
 20
3.292495311277689
 30
0.0
 42
0.4142135623730951
  0
VERTEX
  5
1BB
  8
SCREW_LOCATION_RECESS
 10
26.89978676577863
 20
3.422495311277684
 30
0.0
 42
0.4142135623730951
  0
VERTEX
  5
1BC
  8
SCREW_LOCATION_RECESS
 10
26.76978676577863
 20
3.55249531127768
 30
0.0
 42
0.4142135623730951
  0
VERTEX
  5
1BD
  8
SCREW_LOCATION_RECESS
 10
26.63978676577864
 20
3.422495311277684
 30
0.0
 42
0.4142135623730951
  0
SEQEND
  5
3D9
  8
SCREW_LOCATION_RECESS
  0
POLYLINE
  5
75
  8
SCREW_LOCATION_RECESS
 66
     1
 10
0.0
 20
0.0
 30
0.0
 70
     1
  0
VERTEX
  5
1BE
  8
SCREW_LOCATION_RECESS
 10
5.489786765778628
 20
3.292495311277689
 30
0.0
 42
0.4142135623730951
  0
VERTEX
  5
1BF
  8
SCREW_LOCATION_RECESS
 10
5.619786765778623
 20
3.422495311277684
 30
0.0
 42
0.4142135623730951
  0
VERTEX
  5
1C0
  8
SCREW_LOCATION_RECESS
 10
5.489786765778628
 20
3.55249531127768
 30
0.0
 42
0.4142135623730951
  0
VERTEX
  5
1C1
  8
SCREW_LOCATION_RECESS
 10
5.359786765778632
 20
3.422495311277684
 30
0.0
 42
0.4142135623730951
  0
SEQEND
  5
3DA
  8
SCREW_LOCATION_RECESS
  0
POLYLINE
  5
76
  8
SCREW_LOCATION_RECESS
 66
     1
 10
0.0
 20
0.0
 30
0.0
 70
     1
  0
VERTEX
  5
1C2
  8
SCREW_LOCATION_RECESS
 10
70.7697867657786
 20
7.793216829835367
 30
0.0
 42
0.4142135623730951
  0
VERTEX
  5
1C3
  8
SCREW_LOCATION_RECESS
 10
70.89978676577863
 20
7.923216829835362
 30
0.0
 42
0.4142135623730951
  0
VERTEX
  5
1C4
  8
SCREW_LOCATION_RECESS
 10
70.7697867657786
 20
8.053216829835357
 30
0.0
 42
0.4142135623730951
  0
VERTEX
  5
1C5
  8
SCREW_LOCATION_RECESS
 10
70.63978676577861
 20
7.923216829835362
 30
0.0
 42
0.4142135623730951
  0
SEQEND
  5
3DB
  8
SCREW_LOCATION_RECESS
  0
POLYLINE
  5
77
  8
SCREW_LOCATION_RECESS
 66
     1
 10
0.0
 20
0.0
 30
0.0
 70
     1
  0
VERTEX
  5
1C6
  8
SCREW_LOCATION_RECESS
 10
48.76978676577863
 20
7.793216829835367
 30
0.0
 42
0.4142135623730951
  0
VERTEX
  5
1C7
  8
SCREW_LOCATION_RECESS
 10
48.89978676577866
 20
7.923216829835362
 30
0.0
 42
0.4142135623730951
  0
VERTEX
  5
1C8
  8
SCREW_LOCATION_RECESS
 10
48.76978676577863
 20
8.053216829835357
 30
0.0
 42
0.4142135623730951
  0
VERTEX
  5
1C9
  8
SCREW_LOCATION_RECESS
 10
48.63978676577864
 20
7.923216829835362
 30
0.0
 42
0.4142135623730951
  0
SEQEND
  5
3DC
  8
SCREW_LOCATION_RECESS
  0
POLYLINE
  5
78
  8
SCREW_LOCATION_RECESS
 66
     1
 10
0.0
 20
0.0
 30
0.0
 70
     1
  0
VERTEX
  5
1CA
  8
SCREW_LOCATION_RECESS
 10
26.76978676577863
 20
7.793216829835452
 30
0.0
 42
0.4142135623730951
  0
VERTEX
  5
1CB
  8
SCREW_LOCATION_RECESS
 10
26.89978676577863
 20
7.923216829835448
 30
0.0
 42
0.4142135623730951
  0
VERTEX
  5
1CC
  8
SCREW_LOCATION_RECESS
 10
26.76978676577863
 20
8.053216829835442
 30
0.0
 42
0.4142135623730951
  0
VERTEX
  5
1CD
  8
SCREW_LOCATION_RECESS
 10
26.63978676577864
 20
7.923216829835448
 30
0.0
 42
0.4142135623730951
  0
SEQEND
  5
3DD
  8
SCREW_LOCATION_RECESS
  0
POLYLINE
  5
79
  8
SCREW_LOCATION_RECESS
 66
     1
 10
0.0
 20
0.0
 30
0.0
 70
     1
  0
VERTEX
  5
1CE
  8
SCREW_LOCATION_RECESS
 10
5.489786765778628
 20
7.793216829835452
 30
0.0
 42
0.4142135623730951
  0
VERTEX
  5
1CF
  8
SCREW_LOCATION_RECESS
 10
5.619786765778623
 20
7.923216829835448
 30
0.0
 42
0.4142135623730951
  0
VERTEX
  5
1D0
  8
SCREW_LOCATION_RECESS
 10
5.489786765778628
 20
8.053216829835442
 30
0.0
 42
0.4142135623730951
  0
VERTEX
  5
1D1
  8
SCREW_LOCATION_RECESS
 10
5.359786765778632
 20
7.923216829835448
 30
0.0
 42
0.4142135623730951
  0
SEQEND
  5
3DE
  8
SCREW_LOCATION_RECESS
  0
POLYLINE
  5
7A
  8
SCREW_LOCATION_RECESS
 66
     1
 10
0.0
 20
0.0
 30
0.0
 70
     1
  0
VERTEX
  5
1D2
  8
SCREW_LOCATION_RECESS
 10
24.22408649767057
 20
38.35877448581442
 30
0.0
 42
0.4142135623730951
  0
VERTEX
  5
1D3
  8
SCREW_LOCATION_RECESS
 10
24.09408649767055
 20
38.22877448581444
 30
0.0
 42
0.4142135623730951
  0
VERTEX
  5
1D4
  8
SCREW_LOCATION_RECESS
 10
24.22408649767057
 20
38.09877448581446
 30
0.0
 42
0.4142135623730951
  0
VERTEX
  5
1D5
  8
SCREW_LOCATION_RECESS
 10
24.35408649767059
 20
38.22877448581444
 30
0.0
 42
0.4142135623730951
  0
SEQEND
  5
3DF
  8
SCREW_LOCATION_RECESS
  0
POLYLINE
  5
7B
  8
SCREW_LOCATION_RECESS
 66
     1
 10
0.0
 20
0.0
 30
0.0
 70
     1
  0
VERTEX
  5
1D6
  8
SCREW_LOCATION_RECESS
 10
46.22408649767057
 20
38.26502448581438
 30
0.0
 42
0.4142135623730951
  0
VERTEX
  5
1D7
  8
SCREW_LOCATION_RECESS
 10
46.09408649767059
 20
38.13502448581443
 30
0.0
 42
0.4142135623730951
  0
VERTEX
  5
1D8
  8
SCREW_LOCATION_RECESS
 10
46.22408649767057
 20
38.0050244858144
 30
0.0
 42
0.4142135623730951
  0
VERTEX
  5
1D9
  8
SCREW_LOCATION_RECESS
 10
46.3540864976706
 20
38.13502448581443
 30
0.0
 42
0.4142135623730951
  0
SEQEND
  5
3E0
  8
SCREW_LOCATION_RECESS
  0
POLYLINE
  5
7C
  8
SCREW_LOCATION_RECESS
 66
     1
 10
0.0
 20
0.0
 30
0.0
 70
     1
  0
VERTEX
  5
1DA
  8
SCREW_LOCATION_RECESS
 10
68.22408649767057
 20
38.35877448581439
 30
0.0
 42
0.4142135623730951
  0
VERTEX
  5
1DB
  8
SCREW_LOCATION_RECESS
 10
68.09408649767057
 20
38.22877448581443
 30
0.0
 42
0.4142135623730951
  0
VERTEX
  5
1DC
  8
SCREW_LOCATION_RECESS
 10
68.22408649767057
 20
38.09877448581439
 30
0.0
 42
0.4142135623730951
  0
VERTEX
  5
1DD
  8
SCREW_LOCATION_RECESS
 10
68.35408649767058
 20
38.22877448581443
 30
0.0
 42
0.4142135623730951
  0
SEQEND
  5
3E1
  8
SCREW_LOCATION_RECESS
  0
POLYLINE
  5
7D
  8
SCREW_LOCATION_RECESS
 66
     1
 10
0.0
 20
0.0
 30
0.0
 70
     1
  0
VERTEX
  5
1DE
  8
SCREW_LOCATION_RECESS
 10
89.47408649855166
 20
38.09877448569972
 30
0.0
 42
0.4142135623730951
  0
VERTEX
  5
1DF
  8
SCREW_LOCATION_RECESS
 10
89.60408649855165
 20
38.22877448569974
 30
0.0
 42
0.4142135623730951
  0
VERTEX
  5
1E0
  8
SCREW_LOCATION_RECESS
 10
89.47408649855166
 20
38.35877448569975
 30
0.0
 42
0.4142135623730951
  0
VERTEX
  5
1E1
  8
SCREW_LOCATION_RECESS
 10
89.34408649855168
 20
38.22877448569974
 30
0.0
 42
0.4142135623730951
  0
SEQEND
  5
3E2
  8
SCREW_LOCATION_RECESS
  0
POLYLINE
  5
7E
  8
SCREW_LOCATION_RECESS
 66
     1
 10
0.0
 20
0.0
 30
0.0
 70
     1
  0
VERTEX
  5
1E2
  8
SCREW_LOCATION_RECESS
 10
24.22408649841104
 20
19.3487744875283
 30
0.0
 42
-0.4142135623730951
  0
VERTEX
  5
1E3
  8
SCREW_LOCATION_RECESS
 10
24.09408649840089
 20
19.47877448751815
 30
0.0
 42
-0.4142135623730951
  0
VERTEX
  5
1E4
  8
SCREW_LOCATION_RECESS
 10
24.22408649839079
 20
19.60877448752826
 30
0.0
 42
-0.4142135623730951
  0
VERTEX
  5
1E5
  8
SCREW_LOCATION_RECESS
 10
24.35408649840093
 20
19.4787744875384
 30
0.0
 42
-0.4142135623730951
  0
SEQEND
  5
3E3
  8
SCREW_LOCATION_RECESS
  0
POLYLINE
  5
7F
  8
SCREW_LOCATION_RECESS
 66
     1
 10
0.0
 20
0.0
 30
0.0
 70
     1
  0
VERTEX
  5
1E6
  8
SCREW_LOCATION_RECESS
 10
46.22408649840374
 20
19.44252448924218
 30
0.0
 42
-0.4142135623730951
  0
VERTEX
  5
1E7
  8
SCREW_LOCATION_RECESS
 10
46.09408649839362
 20
19.57252448923202
 30
0.0
 42
-0.4142135623730951
  0
VERTEX
  5
1E8
  8
SCREW_LOCATION_RECESS
 10
46.22408649838349
 20
19.70252448924217
 30
0.0
 42
-0.4142135623730951
  0
VERTEX
  5
1E9
  8
SCREW_LOCATION_RECESS
 10
46.35408649839364
 20
19.57252448925228
 30
0.0
 42
-0.4142135623730951
  0
SEQEND
  5
3E4
  8
SCREW_LOCATION_RECESS
  0
POLYLINE
  5
80
  8
SCREW_LOCATION_RECESS
 66
     1
 10
0.0
 20
0.0
 30
0.0
 70
     1
  0
VERTEX
  5
1EA
  8
SCREW_LOCATION_RECESS
 10
68.22408649841103
 20
19.34877449095605
 30
0.0
 42
-0.4142135623730951
  0
VERTEX
  5
1EB
  8
SCREW_LOCATION_RECESS
 10
68.09408649840091
 20
19.47877449094589
 30
0.0
 42
-0.4142135623730951
  0
VERTEX
  5
1EC
  8
SCREW_LOCATION_RECESS
 10
68.22408649839079
 20
19.60877449095604
 30
0.0
 42
-0.4142135623730951
  0
VERTEX
  5
1ED
  8
SCREW_LOCATION_RECESS
 10
68.3540864984009
 20
19.47877449096614
 30
0.0
 42
-0.4142135623730951
  0
SEQEND
  5
3E5
  8
SCREW_LOCATION_RECESS
  0
POLYLINE
  5
81
  8
SCREW_LOCATION_RECESS
 66
     1
 10
0.0
 20
0.0
 30
0.0
 70
     1
  0
VERTEX
  5
1EE
  8
SCREW_LOCATION_RECESS
 10
89.47408649927188
 20
19.60877449272615
 30
0.0
 42
-0.4142135623730951
  0
VERTEX
  5
1EF
  8
SCREW_LOCATION_RECESS
 10
89.604086499282
 20
19.47877449273626
 30
0.0
 42
-0.4142135623730951
  0
VERTEX
  5
1F0
  8
SCREW_LOCATION_RECESS
 10
89.47408649929213
 20
19.34877449272611
 30
0.0
 42
-0.4142135623730951
  0
VERTEX
  5
1F1
  8
SCREW_LOCATION_RECESS
 10
89.34408649928201
 20
19.47877449271601
 30
0.0
 42
-0.4142135623730951
  0
SEQEND
  5
3E6
  8
SCREW_LOCATION_RECESS
  0
POLYLINE
  5
82
  8
SCREW_LOCATION_RECESS
 66
     1
 10
0.0
 20
0.0
 30
0.0
 70
     1
  0
VERTEX
  5
1F2
  8
SCREW_LOCATION_RECESS
 10
2.224086497679977
 20
35.61955410174548
 30
0.0
 42
-0.4142135623730951
  0
VERTEX
  5
1F3
  8
SCREW_LOCATION_RECESS
 10
2.094086497679995
 20
35.7495541017455
 30
0.0
 42
-0.4142135623730951
  0
VERTEX
  5
1F4
  8
SCREW_LOCATION_RECESS
 10
2.224086497679977
 20
35.87955410174552
 30
0.0
 42
-0.4142135623730951
  0
VERTEX
  5
1F5
  8
SCREW_LOCATION_RECESS
 10
2.354086497679958
 20
35.7495541017455
 30
0.0
 42
-0.4142135623730951
  0
SEQEND
  5
3E7
  8
SCREW_LOCATION_RECESS
  0
POLYLINE
  5
83
  8
SCREW_LOCATION_RECESS
 66
     1
 10
0.0
 20
0.0
 30
0.0
 70
     1
  0
VERTEX
  5
1F6
  8
SCREW_LOCATION_RECESS
 10
2.224086497679977
 20
22.08799486991258
 30
0.0
 42
0.4142135623730951
  0
VERTEX
  5
1F7
  8
SCREW_LOCATION_RECESS
 10
2.094086497679995
 20
21.95799486991257
 30
0.0
 42
0.4142135623730951
  0
VERTEX
  5
1F8
  8
SCREW_LOCATION_RECESS
 10
2.224086497679977
 20
21.82799486991255
 30
0.0
 42
0.4142135623730951
  0
VERTEX
  5
1F9
  8
SCREW_LOCATION_RECESS
 10
2.354086497679958
 20
21.95799486991257
 30
0.0
 42
0.4142135623730951
  0
SEQEND
  5
3E8
  8
SCREW_LOCATION_RECESS
  0
POLYLINE
  5
84
  8
SCREW_LOCATION_RECESS
 66
     1
 10
0.0
 20
0.0
 30
0.0
 70
     1
  0
VERTEX
  5
1FA
  8
SCREW_LOCATION_RECESS
 10
7.704086497108221
 20
45.22377445705099
 30
0.0
 42
0.4142135623730951
  0
VERTEX
  5
1FB
  8
SCREW_LOCATION_RECESS
 10
7.834086497118363
 20
45.35377445704093
 30
0.0
 42
0.4142135623730951
  0
VERTEX
  5
1FC
  8
SCREW_LOCATION_RECESS
 10
7.704086497128472
 20
45.48377445705096
 30
0.0
 42
0.4142135623730951
  0
VERTEX
  5
1FD
  8
SCREW_LOCATION_RECESS
 10
7.57408649711833
 20
45.35377445706118
 30
0.0
 42
0.4142135623730951
  0
SEQEND
  5
3E9
  8
SCREW_LOCATION_RECESS
  0
POLYLINE
  5
85
  8
SCREW_LOCATION_RECESS
 66
     1
 10
0.0
 20
0.0
 30
0.0
 70
     1
  0
VERTEX
  5
1FE
  8
SCREW_LOCATION_RECESS
 10
18.70408649712115
 20
45.48377445753877
 30
0.0
 42
-0.4142135623730976
  0
VERTEX
  5
1FF
  8
SCREW_LOCATION_RECESS
 10
18.83408649711103
 20
45.35377445752876
 30
0.0
 42
-0.4142135623730951
  0
VERTEX
  5
200
  8
SCREW_LOCATION_RECESS
 10
18.70408649710089
 20
45.22377445753884
 30
0.0
 42
-0.4142135623730951
  0
VERTEX
  5
201
  8
SCREW_LOCATION_RECESS
 10
18.57408649711097
 20
45.35377445754901
 30
0.0
 42
-0.4142135623730976
  0
SEQEND
  5
3EA
  8
SCREW_LOCATION_RECESS
  0
POLYLINE
  5
86
  8
SCREW_LOCATION_RECESS
 66
     1
 10
0.0
 20
0.0
 30
0.0
 70
     1
  0
VERTEX
  5
202
  8
SCREW_LOCATION_RECESS
 10
84.70408649712847
 20
45.22377446046585
 30
0.0
 42
-0.4142135623730951
  0
VERTEX
  5
203
  8
SCREW_LOCATION_RECESS
 10
84.57408649711832
 20
45.35377446045577
 30
0.0
 42
-0.4142135623730951
  0
VERTEX
  5
204
  8
SCREW_LOCATION_RECESS
 10
84.70408649710822
 20
45.4837744604658
 30
0.0
 42
-0.4142135623730951
  0
VERTEX
  5
205
  8
SCREW_LOCATION_RECESS
 10
84.83408649711836
 20
45.35377446047603
 30
0.0
 42
-0.4142135623730951
  0
SEQEND
  5
3EB
  8
SCREW_LOCATION_RECESS
  0
POLYLINE
  5
87
  8
SCREW_LOCATION_RECESS
 66
     1
 10
0.0
 20
0.0
 30
0.0
 70
     1
  0
VERTEX
  5
206
  8
SCREW_LOCATION_RECESS
 10
51.70408649712846
 20
45.22377445900234
 30
0.0
 42
-0.4142135623730951
  0
VERTEX
  5
207
  8
SCREW_LOCATION_RECESS
 10
51.57408649711832
 20
45.35377445899226
 30
0.0
 42
-0.4142135623730951
  0
VERTEX
  5
208
  8
SCREW_LOCATION_RECESS
 10
51.70408649710821
 20
45.4837744590023
 30
0.0
 42
-0.4142135623730951
  0
VERTEX
  5
209
  8
SCREW_LOCATION_RECESS
 10
51.83408649711836
 20
45.35377445901253
 30
0.0
 42
-0.4142135623730951
  0
SEQEND
  5
3EC
  8
SCREW_LOCATION_RECESS
  0
POLYLINE
  5
88
  8
SCREW_LOCATION_RECESS
 66
     1
 10
0.0
 20
0.0
 30
0.0
 70
     1
  0
VERTEX
  5
20A
  8
SCREW_LOCATION_RECESS
 10
73.70408649710821
 20
45.48377445997795
 30
0.0
 42
0.4142135623730951
  0
VERTEX
  5
20B
  8
SCREW_LOCATION_RECESS
 10
73.57408649711833
 20
45.35377445996794
 30
0.0
 42
0.4142135623730951
  0
VERTEX
  5
20C
  8
SCREW_LOCATION_RECESS
 10
73.70408649712846
 20
45.22377445997802
 30
0.0
 42
0.4142135623730951
  0
VERTEX
  5
20D
  8
SCREW_LOCATION_RECESS
 10
73.83408649711838
 20
45.35377445998819
 30
0.0
 42
0.4142135623730951
  0
SEQEND
  5
3ED
  8
SCREW_LOCATION_RECESS
  0
POLYLINE
  5
89
  8
SCREW_LOCATION_RECESS
 66
     1
 10
0.0
 20
0.0
 30
0.0
 70
     1
  0
VERTEX
  5
20E
  8
SCREW_LOCATION_RECESS
 10
62.70408649710821
 20
45.48377445949012
 30
0.0
 42
0.4142135623730951
  0
VERTEX
  5
20F
  8
SCREW_LOCATION_RECESS
 10
62.57408649711833
 20
45.35377445948009
 30
0.0
 42
0.4142135623730951
  0
VERTEX
  5
210
  8
SCREW_LOCATION_RECESS
 10
62.70408649712846
 20
45.22377445949019
 30
0.0
 42
0.4142135623730951
  0
VERTEX
  5
211
  8
SCREW_LOCATION_RECESS
 10
62.83408649711838
 20
45.35377445950036
 30
0.0
 42
0.4142135623730951
  0
SEQEND
  5
3EE
  8
SCREW_LOCATION_RECESS
  0
POLYLINE
  5
8A
  8
SCREW_LOCATION_RECESS
 66
     1
 10
0.0
 20
0.0
 30
0.0
 70
     1
  0
VERTEX
  5
212
  8
SCREW_LOCATION_RECESS
 10
40.70408649712846
 20
45.2237744585145
 30
0.0
 42
-0.4142135623730951
  0
VERTEX
  5
213
  8
SCREW_LOCATION_RECESS
 10
40.57408649711832
 20
45.35377445850443
 30
0.0
 42
-0.4142135623730951
  0
VERTEX
  5
214
  8
SCREW_LOCATION_RECESS
 10
40.70408649710821
 20
45.48377445851446
 30
0.0
 42
-0.4142135623730951
  0
VERTEX
  5
215
  8
SCREW_LOCATION_RECESS
 10
40.83408649711836
 20
45.3537744585247
 30
0.0
 42
-0.4142135623730951
  0
SEQEND
  5
3EF
  8
SCREW_LOCATION_RECESS
  0
POLYLINE
  5
8B
  8
SCREW_LOCATION_RECESS
 66
     1
 10
0.0
 20
0.0
 30
0.0
 70
     1
  0
VERTEX
  5
216
  8
SCREW_LOCATION_RECESS
 10
29.70408649710822
 20
45.48377445802662
 30
0.0
 42
0.4142135623730976
  0
VERTEX
  5
217
  8
SCREW_LOCATION_RECESS
 10
29.57408649711834
 20
45.35377445801659
 30
0.0
 42
0.4142135623730951
  0
VERTEX
  5
218
  8
SCREW_LOCATION_RECESS
 10
29.70408649712849
 20
45.22377445802668
 30
0.0
 42
0.4142135623730951
  0
VERTEX
  5
219
  8
SCREW_LOCATION_RECESS
 10
29.83408649711841
 20
45.35377445803684
 30
0.0
 42
0.4142135623730976
  0
SEQEND
  5
3F0
  8
SCREW_LOCATION_RECESS
  0
POLYLINE
  5
8C
  8
SCREW_LOCATION_RECESS
 66
     1
 10
0.0
 20
0.0
 30
0.0
 70
     1
  0
VERTEX
  5
21A
  8
SCREW_LOCATION_RECESS
 10
89.47408649770303
 20
45.22377446067688
 30
0.0
 42
-0.4142135623730951
  0
VERTEX
  5
21B
  8
SCREW_LOCATION_RECESS
 10
89.34408649769287
 20
45.35377446066681
 30
0.0
 42
-0.4142135623730951
  0
VERTEX
  5
21C
  8
SCREW_LOCATION_RECESS
 10
89.47408649768276
 20
45.48377446067683
 30
0.0
 42
-0.4142135623730951
  0
VERTEX
  5
21D
  8
SCREW_LOCATION_RECESS
 10
89.60408649769292
 20
45.35377446068706
 30
0.0
 42
-0.4142135623730951
  0
SEQEND
  5
3F1
  8
SCREW_LOCATION_RECESS
  0
POLYLINE
  5
8D
  8
SCREW_LOCATION_RECESS
 66
     1
 10
0.0
 20
0.0
 30
0.0
 70
     1
  0
VERTEX
  5
21E
  8
SCREW_LOCATION_RECESS
 10
3.474086496393717
 20
45.48377445363842
 30
0.0
 42
0.4142135623730976
  0
VERTEX
  5
21F
  8
SCREW_LOCATION_RECESS
 10
3.344086496403836
 20
45.3537744536284
 30
0.0
 42
0.4142135623730951
  0
VERTEX
  5
220
  8
SCREW_LOCATION_RECESS
 10
3.474086496413971
 20
45.22377445363848
 30
0.0
 42
0.4142135623730951
  0
VERTEX
  5
221
  8
SCREW_LOCATION_RECESS
 10
3.604086496403891
 20
45.35377445364865
 30
0.0
 42
0.4142135623730976
  0
SEQEND
  5
3F2
  8
SCREW_LOCATION_RECESS
  0
POLYLINE
  5
8E
  8
SCREW_LOCATION_RECESS
 66
     1
 10
0.0
 20
0.0
 30
0.0
 70
     1
  0
VERTEX
  5
222
  8
SCREW_LOCATION_RECESS
 10
7.704086497108221
 20
12.48377451460708
 30
0.0
 42
-0.4142135623730951
  0
VERTEX
  5
223
  8
SCREW_LOCATION_RECESS
 10
7.834086497118363
 20
12.35377451461714
 30
0.0
 42
-0.4142135623730951
  0
VERTEX
  5
224
  8
SCREW_LOCATION_RECESS
 10
7.704086497128472
 20
12.22377451460711
 30
0.0
 42
-0.4142135623730951
  0
VERTEX
  5
225
  8
SCREW_LOCATION_RECESS
 10
7.57408649711833
 20
12.35377451459689
 30
0.0
 42
-0.4142135623730951
  0
SEQEND
  5
3F3
  8
SCREW_LOCATION_RECESS
  0
POLYLINE
  5
8F
  8
SCREW_LOCATION_RECESS
 66
     1
 10
0.0
 20
0.0
 30
0.0
 70
     1
  0
VERTEX
  5
226
  8
SCREW_LOCATION_RECESS
 10
18.70408649712115
 20
12.2237745141193
 30
0.0
 42
0.4142135623730976
  0
VERTEX
  5
227
  8
SCREW_LOCATION_RECESS
 10
18.83408649711103
 20
12.35377451412931
 30
0.0
 42
0.4142135623730951
  0
VERTEX
  5
228
  8
SCREW_LOCATION_RECESS
 10
18.70408649710089
 20
12.48377451411923
 30
0.0
 42
0.4142135623730951
  0
VERTEX
  5
229
  8
SCREW_LOCATION_RECESS
 10
18.57408649711097
 20
12.35377451410906
 30
0.0
 42
0.4142135623730976
  0
SEQEND
  5
3F4
  8
SCREW_LOCATION_RECESS
  0
POLYLINE
  5
90
  8
SCREW_LOCATION_RECESS
 66
     1
 10
0.0
 20
0.0
 30
0.0
 70
     1
  0
VERTEX
  5
22A
  8
SCREW_LOCATION_RECESS
 10
84.70408649712847
 20
12.48377451119222
 30
0.0
 42
0.4142135623730951
  0
VERTEX
  5
22B
  8
SCREW_LOCATION_RECESS
 10
84.57408649711832
 20
12.3537745112023
 30
0.0
 42
0.4142135623730951
  0
VERTEX
  5
22C
  8
SCREW_LOCATION_RECESS
 10
84.70408649710822
 20
12.22377451119227
 30
0.0
 42
0.4142135623730951
  0
VERTEX
  5
22D
  8
SCREW_LOCATION_RECESS
 10
84.83408649711836
 20
12.35377451118204
 30
0.0
 42
0.4142135623730951
  0
SEQEND
  5
3F5
  8
SCREW_LOCATION_RECESS
  0
POLYLINE
  5
91
  8
SCREW_LOCATION_RECESS
 66
     1
 10
0.0
 20
0.0
 30
0.0
 70
     1
  0
VERTEX
  5
22E
  8
SCREW_LOCATION_RECESS
 10
51.70408649712846
 20
12.48377451265573
 30
0.0
 42
0.4142135623730951
  0
VERTEX
  5
22F
  8
SCREW_LOCATION_RECESS
 10
51.57408649711832
 20
12.35377451266581
 30
0.0
 42
0.4142135623730951
  0
VERTEX
  5
230
  8
SCREW_LOCATION_RECESS
 10
51.70408649710821
 20
12.22377451265577
 30
0.0
 42
0.4142135623730951
  0
VERTEX
  5
231
  8
SCREW_LOCATION_RECESS
 10
51.83408649711836
 20
12.35377451264554
 30
0.0
 42
0.4142135623730951
  0
SEQEND
  5
3F6
  8
SCREW_LOCATION_RECESS
  0
POLYLINE
  5
92
  8
SCREW_LOCATION_RECESS
 66
     1
 10
0.0
 20
0.0
 30
0.0
 70
     1
  0
VERTEX
  5
232
  8
SCREW_LOCATION_RECESS
 10
73.70408649710821
 20
12.22377451168012
 30
0.0
 42
-0.4142135623730951
  0
VERTEX
  5
233
  8
SCREW_LOCATION_RECESS
 10
73.57408649711833
 20
12.35377451169013
 30
0.0
 42
-0.4142135623730951
  0
VERTEX
  5
234
  8
SCREW_LOCATION_RECESS
 10
73.70408649712846
 20
12.48377451168005
 30
0.0
 42
-0.4142135623730951
  0
VERTEX
  5
235
  8
SCREW_LOCATION_RECESS
 10
73.83408649711838
 20
12.35377451166988
 30
0.0
 42
-0.4142135623730951
  0
SEQEND
  5
3F7
  8
SCREW_LOCATION_RECESS
  0
POLYLINE
  5
93
  8
SCREW_LOCATION_RECESS
 66
     1
 10
0.0
 20
0.0
 30
0.0
 70
     1
  0
VERTEX
  5
236
  8
SCREW_LOCATION_RECESS
 10
62.70408649710821
 20
12.22377451216795
 30
0.0
 42
-0.4142135623730951
  0
VERTEX
  5
237
  8
SCREW_LOCATION_RECESS
 10
62.57408649711833
 20
12.35377451217798
 30
0.0
 42
-0.4142135623730951
  0
VERTEX
  5
238
  8
SCREW_LOCATION_RECESS
 10
62.70408649712846
 20
12.48377451216788
 30
0.0
 42
-0.4142135623730951
  0
VERTEX
  5
239
  8
SCREW_LOCATION_RECESS
 10
62.83408649711838
 20
12.35377451215771
 30
0.0
 42
-0.4142135623730951
  0
SEQEND
  5
3F8
  8
SCREW_LOCATION_RECESS
  0
POLYLINE
  5
94
  8
SCREW_LOCATION_RECESS
 66
     1
 10
0.0
 20
0.0
 30
0.0
 70
     1
  0
VERTEX
  5
23A
  8
SCREW_LOCATION_RECESS
 10
40.70408649712846
 20
12.48377451314357
 30
0.0
 42
0.4142135623730951
  0
VERTEX
  5
23B
  8
SCREW_LOCATION_RECESS
 10
40.57408649711832
 20
12.35377451315364
 30
0.0
 42
0.4142135623730951
  0
VERTEX
  5
23C
  8
SCREW_LOCATION_RECESS
 10
40.70408649710821
 20
12.22377451314361
 30
0.0
 42
0.4142135623730951
  0
VERTEX
  5
23D
  8
SCREW_LOCATION_RECESS
 10
40.83408649711836
 20
12.35377451313337
 30
0.0
 42
0.4142135623730951
  0
SEQEND
  5
3F9
  8
SCREW_LOCATION_RECESS
  0
POLYLINE
  5
95
  8
SCREW_LOCATION_RECESS
 66
     1
 10
0.0
 20
0.0
 30
0.0
 70
     1
  0
VERTEX
  5
23E
  8
SCREW_LOCATION_RECESS
 10
29.70408649710822
 20
12.22377451363145
 30
0.0
 42
-0.4142135623730976
  0
VERTEX
  5
23F
  8
SCREW_LOCATION_RECESS
 10
29.57408649711834
 20
12.35377451364148
 30
0.0
 42
-0.4142135623730951
  0
VERTEX
  5
240
  8
SCREW_LOCATION_RECESS
 10
29.70408649712849
 20
12.48377451363139
 30
0.0
 42
-0.4142135623730951
  0
VERTEX
  5
241
  8
SCREW_LOCATION_RECESS
 10
29.83408649711841
 20
12.35377451362123
 30
0.0
 42
-0.4142135623730976
  0
SEQEND
  5
3FA
  8
SCREW_LOCATION_RECESS
  0
POLYLINE
  5
96
  8
SCREW_LOCATION_RECESS
 66
     1
 10
0.0
 20
0.0
 30
0.0
 70
     1
  0
VERTEX
  5
242
  8
SCREW_LOCATION_RECESS
 10
89.47408649770303
 20
12.48377451098119
 30
0.0
 42
0.4142135623730951
  0
VERTEX
  5
243
  8
SCREW_LOCATION_RECESS
 10
89.34408649769287
 20
12.35377451099126
 30
0.0
 42
0.4142135623730951
  0
VERTEX
  5
244
  8
SCREW_LOCATION_RECESS
 10
89.47408649768276
 20
12.22377451098124
 30
0.0
 42
0.4142135623730951
  0
VERTEX
  5
245
  8
SCREW_LOCATION_RECESS
 10
89.60408649769292
 20
12.35377451097101
 30
0.0
 42
0.4142135623730951
  0
SEQEND
  5
3FB
  8
SCREW_LOCATION_RECESS
  0
POLYLINE
  5
97
  8
SCREW_LOCATION_RECESS
 66
     1
 10
0.0
 20
0.0
 30
0.0
 70
     1
  0
VERTEX
  5
246
  8
SCREW_LOCATION_RECESS
 10
3.474086496393717
 20
12.22377451801965
 30
0.0
 42
-0.4142135623730976
  0
VERTEX
  5
247
  8
SCREW_LOCATION_RECESS
 10
3.344086496403836
 20
12.35377451802967
 30
0.0
 42
-0.4142135623730951
  0
VERTEX
  5
248
  8
SCREW_LOCATION_RECESS
 10
3.474086496413971
 20
12.48377451801959
 30
0.0
 42
-0.4142135623730951
  0
VERTEX
  5
249
  8
SCREW_LOCATION_RECESS
 10
3.604086496403891
 20
12.35377451800942
 30
0.0
 42
-0.4142135623730976
  0
SEQEND
  5
3FC
  8
SCREW_LOCATION_RECESS
  0
POLYLINE
  5
99
  8
THREE_QUARTER_INCH_THRUCUT
 66
     1
 10
0.0
 20
0.0
 30
0.0
 70
     1
  0
VERTEX
  5
24A
  8
THREE_QUARTER_INCH_THRUCUT
 10
80.76980774141842
 20
3.292557609968098
 30
0.0
 42
0.4142135623730951
  0
VERTEX
  5
24B
  8
THREE_QUARTER_INCH_THRUCUT
 10
80.89980774141841
 20
3.422557609968093
 30
0.0
 42
0.4142135623730951
  0
VERTEX
  5
24C
  8
THREE_QUARTER_INCH_THRUCUT
 10
80.76980774141842
 20
3.552557609968089
 30
0.0
 42
0.4142135623730951
  0
VERTEX
  5
24D
  8
THREE_QUARTER_INCH_THRUCUT
 10
80.63980774141842
 20
3.422557609968093
 30
0.0
 42
0.4142135623730951
  0
SEQEND
  5
3FD
  8
THREE_QUARTER_INCH_THRUCUT
  0
POLYLINE
  5
9A
  8
THREE_QUARTER_INCH_THRUCUT
 66
     1
 10
0.0
 20
0.0
 30
0.0
 70
     1
  0
VERTEX
  5
24E
  8
THREE_QUARTER_INCH_THRUCUT
 10
78.14480774141842
 20
3.292557609968098
 30
0.0
 42
0.4142135623730951
  0
VERTEX
  5
24F
  8
THREE_QUARTER_INCH_THRUCUT
 10
78.27480774141841
 20
3.422557609968093
 30
0.0
 42
0.4142135623730951
  0
VERTEX
  5
250
  8
THREE_QUARTER_INCH_THRUCUT
 10
78.14480774141842
 20
3.552557609968089
 30
0.0
 42
0.4142135623730951
  0
VERTEX
  5
251
  8
THREE_QUARTER_INCH_THRUCUT
 10
78.01480774141842
 20
3.422557609968093
 30
0.0
 42
0.4142135623730951
  0
SEQEND
  5
3FE
  8
THREE_QUARTER_INCH_THRUCUT
  0
POLYLINE
  5
9B
  8
THREE_QUARTER_INCH_THRUCUT
 66
     1
 10
0.0
 20
0.0
 30
0.0
 70
     1
  0
VERTEX
  5
252
  8
THREE_QUARTER_INCH_THRUCUT
 10
75.51980774141842
 20
3.292557609968098
 30
0.0
 42
0.4142135623730951
  0
VERTEX
  5
253
  8
THREE_QUARTER_INCH_THRUCUT
 10
75.64980774141841
 20
3.422557609968093
 30
0.0
 42
0.4142135623730951
  0
VERTEX
  5
254
  8
THREE_QUARTER_INCH_THRUCUT
 10
75.51980774141842
 20
3.552557609968089
 30
0.0
 42
0.4142135623730951
  0
VERTEX
  5
255
  8
THREE_QUARTER_INCH_THRUCUT
 10
75.38980774141842
 20
3.422557609968093
 30
0.0
 42
0.4142135623730951
  0
SEQEND
  5
3FF
  8
THREE_QUARTER_INCH_THRUCUT
  0
POLYLINE
  5
9C
  8
THREE_QUARTER_INCH_THRUCUT
 66
     1
 10
0.0
 20
0.0
 30
0.0
 70
     1
  0
VERTEX
  5
256
  8
THREE_QUARTER_INCH_THRUCUT
 10
80.76980774141842
 20
7.793279128525861
 30
0.0
 42
0.4142135623730951
  0
VERTEX
  5
257
  8
THREE_QUARTER_INCH_THRUCUT
 10
80.89980774141841
 20
7.923279128525857
 30
0.0
 42
0.4142135623730951
  0
VERTEX
  5
258
  8
THREE_QUARTER_INCH_THRUCUT
 10
80.76980774141842
 20
8.053279128525851
 30
0.0
 42
0.4142135623730951
  0
VERTEX
  5
259
  8
THREE_QUARTER_INCH_THRUCUT
 10
80.63980774141842
 20
7.923279128525857
 30
0.0
 42
0.4142135623730951
  0
SEQEND
  5
400
  8
THREE_QUARTER_INCH_THRUCUT
  0
POLYLINE
  5
9D
  8
THREE_QUARTER_INCH_THRUCUT
 66
     1
 10
0.0
 20
0.0
 30
0.0
 70
     1
  0
VERTEX
  5
25A
  8
THREE_QUARTER_INCH_THRUCUT
 10
78.14480774141842
 20
7.793279128525861
 30
0.0
 42
0.4142135623730951
  0
VERTEX
  5
25B
  8
THREE_QUARTER_INCH_THRUCUT
 10
78.27480774141841
 20
7.923279128525857
 30
0.0
 42
0.4142135623730951
  0
VERTEX
  5
25C
  8
THREE_QUARTER_INCH_THRUCUT
 10
78.14480774141842
 20
8.053279128525851
 30
0.0
 42
0.4142135623730951
  0
VERTEX
  5
25D
  8
THREE_QUARTER_INCH_THRUCUT
 10
78.01480774141842
 20
7.923279128525857
 30
0.0
 42
0.4142135623730951
  0
SEQEND
  5
401
  8
THREE_QUARTER_INCH_THRUCUT
  0
POLYLINE
  5
9E
  8
THREE_QUARTER_INCH_THRUCUT
 66
     1
 10
0.0
 20
0.0
 30
0.0
 70
     1
  0
VERTEX
  5
25E
  8
THREE_QUARTER_INCH_THRUCUT
 10
75.51980774141842
 20
7.793279128525861
 30
0.0
 42
0.4142135623730951
  0
VERTEX
  5
25F
  8
THREE_QUARTER_INCH_THRUCUT
 10
75.64980774141841
 20
7.923279128525857
 30
0.0
 42
0.4142135623730951
  0
VERTEX
  5
260
  8
THREE_QUARTER_INCH_THRUCUT
 10
75.51980774141842
 20
8.053279128525851
 30
0.0
 42
0.4142135623730951
  0
VERTEX
  5
261
  8
THREE_QUARTER_INCH_THRUCUT
 10
75.38980774141842
 20
7.923279128525857
 30
0.0
 42
0.4142135623730951
  0
SEQEND
  5
402
  8
THREE_QUARTER_INCH_THRUCUT
  0
POLYLINE
  5
9F
  8
THREE_QUARTER_INCH_THRUCUT
 66
     1
 10
0.0
 20
0.0
 30
0.0
 70
     1
  0
VERTEX
  5
262
  8
THREE_QUARTER_INCH_THRUCUT
 10
5.864786765781587
 20
6.423276128525965
 30
0.0
  0
VERTEX
  5
263
  8
THREE_QUARTER_INCH_THRUCUT
 10
26.26478676577841
 20
6.423276128525439
 30
0.0
 42
0.4142135623729316
  0
VERTEX
  5
264
  8
THREE_QUARTER_INCH_THRUCUT
 10
26.39478676577846
 20
6.55327612852532
 30
0.0
  0
VERTEX
  5
265
  8
THREE_QUARTER_INCH_THRUCUT
 10
26.39478676577852
 20
6.654018774682109
 30
0.0
 42
-1.0
  0
VERTEX
  5
266
  8
THREE_QUARTER_INCH_THRUCUT
 10
26.66404411962259
 20
6.92327612852595
 30
0.0
  0
VERTEX
  5
267
  8
THREE_QUARTER_INCH_THRUCUT
 10
26.87552941193417
 20
6.923276128525979
 30
0.0
 42
-1.0
  0
VERTEX
  5
268
  8
THREE_QUARTER_INCH_THRUCUT
 10
27.14478676577937
 20
6.654018774683275
 30
0.0
  0
VERTEX
  5
269
  8
THREE_QUARTER_INCH_THRUCUT
 10
27.14478676578034
 20
6.55327612852478
 30
0.0
 42
0.4142135623703808
  0
VERTEX
  5
26A
  8
THREE_QUARTER_INCH_THRUCUT
 10
27.27478676578033
 20
6.423276128525979
 30
0.0
  0
VERTEX
  5
26B
  8
THREE_QUARTER_INCH_THRUCUT
 10
48.26478676577845
 20
6.423276128525353
 30
0.0
 42
0.4142135623729316
  0
VERTEX
  5
26C
  8
THREE_QUARTER_INCH_THRUCUT
 10
48.39478676577845
 20
6.553276128525235
 30
0.0
  0
VERTEX
  5
26D
  8
THREE_QUARTER_INCH_THRUCUT
 10
48.39478676577853
 20
6.654018774682024
 30
0.0
 42
-1.0
  0
VERTEX
  5
26E
  8
THREE_QUARTER_INCH_THRUCUT
 10
48.66404411962257
 20
6.923276128525865
 30
0.0
  0
VERTEX
  5
26F
  8
THREE_QUARTER_INCH_THRUCUT
 10
48.87552941193421
 20
6.923276128525893
 30
0.0
 42
-1.0
  0
VERTEX
  5
270
  8
THREE_QUARTER_INCH_THRUCUT
 10
49.1447867657794
 20
6.654018774683189
 30
0.0
  0
VERTEX
  5
271
  8
THREE_QUARTER_INCH_THRUCUT
 10
49.14478676578034
 20
6.553276128524695
 30
0.0
 42
0.4142135623703808
  0
VERTEX
  5
272
  8
THREE_QUARTER_INCH_THRUCUT
 10
49.27478676578033
 20
6.423276128525893
 30
0.0
  0
VERTEX
  5
273
  8
THREE_QUARTER_INCH_THRUCUT
 10
70.26478676577844
 20
6.423276128525353
 30
0.0
 42
0.4142135623729316
  0
VERTEX
  5
274
  8
THREE_QUARTER_INCH_THRUCUT
 10
70.39478676577843
 20
6.553276128525235
 30
0.0
  0
VERTEX
  5
275
  8
THREE_QUARTER_INCH_THRUCUT
 10
70.39478676577849
 20
6.654018774682024
 30
0.0
 42
-1.0
  0
VERTEX
  5
276
  8
THREE_QUARTER_INCH_THRUCUT
 10
70.66404411962256
 20
6.923276128525865
 30
0.0
  0
VERTEX
  5
277
  8
THREE_QUARTER_INCH_THRUCUT
 10
70.8755294119342
 20
6.923276128525893
 30
0.0
 42
-1.0
  0
VERTEX
  5
278
  8
THREE_QUARTER_INCH_THRUCUT
 10
71.14478676577937
 20
6.654018774683189
 30
0.0
  0
VERTEX
  5
279
  8
THREE_QUARTER_INCH_THRUCUT
 10
71.14478676578031
 20
6.553276128524695
 30
0.0
 42
0.4142135623703808
  0
VERTEX
  5
27A
  8
THREE_QUARTER_INCH_THRUCUT
 10
71.2747867657803
 20
6.423276128525893
 30
0.0
  0
VERTEX
  5
27B
  8
THREE_QUARTER_INCH_THRUCUT
 10
81.7697867657856
 20
6.423276128525609
 30
0.0
  0
VERTEX
  5
27C
  8
THREE_QUARTER_INCH_THRUCUT
 10
81.76977412501105
 20
6.507221205407953
 30
0.0
  0
VERTEX
  5
27D
  8
THREE_QUARTER_INCH_THRUCUT
 10
81.76950684406262
 20
6.519584572836605
 30
0.0
  0
VERTEX
  5
27E
  8
THREE_QUARTER_INCH_THRUCUT
 10
81.76863231809907
 20
6.531865998304156
 30
0.0
  0
VERTEX
  5
27F
  8
THREE_QUARTER_INCH_THRUCUT
 10
81.76715894000219
 20
6.544045030936749
 30
0.0
  0
VERTEX
  5
280
  8
THREE_QUARTER_INCH_THRUCUT
 10
81.76509510265387
 20
6.556101219860523
 30
0.0
  0
VERTEX
  5
281
  8
THREE_QUARTER_INCH_THRUCUT
 10
81.76244919893594
 20
6.568014114201618
 30
0.0
  0
VERTEX
  5
282
  8
THREE_QUARTER_INCH_THRUCUT
 10
81.75922962173023
 20
6.579763263086173
 30
0.0
  0
VERTEX
  5
283
  8
THREE_QUARTER_INCH_THRUCUT
 10
81.75544476391858
 20
6.591328215640331
 30
0.0
  0
VERTEX
  5
284
  8
THREE_QUARTER_INCH_THRUCUT
 10
81.75110301838284
 20
6.602688520990233
 30
0.0
  0
VERTEX
  5
285
  8
THREE_QUARTER_INCH_THRUCUT
 10
81.74621277800483
 20
6.613823728262016
 30
0.0
  0
VERTEX
  5
286
  8
THREE_QUARTER_INCH_THRUCUT
 10
81.74078243566643
 20
6.624713386581822
 30
0.0
  0
VERTEX
  5
287
  8
THREE_QUARTER_INCH_THRUCUT
 10
81.73482038424947
 20
6.635337045075792
 30
0.0
  0
VERTEX
  5
288
  8
THREE_QUARTER_INCH_THRUCUT
 10
81.72833501663578
 20
6.645674252870064
 30
0.0
  0
VERTEX
  5
289
  8
THREE_QUARTER_INCH_THRUCUT
 10
81.7213347257072
 20
6.655704559090781
 30
0.0
  0
VERTEX
  5
28A
  8
THREE_QUARTER_INCH_THRUCUT
 10
81.71382790434558
 20
6.665407512864081
 30
0.0
  0
VERTEX
  5
28B
  8
THREE_QUARTER_INCH_THRUCUT
 10
81.70582294543274
 20
6.674762663316106
 30
0.0
  0
VERTEX
  5
28C
  8
THREE_QUARTER_INCH_THRUCUT
 10
81.69732824185056
 20
6.683749559572997
 30
0.0
  0
VERTEX
  5
28D
  8
THREE_QUARTER_INCH_THRUCUT
 10
81.37916733618286
 20
7.001488245014608
 30
0.0
  0
VERTEX
  5
28E
  8
THREE_QUARTER_INCH_THRUCUT
 10
81.36585960780783
 20
7.015470390922654
 30
0.0
  0
VERTEX
  5
28F
  8
THREE_QUARTER_INCH_THRUCUT
 10
81.3534096402028
 20
7.029952829523335
 30
0.0
  0
VERTEX
  5
290
  8
THREE_QUARTER_INCH_THRUCUT
 10
81.34181745243156
 20
7.044902240698703
 30
0.0
  0
VERTEX
  5
291
  8
THREE_QUARTER_INCH_THRUCUT
 10
81.33108306355788
 20
7.060285304330812
 30
0.0
  0
VERTEX
  5
292
  8
THREE_QUARTER_INCH_THRUCUT
 10
81.32120649264559
 20
7.076068700301716
 30
0.0
  0
VERTEX
  5
293
  8
THREE_QUARTER_INCH_THRUCUT
 10
81.31218775875848
 20
7.092219108493465
 30
0.0
  0
VERTEX
  5
294
  8
THREE_QUARTER_INCH_THRUCUT
 10
81.30402688096032
 20
7.108703208788114
 30
0.0
  0
VERTEX
  5
295
  8
THREE_QUARTER_INCH_THRUCUT
 10
81.29672387831494
 20
7.125487681067714
 30
0.0
  0
VERTEX
  5
296
  8
THREE_QUARTER_INCH_THRUCUT
 10
81.2902787698861
 20
7.14253920521432
 30
0.0
  0
VERTEX
  5
297
  8
THREE_QUARTER_INCH_THRUCUT
 10
81.28469157473761
 20
7.159824461109983
 30
0.0
  0
VERTEX
  5
298
  8
THREE_QUARTER_INCH_THRUCUT
 10
81.27996231193328
 20
7.177310128636756
 30
0.0
  0
VERTEX
  5
299
  8
THREE_QUARTER_INCH_THRUCUT
 10
81.27609100053688
 20
7.194962887676693
 30
0.0
  0
VERTEX
  5
29A
  8
THREE_QUARTER_INCH_THRUCUT
 10
81.27307765961221
 20
7.212749418111846
 30
0.0
  0
VERTEX
  5
29B
  8
THREE_QUARTER_INCH_THRUCUT
 10
81.27092230822308
 20
7.230636399824268
 30
0.0
  0
VERTEX
  5
29C
  8
THREE_QUARTER_INCH_THRUCUT
 10
81.26962496543325
 20
7.248590512696013
 30
0.0
  0
VERTEX
  5
29D
  8
THREE_QUARTER_INCH_THRUCUT
 10
81.26918565030655
 20
7.266578436609132
 30
0.0
  0
VERTEX
  5
29E
  8
THREE_QUARTER_INCH_THRUCUT
 10
81.26960438190676
 20
7.284566851445678
 30
0.0
  0
VERTEX
  5
29F
  8
THREE_QUARTER_INCH_THRUCUT
 10
81.27088117929769
 20
7.302522437087705
 30
0.0
  0
VERTEX
  5
2A0
  8
THREE_QUARTER_INCH_THRUCUT
 10
81.2730160615431
 20
7.320411873417266
 30
0.0
  0
VERTEX
  5
2A1
  8
THREE_QUARTER_INCH_THRUCUT
 10
81.27600904770682
 20
7.338201840316412
 30
0.0
  0
VERTEX
  5
2A2
  8
THREE_QUARTER_INCH_THRUCUT
 10
81.27986015685262
 20
7.355859017667196
 30
0.0
  0
VERTEX
  5
2A3
  8
THREE_QUARTER_INCH_THRUCUT
 10
81.28456940804432
 20
7.373350085351674
 30
0.0
  0
VERTEX
  5
2A4
  8
THREE_QUARTER_INCH_THRUCUT
 10
81.2901368203457
 20
7.390641723251896
 30
0.0
  0
VERTEX
  5
2A5
  8
THREE_QUARTER_INCH_THRUCUT
 10
81.29656241282053
 20
7.407700611249915
 30
0.0
  0
VERTEX
  5
2A6
  8
THREE_QUARTER_INCH_THRUCUT
 10
81.30384620453265
 20
7.424493429227784
 30
0.0
  0
VERTEX
  5
2A7
  8
THREE_QUARTER_INCH_THRUCUT
 10
81.31198821454582
 20
7.440986857067557
 30
0.0
  0
VERTEX
  5
2A8
  8
THREE_QUARTER_INCH_THRUCUT
 10
81.32098846192383
 20
7.457147574651286
 30
0.0
  0
VERTEX
  5
2A9
  8
THREE_QUARTER_INCH_THRUCUT
 10
81.33084696573053
 20
7.472942261861022
 30
0.0
  0
VERTEX
  5
2AA
  8
THREE_QUARTER_INCH_THRUCUT
 10
81.34156374502965
 20
7.488337598578821
 30
0.0
  0
VERTEX
  5
2AB
  8
THREE_QUARTER_INCH_THRUCUT
 10
81.35313881888501
 20
7.503300264686734
 30
0.0
  0
VERTEX
  5
2AC
  8
THREE_QUARTER_INCH_THRUCUT
 10
81.36557220636041
 20
7.517796940066814
 30
0.0
  0
VERTEX
  5
2AD
  8
THREE_QUARTER_INCH_THRUCUT
 10
81.37886392651964
 20
7.531794304601115
 30
0.0
  0
VERTEX
  5
2AE
  8
THREE_QUARTER_INCH_THRUCUT
 10
81.76979698813912
 20
7.923134892621712
 30
0.0
  0
VERTEX
  5
2AF
  8
THREE_QUARTER_INCH_THRUCUT
 10
82.16073004975854
 20
8.314475480642308
 30
0.0
  0
VERTEX
  5
2B0
  8
THREE_QUARTER_INCH_THRUCUT
 10
82.17402176991777
 20
8.328472845176604
 30
0.0
  0
VERTEX
  5
2B1
  8
THREE_QUARTER_INCH_THRUCUT
 10
82.18645515739317
 20
8.34296952055668
 30
0.0
  0
VERTEX
  5
2B2
  8
THREE_QUARTER_INCH_THRUCUT
 10
82.19803023124854
 20
8.35793218666459
 30
0.0
  0
VERTEX
  5
2B3
  8
THREE_QUARTER_INCH_THRUCUT
 10
82.20874701054765
 20
8.373327523382384
 30
0.0
  0
VERTEX
  5
2B4
  8
THREE_QUARTER_INCH_THRUCUT
 10
82.21860551435435
 20
8.389122210592118
 30
0.0
  0
VERTEX
  5
2B5
  8
THREE_QUARTER_INCH_THRUCUT
 10
82.22760576173236
 20
8.405282928175843
 30
0.0
  0
VERTEX
  5
2B6
  8
THREE_QUARTER_INCH_THRUCUT
 10
82.23574777174554
 20
8.421776356015613
 30
0.0
  0
VERTEX
  5
2B7
  8
THREE_QUARTER_INCH_THRUCUT
 10
82.24303156345765
 20
8.438569173993482
 30
0.0
  0
VERTEX
  5
2B8
  8
THREE_QUARTER_INCH_THRUCUT
 10
82.24945715593249
 20
8.4556280619915
 30
0.0
  0
VERTEX
  5
2B9
  8
THREE_QUARTER_INCH_THRUCUT
 10
82.25502456823386
 20
8.472919699891719
 30
0.0
  0
VERTEX
  5
2BA
  8
THREE_QUARTER_INCH_THRUCUT
 10
82.25973381942556
 20
8.490410767576194
 30
0.0
  0
VERTEX
  5
2BB
  8
THREE_QUARTER_INCH_THRUCUT
 10
82.26358492857136
 20
8.508067944926978
 30
0.0
  0
VERTEX
  5
2BC
  8
THREE_QUARTER_INCH_THRUCUT
 10
82.26657791473508
 20
8.525857911826122
 30
0.0
  0
VERTEX
  5
2BD
  8
THREE_QUARTER_INCH_THRUCUT
 10
82.2687127969805
 20
8.543747348155684
 30
0.0
  0
VERTEX
  5
2BE
  8
THREE_QUARTER_INCH_THRUCUT
 10
82.26998959437142
 20
8.561702933797712
 30
0.0
  0
VERTEX
  5
2BF
  8
THREE_QUARTER_INCH_THRUCUT
 10
82.27040832597163
 20
8.57969134863426
 30
0.0
  0
VERTEX
  5
2C0
  8
THREE_QUARTER_INCH_THRUCUT
 10
82.26996901084493
 20
8.597679272547381
 30
0.0
  0
VERTEX
  5
2C1
  8
THREE_QUARTER_INCH_THRUCUT
 10
82.2686716680551
 20
8.615633385419127
 30
0.0
  0
VERTEX
  5
2C2
  8
THREE_QUARTER_INCH_THRUCUT
 10
82.26651631666597
 20
8.633520367131549
 30
0.0
  0
VERTEX
  5
2C3
  8
THREE_QUARTER_INCH_THRUCUT
 10
82.2635029757413
 20
8.651306897566705
 30
0.0
  0
VERTEX
  5
2C4
  8
THREE_QUARTER_INCH_THRUCUT
 10
82.25963166434491
 20
8.668959656606644
 30
0.0
  0
VERTEX
  5
2C5
  8
THREE_QUARTER_INCH_THRUCUT
 10
82.25490240154058
 20
8.68644532413342
 30
0.0
  0
VERTEX
  5
2C6
  8
THREE_QUARTER_INCH_THRUCUT
 10
82.24931520639208
 20
8.703730580029085
 30
0.0
  0
VERTEX
  5
2C7
  8
THREE_QUARTER_INCH_THRUCUT
 10
82.24287009796325
 20
8.72078210417569
 30
0.0
  0
VERTEX
  5
2C8
  8
THREE_QUARTER_INCH_THRUCUT
 10
82.23556709531786
 20
8.737566576455293
 30
0.0
  0
VERTEX
  5
2C9
  8
THREE_QUARTER_INCH_THRUCUT
 10
82.2274062175197
 20
8.754050676749944
 30
0.0
  0
VERTEX
  5
2CA
  8
THREE_QUARTER_INCH_THRUCUT
 10
82.2183874836326
 20
8.770201084941696
 30
0.0
  0
VERTEX
  5
2CB
  8
THREE_QUARTER_INCH_THRUCUT
 10
82.2085109127203
 20
8.785984480912603
 30
0.0
  0
VERTEX
  5
2CC
  8
THREE_QUARTER_INCH_THRUCUT
 10
82.19777652384663
 20
8.801367544544714
 30
0.0
  0
VERTEX
  5
2CD
  8
THREE_QUARTER_INCH_THRUCUT
 10
82.18618433607539
 20
8.816316955720087
 30
0.0
  0
VERTEX
  5
2CE
  8
THREE_QUARTER_INCH_THRUCUT
 10
82.17373436847035
 20
8.83079939432077
 30
0.0
  0
VERTEX
  5
2CF
  8
THREE_QUARTER_INCH_THRUCUT
 10
82.16042664009532
 20
8.844781540228817
 30
0.0
  0
VERTEX
  5
2D0
  8
THREE_QUARTER_INCH_THRUCUT
 10
81.84226573442763
 20
9.1625202256704
 30
0.0
  0
VERTEX
  5
2D1
  8
THREE_QUARTER_INCH_THRUCUT
 10
81.83377103084544
 20
9.17150712192728
 30
0.0
  0
VERTEX
  5
2D2
  8
THREE_QUARTER_INCH_THRUCUT
 10
81.8257660719326
 20
9.1808622723793
 30
0.0
  0
VERTEX
  5
2D3
  8
THREE_QUARTER_INCH_THRUCUT
 10
81.81825925057099
 20
9.190565226152597
 30
0.0
  0
VERTEX
  5
2D4
  8
THREE_QUARTER_INCH_THRUCUT
 10
81.8112589596424
 20
9.200595532373313
 30
0.0
  0
VERTEX
  5
2D5
  8
THREE_QUARTER_INCH_THRUCUT
 10
81.80477359202871
 20
9.210932740167586
 30
0.0
  0
VERTEX
  5
2D6
  8
THREE_QUARTER_INCH_THRUCUT
 10
81.79881154061175
 20
9.221556398661559
 30
0.0
  0
VERTEX
  5
2D7
  8
THREE_QUARTER_INCH_THRUCUT
 10
81.79338119827335
 20
9.232446056981368
 30
0.0
  0
VERTEX
  5
2D8
  8
THREE_QUARTER_INCH_THRUCUT
 10
81.78849095789535
 20
9.243581264253157
 30
0.0
  0
VERTEX
  5
2D9
  8
THREE_QUARTER_INCH_THRUCUT
 10
81.78414921235961
 20
9.254941569603064
 30
0.0
  0
VERTEX
  5
2DA
  8
THREE_QUARTER_INCH_THRUCUT
 10
81.78036435454796
 20
9.266506522157227
 30
0.0
  0
VERTEX
  5
2DB
  8
THREE_QUARTER_INCH_THRUCUT
 10
81.77714477734224
 20
9.278255671041787
 30
0.0
  0
VERTEX
  5
2DC
  8
THREE_QUARTER_INCH_THRUCUT
 10
81.77449887362431
 20
9.290168565382888
 30
0.0
  0
VERTEX
  5
2DD
  8
THREE_QUARTER_INCH_THRUCUT
 10
81.772435036276
 20
9.302224754306668
 30
0.0
  0
VERTEX
  5
2DE
  8
THREE_QUARTER_INCH_THRUCUT
 10
81.77096165817912
 20
9.314403786939264
 30
0.0
  0
VERTEX
  5
2DF
  8
THREE_QUARTER_INCH_THRUCUT
 10
81.77008713221556
 20
9.326685212406819
 30
0.0
  0
VERTEX
  5
2E0
  8
THREE_QUARTER_INCH_THRUCUT
 10
81.76981985126713
 20
9.339048579835472
 30
0.0
  0
VERTEX
  5
2E1
  8
THREE_QUARTER_INCH_THRUCUT
 10
81.76980721049881
 20
9.423276128525666
 30
0.0
  0
VERTEX
  5
2E2
  8
THREE_QUARTER_INCH_THRUCUT
 10
71.2747867657803
 20
9.423276128525808
 30
0.0
 42
0.4142135623704057
  0
VERTEX
  5
2E3
  8
THREE_QUARTER_INCH_THRUCUT
 10
71.14478676578031
 20
9.293276128527006
 30
0.0
  0
VERTEX
  5
2E4
  8
THREE_QUARTER_INCH_THRUCUT
 10
71.14478676577937
 20
9.19253348236854
 30
0.0
 42
-1.0
  0
VERTEX
  5
2E5
  8
THREE_QUARTER_INCH_THRUCUT
 10
70.87552941193417
 20
8.923276128525865
 30
0.0
  0
VERTEX
  5
2E6
  8
THREE_QUARTER_INCH_THRUCUT
 10
70.66404411962256
 20
8.923276128525865
 30
0.0
 42
-1.0
  0
VERTEX
  5
2E7
  8
THREE_QUARTER_INCH_THRUCUT
 10
70.39478676577852
 20
9.192533482369678
 30
0.0
  0
VERTEX
  5
2E8
  8
THREE_QUARTER_INCH_THRUCUT
 10
70.39478676577843
 20
9.29327612852567
 30
0.0
 42
0.4142135623727946
  0
VERTEX
  5
2E9
  8
THREE_QUARTER_INCH_THRUCUT
 10
70.26478676577844
 20
9.423276128525552
 30
0.0
  0
VERTEX
  5
2EA
  8
THREE_QUARTER_INCH_THRUCUT
 10
49.27478676578033
 20
9.423276128525808
 30
0.0
 42
0.4142135623704057
  0
VERTEX
  5
2EB
  8
THREE_QUARTER_INCH_THRUCUT
 10
49.14478676578034
 20
9.293276128527006
 30
0.0
  0
VERTEX
  5
2EC
  8
THREE_QUARTER_INCH_THRUCUT
 10
49.1447867657794
 20
9.19253348236854
 30
0.0
 42
-1.0
  0
VERTEX
  5
2ED
  8
THREE_QUARTER_INCH_THRUCUT
 10
48.8755294119342
 20
8.923276128525865
 30
0.0
  0
VERTEX
  5
2EE
  8
THREE_QUARTER_INCH_THRUCUT
 10
48.6640441196226
 20
8.923276128525865
 30
0.0
 42
-1.0
  0
VERTEX
  5
2EF
  8
THREE_QUARTER_INCH_THRUCUT
 10
48.39478676577855
 20
9.192533482369678
 30
0.0
  0
VERTEX
  5
2F0
  8
THREE_QUARTER_INCH_THRUCUT
 10
48.39478676577845
 20
9.29327612852567
 30
0.0
 42
0.4142135623727946
  0
VERTEX
  5
2F1
  8
THREE_QUARTER_INCH_THRUCUT
 10
48.26478676577845
 20
9.423276128525552
 30
0.0
  0
VERTEX
  5
2F2
  8
THREE_QUARTER_INCH_THRUCUT
 10
27.27478676578033
 20
9.423276128525893
 30
0.0
 42
0.4142135623704057
  0
VERTEX
  5
2F3
  8
THREE_QUARTER_INCH_THRUCUT
 10
27.14478676578034
 20
9.293276128527092
 30
0.0
  0
VERTEX
  5
2F4
  8
THREE_QUARTER_INCH_THRUCUT
 10
27.14478676577937
 20
9.192533482368626
 30
0.0
 42
-1.0
  0
VERTEX
  5
2F5
  8
THREE_QUARTER_INCH_THRUCUT
 10
26.87552941193417
 20
8.92327612852595
 30
0.0
  0
VERTEX
  5
2F6
  8
THREE_QUARTER_INCH_THRUCUT
 10
26.66404411962259
 20
8.92327612852595
 30
0.0
 42
-1.0
  0
VERTEX
  5
2F7
  8
THREE_QUARTER_INCH_THRUCUT
 10
26.39478676577852
 20
9.192533482369763
 30
0.0
  0
VERTEX
  5
2F8
  8
THREE_QUARTER_INCH_THRUCUT
 10
26.39478676577846
 20
9.293276128525756
 30
0.0
 42
0.4142135623727946
  0
VERTEX
  5
2F9
  8
THREE_QUARTER_INCH_THRUCUT
 10
26.26478676577847
 20
9.423276128525638
 30
0.0
  0
VERTEX
  5
2FA
  8
THREE_QUARTER_INCH_THRUCUT
 10
5.864786765781584
 20
9.423276128525892
 30
0.0
  0
VERTEX
  5
2FB
  8
THREE_QUARTER_INCH_THRUCUT
 10
5.864786765779367
 20
9.192533482368626
 30
0.0
 42
-1.0
  0
VERTEX
  5
2FC
  8
THREE_QUARTER_INCH_THRUCUT
 10
5.595529411934161
 20
8.92327612852595
 30
0.0
  0
VERTEX
  5
2FD
  8
THREE_QUARTER_INCH_THRUCUT
 10
5.114786765778667
 20
8.923276128525949
 30
0.0
  0
VERTEX
  5
2FE
  8
THREE_QUARTER_INCH_THRUCUT
 10
5.114786765778665
 20
6.923276128525917
 30
0.0
  0
VERTEX
  5
2FF
  8
THREE_QUARTER_INCH_THRUCUT
 10
5.595529411934161
 20
6.923276128525979
 30
0.0
 42
-1.0
  0
VERTEX
  5
300
  8
THREE_QUARTER_INCH_THRUCUT
 10
5.864786765779367
 20
6.654018774683275
 30
0.0
  0
SEQEND
  5
403
  8
THREE_QUARTER_INCH_THRUCUT
  0
POLYLINE
  5
A0
  8
THREE_QUARTER_INCH_THRUCUT
 66
     1
 10
0.0
 20
0.0
 30
0.0
 70
     1
  0
VERTEX
  5
301
  8
THREE_QUARTER_INCH_THRUCUT
 10
5.864786765781579
 20
1.922554609968219
 30
0.0
  0
VERTEX
  5
302
  8
THREE_QUARTER_INCH_THRUCUT
 10
5.864786765779367
 20
2.153297256125512
 30
0.0
 42
1.0
  0
VERTEX
  5
303
  8
THREE_QUARTER_INCH_THRUCUT
 10
5.595529411934161
 20
2.422554609968215
 30
0.0
  0
VERTEX
  5
304
  8
THREE_QUARTER_INCH_THRUCUT
 10
5.114786765778665
 20
2.422554609968152
 30
0.0
  0
VERTEX
  5
305
  8
THREE_QUARTER_INCH_THRUCUT
 10
5.114786765778665
 20
4.422554609968184
 30
0.0
  0
VERTEX
  5
306
  8
THREE_QUARTER_INCH_THRUCUT
 10
5.595529411934161
 20
4.422554609968186
 30
0.0
 42
1.0
  0
VERTEX
  5
307
  8
THREE_QUARTER_INCH_THRUCUT
 10
5.864786765779367
 20
4.691811963810862
 30
0.0
  0
VERTEX
  5
308
  8
THREE_QUARTER_INCH_THRUCUT
 10
5.864786765781587
 20
4.922554609968127
 30
0.0
  0
VERTEX
  5
309
  8
THREE_QUARTER_INCH_THRUCUT
 10
26.26478676577847
 20
4.922554609967873
 30
0.0
 42
-0.4142135623727946
  0
VERTEX
  5
30A
  8
THREE_QUARTER_INCH_THRUCUT
 10
26.39478676577846
 20
4.792554609967992
 30
0.0
  0
VERTEX
  5
30B
  8
THREE_QUARTER_INCH_THRUCUT
 10
26.39478676577852
 20
4.691811963811999
 30
0.0
 42
1.0
  0
VERTEX
  5
30C
  8
THREE_QUARTER_INCH_THRUCUT
 10
26.66404411962259
 20
4.422554609968186
 30
0.0
  0
VERTEX
  5
30D
  8
THREE_QUARTER_INCH_THRUCUT
 10
26.87552941193417
 20
4.422554609968186
 30
0.0
 42
1.0
  0
VERTEX
  5
30E
  8
THREE_QUARTER_INCH_THRUCUT
 10
27.14478676577937
 20
4.691811963810862
 30
0.0
  0
VERTEX
  5
30F
  8
THREE_QUARTER_INCH_THRUCUT
 10
27.14478676578034
 20
4.792554609969327
 30
0.0
 42
-0.4142135623704057
  0
VERTEX
  5
310
  8
THREE_QUARTER_INCH_THRUCUT
 10
27.27478676578033
 20
4.922554609968129
 30
0.0
  0
VERTEX
  5
311
  8
THREE_QUARTER_INCH_THRUCUT
 10
48.26478676577845
 20
4.922554609967788
 30
0.0
 42
-0.4142135623727946
  0
VERTEX
  5
312
  8
THREE_QUARTER_INCH_THRUCUT
 10
48.39478676577845
 20
4.792554609967906
 30
0.0
  0
VERTEX
  5
313
  8
THREE_QUARTER_INCH_THRUCUT
 10
48.39478676577855
 20
4.691811963811913
 30
0.0
 42
1.0
  0
VERTEX
  5
314
  8
THREE_QUARTER_INCH_THRUCUT
 10
48.6640441196226
 20
4.422554609968101
 30
0.0
  0
VERTEX
  5
315
  8
THREE_QUARTER_INCH_THRUCUT
 10
48.8755294119342
 20
4.422554609968101
 30
0.0
 42
1.0
  0
VERTEX
  5
316
  8
THREE_QUARTER_INCH_THRUCUT
 10
49.1447867657794
 20
4.691811963810776
 30
0.0
  0
VERTEX
  5
317
  8
THREE_QUARTER_INCH_THRUCUT
 10
49.14478676578034
 20
4.792554609969242
 30
0.0
 42
-0.4142135623704057
  0
VERTEX
  5
318
  8
THREE_QUARTER_INCH_THRUCUT
 10
49.27478676578033
 20
4.922554609968044
 30
0.0
  0
VERTEX
  5
319
  8
THREE_QUARTER_INCH_THRUCUT
 10
70.26478676577844
 20
4.922554609967788
 30
0.0
 42
-0.4142135623727946
  0
VERTEX
  5
31A
  8
THREE_QUARTER_INCH_THRUCUT
 10
70.39478676577843
 20
4.792554609967906
 30
0.0
  0
VERTEX
  5
31B
  8
THREE_QUARTER_INCH_THRUCUT
 10
70.39478676577852
 20
4.691811963811913
 30
0.0
 42
1.0
  0
VERTEX
  5
31C
  8
THREE_QUARTER_INCH_THRUCUT
 10
70.66404411962256
 20
4.422554609968101
 30
0.0
  0
VERTEX
  5
31D
  8
THREE_QUARTER_INCH_THRUCUT
 10
70.87552941193417
 20
4.422554609968101
 30
0.0
 42
1.0
  0
VERTEX
  5
31E
  8
THREE_QUARTER_INCH_THRUCUT
 10
71.14478676577937
 20
4.691811963810776
 30
0.0
  0
VERTEX
  5
31F
  8
THREE_QUARTER_INCH_THRUCUT
 10
71.14478676578031
 20
4.792554609969242
 30
0.0
 42
-0.4142135623704057
  0
VERTEX
  5
320
  8
THREE_QUARTER_INCH_THRUCUT
 10
71.2747867657803
 20
4.922554609968044
 30
0.0
  0
VERTEX
  5
321
  8
THREE_QUARTER_INCH_THRUCUT
 10
81.76980721049881
 20
4.922554609967845
 30
0.0
  0
VERTEX
  5
322
  8
THREE_QUARTER_INCH_THRUCUT
 10
81.76981985126713
 20
4.838327061277708
 30
0.0
  0
VERTEX
  5
323
  8
THREE_QUARTER_INCH_THRUCUT
 10
81.77008713221556
 20
4.825963693849055
 30
0.0
  0
VERTEX
  5
324
  8
THREE_QUARTER_INCH_THRUCUT
 10
81.77096165817912
 20
4.8136822683815
 30
0.0
  0
VERTEX
  5
325
  8
THREE_QUARTER_INCH_THRUCUT
 10
81.772435036276
 20
4.801503235748903
 30
0.0
  0
VERTEX
  5
326
  8
THREE_QUARTER_INCH_THRUCUT
 10
81.77449887362431
 20
4.789447046825126
 30
0.0
  0
VERTEX
  5
327
  8
THREE_QUARTER_INCH_THRUCUT
 10
81.77714477734224
 20
4.777534152484026
 30
0.0
  0
VERTEX
  5
328
  8
THREE_QUARTER_INCH_THRUCUT
 10
81.78036435454796
 20
4.765785003599463
 30
0.0
  0
VERTEX
  5
329
  8
THREE_QUARTER_INCH_THRUCUT
 10
81.78414921235961
 20
4.7542200510453
 30
0.0
  0
VERTEX
  5
32A
  8
THREE_QUARTER_INCH_THRUCUT
 10
81.78849095789535
 20
4.742859745695393
 30
0.0
  0
VERTEX
  5
32B
  8
THREE_QUARTER_INCH_THRUCUT
 10
81.79338119827335
 20
4.731724538423604
 30
0.0
  0
VERTEX
  5
32C
  8
THREE_QUARTER_INCH_THRUCUT
 10
81.79881154061175
 20
4.720834880103794
 30
0.0
  0
VERTEX
  5
32D
  8
THREE_QUARTER_INCH_THRUCUT
 10
81.80477359202871
 20
4.710211221609822
 30
0.0
  0
VERTEX
  5
32E
  8
THREE_QUARTER_INCH_THRUCUT
 10
81.8112589596424
 20
4.699874013815549
 30
0.0
  0
VERTEX
  5
32F
  8
THREE_QUARTER_INCH_THRUCUT
 10
81.81825925057099
 20
4.689843707594834
 30
0.0
  0
VERTEX
  5
330
  8
THREE_QUARTER_INCH_THRUCUT
 10
81.8257660719326
 20
4.680140753821536
 30
0.0
  0
VERTEX
  5
331
  8
THREE_QUARTER_INCH_THRUCUT
 10
81.83377103084544
 20
4.670785603369517
 30
0.0
  0
VERTEX
  5
332
  8
THREE_QUARTER_INCH_THRUCUT
 10
81.84226573442763
 20
4.661798707112636
 30
0.0
  0
VERTEX
  5
333
  8
THREE_QUARTER_INCH_THRUCUT
 10
82.16042664009532
 20
4.344060021671053
 30
0.0
  0
VERTEX
  5
334
  8
THREE_QUARTER_INCH_THRUCUT
 10
82.17373436847035
 20
4.330077875763005
 30
0.0
  0
VERTEX
  5
335
  8
THREE_QUARTER_INCH_THRUCUT
 10
82.18618433607539
 20
4.315595437162321
 30
0.0
  0
VERTEX
  5
336
  8
THREE_QUARTER_INCH_THRUCUT
 10
82.19777652384663
 20
4.30064602598695
 30
0.0
  0
VERTEX
  5
337
  8
THREE_QUARTER_INCH_THRUCUT
 10
82.2085109127203
 20
4.285262962354838
 30
0.0
  0
VERTEX
  5
338
  8
THREE_QUARTER_INCH_THRUCUT
 10
82.2183874836326
 20
4.269479566383932
 30
0.0
  0
VERTEX
  5
339
  8
THREE_QUARTER_INCH_THRUCUT
 10
82.2274062175197
 20
4.253329158192181
 30
0.0
  0
VERTEX
  5
33A
  8
THREE_QUARTER_INCH_THRUCUT
 10
82.23556709531786
 20
4.236845057897531
 30
0.0
  0
VERTEX
  5
33B
  8
THREE_QUARTER_INCH_THRUCUT
 10
82.24287009796325
 20
4.220060585617928
 30
0.0
  0
VERTEX
  5
33C
  8
THREE_QUARTER_INCH_THRUCUT
 10
82.24931520639208
 20
4.20300906147132
 30
0.0
  0
VERTEX
  5
33D
  8
THREE_QUARTER_INCH_THRUCUT
 10
82.25490240154058
 20
4.185723805575655
 30
0.0
  0
VERTEX
  5
33E
  8
THREE_QUARTER_INCH_THRUCUT
 10
82.25963166434491
 20
4.16823813804888
 30
0.0
  0
VERTEX
  5
33F
  8
THREE_QUARTER_INCH_THRUCUT
 10
82.2635029757413
 20
4.150585379008941
 30
0.0
  0
VERTEX
  5
340
  8
THREE_QUARTER_INCH_THRUCUT
 10
82.26651631666597
 20
4.132798848573787
 30
0.0
  0
VERTEX
  5
341
  8
THREE_QUARTER_INCH_THRUCUT
 10
82.2686716680551
 20
4.114911866861362
 30
0.0
  0
VERTEX
  5
342
  8
THREE_QUARTER_INCH_THRUCUT
 10
82.26996901084493
 20
4.096957753989616
 30
0.0
  0
VERTEX
  5
343
  8
THREE_QUARTER_INCH_THRUCUT
 10
82.27040832597163
 20
4.078969830076497
 30
0.0
  0
VERTEX
  5
344
  8
THREE_QUARTER_INCH_THRUCUT
 10
82.26998959437142
 20
4.060981415239951
 30
0.0
  0
VERTEX
  5
345
  8
THREE_QUARTER_INCH_THRUCUT
 10
82.2687127969805
 20
4.043025829597923
 30
0.0
  0
VERTEX
  5
346
  8
THREE_QUARTER_INCH_THRUCUT
 10
82.26657791473508
 20
4.025136393268363
 30
0.0
  0
VERTEX
  5
347
  8
THREE_QUARTER_INCH_THRUCUT
 10
82.26358492857136
 20
4.007346426369216
 30
0.0
  0
VERTEX
  5
348
  8
THREE_QUARTER_INCH_THRUCUT
 10
82.25973381942556
 20
3.989689249018432
 30
0.0
  0
VERTEX
  5
349
  8
THREE_QUARTER_INCH_THRUCUT
 10
82.25502456823386
 20
3.972198181333956
 30
0.0
  0
VERTEX
  5
34A
  8
THREE_QUARTER_INCH_THRUCUT
 10
82.24945715593249
 20
3.954906543433736
 30
0.0
  0
VERTEX
  5
34B
  8
THREE_QUARTER_INCH_THRUCUT
 10
82.24303156345765
 20
3.937847655435718
 30
0.0
  0
VERTEX
  5
34C
  8
THREE_QUARTER_INCH_THRUCUT
 10
82.23574777174554
 20
3.921054837457851
 30
0.0
  0
VERTEX
  5
34D
  8
THREE_QUARTER_INCH_THRUCUT
 10
82.22760576173236
 20
3.904561409618081
 30
0.0
  0
VERTEX
  5
34E
  8
THREE_QUARTER_INCH_THRUCUT
 10
82.21860551435435
 20
3.888400692034355
 30
0.0
  0
VERTEX
  5
34F
  8
THREE_QUARTER_INCH_THRUCUT
 10
82.20874701054765
 20
3.872606004824621
 30
0.0
  0
VERTEX
  5
350
  8
THREE_QUARTER_INCH_THRUCUT
 10
82.19803023124854
 20
3.857210668106826
 30
0.0
  0
VERTEX
  5
351
  8
THREE_QUARTER_INCH_THRUCUT
 10
82.18645515739317
 20
3.842248001998917
 30
0.0
  0
VERTEX
  5
352
  8
THREE_QUARTER_INCH_THRUCUT
 10
82.17402176991777
 20
3.827751326618841
 30
0.0
  0
VERTEX
  5
353
  8
THREE_QUARTER_INCH_THRUCUT
 10
82.16073004975854
 20
3.813753962084546
 30
0.0
  0
VERTEX
  5
354
  8
THREE_QUARTER_INCH_THRUCUT
 10
81.76979698813912
 20
3.422413374063948
 30
0.0
  0
VERTEX
  5
355
  8
THREE_QUARTER_INCH_THRUCUT
 10
81.37886392651964
 20
3.031072786043352
 30
0.0
  0
VERTEX
  5
356
  8
THREE_QUARTER_INCH_THRUCUT
 10
81.36557220636041
 20
3.017075421509052
 30
0.0
  0
VERTEX
  5
357
  8
THREE_QUARTER_INCH_THRUCUT
 10
81.35313881888501
 20
3.002578746128971
 30
0.0
  0
VERTEX
  5
358
  8
THREE_QUARTER_INCH_THRUCUT
 10
81.34156374502965
 20
2.987616080021058
 30
0.0
  0
VERTEX
  5
359
  8
THREE_QUARTER_INCH_THRUCUT
 10
81.33084696573053
 20
2.972220743303259
 30
0.0
  0
VERTEX
  5
35A
  8
THREE_QUARTER_INCH_THRUCUT
 10
81.32098846192383
 20
2.956426056093521
 30
0.0
  0
VERTEX
  5
35B
  8
THREE_QUARTER_INCH_THRUCUT
 10
81.31198821454582
 20
2.940265338509793
 30
0.0
  0
VERTEX
  5
35C
  8
THREE_QUARTER_INCH_THRUCUT
 10
81.30384620453265
 20
2.923771910670021
 30
0.0
  0
VERTEX
  5
35D
  8
THREE_QUARTER_INCH_THRUCUT
 10
81.29656241282053
 20
2.906979092692151
 30
0.0
  0
VERTEX
  5
35E
  8
THREE_QUARTER_INCH_THRUCUT
 10
81.2901368203457
 20
2.889920204694133
 30
0.0
  0
VERTEX
  5
35F
  8
THREE_QUARTER_INCH_THRUCUT
 10
81.28456940804432
 20
2.872628566793911
 30
0.0
  0
VERTEX
  5
360
  8
THREE_QUARTER_INCH_THRUCUT
 10
81.27986015685262
 20
2.855137499109434
 30
0.0
  0
VERTEX
  5
361
  8
THREE_QUARTER_INCH_THRUCUT
 10
81.27600904770682
 20
2.837480321758648
 30
0.0
  0
VERTEX
  5
362
  8
THREE_QUARTER_INCH_THRUCUT
 10
81.2730160615431
 20
2.819690354859502
 30
0.0
  0
VERTEX
  5
363
  8
THREE_QUARTER_INCH_THRUCUT
 10
81.27088117929769
 20
2.801800918529942
 30
0.0
  0
VERTEX
  5
364
  8
THREE_QUARTER_INCH_THRUCUT
 10
81.26960438190676
 20
2.783845332887915
 30
0.0
  0
VERTEX
  5
365
  8
THREE_QUARTER_INCH_THRUCUT
 10
81.26918565030655
 20
2.765856918051369
 30
0.0
  0
VERTEX
  5
366
  8
THREE_QUARTER_INCH_THRUCUT
 10
81.26962496543325
 20
2.747868994138249
 30
0.0
  0
VERTEX
  5
367
  8
THREE_QUARTER_INCH_THRUCUT
 10
81.27092230822308
 20
2.729914881266505
 30
0.0
  0
VERTEX
  5
368
  8
THREE_QUARTER_INCH_THRUCUT
 10
81.27307765961221
 20
2.712027899554083
 30
0.0
  0
VERTEX
  5
369
  8
THREE_QUARTER_INCH_THRUCUT
 10
81.27609100053688
 20
2.69424136911893
 30
0.0
  0
VERTEX
  5
36A
  8
THREE_QUARTER_INCH_THRUCUT
 10
81.27996231193328
 20
2.676588610078992
 30
0.0
  0
VERTEX
  5
36B
  8
THREE_QUARTER_INCH_THRUCUT
 10
81.28469157473761
 20
2.659102942552219
 30
0.0
  0
VERTEX
  5
36C
  8
THREE_QUARTER_INCH_THRUCUT
 10
81.2902787698861
 20
2.641817686656556
 30
0.0
  0
VERTEX
  5
36D
  8
THREE_QUARTER_INCH_THRUCUT
 10
81.29672387831494
 20
2.624766162509951
 30
0.0
  0
VERTEX
  5
36E
  8
THREE_QUARTER_INCH_THRUCUT
 10
81.30402688096032
 20
2.60798169023035
 30
0.0
  0
VERTEX
  5
36F
  8
THREE_QUARTER_INCH_THRUCUT
 10
81.31218775875848
 20
2.591497589935702
 30
0.0
  0
VERTEX
  5
370
  8
THREE_QUARTER_INCH_THRUCUT
 10
81.32120649264559
 20
2.575347181743952
 30
0.0
  0
VERTEX
  5
371
  8
THREE_QUARTER_INCH_THRUCUT
 10
81.33108306355788
 20
2.559563785773049
 30
0.0
  0
VERTEX
  5
372
  8
THREE_QUARTER_INCH_THRUCUT
 10
81.34181745243156
 20
2.54418072214094
 30
0.0
  0
VERTEX
  5
373
  8
THREE_QUARTER_INCH_THRUCUT
 10
81.3534096402028
 20
2.529231310965571
 30
0.0
  0
VERTEX
  5
374
  8
THREE_QUARTER_INCH_THRUCUT
 10
81.36585960780783
 20
2.514748872364891
 30
0.0
  0
VERTEX
  5
375
  8
THREE_QUARTER_INCH_THRUCUT
 10
81.37916733618286
 20
2.500766726456845
 30
0.0
  0
VERTEX
  5
376
  8
THREE_QUARTER_INCH_THRUCUT
 10
81.69732824185056
 20
2.183028041015234
 30
0.0
  0
VERTEX
  5
377
  8
THREE_QUARTER_INCH_THRUCUT
 10
81.70582294543274
 20
2.174041144758344
 30
0.0
  0
VERTEX
  5
378
  8
THREE_QUARTER_INCH_THRUCUT
 10
81.71382790434558
 20
2.164685994306319
 30
0.0
  0
VERTEX
  5
379
  8
THREE_QUARTER_INCH_THRUCUT
 10
81.7213347257072
 20
2.154983040533018
 30
0.0
  0
VERTEX
  5
37A
  8
THREE_QUARTER_INCH_THRUCUT
 10
81.72833501663578
 20
2.144952734312301
 30
0.0
  0
VERTEX
  5
37B
  8
THREE_QUARTER_INCH_THRUCUT
 10
81.73482038424947
 20
2.134615526518028
 30
0.0
  0
VERTEX
  5
37C
  8
THREE_QUARTER_INCH_THRUCUT
 10
81.74078243566643
 20
2.123991868024059
 30
0.0
  0
VERTEX
  5
37D
  8
THREE_QUARTER_INCH_THRUCUT
 10
81.74621277800483
 20
2.113102209704254
 30
0.0
  0
VERTEX
  5
37E
  8
THREE_QUARTER_INCH_THRUCUT
 10
81.75110301838284
 20
2.10196700243247
 30
0.0
  0
VERTEX
  5
37F
  8
THREE_QUARTER_INCH_THRUCUT
 10
81.75544476391858
 20
2.09060669708257
 30
0.0
  0
VERTEX
  5
380
  8
THREE_QUARTER_INCH_THRUCUT
 10
81.75922962173023
 20
2.079041744528412
 30
0.0
  0
VERTEX
  5
381
  8
THREE_QUARTER_INCH_THRUCUT
 10
81.76244919893594
 20
2.067292595643856
 30
0.0
  0
VERTEX
  5
382
  8
THREE_QUARTER_INCH_THRUCUT
 10
81.76509510265387
 20
2.055379701302761
 30
0.0
  0
VERTEX
  5
383
  8
THREE_QUARTER_INCH_THRUCUT
 10
81.76715894000219
 20
2.043323512378987
 30
0.0
  0
VERTEX
  5
384
  8
THREE_QUARTER_INCH_THRUCUT
 10
81.76863231809907
 20
2.031144479746394
 30
0.0
  0
VERTEX
  5
385
  8
THREE_QUARTER_INCH_THRUCUT
 10
81.76950684406262
 20
2.018863054278842
 30
0.0
  0
VERTEX
  5
386
  8
THREE_QUARTER_INCH_THRUCUT
 10
81.76977412501105
 20
2.006499686850191
 30
0.0
  0
VERTEX
  5
387
  8
THREE_QUARTER_INCH_THRUCUT
 10
81.7697867657856
 20
1.922554609967847
 30
0.0
  0
VERTEX
  5
388
  8
THREE_QUARTER_INCH_THRUCUT
 10
71.2747867657803
 20
1.922554609968131
 30
0.0
 42
-0.4142135623703808
  0
VERTEX
  5
389
  8
THREE_QUARTER_INCH_THRUCUT
 10
71.14478676578031
 20
2.052554609966933
 30
0.0
  0
VERTEX
  5
38A
  8
THREE_QUARTER_INCH_THRUCUT
 10
71.14478676577937
 20
2.153297256125426
 30
0.0
 42
1.0
  0
VERTEX
  5
38B
  8
THREE_QUARTER_INCH_THRUCUT
 10
70.8755294119342
 20
2.42255460996813
 30
0.0
  0
VERTEX
  5
38C
  8
THREE_QUARTER_INCH_THRUCUT
 10
70.66404411962256
 20
2.422554609968102
 30
0.0
 42
1.0
  0
VERTEX
  5
38D
  8
THREE_QUARTER_INCH_THRUCUT
 10
70.39478676577849
 20
2.153297256124261
 30
0.0
  0
VERTEX
  5
38E
  8
THREE_QUARTER_INCH_THRUCUT
 10
70.39478676577843
 20
2.052554609967473
 30
0.0
 42
-0.4142135623729316
  0
VERTEX
  5
38F
  8
THREE_QUARTER_INCH_THRUCUT
 10
70.26478676577844
 20
1.922554609967591
 30
0.0
  0
VERTEX
  5
390
  8
THREE_QUARTER_INCH_THRUCUT
 10
49.27478676578033
 20
1.922554609968131
 30
0.0
 42
-0.4142135623703808
  0
VERTEX
  5
391
  8
THREE_QUARTER_INCH_THRUCUT
 10
49.14478676578034
 20
2.052554609966933
 30
0.0
  0
VERTEX
  5
392
  8
THREE_QUARTER_INCH_THRUCUT
 10
49.1447867657794
 20
2.153297256125426
 30
0.0
 42
1.0
  0
VERTEX
  5
393
  8
THREE_QUARTER_INCH_THRUCUT
 10
48.87552941193421
 20
2.42255460996813
 30
0.0
  0
VERTEX
  5
394
  8
THREE_QUARTER_INCH_THRUCUT
 10
48.66404411962257
 20
2.422554609968102
 30
0.0
 42
1.0
  0
VERTEX
  5
395
  8
THREE_QUARTER_INCH_THRUCUT
 10
48.39478676577853
 20
2.153297256124261
 30
0.0
  0
VERTEX
  5
396
  8
THREE_QUARTER_INCH_THRUCUT
 10
48.39478676577845
 20
2.052554609967473
 30
0.0
 42
-0.4142135623729316
  0
VERTEX
  5
397
  8
THREE_QUARTER_INCH_THRUCUT
 10
48.26478676577845
 20
1.922554609967591
 30
0.0
  0
VERTEX
  5
398
  8
THREE_QUARTER_INCH_THRUCUT
 10
27.27478676578033
 20
1.922554609968216
 30
0.0
 42
-0.4142135623703808
  0
VERTEX
  5
399
  8
THREE_QUARTER_INCH_THRUCUT
 10
27.14478676578034
 20
2.052554609967018
 30
0.0
  0
VERTEX
  5
39A
  8
THREE_QUARTER_INCH_THRUCUT
 10
27.14478676577937
 20
2.153297256125512
 30
0.0
 42
1.0
  0
VERTEX
  5
39B
  8
THREE_QUARTER_INCH_THRUCUT
 10
26.87552941193417
 20
2.422554609968215
 30
0.0
  0
VERTEX
  5
39C
  8
THREE_QUARTER_INCH_THRUCUT
 10
26.66404411962259
 20
2.422554609968187
 30
0.0
 42
1.0
  0
VERTEX
  5
39D
  8
THREE_QUARTER_INCH_THRUCUT
 10
26.39478676577852
 20
2.153297256124346
 30
0.0
  0
VERTEX
  5
39E
  8
THREE_QUARTER_INCH_THRUCUT
 10
26.39478676577846
 20
2.052554609967558
 30
0.0
 42
-0.4142135623729316
  0
VERTEX
  5
39F
  8
THREE_QUARTER_INCH_THRUCUT
 10
26.26478676577841
 20
1.922554609967676
 30
0.0
  0
SEQEND
  5
404
  8
THREE_QUARTER_INCH_THRUCUT
  0
POLYLINE
  5
A1
  8
THREE_QUARTER_INCH_THRUCUT
 66
     1
 10
0.0
 20
0.0
 30
0.0
 70
     1
  0
VERTEX
  5
3A0
  8
THREE_QUARTER_INCH_THRUCUT
 10
67.84908649767816
 20
27.61456188740874
 30
0.0
  0
VERTEX
  5
3A1
  8
THREE_QUARTER_INCH_THRUCUT
 10
67.84908649768327
 20
30.09298708425911
 30
0.0
 42
-1.0
  0
VERTEX
  5
3A2
  8
THREE_QUARTER_INCH_THRUCUT
 10
67.84908649768384
 20
30.35377448583392
 30
0.0
  0
VERTEX
  5
3A3
  8
THREE_QUARTER_INCH_THRUCUT
 10
68.59908649767793
 20
30.35377448582447
 30
0.0
 42
-1.0
  0
VERTEX
  5
3A4
  8
THREE_QUARTER_INCH_THRUCUT
 10
68.59908649767816
 20
30.09298708424966
 30
0.0
  0
VERTEX
  5
3A5
  8
THREE_QUARTER_INCH_THRUCUT
 10
68.59908649768134
 20
27.61456188739929
 30
0.0
 42
-1.0
  0
VERTEX
  5
3A6
  8
THREE_QUARTER_INCH_THRUCUT
 10
68.59908649768168
 20
27.35377448582447
 30
0.0
  0
VERTEX
  5
3A7
  8
THREE_QUARTER_INCH_THRUCUT
 10
67.84908649767793
 20
27.35377448583392
 30
0.0
 42
-1.0
  0
SEQEND
  5
405
  8
THREE_QUARTER_INCH_THRUCUT
  0
POLYLINE
  5
A2
  8
THREE_QUARTER_INCH_THRUCUT
 66
     1
 10
0.0
 20
0.0
 30
0.0
 70
     1
  0
VERTEX
  5
3A8
  8
THREE_QUARTER_INCH_THRUCUT
 10
45.84908649767816
 20
27.61456188740613
 30
0.0
  0
VERTEX
  5
3A9
  8
THREE_QUARTER_INCH_THRUCUT
 10
45.84908649767668
 20
30.09298708425843
 30
0.0
 42
-1.0
  0
VERTEX
  5
3AA
  8
THREE_QUARTER_INCH_THRUCUT
 10
45.84908649767657
 20
30.35377448583324
 30
0.0
  0
VERTEX
  5
3AB
  8
THREE_QUARTER_INCH_THRUCUT
 10
46.59908649767793
 20
30.35377448582449
 30
0.0
 42
-1.0
  0
VERTEX
  5
3AC
  8
THREE_QUARTER_INCH_THRUCUT
 10
46.59908649767816
 20
30.09298708424967
 30
0.0
  0
VERTEX
  5
3AD
  8
THREE_QUARTER_INCH_THRUCUT
 10
46.59908649768134
 20
27.61456188740658
 30
0.0
 42
-1.0
  0
VERTEX
  5
3AE
  8
THREE_QUARTER_INCH_THRUCUT
 10
46.59908649768168
 20
27.35377448583176
 30
0.0
  0
VERTEX
  5
3AF
  8
THREE_QUARTER_INCH_THRUCUT
 10
45.84908649767793
 20
27.35377448583131
 30
0.0
 42
-1.0
  0
SEQEND
  5
406
  8
THREE_QUARTER_INCH_THRUCUT
  0
POLYLINE
  5
A3
  8
THREE_QUARTER_INCH_THRUCUT
 66
     1
 10
0.0
 20
0.0
 30
0.0
 70
     1
  0
VERTEX
  5
3B0
  8
THREE_QUARTER_INCH_THRUCUT
 10
24.59908649767816
 20
30.09298708425331
 30
0.0
  0
VERTEX
  5
3B1
  8
THREE_QUARTER_INCH_THRUCUT
 10
24.59908649768185
 20
27.61456188740476
 30
0.0
 42
-1.0
  0
VERTEX
  5
3B2
  8
THREE_QUARTER_INCH_THRUCUT
 10
24.59908649768225
 20
27.35377448582994
 30
0.0
  0
VERTEX
  5
3B3
  8
THREE_QUARTER_INCH_THRUCUT
 10
23.84908649767793
 20
27.35377448583029
 30
0.0
 42
-1.0
  0
VERTEX
  5
3B4
  8
THREE_QUARTER_INCH_THRUCUT
 10
23.84908649767816
 20
27.6145618874051
 30
0.0
  0
VERTEX
  5
3B5
  8
THREE_QUARTER_INCH_THRUCUT
 10
23.84908649767998
 20
30.09298708425547
 30
0.0
 42
-1.0
  0
VERTEX
  5
3B6
  8
THREE_QUARTER_INCH_THRUCUT
 10
23.8490864976802
 20
30.35377448583029
 30
0.0
  0
VERTEX
  5
3B7
  8
THREE_QUARTER_INCH_THRUCUT
 10
24.59908649767793
 20
30.35377448582813
 30
0.0
 42
-1.0
  0
SEQEND
  5
407
  8
THREE_QUARTER_INCH_THRUCUT
  0
POLYLINE
  5
A4
  8
THREE_QUARTER_INCH_THRUCUT
 66
     1
 10
0.0
 20
0.0
 30
0.0
 70
     1
  0
VERTEX
  5
3B8
  8
THREE_QUARTER_INCH_THRUCUT
 10
89.84908649880752
 20
11.60377448512699
 30
0.0
  0
VERTEX
  5
3B9
  8
THREE_QUARTER_INCH_THRUCUT
 10
89.84908649880752
 20
27.35377448919833
 30
0.0
  0
VERTEX
  5
3BA
  8
THREE_QUARTER_INCH_THRUCUT
 10
89.09908649880752
 20
27.35377448919833
 30
0.0
 42
-1.0
  0
VERTEX
  5
3BB
  8
THREE_QUARTER_INCH_THRUCUT
 10
89.09908649880752
 20
27.73377448919821
 30
0.0
  0
VERTEX
  5
3BC
  8
THREE_QUARTER_INCH_THRUCUT
 10
89.09908649880752
 20
29.97377448919845
 30
0.0
 42
-1.0
  0
VERTEX
  5
3BD
  8
THREE_QUARTER_INCH_THRUCUT
 10
89.09908649880752
 20
30.35377448919833
 30
0.0
  0
VERTEX
  5
3BE
  8
THREE_QUARTER_INCH_THRUCUT
 10
89.84908649880752
 20
30.35377448919833
 30
0.0
  0
VERTEX
  5
3BF
  8
THREE_QUARTER_INCH_THRUCUT
 10
89.84908649880752
 20
46.10377448966285
 30
0.0
  0
VERTEX
  5
3C0
  8
THREE_QUARTER_INCH_THRUCUT
 10
2.599086497680034
 20
46.1037744907287
 30
0.0
  0
VERTEX
  5
3C1
  8
THREE_QUARTER_INCH_THRUCUT
 10
2.599086497679181
 20
39.42706188740293
 30
0.0
 42
-1.0
  0
VERTEX
  5
3C2
  8
THREE_QUARTER_INCH_THRUCUT
 10
2.599086497679124
 20
39.16627448582813
 30
0.0
  0
VERTEX
  5
3C3
  8
THREE_QUARTER_INCH_THRUCUT
 10
1.849086497679977
 20
39.1662744858304
 30
0.0
  0
VERTEX
  5
3C4
  8
THREE_QUARTER_INCH_THRUCUT
 10
1.849086497679977
 20
32.3537744858304
 30
0.0
  0
VERTEX
  5
3C5
  8
THREE_QUARTER_INCH_THRUCUT
 10
2.224086497677931
 20
32.35377448583176
 30
0.0
 42
-1.0
  0
VERTEX
  5
3C6
  8
THREE_QUARTER_INCH_THRUCUT
 10
2.224086497678186
 20
32.09298708425695
 30
0.0
  0
VERTEX
  5
3C7
  8
THREE_QUARTER_INCH_THRUCUT
 10
2.224086497679977
 20
30.3537744858304
 30
0.0
  0
VERTEX
  5
3C8
  8
THREE_QUARTER_INCH_THRUCUT
 10
2.599086497677931
 20
30.35377448582813
 30
0.0
 42
-1.0
  0
VERTEX
  5
3C9
  8
THREE_QUARTER_INCH_THRUCUT
 10
2.59908649767813
 20
30.09298708425331
 30
0.0
  0
VERTEX
  5
3CA
  8
THREE_QUARTER_INCH_THRUCUT
 10
2.599086497683729
 20
27.61456188740476
 30
0.0
 42
-1.0
  0
VERTEX
  5
3CB
  8
THREE_QUARTER_INCH_THRUCUT
 10
2.599086497684354
 20
27.35377448582994
 30
0.0
  0
VERTEX
  5
3CC
  8
THREE_QUARTER_INCH_THRUCUT
 10
2.224086497679977
 20
27.3537744858304
 30
0.0
  0
VERTEX
  5
3CD
  8
THREE_QUARTER_INCH_THRUCUT
 10
2.224086497681341
 20
25.61456188740658
 30
0.0
 42
-1.0
  0
VERTEX
  5
3CE
  8
THREE_QUARTER_INCH_THRUCUT
 10
2.224086497681569
 20
25.35377448583176
 30
0.0
  0
VERTEX
  5
3CF
  8
THREE_QUARTER_INCH_THRUCUT
 10
1.849086497679977
 20
25.3537744858304
 30
0.0
  0
VERTEX
  5
3D0
  8
THREE_QUARTER_INCH_THRUCUT
 10
1.849086497679977
 20
18.54127448583029
 30
0.0
  0
VERTEX
  5
3D1
  8
THREE_QUARTER_INCH_THRUCUT
 10
2.599086497681569
 20
18.54127448583165
 30
0.0
 42
-1.0
  0
VERTEX
  5
3D2
  8
THREE_QUARTER_INCH_THRUCUT
 10
2.599086497681512
 20
18.28048708425683
 30
0.0
  0
VERTEX
  5
3D3
  8
THREE_QUARTER_INCH_THRUCUT
 10
2.599086497680005
 20
11.6037744841559
 30
0.0
  0
SEQEND
  5
408
  8
THREE_QUARTER_INCH_THRUCUT
  0
ENDSEC
  0
EOF
