  0
SECTION
  2
HEADER
  9
$ACADVER
  1
AC1009
  9
$DWGCODEPAGE
  3
ansi_1252
  9
$INSBASE
 10
0.0
 20
0.0
 30
0.0
  9
$EXTMIN
 10
0.8704250625167468
 20
0.4055266365650141
 30
0.0
  9
$EXTMAX
 10
94.77072581194017
 20
47.40261036490348
 30
0.0
  9
$LIMMIN
 10
0.0
 20
0.0
  9
$LIMMAX
 10
12.0
 20
9.0
  9
$ORTHOMODE
 70
     0
  9
$REGENMODE
 70
     1
  9
$FILLMODE
 70
     1
  9
$QTEXTMODE
 70
     0
  9
$MIRRTEXT
 70
     1
  9
$DRAGMODE
 70
     2
  9
$LTSCALE
 40
1.0
  9
$OSMODE
 70
    37
  9
$ATTMODE
 70
     1
  9
$TEXTSIZE
 40
0.2
  9
$TRACEWID
 40
0.05
  9
$TEXTSTYLE
  7
STANDARD
  9
$CLAYER
  8
0
  9
$CELTYPE
  6
BYLAYER
  9
$CECOLOR
 62
   256
  9
$DIMSCALE
 40
1.0
  9
$DIMASZ
 40
0.18
  9
$DIMEXO
 40
0.0625
  9
$DIMDLI
 40
0.38
  9
$DIMRND
 40
0.0
  9
$DIMDLE
 40
0.0
  9
$DIMEXE
 40
0.18
  9
$DIMTP
 40
0.0
  9
$DIMTM
 40
0.0
  9
$DIMTXT
 40
0.18
  9
$DIMCEN
 40
0.09
  9
$DIMTSZ
 40
0.0
  9
$DIMTOL
 70
     0
  9
$DIMLIM
 70
     0
  9
$DIMTIH
 70
     1
  9
$DIMTOH
 70
     1
  9
$DIMSE1
 70
     0
  9
$DIMSE2
 70
     0
  9
$DIMTAD
 70
     0
  9
$DIMZIN
 70
     0
  9
$DIMBLK
  1

  9
$DIMASO
 70
     1
  9
$DIMSHO
 70
     1
  9
$DIMPOST
  1

  9
$DIMAPOST
  1

  9
$DIMALT
 70
     0
  9
$DIMALTD
 70
     2
  9
$DIMALTF
 40
25.4
  9
$DIMLFAC
 40
1.0
  9
$DIMTOFL
 70
     0
  9
$DIMTVP
 40
0.0
  9
$DIMTIX
 70
     0
  9
$DIMSOXD
 70
     0
  9
$DIMSAH
 70
     0
  9
$DIMBLK1
  1

  9
$DIMBLK2
  1

  9
$DIMSTYLE
  2
STANDARD
  9
$DIMCLRD
 70
     0
  9
$DIMCLRE
 70
     0
  9
$DIMCLRT
 70
     0
  9
$DIMTFAC
 40
1.0
  9
$DIMGAP
 40
0.09
  9
$LUNITS
 70
     2
  9
$LUPREC
 70
     4
  9
$SKETCHINC
 40
0.1
  9
$FILLETRAD
 40
0.5
  9
$AUNITS
 70
     0
  9
$AUPREC
 70
     0
  9
$MENU
  1
.
  9
$ELEVATION
 40
0.0
  9
$PELEVATION
 40
0.0
  9
$THICKNESS
 40
0.0
  9
$LIMCHECK
 70
     0
  9
$CHAMFERA
 40
0.0
  9
$CHAMFERB
 40
0.0
  9
$SKPOLY
 70
     0
  9
$TDCREATE
 40
2454910.5
  9
$TDUPDATE
 40
2457902.624119908
  9
$TDINDWG
 40
0.0000000116
  9
$TDUSRTIMER
 40
0.0000000116
  9
$USRTIMER
 70
     1
  9
$ANGBASE
 50
0.0
  9
$ANGDIR
 70
     0
  9
$PDMODE
 70
     0
  9
$PDSIZE
 40
0.0
  9
$PLINEWID
 40
0.0
  9
$COORDS
 70
     1
  9
$SPLFRAME
 70
     0
  9
$SPLINETYPE
 70
     6
  9
$SPLINESEGS
 70
     8
  9
$ATTDIA
 70
     0
  9
$ATTREQ
 70
     1
  9
$HANDLING
 70
     1
  9
$HANDSEED
  5
644
  9
$SURFTAB1
 70
     6
  9
$SURFTAB2
 70
     6
  9
$SURFTYPE
 70
     6
  9
$SURFU
 70
     6
  9
$SURFV
 70
     6
  9
$UCSNAME
  2

  9
$UCSORG
 10
0.0
 20
0.0
 30
0.0
  9
$UCSXDIR
 10
1.0
 20
0.0
 30
0.0
  9
$UCSYDIR
 10
0.0
 20
1.0
 30
0.0
  9
$PUCSNAME
  2

  9
$PUCSORG
 10
0.0
 20
0.0
 30
0.0
  9
$PUCSXDIR
 10
1.0
 20
0.0
 30
0.0
  9
$PUCSYDIR
 10
0.0
 20
1.0
 30
0.0
  9
$USERI1
 70
     0
  9
$USERI2
 70
     0
  9
$USERI3
 70
     0
  9
$USERI4
 70
     0
  9
$USERI5
 70
     0
  9
$USERR1
 40
0.0
  9
$USERR2
 40
0.0
  9
$USERR3
 40
0.0
  9
$USERR4
 40
0.0
  9
$USERR5
 40
0.0
  9
$WORLDVIEW
 70
     1
  9
$SHADEDGE
 70
     3
  9
$SHADEDIF
 70
    70
  9
$TILEMODE
 70
     1
  9
$MAXACTVP
 70
    64
  9
$PLIMCHECK
 70
     0
  9
$PEXTMIN
 10
1.000000000000000E+20
 20
1.000000000000000E+20
 30
1.000000000000000E+20
  9
$PEXTMAX
 10
-1.000000000000000E+20
 20
-1.000000000000000E+20
 30
-1.000000000000000E+20
  9
$PLIMMIN
 10
0.0
 20
0.0
  9
$PLIMMAX
 10
12.0
 20
9.0
  9
$UNITMODE
 70
     0
  9
$VISRETAIN
 70
     1
  9
$PLINEGEN
 70
     0
  9
$PSLTSCALE
 70
     1
  0
ENDSEC
  0
SECTION
  2
TABLES
  0
TABLE
  2
VPORT
 70
     1
  0
VPORT
  2
*ACTIVE
 70
     0
 10
0.0
 20
0.0
 11
1.0
 21
1.0
 12
10.42990654205607
 22
4.5
 13
0.0
 23
0.0
 14
0.5
 24
0.5
 15
0.5
 25
0.5
 16
0.0
 26
0.0
 36
1.0
 17
0.0
 27
0.0
 37
0.0
 40
9.0
 41
1.972972972850329
 42
50.0
 43
0.0
 44
0.0
 50
0.0
 51
0.0
 71
     0
 72
   100
 73
     1
 74
     3
 75
     0
 76
     0
 77
     0
 78
     0
  0
ENDTAB
  0
TABLE
  2
LTYPE
 70
     2
  0
LTYPE
  2
CONTINUOUS
 70
     0
  3
Solid line
 72
    65
 73
     0
 40
0.0
  0
LTYPE
  2
CONTINUOUS2
 70
     0
  3
Solid Line
 72
    65
 73
     0
 40
0.0
  0
ENDTAB
  0
TABLE
  2
LAYER
 70
     5
  0
LAYER
  2
0
 70
     0
 62
     7
  6
CONTINUOUS
  0
LAYER
  2
SOLID_ENDWALL_TRIM
 70
     0
 62
   245
  6
CONTINUOUS
  0
LAYER
  2
DOOR_OPTION_TRIM
 70
     0
 62
     3
  6
CONTINUOUS
  0
LAYER
  2
THREE_QUARTER_INCH_THRUCUT
 70
     0
 62
    18
  6
CONTINUOUS
  0
LAYER
  2
SCREW_LOCATION_MARKERS
 70
     0
 62
     1
  6
CONTINUOUS
  0
ENDTAB
  0
TABLE
  2
STYLE
 70
     1
  0
STYLE
  2
STANDARD
 70
     0
 40
0.0
 41
1.0
 50
0.0
 71
     0
 42
0.2
  3
txt
  4

  0
ENDTAB
  0
TABLE
  2
VIEW
 70
     0
  0
ENDTAB
  0
TABLE
  2
UCS
 70
     0
  0
ENDTAB
  0
TABLE
  2
APPID
 70
     1
  0
APPID
  2
ACAD
 70
     0
  0
ENDTAB
  0
TABLE
  2
DIMSTYLE
 70
     1
  0
DIMSTYLE
  2
STANDARD
 70
     0
  3

  4

  5

  6

  7

 40
1.0
 41
0.18
 42
0.0625
 43
0.38
 44
0.18
 45
0.0
 46
0.0
 47
0.0
 48
0.0
140
0.18
141
0.09
142
0.0
143
25.4
144
1.0
145
0.0
146
1.0
147
0.09
 71
     0
 72
     0
 73
     1
 74
     1
 75
     0
 76
     0
 77
     0
 78
     0
170
     0
171
     2
172
     0
173
     0
174
     0
175
     0
176
     0
177
     0
178
     0
  0
ENDTAB
  0
ENDSEC
  0
SECTION
  2
BLOCKS
  0
BLOCK
  8
0
  2
$MODEL_SPACE
 70
     0
 10
0.0
 20
0.0
 30
0.0
  3
$MODEL_SPACE
  1

  0
ENDBLK
  5
21
  8
0
  0
BLOCK
 67
     1
  8
0
  2
$PAPER_SPACE
 70
     0
 10
0.0
 20
0.0
 30
0.0
  3
$PAPER_SPACE
  1

  0
ENDBLK
  5
1D
 67
     1
  8
0
  0
ENDSEC
  0
SECTION
  2
ENTITIES
  0
POLYLINE
  5
70
  8
SOLID_ENDWALL_TRIM
 66
     1
 10
0.0
 20
0.0
 30
0.0
 70
     1
  0
VERTEX
  5
E9
  8
SOLID_ENDWALL_TRIM
 10
5.475207762934303
 20
8.186717807096157
 30
0.0
 42
0.4142135623730951
  0
VERTEX
  5
EA
  8
SOLID_ENDWALL_TRIM
 10
5.400385985254104
 20
8.018784184540264
 30
0.0
 42
0.4142135623730951
  0
VERTEX
  5
EB
  8
SOLID_ENDWALL_TRIM
 10
5.56831960781011
 20
7.943962406860066
 30
0.0
 42
0.4142135623730951
  0
VERTEX
  5
EC
  8
SOLID_ENDWALL_TRIM
 10
5.643141385490196
 20
8.11189602941573
 30
0.0
 42
0.4142135623730951
  0
SEQEND
  5
5D5
  8
SOLID_ENDWALL_TRIM
  0
POLYLINE
  5
71
  8
SOLID_ENDWALL_TRIM
 66
     1
 10
0.0
 20
0.0
 30
0.0
 70
     1
  0
VERTEX
  5
ED
  8
SOLID_ENDWALL_TRIM
 10
3.777665082818487
 20
13.28719687644394
 30
0.0
 42
0.4142135623730951
  0
VERTEX
  5
EE
  8
SOLID_ENDWALL_TRIM
 10
3.682223544043666
 20
13.13006345327636
 30
0.0
 42
0.4142135623730951
  0
VERTEX
  5
EF
  8
SOLID_ENDWALL_TRIM
 10
3.839356967210904
 20
13.03462191450177
 30
0.0
 42
0.4142135623730951
  0
VERTEX
  5
F0
  8
SOLID_ENDWALL_TRIM
 10
3.934798505985839
 20
13.19175533766889
 30
0.0
 42
0.4142135623730951
  0
SEQEND
  5
5D6
  8
SOLID_ENDWALL_TRIM
  0
POLYLINE
  5
72
  8
SOLID_ENDWALL_TRIM
 66
     1
 10
0.0
 20
0.0
 30
0.0
 70
     1
  0
VERTEX
  5
F1
  8
SOLID_ENDWALL_TRIM
 10
3.125748463563526
 20
18.65257489892502
 30
0.0
 42
0.4142135623730951
  0
VERTEX
  5
F2
  8
SOLID_ENDWALL_TRIM
 10
2.998053956870366
 20
18.5203095861612
 30
0.0
 42
0.4142135623730951
  0
VERTEX
  5
F3
  8
SOLID_ENDWALL_TRIM
 10
3.130319269633731
 20
18.39261507946827
 30
0.0
 42
0.4142135623730951
  0
VERTEX
  5
F4
  8
SOLID_ENDWALL_TRIM
 10
3.258013776326892
 20
18.52488039223164
 30
0.0
 42
0.4142135623730951
  0
SEQEND
  5
5D7
  8
SOLID_ENDWALL_TRIM
  0
POLYLINE
  5
73
  8
SOLID_ENDWALL_TRIM
 66
     1
 10
0.0
 20
0.0
 30
0.0
 70
     1
  0
VERTEX
  5
F5
  8
SOLID_ENDWALL_TRIM
 10
4.104685812241883
 20
7.577070412063278
 30
0.0
 42
0.4142135623730951
  0
VERTEX
  5
F6
  8
SOLID_ENDWALL_TRIM
 10
4.029864034561911
 20
7.409136789507385
 30
0.0
 42
0.4142135623730951
  0
VERTEX
  5
F7
  8
SOLID_ENDWALL_TRIM
 10
4.197797657117576
 20
7.334315011826958
 30
0.0
 42
0.4142135623730951
  0
VERTEX
  5
F8
  8
SOLID_ENDWALL_TRIM
 10
4.272619434798003
 20
7.502248634383078
 30
0.0
 42
0.4142135623730951
  0
SEQEND
  5
5D8
  8
SOLID_ENDWALL_TRIM
  0
POLYLINE
  5
74
  8
SOLID_ENDWALL_TRIM
 66
     1
 10
0.0
 20
0.0
 30
0.0
 70
     1
  0
VERTEX
  5
F9
  8
SOLID_ENDWALL_TRIM
 10
2.327954314111539
 20
12.89874801665502
 30
0.0
 42
0.4142135623730951
  0
VERTEX
  5
FA
  8
SOLID_ENDWALL_TRIM
 10
2.232512775336831
 20
12.74161459348789
 30
0.0
 42
0.4142135623730951
  0
VERTEX
  5
FB
  8
SOLID_ENDWALL_TRIM
 10
2.389646198504069
 20
12.64617305471285
 30
0.0
 42
0.4142135623730951
  0
VERTEX
  5
FC
  8
SOLID_ENDWALL_TRIM
 10
2.485087737279004
 20
12.80330647787997
 30
0.0
 42
0.4142135623730951
  0
SEQEND
  5
5D9
  8
SOLID_ENDWALL_TRIM
  0
POLYLINE
  5
75
  8
SOLID_ENDWALL_TRIM
 66
     1
 10
0.0
 20
0.0
 30
0.0
 70
     1
  0
VERTEX
  5
FD
  8
SOLID_ENDWALL_TRIM
 10
1.628908245489074
 20
18.65224290797693
 30
0.0
 42
0.4142135623730951
  0
VERTEX
  5
FE
  8
SOLID_ENDWALL_TRIM
 10
1.501213738796255
 20
18.51997759521356
 30
0.0
 42
0.4142135623730951
  0
VERTEX
  5
FF
  8
SOLID_ENDWALL_TRIM
 10
1.633479051559393
 20
18.3922830885204
 30
0.0
 42
0.4142135623730951
  0
VERTEX
  5
100
  8
SOLID_ENDWALL_TRIM
 10
1.761173558252553
 20
18.52454840128377
 30
0.0
 42
0.4142135623730951
  0
SEQEND
  5
5DA
  8
SOLID_ENDWALL_TRIM
  0
POLYLINE
  5
76
  8
SOLID_ENDWALL_TRIM
 66
     1
 10
0.0
 20
0.0
 30
0.0
 70
     1
  0
VERTEX
  5
101
  8
SOLID_ENDWALL_TRIM
 10
85.90193023017429
 20
1.155526636633838
 30
0.0
 42
0.4142135623730951
  0
VERTEX
  5
102
  8
SOLID_ENDWALL_TRIM
 10
86.03193023017428
 20
1.025526636633956
 30
0.0
 42
0.4142135623730951
  0
VERTEX
  5
103
  8
SOLID_ENDWALL_TRIM
 10
86.16193023017428
 20
1.155526636633838
 30
0.0
 42
0.4142135623730951
  0
VERTEX
  5
104
  8
SOLID_ENDWALL_TRIM
 10
86.03193023017428
 20
1.28552663663372
 30
0.0
 42
0.4142135623730951
  0
SEQEND
  5
5DB
  8
SOLID_ENDWALL_TRIM
  0
POLYLINE
  5
77
  8
SOLID_ENDWALL_TRIM
 66
     1
 10
0.0
 20
0.0
 30
0.0
 70
     1
  0
VERTEX
  5
105
  8
SOLID_ENDWALL_TRIM
 10
85.90193023017429
 20
2.655526636633837
 30
0.0
 42
0.4142135623730951
  0
VERTEX
  5
106
  8
SOLID_ENDWALL_TRIM
 10
86.03193023017428
 20
2.525526636633956
 30
0.0
 42
0.4142135623730951
  0
VERTEX
  5
107
  8
SOLID_ENDWALL_TRIM
 10
86.16193023017428
 20
2.655526636633837
 30
0.0
 42
0.4142135623730951
  0
VERTEX
  5
108
  8
SOLID_ENDWALL_TRIM
 10
86.03193023017428
 20
2.785526636633719
 30
0.0
 42
0.4142135623730951
  0
SEQEND
  5
5DC
  8
SOLID_ENDWALL_TRIM
  0
POLYLINE
  5
78
  8
SOLID_ENDWALL_TRIM
 66
     1
 10
0.0
 20
0.0
 30
0.0
 70
     1
  0
VERTEX
  5
109
  8
SOLID_ENDWALL_TRIM
 10
77.70280615922815
 20
1.155526636633838
 30
0.0
 42
0.4142135623730951
  0
VERTEX
  5
10A
  8
SOLID_ENDWALL_TRIM
 10
77.83280615922814
 20
1.025526636633956
 30
0.0
 42
0.4142135623730951
  0
VERTEX
  5
10B
  8
SOLID_ENDWALL_TRIM
 10
77.96280615922814
 20
1.155526636633838
 30
0.0
 42
0.4142135623730951
  0
VERTEX
  5
10C
  8
SOLID_ENDWALL_TRIM
 10
77.83280615922814
 20
1.28552663663372
 30
0.0
 42
0.4142135623730951
  0
SEQEND
  5
5DD
  8
SOLID_ENDWALL_TRIM
  0
POLYLINE
  5
79
  8
SOLID_ENDWALL_TRIM
 66
     1
 10
0.0
 20
0.0
 30
0.0
 70
     1
  0
VERTEX
  5
10D
  8
SOLID_ENDWALL_TRIM
 10
77.70280615922815
 20
2.655526636633837
 30
0.0
 42
0.4142135623730951
  0
VERTEX
  5
10E
  8
SOLID_ENDWALL_TRIM
 10
77.83280615922814
 20
2.525526636633956
 30
0.0
 42
0.4142135623730951
  0
VERTEX
  5
10F
  8
SOLID_ENDWALL_TRIM
 10
77.96280615922814
 20
2.655526636633837
 30
0.0
 42
0.4142135623730951
  0
VERTEX
  5
110
  8
SOLID_ENDWALL_TRIM
 10
77.83280615922814
 20
2.785526636633719
 30
0.0
 42
0.4142135623730951
  0
SEQEND
  5
5DE
  8
SOLID_ENDWALL_TRIM
  0
POLYLINE
  5
7A
  8
SOLID_ENDWALL_TRIM
 66
     1
 10
0.0
 20
0.0
 30
0.0
 70
     1
  0
VERTEX
  5
111
  8
SOLID_ENDWALL_TRIM
 10
69.80280615922817
 20
1.155526636633838
 30
0.0
 42
0.4142135623730951
  0
VERTEX
  5
112
  8
SOLID_ENDWALL_TRIM
 10
69.93280615922816
 20
1.025526636633956
 30
0.0
 42
0.4142135623730951
  0
VERTEX
  5
113
  8
SOLID_ENDWALL_TRIM
 10
70.06280615922816
 20
1.155526636633838
 30
0.0
 42
0.4142135623730951
  0
VERTEX
  5
114
  8
SOLID_ENDWALL_TRIM
 10
69.93280615922816
 20
1.28552663663372
 30
0.0
 42
0.4142135623730951
  0
SEQEND
  5
5DF
  8
SOLID_ENDWALL_TRIM
  0
POLYLINE
  5
7B
  8
SOLID_ENDWALL_TRIM
 66
     1
 10
0.0
 20
0.0
 30
0.0
 70
     1
  0
VERTEX
  5
115
  8
SOLID_ENDWALL_TRIM
 10
69.80280615922817
 20
2.655526636633837
 30
0.0
 42
0.4142135623730951
  0
VERTEX
  5
116
  8
SOLID_ENDWALL_TRIM
 10
69.93280615922816
 20
2.525526636633956
 30
0.0
 42
0.4142135623730951
  0
VERTEX
  5
117
  8
SOLID_ENDWALL_TRIM
 10
70.06280615922816
 20
2.655526636633837
 30
0.0
 42
0.4142135623730951
  0
VERTEX
  5
118
  8
SOLID_ENDWALL_TRIM
 10
69.93280615922816
 20
2.785526636633719
 30
0.0
 42
0.4142135623730951
  0
SEQEND
  5
5E0
  8
SOLID_ENDWALL_TRIM
  0
POLYLINE
  5
7C
  8
SOLID_ENDWALL_TRIM
 66
     1
 10
0.0
 20
0.0
 30
0.0
 70
     1
  0
VERTEX
  5
119
  8
SOLID_ENDWALL_TRIM
 10
61.90280615922813
 20
1.155526636633838
 30
0.0
 42
0.4142135623730951
  0
VERTEX
  5
11A
  8
SOLID_ENDWALL_TRIM
 10
62.03280615922813
 20
1.025526636633956
 30
0.0
 42
0.4142135623730951
  0
VERTEX
  5
11B
  8
SOLID_ENDWALL_TRIM
 10
62.16280615922813
 20
1.155526636633838
 30
0.0
 42
0.4142135623730951
  0
VERTEX
  5
11C
  8
SOLID_ENDWALL_TRIM
 10
62.03280615922813
 20
1.28552663663372
 30
0.0
 42
0.4142135623730951
  0
SEQEND
  5
5E1
  8
SOLID_ENDWALL_TRIM
  0
POLYLINE
  5
7D
  8
SOLID_ENDWALL_TRIM
 66
     1
 10
0.0
 20
0.0
 30
0.0
 70
     1
  0
VERTEX
  5
11D
  8
SOLID_ENDWALL_TRIM
 10
61.90280615922813
 20
2.655526636633837
 30
0.0
 42
0.4142135623730951
  0
VERTEX
  5
11E
  8
SOLID_ENDWALL_TRIM
 10
62.03280615922813
 20
2.525526636633956
 30
0.0
 42
0.4142135623730951
  0
VERTEX
  5
11F
  8
SOLID_ENDWALL_TRIM
 10
62.16280615922813
 20
2.655526636633837
 30
0.0
 42
0.4142135623730951
  0
VERTEX
  5
120
  8
SOLID_ENDWALL_TRIM
 10
62.03280615922813
 20
2.785526636633719
 30
0.0
 42
0.4142135623730951
  0
SEQEND
  5
5E2
  8
SOLID_ENDWALL_TRIM
  0
POLYLINE
  5
7E
  8
SOLID_ENDWALL_TRIM
 66
     1
 10
0.0
 20
0.0
 30
0.0
 70
     1
  0
VERTEX
  5
121
  8
SOLID_ENDWALL_TRIM
 10
54.00280615922816
 20
1.155526636633838
 30
0.0
 42
0.4142135623730951
  0
VERTEX
  5
122
  8
SOLID_ENDWALL_TRIM
 10
54.13280615922815
 20
1.025526636633956
 30
0.0
 42
0.4142135623730951
  0
VERTEX
  5
123
  8
SOLID_ENDWALL_TRIM
 10
54.26280615922815
 20
1.155526636633838
 30
0.0
 42
0.4142135623730951
  0
VERTEX
  5
124
  8
SOLID_ENDWALL_TRIM
 10
54.13280615922815
 20
1.28552663663372
 30
0.0
 42
0.4142135623730951
  0
SEQEND
  5
5E3
  8
SOLID_ENDWALL_TRIM
  0
POLYLINE
  5
7F
  8
SOLID_ENDWALL_TRIM
 66
     1
 10
0.0
 20
0.0
 30
0.0
 70
     1
  0
VERTEX
  5
125
  8
SOLID_ENDWALL_TRIM
 10
54.00280615922816
 20
2.655526636633837
 30
0.0
 42
0.4142135623730951
  0
VERTEX
  5
126
  8
SOLID_ENDWALL_TRIM
 10
54.13280615922815
 20
2.525526636633956
 30
0.0
 42
0.4142135623730951
  0
VERTEX
  5
127
  8
SOLID_ENDWALL_TRIM
 10
54.26280615922815
 20
2.655526636633837
 30
0.0
 42
0.4142135623730951
  0
VERTEX
  5
128
  8
SOLID_ENDWALL_TRIM
 10
54.13280615922815
 20
2.785526636633719
 30
0.0
 42
0.4142135623730951
  0
SEQEND
  5
5E4
  8
SOLID_ENDWALL_TRIM
  0
POLYLINE
  5
80
  8
SOLID_ENDWALL_TRIM
 66
     1
 10
0.0
 20
0.0
 30
0.0
 70
     1
  0
VERTEX
  5
129
  8
SOLID_ENDWALL_TRIM
 10
46.10280615922812
 20
1.155526636633838
 30
0.0
 42
0.4142135623730951
  0
VERTEX
  5
12A
  8
SOLID_ENDWALL_TRIM
 10
46.23280615922812
 20
1.025526636633956
 30
0.0
 42
0.4142135623730951
  0
VERTEX
  5
12B
  8
SOLID_ENDWALL_TRIM
 10
46.36280615922811
 20
1.155526636633838
 30
0.0
 42
0.4142135623730951
  0
VERTEX
  5
12C
  8
SOLID_ENDWALL_TRIM
 10
46.23280615922812
 20
1.28552663663372
 30
0.0
 42
0.4142135623730951
  0
SEQEND
  5
5E5
  8
SOLID_ENDWALL_TRIM
  0
POLYLINE
  5
81
  8
SOLID_ENDWALL_TRIM
 66
     1
 10
0.0
 20
0.0
 30
0.0
 70
     1
  0
VERTEX
  5
12D
  8
SOLID_ENDWALL_TRIM
 10
46.10280615922812
 20
2.655526636633837
 30
0.0
 42
0.4142135623730951
  0
VERTEX
  5
12E
  8
SOLID_ENDWALL_TRIM
 10
46.23280615922812
 20
2.525526636633956
 30
0.0
 42
0.4142135623730951
  0
VERTEX
  5
12F
  8
SOLID_ENDWALL_TRIM
 10
46.36280615922811
 20
2.655526636633837
 30
0.0
 42
0.4142135623730951
  0
VERTEX
  5
130
  8
SOLID_ENDWALL_TRIM
 10
46.23280615922812
 20
2.785526636633719
 30
0.0
 42
0.4142135623730951
  0
SEQEND
  5
5E6
  8
SOLID_ENDWALL_TRIM
  0
POLYLINE
  5
82
  8
SOLID_ENDWALL_TRIM
 66
     1
 10
0.0
 20
0.0
 30
0.0
 70
     1
  0
VERTEX
  5
131
  8
SOLID_ENDWALL_TRIM
 10
38.20280615922815
 20
1.155526636633852
 30
0.0
 42
0.4142135623730951
  0
VERTEX
  5
132
  8
SOLID_ENDWALL_TRIM
 10
38.33280615922814
 20
1.025526636633971
 30
0.0
 42
0.4142135623730951
  0
VERTEX
  5
133
  8
SOLID_ENDWALL_TRIM
 10
38.46280615922814
 20
1.155526636633852
 30
0.0
 42
0.4142135623730951
  0
VERTEX
  5
134
  8
SOLID_ENDWALL_TRIM
 10
38.33280615922814
 20
1.285526636633734
 30
0.0
 42
0.4142135623730951
  0
SEQEND
  5
5E7
  8
SOLID_ENDWALL_TRIM
  0
POLYLINE
  5
83
  8
SOLID_ENDWALL_TRIM
 66
     1
 10
0.0
 20
0.0
 30
0.0
 70
     1
  0
VERTEX
  5
135
  8
SOLID_ENDWALL_TRIM
 10
38.20280615922815
 20
2.655526636633851
 30
0.0
 42
0.4142135623730951
  0
VERTEX
  5
136
  8
SOLID_ENDWALL_TRIM
 10
38.33280615922814
 20
2.52552663663397
 30
0.0
 42
0.4142135623730951
  0
VERTEX
  5
137
  8
SOLID_ENDWALL_TRIM
 10
38.46280615922814
 20
2.655526636633851
 30
0.0
 42
0.4142135623730951
  0
VERTEX
  5
138
  8
SOLID_ENDWALL_TRIM
 10
38.33280615922814
 20
2.785526636633733
 30
0.0
 42
0.4142135623730951
  0
SEQEND
  5
5E8
  8
SOLID_ENDWALL_TRIM
  0
POLYLINE
  5
84
  8
SOLID_ENDWALL_TRIM
 66
     1
 10
0.0
 20
0.0
 30
0.0
 70
     1
  0
VERTEX
  5
139
  8
SOLID_ENDWALL_TRIM
 10
30.30280615922817
 20
1.155526636633852
 30
0.0
 42
0.4142135623730951
  0
VERTEX
  5
13A
  8
SOLID_ENDWALL_TRIM
 10
30.43280615922816
 20
1.025526636633971
 30
0.0
 42
0.4142135623730951
  0
VERTEX
  5
13B
  8
SOLID_ENDWALL_TRIM
 10
30.56280615922816
 20
1.155526636633852
 30
0.0
 42
0.4142135623730951
  0
VERTEX
  5
13C
  8
SOLID_ENDWALL_TRIM
 10
30.43280615922816
 20
1.285526636633734
 30
0.0
 42
0.4142135623730951
  0
SEQEND
  5
5E9
  8
SOLID_ENDWALL_TRIM
  0
POLYLINE
  5
85
  8
SOLID_ENDWALL_TRIM
 66
     1
 10
0.0
 20
0.0
 30
0.0
 70
     1
  0
VERTEX
  5
13D
  8
SOLID_ENDWALL_TRIM
 10
30.30280615922817
 20
2.655526636633851
 30
0.0
 42
0.4142135623730951
  0
VERTEX
  5
13E
  8
SOLID_ENDWALL_TRIM
 10
30.43280615922816
 20
2.52552663663397
 30
0.0
 42
0.4142135623730951
  0
VERTEX
  5
13F
  8
SOLID_ENDWALL_TRIM
 10
30.56280615922816
 20
2.655526636633851
 30
0.0
 42
0.4142135623730951
  0
VERTEX
  5
140
  8
SOLID_ENDWALL_TRIM
 10
30.43280615922816
 20
2.785526636633733
 30
0.0
 42
0.4142135623730951
  0
SEQEND
  5
5EA
  8
SOLID_ENDWALL_TRIM
  0
POLYLINE
  5
86
  8
SOLID_ENDWALL_TRIM
 66
     1
 10
0.0
 20
0.0
 30
0.0
 70
     1
  0
VERTEX
  5
141
  8
SOLID_ENDWALL_TRIM
 10
22.40280615922813
 20
1.155526636633852
 30
0.0
 42
0.4142135623730951
  0
VERTEX
  5
142
  8
SOLID_ENDWALL_TRIM
 10
22.53280615922813
 20
1.025526636633971
 30
0.0
 42
0.4142135623730951
  0
VERTEX
  5
143
  8
SOLID_ENDWALL_TRIM
 10
22.66280615922813
 20
1.155526636633852
 30
0.0
 42
0.4142135623730951
  0
VERTEX
  5
144
  8
SOLID_ENDWALL_TRIM
 10
22.53280615922813
 20
1.285526636633734
 30
0.0
 42
0.4142135623730951
  0
SEQEND
  5
5EB
  8
SOLID_ENDWALL_TRIM
  0
POLYLINE
  5
87
  8
SOLID_ENDWALL_TRIM
 66
     1
 10
0.0
 20
0.0
 30
0.0
 70
     1
  0
VERTEX
  5
145
  8
SOLID_ENDWALL_TRIM
 10
22.40280615922813
 20
2.655526636633851
 30
0.0
 42
0.4142135623730951
  0
VERTEX
  5
146
  8
SOLID_ENDWALL_TRIM
 10
22.53280615922813
 20
2.52552663663397
 30
0.0
 42
0.4142135623730951
  0
VERTEX
  5
147
  8
SOLID_ENDWALL_TRIM
 10
22.66280615922813
 20
2.655526636633851
 30
0.0
 42
0.4142135623730951
  0
VERTEX
  5
148
  8
SOLID_ENDWALL_TRIM
 10
22.53280615922813
 20
2.785526636633733
 30
0.0
 42
0.4142135623730951
  0
SEQEND
  5
5EC
  8
SOLID_ENDWALL_TRIM
  0
POLYLINE
  5
88
  8
SOLID_ENDWALL_TRIM
 66
     1
 10
0.0
 20
0.0
 30
0.0
 70
     1
  0
VERTEX
  5
149
  8
SOLID_ENDWALL_TRIM
 10
13.32561023913865
 20
2.655530128589476
 30
0.0
 42
0.4142135623730951
  0
VERTEX
  5
14A
  8
SOLID_ENDWALL_TRIM
 10
13.45561023913865
 20
2.525530128589594
 30
0.0
 42
0.4142135623730951
  0
VERTEX
  5
14B
  8
SOLID_ENDWALL_TRIM
 10
13.58561023913865
 20
2.655530128589476
 30
0.0
 42
0.4142135623730951
  0
VERTEX
  5
14C
  8
SOLID_ENDWALL_TRIM
 10
13.45561023913865
 20
2.785530128589357
 30
0.0
 42
0.4142135623730951
  0
SEQEND
  5
5ED
  8
SOLID_ENDWALL_TRIM
  0
POLYLINE
  5
89
  8
SOLID_ENDWALL_TRIM
 66
     1
 10
0.0
 20
0.0
 30
0.0
 70
     1
  0
VERTEX
  5
14D
  8
SOLID_ENDWALL_TRIM
 10
8.014366589339886
 20
3.945673241476753
 30
0.0
 42
0.4142135623730951
  0
VERTEX
  5
14E
  8
SOLID_ENDWALL_TRIM
 10
8.034547496760126
 20
3.762936460899765
 30
0.0
 42
0.4142135623730951
  0
VERTEX
  5
14F
  8
SOLID_ENDWALL_TRIM
 10
8.217284277337228
 20
3.783117368319892
 30
0.0
 42
0.4142135623730951
  0
VERTEX
  5
150
  8
SOLID_ENDWALL_TRIM
 10
8.197103369917102
 20
3.965854148897107
 30
0.0
 42
0.4142135623730951
  0
SEQEND
  5
5EE
  8
SOLID_ENDWALL_TRIM
  0
POLYLINE
  5
8A
  8
SOLID_ENDWALL_TRIM
 66
     1
 10
0.0
 20
0.0
 30
0.0
 70
     1
  0
VERTEX
  5
151
  8
SOLID_ENDWALL_TRIM
 10
92.90192724461593
 20
2.655526829530501
 30
0.0
 42
0.4142135623730951
  0
VERTEX
  5
152
  8
SOLID_ENDWALL_TRIM
 10
93.03192724461593
 20
2.52552682953062
 30
0.0
 42
0.4142135623730951
  0
VERTEX
  5
153
  8
SOLID_ENDWALL_TRIM
 10
93.16192724461592
 20
2.655526829530501
 30
0.0
 42
0.4142135623730951
  0
VERTEX
  5
154
  8
SOLID_ENDWALL_TRIM
 10
93.03192724461593
 20
2.785526829530383
 30
0.0
 42
0.4142135623730951
  0
SEQEND
  5
5EF
  8
SOLID_ENDWALL_TRIM
  0
POLYLINE
  5
8B
  8
SOLID_ENDWALL_TRIM
 66
     1
 10
0.0
 20
0.0
 30
0.0
 70
     1
  0
VERTEX
  5
155
  8
SOLID_ENDWALL_TRIM
 10
85.90192377367674
 20
1.155532350523957
 30
0.0
 42
0.4142135623730951
  0
VERTEX
  5
156
  8
SOLID_ENDWALL_TRIM
 10
86.03192377367674
 20
1.025532350524075
 30
0.0
 42
0.4142135623730951
  0
VERTEX
  5
157
  8
SOLID_ENDWALL_TRIM
 10
86.16192377367673
 20
1.155532350523957
 30
0.0
 42
0.4142135623730951
  0
VERTEX
  5
158
  8
SOLID_ENDWALL_TRIM
 10
86.03192377367674
 20
1.285532350523839
 30
0.0
 42
0.4142135623730951
  0
SEQEND
  5
5F0
  8
SOLID_ENDWALL_TRIM
  0
POLYLINE
  5
8C
  8
SOLID_ENDWALL_TRIM
 66
     1
 10
0.0
 20
0.0
 30
0.0
 70
     1
  0
VERTEX
  5
159
  8
SOLID_ENDWALL_TRIM
 10
77.7027997027306
 20
1.155532350523957
 30
0.0
 42
0.4142135623730951
  0
VERTEX
  5
15A
  8
SOLID_ENDWALL_TRIM
 10
77.8327997027306
 20
1.025532350524075
 30
0.0
 42
0.4142135623730951
  0
VERTEX
  5
15B
  8
SOLID_ENDWALL_TRIM
 10
77.96279970273059
 20
1.155532350523957
 30
0.0
 42
0.4142135623730951
  0
VERTEX
  5
15C
  8
SOLID_ENDWALL_TRIM
 10
77.8327997027306
 20
1.285532350523839
 30
0.0
 42
0.4142135623730951
  0
SEQEND
  5
5F1
  8
SOLID_ENDWALL_TRIM
  0
POLYLINE
  5
8D
  8
SOLID_ENDWALL_TRIM
 66
     1
 10
0.0
 20
0.0
 30
0.0
 70
     1
  0
VERTEX
  5
15D
  8
SOLID_ENDWALL_TRIM
 10
69.80279970273062
 20
1.155532350523957
 30
0.0
 42
0.4142135623730951
  0
VERTEX
  5
15E
  8
SOLID_ENDWALL_TRIM
 10
69.93279970273062
 20
1.025532350524075
 30
0.0
 42
0.4142135623730951
  0
VERTEX
  5
15F
  8
SOLID_ENDWALL_TRIM
 10
70.06279970273062
 20
1.155532350523957
 30
0.0
 42
0.4142135623730951
  0
VERTEX
  5
160
  8
SOLID_ENDWALL_TRIM
 10
69.93279970273062
 20
1.285532350523839
 30
0.0
 42
0.4142135623730951
  0
SEQEND
  5
5F2
  8
SOLID_ENDWALL_TRIM
  0
POLYLINE
  5
8E
  8
SOLID_ENDWALL_TRIM
 66
     1
 10
0.0
 20
0.0
 30
0.0
 70
     1
  0
VERTEX
  5
161
  8
SOLID_ENDWALL_TRIM
 10
61.90279970273059
 20
1.155532350523957
 30
0.0
 42
0.4142135623730951
  0
VERTEX
  5
162
  8
SOLID_ENDWALL_TRIM
 10
62.03279970273059
 20
1.025532350524075
 30
0.0
 42
0.4142135623730951
  0
VERTEX
  5
163
  8
SOLID_ENDWALL_TRIM
 10
62.16279970273058
 20
1.155532350523957
 30
0.0
 42
0.4142135623730951
  0
VERTEX
  5
164
  8
SOLID_ENDWALL_TRIM
 10
62.03279970273059
 20
1.285532350523839
 30
0.0
 42
0.4142135623730951
  0
SEQEND
  5
5F3
  8
SOLID_ENDWALL_TRIM
  0
POLYLINE
  5
8F
  8
SOLID_ENDWALL_TRIM
 66
     1
 10
0.0
 20
0.0
 30
0.0
 70
     1
  0
VERTEX
  5
165
  8
SOLID_ENDWALL_TRIM
 10
54.00279970273061
 20
1.155532350523957
 30
0.0
 42
0.4142135623730951
  0
VERTEX
  5
166
  8
SOLID_ENDWALL_TRIM
 10
54.13279970273061
 20
1.025532350524075
 30
0.0
 42
0.4142135623730951
  0
VERTEX
  5
167
  8
SOLID_ENDWALL_TRIM
 10
54.2627997027306
 20
1.155532350523957
 30
0.0
 42
0.4142135623730951
  0
VERTEX
  5
168
  8
SOLID_ENDWALL_TRIM
 10
54.13279970273061
 20
1.285532350523839
 30
0.0
 42
0.4142135623730951
  0
SEQEND
  5
5F4
  8
SOLID_ENDWALL_TRIM
  0
POLYLINE
  5
90
  8
SOLID_ENDWALL_TRIM
 66
     1
 10
0.0
 20
0.0
 30
0.0
 70
     1
  0
VERTEX
  5
169
  8
SOLID_ENDWALL_TRIM
 10
46.10279970273058
 20
1.155532350523957
 30
0.0
 42
0.4142135623730951
  0
VERTEX
  5
16A
  8
SOLID_ENDWALL_TRIM
 10
46.23279970273057
 20
1.025532350524075
 30
0.0
 42
0.4142135623730951
  0
VERTEX
  5
16B
  8
SOLID_ENDWALL_TRIM
 10
46.36279970273057
 20
1.155532350523957
 30
0.0
 42
0.4142135623730951
  0
VERTEX
  5
16C
  8
SOLID_ENDWALL_TRIM
 10
46.23279970273057
 20
1.285532350523839
 30
0.0
 42
0.4142135623730951
  0
SEQEND
  5
5F5
  8
SOLID_ENDWALL_TRIM
  0
POLYLINE
  5
91
  8
SOLID_ENDWALL_TRIM
 66
     1
 10
0.0
 20
0.0
 30
0.0
 70
     1
  0
VERTEX
  5
16D
  8
SOLID_ENDWALL_TRIM
 10
38.2027997027306
 20
1.155532350523971
 30
0.0
 42
0.4142135623730951
  0
VERTEX
  5
16E
  8
SOLID_ENDWALL_TRIM
 10
38.3327997027306
 20
1.025532350524089
 30
0.0
 42
0.4142135623730951
  0
VERTEX
  5
16F
  8
SOLID_ENDWALL_TRIM
 10
38.46279970273059
 20
1.155532350523971
 30
0.0
 42
0.4142135623730951
  0
VERTEX
  5
170
  8
SOLID_ENDWALL_TRIM
 10
38.3327997027306
 20
1.285532350523853
 30
0.0
 42
0.4142135623730951
  0
SEQEND
  5
5F6
  8
SOLID_ENDWALL_TRIM
  0
POLYLINE
  5
92
  8
SOLID_ENDWALL_TRIM
 66
     1
 10
0.0
 20
0.0
 30
0.0
 70
     1
  0
VERTEX
  5
171
  8
SOLID_ENDWALL_TRIM
 10
30.30279970273062
 20
1.155532350523971
 30
0.0
 42
0.4142135623730951
  0
VERTEX
  5
172
  8
SOLID_ENDWALL_TRIM
 10
30.43279970273062
 20
1.025532350524089
 30
0.0
 42
0.4142135623730951
  0
VERTEX
  5
173
  8
SOLID_ENDWALL_TRIM
 10
30.56279970273062
 20
1.155532350523971
 30
0.0
 42
0.4142135623730951
  0
VERTEX
  5
174
  8
SOLID_ENDWALL_TRIM
 10
30.43279970273062
 20
1.285532350523853
 30
0.0
 42
0.4142135623730951
  0
SEQEND
  5
5F7
  8
SOLID_ENDWALL_TRIM
  0
POLYLINE
  5
93
  8
SOLID_ENDWALL_TRIM
 66
     1
 10
0.0
 20
0.0
 30
0.0
 70
     1
  0
VERTEX
  5
175
  8
SOLID_ENDWALL_TRIM
 10
22.40279970273059
 20
1.155532350523971
 30
0.0
 42
0.4142135623730951
  0
VERTEX
  5
176
  8
SOLID_ENDWALL_TRIM
 10
22.53279970273059
 20
1.025532350524089
 30
0.0
 42
0.4142135623730951
  0
VERTEX
  5
177
  8
SOLID_ENDWALL_TRIM
 10
22.66279970273058
 20
1.155532350523971
 30
0.0
 42
0.4142135623730951
  0
VERTEX
  5
178
  8
SOLID_ENDWALL_TRIM
 10
22.53279970273059
 20
1.285532350523853
 30
0.0
 42
0.4142135623730951
  0
SEQEND
  5
5F8
  8
SOLID_ENDWALL_TRIM
  0
POLYLINE
  5
94
  8
SOLID_ENDWALL_TRIM
 66
     1
 10
0.0
 20
0.0
 30
0.0
 70
     1
  0
VERTEX
  5
179
  8
SOLID_ENDWALL_TRIM
 10
12.57560633006079
 20
1.155528469848549
 30
0.0
 42
0.4142135623730951
  0
VERTEX
  5
17A
  8
SOLID_ENDWALL_TRIM
 10
12.70560633006079
 20
1.02552846984844
 30
0.0
 42
0.4142135623730951
  0
VERTEX
  5
17B
  8
SOLID_ENDWALL_TRIM
 10
12.83560633006078
 20
1.155528469848549
 30
0.0
 42
0.4142135623730951
  0
VERTEX
  5
17C
  8
SOLID_ENDWALL_TRIM
 10
12.70560633006079
 20
1.285528469848658
 30
0.0
 42
0.4142135623730951
  0
SEQEND
  5
5F9
  8
SOLID_ENDWALL_TRIM
  0
POLYLINE
  5
95
  8
SOLID_ENDWALL_TRIM
 66
     1
 10
0.0
 20
0.0
 30
0.0
 70
     1
  0
VERTEX
  5
17D
  8
SOLID_ENDWALL_TRIM
 10
14.04661445174321
 20
1.155532985597632
 30
0.0
 42
0.4142135623730951
  0
VERTEX
  5
17E
  8
SOLID_ENDWALL_TRIM
 10
14.17661445174321
 20
1.02553298559775
 30
0.0
 42
0.4142135623730951
  0
VERTEX
  5
17F
  8
SOLID_ENDWALL_TRIM
 10
14.3066144517432
 20
1.155532985597632
 30
0.0
 42
0.4142135623730951
  0
VERTEX
  5
180
  8
SOLID_ENDWALL_TRIM
 10
14.17661445174321
 20
1.285532985597514
 30
0.0
 42
0.4142135623730951
  0
SEQEND
  5
5FA
  8
SOLID_ENDWALL_TRIM
  0
POLYLINE
  5
96
  8
SOLID_ENDWALL_TRIM
 66
     1
 10
0.0
 20
0.0
 30
0.0
 70
     1
  0
VERTEX
  5
181
  8
SOLID_ENDWALL_TRIM
 10
7.055007138940596
 20
2.791321227498713
 30
0.0
 42
0.4142135623730951
  0
VERTEX
  5
182
  8
SOLID_ENDWALL_TRIM
 10
7.075188046360836
 20
2.608584446921498
 30
0.0
 42
0.4142135623730951
  0
VERTEX
  5
183
  8
SOLID_ENDWALL_TRIM
 10
7.257924826937938
 20
2.628765354341624
 30
0.0
 42
0.4142135623730951
  0
VERTEX
  5
184
  8
SOLID_ENDWALL_TRIM
 10
7.237743919517811
 20
2.81150213491884
 30
0.0
 42
0.4142135623730951
  0
SEQEND
  5
5FB
  8
SOLID_ENDWALL_TRIM
  0
POLYLINE
  5
97
  8
SOLID_ENDWALL_TRIM
 66
     1
 10
0.0
 20
0.0
 30
0.0
 70
     1
  0
VERTEX
  5
185
  8
SOLID_ENDWALL_TRIM
 10
91.66190146359256
 20
1.155540531865584
 30
0.0
 42
0.4142135623730951
  0
VERTEX
  5
186
  8
SOLID_ENDWALL_TRIM
 10
91.53190429108608
 20
1.285543359297365
 30
0.0
 42
0.4142135623730951
  0
VERTEX
  5
187
  8
SOLID_ENDWALL_TRIM
 10
91.40190146365401
 20
1.155546186791001
 30
0.0
 42
0.4142135623730951
  0
VERTEX
  5
188
  8
SOLID_ENDWALL_TRIM
 10
91.5318986361606
 20
1.025543359358992
 30
0.0
 42
0.4142135623730951
  0
SEQEND
  5
5FC
  8
SOLID_ENDWALL_TRIM
  0
POLYLINE
  5
98
  8
SOLID_ENDWALL_TRIM
 66
     1
 10
0.0
 20
0.0
 30
0.0
 70
     1
  0
VERTEX
  5
189
  8
SOLID_ENDWALL_TRIM
 10
94.77072581194017
 20
0.4055266365660807
 30
0.0
  0
VERTEX
  5
18A
  8
SOLID_ENDWALL_TRIM
 10
13.96092507992279
 20
0.4055266365667771
 30
0.0
  0
VERTEX
  5
18B
  8
SOLID_ENDWALL_TRIM
 10
11.95562752205109
 20
0.4055291568250263
 30
0.0
  0
VERTEX
  5
18C
  8
SOLID_ENDWALL_TRIM
 10
11.8288634523978
 20
0.406421087743241
 30
0.0
  0
VERTEX
  5
18D
  8
SOLID_ENDWALL_TRIM
 10
11.69738158712238
 20
0.4091621022694775
 30
0.0
  0
VERTEX
  5
18E
  8
SOLID_ENDWALL_TRIM
 10
11.56629420532948
 20
0.413704882334799
 30
0.0
  0
VERTEX
  5
18F
  8
SOLID_ENDWALL_TRIM
 10
11.43562269060016
 20
0.4200381322285133
 30
0.0
  0
VERTEX
  5
190
  8
SOLID_ENDWALL_TRIM
 10
11.30538826600781
 20
0.428150770345895
 30
0.0
  0
VERTEX
  5
191
  8
SOLID_ENDWALL_TRIM
 10
11.1756120218833
 20
0.4380319375582652
 30
0.0
  0
VERTEX
  5
192
  8
SOLID_ENDWALL_TRIM
 10
11.04631487418186
 20
0.449671011743761
 30
0.0
  0
VERTEX
  5
193
  8
SOLID_ENDWALL_TRIM
 10
10.91751763142196
 20
0.4630576135965052
 30
0.0
  0
VERTEX
  5
194
  8
SOLID_ENDWALL_TRIM
 10
10.78924097147495
 20
0.4781816191294305
 30
0.0
  0
VERTEX
  5
195
  8
SOLID_ENDWALL_TRIM
 10
10.66150547672981
 20
0.4950331667837994
 30
0.0
  0
VERTEX
  5
196
  8
SOLID_ENDWALL_TRIM
 10
10.53433162647519
 20
0.5136026691766924
 30
0.0
  0
VERTEX
  5
197
  8
SOLID_ENDWALL_TRIM
 10
10.40773982272179
 20
0.5338808201827883
 30
0.0
  0
VERTEX
  5
198
  8
SOLID_ENDWALL_TRIM
 10
10.28175038000148
 20
0.555858608434904
 30
0.0
  0
VERTEX
  5
199
  8
SOLID_ENDWALL_TRIM
 10
10.15638360935367
 20
0.5795273134977501
 30
0.0
  0
VERTEX
  5
19A
  8
SOLID_ENDWALL_TRIM
 10
10.03165972322853
 20
0.6048785332801012
 30
0.0
  0
VERTEX
  5
19B
  8
SOLID_ENDWALL_TRIM
 10
9.907598938369063
 20
0.6319041774345928
 30
0.0
  0
VERTEX
  5
19C
  8
SOLID_ENDWALL_TRIM
 10
9.784221468098565
 20
0.6605964779369637
 30
0.0
  0
VERTEX
  5
19D
  8
SOLID_ENDWALL_TRIM
 10
9.661547540132176
 20
0.6909479970359493
 30
0.0
  0
VERTEX
  5
19E
  8
SOLID_ENDWALL_TRIM
 10
9.539597355758758
 20
0.7229516487200849
 30
0.0
  0
VERTEX
  5
19F
  8
SOLID_ENDWALL_TRIM
 10
9.418391227269183
 20
0.756600676167694
 30
0.0
  0
VERTEX
  5
1A0
  8
SOLID_ENDWALL_TRIM
 10
9.297949463672865
 20
0.7918886926723312
 30
0.0
  0
VERTEX
  5
1A1
  8
SOLID_ENDWALL_TRIM
 10
9.178292497437667
 20
0.8288096594693011
 30
0.0
  0
VERTEX
  5
1A2
  8
SOLID_ENDWALL_TRIM
 10
9.059440853297872
 20
0.8673579048004862
 30
0.0
  0
VERTEX
  5
1A3
  8
SOLID_ENDWALL_TRIM
 10
8.941415151288254
 20
0.9075281364362704
 30
0.0
  0
VERTEX
  5
1A4
  8
SOLID_ENDWALL_TRIM
 10
8.824236177299042
 20
0.9493154307779728
 30
0.0
  0
VERTEX
  5
1A5
  8
SOLID_ENDWALL_TRIM
 10
8.707924859465436
 20
0.9927152535051968
 30
0.0
  0
VERTEX
  5
1A6
  8
SOLID_ENDWALL_TRIM
 10
8.592502357560022
 20
1.037723438619254
 30
0.0
  0
VERTEX
  5
1A7
  8
SOLID_ENDWALL_TRIM
 10
8.477990029788941
 20
1.084336212622987
 30
0.0
  0
VERTEX
  5
1A8
  8
SOLID_ENDWALL_TRIM
 10
8.364409450326946
 20
1.132550200807203
 30
0.0
  0
VERTEX
  5
1A9
  8
SOLID_ENDWALL_TRIM
 10
8.251782507932091
 20
1.182362399862144
 30
0.0
  0
VERTEX
  5
1AA
  8
SOLID_ENDWALL_TRIM
 10
8.14013137752221
 20
1.233770198928654
 30
0.0
  0
VERTEX
  5
1AB
  8
SOLID_ENDWALL_TRIM
 10
8.029478560541918
 20
1.286771375369029
 30
0.0
  0
VERTEX
  5
1AC
  8
SOLID_ENDWALL_TRIM
 10
7.919846941507728
 20
1.341364079209201
 30
0.0
  0
VERTEX
  5
1AD
  8
SOLID_ENDWALL_TRIM
 10
7.811259801970607
 20
1.397546836060031
 30
0.0
  0
VERTEX
  5
1AE
  8
SOLID_ENDWALL_TRIM
 10
7.70374087425256
 20
1.45531852983146
 30
0.0
  0
VERTEX
  5
1AF
  8
SOLID_ENDWALL_TRIM
 10
7.597314358159508
 20
1.514678402807079
 30
0.0
  0
VERTEX
  5
1B0
  8
SOLID_ENDWALL_TRIM
 10
7.492004968285926
 20
1.575626039024031
 30
0.0
  0
VERTEX
  5
1B1
  8
SOLID_ENDWALL_TRIM
 10
7.387837980508209
 20
1.638161343367359
 30
0.0
  0
VERTEX
  5
1B2
  8
SOLID_ENDWALL_TRIM
 10
7.284839304489594
 20
1.702284503976956
 30
0.0
  0
VERTEX
  5
1B3
  8
SOLID_ENDWALL_TRIM
 10
7.183035459913242
 20
1.767996008176455
 30
0.0
  0
VERTEX
  5
1B4
  8
SOLID_ENDWALL_TRIM
 10
7.082453675460727
 20
1.835296582504783
 30
0.0
  0
VERTEX
  5
1B5
  8
SOLID_ENDWALL_TRIM
 10
6.983121909646741
 20
1.904187176659947
 30
0.0
  0
VERTEX
  5
1B6
  8
SOLID_ENDWALL_TRIM
 10
6.885068903595254
 20
1.974668923461253
 30
0.0
  0
VERTEX
  5
1B7
  8
SOLID_ENDWALL_TRIM
 10
6.788324279883398
 20
2.046743057595052
 30
0.0
  0
VERTEX
  5
1B8
  8
SOLID_ENDWALL_TRIM
 10
6.692918485927237
 20
2.120410944100116
 30
0.0
  0
VERTEX
  5
1B9
  8
SOLID_ENDWALL_TRIM
 10
6.598882919561163
 20
2.195673968642553
 30
0.0
  0
VERTEX
  5
1BA
  8
SOLID_ENDWALL_TRIM
 10
6.506249957881607
 20
2.272533489814635
 30
0.0
  0
VERTEX
  5
1BB
  8
SOLID_ENDWALL_TRIM
 10
6.415053019325512
 20
2.350990757638613
 30
0.0
  0
VERTEX
  5
1BC
  8
SOLID_ENDWALL_TRIM
 10
6.325326559601251
 20
2.431046880508405
 30
0.0
  0
VERTEX
  5
1BD
  8
SOLID_ENDWALL_TRIM
 10
6.237106175150927
 20
2.512702689885885
 30
0.0
  0
VERTEX
  5
1BE
  8
SOLID_ENDWALL_TRIM
 10
6.150428575310741
 20
2.595958711728202
 30
0.0
  0
VERTEX
  5
1BF
  8
SOLID_ENDWALL_TRIM
 10
6.065331685098442
 20
2.680815004699582
 30
0.0
  0
VERTEX
  5
1C0
  8
SOLID_ENDWALL_TRIM
 10
5.981854601261091
 20
2.767271127444076
 30
0.0
  0
VERTEX
  5
1C1
  8
SOLID_ENDWALL_TRIM
 10
5.90003770609286
 20
2.855325934054747
 30
0.0
  0
VERTEX
  5
1C2
  8
SOLID_ENDWALL_TRIM
 10
5.819922572580197
 20
2.944977568745855
 30
0.0
  0
VERTEX
  5
1C3
  8
SOLID_ENDWALL_TRIM
 10
5.741552056930175
 20
3.036223250646401
 30
0.0
  0
VERTEX
  5
1C4
  8
SOLID_ENDWALL_TRIM
 10
5.664970259212112
 20
3.129059179303624
 30
0.0
  0
VERTEX
  5
1C5
  8
SOLID_ENDWALL_TRIM
 10
5.590222516465417
 20
3.223480388405334
 30
0.0
  0
VERTEX
  5
1C6
  8
SOLID_ENDWALL_TRIM
 10
5.517355377629372
 20
3.319480601013822
 30
0.0
  0
VERTEX
  5
1C7
  8
SOLID_ENDWALL_TRIM
 10
5.446416555374469
 20
3.417052092766027
 30
0.0
  0
VERTEX
  5
1C8
  8
SOLID_ENDWALL_TRIM
 10
5.377454869350856
 20
3.516185548458054
 30
0.0
  0
VERTEX
  5
1C9
  8
SOLID_ENDWALL_TRIM
 10
5.310520198986467
 20
3.616869879448643
 30
0.0
  0
VERTEX
  5
1CA
  8
SOLID_ENDWALL_TRIM
 10
5.24566337279424
 20
3.71909210670725
 30
0.0
  0
VERTEX
  5
1CB
  8
SOLID_ENDWALL_TRIM
 10
5.185679262432984
 20
3.818300225576933
 30
0.0
  0
VERTEX
  5
1CC
  8
SOLID_ENDWALL_TRIM
 10
5.051094074220543
 20
4.048480439643355
 30
0.0
  0
VERTEX
  5
1CD
  8
SOLID_ENDWALL_TRIM
 10
4.921148180319449
 20
4.274729209958934
 30
0.0
  0
VERTEX
  5
1CE
  8
SOLID_ENDWALL_TRIM
 10
4.793192292823676
 20
4.501575396963346
 30
0.0
  0
VERTEX
  5
1CF
  8
SOLID_ENDWALL_TRIM
 10
4.667229485774385
 20
4.729011524804775
 30
0.0
  0
VERTEX
  5
1D0
  8
SOLID_ENDWALL_TRIM
 10
4.543262835722032
 20
4.95703009384266
 30
0.0
  0
VERTEX
  5
1D1
  8
SOLID_ENDWALL_TRIM
 10
4.421295424207472
 20
5.185623574925159
 30
0.0
  0
VERTEX
  5
1D2
  8
SOLID_ENDWALL_TRIM
 10
4.301330332876148
 20
5.414784417241719
 30
0.0
  0
VERTEX
  5
1D3
  8
SOLID_ENDWALL_TRIM
 10
4.183370639817383
 20
5.644505054367584
 30
0.0
  0
VERTEX
  5
1D4
  8
SOLID_ENDWALL_TRIM
 10
4.067419439533239
 20
5.874777863593009
 30
0.0
  0
VERTEX
  5
1D5
  8
SOLID_ENDWALL_TRIM
 10
3.953479805284531
 20
6.105595238751959
 30
0.0
  0
VERTEX
  5
1D6
  8
SOLID_ENDWALL_TRIM
 10
3.841554830697476
 20
6.336949506128405
 30
0.0
  0
VERTEX
  5
1D7
  8
SOLID_ENDWALL_TRIM
 10
3.731647597806785
 20
6.568832986089148
 30
0.0
  0
VERTEX
  5
1D8
  8
SOLID_ENDWALL_TRIM
 10
3.623761191215579
 20
6.801237964311041
 30
0.0
  0
VERTEX
  5
1D9
  8
SOLID_ENDWALL_TRIM
 10
3.517898681640816
 20
7.034156724535534
 30
0.0
  0
VERTEX
  5
1DA
  8
SOLID_ENDWALL_TRIM
 10
3.41406315690432
 20
7.267581479663533
 30
0.0
  0
VERTEX
  5
1DB
  8
SOLID_ENDWALL_TRIM
 10
3.312257687010459
 20
7.501504446643195
 30
0.0
  0
VERTEX
  5
1DC
  8
SOLID_ENDWALL_TRIM
 10
3.212485344553841
 20
7.735917799248965
 30
0.0
  0
VERTEX
  5
1DD
  8
SOLID_ENDWALL_TRIM
 10
3.114749188970053
 20
7.970813703462738
 30
0.0
  0
VERTEX
  5
1DE
  8
SOLID_ENDWALL_TRIM
 10
3.019052291225706
 20
8.206184255552726
 30
0.0
  0
VERTEX
  5
1DF
  8
SOLID_ENDWALL_TRIM
 10
2.925397695555547
 20
8.442021573806015
 30
0.0
  0
VERTEX
  5
1E0
  8
SOLID_ENDWALL_TRIM
 10
2.833788450043302
 20
8.67831772165624
 30
0.0
  0
VERTEX
  5
1E1
  8
SOLID_ENDWALL_TRIM
 10
2.744227595868041
 20
8.91506473222631
 30
0.0
  0
VERTEX
  5
1E2
  8
SOLID_ENDWALL_TRIM
 10
2.656718169246405
 20
9.152254599772787
 30
0.0
  0
VERTEX
  5
1E3
  8
SOLID_ENDWALL_TRIM
 10
2.571263184279986
 20
9.389879324757713
 30
0.0
  0
VERTEX
  5
1E4
  8
SOLID_ENDWALL_TRIM
 10
2.487865656294333
 20
9.627930849389996
 30
0.0
  0
VERTEX
  5
1E5
  8
SOLID_ENDWALL_TRIM
 10
2.406528585841956
 20
9.866401097967865
 30
0.0
  0
VERTEX
  5
1E6
  8
SOLID_ENDWALL_TRIM
 10
2.327254965990223
 20
10.10528195409466
 30
0.0
  0
VERTEX
  5
1E7
  8
SOLID_ENDWALL_TRIM
 10
2.250047769250104
 20
10.34456529733785
 30
0.0
  0
VERTEX
  5
1E8
  8
SOLID_ENDWALL_TRIM
 10
2.174909960238155
 20
10.58424296445633
 30
0.0
  0
VERTEX
  5
1E9
  8
SOLID_ENDWALL_TRIM
 10
2.101844494997126
 20
10.82430674536778
 30
0.0
  0
VERTEX
  5
1EA
  8
SOLID_ENDWALL_TRIM
 10
2.030854304487834
 20
11.06474843576194
 30
0.0
  0
VERTEX
  5
1EB
  8
SOLID_ENDWALL_TRIM
 10
1.961942308190546
 20
11.30555979009574
 30
0.0
  0
VERTEX
  5
1EC
  8
SOLID_ENDWALL_TRIM
 10
1.895111413103282
 20
11.5467325225373
 30
0.0
  0
VERTEX
  5
1ED
  8
SOLID_ENDWALL_TRIM
 10
1.830364507133768
 20
11.78825832484386
 30
0.0
  0
VERTEX
  5
1EE
  8
SOLID_ENDWALL_TRIM
 10
1.767704456134825
 20
12.03012887728215
 30
0.0
  0
VERTEX
  5
1EF
  8
SOLID_ENDWALL_TRIM
 10
1.707134111931114
 20
12.27233581553133
 30
0.0
  0
VERTEX
  5
1F0
  8
SOLID_ENDWALL_TRIM
 10
1.648656304517376
 20
12.51487075655728
 30
0.0
  0
VERTEX
  5
1F1
  8
SOLID_ENDWALL_TRIM
 10
1.592273847096239
 20
12.75772527682653
 30
0.0
  0
VERTEX
  5
1F2
  8
SOLID_ENDWALL_TRIM
 10
1.537989522722628
 20
13.00089096465086
 30
0.0
  0
VERTEX
  5
1F3
  8
SOLID_ENDWALL_TRIM
 10
1.485806104078338
 20
13.24435933285309
 30
0.0
  0
VERTEX
  5
1F4
  8
SOLID_ENDWALL_TRIM
 10
1.435726333567063
 20
13.48812190149834
 30
0.0
  0
VERTEX
  5
1F5
  8
SOLID_ENDWALL_TRIM
 10
1.387752932314643
 20
13.7321701565175
 30
0.0
  0
VERTEX
  5
1F6
  8
SOLID_ENDWALL_TRIM
 10
1.341888595527225
 20
13.97649556763423
 30
0.0
  0
VERTEX
  5
1F7
  8
SOLID_ENDWALL_TRIM
 10
1.298135998254511
 20
14.22108955567052
 30
0.0
  0
VERTEX
  5
1F8
  8
SOLID_ENDWALL_TRIM
 10
1.256497782453098
 20
14.46594355680787
 30
0.0
  0
VERTEX
  5
1F9
  8
SOLID_ENDWALL_TRIM
 10
1.216976570188935
 20
14.71104894885644
 30
0.0
  0
VERTEX
  5
1FA
  8
SOLID_ENDWALL_TRIM
 10
1.179574953231568
 20
14.95639710289612
 30
0.0
  0
VERTEX
  5
1FB
  8
SOLID_ENDWALL_TRIM
 10
1.14429549321625
 20
15.20197938546295
 30
0.0
  0
VERTEX
  5
1FC
  8
SOLID_ENDWALL_TRIM
 10
1.111140727255761
 20
15.44778711560826
 30
0.0
  0
VERTEX
  5
1FD
  8
SOLID_ENDWALL_TRIM
 10
1.080113162639409
 20
15.69381159392429
 30
0.0
  0
VERTEX
  5
1FE
  8
SOLID_ENDWALL_TRIM
 10
1.051215273804191
 20
15.94004412406281
 30
0.0
  0
VERTEX
  5
1FF
  8
SOLID_ENDWALL_TRIM
 10
1.024449506445026
 20
16.18647597826163
 30
0.0
  0
VERTEX
  5
200
  8
SOLID_ENDWALL_TRIM
 10
0.9998182761798396
 20
16.43309840221588
 30
0.0
  0
VERTEX
  5
201
  8
SOLID_ENDWALL_TRIM
 10
0.9773239649215973
 20
16.67990264024189
 30
0.0
  0
VERTEX
  5
202
  8
SOLID_ENDWALL_TRIM
 10
0.9569689221759198
 20
16.92687992772295
 30
0.0
  0
VERTEX
  5
203
  8
SOLID_ENDWALL_TRIM
 10
0.9387554680469655
 20
17.17402144135082
 30
0.0
  0
VERTEX
  5
204
  8
SOLID_ENDWALL_TRIM
 10
0.9226858848559821
 20
17.42131839871541
 30
0.0
  0
VERTEX
  5
205
  8
SOLID_ENDWALL_TRIM
 10
0.9087624238168835
 20
17.6687619701475
 30
0.0
  0
VERTEX
  5
206
  8
SOLID_ENDWALL_TRIM
 10
0.8969873013667801
 20
17.91634332022983
 30
0.0
  0
VERTEX
  5
207
  8
SOLID_ENDWALL_TRIM
 10
0.8873626985975441
 20
18.16405361249377
 30
0.0
  0
VERTEX
  5
208
  8
SOLID_ENDWALL_TRIM
 10
0.8798907622961586
 20
18.4118839879589
 30
0.0
  0
VERTEX
  5
209
  8
SOLID_ENDWALL_TRIM
 10
0.874573603375952
 20
18.65982559544096
 30
0.0
  0
VERTEX
  5
20A
  8
SOLID_ENDWALL_TRIM
 10
0.8714132974146785
 20
18.90786955384789
 30
0.0
  0
VERTEX
  5
20B
  8
SOLID_ENDWALL_TRIM
 10
0.8704250625167468
 20
19.15274150001966
 30
0.0
  0
VERTEX
  5
20C
  8
SOLID_ENDWALL_TRIM
 10
0.8704295690712932
 20
19.16695208676362
 30
0.0
  0
VERTEX
  5
20D
  8
SOLID_ENDWALL_TRIM
 10
3.870429418227161
 20
19.16600073777505
 30
0.0
  0
VERTEX
  5
20E
  8
SOLID_ENDWALL_TRIM
 10
3.8704269823333
 20
19.15831934935073
 30
0.0
  0
VERTEX
  5
20F
  8
SOLID_ENDWALL_TRIM
 10
3.871336173764405
 20
18.93303337233607
 30
0.0
  0
VERTEX
  5
210
  8
SOLID_ENDWALL_TRIM
 10
3.874163847890771
 20
18.71109679559669
 30
0.0
  0
VERTEX
  5
211
  8
SOLID_ENDWALL_TRIM
 10
3.878921410532087
 20
18.48924942604532
 30
0.0
  0
VERTEX
  5
212
  8
SOLID_ENDWALL_TRIM
 10
3.885607124835531
 20
18.26749658642217
 30
0.0
  0
VERTEX
  5
213
  8
SOLID_ENDWALL_TRIM
 10
3.894219289670275
 20
18.04584360779842
 30
0.0
  0
VERTEX
  5
214
  8
SOLID_ENDWALL_TRIM
 10
3.904756239305073
 20
17.82429583058052
 30
0.0
  0
VERTEX
  5
215
  8
SOLID_ENDWALL_TRIM
 10
3.917216343054577
 20
17.60285860550135
 30
0.0
  0
VERTEX
  5
216
  8
SOLID_ENDWALL_TRIM
 10
3.931598004893829
 20
17.38153729459106
 30
0.0
  0
VERTEX
  5
217
  8
SOLID_ENDWALL_TRIM
 10
3.947899663043416
 20
17.16033727212977
 30
0.0
  0
VERTEX
  5
218
  8
SOLID_ENDWALL_TRIM
 10
3.966119789523134
 20
16.93926392558279
 30
0.0
  0
VERTEX
  5
219
  8
SOLID_ENDWALL_TRIM
 10
3.986256889679169
 20
16.71832265651238
 30
0.0
  0
VERTEX
  5
21A
  8
SOLID_ENDWALL_TRIM
 10
4.008309501681481
 20
16.49751888146949
 30
0.0
  0
VERTEX
  5
21B
  8
SOLID_ENDWALL_TRIM
 10
4.032276195996531
 20
16.27685803286232
 30
0.0
  0
VERTEX
  5
21C
  8
SOLID_ENDWALL_TRIM
 10
4.05815557483271
 20
16.05634555979992
 30
0.0
  0
VERTEX
  5
21D
  8
SOLID_ENDWALL_TRIM
 10
4.085946271562136
 20
15.83598692891388
 30
0.0
  0
VERTEX
  5
21E
  8
SOLID_ENDWALL_TRIM
 10
4.115646950119469
 20
15.61578762515006
 30
0.0
  0
VERTEX
  5
21F
  8
SOLID_ENDWALL_TRIM
 10
4.147256304377436
 20
15.39575315253756
 30
0.0
  0
VERTEX
  5
220
  8
SOLID_ENDWALL_TRIM
 10
4.180773057501995
 20
15.17588903493248
 30
0.0
  0
VERTEX
  5
221
  8
SOLID_ENDWALL_TRIM
 10
4.216195961287951
 20
14.95620081672592
 30
0.0
  0
VERTEX
  5
222
  8
SOLID_ENDWALL_TRIM
 10
4.253523795474905
 20
14.73669406353343
 30
0.0
  0
VERTEX
  5
223
  8
SOLID_ENDWALL_TRIM
 10
4.292755367047505
 20
14.51737436284981
 30
0.0
  0
VERTEX
  5
224
  8
SOLID_ENDWALL_TRIM
 10
4.333889509517405
 20
14.29824732467551
 30
0.0
  0
VERTEX
  5
225
  8
SOLID_ENDWALL_TRIM
 10
4.376925082192372
 20
14.07931858211583
 30
0.0
  0
VERTEX
  5
226
  8
SOLID_ENDWALL_TRIM
 10
4.421860969431066
 20
13.86059379194586
 30
0.0
  0
VERTEX
  5
227
  8
SOLID_ENDWALL_TRIM
 10
4.468696079884523
 20
13.64207863515054
 30
0.0
  0
VERTEX
  5
228
  8
SOLID_ENDWALL_TRIM
 10
4.517429345728544
 20
13.42377881742965
 30
0.0
  0
VERTEX
  5
229
  8
SOLID_ENDWALL_TRIM
 10
4.568059721884367
 20
13.20570006967415
 30
0.0
  0
VERTEX
  5
22A
  8
SOLID_ENDWALL_TRIM
 10
4.620586185231275
 20
12.98784814841298
 30
0.0
  0
VERTEX
  5
22B
  8
SOLID_ENDWALL_TRIM
 10
4.675007733813061
 20
12.77022883622709
 30
0.0
  0
VERTEX
  5
22C
  8
SOLID_ENDWALL_TRIM
 10
4.731323386036877
 20
12.55284794213372
 30
0.0
  0
VERTEX
  5
22D
  8
SOLID_ENDWALL_TRIM
 10
4.789532179867876
 20
12.33571130194065
 30
0.0
  0
VERTEX
  5
22E
  8
SOLID_ENDWALL_TRIM
 10
4.849633172019651
 20
12.11882477856858
 30
0.0
  0
VERTEX
  5
22F
  8
SOLID_ENDWALL_TRIM
 10
4.911625437143414
 20
11.9021942623454
 30
0.0
  0
VERTEX
  5
230
  8
SOLID_ENDWALL_TRIM
 10
4.975508067013436
 20
11.68582567126765
 30
0.0
  0
VERTEX
  5
231
  8
SOLID_ENDWALL_TRIM
 10
5.04128016971498
 20
11.4697249512356
 30
0.0
  0
VERTEX
  5
232
  8
SOLID_ENDWALL_TRIM
 10
5.108940868830985
 20
11.25389807625703
 30
0.0
  0
VERTEX
  5
233
  8
SOLID_ENDWALL_TRIM
 10
5.178489302631363
 20
11.03835104862043
 30
0.0
  0
VERTEX
  5
234
  8
SOLID_ENDWALL_TRIM
 10
5.249924623265258
 20
10.82308989904464
 30
0.0
  0
VERTEX
  5
235
  8
SOLID_ENDWALL_TRIM
 10
5.323245995957507
 20
10.60812068679348
 30
0.0
  0
VERTEX
  5
236
  8
SOLID_ENDWALL_TRIM
 10
5.398452598208507
 20
10.39344949977095
 30
0.0
  0
VERTEX
  5
237
  8
SOLID_ENDWALL_TRIM
 10
5.475543619002167
 20
10.17908245458199
 30
0.0
  0
VERTEX
  5
238
  8
SOLID_ENDWALL_TRIM
 10
5.554518258018732
 20
9.965025696571102
 30
0.0
  0
VERTEX
  5
239
  8
SOLID_ENDWALL_TRIM
 10
5.635375724855805
 20
9.75128539983376
 30
0.0
  0
VERTEX
  5
23A
  8
SOLID_ENDWALL_TRIM
 10
5.718115238258235
 20
9.537867767202952
 30
0.0
  0
VERTEX
  5
23B
  8
SOLID_ENDWALL_TRIM
 10
5.802736025355387
 20
9.32477903021123
 30
0.0
  0
VERTEX
  5
23C
  8
SOLID_ENDWALL_TRIM
 10
5.889237320911263
 20
9.112025449028406
 30
0.0
  0
VERTEX
  5
23D
  8
SOLID_ENDWALL_TRIM
 10
5.977618366582476
 20
8.89961331237606
 30
0.0
  0
VERTEX
  5
23E
  8
SOLID_ENDWALL_TRIM
 10
6.067878410188371
 20
8.687548937422035
 30
0.0
  0
VERTEX
  5
23F
  8
SOLID_ENDWALL_TRIM
 10
6.160016704994121
 20
8.47583866964811
 30
0.0
  0
VERTEX
  5
240
  8
SOLID_ENDWALL_TRIM
 10
6.254032509004276
 20
8.264488882702208
 30
0.0
  0
VERTEX
  5
241
  8
SOLID_ENDWALL_TRIM
 10
6.349925084271547
 20
8.05350597822695
 30
0.0
  0
VERTEX
  5
242
  8
SOLID_ENDWALL_TRIM
 10
6.447693696216959
 20
7.842896385670485
 30
0.0
  0
VERTEX
  5
243
  8
SOLID_ENDWALL_TRIM
 10
6.547337612965237
 20
7.632666562077758
 30
0.0
  0
VERTEX
  5
244
  8
SOLID_ENDWALL_TRIM
 10
6.648856104694516
 20
7.422822991865416
 30
0.0
  0
VERTEX
  5
245
  8
SOLID_ENDWALL_TRIM
 10
6.75224844300061
 20
7.213372186576691
 30
0.0
  0
VERTEX
  5
246
  8
SOLID_ENDWALL_TRIM
 10
6.857513900276047
 20
7.004320684624928
 30
0.0
  0
VERTEX
  5
247
  8
SOLID_ENDWALL_TRIM
 10
6.964651749104917
 20
6.795675051016189
 30
0.0
  0
VERTEX
  5
248
  8
SOLID_ENDWALL_TRIM
 10
7.073661261674204
 20
6.587441877061393
 30
0.0
  0
VERTEX
  5
249
  8
SOLID_ENDWALL_TRIM
 10
7.184541709198868
 20
6.379627780073007
 30
0.0
  0
VERTEX
  5
24A
  8
SOLID_ENDWALL_TRIM
 10
7.297292361365805
 20
6.17223940304808
 30
0.0
  0
VERTEX
  5
24B
  8
SOLID_ENDWALL_TRIM
 10
7.411912485791561
 20
5.96528341434083
 30
0.0
  0
VERTEX
  5
24C
  8
SOLID_ENDWALL_TRIM
 10
7.528401347498232
 20
5.75876650732249
 30
0.0
  0
VERTEX
  5
24D
  8
SOLID_ENDWALL_TRIM
 10
7.646758208405856
 20
5.552695400030244
 30
0.0
  0
VERTEX
  5
24E
  8
SOLID_ENDWALL_TRIM
 10
7.764329964897399
 20
5.351613153010077
 30
0.0
  0
VERTEX
  5
24F
  8
SOLID_ENDWALL_TRIM
 10
7.796148428084791
 20
5.298988385139011
 30
0.0
  0
VERTEX
  5
250
  8
SOLID_ENDWALL_TRIM
 10
7.82653650642618
 20
5.251093086500588
 30
0.0
  0
VERTEX
  5
251
  8
SOLID_ENDWALL_TRIM
 10
7.858244843618706
 20
5.203396837336924
 30
0.0
  0
VERTEX
  5
252
  8
SOLID_ENDWALL_TRIM
 10
7.8912800245418
 20
5.155908270264546
 30
0.0
  0
VERTEX
  5
253
  8
SOLID_ENDWALL_TRIM
 10
7.925647677723703
 20
5.108637916948793
 30
0.0
  0
VERTEX
  5
254
  8
SOLID_ENDWALL_TRIM
 10
7.961352388179819
 20
5.0615980599635
 30
0.0
  0
VERTEX
  5
255
  8
SOLID_ENDWALL_TRIM
 10
7.99839762693756
 20
5.01480258347152
 30
0.0
  0
VERTEX
  5
256
  8
SOLID_ENDWALL_TRIM
 10
8.036785696285449
 20
4.968266824597378
 30
0.0
  0
VERTEX
  5
257
  8
SOLID_ENDWALL_TRIM
 10
8.076517689658374
 20
4.922007427101618
 30
0.0
  0
VERTEX
  5
258
  8
SOLID_ENDWALL_TRIM
 10
8.117593465004859
 20
4.876042198714059
 30
0.0
  0
VERTEX
  5
259
  8
SOLID_ENDWALL_TRIM
 10
8.160011630400561
 20
4.830389973264629
 30
0.0
  0
VERTEX
  5
25A
  8
SOLID_ENDWALL_TRIM
 10
8.203769540653582
 20
4.785070478542422
 30
0.0
  0
VERTEX
  5
25B
  8
SOLID_ENDWALL_TRIM
 10
8.24886330367059
 20
4.74010421058034
 30
0.0
  0
VERTEX
  5
25C
  8
SOLID_ENDWALL_TRIM
 10
8.295287795363322
 20
4.695512314892368
 30
0.0
  0
VERTEX
  5
25D
  8
SOLID_ENDWALL_TRIM
 10
8.34303668192257
 20
4.651316475026362
 30
0.0
  0
VERTEX
  5
25E
  8
SOLID_ENDWALL_TRIM
 10
8.392102448364938
 20
4.607538808628362
 30
0.0
  0
VERTEX
  5
25F
  8
SOLID_ENDWALL_TRIM
 10
8.442476432297383
 20
4.564201771103909
 30
0.0
  0
VERTEX
  5
260
  8
SOLID_ENDWALL_TRIM
 10
8.49414886195342
 20
4.521328066840907
 30
0.0
  0
VERTEX
  5
261
  8
SOLID_ENDWALL_TRIM
 10
8.547108897622422
 20
4.478940567862138
 30
0.0
  0
VERTEX
  5
262
  8
SOLID_ENDWALL_TRIM
 10
8.601344675670532
 20
4.437062239716908
 30
0.0
  0
VERTEX
  5
263
  8
SOLID_ENDWALL_TRIM
 10
8.656843354451269
 20
4.395716074341236
 30
0.0
  0
VERTEX
  5
264
  8
SOLID_ENDWALL_TRIM
 10
8.713591161468742
 20
4.354925029587377
 30
0.0
  0
VERTEX
  5
265
  8
SOLID_ENDWALL_TRIM
 10
8.7715734412497
 20
4.314711975073634
 30
0.0
  0
VERTEX
  5
266
  8
SOLID_ENDWALL_TRIM
 10
8.830774703443979
 20
4.275099643993882
 30
0.0
  0
VERTEX
  5
267
  8
SOLID_ENDWALL_TRIM
 10
8.891178670736565
 20
4.236110590513419
 30
0.0
  0
VERTEX
  5
268
  8
SOLID_ENDWALL_TRIM
 10
8.952768326243756
 20
4.197767152356902
 30
0.0
  0
VERTEX
  5
269
  8
SOLID_ENDWALL_TRIM
 10
9.015525960090542
 20
4.160091418213198
 30
0.0
  0
VERTEX
  5
26A
  8
SOLID_ENDWALL_TRIM
 10
9.079433214946278
 20
4.123105199576059
 30
0.0
  0
VERTEX
  5
26B
  8
SOLID_ENDWALL_TRIM
 10
9.144471130328895
 20
4.086830006652291
 30
0.0
  0
VERTEX
  5
26C
  8
SOLID_ENDWALL_TRIM
 10
9.210620185529308
 20
4.051287027988166
 30
0.0
  0
VERTEX
  5
26D
  8
SOLID_ENDWALL_TRIM
 10
9.277860341060716
 20
4.016497113471416
 30
0.0
  0
VERTEX
  5
26E
  8
SOLID_ENDWALL_TRIM
 10
9.346171078544614
 20
3.982480760390501
 30
0.0
  0
VERTEX
  5
26F
  8
SOLID_ENDWALL_TRIM
 10
9.415531439001427
 20
3.949258102252371
 30
0.0
  0
VERTEX
  5
270
  8
SOLID_ENDWALL_TRIM
 10
9.485920059509056
 20
3.916848900075421
 30
0.0
  0
VERTEX
  5
271
  8
SOLID_ENDWALL_TRIM
 10
9.557315208242983
 20
3.885272535896603
 30
0.0
  0
VERTEX
  5
272
  8
SOLID_ENDWALL_TRIM
 10
9.629694817906795
 20
3.854548008253061
 30
0.0
  0
VERTEX
  5
273
  8
SOLID_ENDWALL_TRIM
 10
9.70303651757223
 20
3.824693929419538
 30
0.0
  0
VERTEX
  5
274
  8
SOLID_ENDWALL_TRIM
 10
9.777317662994221
 20
3.795728524192838
 30
0.0
  0
VERTEX
  5
275
  8
SOLID_ENDWALL_TRIM
 10
9.852515365430747
 20
3.767669630044622
 30
0.0
  0
VERTEX
  5
276
  8
SOLID_ENDWALL_TRIM
 10
9.928606519029529
 20
3.740534698479961
 30
0.0
  0
VERTEX
  5
277
  8
SOLID_ENDWALL_TRIM
 10
10.00556782685709
 20
3.714340797443184
 30
0.0
  0
VERTEX
  5
278
  8
SOLID_ENDWALL_TRIM
 10
10.08337582561859
 20
3.689104614645031
 30
0.0
  0
VERTEX
  5
279
  8
SOLID_ENDWALL_TRIM
 10
10.16200690915144
 20
3.664842461691989
 30
0.0
  0
VERTEX
  5
27A
  8
SOLID_ENDWALL_TRIM
 10
10.24143735076251
 20
3.64157027890775
 30
0.0
  0
VERTEX
  5
27B
  8
SOLID_ENDWALL_TRIM
 10
10.32164332446092
 20
3.619303640766759
 30
0.0
  0
VERTEX
  5
27C
  8
SOLID_ENDWALL_TRIM
 10
10.40260092519344
 20
3.598057761844586
 30
0.0
  0
VERTEX
  5
27D
  8
SOLID_ENDWALL_TRIM
 10
10.48428618811266
 20
3.577847503228952
 30
0.0
  0
VERTEX
  5
27E
  8
SOLID_ENDWALL_TRIM
 10
10.56667510697054
 20
3.558687379330479
 30
0.0
  0
VERTEX
  5
27F
  8
SOLID_ENDWALL_TRIM
 10
10.64974365169752
 20
3.540591565037004
 30
0.0
  0
VERTEX
  5
280
  8
SOLID_ENDWALL_TRIM
 10
10.73346778521301
 20
3.523573903183262
 30
0.0
  0
VERTEX
  5
281
  8
SOLID_ENDWALL_TRIM
 10
10.8178234795576
 20
3.50764791229227
 30
0.0
  0
VERTEX
  5
282
  8
SOLID_ENDWALL_TRIM
 10
10.90278673137419
 20
3.49282679456752
 30
0.0
  0
VERTEX
  5
283
  8
SOLID_ENDWALL_TRIM
 10
10.98833357679888
 20
3.479123444121398
 30
0.0
  0
VERTEX
  5
284
  8
SOLID_ENDWALL_TRIM
 10
11.07444010582179
 20
3.466550455416211
 30
0.0
  0
VERTEX
  5
285
  8
SOLID_ENDWALL_TRIM
 10
11.16108247614244
 20
3.45512013192075
 30
0.0
  0
VERTEX
  5
286
  8
SOLID_ENDWALL_TRIM
 10
11.24823692658134
 20
3.444844494973097
 30
0.0
  0
VERTEX
  5
287
  8
SOLID_ENDWALL_TRIM
 10
11.33587979006262
 20
3.435735292851234
 30
0.0
  0
VERTEX
  5
288
  8
SOLID_ENDWALL_TRIM
 10
11.42398750621311
 20
3.427804010061265
 30
0.0
  0
VERTEX
  5
289
  8
SOLID_ENDWALL_TRIM
 10
11.51253663361064
 20
3.421061876841633
 30
0.0
  0
VERTEX
  5
28A
  8
SOLID_ENDWALL_TRIM
 10
11.60150386168681
 20
3.415519878905399
 30
0.0
  0
VERTEX
  5
28B
  8
SOLID_ENDWALL_TRIM
 10
11.69086602231795
 20
3.411188767425358
 30
0.0
  0
VERTEX
  5
28C
  8
SOLID_ENDWALL_TRIM
 10
11.78060010111682
 20
3.408079069280631
 30
0.0
  0
VERTEX
  5
28D
  8
SOLID_ENDWALL_TRIM
 10
11.87068324842852
 20
3.40620109758089
 30
0.0
  0
VERTEX
  5
28E
  8
SOLID_ENDWALL_TRIM
 10
11.96618348928604
 20
3.405529143563683
 30
0.0
  0
VERTEX
  5
28F
  8
SOLID_ENDWALL_TRIM
 10
13.96092696512568
 20
3.405526636565525
 30
0.0
  0
VERTEX
  5
290
  8
SOLID_ENDWALL_TRIM
 10
94.77072581194017
 20
3.405526636566079
 30
0.0
  0
SEQEND
  5
5FD
  8
SOLID_ENDWALL_TRIM
  0
POLYLINE
  5
9A
  8
DOOR_OPTION_TRIM
 66
     1
 10
0.0
 20
0.0
 30
0.0
 70
     1
  0
VERTEX
  5
291
  8
DOOR_OPTION_TRIM
 10
85.9019302301743
 20
1.155526636632075
 30
0.0
 42
0.4142135623730951
  0
VERTEX
  5
292
  8
DOOR_OPTION_TRIM
 10
86.0319302301743
 20
1.025526636632193
 30
0.0
 42
0.4142135623730951
  0
VERTEX
  5
293
  8
DOOR_OPTION_TRIM
 10
86.16193023017429
 20
1.155526636632075
 30
0.0
 42
0.4142135623730951
  0
VERTEX
  5
294
  8
DOOR_OPTION_TRIM
 10
86.0319302301743
 20
1.285526636631957
 30
0.0
 42
0.4142135623730951
  0
SEQEND
  5
5FE
  8
DOOR_OPTION_TRIM
  0
POLYLINE
  5
9B
  8
DOOR_OPTION_TRIM
 66
     1
 10
0.0
 20
0.0
 30
0.0
 70
     1
  0
VERTEX
  5
295
  8
DOOR_OPTION_TRIM
 10
77.70280615922816
 20
1.155526636632075
 30
0.0
 42
0.4142135623730951
  0
VERTEX
  5
296
  8
DOOR_OPTION_TRIM
 10
77.83280615922816
 20
1.025526636632193
 30
0.0
 42
0.4142135623730951
  0
VERTEX
  5
297
  8
DOOR_OPTION_TRIM
 10
77.96280615922815
 20
1.155526636632075
 30
0.0
 42
0.4142135623730951
  0
VERTEX
  5
298
  8
DOOR_OPTION_TRIM
 10
77.83280615922816
 20
1.285526636631957
 30
0.0
 42
0.4142135623730951
  0
SEQEND
  5
5FF
  8
DOOR_OPTION_TRIM
  0
POLYLINE
  5
9C
  8
DOOR_OPTION_TRIM
 66
     1
 10
0.0
 20
0.0
 30
0.0
 70
     1
  0
VERTEX
  5
299
  8
DOOR_OPTION_TRIM
 10
69.80280615922818
 20
1.155526636632075
 30
0.0
 42
0.4142135623730951
  0
VERTEX
  5
29A
  8
DOOR_OPTION_TRIM
 10
69.93280615922818
 20
1.025526636632193
 30
0.0
 42
0.4142135623730951
  0
VERTEX
  5
29B
  8
DOOR_OPTION_TRIM
 10
70.06280615922817
 20
1.155526636632075
 30
0.0
 42
0.4142135623730951
  0
VERTEX
  5
29C
  8
DOOR_OPTION_TRIM
 10
69.93280615922818
 20
1.285526636631957
 30
0.0
 42
0.4142135623730951
  0
SEQEND
  5
600
  8
DOOR_OPTION_TRIM
  0
POLYLINE
  5
9D
  8
DOOR_OPTION_TRIM
 66
     1
 10
0.0
 20
0.0
 30
0.0
 70
     1
  0
VERTEX
  5
29D
  8
DOOR_OPTION_TRIM
 10
61.90280615922814
 20
1.155526636632075
 30
0.0
 42
0.4142135623730951
  0
VERTEX
  5
29E
  8
DOOR_OPTION_TRIM
 10
62.03280615922814
 20
1.025526636632193
 30
0.0
 42
0.4142135623730951
  0
VERTEX
  5
29F
  8
DOOR_OPTION_TRIM
 10
62.16280615922813
 20
1.155526636632075
 30
0.0
 42
0.4142135623730951
  0
VERTEX
  5
2A0
  8
DOOR_OPTION_TRIM
 10
62.03280615922814
 20
1.285526636631957
 30
0.0
 42
0.4142135623730951
  0
SEQEND
  5
601
  8
DOOR_OPTION_TRIM
  0
POLYLINE
  5
9E
  8
DOOR_OPTION_TRIM
 66
     1
 10
0.0
 20
0.0
 30
0.0
 70
     1
  0
VERTEX
  5
2A1
  8
DOOR_OPTION_TRIM
 10
54.00280615922816
 20
1.155526636632075
 30
0.0
 42
0.4142135623730951
  0
VERTEX
  5
2A2
  8
DOOR_OPTION_TRIM
 10
54.13280615922816
 20
1.025526636632193
 30
0.0
 42
0.4142135623730951
  0
VERTEX
  5
2A3
  8
DOOR_OPTION_TRIM
 10
54.26280615922816
 20
1.155526636632075
 30
0.0
 42
0.4142135623730951
  0
VERTEX
  5
2A4
  8
DOOR_OPTION_TRIM
 10
54.13280615922816
 20
1.285526636631957
 30
0.0
 42
0.4142135623730951
  0
SEQEND
  5
602
  8
DOOR_OPTION_TRIM
  0
POLYLINE
  5
9F
  8
DOOR_OPTION_TRIM
 66
     1
 10
0.0
 20
0.0
 30
0.0
 70
     1
  0
VERTEX
  5
2A5
  8
DOOR_OPTION_TRIM
 10
46.10280615922813
 20
1.155526636632075
 30
0.0
 42
0.4142135623730951
  0
VERTEX
  5
2A6
  8
DOOR_OPTION_TRIM
 10
46.23280615922813
 20
1.025526636632193
 30
0.0
 42
0.4142135623730951
  0
VERTEX
  5
2A7
  8
DOOR_OPTION_TRIM
 10
46.36280615922812
 20
1.155526636632075
 30
0.0
 42
0.4142135623730951
  0
VERTEX
  5
2A8
  8
DOOR_OPTION_TRIM
 10
46.23280615922813
 20
1.285526636631957
 30
0.0
 42
0.4142135623730951
  0
SEQEND
  5
603
  8
DOOR_OPTION_TRIM
  0
POLYLINE
  5
A0
  8
DOOR_OPTION_TRIM
 66
     1
 10
0.0
 20
0.0
 30
0.0
 70
     1
  0
VERTEX
  5
2A9
  8
DOOR_OPTION_TRIM
 10
38.20280615922815
 20
1.155526636632075
 30
0.0
 42
0.4142135623730951
  0
VERTEX
  5
2AA
  8
DOOR_OPTION_TRIM
 10
38.33280615922815
 20
1.025526636632193
 30
0.0
 42
0.4142135623730951
  0
VERTEX
  5
2AB
  8
DOOR_OPTION_TRIM
 10
38.46280615922814
 20
1.155526636632075
 30
0.0
 42
0.4142135623730951
  0
VERTEX
  5
2AC
  8
DOOR_OPTION_TRIM
 10
38.33280615922815
 20
1.285526636631957
 30
0.0
 42
0.4142135623730951
  0
SEQEND
  5
604
  8
DOOR_OPTION_TRIM
  0
POLYLINE
  5
A1
  8
DOOR_OPTION_TRIM
 66
     1
 10
0.0
 20
0.0
 30
0.0
 70
     1
  0
VERTEX
  5
2AD
  8
DOOR_OPTION_TRIM
 10
30.30280615922818
 20
1.155526636632089
 30
0.0
 42
0.4142135623730951
  0
VERTEX
  5
2AE
  8
DOOR_OPTION_TRIM
 10
30.43280615922817
 20
1.025526636632208
 30
0.0
 42
0.4142135623730951
  0
VERTEX
  5
2AF
  8
DOOR_OPTION_TRIM
 10
30.56280615922817
 20
1.155526636632089
 30
0.0
 42
0.4142135623730951
  0
VERTEX
  5
2B0
  8
DOOR_OPTION_TRIM
 10
30.43280615922817
 20
1.285526636631971
 30
0.0
 42
0.4142135623730951
  0
SEQEND
  5
605
  8
DOOR_OPTION_TRIM
  0
POLYLINE
  5
A2
  8
DOOR_OPTION_TRIM
 66
     1
 10
0.0
 20
0.0
 30
0.0
 70
     1
  0
VERTEX
  5
2B1
  8
DOOR_OPTION_TRIM
 10
22.40280615922815
 20
1.155526636632089
 30
0.0
 42
0.4142135623730951
  0
VERTEX
  5
2B2
  8
DOOR_OPTION_TRIM
 10
22.53280615922814
 20
1.025526636632208
 30
0.0
 42
0.4142135623730951
  0
VERTEX
  5
2B3
  8
DOOR_OPTION_TRIM
 10
22.66280615922814
 20
1.155526636632089
 30
0.0
 42
0.4142135623730951
  0
VERTEX
  5
2B4
  8
DOOR_OPTION_TRIM
 10
22.53280615922814
 20
1.285526636631971
 30
0.0
 42
0.4142135623730951
  0
SEQEND
  5
606
  8
DOOR_OPTION_TRIM
  0
POLYLINE
  5
A3
  8
DOOR_OPTION_TRIM
 66
     1
 10
0.0
 20
0.0
 30
0.0
 70
     1
  0
VERTEX
  5
2B5
  8
DOOR_OPTION_TRIM
 10
85.90192377367676
 20
1.155532350522193
 30
0.0
 42
0.4142135623730951
  0
VERTEX
  5
2B6
  8
DOOR_OPTION_TRIM
 10
86.03192377367675
 20
1.025532350522312
 30
0.0
 42
0.4142135623730951
  0
VERTEX
  5
2B7
  8
DOOR_OPTION_TRIM
 10
86.16192377367675
 20
1.155532350522193
 30
0.0
 42
0.4142135623730951
  0
VERTEX
  5
2B8
  8
DOOR_OPTION_TRIM
 10
86.03192377367675
 20
1.285532350522075
 30
0.0
 42
0.4142135623730951
  0
SEQEND
  5
607
  8
DOOR_OPTION_TRIM
  0
POLYLINE
  5
A4
  8
DOOR_OPTION_TRIM
 66
     1
 10
0.0
 20
0.0
 30
0.0
 70
     1
  0
VERTEX
  5
2B9
  8
DOOR_OPTION_TRIM
 10
77.70279970273062
 20
1.155532350522193
 30
0.0
 42
0.4142135623730951
  0
VERTEX
  5
2BA
  8
DOOR_OPTION_TRIM
 10
77.83279970273061
 20
1.025532350522312
 30
0.0
 42
0.4142135623730951
  0
VERTEX
  5
2BB
  8
DOOR_OPTION_TRIM
 10
77.9627997027306
 20
1.155532350522193
 30
0.0
 42
0.4142135623730951
  0
VERTEX
  5
2BC
  8
DOOR_OPTION_TRIM
 10
77.83279970273061
 20
1.285532350522075
 30
0.0
 42
0.4142135623730951
  0
SEQEND
  5
608
  8
DOOR_OPTION_TRIM
  0
POLYLINE
  5
A5
  8
DOOR_OPTION_TRIM
 66
     1
 10
0.0
 20
0.0
 30
0.0
 70
     1
  0
VERTEX
  5
2BD
  8
DOOR_OPTION_TRIM
 10
69.80279970273064
 20
1.155532350522193
 30
0.0
 42
0.4142135623730951
  0
VERTEX
  5
2BE
  8
DOOR_OPTION_TRIM
 10
69.93279970273063
 20
1.025532350522312
 30
0.0
 42
0.4142135623730951
  0
VERTEX
  5
2BF
  8
DOOR_OPTION_TRIM
 10
70.06279970273063
 20
1.155532350522193
 30
0.0
 42
0.4142135623730951
  0
VERTEX
  5
2C0
  8
DOOR_OPTION_TRIM
 10
69.93279970273063
 20
1.285532350522075
 30
0.0
 42
0.4142135623730951
  0
SEQEND
  5
609
  8
DOOR_OPTION_TRIM
  0
POLYLINE
  5
A6
  8
DOOR_OPTION_TRIM
 66
     1
 10
0.0
 20
0.0
 30
0.0
 70
     1
  0
VERTEX
  5
2C1
  8
DOOR_OPTION_TRIM
 10
61.9027997027306
 20
1.155532350522193
 30
0.0
 42
0.4142135623730951
  0
VERTEX
  5
2C2
  8
DOOR_OPTION_TRIM
 10
62.03279970273059
 20
1.025532350522312
 30
0.0
 42
0.4142135623730951
  0
VERTEX
  5
2C3
  8
DOOR_OPTION_TRIM
 10
62.16279970273059
 20
1.155532350522193
 30
0.0
 42
0.4142135623730951
  0
VERTEX
  5
2C4
  8
DOOR_OPTION_TRIM
 10
62.03279970273059
 20
1.285532350522075
 30
0.0
 42
0.4142135623730951
  0
SEQEND
  5
60A
  8
DOOR_OPTION_TRIM
  0
POLYLINE
  5
A7
  8
DOOR_OPTION_TRIM
 66
     1
 10
0.0
 20
0.0
 30
0.0
 70
     1
  0
VERTEX
  5
2C5
  8
DOOR_OPTION_TRIM
 10
54.00279970273062
 20
1.155532350522193
 30
0.0
 42
0.4142135623730951
  0
VERTEX
  5
2C6
  8
DOOR_OPTION_TRIM
 10
54.13279970273062
 20
1.025532350522312
 30
0.0
 42
0.4142135623730951
  0
VERTEX
  5
2C7
  8
DOOR_OPTION_TRIM
 10
54.26279970273061
 20
1.155532350522193
 30
0.0
 42
0.4142135623730951
  0
VERTEX
  5
2C8
  8
DOOR_OPTION_TRIM
 10
54.13279970273062
 20
1.285532350522075
 30
0.0
 42
0.4142135623730951
  0
SEQEND
  5
60B
  8
DOOR_OPTION_TRIM
  0
POLYLINE
  5
A8
  8
DOOR_OPTION_TRIM
 66
     1
 10
0.0
 20
0.0
 30
0.0
 70
     1
  0
VERTEX
  5
2C9
  8
DOOR_OPTION_TRIM
 10
46.10279970273059
 20
1.155532350522193
 30
0.0
 42
0.4142135623730951
  0
VERTEX
  5
2CA
  8
DOOR_OPTION_TRIM
 10
46.23279970273058
 20
1.025532350522312
 30
0.0
 42
0.4142135623730951
  0
VERTEX
  5
2CB
  8
DOOR_OPTION_TRIM
 10
46.36279970273058
 20
1.155532350522193
 30
0.0
 42
0.4142135623730951
  0
VERTEX
  5
2CC
  8
DOOR_OPTION_TRIM
 10
46.23279970273058
 20
1.285532350522075
 30
0.0
 42
0.4142135623730951
  0
SEQEND
  5
60C
  8
DOOR_OPTION_TRIM
  0
POLYLINE
  5
A9
  8
DOOR_OPTION_TRIM
 66
     1
 10
0.0
 20
0.0
 30
0.0
 70
     1
  0
VERTEX
  5
2CD
  8
DOOR_OPTION_TRIM
 10
38.20279970273061
 20
1.155532350522193
 30
0.0
 42
0.4142135623730951
  0
VERTEX
  5
2CE
  8
DOOR_OPTION_TRIM
 10
38.3327997027306
 20
1.025532350522312
 30
0.0
 42
0.4142135623730951
  0
VERTEX
  5
2CF
  8
DOOR_OPTION_TRIM
 10
38.4627997027306
 20
1.155532350522193
 30
0.0
 42
0.4142135623730951
  0
VERTEX
  5
2D0
  8
DOOR_OPTION_TRIM
 10
38.3327997027306
 20
1.285532350522075
 30
0.0
 42
0.4142135623730951
  0
SEQEND
  5
60D
  8
DOOR_OPTION_TRIM
  0
POLYLINE
  5
AA
  8
DOOR_OPTION_TRIM
 66
     1
 10
0.0
 20
0.0
 30
0.0
 70
     1
  0
VERTEX
  5
2D1
  8
DOOR_OPTION_TRIM
 10
30.30279970273063
 20
1.155532350522208
 30
0.0
 42
0.4142135623730951
  0
VERTEX
  5
2D2
  8
DOOR_OPTION_TRIM
 10
30.43279970273063
 20
1.025532350522326
 30
0.0
 42
0.4142135623730951
  0
VERTEX
  5
2D3
  8
DOOR_OPTION_TRIM
 10
30.56279970273063
 20
1.155532350522208
 30
0.0
 42
0.4142135623730951
  0
VERTEX
  5
2D4
  8
DOOR_OPTION_TRIM
 10
30.43279970273063
 20
1.285532350522089
 30
0.0
 42
0.4142135623730951
  0
SEQEND
  5
60E
  8
DOOR_OPTION_TRIM
  0
POLYLINE
  5
AB
  8
DOOR_OPTION_TRIM
 66
     1
 10
0.0
 20
0.0
 30
0.0
 70
     1
  0
VERTEX
  5
2D5
  8
DOOR_OPTION_TRIM
 10
22.4027997027306
 20
1.155532350522208
 30
0.0
 42
0.4142135623730951
  0
VERTEX
  5
2D6
  8
DOOR_OPTION_TRIM
 10
22.5327997027306
 20
1.025532350522326
 30
0.0
 42
0.4142135623730951
  0
VERTEX
  5
2D7
  8
DOOR_OPTION_TRIM
 10
22.66279970273059
 20
1.155532350522208
 30
0.0
 42
0.4142135623730951
  0
VERTEX
  5
2D8
  8
DOOR_OPTION_TRIM
 10
22.5327997027306
 20
1.285532350522089
 30
0.0
 42
0.4142135623730951
  0
SEQEND
  5
60F
  8
DOOR_OPTION_TRIM
  0
POLYLINE
  5
AC
  8
DOOR_OPTION_TRIM
 66
     1
 10
0.0
 20
0.0
 30
0.0
 70
     1
  0
VERTEX
  5
2D9
  8
DOOR_OPTION_TRIM
 10
12.5756063300608
 20
1.155528469846786
 30
0.0
 42
0.4142135623730951
  0
VERTEX
  5
2DA
  8
DOOR_OPTION_TRIM
 10
12.7056063300608
 20
1.025528469846677
 30
0.0
 42
0.4142135623730951
  0
VERTEX
  5
2DB
  8
DOOR_OPTION_TRIM
 10
12.83560633006079
 20
1.155528469846786
 30
0.0
 42
0.4142135623730951
  0
VERTEX
  5
2DC
  8
DOOR_OPTION_TRIM
 10
12.7056063300608
 20
1.285528469846895
 30
0.0
 42
0.4142135623730951
  0
SEQEND
  5
610
  8
DOOR_OPTION_TRIM
  0
POLYLINE
  5
AD
  8
DOOR_OPTION_TRIM
 66
     1
 10
0.0
 20
0.0
 30
0.0
 70
     1
  0
VERTEX
  5
2DD
  8
DOOR_OPTION_TRIM
 10
14.04661445174322
 20
1.155532985595869
 30
0.0
 42
0.4142135623730951
  0
VERTEX
  5
2DE
  8
DOOR_OPTION_TRIM
 10
14.17661445174322
 20
1.025532985595987
 30
0.0
 42
0.4142135623730951
  0
VERTEX
  5
2DF
  8
DOOR_OPTION_TRIM
 10
14.30661445174321
 20
1.155532985595869
 30
0.0
 42
0.4142135623730951
  0
VERTEX
  5
2E0
  8
DOOR_OPTION_TRIM
 10
14.17661445174322
 20
1.285532985595751
 30
0.0
 42
0.4142135623730951
  0
SEQEND
  5
611
  8
DOOR_OPTION_TRIM
  0
POLYLINE
  5
AE
  8
DOOR_OPTION_TRIM
 66
     1
 10
0.0
 20
0.0
 30
0.0
 70
     1
  0
VERTEX
  5
2E1
  8
DOOR_OPTION_TRIM
 10
7.055007138940606
 20
2.791321227496951
 30
0.0
 42
0.4142135623730951
  0
VERTEX
  5
2E2
  8
DOOR_OPTION_TRIM
 10
7.075188046360847
 20
2.608584446919735
 30
0.0
 42
0.4142135623730951
  0
VERTEX
  5
2E3
  8
DOOR_OPTION_TRIM
 10
7.257924826937948
 20
2.628765354339862
 30
0.0
 42
0.4142135623730951
  0
VERTEX
  5
2E4
  8
DOOR_OPTION_TRIM
 10
7.237743919517822
 20
2.811502134917077
 30
0.0
 42
0.4142135623730951
  0
SEQEND
  5
612
  8
DOOR_OPTION_TRIM
  0
POLYLINE
  5
AF
  8
DOOR_OPTION_TRIM
 66
     1
 10
0.0
 20
0.0
 30
0.0
 70
     1
  0
VERTEX
  5
2E5
  8
DOOR_OPTION_TRIM
 10
4.104685812241893
 20
7.577070412061516
 30
0.0
 42
0.4142135623730951
  0
VERTEX
  5
2E6
  8
DOOR_OPTION_TRIM
 10
4.029864034561921
 20
7.409136789505624
 30
0.0
 42
0.4142135623730951
  0
VERTEX
  5
2E7
  8
DOOR_OPTION_TRIM
 10
4.197797657117587
 20
7.334315011825197
 30
0.0
 42
0.4142135623730951
  0
VERTEX
  5
2E8
  8
DOOR_OPTION_TRIM
 10
4.272619434798013
 20
7.502248634381317
 30
0.0
 42
0.4142135623730951
  0
SEQEND
  5
613
  8
DOOR_OPTION_TRIM
  0
POLYLINE
  5
B0
  8
DOOR_OPTION_TRIM
 66
     1
 10
0.0
 20
0.0
 30
0.0
 70
     1
  0
VERTEX
  5
2E9
  8
DOOR_OPTION_TRIM
 10
2.327954314111548
 20
12.89874801665326
 30
0.0
 42
0.4142135623730951
  0
VERTEX
  5
2EA
  8
DOOR_OPTION_TRIM
 10
2.23251277533684
 20
12.74161459348613
 30
0.0
 42
0.4142135623730951
  0
VERTEX
  5
2EB
  8
DOOR_OPTION_TRIM
 10
2.389646198504078
 20
12.64617305471108
 30
0.0
 42
0.4142135623730951
  0
VERTEX
  5
2EC
  8
DOOR_OPTION_TRIM
 10
2.485087737279013
 20
12.80330647787821
 30
0.0
 42
0.4142135623730951
  0
SEQEND
  5
614
  8
DOOR_OPTION_TRIM
  0
POLYLINE
  5
B1
  8
DOOR_OPTION_TRIM
 66
     1
 10
0.0
 20
0.0
 30
0.0
 70
     1
  0
VERTEX
  5
2ED
  8
DOOR_OPTION_TRIM
 10
1.628908245489083
 20
18.65224290797516
 30
0.0
 42
0.4142135623730951
  0
VERTEX
  5
2EE
  8
DOOR_OPTION_TRIM
 10
1.501213738796264
 20
18.5199775952118
 30
0.0
 42
0.4142135623730951
  0
VERTEX
  5
2EF
  8
DOOR_OPTION_TRIM
 10
1.633479051559402
 20
18.39228308851864
 30
0.0
 42
0.4142135623730951
  0
VERTEX
  5
2F0
  8
DOOR_OPTION_TRIM
 10
1.761173558252562
 20
18.524548401282
 30
0.0
 42
0.4142135623730951
  0
SEQEND
  5
615
  8
DOOR_OPTION_TRIM
  0
POLYLINE
  5
B2
  8
DOOR_OPTION_TRIM
 66
     1
 10
0.0
 20
0.0
 30
0.0
 70
     1
  0
VERTEX
  5
2F1
  8
DOOR_OPTION_TRIM
 10
87.77072581194031
 20
0.4055278966959017
 30
0.0
  0
VERTEX
  5
2F2
  8
DOOR_OPTION_TRIM
 10
87.77072581194027
 20
3.405526636564318
 30
0.0
  0
VERTEX
  5
2F3
  8
DOOR_OPTION_TRIM
 10
13.96092696512569
 20
3.405526636563764
 30
0.0
  0
VERTEX
  5
2F4
  8
DOOR_OPTION_TRIM
 10
11.96618348928605
 20
3.405529143561921
 30
0.0
  0
VERTEX
  5
2F5
  8
DOOR_OPTION_TRIM
 10
11.87068324842853
 20
3.406201097579128
 30
0.0
  0
VERTEX
  5
2F6
  8
DOOR_OPTION_TRIM
 10
11.78060010111683
 20
3.40807906927887
 30
0.0
  0
VERTEX
  5
2F7
  8
DOOR_OPTION_TRIM
 10
11.69086602231796
 20
3.411188767423596
 30
0.0
  0
VERTEX
  5
2F8
  8
DOOR_OPTION_TRIM
 10
11.60150386168682
 20
3.415519878903638
 30
0.0
  0
VERTEX
  5
2F9
  8
DOOR_OPTION_TRIM
 10
11.51253663361065
 20
3.421061876839872
 30
0.0
  0
VERTEX
  5
2FA
  8
DOOR_OPTION_TRIM
 10
11.42398750621312
 20
3.427804010059504
 30
0.0
  0
VERTEX
  5
2FB
  8
DOOR_OPTION_TRIM
 10
11.33587979006263
 20
3.435735292849472
 30
0.0
  0
VERTEX
  5
2FC
  8
DOOR_OPTION_TRIM
 10
11.24823692658135
 20
3.444844494971335
 30
0.0
  0
VERTEX
  5
2FD
  8
DOOR_OPTION_TRIM
 10
11.16108247614245
 20
3.455120131918989
 30
0.0
  0
VERTEX
  5
2FE
  8
DOOR_OPTION_TRIM
 10
11.0744401058218
 20
3.466550455414449
 30
0.0
  0
VERTEX
  5
2FF
  8
DOOR_OPTION_TRIM
 10
10.98833357679889
 20
3.479123444119637
 30
0.0
  0
VERTEX
  5
300
  8
DOOR_OPTION_TRIM
 10
10.9027867313742
 20
3.492826794565758
 30
0.0
  0
VERTEX
  5
301
  8
DOOR_OPTION_TRIM
 10
10.81782347955761
 20
3.507647912290508
 30
0.0
  0
VERTEX
  5
302
  8
DOOR_OPTION_TRIM
 10
10.73346778521302
 20
3.5235739031815
 30
0.0
  0
VERTEX
  5
303
  8
DOOR_OPTION_TRIM
 10
10.64974365169753
 20
3.540591565035243
 30
0.0
  0
VERTEX
  5
304
  8
DOOR_OPTION_TRIM
 10
10.56667510697055
 20
3.558687379328717
 30
0.0
  0
VERTEX
  5
305
  8
DOOR_OPTION_TRIM
 10
10.48428618811267
 20
3.57784750322719
 30
0.0
  0
VERTEX
  5
306
  8
DOOR_OPTION_TRIM
 10
10.40260092519345
 20
3.598057761842824
 30
0.0
  0
VERTEX
  5
307
  8
DOOR_OPTION_TRIM
 10
10.32164332446093
 20
3.619303640764997
 30
0.0
  0
VERTEX
  5
308
  8
DOOR_OPTION_TRIM
 10
10.24143735076252
 20
3.641570278905988
 30
0.0
  0
VERTEX
  5
309
  8
DOOR_OPTION_TRIM
 10
10.16200690915145
 20
3.664842461690228
 30
0.0
  0
VERTEX
  5
30A
  8
DOOR_OPTION_TRIM
 10
10.0833758256186
 20
3.68910461464327
 30
0.0
  0
VERTEX
  5
30B
  8
DOOR_OPTION_TRIM
 10
10.0055678268571
 20
3.714340797441423
 30
0.0
  0
VERTEX
  5
30C
  8
DOOR_OPTION_TRIM
 10
9.92860651902954
 20
3.7405346984782
 30
0.0
  0
VERTEX
  5
30D
  8
DOOR_OPTION_TRIM
 10
9.852515365430758
 20
3.76766963004286
 30
0.0
  0
VERTEX
  5
30E
  8
DOOR_OPTION_TRIM
 10
9.777317662994232
 20
3.795728524191077
 30
0.0
  0
VERTEX
  5
30F
  8
DOOR_OPTION_TRIM
 10
9.70303651757224
 20
3.824693929417776
 30
0.0
  0
VERTEX
  5
310
  8
DOOR_OPTION_TRIM
 10
9.629694817906806
 20
3.8545480082513
 30
0.0
  0
VERTEX
  5
311
  8
DOOR_OPTION_TRIM
 10
9.557315208242994
 20
3.885272535894842
 30
0.0
  0
VERTEX
  5
312
  8
DOOR_OPTION_TRIM
 10
9.485920059509066
 20
3.91684890007366
 30
0.0
  0
VERTEX
  5
313
  8
DOOR_OPTION_TRIM
 10
9.415531439001438
 20
3.94925810225061
 30
0.0
  0
VERTEX
  5
314
  8
DOOR_OPTION_TRIM
 10
9.346171078544625
 20
3.982480760388739
 30
0.0
  0
VERTEX
  5
315
  8
DOOR_OPTION_TRIM
 10
9.277860341060727
 20
4.016497113469654
 30
0.0
  0
VERTEX
  5
316
  8
DOOR_OPTION_TRIM
 10
9.210620185529319
 20
4.051287027986405
 30
0.0
  0
VERTEX
  5
317
  8
DOOR_OPTION_TRIM
 10
9.144471130328906
 20
4.08683000665053
 30
0.0
  0
VERTEX
  5
318
  8
DOOR_OPTION_TRIM
 10
9.079433214946288
 20
4.123105199574297
 30
0.0
  0
VERTEX
  5
319
  8
DOOR_OPTION_TRIM
 10
9.015525960090553
 20
4.160091418211437
 30
0.0
  0
VERTEX
  5
31A
  8
DOOR_OPTION_TRIM
 10
8.952768326243767
 20
4.197767152355141
 30
0.0
  0
VERTEX
  5
31B
  8
DOOR_OPTION_TRIM
 10
8.891178670736576
 20
4.236110590511657
 30
0.0
  0
VERTEX
  5
31C
  8
DOOR_OPTION_TRIM
 10
8.83077470344399
 20
4.275099643992121
 30
0.0
  0
VERTEX
  5
31D
  8
DOOR_OPTION_TRIM
 10
8.77157344124971
 20
4.314711975071873
 30
0.0
  0
VERTEX
  5
31E
  8
DOOR_OPTION_TRIM
 10
8.713591161468752
 20
4.354925029585615
 30
0.0
  0
VERTEX
  5
31F
  8
DOOR_OPTION_TRIM
 10
8.65684335445128
 20
4.395716074339475
 30
0.0
  0
VERTEX
  5
320
  8
DOOR_OPTION_TRIM
 10
8.601344675670543
 20
4.437062239715146
 30
0.0
  0
VERTEX
  5
321
  8
DOOR_OPTION_TRIM
 10
8.547108897622433
 20
4.478940567860377
 30
0.0
  0
VERTEX
  5
322
  8
DOOR_OPTION_TRIM
 10
8.49414886195343
 20
4.521328066839146
 30
0.0
  0
VERTEX
  5
323
  8
DOOR_OPTION_TRIM
 10
8.442476432297394
 20
4.564201771102148
 30
0.0
  0
VERTEX
  5
324
  8
DOOR_OPTION_TRIM
 10
8.392102448364948
 20
4.6075388086266
 30
0.0
  0
VERTEX
  5
325
  8
DOOR_OPTION_TRIM
 10
8.34303668192258
 20
4.651316475024601
 30
0.0
  0
VERTEX
  5
326
  8
DOOR_OPTION_TRIM
 10
8.295287795363333
 20
4.695512314890607
 30
0.0
  0
VERTEX
  5
327
  8
DOOR_OPTION_TRIM
 10
8.2488633036706
 20
4.740104210578579
 30
0.0
  0
VERTEX
  5
328
  8
DOOR_OPTION_TRIM
 10
8.203769540653592
 20
4.785070478540661
 30
0.0
  0
VERTEX
  5
329
  8
DOOR_OPTION_TRIM
 10
8.160011630400572
 20
4.830389973262868
 30
0.0
  0
VERTEX
  5
32A
  8
DOOR_OPTION_TRIM
 10
8.11759346500487
 20
4.876042198712298
 30
0.0
  0
VERTEX
  5
32B
  8
DOOR_OPTION_TRIM
 10
8.076517689658385
 20
4.922007427099857
 30
0.0
  0
VERTEX
  5
32C
  8
DOOR_OPTION_TRIM
 10
8.03678569628546
 20
4.968266824595617
 30
0.0
  0
VERTEX
  5
32D
  8
DOOR_OPTION_TRIM
 10
7.998397626937571
 20
5.014802583469759
 30
0.0
  0
VERTEX
  5
32E
  8
DOOR_OPTION_TRIM
 10
7.961352388179829
 20
5.061598059961739
 30
0.0
  0
VERTEX
  5
32F
  8
DOOR_OPTION_TRIM
 10
7.925647677723713
 20
5.108637916947032
 30
0.0
  0
VERTEX
  5
330
  8
DOOR_OPTION_TRIM
 10
7.89128002454181
 20
5.155908270262785
 30
0.0
  0
VERTEX
  5
331
  8
DOOR_OPTION_TRIM
 10
7.858244843618717
 20
5.203396837335163
 30
0.0
  0
VERTEX
  5
332
  8
DOOR_OPTION_TRIM
 10
7.826536506426191
 20
5.251093086498827
 30
0.0
  0
VERTEX
  5
333
  8
DOOR_OPTION_TRIM
 10
7.796148428084802
 20
5.29898838513725
 30
0.0
  0
VERTEX
  5
334
  8
DOOR_OPTION_TRIM
 10
7.76432996489741
 20
5.351613153008316
 30
0.0
  0
VERTEX
  5
335
  8
DOOR_OPTION_TRIM
 10
7.646758208405867
 20
5.552695400028483
 30
0.0
  0
VERTEX
  5
336
  8
DOOR_OPTION_TRIM
 10
7.528401347498242
 20
5.758766507320729
 30
0.0
  0
VERTEX
  5
337
  8
DOOR_OPTION_TRIM
 10
7.411912485791571
 20
5.965283414339069
 30
0.0
  0
VERTEX
  5
338
  8
DOOR_OPTION_TRIM
 10
7.297292361365816
 20
6.172239403046319
 30
0.0
  0
VERTEX
  5
339
  8
DOOR_OPTION_TRIM
 10
7.184541709198879
 20
6.379627780071246
 30
0.0
  0
VERTEX
  5
33A
  8
DOOR_OPTION_TRIM
 10
7.073661261674214
 20
6.587441877059632
 30
0.0
  0
VERTEX
  5
33B
  8
DOOR_OPTION_TRIM
 10
6.964651749104927
 20
6.795675051014427
 30
0.0
  0
VERTEX
  5
33C
  8
DOOR_OPTION_TRIM
 10
6.857513900276057
 20
7.004320684623167
 30
0.0
  0
VERTEX
  5
33D
  8
DOOR_OPTION_TRIM
 10
6.752248443000621
 20
7.213372186574929
 30
0.0
  0
VERTEX
  5
33E
  8
DOOR_OPTION_TRIM
 10
6.648856104694527
 20
7.422822991863654
 30
0.0
  0
VERTEX
  5
33F
  8
DOOR_OPTION_TRIM
 10
6.547337612965247
 20
7.632666562075997
 30
0.0
  0
VERTEX
  5
340
  8
DOOR_OPTION_TRIM
 10
6.44769369621697
 20
7.842896385668723
 30
0.0
  0
VERTEX
  5
341
  8
DOOR_OPTION_TRIM
 10
6.349925084271558
 20
8.05350597822519
 30
0.0
  0
VERTEX
  5
342
  8
DOOR_OPTION_TRIM
 10
6.254032509004286
 20
8.264488882700448
 30
0.0
  0
VERTEX
  5
343
  8
DOOR_OPTION_TRIM
 10
6.160016704994131
 20
8.47583866964635
 30
0.0
  0
VERTEX
  5
344
  8
DOOR_OPTION_TRIM
 10
6.067878410188381
 20
8.687548937420274
 30
0.0
  0
VERTEX
  5
345
  8
DOOR_OPTION_TRIM
 10
5.977618366582487
 20
8.8996133123743
 30
0.0
  0
VERTEX
  5
346
  8
DOOR_OPTION_TRIM
 10
5.889237320911274
 20
9.112025449026646
 30
0.0
  0
VERTEX
  5
347
  8
DOOR_OPTION_TRIM
 10
5.802736025355397
 20
9.32477903020947
 30
0.0
  0
VERTEX
  5
348
  8
DOOR_OPTION_TRIM
 10
5.718115238258246
 20
9.537867767201192
 30
0.0
  0
VERTEX
  5
349
  8
DOOR_OPTION_TRIM
 10
5.635375724855816
 20
9.751285399832
 30
0.0
  0
VERTEX
  5
34A
  8
DOOR_OPTION_TRIM
 10
5.554518258018742
 20
9.965025696569342
 30
0.0
  0
VERTEX
  5
34B
  8
DOOR_OPTION_TRIM
 10
5.475543619002178
 20
10.17908245458023
 30
0.0
  0
VERTEX
  5
34C
  8
DOOR_OPTION_TRIM
 10
5.398452598208518
 20
10.39344949976919
 30
0.0
  0
VERTEX
  5
34D
  8
DOOR_OPTION_TRIM
 10
5.323245995957517
 20
10.60812068679172
 30
0.0
  0
VERTEX
  5
34E
  8
DOOR_OPTION_TRIM
 10
5.249924623265269
 20
10.82308989904288
 30
0.0
  0
VERTEX
  5
34F
  8
DOOR_OPTION_TRIM
 10
5.178489302631373
 20
11.03835104861867
 30
0.0
  0
VERTEX
  5
350
  8
DOOR_OPTION_TRIM
 10
5.108940868830995
 20
11.25389807625527
 30
0.0
  0
VERTEX
  5
351
  8
DOOR_OPTION_TRIM
 10
5.041280169714991
 20
11.46972495123384
 30
0.0
  0
VERTEX
  5
352
  8
DOOR_OPTION_TRIM
 10
4.975508067013447
 20
11.68582567126589
 30
0.0
  0
VERTEX
  5
353
  8
DOOR_OPTION_TRIM
 10
4.911625437143424
 20
11.90219426234364
 30
0.0
  0
VERTEX
  5
354
  8
DOOR_OPTION_TRIM
 10
4.849633172019661
 20
12.11882477856682
 30
0.0
  0
VERTEX
  5
355
  8
DOOR_OPTION_TRIM
 10
4.789532179867887
 20
12.33571130193889
 30
0.0
  0
VERTEX
  5
356
  8
DOOR_OPTION_TRIM
 10
4.731323386036888
 20
12.55284794213196
 30
0.0
  0
VERTEX
  5
357
  8
DOOR_OPTION_TRIM
 10
4.675007733813072
 20
12.77022883622533
 30
0.0
  0
VERTEX
  5
358
  8
DOOR_OPTION_TRIM
 10
4.620586185231286
 20
12.98784814841122
 30
0.0
  0
VERTEX
  5
359
  8
DOOR_OPTION_TRIM
 10
4.568059721884378
 20
13.20570006967239
 30
0.0
  0
VERTEX
  5
35A
  8
DOOR_OPTION_TRIM
 10
4.517429345728555
 20
13.42377881742789
 30
0.0
  0
VERTEX
  5
35B
  8
DOOR_OPTION_TRIM
 10
4.468696079884534
 20
13.64207863514878
 30
0.0
  0
VERTEX
  5
35C
  8
DOOR_OPTION_TRIM
 10
4.421860969431076
 20
13.8605937919441
 30
0.0
  0
VERTEX
  5
35D
  8
DOOR_OPTION_TRIM
 10
4.376925082192383
 20
14.07931858211407
 30
0.0
  0
VERTEX
  5
35E
  8
DOOR_OPTION_TRIM
 10
4.333889509517416
 20
14.29824732467375
 30
0.0
  0
VERTEX
  5
35F
  8
DOOR_OPTION_TRIM
 10
4.292755367047516
 20
14.51737436284805
 30
0.0
  0
VERTEX
  5
360
  8
DOOR_OPTION_TRIM
 10
4.253523795474916
 20
14.73669406353167
 30
0.0
  0
VERTEX
  5
361
  8
DOOR_OPTION_TRIM
 10
4.216195961287962
 20
14.95620081672416
 30
0.0
  0
VERTEX
  5
362
  8
DOOR_OPTION_TRIM
 10
4.180773057502005
 20
15.17588903493072
 30
0.0
  0
VERTEX
  5
363
  8
DOOR_OPTION_TRIM
 10
4.147256304377446
 20
15.3957531525358
 30
0.0
  0
VERTEX
  5
364
  8
DOOR_OPTION_TRIM
 10
4.11564695011948
 20
15.6157876251483
 30
0.0
  0
VERTEX
  5
365
  8
DOOR_OPTION_TRIM
 10
4.085946271562147
 20
15.83598692891212
 30
0.0
  0
VERTEX
  5
366
  8
DOOR_OPTION_TRIM
 10
4.058155574832721
 20
16.05634555979816
 30
0.0
  0
VERTEX
  5
367
  8
DOOR_OPTION_TRIM
 10
4.032276195996541
 20
16.27685803286056
 30
0.0
  0
VERTEX
  5
368
  8
DOOR_OPTION_TRIM
 10
4.008309501681492
 20
16.49751888146773
 30
0.0
  0
VERTEX
  5
369
  8
DOOR_OPTION_TRIM
 10
3.98625688967918
 20
16.71832265651062
 30
0.0
  0
VERTEX
  5
36A
  8
DOOR_OPTION_TRIM
 10
3.966119789523145
 20
16.93926392558103
 30
0.0
  0
VERTEX
  5
36B
  8
DOOR_OPTION_TRIM
 10
3.947899663043426
 20
17.160337272128
 30
0.0
  0
VERTEX
  5
36C
  8
DOOR_OPTION_TRIM
 10
3.93159800489384
 20
17.38153729458929
 30
0.0
  0
VERTEX
  5
36D
  8
DOOR_OPTION_TRIM
 10
3.917216343054588
 20
17.60285860549959
 30
0.0
  0
VERTEX
  5
36E
  8
DOOR_OPTION_TRIM
 10
3.904756239305084
 20
17.82429583057876
 30
0.0
  0
VERTEX
  5
36F
  8
DOOR_OPTION_TRIM
 10
3.894219289670286
 20
18.04584360779666
 30
0.0
  0
VERTEX
  5
370
  8
DOOR_OPTION_TRIM
 10
3.885607124835542
 20
18.26749658642041
 30
0.0
  0
VERTEX
  5
371
  8
DOOR_OPTION_TRIM
 10
3.878921410532098
 20
18.48924942604356
 30
0.0
  0
VERTEX
  5
372
  8
DOOR_OPTION_TRIM
 10
3.874163847890781
 20
18.71109679559493
 30
0.0
  0
VERTEX
  5
373
  8
DOOR_OPTION_TRIM
 10
3.871336173764416
 20
18.93303337233431
 30
0.0
  0
VERTEX
  5
374
  8
DOOR_OPTION_TRIM
 10
3.87042698233331
 20
19.15831934934897
 30
0.0
  0
VERTEX
  5
375
  8
DOOR_OPTION_TRIM
 10
3.870429418227172
 20
19.16600073777329
 30
0.0
  0
VERTEX
  5
376
  8
DOOR_OPTION_TRIM
 10
0.870429569071302
 20
19.16695208676185
 30
0.0
  0
VERTEX
  5
377
  8
DOOR_OPTION_TRIM
 10
0.8704250625167556
 20
19.1527415000179
 30
0.0
  0
VERTEX
  5
378
  8
DOOR_OPTION_TRIM
 10
0.8714132974146873
 20
18.90786955384613
 30
0.0
  0
VERTEX
  5
379
  8
DOOR_OPTION_TRIM
 10
0.8745736033759608
 20
18.6598255954392
 30
0.0
  0
VERTEX
  5
37A
  8
DOOR_OPTION_TRIM
 10
0.8798907622961674
 20
18.41188398795714
 30
0.0
  0
VERTEX
  5
37B
  8
DOOR_OPTION_TRIM
 10
0.8873626985975529
 20
18.16405361249201
 30
0.0
  0
VERTEX
  5
37C
  8
DOOR_OPTION_TRIM
 10
0.8969873013667888
 20
17.91634332022807
 30
0.0
  0
VERTEX
  5
37D
  8
DOOR_OPTION_TRIM
 10
0.9087624238168923
 20
17.66876197014574
 30
0.0
  0
VERTEX
  5
37E
  8
DOOR_OPTION_TRIM
 10
0.9226858848559909
 20
17.42131839871365
 30
0.0
  0
VERTEX
  5
37F
  8
DOOR_OPTION_TRIM
 10
0.9387554680469743
 20
17.17402144134905
 30
0.0
  0
VERTEX
  5
380
  8
DOOR_OPTION_TRIM
 10
0.9569689221759285
 20
16.92687992772119
 30
0.0
  0
VERTEX
  5
381
  8
DOOR_OPTION_TRIM
 10
0.9773239649216061
 20
16.67990264024013
 30
0.0
  0
VERTEX
  5
382
  8
DOOR_OPTION_TRIM
 10
0.9998182761798484
 20
16.43309840221411
 30
0.0
  0
VERTEX
  5
383
  8
DOOR_OPTION_TRIM
 10
1.024449506445035
 20
16.18647597825986
 30
0.0
  0
VERTEX
  5
384
  8
DOOR_OPTION_TRIM
 10
1.0512152738042
 20
15.94004412406105
 30
0.0
  0
VERTEX
  5
385
  8
DOOR_OPTION_TRIM
 10
1.080113162639418
 20
15.69381159392253
 30
0.0
  0
VERTEX
  5
386
  8
DOOR_OPTION_TRIM
 10
1.11114072725577
 20
15.4477871156065
 30
0.0
  0
VERTEX
  5
387
  8
DOOR_OPTION_TRIM
 10
1.144295493216259
 20
15.20197938546119
 30
0.0
  0
VERTEX
  5
388
  8
DOOR_OPTION_TRIM
 10
1.179574953231576
 20
14.95639710289436
 30
0.0
  0
VERTEX
  5
389
  8
DOOR_OPTION_TRIM
 10
1.216976570188944
 20
14.71104894885468
 30
0.0
  0
VERTEX
  5
38A
  8
DOOR_OPTION_TRIM
 10
1.256497782453107
 20
14.46594355680611
 30
0.0
  0
VERTEX
  5
38B
  8
DOOR_OPTION_TRIM
 10
1.29813599825452
 20
14.22108955566875
 30
0.0
  0
VERTEX
  5
38C
  8
DOOR_OPTION_TRIM
 10
1.341888595527234
 20
13.97649556763247
 30
0.0
  0
VERTEX
  5
38D
  8
DOOR_OPTION_TRIM
 10
1.387752932314652
 20
13.73217015651574
 30
0.0
  0
VERTEX
  5
38E
  8
DOOR_OPTION_TRIM
 10
1.435726333567072
 20
13.48812190149658
 30
0.0
  0
VERTEX
  5
38F
  8
DOOR_OPTION_TRIM
 10
1.485806104078347
 20
13.24435933285133
 30
0.0
  0
VERTEX
  5
390
  8
DOOR_OPTION_TRIM
 10
1.537989522722637
 20
13.0008909646491
 30
0.0
  0
VERTEX
  5
391
  8
DOOR_OPTION_TRIM
 10
1.592273847096248
 20
12.75772527682477
 30
0.0
  0
VERTEX
  5
392
  8
DOOR_OPTION_TRIM
 10
1.648656304517385
 20
12.51487075655552
 30
0.0
  0
VERTEX
  5
393
  8
DOOR_OPTION_TRIM
 10
1.707134111931123
 20
12.27233581552957
 30
0.0
  0
VERTEX
  5
394
  8
DOOR_OPTION_TRIM
 10
1.767704456134834
 20
12.03012887728039
 30
0.0
  0
VERTEX
  5
395
  8
DOOR_OPTION_TRIM
 10
1.830364507133777
 20
11.7882583248421
 30
0.0
  0
VERTEX
  5
396
  8
DOOR_OPTION_TRIM
 10
1.895111413103291
 20
11.54673252253554
 30
0.0
  0
VERTEX
  5
397
  8
DOOR_OPTION_TRIM
 10
1.961942308190555
 20
11.30555979009398
 30
0.0
  0
VERTEX
  5
398
  8
DOOR_OPTION_TRIM
 10
2.030854304487843
 20
11.06474843576018
 30
0.0
  0
VERTEX
  5
399
  8
DOOR_OPTION_TRIM
 10
2.101844494997135
 20
10.82430674536602
 30
0.0
  0
VERTEX
  5
39A
  8
DOOR_OPTION_TRIM
 10
2.174909960238165
 20
10.58424296445457
 30
0.0
  0
VERTEX
  5
39B
  8
DOOR_OPTION_TRIM
 10
2.250047769250113
 20
10.34456529733609
 30
0.0
  0
VERTEX
  5
39C
  8
DOOR_OPTION_TRIM
 10
2.327254965990232
 20
10.1052819540929
 30
0.0
  0
VERTEX
  5
39D
  8
DOOR_OPTION_TRIM
 10
2.406528585841965
 20
9.866401097966104
 30
0.0
  0
VERTEX
  5
39E
  8
DOOR_OPTION_TRIM
 10
2.487865656294343
 20
9.627930849388235
 30
0.0
  0
VERTEX
  5
39F
  8
DOOR_OPTION_TRIM
 10
2.571263184279996
 20
9.389879324755952
 30
0.0
  0
VERTEX
  5
3A0
  8
DOOR_OPTION_TRIM
 10
2.656718169246414
 20
9.152254599771027
 30
0.0
  0
VERTEX
  5
3A1
  8
DOOR_OPTION_TRIM
 10
2.744227595868051
 20
8.91506473222455
 30
0.0
  0
VERTEX
  5
3A2
  8
DOOR_OPTION_TRIM
 10
2.833788450043312
 20
8.67831772165448
 30
0.0
  0
VERTEX
  5
3A3
  8
DOOR_OPTION_TRIM
 10
2.925397695555557
 20
8.442021573804254
 30
0.0
  0
VERTEX
  5
3A4
  8
DOOR_OPTION_TRIM
 10
3.019052291225716
 20
8.206184255550966
 30
0.0
  0
VERTEX
  5
3A5
  8
DOOR_OPTION_TRIM
 10
3.114749188970063
 20
7.970813703460976
 30
0.0
  0
VERTEX
  5
3A6
  8
DOOR_OPTION_TRIM
 10
3.212485344553852
 20
7.735917799247204
 30
0.0
  0
VERTEX
  5
3A7
  8
DOOR_OPTION_TRIM
 10
3.312257687010469
 20
7.501504446641434
 30
0.0
  0
VERTEX
  5
3A8
  8
DOOR_OPTION_TRIM
 10
3.41406315690433
 20
7.267581479661771
 30
0.0
  0
VERTEX
  5
3A9
  8
DOOR_OPTION_TRIM
 10
3.517898681640827
 20
7.034156724533773
 30
0.0
  0
VERTEX
  5
3AA
  8
DOOR_OPTION_TRIM
 10
3.62376119121559
 20
6.80123796430928
 30
0.0
  0
VERTEX
  5
3AB
  8
DOOR_OPTION_TRIM
 10
3.731647597806795
 20
6.568832986087386
 30
0.0
  0
VERTEX
  5
3AC
  8
DOOR_OPTION_TRIM
 10
3.841554830697487
 20
6.336949506126643
 30
0.0
  0
VERTEX
  5
3AD
  8
DOOR_OPTION_TRIM
 10
3.953479805284541
 20
6.105595238750197
 30
0.0
  0
VERTEX
  5
3AE
  8
DOOR_OPTION_TRIM
 10
4.06741943953325
 20
5.874777863591248
 30
0.0
  0
VERTEX
  5
3AF
  8
DOOR_OPTION_TRIM
 10
4.183370639817394
 20
5.644505054365823
 30
0.0
  0
VERTEX
  5
3B0
  8
DOOR_OPTION_TRIM
 10
4.301330332876159
 20
5.414784417239957
 30
0.0
  0
VERTEX
  5
3B1
  8
DOOR_OPTION_TRIM
 10
4.421295424207482
 20
5.185623574923397
 30
0.0
  0
VERTEX
  5
3B2
  8
DOOR_OPTION_TRIM
 10
4.543262835722043
 20
4.957030093840899
 30
0.0
  0
VERTEX
  5
3B3
  8
DOOR_OPTION_TRIM
 10
4.667229485774396
 20
4.729011524803013
 30
0.0
  0
VERTEX
  5
3B4
  8
DOOR_OPTION_TRIM
 10
4.793192292823687
 20
4.501575396961584
 30
0.0
  0
VERTEX
  5
3B5
  8
DOOR_OPTION_TRIM
 10
4.921148180319459
 20
4.274729209957172
 30
0.0
  0
VERTEX
  5
3B6
  8
DOOR_OPTION_TRIM
 10
5.051094074220554
 20
4.048480439641594
 30
0.0
  0
VERTEX
  5
3B7
  8
DOOR_OPTION_TRIM
 10
5.185679262432995
 20
3.818300225575172
 30
0.0
  0
VERTEX
  5
3B8
  8
DOOR_OPTION_TRIM
 10
5.245663372794251
 20
3.719092106705489
 30
0.0
  0
VERTEX
  5
3B9
  8
DOOR_OPTION_TRIM
 10
5.310520198986477
 20
3.616869879446881
 30
0.0
  0
VERTEX
  5
3BA
  8
DOOR_OPTION_TRIM
 10
5.377454869350867
 20
3.516185548456292
 30
0.0
  0
VERTEX
  5
3BB
  8
DOOR_OPTION_TRIM
 10
5.44641655537448
 20
3.417052092764266
 30
0.0
  0
VERTEX
  5
3BC
  8
DOOR_OPTION_TRIM
 10
5.517355377629382
 20
3.31948060101206
 30
0.0
  0
VERTEX
  5
3BD
  8
DOOR_OPTION_TRIM
 10
5.590222516465428
 20
3.223480388403573
 30
0.0
  0
VERTEX
  5
3BE
  8
DOOR_OPTION_TRIM
 10
5.664970259212122
 20
3.129059179301862
 30
0.0
  0
VERTEX
  5
3BF
  8
DOOR_OPTION_TRIM
 10
5.741552056930185
 20
3.036223250644639
 30
0.0
  0
VERTEX
  5
3C0
  8
DOOR_OPTION_TRIM
 10
5.819922572580207
 20
2.944977568744093
 30
0.0
  0
VERTEX
  5
3C1
  8
DOOR_OPTION_TRIM
 10
5.900037706092871
 20
2.855325934052985
 30
0.0
  0
VERTEX
  5
3C2
  8
DOOR_OPTION_TRIM
 10
5.981854601261102
 20
2.767271127442314
 30
0.0
  0
VERTEX
  5
3C3
  8
DOOR_OPTION_TRIM
 10
6.065331685098453
 20
2.68081500469782
 30
0.0
  0
VERTEX
  5
3C4
  8
DOOR_OPTION_TRIM
 10
6.150428575310752
 20
2.595958711726439
 30
0.0
  0
VERTEX
  5
3C5
  8
DOOR_OPTION_TRIM
 10
6.237106175150938
 20
2.512702689884122
 30
0.0
  0
VERTEX
  5
3C6
  8
DOOR_OPTION_TRIM
 10
6.325326559601262
 20
2.431046880506642
 30
0.0
  0
VERTEX
  5
3C7
  8
DOOR_OPTION_TRIM
 10
6.415053019325523
 20
2.350990757636851
 30
0.0
  0
VERTEX
  5
3C8
  8
DOOR_OPTION_TRIM
 10
6.506249957881618
 20
2.272533489812872
 30
0.0
  0
VERTEX
  5
3C9
  8
DOOR_OPTION_TRIM
 10
6.598882919561174
 20
2.19567396864079
 30
0.0
  0
VERTEX
  5
3CA
  8
DOOR_OPTION_TRIM
 10
6.692918485927247
 20
2.120410944098353
 30
0.0
  0
VERTEX
  5
3CB
  8
DOOR_OPTION_TRIM
 10
6.788324279883408
 20
2.046743057593289
 30
0.0
  0
VERTEX
  5
3CC
  8
DOOR_OPTION_TRIM
 10
6.885068903595265
 20
1.97466892345949
 30
0.0
  0
VERTEX
  5
3CD
  8
DOOR_OPTION_TRIM
 10
6.983121909646751
 20
1.904187176658183
 30
0.0
  0
VERTEX
  5
3CE
  8
DOOR_OPTION_TRIM
 10
7.082453675460737
 20
1.83529658250302
 30
0.0
  0
VERTEX
  5
3CF
  8
DOOR_OPTION_TRIM
 10
7.183035459913253
 20
1.767996008174691
 30
0.0
  0
VERTEX
  5
3D0
  8
DOOR_OPTION_TRIM
 10
7.284839304489605
 20
1.702284503975193
 30
0.0
  0
VERTEX
  5
3D1
  8
DOOR_OPTION_TRIM
 10
7.38783798050822
 20
1.638161343365596
 30
0.0
  0
VERTEX
  5
3D2
  8
DOOR_OPTION_TRIM
 10
7.492004968285936
 20
1.575626039022268
 30
0.0
  0
VERTEX
  5
3D3
  8
DOOR_OPTION_TRIM
 10
7.597314358159519
 20
1.514678402805316
 30
0.0
  0
VERTEX
  5
3D4
  8
DOOR_OPTION_TRIM
 10
7.703740874252571
 20
1.455318529829697
 30
0.0
  0
VERTEX
  5
3D5
  8
DOOR_OPTION_TRIM
 10
7.811259801970618
 20
1.397546836058268
 30
0.0
  0
VERTEX
  5
3D6
  8
DOOR_OPTION_TRIM
 10
7.919846941507739
 20
1.341364079207437
 30
0.0
  0
VERTEX
  5
3D7
  8
DOOR_OPTION_TRIM
 10
8.029478560541929
 20
1.286771375367266
 30
0.0
  0
VERTEX
  5
3D8
  8
DOOR_OPTION_TRIM
 10
8.14013137752222
 20
1.233770198926891
 30
0.0
  0
VERTEX
  5
3D9
  8
DOOR_OPTION_TRIM
 10
8.251782507932102
 20
1.182362399860381
 30
0.0
  0
VERTEX
  5
3DA
  8
DOOR_OPTION_TRIM
 10
8.364409450326956
 20
1.13255020080544
 30
0.0
  0
VERTEX
  5
3DB
  8
DOOR_OPTION_TRIM
 10
8.477990029788952
 20
1.084336212621224
 30
0.0
  0
VERTEX
  5
3DC
  8
DOOR_OPTION_TRIM
 10
8.592502357560033
 20
1.037723438617491
 30
0.0
  0
VERTEX
  5
3DD
  8
DOOR_OPTION_TRIM
 10
8.707924859465447
 20
0.9927152535034338
 30
0.0
  0
VERTEX
  5
3DE
  8
DOOR_OPTION_TRIM
 10
8.824236177299053
 20
0.9493154307762097
 30
0.0
  0
VERTEX
  5
3DF
  8
DOOR_OPTION_TRIM
 10
8.941415151288265
 20
0.9075281364345074
 30
0.0
  0
VERTEX
  5
3E0
  8
DOOR_OPTION_TRIM
 10
9.059440853297883
 20
0.8673579047987232
 30
0.0
  0
VERTEX
  5
3E1
  8
DOOR_OPTION_TRIM
 10
9.178292497437678
 20
0.828809659467538
 30
0.0
  0
VERTEX
  5
3E2
  8
DOOR_OPTION_TRIM
 10
9.297949463672875
 20
0.7918886926705682
 30
0.0
  0
VERTEX
  5
3E3
  8
DOOR_OPTION_TRIM
 10
9.418391227269193
 20
0.756600676165931
 30
0.0
  0
VERTEX
  5
3E4
  8
DOOR_OPTION_TRIM
 10
9.539597355758769
 20
0.7229516487183218
 30
0.0
  0
VERTEX
  5
3E5
  8
DOOR_OPTION_TRIM
 10
9.661547540132187
 20
0.6909479970341863
 30
0.0
  0
VERTEX
  5
3E6
  8
DOOR_OPTION_TRIM
 10
9.784221468098576
 20
0.6605964779352007
 30
0.0
  0
VERTEX
  5
3E7
  8
DOOR_OPTION_TRIM
 10
9.907598938369073
 20
0.6319041774328298
 30
0.0
  0
VERTEX
  5
3E8
  8
DOOR_OPTION_TRIM
 10
10.03165972322854
 20
0.6048785332783382
 30
0.0
  0
VERTEX
  5
3E9
  8
DOOR_OPTION_TRIM
 10
10.15638360935368
 20
0.5795273134959871
 30
0.0
  0
VERTEX
  5
3EA
  8
DOOR_OPTION_TRIM
 10
10.28175038000149
 20
0.5558586084331409
 30
0.0
  0
VERTEX
  5
3EB
  8
DOOR_OPTION_TRIM
 10
10.4077398227218
 20
0.5338808201810252
 30
0.0
  0
VERTEX
  5
3EC
  8
DOOR_OPTION_TRIM
 10
10.5343316264752
 20
0.5136026691749294
 30
0.0
  0
VERTEX
  5
3ED
  8
DOOR_OPTION_TRIM
 10
10.66150547672983
 20
0.4950331667820365
 30
0.0
  0
VERTEX
  5
3EE
  8
DOOR_OPTION_TRIM
 10
10.78924097147496
 20
0.4781816191276675
 30
0.0
  0
VERTEX
  5
3EF
  8
DOOR_OPTION_TRIM
 10
10.91751763142197
 20
0.4630576135947422
 30
0.0
  0
VERTEX
  5
3F0
  8
DOOR_OPTION_TRIM
 10
11.04631487418187
 20
0.449671011741998
 30
0.0
  0
VERTEX
  5
3F1
  8
DOOR_OPTION_TRIM
 10
11.17561202188331
 20
0.4380319375565023
 30
0.0
  0
VERTEX
  5
3F2
  8
DOOR_OPTION_TRIM
 10
11.30538826600782
 20
0.4281507703441321
 30
0.0
  0
VERTEX
  5
3F3
  8
DOOR_OPTION_TRIM
 10
11.43562269060017
 20
0.4200381322267503
 30
0.0
  0
VERTEX
  5
3F4
  8
DOOR_OPTION_TRIM
 10
11.56629420532949
 20
0.413704882333036
 30
0.0
  0
VERTEX
  5
3F5
  8
DOOR_OPTION_TRIM
 10
11.69738158712239
 20
0.4091621022677145
 30
0.0
  0
VERTEX
  5
3F6
  8
DOOR_OPTION_TRIM
 10
11.82886345239781
 20
0.406421087741478
 30
0.0
  0
VERTEX
  5
3F7
  8
DOOR_OPTION_TRIM
 10
11.9556275220511
 20
0.4055291568232633
 30
0.0
  0
VERTEX
  5
3F8
  8
DOOR_OPTION_TRIM
 10
13.9609250799228
 20
0.4055266365650141
 30
0.0
  0
SEQEND
  5
616
  8
DOOR_OPTION_TRIM
  0
POLYLINE
  5
B4
  8
THREE_QUARTER_INCH_THRUCUT
 66
     1
 10
0.0
 20
0.0
 30
0.0
 70
     1
  0
VERTEX
  5
3F9
  8
THREE_QUARTER_INCH_THRUCUT
 10
78.95939211340037
 20
9.90259860308301
 30
0.0
  0
VERTEX
  5
3FA
  8
THREE_QUARTER_INCH_THRUCUT
 10
78.95939211340037
 20
9.40259860308301
 30
0.0
 42
1.0
  0
VERTEX
  5
3FB
  8
THREE_QUARTER_INCH_THRUCUT
 10
79.22017951497519
 20
9.40259860308301
 30
0.0
  0
VERTEX
  5
3FC
  8
THREE_QUARTER_INCH_THRUCUT
 10
81.69860471182555
 20
9.40259860308301
 30
0.0
 42
1.0
  0
VERTEX
  5
3FD
  8
THREE_QUARTER_INCH_THRUCUT
 10
81.95939211340037
 20
9.40259860308301
 30
0.0
  0
VERTEX
  5
3FE
  8
THREE_QUARTER_INCH_THRUCUT
 10
81.95939211340037
 20
9.902598603088856
 30
0.0
 42
1.0
  0
VERTEX
  5
3FF
  8
THREE_QUARTER_INCH_THRUCUT
 10
81.69860471182555
 20
9.90259860308301
 30
0.0
  0
VERTEX
  5
400
  8
THREE_QUARTER_INCH_THRUCUT
 10
79.22017951497519
 20
9.90259860308301
 30
0.0
 42
1.0
  0
SEQEND
  5
617
  8
THREE_QUARTER_INCH_THRUCUT
  0
POLYLINE
  5
B5
  8
THREE_QUARTER_INCH_THRUCUT
 66
     1
 10
0.0
 20
0.0
 30
0.0
 70
     1
  0
VERTEX
  5
401
  8
THREE_QUARTER_INCH_THRUCUT
 10
64.20939211340286
 20
9.902587810530253
 30
0.0
 42
-1.0
  0
VERTEX
  5
402
  8
THREE_QUARTER_INCH_THRUCUT
 10
64.47017951497767
 20
9.902587810530253
 30
0.0
  0
VERTEX
  5
403
  8
THREE_QUARTER_INCH_THRUCUT
 10
66.94860471182805
 20
9.902587810530253
 30
0.0
 42
-1.0
  0
VERTEX
  5
404
  8
THREE_QUARTER_INCH_THRUCUT
 10
67.20939211340287
 20
9.902587810530253
 30
0.0
  0
VERTEX
  5
405
  8
THREE_QUARTER_INCH_THRUCUT
 10
67.20939211340287
 20
9.402587810530253
 30
0.0
 42
-1.0
  0
VERTEX
  5
406
  8
THREE_QUARTER_INCH_THRUCUT
 10
66.94860471182805
 20
9.402587810530253
 30
0.0
  0
VERTEX
  5
407
  8
THREE_QUARTER_INCH_THRUCUT
 10
64.47017951497767
 20
9.402587810530253
 30
0.0
 42
-1.0
  0
VERTEX
  5
408
  8
THREE_QUARTER_INCH_THRUCUT
 10
64.20939211340286
 20
9.402587810530253
 30
0.0
  0
SEQEND
  5
618
  8
THREE_QUARTER_INCH_THRUCUT
  0
POLYLINE
  5
B6
  8
THREE_QUARTER_INCH_THRUCUT
 66
     1
 10
0.0
 20
0.0
 30
0.0
 70
     1
  0
VERTEX
  5
409
  8
THREE_QUARTER_INCH_THRUCUT
 10
49.45939211339932
 20
9.902577017991916
 30
0.0
  0
VERTEX
  5
40A
  8
THREE_QUARTER_INCH_THRUCUT
 10
49.45939211339932
 20
9.402577017977382
 30
0.0
 42
1.0
  0
VERTEX
  5
40B
  8
THREE_QUARTER_INCH_THRUCUT
 10
49.72017951497414
 20
9.402577017977382
 30
0.0
  0
VERTEX
  5
40C
  8
THREE_QUARTER_INCH_THRUCUT
 10
52.19860471182451
 20
9.402577017977382
 30
0.0
 42
1.0
  0
VERTEX
  5
40D
  8
THREE_QUARTER_INCH_THRUCUT
 10
52.45939211339932
 20
9.402577017977382
 30
0.0
  0
VERTEX
  5
40E
  8
THREE_QUARTER_INCH_THRUCUT
 10
52.45939211339932
 20
9.902577017980443
 30
0.0
 42
1.0
  0
VERTEX
  5
40F
  8
THREE_QUARTER_INCH_THRUCUT
 10
52.19860471182451
 20
9.902577017977382
 30
0.0
  0
VERTEX
  5
410
  8
THREE_QUARTER_INCH_THRUCUT
 10
49.72017951497414
 20
9.902577017977382
 30
0.0
 42
1.0
  0
SEQEND
  5
619
  8
THREE_QUARTER_INCH_THRUCUT
  0
POLYLINE
  5
B7
  8
THREE_QUARTER_INCH_THRUCUT
 66
     1
 10
0.0
 20
0.0
 30
0.0
 70
     1
  0
VERTEX
  5
411
  8
THREE_QUARTER_INCH_THRUCUT
 10
82.09060192568806
 20
46.65260401602133
 30
0.0
 42
0.4142135623730951
  0
VERTEX
  5
412
  8
THREE_QUARTER_INCH_THRUCUT
 10
82.22060192568806
 20
46.52260401602145
 30
0.0
 42
0.4142135623730951
  0
VERTEX
  5
413
  8
THREE_QUARTER_INCH_THRUCUT
 10
82.35060192568805
 20
46.65260401602133
 30
0.0
 42
0.4142135623730951
  0
VERTEX
  5
414
  8
THREE_QUARTER_INCH_THRUCUT
 10
82.22060192568806
 20
46.78260401602121
 30
0.0
 42
0.4142135623730951
  0
SEQEND
  5
61A
  8
THREE_QUARTER_INCH_THRUCUT
  0
POLYLINE
  5
B8
  8
THREE_QUARTER_INCH_THRUCUT
 66
     1
 10
0.0
 20
0.0
 30
0.0
 70
     1
  0
VERTEX
  5
415
  8
THREE_QUARTER_INCH_THRUCUT
 10
73.89147785474192
 20
46.65260401602133
 30
0.0
 42
0.4142135623730951
  0
VERTEX
  5
416
  8
THREE_QUARTER_INCH_THRUCUT
 10
74.02147785474192
 20
46.52260401602145
 30
0.0
 42
0.4142135623730951
  0
VERTEX
  5
417
  8
THREE_QUARTER_INCH_THRUCUT
 10
74.15147785474191
 20
46.65260401602133
 30
0.0
 42
0.4142135623730951
  0
VERTEX
  5
418
  8
THREE_QUARTER_INCH_THRUCUT
 10
74.02147785474192
 20
46.78260401602121
 30
0.0
 42
0.4142135623730951
  0
SEQEND
  5
61B
  8
THREE_QUARTER_INCH_THRUCUT
  0
POLYLINE
  5
B9
  8
THREE_QUARTER_INCH_THRUCUT
 66
     1
 10
0.0
 20
0.0
 30
0.0
 70
     1
  0
VERTEX
  5
419
  8
THREE_QUARTER_INCH_THRUCUT
 10
65.99147785474196
 20
46.65260401602133
 30
0.0
 42
0.4142135623730951
  0
VERTEX
  5
41A
  8
THREE_QUARTER_INCH_THRUCUT
 10
66.12147785474195
 20
46.52260401602145
 30
0.0
 42
0.4142135623730951
  0
VERTEX
  5
41B
  8
THREE_QUARTER_INCH_THRUCUT
 10
66.25147785474195
 20
46.65260401602133
 30
0.0
 42
0.4142135623730951
  0
VERTEX
  5
41C
  8
THREE_QUARTER_INCH_THRUCUT
 10
66.12147785474195
 20
46.78260401602121
 30
0.0
 42
0.4142135623730951
  0
SEQEND
  5
61C
  8
THREE_QUARTER_INCH_THRUCUT
  0
POLYLINE
  5
BA
  8
THREE_QUARTER_INCH_THRUCUT
 66
     1
 10
0.0
 20
0.0
 30
0.0
 70
     1
  0
VERTEX
  5
41D
  8
THREE_QUARTER_INCH_THRUCUT
 10
58.09147785474189
 20
46.65260401602133
 30
0.0
 42
0.4142135623730951
  0
VERTEX
  5
41E
  8
THREE_QUARTER_INCH_THRUCUT
 10
58.22147785474188
 20
46.52260401602145
 30
0.0
 42
0.4142135623730951
  0
VERTEX
  5
41F
  8
THREE_QUARTER_INCH_THRUCUT
 10
58.35147785474188
 20
46.65260401602133
 30
0.0
 42
0.4142135623730951
  0
VERTEX
  5
420
  8
THREE_QUARTER_INCH_THRUCUT
 10
58.22147785474188
 20
46.78260401602121
 30
0.0
 42
0.4142135623730951
  0
SEQEND
  5
61D
  8
THREE_QUARTER_INCH_THRUCUT
  0
POLYLINE
  5
BB
  8
THREE_QUARTER_INCH_THRUCUT
 66
     1
 10
0.0
 20
0.0
 30
0.0
 70
     1
  0
VERTEX
  5
421
  8
THREE_QUARTER_INCH_THRUCUT
 10
50.19147785474191
 20
46.65260401602133
 30
0.0
 42
0.4142135623730951
  0
VERTEX
  5
422
  8
THREE_QUARTER_INCH_THRUCUT
 10
50.32147785474191
 20
46.52260401602145
 30
0.0
 42
0.4142135623730951
  0
VERTEX
  5
423
  8
THREE_QUARTER_INCH_THRUCUT
 10
50.4514778547419
 20
46.65260401602133
 30
0.0
 42
0.4142135623730951
  0
VERTEX
  5
424
  8
THREE_QUARTER_INCH_THRUCUT
 10
50.32147785474191
 20
46.78260401602121
 30
0.0
 42
0.4142135623730951
  0
SEQEND
  5
61E
  8
THREE_QUARTER_INCH_THRUCUT
  0
POLYLINE
  5
BC
  8
THREE_QUARTER_INCH_THRUCUT
 66
     1
 10
0.0
 20
0.0
 30
0.0
 70
     1
  0
VERTEX
  5
425
  8
THREE_QUARTER_INCH_THRUCUT
 10
42.29147785474188
 20
46.65260401602133
 30
0.0
 42
0.4142135623730951
  0
VERTEX
  5
426
  8
THREE_QUARTER_INCH_THRUCUT
 10
42.42147785474187
 20
46.52260401602145
 30
0.0
 42
0.4142135623730951
  0
VERTEX
  5
427
  8
THREE_QUARTER_INCH_THRUCUT
 10
42.55147785474187
 20
46.65260401602133
 30
0.0
 42
0.4142135623730951
  0
VERTEX
  5
428
  8
THREE_QUARTER_INCH_THRUCUT
 10
42.42147785474187
 20
46.78260401602121
 30
0.0
 42
0.4142135623730951
  0
SEQEND
  5
61F
  8
THREE_QUARTER_INCH_THRUCUT
  0
POLYLINE
  5
BD
  8
THREE_QUARTER_INCH_THRUCUT
 66
     1
 10
0.0
 20
0.0
 30
0.0
 70
     1
  0
VERTEX
  5
429
  8
THREE_QUARTER_INCH_THRUCUT
 10
34.39147785474191
 20
46.65260401602133
 30
0.0
 42
0.4142135623730951
  0
VERTEX
  5
42A
  8
THREE_QUARTER_INCH_THRUCUT
 10
34.5214778547419
 20
46.52260401602145
 30
0.0
 42
0.4142135623730951
  0
VERTEX
  5
42B
  8
THREE_QUARTER_INCH_THRUCUT
 10
34.6514778547419
 20
46.65260401602133
 30
0.0
 42
0.4142135623730951
  0
VERTEX
  5
42C
  8
THREE_QUARTER_INCH_THRUCUT
 10
34.5214778547419
 20
46.78260401602121
 30
0.0
 42
0.4142135623730951
  0
SEQEND
  5
620
  8
THREE_QUARTER_INCH_THRUCUT
  0
POLYLINE
  5
BE
  8
THREE_QUARTER_INCH_THRUCUT
 66
     1
 10
0.0
 20
0.0
 30
0.0
 70
     1
  0
VERTEX
  5
42D
  8
THREE_QUARTER_INCH_THRUCUT
 10
82.09059546919052
 20
46.65260972991145
 30
0.0
 42
0.4142135623730951
  0
VERTEX
  5
42E
  8
THREE_QUARTER_INCH_THRUCUT
 10
82.22059546919051
 20
46.52260972991157
 30
0.0
 42
0.4142135623730951
  0
VERTEX
  5
42F
  8
THREE_QUARTER_INCH_THRUCUT
 10
82.35059546919051
 20
46.65260972991145
 30
0.0
 42
0.4142135623730951
  0
VERTEX
  5
430
  8
THREE_QUARTER_INCH_THRUCUT
 10
82.22059546919051
 20
46.78260972991133
 30
0.0
 42
0.4142135623730951
  0
SEQEND
  5
621
  8
THREE_QUARTER_INCH_THRUCUT
  0
POLYLINE
  5
BF
  8
THREE_QUARTER_INCH_THRUCUT
 66
     1
 10
0.0
 20
0.0
 30
0.0
 70
     1
  0
VERTEX
  5
431
  8
THREE_QUARTER_INCH_THRUCUT
 10
73.89147139824438
 20
46.65260972991145
 30
0.0
 42
0.4142135623730951
  0
VERTEX
  5
432
  8
THREE_QUARTER_INCH_THRUCUT
 10
74.02147139824437
 20
46.52260972991157
 30
0.0
 42
0.4142135623730951
  0
VERTEX
  5
433
  8
THREE_QUARTER_INCH_THRUCUT
 10
74.15147139824437
 20
46.65260972991145
 30
0.0
 42
0.4142135623730951
  0
VERTEX
  5
434
  8
THREE_QUARTER_INCH_THRUCUT
 10
74.02147139824437
 20
46.78260972991133
 30
0.0
 42
0.4142135623730951
  0
SEQEND
  5
622
  8
THREE_QUARTER_INCH_THRUCUT
  0
POLYLINE
  5
C0
  8
THREE_QUARTER_INCH_THRUCUT
 66
     1
 10
0.0
 20
0.0
 30
0.0
 70
     1
  0
VERTEX
  5
435
  8
THREE_QUARTER_INCH_THRUCUT
 10
65.99147139824441
 20
46.65260972991145
 30
0.0
 42
0.4142135623730951
  0
VERTEX
  5
436
  8
THREE_QUARTER_INCH_THRUCUT
 10
66.12147139824441
 20
46.52260972991157
 30
0.0
 42
0.4142135623730951
  0
VERTEX
  5
437
  8
THREE_QUARTER_INCH_THRUCUT
 10
66.2514713982444
 20
46.65260972991145
 30
0.0
 42
0.4142135623730951
  0
VERTEX
  5
438
  8
THREE_QUARTER_INCH_THRUCUT
 10
66.12147139824441
 20
46.78260972991133
 30
0.0
 42
0.4142135623730951
  0
SEQEND
  5
623
  8
THREE_QUARTER_INCH_THRUCUT
  0
POLYLINE
  5
C1
  8
THREE_QUARTER_INCH_THRUCUT
 66
     1
 10
0.0
 20
0.0
 30
0.0
 70
     1
  0
VERTEX
  5
439
  8
THREE_QUARTER_INCH_THRUCUT
 10
58.09147139824434
 20
46.65260972991145
 30
0.0
 42
0.4142135623730951
  0
VERTEX
  5
43A
  8
THREE_QUARTER_INCH_THRUCUT
 10
58.22147139824434
 20
46.52260972991157
 30
0.0
 42
0.4142135623730951
  0
VERTEX
  5
43B
  8
THREE_QUARTER_INCH_THRUCUT
 10
58.35147139824434
 20
46.65260972991145
 30
0.0
 42
0.4142135623730951
  0
VERTEX
  5
43C
  8
THREE_QUARTER_INCH_THRUCUT
 10
58.22147139824434
 20
46.78260972991133
 30
0.0
 42
0.4142135623730951
  0
SEQEND
  5
624
  8
THREE_QUARTER_INCH_THRUCUT
  0
POLYLINE
  5
C2
  8
THREE_QUARTER_INCH_THRUCUT
 66
     1
 10
0.0
 20
0.0
 30
0.0
 70
     1
  0
VERTEX
  5
43D
  8
THREE_QUARTER_INCH_THRUCUT
 10
50.19147139824437
 20
46.65260972991145
 30
0.0
 42
0.4142135623730951
  0
VERTEX
  5
43E
  8
THREE_QUARTER_INCH_THRUCUT
 10
50.32147139824436
 20
46.52260972991157
 30
0.0
 42
0.4142135623730951
  0
VERTEX
  5
43F
  8
THREE_QUARTER_INCH_THRUCUT
 10
50.45147139824436
 20
46.65260972991145
 30
0.0
 42
0.4142135623730951
  0
VERTEX
  5
440
  8
THREE_QUARTER_INCH_THRUCUT
 10
50.32147139824436
 20
46.78260972991133
 30
0.0
 42
0.4142135623730951
  0
SEQEND
  5
625
  8
THREE_QUARTER_INCH_THRUCUT
  0
POLYLINE
  5
C3
  8
THREE_QUARTER_INCH_THRUCUT
 66
     1
 10
0.0
 20
0.0
 30
0.0
 70
     1
  0
VERTEX
  5
441
  8
THREE_QUARTER_INCH_THRUCUT
 10
42.29147139824433
 20
46.65260972991145
 30
0.0
 42
0.4142135623730951
  0
VERTEX
  5
442
  8
THREE_QUARTER_INCH_THRUCUT
 10
42.42147139824433
 20
46.52260972991157
 30
0.0
 42
0.4142135623730951
  0
VERTEX
  5
443
  8
THREE_QUARTER_INCH_THRUCUT
 10
42.55147139824432
 20
46.65260972991145
 30
0.0
 42
0.4142135623730951
  0
VERTEX
  5
444
  8
THREE_QUARTER_INCH_THRUCUT
 10
42.42147139824433
 20
46.78260972991133
 30
0.0
 42
0.4142135623730951
  0
SEQEND
  5
626
  8
THREE_QUARTER_INCH_THRUCUT
  0
POLYLINE
  5
C4
  8
THREE_QUARTER_INCH_THRUCUT
 66
     1
 10
0.0
 20
0.0
 30
0.0
 70
     1
  0
VERTEX
  5
445
  8
THREE_QUARTER_INCH_THRUCUT
 10
34.39147139824436
 20
46.65260972991145
 30
0.0
 42
0.4142135623730951
  0
VERTEX
  5
446
  8
THREE_QUARTER_INCH_THRUCUT
 10
34.52147139824436
 20
46.52260972991157
 30
0.0
 42
0.4142135623730951
  0
VERTEX
  5
447
  8
THREE_QUARTER_INCH_THRUCUT
 10
34.65147139824435
 20
46.65260972991145
 30
0.0
 42
0.4142135623730951
  0
VERTEX
  5
448
  8
THREE_QUARTER_INCH_THRUCUT
 10
34.52147139824436
 20
46.78260972991133
 30
0.0
 42
0.4142135623730951
  0
SEQEND
  5
627
  8
THREE_QUARTER_INCH_THRUCUT
  0
POLYLINE
  5
C5
  8
THREE_QUARTER_INCH_THRUCUT
 66
     1
 10
0.0
 20
0.0
 30
0.0
 70
     1
  0
VERTEX
  5
449
  8
THREE_QUARTER_INCH_THRUCUT
 10
87.85057315908456
 20
46.6526179112608
 30
0.0
 42
0.4142135623730951
  0
VERTEX
  5
44A
  8
THREE_QUARTER_INCH_THRUCUT
 10
87.72057598657808
 20
46.78262073869259
 30
0.0
 42
0.4142135623730951
  0
VERTEX
  5
44B
  8
THREE_QUARTER_INCH_THRUCUT
 10
87.59057315914602
 20
46.65262356618622
 30
0.0
 42
0.4142135623730951
  0
VERTEX
  5
44C
  8
THREE_QUARTER_INCH_THRUCUT
 10
87.72057033165261
 20
46.52262073875421
 30
0.0
 42
0.4142135623730951
  0
SEQEND
  5
628
  8
THREE_QUARTER_INCH_THRUCUT
  0
POLYLINE
  5
C6
  8
THREE_QUARTER_INCH_THRUCUT
 66
     1
 10
0.0
 20
0.0
 30
0.0
 70
     1
  0
VERTEX
  5
44D
  8
THREE_QUARTER_INCH_THRUCUT
 10
92.23345197112441
 20
46.65263091240799
 30
0.0
 42
0.4142135623730951
  0
VERTEX
  5
44E
  8
THREE_QUARTER_INCH_THRUCUT
 10
92.10345479861788
 20
46.78263373984022
 30
0.0
 42
0.4142135623730951
  0
VERTEX
  5
44F
  8
THREE_QUARTER_INCH_THRUCUT
 10
91.97345197118598
 20
46.6526365673334
 30
0.0
 42
0.4142135623730951
  0
VERTEX
  5
450
  8
THREE_QUARTER_INCH_THRUCUT
 10
92.10344914369252
 20
46.52263373990139
 30
0.0
 42
0.4142135623730951
  0
SEQEND
  5
629
  8
THREE_QUARTER_INCH_THRUCUT
  0
POLYLINE
  5
C7
  8
THREE_QUARTER_INCH_THRUCUT
 66
     1
 10
0.0
 20
0.0
 30
0.0
 70
     1
  0
VERTEX
  5
451
  8
THREE_QUARTER_INCH_THRUCUT
 10
87.8505731551745
 20
44.26973910765732
 30
0.0
 42
0.4142135623730951
  0
VERTEX
  5
452
  8
THREE_QUARTER_INCH_THRUCUT
 10
87.72057598266802
 20
44.3997419350891
 30
0.0
 42
0.4142135623730951
  0
VERTEX
  5
453
  8
THREE_QUARTER_INCH_THRUCUT
 10
87.59057315523596
 20
44.26974476258273
 30
0.0
 42
0.4142135623730951
  0
VERTEX
  5
454
  8
THREE_QUARTER_INCH_THRUCUT
 10
87.72057032774255
 20
44.13974193515072
 30
0.0
 42
0.4142135623730951
  0
SEQEND
  5
62A
  8
THREE_QUARTER_INCH_THRUCUT
  0
POLYLINE
  5
C8
  8
THREE_QUARTER_INCH_THRUCUT
 66
     1
 10
0.0
 20
0.0
 30
0.0
 70
     1
  0
VERTEX
  5
455
  8
THREE_QUARTER_INCH_THRUCUT
 10
92.23345196721435
 20
44.2697521088045
 30
0.0
 42
0.4142135623730951
  0
VERTEX
  5
456
  8
THREE_QUARTER_INCH_THRUCUT
 10
92.10345479470782
 20
44.39975493623673
 30
0.0
 42
0.4142135623730951
  0
VERTEX
  5
457
  8
THREE_QUARTER_INCH_THRUCUT
 10
91.97345196727592
 20
44.26975776372991
 30
0.0
 42
0.4142135623730951
  0
VERTEX
  5
458
  8
THREE_QUARTER_INCH_THRUCUT
 10
92.10344913978246
 20
44.1397549362979
 30
0.0
 42
0.4142135623730951
  0
SEQEND
  5
62B
  8
THREE_QUARTER_INCH_THRUCUT
  0
POLYLINE
  5
C9
  8
THREE_QUARTER_INCH_THRUCUT
 66
     1
 10
0.0
 20
0.0
 30
0.0
 70
     1
  0
VERTEX
  5
459
  8
THREE_QUARTER_INCH_THRUCUT
 10
90.04201256115086
 20
45.46118784098827
 30
0.0
 42
-0.4142135623730951
  0
VERTEX
  5
45A
  8
THREE_QUARTER_INCH_THRUCUT
 10
89.91201256115086
 20
45.33118784098839
 30
0.0
 42
-0.4142135623730951
  0
VERTEX
  5
45B
  8
THREE_QUARTER_INCH_THRUCUT
 10
89.78201256115086
 20
45.46118784098827
 30
0.0
 42
-0.4142135623730951
  0
VERTEX
  5
45C
  8
THREE_QUARTER_INCH_THRUCUT
 10
89.91201256115075
 20
45.59118784098838
 30
0.0
 42
-0.4142135623730951
  0
SEQEND
  5
62C
  8
THREE_QUARTER_INCH_THRUCUT
  0
POLYLINE
  5
CA
  8
THREE_QUARTER_INCH_THRUCUT
 66
     1
 10
0.0
 20
0.0
 30
0.0
 70
     1
  0
VERTEX
  5
45D
  8
THREE_QUARTER_INCH_THRUCUT
 10
87.85057315910633
 20
46.65261791125307
 30
0.0
 42
0.4142135623730951
  0
VERTEX
  5
45E
  8
THREE_QUARTER_INCH_THRUCUT
 10
87.72057598659985
 20
46.78262073868486
 30
0.0
 42
0.4142135623730951
  0
VERTEX
  5
45F
  8
THREE_QUARTER_INCH_THRUCUT
 10
87.59057315916779
 20
46.65262356617849
 30
0.0
 42
0.4142135623730951
  0
VERTEX
  5
460
  8
THREE_QUARTER_INCH_THRUCUT
 10
87.72057033167438
 20
46.52262073874648
 30
0.0
 42
0.4142135623730951
  0
SEQEND
  5
62D
  8
THREE_QUARTER_INCH_THRUCUT
  0
POLYLINE
  5
CB
  8
THREE_QUARTER_INCH_THRUCUT
 66
     1
 10
0.0
 20
0.0
 30
0.0
 70
     1
  0
VERTEX
  5
461
  8
THREE_QUARTER_INCH_THRUCUT
 10
92.23345197114618
 20
46.65263091240026
 30
0.0
 42
0.4142135623730951
  0
VERTEX
  5
462
  8
THREE_QUARTER_INCH_THRUCUT
 10
92.10345479863965
 20
46.78263373983249
 30
0.0
 42
0.4142135623730951
  0
VERTEX
  5
463
  8
THREE_QUARTER_INCH_THRUCUT
 10
91.97345197120775
 20
46.65263656732567
 30
0.0
 42
0.4142135623730951
  0
VERTEX
  5
464
  8
THREE_QUARTER_INCH_THRUCUT
 10
92.10344914371429
 20
46.52263373989366
 30
0.0
 42
0.4142135623730951
  0
SEQEND
  5
62E
  8
THREE_QUARTER_INCH_THRUCUT
  0
POLYLINE
  5
CC
  8
THREE_QUARTER_INCH_THRUCUT
 66
     1
 10
0.0
 20
0.0
 30
0.0
 70
     1
  0
VERTEX
  5
465
  8
THREE_QUARTER_INCH_THRUCUT
 10
87.85057315519627
 20
44.26973910764953
 30
0.0
 42
0.4142135623730951
  0
VERTEX
  5
466
  8
THREE_QUARTER_INCH_THRUCUT
 10
87.7205759826898
 20
44.39974193508131
 30
0.0
 42
0.4142135623730951
  0
VERTEX
  5
467
  8
THREE_QUARTER_INCH_THRUCUT
 10
87.59057315525773
 20
44.26974476257494
 30
0.0
 42
0.4142135623730951
  0
VERTEX
  5
468
  8
THREE_QUARTER_INCH_THRUCUT
 10
87.72057032776432
 20
44.13974193514294
 30
0.0
 42
0.4142135623730951
  0
SEQEND
  5
62F
  8
THREE_QUARTER_INCH_THRUCUT
  0
POLYLINE
  5
CD
  8
THREE_QUARTER_INCH_THRUCUT
 66
     1
 10
0.0
 20
0.0
 30
0.0
 70
     1
  0
VERTEX
  5
469
  8
THREE_QUARTER_INCH_THRUCUT
 10
92.23345196723612
 20
44.26975210879671
 30
0.0
 42
0.4142135623730951
  0
VERTEX
  5
46A
  8
THREE_QUARTER_INCH_THRUCUT
 10
92.10345479472959
 20
44.39975493622894
 30
0.0
 42
0.4142135623730951
  0
VERTEX
  5
46B
  8
THREE_QUARTER_INCH_THRUCUT
 10
91.97345196729769
 20
44.26975776372213
 30
0.0
 42
0.4142135623730951
  0
VERTEX
  5
46C
  8
THREE_QUARTER_INCH_THRUCUT
 10
92.10344913980423
 20
44.13975493629012
 30
0.0
 42
0.4142135623730951
  0
SEQEND
  5
630
  8
THREE_QUARTER_INCH_THRUCUT
  0
POLYLINE
  5
CE
  8
THREE_QUARTER_INCH_THRUCUT
 66
     1
 10
0.0
 20
0.0
 30
0.0
 70
     1
  0
VERTEX
  5
46D
  8
THREE_QUARTER_INCH_THRUCUT
 10
90.04201256117263
 20
45.46118784098054
 30
0.0
 42
-0.4142135623730951
  0
VERTEX
  5
46E
  8
THREE_QUARTER_INCH_THRUCUT
 10
89.91201256117263
 20
45.33118784098066
 30
0.0
 42
-0.4142135623730951
  0
VERTEX
  5
46F
  8
THREE_QUARTER_INCH_THRUCUT
 10
89.78201256117264
 20
45.46118784098054
 30
0.0
 42
-0.4142135623730951
  0
VERTEX
  5
470
  8
THREE_QUARTER_INCH_THRUCUT
 10
89.91201256117252
 20
45.59118784098065
 30
0.0
 42
-0.4142135623730951
  0
SEQEND
  5
631
  8
THREE_QUARTER_INCH_THRUCUT
  0
POLYLINE
  5
CF
  8
THREE_QUARTER_INCH_THRUCUT
 66
     1
 10
0.0
 20
0.0
 30
0.0
 70
     1
  0
VERTEX
  5
471
  8
THREE_QUARTER_INCH_THRUCUT
 10
83.20939111340094
 20
15.42434629918138
 30
0.0
 42
1.0
  0
VERTEX
  5
472
  8
THREE_QUARTER_INCH_THRUCUT
 10
83.20939111340094
 20
15.16355889760657
 30
0.0
  0
VERTEX
  5
473
  8
THREE_QUARTER_INCH_THRUCUT
 10
83.95939111340094
 20
15.16355889760657
 30
0.0
 42
1.0
  0
VERTEX
  5
474
  8
THREE_QUARTER_INCH_THRUCUT
 10
83.95939111340094
 20
15.42434629918138
 30
0.0
  0
VERTEX
  5
475
  8
THREE_QUARTER_INCH_THRUCUT
 10
83.95939111340094
 20
17.90277149603175
 30
0.0
 42
1.0
  0
VERTEX
  5
476
  8
THREE_QUARTER_INCH_THRUCUT
 10
83.95939111340094
 20
18.16355889760657
 30
0.0
  0
VERTEX
  5
477
  8
THREE_QUARTER_INCH_THRUCUT
 10
83.20939111340094
 20
18.16355889760657
 30
0.0
 42
1.0
  0
VERTEX
  5
478
  8
THREE_QUARTER_INCH_THRUCUT
 10
83.20939111340094
 20
17.90277149603175
 30
0.0
  0
SEQEND
  5
632
  8
THREE_QUARTER_INCH_THRUCUT
  0
POLYLINE
  5
D0
  8
THREE_QUARTER_INCH_THRUCUT
 66
     1
 10
0.0
 20
0.0
 30
0.0
 70
     1
  0
VERTEX
  5
479
  8
THREE_QUARTER_INCH_THRUCUT
 10
83.20939111340094
 20
27.42433950014779
 30
0.0
 42
1.0
  0
VERTEX
  5
47A
  8
THREE_QUARTER_INCH_THRUCUT
 10
83.20939111340094
 20
27.16355209857297
 30
0.0
  0
VERTEX
  5
47B
  8
THREE_QUARTER_INCH_THRUCUT
 10
83.95939111340094
 20
27.16355209857297
 30
0.0
 42
1.0
  0
VERTEX
  5
47C
  8
THREE_QUARTER_INCH_THRUCUT
 10
83.95939111340094
 20
27.42433950014779
 30
0.0
  0
VERTEX
  5
47D
  8
THREE_QUARTER_INCH_THRUCUT
 10
83.95939111340094
 20
29.90276469699815
 30
0.0
 42
1.0
  0
VERTEX
  5
47E
  8
THREE_QUARTER_INCH_THRUCUT
 10
83.95939111340094
 20
30.16355209857297
 30
0.0
  0
VERTEX
  5
47F
  8
THREE_QUARTER_INCH_THRUCUT
 10
83.20939111340094
 20
30.16355209857297
 30
0.0
 42
1.0
  0
VERTEX
  5
480
  8
THREE_QUARTER_INCH_THRUCUT
 10
83.20939111340094
 20
29.90276469699815
 30
0.0
  0
SEQEND
  5
633
  8
THREE_QUARTER_INCH_THRUCUT
  0
POLYLINE
  5
D1
  8
THREE_QUARTER_INCH_THRUCUT
 66
     1
 10
0.0
 20
0.0
 30
0.0
 70
     1
  0
VERTEX
  5
481
  8
THREE_QUARTER_INCH_THRUCUT
 10
83.20939051483371
 20
39.42434629918456
 30
0.0
 42
1.0
  0
VERTEX
  5
482
  8
THREE_QUARTER_INCH_THRUCUT
 10
83.20939051483371
 20
39.16355889760975
 30
0.0
  0
VERTEX
  5
483
  8
THREE_QUARTER_INCH_THRUCUT
 10
83.95939051483371
 20
39.16355889760975
 30
0.0
 42
1.0
  0
VERTEX
  5
484
  8
THREE_QUARTER_INCH_THRUCUT
 10
83.95939051483371
 20
39.42434629918456
 30
0.0
  0
VERTEX
  5
485
  8
THREE_QUARTER_INCH_THRUCUT
 10
83.95939051483371
 20
41.90277149603493
 30
0.0
 42
1.0
  0
VERTEX
  5
486
  8
THREE_QUARTER_INCH_THRUCUT
 10
83.95939051483371
 20
42.16355889760975
 30
0.0
  0
VERTEX
  5
487
  8
THREE_QUARTER_INCH_THRUCUT
 10
83.20939051483371
 20
42.16355889760975
 30
0.0
 42
1.0
  0
VERTEX
  5
488
  8
THREE_QUARTER_INCH_THRUCUT
 10
83.20939051483371
 20
41.90277149603493
 30
0.0
  0
SEQEND
  5
634
  8
THREE_QUARTER_INCH_THRUCUT
  0
POLYLINE
  5
D2
  8
THREE_QUARTER_INCH_THRUCUT
 66
     1
 10
0.0
 20
0.0
 30
0.0
 70
     1
  0
VERTEX
  5
489
  8
THREE_QUARTER_INCH_THRUCUT
 10
93.95962234830283
 20
47.40260972984369
 30
0.0
  0
VERTEX
  5
48A
  8
THREE_QUARTER_INCH_THRUCUT
 10
93.95965940891686
 20
28.65270838335632
 30
0.0
  0
VERTEX
  5
48B
  8
THREE_QUARTER_INCH_THRUCUT
 10
92.14406394901839
 20
28.65270838335632
 30
0.0
 42
1.0
  0
VERTEX
  5
48C
  8
THREE_QUARTER_INCH_THRUCUT
 10
91.95965940891686
 20
28.46830384325485
 30
0.0
  0
VERTEX
  5
48D
  8
THREE_QUARTER_INCH_THRUCUT
 10
91.95965940891686
 20
27.15262138335643
 30
0.0
  0
VERTEX
  5
48E
  8
THREE_QUARTER_INCH_THRUCUT
 10
91.95966610643823
 20
25.92136944818835
 30
0.0
 42
-0.143058627175503
  0
VERTEX
  5
48F
  8
THREE_QUARTER_INCH_THRUCUT
 10
91.95033108402883
 20
25.9087142511195
 30
0.0
 42
0.0750617181916302
  0
VERTEX
  5
490
  8
THREE_QUARTER_INCH_THRUCUT
 10
91.93938510643828
 20
25.89742344818855
 30
0.0
 42
0.2532340495763916
  0
VERTEX
  5
491
  8
THREE_QUARTER_INCH_THRUCUT
 10
91.91701437511436
 20
25.71795408953781
 30
0.0
 42
0.2532310404645838
  0
VERTEX
  5
492
  8
THREE_QUARTER_INCH_THRUCUT
 10
92.05502510643826
 20
25.60106344818873
 30
0.0
 42
0.2018735615043351
  0
VERTEX
  5
493
  8
THREE_QUARTER_INCH_THRUCUT
 10
92.17130193981829
 20
25.62363040515233
 30
0.0
 42
-0.0597507938202493
  0
VERTEX
  5
494
  8
THREE_QUARTER_INCH_THRUCUT
 10
92.22836610643826
 20
25.65266944818872
 30
0.0
  0
VERTEX
  5
495
  8
THREE_QUARTER_INCH_THRUCUT
 10
93.95966610643823
 20
25.65266944818872
 30
0.0
  0
VERTEX
  5
496
  8
THREE_QUARTER_INCH_THRUCUT
 10
93.95966571162681
 20
4.652601883354141
 30
0.0
  0
VERTEX
  5
497
  8
THREE_QUARTER_INCH_THRUCUT
 10
90.7146750939866
 20
4.652586024651914
 30
0.0
 42
-0.4142106424158553
  0
VERTEX
  5
498
  8
THREE_QUARTER_INCH_THRUCUT
 10
90.58467638831415
 20
4.78258602464452
 30
0.0
  0
VERTEX
  5
499
  8
THREE_QUARTER_INCH_THRUCUT
 10
90.58467638831426
 20
4.968739544305567
 30
0.0
 42
1.0
  0
VERTEX
  5
49A
  8
THREE_QUARTER_INCH_THRUCUT
 10
90.40082862128575
 20
5.152587307414382
 30
0.0
  0
VERTEX
  5
49B
  8
THREE_QUARTER_INCH_THRUCUT
 10
89.71467638831415
 20
5.152587292783796
 30
0.0
  0
VERTEX
  5
49C
  8
THREE_QUARTER_INCH_THRUCUT
 10
89.71467638831426
 20
5.752587553138159
 30
0.0
  0
VERTEX
  5
49D
  8
THREE_QUARTER_INCH_THRUCUT
 10
90.40083379900351
 20
5.752587530482874
 30
0.0
 42
1.0
  0
VERTEX
  5
49E
  8
THREE_QUARTER_INCH_THRUCUT
 10
90.58468156816808
 20
5.936437581960849
 30
0.0
  0
VERTEX
  5
49F
  8
THREE_QUARTER_INCH_THRUCUT
 10
90.58467992136285
 20
6.068742030416292
 30
0.0
 42
1.0
  0
VERTEX
  5
4A0
  8
THREE_QUARTER_INCH_THRUCUT
 10
90.40083215826586
 20
6.252587505155265
 30
0.0
  0
VERTEX
  5
4A1
  8
THREE_QUARTER_INCH_THRUCUT
 10
89.71467638831426
 20
6.252587505145261
 30
0.0
  0
VERTEX
  5
4A2
  8
THREE_QUARTER_INCH_THRUCUT
 10
89.71467638831426
 20
6.739764409507774
 30
0.0
  0
VERTEX
  5
4A3
  8
THREE_QUARTER_INCH_THRUCUT
 10
89.45467638831416
 20
6.739764409507774
 30
0.0
  0
VERTEX
  5
4A4
  8
THREE_QUARTER_INCH_THRUCUT
 10
89.45467638831416
 20
6.252587505145261
 30
0.0
  0
VERTEX
  5
4A5
  8
THREE_QUARTER_INCH_THRUCUT
 10
88.76852061836256
 20
6.252587505155265
 30
0.0
 42
1.0
  0
VERTEX
  5
4A6
  8
THREE_QUARTER_INCH_THRUCUT
 10
88.58467285526557
 20
6.068742030416292
 30
0.0
  0
VERTEX
  5
4A7
  8
THREE_QUARTER_INCH_THRUCUT
 10
88.58467120846034
 20
5.936437581960849
 30
0.0
 42
1.0
  0
VERTEX
  5
4A8
  8
THREE_QUARTER_INCH_THRUCUT
 10
88.76851897762491
 20
5.752587530482874
 30
0.0
  0
VERTEX
  5
4A9
  8
THREE_QUARTER_INCH_THRUCUT
 10
89.45467638831416
 20
5.752587553138159
 30
0.0
  0
VERTEX
  5
4AA
  8
THREE_QUARTER_INCH_THRUCUT
 10
89.45467638831427
 20
5.152587292783796
 30
0.0
  0
VERTEX
  5
4AB
  8
THREE_QUARTER_INCH_THRUCUT
 10
88.76852415534266
 20
5.152587307414382
 30
0.0
 42
1.0
  0
VERTEX
  5
4AC
  8
THREE_QUARTER_INCH_THRUCUT
 10
88.58467638831415
 20
4.968739544305567
 30
0.0
  0
VERTEX
  5
4AD
  8
THREE_QUARTER_INCH_THRUCUT
 10
88.58467638831426
 20
4.78258602464452
 30
0.0
 42
-0.4142106424158553
  0
VERTEX
  5
4AE
  8
THREE_QUARTER_INCH_THRUCUT
 10
88.45467768253637
 20
4.652586024651914
 30
0.0
  0
VERTEX
  5
4AF
  8
THREE_QUARTER_INCH_THRUCUT
 10
71.4646750939866
 20
4.652609812705254
 30
0.0
 42
-0.4142106424158553
  0
VERTEX
  5
4B0
  8
THREE_QUARTER_INCH_THRUCUT
 10
71.33467638831415
 20
4.782617742048973
 30
0.0
  0
VERTEX
  5
4B1
  8
THREE_QUARTER_INCH_THRUCUT
 10
71.33467638831426
 20
4.968771261710021
 30
0.0
 42
1.0
  0
VERTEX
  5
4B2
  8
THREE_QUARTER_INCH_THRUCUT
 10
71.15082862128575
 20
5.152619024818836
 30
0.0
  0
VERTEX
  5
4B3
  8
THREE_QUARTER_INCH_THRUCUT
 10
70.46467638831415
 20
5.15261901018825
 30
0.0
  0
VERTEX
  5
4B4
  8
THREE_QUARTER_INCH_THRUCUT
 10
70.46467638831426
 20
5.752619270542613
 30
0.0
  0
VERTEX
  5
4B5
  8
THREE_QUARTER_INCH_THRUCUT
 10
71.15083379900351
 20
5.752619247887328
 30
0.0
 42
1.0
  0
VERTEX
  5
4B6
  8
THREE_QUARTER_INCH_THRUCUT
 10
71.33468156816808
 20
5.936469299365303
 30
0.0
  0
VERTEX
  5
4B7
  8
THREE_QUARTER_INCH_THRUCUT
 10
71.33467992136285
 20
6.068773747820746
 30
0.0
 42
1.0
  0
VERTEX
  5
4B8
  8
THREE_QUARTER_INCH_THRUCUT
 10
71.15083215826586
 20
6.252619222559719
 30
0.0
  0
VERTEX
  5
4B9
  8
THREE_QUARTER_INCH_THRUCUT
 10
70.46467638831426
 20
6.252619222549715
 30
0.0
  0
VERTEX
  5
4BA
  8
THREE_QUARTER_INCH_THRUCUT
 10
70.46467638831426
 20
6.739796126912228
 30
0.0
  0
VERTEX
  5
4BB
  8
THREE_QUARTER_INCH_THRUCUT
 10
70.20467638831416
 20
6.739796126912228
 30
0.0
  0
VERTEX
  5
4BC
  8
THREE_QUARTER_INCH_THRUCUT
 10
70.20467638831416
 20
6.252619222549715
 30
0.0
  0
VERTEX
  5
4BD
  8
THREE_QUARTER_INCH_THRUCUT
 10
69.51852061836256
 20
6.252619222559719
 30
0.0
 42
1.0
  0
VERTEX
  5
4BE
  8
THREE_QUARTER_INCH_THRUCUT
 10
69.33467285526557
 20
6.068773747820746
 30
0.0
  0
VERTEX
  5
4BF
  8
THREE_QUARTER_INCH_THRUCUT
 10
69.33467120846034
 20
5.936469299365303
 30
0.0
 42
1.0
  0
VERTEX
  5
4C0
  8
THREE_QUARTER_INCH_THRUCUT
 10
69.51851897762491
 20
5.752619247887328
 30
0.0
  0
VERTEX
  5
4C1
  8
THREE_QUARTER_INCH_THRUCUT
 10
70.20467638831416
 20
5.752619270542613
 30
0.0
  0
VERTEX
  5
4C2
  8
THREE_QUARTER_INCH_THRUCUT
 10
70.20467638831427
 20
5.15261901018825
 30
0.0
  0
VERTEX
  5
4C3
  8
THREE_QUARTER_INCH_THRUCUT
 10
69.51852415534266
 20
5.152619024818836
 30
0.0
 42
1.0
  0
VERTEX
  5
4C4
  8
THREE_QUARTER_INCH_THRUCUT
 10
69.33467638831415
 20
4.968771261710021
 30
0.0
  0
VERTEX
  5
4C5
  8
THREE_QUARTER_INCH_THRUCUT
 10
69.33467638831426
 20
4.782617742048973
 30
0.0
 42
-0.4142106424158553
  0
VERTEX
  5
4C6
  8
THREE_QUARTER_INCH_THRUCUT
 10
69.20467768253637
 20
4.652609812705254
 30
0.0
  0
VERTEX
  5
4C7
  8
THREE_QUARTER_INCH_THRUCUT
 10
47.08967509398658
 20
4.652609812705254
 30
0.0
 42
-0.4142106424158553
  0
VERTEX
  5
4C8
  8
THREE_QUARTER_INCH_THRUCUT
 10
46.95967638831413
 20
4.782617742048973
 30
0.0
  0
VERTEX
  5
4C9
  8
THREE_QUARTER_INCH_THRUCUT
 10
46.95967638831424
 20
4.968771261710021
 30
0.0
 42
1.0
  0
VERTEX
  5
4CA
  8
THREE_QUARTER_INCH_THRUCUT
 10
46.77582862128573
 20
5.152619024818836
 30
0.0
  0
VERTEX
  5
4CB
  8
THREE_QUARTER_INCH_THRUCUT
 10
46.08967638831412
 20
5.15261901018825
 30
0.0
  0
VERTEX
  5
4CC
  8
THREE_QUARTER_INCH_THRUCUT
 10
46.08967638831424
 20
5.752619270542613
 30
0.0
  0
VERTEX
  5
4CD
  8
THREE_QUARTER_INCH_THRUCUT
 10
46.77583379900349
 20
5.752619247887328
 30
0.0
 42
1.0
  0
VERTEX
  5
4CE
  8
THREE_QUARTER_INCH_THRUCUT
 10
46.95968156816806
 20
5.936469299365303
 30
0.0
  0
VERTEX
  5
4CF
  8
THREE_QUARTER_INCH_THRUCUT
 10
46.95967992136283
 20
6.068773747820746
 30
0.0
 42
1.0
  0
VERTEX
  5
4D0
  8
THREE_QUARTER_INCH_THRUCUT
 10
46.77583215826584
 20
6.252619222559719
 30
0.0
  0
VERTEX
  5
4D1
  8
THREE_QUARTER_INCH_THRUCUT
 10
46.08967638831424
 20
6.252619222549715
 30
0.0
  0
VERTEX
  5
4D2
  8
THREE_QUARTER_INCH_THRUCUT
 10
46.08967638831424
 20
6.739796126912228
 30
0.0
  0
VERTEX
  5
4D3
  8
THREE_QUARTER_INCH_THRUCUT
 10
45.82967638831413
 20
6.739796126912228
 30
0.0
  0
VERTEX
  5
4D4
  8
THREE_QUARTER_INCH_THRUCUT
 10
45.82967638831413
 20
6.252619222549715
 30
0.0
  0
VERTEX
  5
4D5
  8
THREE_QUARTER_INCH_THRUCUT
 10
45.14352061836254
 20
6.252619222559719
 30
0.0
 42
1.0
  0
VERTEX
  5
4D6
  8
THREE_QUARTER_INCH_THRUCUT
 10
44.95967285526554
 20
6.068773747820746
 30
0.0
  0
VERTEX
  5
4D7
  8
THREE_QUARTER_INCH_THRUCUT
 10
44.95967120846031
 20
5.936469299365303
 30
0.0
 42
1.0
  0
VERTEX
  5
4D8
  8
THREE_QUARTER_INCH_THRUCUT
 10
45.14351897762489
 20
5.752619247887328
 30
0.0
  0
VERTEX
  5
4D9
  8
THREE_QUARTER_INCH_THRUCUT
 10
45.82967638831413
 20
5.752619270542613
 30
0.0
  0
VERTEX
  5
4DA
  8
THREE_QUARTER_INCH_THRUCUT
 10
45.82967638831425
 20
5.15261901018825
 30
0.0
  0
VERTEX
  5
4DB
  8
THREE_QUARTER_INCH_THRUCUT
 10
45.14352415534264
 20
5.152619024818836
 30
0.0
 42
1.0
  0
VERTEX
  5
4DC
  8
THREE_QUARTER_INCH_THRUCUT
 10
44.95967638831453
 20
4.968771261710021
 30
0.0
  0
VERTEX
  5
4DD
  8
THREE_QUARTER_INCH_THRUCUT
 10
44.95967638831504
 20
4.793246072471579
 30
0.0
 42
-0.4142106424158553
  0
VERTEX
  5
4DE
  8
THREE_QUARTER_INCH_THRUCUT
 10
44.82967768253715
 20
4.663246072478973
 30
0.0
  0
VERTEX
  5
4DF
  8
THREE_QUARTER_INCH_THRUCUT
 10
44.59314650038834
 20
4.668113412434352
 30
0.0
  0
VERTEX
  5
4E0
  8
THREE_QUARTER_INCH_THRUCUT
 10
44.35683998707509
 20
4.673892809932948
 30
0.0
  0
VERTEX
  5
4E1
  8
THREE_QUARTER_INCH_THRUCUT
 10
44.12075982915675
 20
4.680582577003196
 30
0.0
  0
VERTEX
  5
4E2
  8
THREE_QUARTER_INCH_THRUCUT
 10
43.88490771319272
 20
4.688181025673531
 30
0.0
  0
VERTEX
  5
4E3
  8
THREE_QUARTER_INCH_THRUCUT
 10
43.64928532574237
 20
4.696686467972389
 30
0.0
  0
VERTEX
  5
4E4
  8
THREE_QUARTER_INCH_THRUCUT
 10
43.41389435336509
 20
4.706097215928207
 30
0.0
  0
VERTEX
  5
4E5
  8
THREE_QUARTER_INCH_THRUCUT
 10
43.17873648262024
 20
4.716411581569417
 30
0.0
  0
VERTEX
  5
4E6
  8
THREE_QUARTER_INCH_THRUCUT
 10
42.94381340006721
 20
4.72762787692446
 30
0.0
  0
VERTEX
  5
4E7
  8
THREE_QUARTER_INCH_THRUCUT
 10
42.70912679226539
 20
4.739744414021767
 30
0.0
  0
VERTEX
  5
4E8
  8
THREE_QUARTER_INCH_THRUCUT
 10
42.47467834577415
 20
4.752759504889775
 30
0.0
  0
VERTEX
  5
4E9
  8
THREE_QUARTER_INCH_THRUCUT
 10
42.24046974715287
 20
4.76667146155692
 30
0.0
  0
VERTEX
  5
4EA
  8
THREE_QUARTER_INCH_THRUCUT
 10
42.00650268296092
 20
4.781478596051638
 30
0.0
  0
VERTEX
  5
4EB
  8
THREE_QUARTER_INCH_THRUCUT
 10
41.77277883975769
 20
4.797179220402365
 30
0.0
  0
VERTEX
  5
4EC
  8
THREE_QUARTER_INCH_THRUCUT
 10
41.53929990410258
 20
4.813771646637532
 30
0.0
  0
VERTEX
  5
4ED
  8
THREE_QUARTER_INCH_THRUCUT
 10
41.30606756255493
 20
4.83125418678558
 30
0.0
  0
VERTEX
  5
4EE
  8
THREE_QUARTER_INCH_THRUCUT
 10
41.07308350167415
 20
4.849625152874943
 30
0.0
  0
VERTEX
  5
4EF
  8
THREE_QUARTER_INCH_THRUCUT
 10
40.84034940801961
 20
4.868882856934055
 30
0.0
  0
VERTEX
  5
4F0
  8
THREE_QUARTER_INCH_THRUCUT
 10
40.60786696815068
 20
4.889025610991355
 30
0.0
  0
VERTEX
  5
4F1
  8
THREE_QUARTER_INCH_THRUCUT
 10
40.37563786862675
 20
4.910051727075274
 30
0.0
  0
VERTEX
  5
4F2
  8
THREE_QUARTER_INCH_THRUCUT
 10
40.14366379600721
 20
4.931959517214253
 30
0.0
  0
VERTEX
  5
4F3
  8
THREE_QUARTER_INCH_THRUCUT
 10
39.91194643685142
 20
4.954747293436722
 30
0.0
  0
VERTEX
  5
4F4
  8
THREE_QUARTER_INCH_THRUCUT
 10
39.68048747771878
 20
4.978413367771121
 30
0.0
  0
VERTEX
  5
4F5
  8
THREE_QUARTER_INCH_THRUCUT
 10
39.44928860516865
 20
5.002956052245883
 30
0.0
  0
VERTEX
  5
4F6
  8
THREE_QUARTER_INCH_THRUCUT
 10
39.21835150576042
 20
5.028373658889445
 30
0.0
  0
VERTEX
  5
4F7
  8
THREE_QUARTER_INCH_THRUCUT
 10
38.98767786605347
 20
5.054664499730242
 30
0.0
  0
VERTEX
  5
4F8
  8
THREE_QUARTER_INCH_THRUCUT
 10
38.75726937260718
 20
5.081826886796708
 30
0.0
  0
VERTEX
  5
4F9
  8
THREE_QUARTER_INCH_THRUCUT
 10
38.52712771198094
 20
5.109859132117283
 30
0.0
  0
VERTEX
  5
4FA
  8
THREE_QUARTER_INCH_THRUCUT
 10
38.2972545707341
 20
5.138759547720397
 30
0.0
  0
VERTEX
  5
4FB
  8
THREE_QUARTER_INCH_THRUCUT
 10
38.06765163542606
 20
5.168526445634489
 30
0.0
  0
VERTEX
  5
4FC
  8
THREE_QUARTER_INCH_THRUCUT
 10
37.83832059261621
 20
5.199158137887996
 30
0.0
  0
VERTEX
  5
4FD
  8
THREE_QUARTER_INCH_THRUCUT
 10
37.60926312886392
 20
5.230652936509351
 30
0.0
  0
VERTEX
  5
4FE
  8
THREE_QUARTER_INCH_THRUCUT
 10
37.38048093072855
 20
5.263009153526989
 30
0.0
  0
VERTEX
  5
4FF
  8
THREE_QUARTER_INCH_THRUCUT
 10
37.15197568476951
 20
5.296225100969346
 30
0.0
  0
VERTEX
  5
500
  8
THREE_QUARTER_INCH_THRUCUT
 10
36.92374907754616
 20
5.330299090864862
 30
0.0
  0
VERTEX
  5
501
  8
THREE_QUARTER_INCH_THRUCUT
 10
36.69580279561791
 20
5.365229435241966
 30
0.0
  0
VERTEX
  5
502
  8
THREE_QUARTER_INCH_THRUCUT
 10
36.46813852554409
 20
5.401014446129098
 30
0.0
  0
VERTEX
  5
503
  8
THREE_QUARTER_INCH_THRUCUT
 10
36.24075795388411
 20
5.437652435554693
 30
0.0
  0
VERTEX
  5
504
  8
THREE_QUARTER_INCH_THRUCUT
 10
36.01366276719737
 20
5.475141715547184
 30
0.0
  0
VERTEX
  5
505
  8
THREE_QUARTER_INCH_THRUCUT
 10
35.78685465204321
 20
5.513480598135009
 30
0.0
  0
VERTEX
  5
506
  8
THREE_QUARTER_INCH_THRUCUT
 10
35.56033529498104
 20
5.552667395346602
 30
0.0
  0
VERTEX
  5
507
  8
THREE_QUARTER_INCH_THRUCUT
 10
35.33410638257022
 20
5.5927004192104
 30
0.0
  0
VERTEX
  5
508
  8
THREE_QUARTER_INCH_THRUCUT
 10
35.10816960137014
 20
5.633577981754839
 30
0.0
  0
VERTEX
  5
509
  8
THREE_QUARTER_INCH_THRUCUT
 10
34.88252663794017
 20
5.675298395008354
 30
0.0
  0
VERTEX
  5
50A
  8
THREE_QUARTER_INCH_THRUCUT
 10
34.6571791788397
 20
5.717859970999379
 30
0.0
  0
VERTEX
  5
50B
  8
THREE_QUARTER_INCH_THRUCUT
 10
34.43212891062811
 20
5.761261021756352
 30
0.0
  0
VERTEX
  5
50C
  8
THREE_QUARTER_INCH_THRUCUT
 10
34.20737751986476
 20
5.805499859307707
 30
0.0
  0
VERTEX
  5
50D
  8
THREE_QUARTER_INCH_THRUCUT
 10
33.98292669310906
 20
5.85057479568188
 30
0.0
  0
VERTEX
  5
50E
  8
THREE_QUARTER_INCH_THRUCUT
 10
33.75877811692038
 20
5.896484142907307
 30
0.0
  0
VERTEX
  5
50F
  8
THREE_QUARTER_INCH_THRUCUT
 10
33.53493347785809
 20
5.943226213012423
 30
0.0
  0
VERTEX
  5
510
  8
THREE_QUARTER_INCH_THRUCUT
 10
33.31139446248158
 20
5.990799318025664
 30
0.0
  0
VERTEX
  5
511
  8
THREE_QUARTER_INCH_THRUCUT
 10
33.08816275735022
 20
6.039201769975466
 30
0.0
  0
VERTEX
  5
512
  8
THREE_QUARTER_INCH_THRUCUT
 10
32.86524004902341
 20
6.088431880890264
 30
0.0
  0
VERTEX
  5
513
  8
THREE_QUARTER_INCH_THRUCUT
 10
32.64262802406051
 20
6.138487962798495
 30
0.0
  0
VERTEX
  5
514
  8
THREE_QUARTER_INCH_THRUCUT
 10
32.42032836902089
 20
6.189368327728591
 30
0.0
  0
VERTEX
  5
515
  8
THREE_QUARTER_INCH_THRUCUT
 10
32.19834277046395
 20
6.241071287708991
 30
0.0
  0
VERTEX
  5
516
  8
THREE_QUARTER_INCH_THRUCUT
 10
31.97667291494908
 20
6.293595154768129
 30
0.0
  0
VERTEX
  5
517
  8
THREE_QUARTER_INCH_THRUCUT
 10
31.75532048903563
 20
6.346938240934442
 30
0.0
  0
VERTEX
  5
518
  8
THREE_QUARTER_INCH_THRUCUT
 10
31.53428717928301
 20
6.401098858236363
 30
0.0
  0
VERTEX
  5
519
  8
THREE_QUARTER_INCH_THRUCUT
 10
31.31357467225057
 20
6.456075318702331
 30
0.0
  0
VERTEX
  5
51A
  8
THREE_QUARTER_INCH_THRUCUT
 10
31.09318465449771
 20
6.511865934360778
 30
0.0
  0
VERTEX
  5
51B
  8
THREE_QUARTER_INCH_THRUCUT
 10
30.87311881258381
 20
6.568469017240142
 30
0.0
  0
VERTEX
  5
51C
  8
THREE_QUARTER_INCH_THRUCUT
 10
30.65337883306823
 20
6.625882879368859
 30
0.0
  0
VERTEX
  5
51D
  8
THREE_QUARTER_INCH_THRUCUT
 10
30.43396640251038
 20
6.684105832775363
 30
0.0
  0
VERTEX
  5
51E
  8
THREE_QUARTER_INCH_THRUCUT
 10
30.21488320746962
 20
6.743136189488091
 30
0.0
  0
VERTEX
  5
51F
  8
THREE_QUARTER_INCH_THRUCUT
 10
29.99613093450533
 20
6.802972261535477
 30
0.0
  0
VERTEX
  5
520
  8
THREE_QUARTER_INCH_THRUCUT
 10
29.7777112701769
 20
6.863612360945957
 30
0.0
  0
VERTEX
  5
521
  8
THREE_QUARTER_INCH_THRUCUT
 10
29.5596259010437
 20
6.925054799747969
 30
0.0
  0
VERTEX
  5
522
  8
THREE_QUARTER_INCH_THRUCUT
 10
29.34187651366511
 20
6.987297889969945
 30
0.0
  0
VERTEX
  5
523
  8
THREE_QUARTER_INCH_THRUCUT
 10
29.12446479460052
 20
7.050339943640322
 30
0.0
  0
VERTEX
  5
524
  8
THREE_QUARTER_INCH_THRUCUT
 10
28.9073924304093
 20
7.114179272787537
 30
0.0
  0
VERTEX
  5
525
  8
THREE_QUARTER_INCH_THRUCUT
 10
28.69066110765084
 20
7.178814189440022
 30
0.0
  0
VERTEX
  5
526
  8
THREE_QUARTER_INCH_THRUCUT
 10
28.47427251288451
 20
7.244243005626218
 30
0.0
  0
VERTEX
  5
527
  8
THREE_QUARTER_INCH_THRUCUT
 10
28.2582283326697
 20
7.310464033374556
 30
0.0
  0
VERTEX
  5
528
  8
THREE_QUARTER_INCH_THRUCUT
 10
28.04253025356577
 20
7.377475584713475
 30
0.0
  0
VERTEX
  5
529
  8
THREE_QUARTER_INCH_THRUCUT
 10
27.82717996213212
 20
7.445275971671405
 30
0.0
  0
VERTEX
  5
52A
  8
THREE_QUARTER_INCH_THRUCUT
 10
27.61217914492812
 20
7.513863506276788
 30
0.0
  0
VERTEX
  5
52B
  8
THREE_QUARTER_INCH_THRUCUT
 10
27.39752948851315
 20
7.583236500558057
 30
0.0
  0
VERTEX
  5
52C
  8
THREE_QUARTER_INCH_THRUCUT
 10
27.1832326794466
 20
7.653393266543647
 30
0.0
  0
VERTEX
  5
52D
  8
THREE_QUARTER_INCH_THRUCUT
 10
26.96929040428784
 20
7.724332116261994
 30
0.0
  0
VERTEX
  5
52E
  8
THREE_QUARTER_INCH_THRUCUT
 10
26.75570434959625
 20
7.796051361741534
 30
0.0
  0
VERTEX
  5
52F
  8
THREE_QUARTER_INCH_THRUCUT
 10
26.54247620193122
 20
7.868549315010703
 30
0.0
  0
VERTEX
  5
530
  8
THREE_QUARTER_INCH_THRUCUT
 10
26.32960764785211
 20
7.941824288097934
 30
0.0
  0
VERTEX
  5
531
  8
THREE_QUARTER_INCH_THRUCUT
 10
26.11710037391832
 20
8.015874593031665
 30
0.0
  0
VERTEX
  5
532
  8
THREE_QUARTER_INCH_THRUCUT
 10
25.90495606668922
 20
8.090698541840332
 30
0.0
  0
VERTEX
  5
533
  8
THREE_QUARTER_INCH_THRUCUT
 10
25.6931764127242
 20
8.16629444655237
 30
0.0
  0
VERTEX
  5
534
  8
THREE_QUARTER_INCH_THRUCUT
 10
25.48176309858262
 20
8.242660619196213
 30
0.0
  0
VERTEX
  5
535
  8
THREE_QUARTER_INCH_THRUCUT
 10
25.27071781082388
 20
8.3197953718003
 30
0.0
  0
VERTEX
  5
536
  8
THREE_QUARTER_INCH_THRUCUT
 10
25.06004223600734
 20
8.397697016393064
 30
0.0
  0
VERTEX
  5
537
  8
THREE_QUARTER_INCH_THRUCUT
 10
24.84973806069241
 20
8.476363865002941
 30
0.0
  0
VERTEX
  5
538
  8
THREE_QUARTER_INCH_THRUCUT
 10
24.63980697143843
 20
8.555794229658364
 30
0.0
  0
VERTEX
  5
539
  8
THREE_QUARTER_INCH_THRUCUT
 10
24.43025065480482
 20
8.635986422387774
 30
0.0
  0
VERTEX
  5
53A
  8
THREE_QUARTER_INCH_THRUCUT
 10
24.22107079735093
 20
8.716938755219603
 30
0.0
  0
VERTEX
  5
53B
  8
THREE_QUARTER_INCH_THRUCUT
 10
24.01226908563615
 20
8.79864954018229
 30
0.0
  0
VERTEX
  5
53C
  8
THREE_QUARTER_INCH_THRUCUT
 10
23.80384720621986
 20
8.881117089304263
 30
0.0
  0
VERTEX
  5
53D
  8
THREE_QUARTER_INCH_THRUCUT
 10
23.59580684566145
 20
8.964339714613965
 30
0.0
  0
VERTEX
  5
53E
  8
THREE_QUARTER_INCH_THRUCUT
 10
23.38814969052028
 20
9.04831572813983
 30
0.0
  0
VERTEX
  5
53F
  8
THREE_QUARTER_INCH_THRUCUT
 10
23.18087742735575
 20
9.133043441910292
 30
0.0
  0
VERTEX
  5
540
  8
THREE_QUARTER_INCH_THRUCUT
 10
22.97399174272723
 20
9.218521167953789
 30
0.0
  0
VERTEX
  5
541
  8
THREE_QUARTER_INCH_THRUCUT
 10
22.76749432319409
 20
9.304747218298754
 30
0.0
  0
VERTEX
  5
542
  8
THREE_QUARTER_INCH_THRUCUT
 10
22.56138685531572
 20
9.391719904973622
 30
0.0
  0
VERTEX
  5
543
  8
THREE_QUARTER_INCH_THRUCUT
 10
22.35567102565151
 20
9.47943754000683
 30
0.0
  0
VERTEX
  5
544
  8
THREE_QUARTER_INCH_THRUCUT
 10
22.15034852076083
 20
9.567898435426816
 30
0.0
  0
VERTEX
  5
545
  8
THREE_QUARTER_INCH_THRUCUT
 10
21.94542102720305
 20
9.657100903262013
 30
0.0
  0
VERTEX
  5
546
  8
THREE_QUARTER_INCH_THRUCUT
 10
21.74089023153757
 20
9.747043255540856
 30
0.0
  0
VERTEX
  5
547
  8
THREE_QUARTER_INCH_THRUCUT
 10
21.53675782032375
 20
9.83772380429178
 30
0.0
  0
VERTEX
  5
548
  8
THREE_QUARTER_INCH_THRUCUT
 10
21.33302548012099
 20
9.929140861543226
 30
0.0
  0
VERTEX
  5
549
  8
THREE_QUARTER_INCH_THRUCUT
 10
21.12969489748865
 20
10.02129273932362
 30
0.0
  0
VERTEX
  5
54A
  8
THREE_QUARTER_INCH_THRUCUT
 10
20.92676775898612
 20
10.11417774966141
 30
0.0
  0
VERTEX
  5
54B
  8
THREE_QUARTER_INCH_THRUCUT
 10
20.72424575117278
 20
10.20779420458502
 30
0.0
  0
VERTEX
  5
54C
  8
THREE_QUARTER_INCH_THRUCUT
 10
20.52213056060802
 20
10.3021404161229
 30
0.0
  0
VERTEX
  5
54D
  8
THREE_QUARTER_INCH_THRUCUT
 10
20.3204238738512
 20
10.39721469630347
 30
0.0
  0
VERTEX
  5
54E
  8
THREE_QUARTER_INCH_THRUCUT
 10
20.11912737746171
 20
10.49301535715517
 30
0.0
  0
VERTEX
  5
54F
  8
THREE_QUARTER_INCH_THRUCUT
 10
19.91824275799893
 20
10.58954071070644
 30
0.0
  0
VERTEX
  5
550
  8
THREE_QUARTER_INCH_THRUCUT
 10
19.71777170202223
 20
10.68678906898571
 30
0.0
  0
VERTEX
  5
551
  8
THREE_QUARTER_INCH_THRUCUT
 10
19.517715896091
 20
10.78475874402142
 30
0.0
  0
VERTEX
  5
552
  8
THREE_QUARTER_INCH_THRUCUT
 10
19.31807702676462
 20
10.88344804784201
 30
0.0
  0
VERTEX
  5
553
  8
THREE_QUARTER_INCH_THRUCUT
 10
19.11885678060247
 20
10.9828552924759
 30
0.0
  0
VERTEX
  5
554
  8
THREE_QUARTER_INCH_THRUCUT
 10
18.92005684416393
 20
11.08297878995154
 30
0.0
  0
VERTEX
  5
555
  8
THREE_QUARTER_INCH_THRUCUT
 10
18.72167890400837
 20
11.18381685229736
 30
0.0
  0
VERTEX
  5
556
  8
THREE_QUARTER_INCH_THRUCUT
 10
18.52372464669519
 20
11.2853677915418
 30
0.0
  0
VERTEX
  5
557
  8
THREE_QUARTER_INCH_THRUCUT
 10
18.32619575878375
 20
11.38762991971329
 30
0.0
  0
VERTEX
  5
558
  8
THREE_QUARTER_INCH_THRUCUT
 10
18.12909392683344
 20
11.49060154884026
 30
0.0
  0
VERTEX
  5
559
  8
THREE_QUARTER_INCH_THRUCUT
 10
17.93242083740363
 20
11.59428099095116
 30
0.0
  0
VERTEX
  5
55A
  8
THREE_QUARTER_INCH_THRUCUT
 10
17.73617817705372
 20
11.69866655807442
 30
0.0
  0
VERTEX
  5
55B
  8
THREE_QUARTER_INCH_THRUCUT
 10
17.54036763234306
 20
11.80375656223848
 30
0.0
  0
VERTEX
  5
55C
  8
THREE_QUARTER_INCH_THRUCUT
 10
17.34499088983106
 20
11.90954931547176
 30
0.0
  0
VERTEX
  5
55D
  8
THREE_QUARTER_INCH_THRUCUT
 10
17.15004963607709
 20
12.01604312980271
 30
0.0
  0
VERTEX
  5
55E
  8
THREE_QUARTER_INCH_THRUCUT
 10
16.95554555764052
 20
12.12323631725976
 30
0.0
 42
-0.4142106424158553
  0
VERTEX
  5
55F
  8
THREE_QUARTER_INCH_THRUCUT
 10
16.9086392630456
 20
12.30199137739114
 30
0.0
  0
VERTEX
  5
560
  8
THREE_QUARTER_INCH_THRUCUT
 10
17.00171602287623
 20
12.46320505442113
 30
0.0
 42
1.0
  0
VERTEX
  5
561
  8
THREE_QUARTER_INCH_THRUCUT
 10
16.93442306775485
 20
12.71434577121649
 30
0.0
  0
VERTEX
  5
562
  8
THREE_QUARTER_INCH_THRUCUT
 10
16.34019779582276
 20
13.05742187503201
 30
0.0
  0
VERTEX
  5
563
  8
THREE_QUARTER_INCH_THRUCUT
 10
16.640197926
 20
13.57703734277597
 30
0.0
  0
VERTEX
  5
564
  8
THREE_QUARTER_INCH_THRUCUT
 10
17.23442766332421
 20
13.2339586178115
 30
0.0
 42
1.0
  0
VERTEX
  5
565
  8
THREE_QUARTER_INCH_THRUCUT
 10
17.48556952758885
 20
13.30125354829615
 30
0.0
  0
VERTEX
  5
566
  8
THREE_QUARTER_INCH_THRUCUT
 10
17.55172032564139
 20
13.41583338509476
 30
0.0
 42
1.0
  0
VERTEX
  5
567
  8
THREE_QUARTER_INCH_THRUCUT
 10
17.48442622973995
 20
13.66697211813802
 30
0.0
  0
VERTEX
  5
568
  8
THREE_QUARTER_INCH_THRUCUT
 10
16.8901979020036
 20
14.01005000310524
 30
0.0
  0
VERTEX
  5
569
  8
THREE_QUARTER_INCH_THRUCUT
 10
17.13378635418475
 20
14.4319575784199
 30
0.0
  0
VERTEX
  5
56A
  8
THREE_QUARTER_INCH_THRUCUT
 10
16.90861974920069
 20
14.56195757842001
 30
0.0
  0
VERTEX
  5
56B
  8
THREE_QUARTER_INCH_THRUCUT
 10
16.66503129701955
 20
14.14005000310512
 30
0.0
  0
VERTEX
  5
56C
  8
THREE_QUARTER_INCH_THRUCUT
 10
16.07080296929321
 20
14.48312788808984
 30
0.0
 42
1.0
  0
VERTEX
  5
56D
  8
THREE_QUARTER_INCH_THRUCUT
 10
15.81966339865273
 20
14.41583691814335
 30
0.0
  0
VERTEX
  5
56E
  8
THREE_QUARTER_INCH_THRUCUT
 10
15.7535097482499
 20
14.30125872814996
 30
0.0
 42
1.0
  0
VERTEX
  5
56F
  8
THREE_QUARTER_INCH_THRUCUT
 10
15.8208015610365
 20
14.05011602850086
 30
0.0
  0
VERTEX
  5
570
  8
THREE_QUARTER_INCH_THRUCUT
 10
16.415031321016
 20
13.70703734277608
 30
0.0
  0
VERTEX
  5
571
  8
THREE_QUARTER_INCH_THRUCUT
 10
16.11503119083893
 20
13.18742187503189
 30
0.0
  0
VERTEX
  5
572
  8
THREE_QUARTER_INCH_THRUCUT
 10
15.52080593353738
 20
13.53049800418821
 30
0.0
 42
1.0
  0
VERTEX
  5
573
  8
THREE_QUARTER_INCH_THRUCUT
 10
15.26966521530723
 20
13.46320505442113
 30
0.0
  0
VERTEX
  5
574
  8
THREE_QUARTER_INCH_THRUCUT
 10
15.17658845547688
 20
13.30199137739091
 30
0.0
 42
-0.4142106424158553
  0
VERTEX
  5
575
  8
THREE_QUARTER_INCH_THRUCUT
 10
14.99900627381779
 20
13.25440742779405
 30
0.0
  0
VERTEX
  5
576
  8
THREE_QUARTER_INCH_THRUCUT
 10
14.8424423681104
 20
13.34930342803078
 30
0.0
  0
VERTEX
  5
577
  8
THREE_QUARTER_INCH_THRUCUT
 10
14.68619394070163
 20
13.44472134307748
 30
0.0
  0
VERTEX
  5
578
  8
THREE_QUARTER_INCH_THRUCUT
 10
14.53026182314204
 20
13.54065628991068
 30
0.0
  0
VERTEX
  5
579
  8
THREE_QUARTER_INCH_THRUCUT
 10
14.3746468469822
 20
13.63710338550693
 30
0.0
  0
VERTEX
  5
57A
  8
THREE_QUARTER_INCH_THRUCUT
 10
14.21934984377268
 20
13.73405774684276
 30
0.0
  0
VERTEX
  5
57B
  8
THREE_QUARTER_INCH_THRUCUT
 10
14.06437164506405
 20
13.83151449089472
 30
0.0
  0
VERTEX
  5
57C
  8
THREE_QUARTER_INCH_THRUCUT
 10
13.90971308240688
 20
13.92946873463933
 30
0.0
  0
VERTEX
  5
57D
  8
THREE_QUARTER_INCH_THRUCUT
 10
13.75537498735175
 20
14.02791559505315
 30
0.0
  0
VERTEX
  5
57E
  8
THREE_QUARTER_INCH_THRUCUT
 10
13.60135819144922
 20
14.12685018911271
 30
0.0
  0
VERTEX
  5
57F
  8
THREE_QUARTER_INCH_THRUCUT
 10
13.44766352624986
 20
14.22626763379456
 30
0.0
  0
VERTEX
  5
580
  8
THREE_QUARTER_INCH_THRUCUT
 10
13.29429182330425
 20
14.32616304607522
 30
0.0
  0
VERTEX
  5
581
  8
THREE_QUARTER_INCH_THRUCUT
 10
13.14124391416295
 20
14.42653154293125
 30
0.0
  0
VERTEX
  5
582
  8
THREE_QUARTER_INCH_THRUCUT
 10
12.98852063037654
 20
14.52736824133917
 30
0.0
  0
VERTEX
  5
583
  8
THREE_QUARTER_INCH_THRUCUT
 10
12.83612280349558
 20
14.62866825827554
 30
0.0
  0
VERTEX
  5
584
  8
THREE_QUARTER_INCH_THRUCUT
 10
12.68405126507065
 20
14.73042671071688
 30
0.0
  0
VERTEX
  5
585
  8
THREE_QUARTER_INCH_THRUCUT
 10
12.53230684665232
 20
14.83263871563974
 30
0.0
  0
VERTEX
  5
586
  8
THREE_QUARTER_INCH_THRUCUT
 10
12.38089037979116
 20
14.93529939002066
 30
0.0
  0
VERTEX
  5
587
  8
THREE_QUARTER_INCH_THRUCUT
 10
12.22980269603773
 20
15.03840385083617
 30
0.0
  0
VERTEX
  5
588
  8
THREE_QUARTER_INCH_THRUCUT
 10
12.07904462694261
 20
15.14194721506282
 30
0.0
  0
VERTEX
  5
589
  8
THREE_QUARTER_INCH_THRUCUT
 10
11.92861700405637
 20
15.24592459967715
 30
0.0
  0
VERTEX
  5
58A
  8
THREE_QUARTER_INCH_THRUCUT
 10
11.77852065892959
 20
15.3503311216557
 30
0.0
  0
VERTEX
  5
58B
  8
THREE_QUARTER_INCH_THRUCUT
 10
11.62875642311282
 20
15.455161897975
 30
0.0
  0
VERTEX
  5
58C
  8
THREE_QUARTER_INCH_THRUCUT
 10
11.47932512815665
 20
15.56041204561159
 30
0.0
  0
VERTEX
  5
58D
  8
THREE_QUARTER_INCH_THRUCUT
 10
11.33022760561163
 20
15.66607668154202
 30
0.0
  0
VERTEX
  5
58E
  8
THREE_QUARTER_INCH_THRUCUT
 10
11.18146468702835
 20
15.77215092274282
 30
0.0
  0
VERTEX
  5
58F
  8
THREE_QUARTER_INCH_THRUCUT
 10
11.03303720395737
 20
15.87862988619053
 30
0.0
  0
VERTEX
  5
590
  8
THREE_QUARTER_INCH_THRUCUT
 10
10.88494598794927
 20
15.9855086888617
 30
0.0
  0
VERTEX
  5
591
  8
THREE_QUARTER_INCH_THRUCUT
 10
10.7371918705546
 20
16.09278244773285
 30
0.0
  0
VERTEX
  5
592
  8
THREE_QUARTER_INCH_THRUCUT
 10
10.58977568332396
 20
16.20044627978054
 30
0.0
  0
VERTEX
  5
593
  8
THREE_QUARTER_INCH_THRUCUT
 10
10.4426982578079
 20
16.3084953019813
 30
0.0
  0
VERTEX
  5
594
  8
THREE_QUARTER_INCH_THRUCUT
 10
10.29596042555699
 20
16.41692463131167
 30
0.0
  0
VERTEX
  5
595
  8
THREE_QUARTER_INCH_THRUCUT
 10
10.14956301812181
 20
16.52572938474819
 30
0.0
  0
VERTEX
  5
596
  8
THREE_QUARTER_INCH_THRUCUT
 10
10.02285140101021
 20
16.62043382110128
 30
0.0
  0
VERTEX
  5
597
  8
THREE_QUARTER_INCH_THRUCUT
 10
9.896396736599373
 20
16.71546515962382
 30
0.0
  0
VERTEX
  5
598
  8
THREE_QUARTER_INCH_THRUCUT
 10
9.770201182051213
 20
16.81082178045952
 30
0.0
  0
VERTEX
  5
599
  8
THREE_QUARTER_INCH_THRUCUT
 10
9.644266894527634
 20
16.90650206375213
 30
0.0
  0
VERTEX
  5
59A
  8
THREE_QUARTER_INCH_THRUCUT
 10
9.644281934652406
 20
47.40261036491769
 30
0.0
  0
SEQEND
  5
635
  8
THREE_QUARTER_INCH_THRUCUT
  0
POLYLINE
  5
D3
  8
THREE_QUARTER_INCH_THRUCUT
 66
     1
 10
0.0
 20
0.0
 30
0.0
 70
     1
  0
VERTEX
  5
59B
  8
THREE_QUARTER_INCH_THRUCUT
 10
10.23528614725697
 20
46.65261036498511
 30
0.0
 42
0.4142135623730951
  0
VERTEX
  5
59C
  8
THREE_QUARTER_INCH_THRUCUT
 10
10.36528614725696
 20
46.52261036498523
 30
0.0
 42
0.4142135623730951
  0
VERTEX
  5
59D
  8
THREE_QUARTER_INCH_THRUCUT
 10
10.49528614725696
 20
46.65261036498511
 30
0.0
 42
0.4142135623730951
  0
VERTEX
  5
59E
  8
THREE_QUARTER_INCH_THRUCUT
 10
10.36528614725696
 20
46.78261036498499
 30
0.0
 42
0.4142135623730951
  0
SEQEND
  5
636
  8
THREE_QUARTER_INCH_THRUCUT
  0
POLYLINE
  5
D4
  8
THREE_QUARTER_INCH_THRUCUT
 66
     1
 10
0.0
 20
0.0
 30
0.0
 70
     1
  0
VERTEX
  5
59F
  8
THREE_QUARTER_INCH_THRUCUT
 10
10.23528614725697
 20
39.45261036498507
 30
0.0
 42
0.4142135623730951
  0
VERTEX
  5
5A0
  8
THREE_QUARTER_INCH_THRUCUT
 10
10.36528614725696
 20
39.32261036498496
 30
0.0
 42
0.4142135623730951
  0
VERTEX
  5
5A1
  8
THREE_QUARTER_INCH_THRUCUT
 10
10.49528614725696
 20
39.45261036498507
 30
0.0
 42
0.4142135623730951
  0
VERTEX
  5
5A2
  8
THREE_QUARTER_INCH_THRUCUT
 10
10.36528614725696
 20
39.58261036498518
 30
0.0
 42
0.4142135623730951
  0
SEQEND
  5
637
  8
THREE_QUARTER_INCH_THRUCUT
  0
POLYLINE
  5
D5
  8
THREE_QUARTER_INCH_THRUCUT
 66
     1
 10
0.0
 20
0.0
 30
0.0
 70
     1
  0
VERTEX
  5
5A3
  8
THREE_QUARTER_INCH_THRUCUT
 10
10.23528614725696
 20
25.05261036498499
 30
0.0
 42
0.4142135623730951
  0
VERTEX
  5
5A4
  8
THREE_QUARTER_INCH_THRUCUT
 10
10.36528614725695
 20
24.9226103649851
 30
0.0
 42
0.4142135623730951
  0
VERTEX
  5
5A5
  8
THREE_QUARTER_INCH_THRUCUT
 10
10.49528614725695
 20
25.05261036498499
 30
0.0
 42
0.4142135623730951
  0
VERTEX
  5
5A6
  8
THREE_QUARTER_INCH_THRUCUT
 10
10.36528614725695
 20
25.18261036498509
 30
0.0
 42
0.4142135623730951
  0
SEQEND
  5
638
  8
THREE_QUARTER_INCH_THRUCUT
  0
POLYLINE
  5
D6
  8
THREE_QUARTER_INCH_THRUCUT
 66
     1
 10
0.0
 20
0.0
 30
0.0
 70
     1
  0
VERTEX
  5
5A7
  8
THREE_QUARTER_INCH_THRUCUT
 10
10.23528614725696
 20
17.85261036498517
 30
0.0
 42
0.4142135623730951
  0
VERTEX
  5
5A8
  8
THREE_QUARTER_INCH_THRUCUT
 10
10.36528614725695
 20
17.72261036498506
 30
0.0
 42
0.4142135623730951
  0
VERTEX
  5
5A9
  8
THREE_QUARTER_INCH_THRUCUT
 10
10.49528614725695
 20
17.85261036498517
 30
0.0
 42
0.4142135623730951
  0
VERTEX
  5
5AA
  8
THREE_QUARTER_INCH_THRUCUT
 10
10.36528614725695
 20
17.98261036498528
 30
0.0
 42
0.4142135623730951
  0
SEQEND
  5
639
  8
THREE_QUARTER_INCH_THRUCUT
  0
POLYLINE
  5
D7
  8
THREE_QUARTER_INCH_THRUCUT
 66
     1
 10
0.0
 20
0.0
 30
0.0
 70
     1
  0
VERTEX
  5
5AB
  8
THREE_QUARTER_INCH_THRUCUT
 10
10.2352912876478
 20
32.25261024341412
 30
0.0
 42
0.4142135623730951
  0
VERTEX
  5
5AC
  8
THREE_QUARTER_INCH_THRUCUT
 10
10.36529128764779
 20
32.12261024341424
 30
0.0
 42
0.4142135623730951
  0
VERTEX
  5
5AD
  8
THREE_QUARTER_INCH_THRUCUT
 10
10.49529128764779
 20
32.25261024341412
 30
0.0
 42
0.4142135623730951
  0
VERTEX
  5
5AE
  8
THREE_QUARTER_INCH_THRUCUT
 10
10.36529128764779
 20
32.38261024341423
 30
0.0
 42
0.4142135623730951
  0
SEQEND
  5
63A
  8
THREE_QUARTER_INCH_THRUCUT
  0
POLYLINE
  5
D8
  8
THREE_QUARTER_INCH_THRUCUT
 66
     1
 10
0.0
 20
0.0
 30
0.0
 70
     1
  0
VERTEX
  5
5AF
  8
THREE_QUARTER_INCH_THRUCUT
 10
10.23528614725697
 20
45.15261036498511
 30
0.0
 42
0.4142135623730951
  0
VERTEX
  5
5B0
  8
THREE_QUARTER_INCH_THRUCUT
 10
10.36528614725696
 20
45.02261036498523
 30
0.0
 42
0.4142135623730951
  0
VERTEX
  5
5B1
  8
THREE_QUARTER_INCH_THRUCUT
 10
10.49528614725696
 20
45.15261036498511
 30
0.0
 42
0.4142135623730951
  0
VERTEX
  5
5B2
  8
THREE_QUARTER_INCH_THRUCUT
 10
10.36528614725696
 20
45.28261036498499
 30
0.0
 42
0.4142135623730951
  0
SEQEND
  5
63B
  8
THREE_QUARTER_INCH_THRUCUT
  0
POLYLINE
  5
D9
  8
THREE_QUARTER_INCH_THRUCUT
 66
     1
 10
0.0
 20
0.0
 30
0.0
 70
     1
  0
VERTEX
  5
5B3
  8
THREE_QUARTER_INCH_THRUCUT
 10
26.49147785474192
 20
46.65260401602133
 30
0.0
 42
0.4142135623730951
  0
VERTEX
  5
5B4
  8
THREE_QUARTER_INCH_THRUCUT
 10
26.62147785474192
 20
46.52260401602145
 30
0.0
 42
0.4142135623730951
  0
VERTEX
  5
5B5
  8
THREE_QUARTER_INCH_THRUCUT
 10
26.75147785474191
 20
46.65260401602133
 30
0.0
 42
0.4142135623730951
  0
VERTEX
  5
5B6
  8
THREE_QUARTER_INCH_THRUCUT
 10
26.62147785474192
 20
46.78260401602121
 30
0.0
 42
0.4142135623730951
  0
SEQEND
  5
63C
  8
THREE_QUARTER_INCH_THRUCUT
  0
POLYLINE
  5
DA
  8
THREE_QUARTER_INCH_THRUCUT
 66
     1
 10
0.0
 20
0.0
 30
0.0
 70
     1
  0
VERTEX
  5
5B7
  8
THREE_QUARTER_INCH_THRUCUT
 10
18.59147785474189
 20
46.65260401602133
 30
0.0
 42
0.4142135623730951
  0
VERTEX
  5
5B8
  8
THREE_QUARTER_INCH_THRUCUT
 10
18.72147785474188
 20
46.52260401602145
 30
0.0
 42
0.4142135623730951
  0
VERTEX
  5
5B9
  8
THREE_QUARTER_INCH_THRUCUT
 10
18.85147785474188
 20
46.65260401602133
 30
0.0
 42
0.4142135623730951
  0
VERTEX
  5
5BA
  8
THREE_QUARTER_INCH_THRUCUT
 10
18.72147785474188
 20
46.78260401602121
 30
0.0
 42
0.4142135623730951
  0
SEQEND
  5
63D
  8
THREE_QUARTER_INCH_THRUCUT
  0
POLYLINE
  5
DB
  8
THREE_QUARTER_INCH_THRUCUT
 66
     1
 10
0.0
 20
0.0
 30
0.0
 70
     1
  0
VERTEX
  5
5BB
  8
THREE_QUARTER_INCH_THRUCUT
 10
26.49147139824438
 20
46.65260972991145
 30
0.0
 42
0.4142135623730951
  0
VERTEX
  5
5BC
  8
THREE_QUARTER_INCH_THRUCUT
 10
26.62147139824437
 20
46.52260972991157
 30
0.0
 42
0.4142135623730951
  0
VERTEX
  5
5BD
  8
THREE_QUARTER_INCH_THRUCUT
 10
26.75147139824437
 20
46.65260972991145
 30
0.0
 42
0.4142135623730951
  0
VERTEX
  5
5BE
  8
THREE_QUARTER_INCH_THRUCUT
 10
26.62147139824437
 20
46.78260972991133
 30
0.0
 42
0.4142135623730951
  0
SEQEND
  5
63E
  8
THREE_QUARTER_INCH_THRUCUT
  0
POLYLINE
  5
DC
  8
THREE_QUARTER_INCH_THRUCUT
 66
     1
 10
0.0
 20
0.0
 30
0.0
 70
     1
  0
VERTEX
  5
5BF
  8
THREE_QUARTER_INCH_THRUCUT
 10
18.59147139824434
 20
46.65260972991145
 30
0.0
 42
0.4142135623730951
  0
VERTEX
  5
5C0
  8
THREE_QUARTER_INCH_THRUCUT
 10
18.72147139824434
 20
46.52260972991157
 30
0.0
 42
0.4142135623730951
  0
VERTEX
  5
5C1
  8
THREE_QUARTER_INCH_THRUCUT
 10
18.85147139824433
 20
46.65260972991145
 30
0.0
 42
0.4142135623730951
  0
VERTEX
  5
5C2
  8
THREE_QUARTER_INCH_THRUCUT
 10
18.72147139824434
 20
46.78260972991133
 30
0.0
 42
0.4142135623730951
  0
SEQEND
  5
63F
  8
THREE_QUARTER_INCH_THRUCUT
  0
POLYLINE
  5
DE
  8
SCREW_LOCATION_MARKERS
 66
     1
 10
0.0
 20
0.0
 30
0.0
 70
     1
  0
VERTEX
  5
5C3
  8
SCREW_LOCATION_MARKERS
 10
83.5844
 20
34.7936
 30
0.0
 42
0.4142135623730951
  0
VERTEX
  5
5C4
  8
SCREW_LOCATION_MARKERS
 10
83.4544
 20
34.6636
 30
0.0
 42
0.4142135623730951
  0
VERTEX
  5
5C5
  8
SCREW_LOCATION_MARKERS
 10
83.5844
 20
34.5336
 30
0.0
 42
0.4142135623730951
  0
VERTEX
  5
5C6
  8
SCREW_LOCATION_MARKERS
 10
83.7144
 20
34.6636
 30
0.0
 42
0.4142135623730951
  0
SEQEND
  5
640
  8
SCREW_LOCATION_MARKERS
  0
POLYLINE
  5
DF
  8
SCREW_LOCATION_MARKERS
 66
     1
 10
0.0
 20
0.0
 30
0.0
 70
     1
  0
VERTEX
  5
5C7
  8
SCREW_LOCATION_MARKERS
 10
83.5844
 20
22.7936
 30
0.0
 42
0.4142135623730951
  0
VERTEX
  5
5C8
  8
SCREW_LOCATION_MARKERS
 10
83.4544
 20
22.6636
 30
0.0
 42
0.4142135623730951
  0
VERTEX
  5
5C9
  8
SCREW_LOCATION_MARKERS
 10
83.5844
 20
22.5336
 30
0.0
 42
0.4142135623730951
  0
VERTEX
  5
5CA
  8
SCREW_LOCATION_MARKERS
 10
83.7144
 20
22.6636
 30
0.0
 42
0.4142135623730951
  0
SEQEND
  5
641
  8
SCREW_LOCATION_MARKERS
  0
POLYLINE
  5
E0
  8
SCREW_LOCATION_MARKERS
 66
     1
 10
0.0
 20
0.0
 30
0.0
 70
     1
  0
VERTEX
  5
5CB
  8
SCREW_LOCATION_MARKERS
 10
58.33439211340109
 20
9.782582414269498
 30
0.0
 42
0.4142135623730951
  0
VERTEX
  5
5CC
  8
SCREW_LOCATION_MARKERS
 10
58.2043921134011
 20
9.6525824142695
 30
0.0
 42
0.4142135623730951
  0
VERTEX
  5
5CD
  8
SCREW_LOCATION_MARKERS
 10
58.33439211340109
 20
9.5225824142695
 30
0.0
 42
0.4142135623730951
  0
VERTEX
  5
5CE
  8
SCREW_LOCATION_MARKERS
 10
58.46439211340109
 20
9.6525824142695
 30
0.0
 42
0.4142135623730951
  0
SEQEND
  5
642
  8
SCREW_LOCATION_MARKERS
  0
POLYLINE
  5
E1
  8
SCREW_LOCATION_MARKERS
 66
     1
 10
0.0
 20
0.0
 30
0.0
 70
     1
  0
VERTEX
  5
5CF
  8
SCREW_LOCATION_MARKERS
 10
73.08439211340162
 20
9.78259320680663
 30
0.0
 42
0.4142135623730951
  0
VERTEX
  5
5D0
  8
SCREW_LOCATION_MARKERS
 10
72.95439211340162
 20
9.652593206806632
 30
0.0
 42
0.4142135623730951
  0
VERTEX
  5
5D1
  8
SCREW_LOCATION_MARKERS
 10
73.08439211340162
 20
9.522593206806633
 30
0.0
 42
0.4142135623730951
  0
VERTEX
  5
5D2
  8
SCREW_LOCATION_MARKERS
 10
73.21439211340162
 20
9.652593206806632
 30
0.0
 42
0.4142135623730951
  0
SEQEND
  5
643
  8
SCREW_LOCATION_MARKERS
  0
ENDSEC
  0
EOF
