  0
SECTION
  2
HEADER
  9
$ACADVER
  1
AC1009
  9
$DWGCODEPAGE
  3
ansi_1252
  9
$INSBASE
 10
0.0
 20
0.0
 30
0.0
  9
$EXTMIN
 10
0.8704250625167447
 20
0.4055266365650141
 30
0.0
  9
$EXTMAX
 10
94.77072581194017
 20
47.40261036490348
 30
0.0
  9
$LIMMIN
 10
0.0
 20
0.0
  9
$LIMMAX
 10
12.0
 20
9.0
  9
$ORTHOMODE
 70
     0
  9
$REGENMODE
 70
     1
  9
$FILLMODE
 70
     1
  9
$QTEXTMODE
 70
     0
  9
$MIRRTEXT
 70
     1
  9
$DRAGMODE
 70
     2
  9
$LTSCALE
 40
1.0
  9
$OSMODE
 70
    37
  9
$ATTMODE
 70
     1
  9
$TEXTSIZE
 40
0.2
  9
$TRACEWID
 40
0.05
  9
$TEXTSTYLE
  7
STANDARD
  9
$CLAYER
  8
0
  9
$CELTYPE
  6
BYLAYER
  9
$CECOLOR
 62
   256
  9
$DIMSCALE
 40
1.0
  9
$DIMASZ
 40
0.18
  9
$DIMEXO
 40
0.0625
  9
$DIMDLI
 40
0.38
  9
$DIMRND
 40
0.0
  9
$DIMDLE
 40
0.0
  9
$DIMEXE
 40
0.18
  9
$DIMTP
 40
0.0
  9
$DIMTM
 40
0.0
  9
$DIMTXT
 40
0.18
  9
$DIMCEN
 40
0.09
  9
$DIMTSZ
 40
0.0
  9
$DIMTOL
 70
     0
  9
$DIMLIM
 70
     0
  9
$DIMTIH
 70
     1
  9
$DIMTOH
 70
     1
  9
$DIMSE1
 70
     0
  9
$DIMSE2
 70
     0
  9
$DIMTAD
 70
     0
  9
$DIMZIN
 70
     0
  9
$DIMBLK
  1

  9
$DIMASO
 70
     1
  9
$DIMSHO
 70
     1
  9
$DIMPOST
  1

  9
$DIMAPOST
  1

  9
$DIMALT
 70
     0
  9
$DIMALTD
 70
     2
  9
$DIMALTF
 40
25.4
  9
$DIMLFAC
 40
1.0
  9
$DIMTOFL
 70
     0
  9
$DIMTVP
 40
0.0
  9
$DIMTIX
 70
     0
  9
$DIMSOXD
 70
     0
  9
$DIMSAH
 70
     0
  9
$DIMBLK1
  1

  9
$DIMBLK2
  1

  9
$DIMSTYLE
  2
STANDARD
  9
$DIMCLRD
 70
     0
  9
$DIMCLRE
 70
     0
  9
$DIMCLRT
 70
     0
  9
$DIMTFAC
 40
1.0
  9
$DIMGAP
 40
0.09
  9
$LUNITS
 70
     2
  9
$LUPREC
 70
     4
  9
$SKETCHINC
 40
0.1
  9
$FILLETRAD
 40
0.5
  9
$AUNITS
 70
     0
  9
$AUPREC
 70
     0
  9
$MENU
  1
.
  9
$ELEVATION
 40
0.0
  9
$PELEVATION
 40
0.0
  9
$THICKNESS
 40
0.0
  9
$LIMCHECK
 70
     0
  9
$CHAMFERA
 40
0.0
  9
$CHAMFERB
 40
0.0
  9
$SKPOLY
 70
     0
  9
$TDCREATE
 40
2454910.5
  9
$TDUPDATE
 40
2457902.623870798
  9
$TDINDWG
 40
0.0000000116
  9
$TDUSRTIMER
 40
0.0000000116
  9
$USRTIMER
 70
     1
  9
$ANGBASE
 50
0.0
  9
$ANGDIR
 70
     0
  9
$PDMODE
 70
     0
  9
$PDSIZE
 40
0.0
  9
$PLINEWID
 40
0.0
  9
$COORDS
 70
     1
  9
$SPLFRAME
 70
     0
  9
$SPLINETYPE
 70
     6
  9
$SPLINESEGS
 70
     8
  9
$ATTDIA
 70
     0
  9
$ATTREQ
 70
     1
  9
$HANDLING
 70
     1
  9
$HANDSEED
  5
645
  9
$SURFTAB1
 70
     6
  9
$SURFTAB2
 70
     6
  9
$SURFTYPE
 70
     6
  9
$SURFU
 70
     6
  9
$SURFV
 70
     6
  9
$UCSNAME
  2

  9
$UCSORG
 10
0.0
 20
0.0
 30
0.0
  9
$UCSXDIR
 10
1.0
 20
0.0
 30
0.0
  9
$UCSYDIR
 10
0.0
 20
1.0
 30
0.0
  9
$PUCSNAME
  2

  9
$PUCSORG
 10
0.0
 20
0.0
 30
0.0
  9
$PUCSXDIR
 10
1.0
 20
0.0
 30
0.0
  9
$PUCSYDIR
 10
0.0
 20
1.0
 30
0.0
  9
$USERI1
 70
     0
  9
$USERI2
 70
     0
  9
$USERI3
 70
     0
  9
$USERI4
 70
     0
  9
$USERI5
 70
     0
  9
$USERR1
 40
0.0
  9
$USERR2
 40
0.0
  9
$USERR3
 40
0.0
  9
$USERR4
 40
0.0
  9
$USERR5
 40
0.0
  9
$WORLDVIEW
 70
     1
  9
$SHADEDGE
 70
     3
  9
$SHADEDIF
 70
    70
  9
$TILEMODE
 70
     1
  9
$MAXACTVP
 70
    64
  9
$PLIMCHECK
 70
     0
  9
$PEXTMIN
 10
1.000000000000000E+20
 20
1.000000000000000E+20
 30
1.000000000000000E+20
  9
$PEXTMAX
 10
-1.000000000000000E+20
 20
-1.000000000000000E+20
 30
-1.000000000000000E+20
  9
$PLIMMIN
 10
0.0
 20
0.0
  9
$PLIMMAX
 10
12.0
 20
9.0
  9
$UNITMODE
 70
     0
  9
$VISRETAIN
 70
     1
  9
$PLINEGEN
 70
     0
  9
$PSLTSCALE
 70
     1
  0
ENDSEC
  0
SECTION
  2
TABLES
  0
TABLE
  2
VPORT
 70
     1
  0
VPORT
  2
*ACTIVE
 70
     0
 10
0.0
 20
0.0
 11
1.0
 21
1.0
 12
10.42990654205607
 22
4.5
 13
0.0
 23
0.0
 14
0.5
 24
0.5
 15
0.5
 25
0.5
 16
0.0
 26
0.0
 36
1.0
 17
0.0
 27
0.0
 37
0.0
 40
9.0
 41
1.972972972850329
 42
50.0
 43
0.0
 44
0.0
 50
0.0
 51
0.0
 71
     0
 72
   100
 73
     1
 74
     3
 75
     0
 76
     0
 77
     0
 78
     0
  0
ENDTAB
  0
TABLE
  2
LTYPE
 70
     2
  0
LTYPE
  2
CONTINUOUS
 70
     0
  3
Solid line
 72
    65
 73
     0
 40
0.0
  0
LTYPE
  2
CONTINUOUS2
 70
     0
  3
Solid Line
 72
    65
 73
     0
 40
0.0
  0
ENDTAB
  0
TABLE
  2
LAYER
 70
     6
  0
LAYER
  2
0
 70
     0
 62
     7
  6
CONTINUOUS
  0
LAYER
  2
SOLID_ENDWALL_TRIM
 70
     0
 62
   245
  6
CONTINUOUS
  0
LAYER
  2
DOOR_OPTION_TRIM
 70
     0
 62
     3
  6
CONTINUOUS
  0
LAYER
  2
THREE_QUARTER_INCH_THRUCUT
 70
     0
 62
    18
  6
CONTINUOUS
  0
LAYER
  2
SCREW_LOCATION_RECESS
 70
     0
 62
     1
  6
CONTINUOUS
  0
LAYER
  2
SCREW_LOCATION_MARKERS
 70
     0
 62
     1
  6
CONTINUOUS
  0
ENDTAB
  0
TABLE
  2
STYLE
 70
     1
  0
STYLE
  2
STANDARD
 70
     0
 40
0.0
 41
1.0
 50
0.0
 71
     0
 42
0.2
  3
txt
  4

  0
ENDTAB
  0
TABLE
  2
VIEW
 70
     0
  0
ENDTAB
  0
TABLE
  2
UCS
 70
     0
  0
ENDTAB
  0
TABLE
  2
APPID
 70
     1
  0
APPID
  2
ACAD
 70
     0
  0
ENDTAB
  0
TABLE
  2
DIMSTYLE
 70
     1
  0
DIMSTYLE
  2
STANDARD
 70
     0
  3

  4

  5

  6

  7

 40
1.0
 41
0.18
 42
0.0625
 43
0.38
 44
0.18
 45
0.0
 46
0.0
 47
0.0
 48
0.0
140
0.18
141
0.09
142
0.0
143
25.4
144
1.0
145
0.0
146
1.0
147
0.09
 71
     0
 72
     0
 73
     1
 74
     1
 75
     0
 76
     0
 77
     0
 78
     0
170
     0
171
     2
172
     0
173
     0
174
     0
175
     0
176
     0
177
     0
178
     0
  0
ENDTAB
  0
ENDSEC
  0
SECTION
  2
BLOCKS
  0
BLOCK
  8
0
  2
$MODEL_SPACE
 70
     0
 10
0.0
 20
0.0
 30
0.0
  3
$MODEL_SPACE
  1

  0
ENDBLK
  5
21
  8
0
  0
BLOCK
 67
     1
  8
0
  2
$PAPER_SPACE
 70
     0
 10
0.0
 20
0.0
 30
0.0
  3
$PAPER_SPACE
  1

  0
ENDBLK
  5
1D
 67
     1
  8
0
  0
ENDSEC
  0
SECTION
  2
ENTITIES
  0
POLYLINE
  5
70
  8
SOLID_ENDWALL_TRIM
 66
     1
 10
0.0
 20
0.0
 30
0.0
 70
     1
  0
VERTEX
  5
EA
  8
SOLID_ENDWALL_TRIM
 10
90.16594311152261
 20
8.186717807096157
 30
0.0
 42
-0.4142135623730951
  0
VERTEX
  5
EB
  8
SOLID_ENDWALL_TRIM
 10
90.24076488920281
 20
8.018784184540264
 30
0.0
 42
-0.4142135623730951
  0
VERTEX
  5
EC
  8
SOLID_ENDWALL_TRIM
 10
90.0728312666468
 20
7.943962406860066
 30
0.0
 42
-0.4142135623730951
  0
VERTEX
  5
ED
  8
SOLID_ENDWALL_TRIM
 10
89.99800948896672
 20
8.11189602941573
 30
0.0
 42
-0.4142135623730951
  0
SEQEND
  5
5D6
  8
SOLID_ENDWALL_TRIM
  0
POLYLINE
  5
71
  8
SOLID_ENDWALL_TRIM
 66
     1
 10
0.0
 20
0.0
 30
0.0
 70
     1
  0
VERTEX
  5
EE
  8
SOLID_ENDWALL_TRIM
 10
91.86348579163842
 20
13.28719687644394
 30
0.0
 42
-0.4142135623730951
  0
VERTEX
  5
EF
  8
SOLID_ENDWALL_TRIM
 10
91.95892733041325
 20
13.13006345327636
 30
0.0
 42
-0.4142135623730951
  0
VERTEX
  5
F0
  8
SOLID_ENDWALL_TRIM
 10
91.80179390724601
 20
13.03462191450177
 30
0.0
 42
-0.4142135623730951
  0
VERTEX
  5
F1
  8
SOLID_ENDWALL_TRIM
 10
91.70635236847107
 20
13.19175533766889
 30
0.0
 42
-0.4142135623730951
  0
SEQEND
  5
5D7
  8
SOLID_ENDWALL_TRIM
  0
POLYLINE
  5
72
  8
SOLID_ENDWALL_TRIM
 66
     1
 10
0.0
 20
0.0
 30
0.0
 70
     1
  0
VERTEX
  5
F2
  8
SOLID_ENDWALL_TRIM
 10
92.51540241089339
 20
18.65257489892502
 30
0.0
 42
-0.4142135623730951
  0
VERTEX
  5
F3
  8
SOLID_ENDWALL_TRIM
 10
92.64309691758655
 20
18.5203095861612
 30
0.0
 42
-0.4142135623730951
  0
VERTEX
  5
F4
  8
SOLID_ENDWALL_TRIM
 10
92.51083160482318
 20
18.39261507946827
 30
0.0
 42
-0.4142135623730951
  0
VERTEX
  5
F5
  8
SOLID_ENDWALL_TRIM
 10
92.38313709813002
 20
18.52488039223164
 30
0.0
 42
-0.4142135623730951
  0
SEQEND
  5
5D8
  8
SOLID_ENDWALL_TRIM
  0
POLYLINE
  5
73
  8
SOLID_ENDWALL_TRIM
 66
     1
 10
0.0
 20
0.0
 30
0.0
 70
     1
  0
VERTEX
  5
F6
  8
SOLID_ENDWALL_TRIM
 10
91.53646506221503
 20
7.577070412063278
 30
0.0
 42
-0.4142135623730951
  0
VERTEX
  5
F7
  8
SOLID_ENDWALL_TRIM
 10
91.611286839895
 20
7.409136789507385
 30
0.0
 42
-0.4142135623730951
  0
VERTEX
  5
F8
  8
SOLID_ENDWALL_TRIM
 10
91.44335321733934
 20
7.334315011826958
 30
0.0
 42
-0.4142135623730951
  0
VERTEX
  5
F9
  8
SOLID_ENDWALL_TRIM
 10
91.36853143965891
 20
7.502248634383078
 30
0.0
 42
-0.4142135623730951
  0
SEQEND
  5
5D9
  8
SOLID_ENDWALL_TRIM
  0
POLYLINE
  5
74
  8
SOLID_ENDWALL_TRIM
 66
     1
 10
0.0
 20
0.0
 30
0.0
 70
     1
  0
VERTEX
  5
FA
  8
SOLID_ENDWALL_TRIM
 10
93.31319656034538
 20
12.89874801665502
 30
0.0
 42
-0.4142135623730951
  0
VERTEX
  5
FB
  8
SOLID_ENDWALL_TRIM
 10
93.40863809912008
 20
12.74161459348789
 30
0.0
 42
-0.4142135623730951
  0
VERTEX
  5
FC
  8
SOLID_ENDWALL_TRIM
 10
93.25150467595284
 20
12.64617305471285
 30
0.0
 42
-0.4142135623730951
  0
VERTEX
  5
FD
  8
SOLID_ENDWALL_TRIM
 10
93.15606313717791
 20
12.80330647787997
 30
0.0
 42
-0.4142135623730951
  0
SEQEND
  5
5DA
  8
SOLID_ENDWALL_TRIM
  0
POLYLINE
  5
75
  8
SOLID_ENDWALL_TRIM
 66
     1
 10
0.0
 20
0.0
 30
0.0
 70
     1
  0
VERTEX
  5
FE
  8
SOLID_ENDWALL_TRIM
 10
94.01224262896784
 20
18.65224290797693
 30
0.0
 42
-0.4142135623730951
  0
VERTEX
  5
FF
  8
SOLID_ENDWALL_TRIM
 10
94.13993713566066
 20
18.51997759521356
 30
0.0
 42
-0.4142135623730951
  0
VERTEX
  5
100
  8
SOLID_ENDWALL_TRIM
 10
94.00767182289752
 20
18.3922830885204
 30
0.0
 42
-0.4142135623730951
  0
VERTEX
  5
101
  8
SOLID_ENDWALL_TRIM
 10
93.87997731620436
 20
18.52454840128377
 30
0.0
 42
-0.4142135623730951
  0
SEQEND
  5
5DB
  8
SOLID_ENDWALL_TRIM
  0
POLYLINE
  5
76
  8
SOLID_ENDWALL_TRIM
 66
     1
 10
0.0
 20
0.0
 30
0.0
 70
     1
  0
VERTEX
  5
102
  8
SOLID_ENDWALL_TRIM
 10
9.739220644282625
 20
1.155526636633838
 30
0.0
 42
-0.4142135623730951
  0
VERTEX
  5
103
  8
SOLID_ENDWALL_TRIM
 10
9.60922064428263
 20
1.025526636633956
 30
0.0
 42
-0.4142135623730951
  0
VERTEX
  5
104
  8
SOLID_ENDWALL_TRIM
 10
9.479220644282634
 20
1.155526636633838
 30
0.0
 42
-0.4142135623730951
  0
VERTEX
  5
105
  8
SOLID_ENDWALL_TRIM
 10
9.60922064428263
 20
1.28552663663372
 30
0.0
 42
-0.4142135623730951
  0
SEQEND
  5
5DC
  8
SOLID_ENDWALL_TRIM
  0
POLYLINE
  5
77
  8
SOLID_ENDWALL_TRIM
 66
     1
 10
0.0
 20
0.0
 30
0.0
 70
     1
  0
VERTEX
  5
106
  8
SOLID_ENDWALL_TRIM
 10
9.739220644282625
 20
2.655526636633837
 30
0.0
 42
-0.4142135623730951
  0
VERTEX
  5
107
  8
SOLID_ENDWALL_TRIM
 10
9.60922064428263
 20
2.525526636633956
 30
0.0
 42
-0.4142135623730951
  0
VERTEX
  5
108
  8
SOLID_ENDWALL_TRIM
 10
9.479220644282634
 20
2.655526636633837
 30
0.0
 42
-0.4142135623730951
  0
VERTEX
  5
109
  8
SOLID_ENDWALL_TRIM
 10
9.60922064428263
 20
2.785526636633719
 30
0.0
 42
-0.4142135623730951
  0
SEQEND
  5
5DD
  8
SOLID_ENDWALL_TRIM
  0
POLYLINE
  5
78
  8
SOLID_ENDWALL_TRIM
 66
     1
 10
0.0
 20
0.0
 30
0.0
 70
     1
  0
VERTEX
  5
10A
  8
SOLID_ENDWALL_TRIM
 10
17.93834471522877
 20
1.155526636633838
 30
0.0
 42
-0.4142135623730951
  0
VERTEX
  5
10B
  8
SOLID_ENDWALL_TRIM
 10
17.80834471522877
 20
1.025526636633956
 30
0.0
 42
-0.4142135623730951
  0
VERTEX
  5
10C
  8
SOLID_ENDWALL_TRIM
 10
17.67834471522877
 20
1.155526636633838
 30
0.0
 42
-0.4142135623730951
  0
VERTEX
  5
10D
  8
SOLID_ENDWALL_TRIM
 10
17.80834471522877
 20
1.28552663663372
 30
0.0
 42
-0.4142135623730951
  0
SEQEND
  5
5DE
  8
SOLID_ENDWALL_TRIM
  0
POLYLINE
  5
79
  8
SOLID_ENDWALL_TRIM
 66
     1
 10
0.0
 20
0.0
 30
0.0
 70
     1
  0
VERTEX
  5
10E
  8
SOLID_ENDWALL_TRIM
 10
17.93834471522877
 20
2.655526636633837
 30
0.0
 42
-0.4142135623730951
  0
VERTEX
  5
10F
  8
SOLID_ENDWALL_TRIM
 10
17.80834471522877
 20
2.525526636633956
 30
0.0
 42
-0.4142135623730951
  0
VERTEX
  5
110
  8
SOLID_ENDWALL_TRIM
 10
17.67834471522877
 20
2.655526636633837
 30
0.0
 42
-0.4142135623730951
  0
VERTEX
  5
111
  8
SOLID_ENDWALL_TRIM
 10
17.80834471522877
 20
2.785526636633719
 30
0.0
 42
-0.4142135623730951
  0
SEQEND
  5
5DF
  8
SOLID_ENDWALL_TRIM
  0
POLYLINE
  5
7A
  8
SOLID_ENDWALL_TRIM
 66
     1
 10
0.0
 20
0.0
 30
0.0
 70
     1
  0
VERTEX
  5
112
  8
SOLID_ENDWALL_TRIM
 10
25.83834471522874
 20
1.155526636633838
 30
0.0
 42
-0.4142135623730951
  0
VERTEX
  5
113
  8
SOLID_ENDWALL_TRIM
 10
25.70834471522875
 20
1.025526636633956
 30
0.0
 42
-0.4142135623730951
  0
VERTEX
  5
114
  8
SOLID_ENDWALL_TRIM
 10
25.57834471522875
 20
1.155526636633838
 30
0.0
 42
-0.4142135623730951
  0
VERTEX
  5
115
  8
SOLID_ENDWALL_TRIM
 10
25.70834471522875
 20
1.28552663663372
 30
0.0
 42
-0.4142135623730951
  0
SEQEND
  5
5E0
  8
SOLID_ENDWALL_TRIM
  0
POLYLINE
  5
7B
  8
SOLID_ENDWALL_TRIM
 66
     1
 10
0.0
 20
0.0
 30
0.0
 70
     1
  0
VERTEX
  5
116
  8
SOLID_ENDWALL_TRIM
 10
25.83834471522874
 20
2.655526636633837
 30
0.0
 42
-0.4142135623730951
  0
VERTEX
  5
117
  8
SOLID_ENDWALL_TRIM
 10
25.70834471522875
 20
2.525526636633956
 30
0.0
 42
-0.4142135623730951
  0
VERTEX
  5
118
  8
SOLID_ENDWALL_TRIM
 10
25.57834471522875
 20
2.655526636633837
 30
0.0
 42
-0.4142135623730951
  0
VERTEX
  5
119
  8
SOLID_ENDWALL_TRIM
 10
25.70834471522875
 20
2.785526636633719
 30
0.0
 42
-0.4142135623730951
  0
SEQEND
  5
5E1
  8
SOLID_ENDWALL_TRIM
  0
POLYLINE
  5
7C
  8
SOLID_ENDWALL_TRIM
 66
     1
 10
0.0
 20
0.0
 30
0.0
 70
     1
  0
VERTEX
  5
11A
  8
SOLID_ENDWALL_TRIM
 10
33.73834471522878
 20
1.155526636633838
 30
0.0
 42
-0.4142135623730951
  0
VERTEX
  5
11B
  8
SOLID_ENDWALL_TRIM
 10
33.60834471522878
 20
1.025526636633956
 30
0.0
 42
-0.4142135623730951
  0
VERTEX
  5
11C
  8
SOLID_ENDWALL_TRIM
 10
33.47834471522879
 20
1.155526636633838
 30
0.0
 42
-0.4142135623730951
  0
VERTEX
  5
11D
  8
SOLID_ENDWALL_TRIM
 10
33.60834471522878
 20
1.28552663663372
 30
0.0
 42
-0.4142135623730951
  0
SEQEND
  5
5E2
  8
SOLID_ENDWALL_TRIM
  0
POLYLINE
  5
7D
  8
SOLID_ENDWALL_TRIM
 66
     1
 10
0.0
 20
0.0
 30
0.0
 70
     1
  0
VERTEX
  5
11E
  8
SOLID_ENDWALL_TRIM
 10
33.73834471522878
 20
2.655526636633837
 30
0.0
 42
-0.4142135623730951
  0
VERTEX
  5
11F
  8
SOLID_ENDWALL_TRIM
 10
33.60834471522878
 20
2.525526636633956
 30
0.0
 42
-0.4142135623730951
  0
VERTEX
  5
120
  8
SOLID_ENDWALL_TRIM
 10
33.47834471522879
 20
2.655526636633837
 30
0.0
 42
-0.4142135623730951
  0
VERTEX
  5
121
  8
SOLID_ENDWALL_TRIM
 10
33.60834471522878
 20
2.785526636633719
 30
0.0
 42
-0.4142135623730951
  0
SEQEND
  5
5E3
  8
SOLID_ENDWALL_TRIM
  0
POLYLINE
  5
7E
  8
SOLID_ENDWALL_TRIM
 66
     1
 10
0.0
 20
0.0
 30
0.0
 70
     1
  0
VERTEX
  5
122
  8
SOLID_ENDWALL_TRIM
 10
41.63834471522875
 20
1.155526636633838
 30
0.0
 42
-0.4142135623730951
  0
VERTEX
  5
123
  8
SOLID_ENDWALL_TRIM
 10
41.50834471522876
 20
1.025526636633956
 30
0.0
 42
-0.4142135623730951
  0
VERTEX
  5
124
  8
SOLID_ENDWALL_TRIM
 10
41.37834471522876
 20
1.155526636633838
 30
0.0
 42
-0.4142135623730951
  0
VERTEX
  5
125
  8
SOLID_ENDWALL_TRIM
 10
41.50834471522876
 20
1.28552663663372
 30
0.0
 42
-0.4142135623730951
  0
SEQEND
  5
5E4
  8
SOLID_ENDWALL_TRIM
  0
POLYLINE
  5
7F
  8
SOLID_ENDWALL_TRIM
 66
     1
 10
0.0
 20
0.0
 30
0.0
 70
     1
  0
VERTEX
  5
126
  8
SOLID_ENDWALL_TRIM
 10
41.63834471522875
 20
2.655526636633837
 30
0.0
 42
-0.4142135623730951
  0
VERTEX
  5
127
  8
SOLID_ENDWALL_TRIM
 10
41.50834471522876
 20
2.525526636633956
 30
0.0
 42
-0.4142135623730951
  0
VERTEX
  5
128
  8
SOLID_ENDWALL_TRIM
 10
41.37834471522876
 20
2.655526636633837
 30
0.0
 42
-0.4142135623730951
  0
VERTEX
  5
129
  8
SOLID_ENDWALL_TRIM
 10
41.50834471522876
 20
2.785526636633719
 30
0.0
 42
-0.4142135623730951
  0
SEQEND
  5
5E5
  8
SOLID_ENDWALL_TRIM
  0
POLYLINE
  5
80
  8
SOLID_ENDWALL_TRIM
 66
     1
 10
0.0
 20
0.0
 30
0.0
 70
     1
  0
VERTEX
  5
12A
  8
SOLID_ENDWALL_TRIM
 10
49.53834471522879
 20
1.155526636633838
 30
0.0
 42
-0.4142135623730951
  0
VERTEX
  5
12B
  8
SOLID_ENDWALL_TRIM
 10
49.40834471522879
 20
1.025526636633956
 30
0.0
 42
-0.4142135623730951
  0
VERTEX
  5
12C
  8
SOLID_ENDWALL_TRIM
 10
49.2783447152288
 20
1.155526636633838
 30
0.0
 42
-0.4142135623730951
  0
VERTEX
  5
12D
  8
SOLID_ENDWALL_TRIM
 10
49.40834471522879
 20
1.28552663663372
 30
0.0
 42
-0.4142135623730951
  0
SEQEND
  5
5E6
  8
SOLID_ENDWALL_TRIM
  0
POLYLINE
  5
81
  8
SOLID_ENDWALL_TRIM
 66
     1
 10
0.0
 20
0.0
 30
0.0
 70
     1
  0
VERTEX
  5
12E
  8
SOLID_ENDWALL_TRIM
 10
49.53834471522879
 20
2.655526636633837
 30
0.0
 42
-0.4142135623730951
  0
VERTEX
  5
12F
  8
SOLID_ENDWALL_TRIM
 10
49.40834471522879
 20
2.525526636633956
 30
0.0
 42
-0.4142135623730951
  0
VERTEX
  5
130
  8
SOLID_ENDWALL_TRIM
 10
49.2783447152288
 20
2.655526636633837
 30
0.0
 42
-0.4142135623730951
  0
VERTEX
  5
131
  8
SOLID_ENDWALL_TRIM
 10
49.40834471522879
 20
2.785526636633719
 30
0.0
 42
-0.4142135623730951
  0
SEQEND
  5
5E7
  8
SOLID_ENDWALL_TRIM
  0
POLYLINE
  5
82
  8
SOLID_ENDWALL_TRIM
 66
     1
 10
0.0
 20
0.0
 30
0.0
 70
     1
  0
VERTEX
  5
132
  8
SOLID_ENDWALL_TRIM
 10
57.43834471522877
 20
1.155526636633852
 30
0.0
 42
-0.4142135623730951
  0
VERTEX
  5
133
  8
SOLID_ENDWALL_TRIM
 10
57.30834471522877
 20
1.025526636633971
 30
0.0
 42
-0.4142135623730951
  0
VERTEX
  5
134
  8
SOLID_ENDWALL_TRIM
 10
57.17834471522877
 20
1.155526636633852
 30
0.0
 42
-0.4142135623730951
  0
VERTEX
  5
135
  8
SOLID_ENDWALL_TRIM
 10
57.30834471522877
 20
1.285526636633734
 30
0.0
 42
-0.4142135623730951
  0
SEQEND
  5
5E8
  8
SOLID_ENDWALL_TRIM
  0
POLYLINE
  5
83
  8
SOLID_ENDWALL_TRIM
 66
     1
 10
0.0
 20
0.0
 30
0.0
 70
     1
  0
VERTEX
  5
136
  8
SOLID_ENDWALL_TRIM
 10
57.43834471522877
 20
2.655526636633851
 30
0.0
 42
-0.4142135623730951
  0
VERTEX
  5
137
  8
SOLID_ENDWALL_TRIM
 10
57.30834471522877
 20
2.52552663663397
 30
0.0
 42
-0.4142135623730951
  0
VERTEX
  5
138
  8
SOLID_ENDWALL_TRIM
 10
57.17834471522877
 20
2.655526636633851
 30
0.0
 42
-0.4142135623730951
  0
VERTEX
  5
139
  8
SOLID_ENDWALL_TRIM
 10
57.30834471522877
 20
2.785526636633733
 30
0.0
 42
-0.4142135623730951
  0
SEQEND
  5
5E9
  8
SOLID_ENDWALL_TRIM
  0
POLYLINE
  5
84
  8
SOLID_ENDWALL_TRIM
 66
     1
 10
0.0
 20
0.0
 30
0.0
 70
     1
  0
VERTEX
  5
13A
  8
SOLID_ENDWALL_TRIM
 10
65.33834471522874
 20
1.155526636633852
 30
0.0
 42
-0.4142135623730951
  0
VERTEX
  5
13B
  8
SOLID_ENDWALL_TRIM
 10
65.20834471522875
 20
1.025526636633971
 30
0.0
 42
-0.4142135623730951
  0
VERTEX
  5
13C
  8
SOLID_ENDWALL_TRIM
 10
65.07834471522875
 20
1.155526636633852
 30
0.0
 42
-0.4142135623730951
  0
VERTEX
  5
13D
  8
SOLID_ENDWALL_TRIM
 10
65.20834471522875
 20
1.285526636633734
 30
0.0
 42
-0.4142135623730951
  0
SEQEND
  5
5EA
  8
SOLID_ENDWALL_TRIM
  0
POLYLINE
  5
85
  8
SOLID_ENDWALL_TRIM
 66
     1
 10
0.0
 20
0.0
 30
0.0
 70
     1
  0
VERTEX
  5
13E
  8
SOLID_ENDWALL_TRIM
 10
65.33834471522874
 20
2.655526636633851
 30
0.0
 42
-0.4142135623730951
  0
VERTEX
  5
13F
  8
SOLID_ENDWALL_TRIM
 10
65.20834471522875
 20
2.52552663663397
 30
0.0
 42
-0.4142135623730951
  0
VERTEX
  5
140
  8
SOLID_ENDWALL_TRIM
 10
65.07834471522875
 20
2.655526636633851
 30
0.0
 42
-0.4142135623730951
  0
VERTEX
  5
141
  8
SOLID_ENDWALL_TRIM
 10
65.20834471522875
 20
2.785526636633733
 30
0.0
 42
-0.4142135623730951
  0
SEQEND
  5
5EB
  8
SOLID_ENDWALL_TRIM
  0
POLYLINE
  5
86
  8
SOLID_ENDWALL_TRIM
 66
     1
 10
0.0
 20
0.0
 30
0.0
 70
     1
  0
VERTEX
  5
142
  8
SOLID_ENDWALL_TRIM
 10
73.23834471522878
 20
1.155526636633852
 30
0.0
 42
-0.4142135623730951
  0
VERTEX
  5
143
  8
SOLID_ENDWALL_TRIM
 10
73.10834471522878
 20
1.025526636633971
 30
0.0
 42
-0.4142135623730951
  0
VERTEX
  5
144
  8
SOLID_ENDWALL_TRIM
 10
72.97834471522879
 20
1.155526636633852
 30
0.0
 42
-0.4142135623730951
  0
VERTEX
  5
145
  8
SOLID_ENDWALL_TRIM
 10
73.10834471522878
 20
1.285526636633734
 30
0.0
 42
-0.4142135623730951
  0
SEQEND
  5
5EC
  8
SOLID_ENDWALL_TRIM
  0
POLYLINE
  5
87
  8
SOLID_ENDWALL_TRIM
 66
     1
 10
0.0
 20
0.0
 30
0.0
 70
     1
  0
VERTEX
  5
146
  8
SOLID_ENDWALL_TRIM
 10
73.23834471522878
 20
2.655526636633851
 30
0.0
 42
-0.4142135623730951
  0
VERTEX
  5
147
  8
SOLID_ENDWALL_TRIM
 10
73.10834471522878
 20
2.52552663663397
 30
0.0
 42
-0.4142135623730951
  0
VERTEX
  5
148
  8
SOLID_ENDWALL_TRIM
 10
72.97834471522879
 20
2.655526636633851
 30
0.0
 42
-0.4142135623730951
  0
VERTEX
  5
149
  8
SOLID_ENDWALL_TRIM
 10
73.10834471522878
 20
2.785526636633733
 30
0.0
 42
-0.4142135623730951
  0
SEQEND
  5
5ED
  8
SOLID_ENDWALL_TRIM
  0
POLYLINE
  5
88
  8
SOLID_ENDWALL_TRIM
 66
     1
 10
0.0
 20
0.0
 30
0.0
 70
     1
  0
VERTEX
  5
14A
  8
SOLID_ENDWALL_TRIM
 10
82.31554063531826
 20
2.655530128589476
 30
0.0
 42
-0.4142135623730951
  0
VERTEX
  5
14B
  8
SOLID_ENDWALL_TRIM
 10
82.18554063531826
 20
2.525530128589594
 30
0.0
 42
-0.4142135623730951
  0
VERTEX
  5
14C
  8
SOLID_ENDWALL_TRIM
 10
82.05554063531827
 20
2.655530128589476
 30
0.0
 42
-0.4142135623730951
  0
VERTEX
  5
14D
  8
SOLID_ENDWALL_TRIM
 10
82.18554063531826
 20
2.785530128589357
 30
0.0
 42
-0.4142135623730951
  0
SEQEND
  5
5EE
  8
SOLID_ENDWALL_TRIM
  0
POLYLINE
  5
89
  8
SOLID_ENDWALL_TRIM
 66
     1
 10
0.0
 20
0.0
 30
0.0
 70
     1
  0
VERTEX
  5
14E
  8
SOLID_ENDWALL_TRIM
 10
87.62678428511703
 20
3.945673241476753
 30
0.0
 42
-0.4142135623730951
  0
VERTEX
  5
14F
  8
SOLID_ENDWALL_TRIM
 10
87.60660337769679
 20
3.762936460899765
 30
0.0
 42
-0.4142135623730951
  0
VERTEX
  5
150
  8
SOLID_ENDWALL_TRIM
 10
87.42386659711968
 20
3.783117368319892
 30
0.0
 42
-0.4142135623730951
  0
VERTEX
  5
151
  8
SOLID_ENDWALL_TRIM
 10
87.44404750453981
 20
3.965854148897107
 30
0.0
 42
-0.4142135623730951
  0
SEQEND
  5
5EF
  8
SOLID_ENDWALL_TRIM
  0
POLYLINE
  5
8A
  8
SOLID_ENDWALL_TRIM
 66
     1
 10
0.0
 20
0.0
 30
0.0
 70
     1
  0
VERTEX
  5
152
  8
SOLID_ENDWALL_TRIM
 10
2.739223629840978
 20
2.655526829530501
 30
0.0
 42
-0.4142135623730951
  0
VERTEX
  5
153
  8
SOLID_ENDWALL_TRIM
 10
2.609223629840983
 20
2.52552682953062
 30
0.0
 42
-0.4142135623730951
  0
VERTEX
  5
154
  8
SOLID_ENDWALL_TRIM
 10
2.479223629840988
 20
2.655526829530501
 30
0.0
 42
-0.4142135623730951
  0
VERTEX
  5
155
  8
SOLID_ENDWALL_TRIM
 10
2.609223629840983
 20
2.785526829530383
 30
0.0
 42
-0.4142135623730951
  0
SEQEND
  5
5F0
  8
SOLID_ENDWALL_TRIM
  0
POLYLINE
  5
8B
  8
SOLID_ENDWALL_TRIM
 66
     1
 10
0.0
 20
0.0
 30
0.0
 70
     1
  0
VERTEX
  5
156
  8
SOLID_ENDWALL_TRIM
 10
9.73922710078017
 20
1.155532350523957
 30
0.0
 42
-0.4142135623730951
  0
VERTEX
  5
157
  8
SOLID_ENDWALL_TRIM
 10
9.609227100780174
 20
1.025532350524075
 30
0.0
 42
-0.4142135623730951
  0
VERTEX
  5
158
  8
SOLID_ENDWALL_TRIM
 10
9.479227100780179
 20
1.155532350523957
 30
0.0
 42
-0.4142135623730951
  0
VERTEX
  5
159
  8
SOLID_ENDWALL_TRIM
 10
9.609227100780174
 20
1.285532350523839
 30
0.0
 42
-0.4142135623730951
  0
SEQEND
  5
5F1
  8
SOLID_ENDWALL_TRIM
  0
POLYLINE
  5
8C
  8
SOLID_ENDWALL_TRIM
 66
     1
 10
0.0
 20
0.0
 30
0.0
 70
     1
  0
VERTEX
  5
15A
  8
SOLID_ENDWALL_TRIM
 10
17.93835117172631
 20
1.155532350523957
 30
0.0
 42
-0.4142135623730951
  0
VERTEX
  5
15B
  8
SOLID_ENDWALL_TRIM
 10
17.80835117172631
 20
1.025532350524075
 30
0.0
 42
-0.4142135623730951
  0
VERTEX
  5
15C
  8
SOLID_ENDWALL_TRIM
 10
17.67835117172632
 20
1.155532350523957
 30
0.0
 42
-0.4142135623730951
  0
VERTEX
  5
15D
  8
SOLID_ENDWALL_TRIM
 10
17.80835117172631
 20
1.285532350523839
 30
0.0
 42
-0.4142135623730951
  0
SEQEND
  5
5F2
  8
SOLID_ENDWALL_TRIM
  0
POLYLINE
  5
8D
  8
SOLID_ENDWALL_TRIM
 66
     1
 10
0.0
 20
0.0
 30
0.0
 70
     1
  0
VERTEX
  5
15E
  8
SOLID_ENDWALL_TRIM
 10
25.83835117172629
 20
1.155532350523957
 30
0.0
 42
-0.4142135623730951
  0
VERTEX
  5
15F
  8
SOLID_ENDWALL_TRIM
 10
25.70835117172629
 20
1.025532350524075
 30
0.0
 42
-0.4142135623730951
  0
VERTEX
  5
160
  8
SOLID_ENDWALL_TRIM
 10
25.5783511717263
 20
1.155532350523957
 30
0.0
 42
-0.4142135623730951
  0
VERTEX
  5
161
  8
SOLID_ENDWALL_TRIM
 10
25.70835117172629
 20
1.285532350523839
 30
0.0
 42
-0.4142135623730951
  0
SEQEND
  5
5F3
  8
SOLID_ENDWALL_TRIM
  0
POLYLINE
  5
8E
  8
SOLID_ENDWALL_TRIM
 66
     1
 10
0.0
 20
0.0
 30
0.0
 70
     1
  0
VERTEX
  5
162
  8
SOLID_ENDWALL_TRIM
 10
33.73835117172632
 20
1.155532350523957
 30
0.0
 42
-0.4142135623730951
  0
VERTEX
  5
163
  8
SOLID_ENDWALL_TRIM
 10
33.60835117172633
 20
1.025532350524075
 30
0.0
 42
-0.4142135623730951
  0
VERTEX
  5
164
  8
SOLID_ENDWALL_TRIM
 10
33.47835117172633
 20
1.155532350523957
 30
0.0
 42
-0.4142135623730951
  0
VERTEX
  5
165
  8
SOLID_ENDWALL_TRIM
 10
33.60835117172633
 20
1.285532350523839
 30
0.0
 42
-0.4142135623730951
  0
SEQEND
  5
5F4
  8
SOLID_ENDWALL_TRIM
  0
POLYLINE
  5
8F
  8
SOLID_ENDWALL_TRIM
 66
     1
 10
0.0
 20
0.0
 30
0.0
 70
     1
  0
VERTEX
  5
166
  8
SOLID_ENDWALL_TRIM
 10
41.6383511717263
 20
1.155532350523957
 30
0.0
 42
-0.4142135623730951
  0
VERTEX
  5
167
  8
SOLID_ENDWALL_TRIM
 10
41.5083511717263
 20
1.025532350524075
 30
0.0
 42
-0.4142135623730951
  0
VERTEX
  5
168
  8
SOLID_ENDWALL_TRIM
 10
41.37835117172631
 20
1.155532350523957
 30
0.0
 42
-0.4142135623730951
  0
VERTEX
  5
169
  8
SOLID_ENDWALL_TRIM
 10
41.5083511717263
 20
1.285532350523839
 30
0.0
 42
-0.4142135623730951
  0
SEQEND
  5
5F5
  8
SOLID_ENDWALL_TRIM
  0
POLYLINE
  5
90
  8
SOLID_ENDWALL_TRIM
 66
     1
 10
0.0
 20
0.0
 30
0.0
 70
     1
  0
VERTEX
  5
16A
  8
SOLID_ENDWALL_TRIM
 10
49.53835117172633
 20
1.155532350523957
 30
0.0
 42
-0.4142135623730951
  0
VERTEX
  5
16B
  8
SOLID_ENDWALL_TRIM
 10
49.40835117172634
 20
1.025532350524075
 30
0.0
 42
-0.4142135623730951
  0
VERTEX
  5
16C
  8
SOLID_ENDWALL_TRIM
 10
49.27835117172634
 20
1.155532350523957
 30
0.0
 42
-0.4142135623730951
  0
VERTEX
  5
16D
  8
SOLID_ENDWALL_TRIM
 10
49.40835117172634
 20
1.285532350523839
 30
0.0
 42
-0.4142135623730951
  0
SEQEND
  5
5F6
  8
SOLID_ENDWALL_TRIM
  0
POLYLINE
  5
91
  8
SOLID_ENDWALL_TRIM
 66
     1
 10
0.0
 20
0.0
 30
0.0
 70
     1
  0
VERTEX
  5
16E
  8
SOLID_ENDWALL_TRIM
 10
57.43835117172631
 20
1.155532350523971
 30
0.0
 42
-0.4142135623730951
  0
VERTEX
  5
16F
  8
SOLID_ENDWALL_TRIM
 10
57.30835117172631
 20
1.025532350524089
 30
0.0
 42
-0.4142135623730951
  0
VERTEX
  5
170
  8
SOLID_ENDWALL_TRIM
 10
57.17835117172632
 20
1.155532350523971
 30
0.0
 42
-0.4142135623730951
  0
VERTEX
  5
171
  8
SOLID_ENDWALL_TRIM
 10
57.30835117172631
 20
1.285532350523853
 30
0.0
 42
-0.4142135623730951
  0
SEQEND
  5
5F7
  8
SOLID_ENDWALL_TRIM
  0
POLYLINE
  5
92
  8
SOLID_ENDWALL_TRIM
 66
     1
 10
0.0
 20
0.0
 30
0.0
 70
     1
  0
VERTEX
  5
172
  8
SOLID_ENDWALL_TRIM
 10
65.33835117172629
 20
1.155532350523971
 30
0.0
 42
-0.4142135623730951
  0
VERTEX
  5
173
  8
SOLID_ENDWALL_TRIM
 10
65.20835117172629
 20
1.025532350524089
 30
0.0
 42
-0.4142135623730951
  0
VERTEX
  5
174
  8
SOLID_ENDWALL_TRIM
 10
65.0783511717263
 20
1.155532350523971
 30
0.0
 42
-0.4142135623730951
  0
VERTEX
  5
175
  8
SOLID_ENDWALL_TRIM
 10
65.20835117172629
 20
1.285532350523853
 30
0.0
 42
-0.4142135623730951
  0
SEQEND
  5
5F8
  8
SOLID_ENDWALL_TRIM
  0
POLYLINE
  5
93
  8
SOLID_ENDWALL_TRIM
 66
     1
 10
0.0
 20
0.0
 30
0.0
 70
     1
  0
VERTEX
  5
176
  8
SOLID_ENDWALL_TRIM
 10
73.23835117172632
 20
1.155532350523971
 30
0.0
 42
-0.4142135623730951
  0
VERTEX
  5
177
  8
SOLID_ENDWALL_TRIM
 10
73.10835117172633
 20
1.025532350524089
 30
0.0
 42
-0.4142135623730951
  0
VERTEX
  5
178
  8
SOLID_ENDWALL_TRIM
 10
72.97835117172633
 20
1.155532350523971
 30
0.0
 42
-0.4142135623730951
  0
VERTEX
  5
179
  8
SOLID_ENDWALL_TRIM
 10
73.10835117172633
 20
1.285532350523853
 30
0.0
 42
-0.4142135623730951
  0
SEQEND
  5
5F9
  8
SOLID_ENDWALL_TRIM
  0
POLYLINE
  5
94
  8
SOLID_ENDWALL_TRIM
 66
     1
 10
0.0
 20
0.0
 30
0.0
 70
     1
  0
VERTEX
  5
17A
  8
SOLID_ENDWALL_TRIM
 10
83.06554454439612
 20
1.155528469848549
 30
0.0
 42
-0.4142135623730951
  0
VERTEX
  5
17B
  8
SOLID_ENDWALL_TRIM
 10
82.93554454439612
 20
1.02552846984844
 30
0.0
 42
-0.4142135623730951
  0
VERTEX
  5
17C
  8
SOLID_ENDWALL_TRIM
 10
82.80554454439613
 20
1.155528469848549
 30
0.0
 42
-0.4142135623730951
  0
VERTEX
  5
17D
  8
SOLID_ENDWALL_TRIM
 10
82.93554454439612
 20
1.285528469848658
 30
0.0
 42
-0.4142135623730951
  0
SEQEND
  5
5FA
  8
SOLID_ENDWALL_TRIM
  0
POLYLINE
  5
95
  8
SOLID_ENDWALL_TRIM
 66
     1
 10
0.0
 20
0.0
 30
0.0
 70
     1
  0
VERTEX
  5
17E
  8
SOLID_ENDWALL_TRIM
 10
81.5945364227137
 20
1.155532985597632
 30
0.0
 42
-0.4142135623730951
  0
VERTEX
  5
17F
  8
SOLID_ENDWALL_TRIM
 10
81.4645364227137
 20
1.02553298559775
 30
0.0
 42
-0.4142135623730951
  0
VERTEX
  5
180
  8
SOLID_ENDWALL_TRIM
 10
81.33453642271371
 20
1.155532985597632
 30
0.0
 42
-0.4142135623730951
  0
VERTEX
  5
181
  8
SOLID_ENDWALL_TRIM
 10
81.4645364227137
 20
1.285532985597514
 30
0.0
 42
-0.4142135623730951
  0
SEQEND
  5
5FB
  8
SOLID_ENDWALL_TRIM
  0
POLYLINE
  5
96
  8
SOLID_ENDWALL_TRIM
 66
     1
 10
0.0
 20
0.0
 30
0.0
 70
     1
  0
VERTEX
  5
182
  8
SOLID_ENDWALL_TRIM
 10
88.58614373551632
 20
2.791321227498713
 30
0.0
 42
-0.4142135623730951
  0
VERTEX
  5
183
  8
SOLID_ENDWALL_TRIM
 10
88.56596282809608
 20
2.608584446921498
 30
0.0
 42
-0.4142135623730951
  0
VERTEX
  5
184
  8
SOLID_ENDWALL_TRIM
 10
88.38322604751897
 20
2.628765354341624
 30
0.0
 42
-0.4142135623730951
  0
VERTEX
  5
185
  8
SOLID_ENDWALL_TRIM
 10
88.4034069549391
 20
2.81150213491884
 30
0.0
 42
-0.4142135623730951
  0
SEQEND
  5
5FC
  8
SOLID_ENDWALL_TRIM
  0
POLYLINE
  5
97
  8
SOLID_ENDWALL_TRIM
 66
     1
 10
0.0
 20
0.0
 30
0.0
 70
     1
  0
VERTEX
  5
186
  8
SOLID_ENDWALL_TRIM
 10
3.979249410864355
 20
1.155540531865584
 30
0.0
 42
-0.4142135623730951
  0
VERTEX
  5
187
  8
SOLID_ENDWALL_TRIM
 10
4.109246583370833
 20
1.285543359297365
 30
0.0
 42
-0.4142135623730951
  0
VERTEX
  5
188
  8
SOLID_ENDWALL_TRIM
 10
4.239249410802898
 20
1.155546186791001
 30
0.0
 42
-0.4142135623730951
  0
VERTEX
  5
189
  8
SOLID_ENDWALL_TRIM
 10
4.109252238296307
 20
1.025543359358992
 30
0.0
 42
-0.4142135623730951
  0
SEQEND
  5
5FD
  8
SOLID_ENDWALL_TRIM
  0
POLYLINE
  5
98
  8
SOLID_ENDWALL_TRIM
 66
     1
 10
0.0
 20
0.0
 30
0.0
 70
     1
  0
VERTEX
  5
18A
  8
SOLID_ENDWALL_TRIM
 10
0.8704250625167447
 20
0.4055266365660807
 30
0.0
  0
VERTEX
  5
18B
  8
SOLID_ENDWALL_TRIM
 10
81.68022579453412
 20
0.4055266365667771
 30
0.0
  0
VERTEX
  5
18C
  8
SOLID_ENDWALL_TRIM
 10
83.68552335240582
 20
0.4055291568250263
 30
0.0
  0
VERTEX
  5
18D
  8
SOLID_ENDWALL_TRIM
 10
83.81228742205911
 20
0.406421087743241
 30
0.0
  0
VERTEX
  5
18E
  8
SOLID_ENDWALL_TRIM
 10
83.94376928733453
 20
0.4091621022694775
 30
0.0
  0
VERTEX
  5
18F
  8
SOLID_ENDWALL_TRIM
 10
84.07485666912743
 20
0.413704882334799
 30
0.0
  0
VERTEX
  5
190
  8
SOLID_ENDWALL_TRIM
 10
84.20552818385676
 20
0.4200381322285133
 30
0.0
  0
VERTEX
  5
191
  8
SOLID_ENDWALL_TRIM
 10
84.3357626084491
 20
0.428150770345895
 30
0.0
  0
VERTEX
  5
192
  8
SOLID_ENDWALL_TRIM
 10
84.46553885257362
 20
0.4380319375582652
 30
0.0
  0
VERTEX
  5
193
  8
SOLID_ENDWALL_TRIM
 10
84.59483600027505
 20
0.449671011743761
 30
0.0
  0
VERTEX
  5
194
  8
SOLID_ENDWALL_TRIM
 10
84.72363324303495
 20
0.4630576135965052
 30
0.0
  0
VERTEX
  5
195
  8
SOLID_ENDWALL_TRIM
 10
84.85190990298196
 20
0.4781816191294305
 30
0.0
  0
VERTEX
  5
196
  8
SOLID_ENDWALL_TRIM
 10
84.9796453977271
 20
0.4950331667837994
 30
0.0
  0
VERTEX
  5
197
  8
SOLID_ENDWALL_TRIM
 10
85.10681924798172
 20
0.5136026691766924
 30
0.0
  0
VERTEX
  5
198
  8
SOLID_ENDWALL_TRIM
 10
85.23341105173512
 20
0.5338808201827883
 30
0.0
  0
VERTEX
  5
199
  8
SOLID_ENDWALL_TRIM
 10
85.35940049445543
 20
0.555858608434904
 30
0.0
  0
VERTEX
  5
19A
  8
SOLID_ENDWALL_TRIM
 10
85.48476726510324
 20
0.5795273134977501
 30
0.0
  0
VERTEX
  5
19B
  8
SOLID_ENDWALL_TRIM
 10
85.60949115122838
 20
0.6048785332801012
 30
0.0
  0
VERTEX
  5
19C
  8
SOLID_ENDWALL_TRIM
 10
85.73355193608785
 20
0.6319041774345928
 30
0.0
  0
VERTEX
  5
19D
  8
SOLID_ENDWALL_TRIM
 10
85.85692940635835
 20
0.6605964779369637
 30
0.0
  0
VERTEX
  5
19E
  8
SOLID_ENDWALL_TRIM
 10
85.97960333432474
 20
0.6909479970359493
 30
0.0
  0
VERTEX
  5
19F
  8
SOLID_ENDWALL_TRIM
 10
86.10155351869815
 20
0.7229516487200849
 30
0.0
  0
VERTEX
  5
1A0
  8
SOLID_ENDWALL_TRIM
 10
86.22275964718773
 20
0.756600676167694
 30
0.0
  0
VERTEX
  5
1A1
  8
SOLID_ENDWALL_TRIM
 10
86.34320141078405
 20
0.7918886926723312
 30
0.0
  0
VERTEX
  5
1A2
  8
SOLID_ENDWALL_TRIM
 10
86.46285837701924
 20
0.8288096594693011
 30
0.0
  0
VERTEX
  5
1A3
  8
SOLID_ENDWALL_TRIM
 10
86.58171002115904
 20
0.8673579048004862
 30
0.0
  0
VERTEX
  5
1A4
  8
SOLID_ENDWALL_TRIM
 10
86.69973572316866
 20
0.9075281364362704
 30
0.0
  0
VERTEX
  5
1A5
  8
SOLID_ENDWALL_TRIM
 10
86.81691469715787
 20
0.9493154307779728
 30
0.0
  0
VERTEX
  5
1A6
  8
SOLID_ENDWALL_TRIM
 10
86.93322601499148
 20
0.9927152535051968
 30
0.0
  0
VERTEX
  5
1A7
  8
SOLID_ENDWALL_TRIM
 10
87.04864851689689
 20
1.037723438619254
 30
0.0
  0
VERTEX
  5
1A8
  8
SOLID_ENDWALL_TRIM
 10
87.16316084466797
 20
1.084336212622987
 30
0.0
  0
VERTEX
  5
1A9
  8
SOLID_ENDWALL_TRIM
 10
87.27674142412997
 20
1.132550200807203
 30
0.0
  0
VERTEX
  5
1AA
  8
SOLID_ENDWALL_TRIM
 10
87.38936836652482
 20
1.182362399862144
 30
0.0
  0
VERTEX
  5
1AB
  8
SOLID_ENDWALL_TRIM
 10
87.5010194969347
 20
1.233770198928654
 30
0.0
  0
VERTEX
  5
1AC
  8
SOLID_ENDWALL_TRIM
 10
87.611672313915
 20
1.286771375369029
 30
0.0
  0
VERTEX
  5
1AD
  8
SOLID_ENDWALL_TRIM
 10
87.72130393294918
 20
1.341364079209201
 30
0.0
  0
VERTEX
  5
1AE
  8
SOLID_ENDWALL_TRIM
 10
87.8298910724863
 20
1.397546836060031
 30
0.0
  0
VERTEX
  5
1AF
  8
SOLID_ENDWALL_TRIM
 10
87.93741000020435
 20
1.45531852983146
 30
0.0
  0
VERTEX
  5
1B0
  8
SOLID_ENDWALL_TRIM
 10
88.0438365162974
 20
1.514678402807079
 30
0.0
  0
VERTEX
  5
1B1
  8
SOLID_ENDWALL_TRIM
 10
88.14914590617099
 20
1.575626039024031
 30
0.0
  0
VERTEX
  5
1B2
  8
SOLID_ENDWALL_TRIM
 10
88.2533128939487
 20
1.638161343367359
 30
0.0
  0
VERTEX
  5
1B3
  8
SOLID_ENDWALL_TRIM
 10
88.35631156996732
 20
1.702284503976956
 30
0.0
  0
VERTEX
  5
1B4
  8
SOLID_ENDWALL_TRIM
 10
88.45811541454367
 20
1.767996008176455
 30
0.0
  0
VERTEX
  5
1B5
  8
SOLID_ENDWALL_TRIM
 10
88.55869719899619
 20
1.835296582504783
 30
0.0
  0
VERTEX
  5
1B6
  8
SOLID_ENDWALL_TRIM
 10
88.65802896481017
 20
1.904187176659947
 30
0.0
  0
VERTEX
  5
1B7
  8
SOLID_ENDWALL_TRIM
 10
88.75608197086166
 20
1.974668923461253
 30
0.0
  0
VERTEX
  5
1B8
  8
SOLID_ENDWALL_TRIM
 10
88.85282659457351
 20
2.046743057595052
 30
0.0
  0
VERTEX
  5
1B9
  8
SOLID_ENDWALL_TRIM
 10
88.94823238852968
 20
2.120410944100116
 30
0.0
  0
VERTEX
  5
1BA
  8
SOLID_ENDWALL_TRIM
 10
89.04226795489575
 20
2.195673968642553
 30
0.0
  0
VERTEX
  5
1BB
  8
SOLID_ENDWALL_TRIM
 10
89.1349009165753
 20
2.272533489814635
 30
0.0
  0
VERTEX
  5
1BC
  8
SOLID_ENDWALL_TRIM
 10
89.2260978551314
 20
2.350990757638613
 30
0.0
  0
VERTEX
  5
1BD
  8
SOLID_ENDWALL_TRIM
 10
89.31582431485566
 20
2.431046880508405
 30
0.0
  0
VERTEX
  5
1BE
  8
SOLID_ENDWALL_TRIM
 10
89.40404469930598
 20
2.512702689885885
 30
0.0
  0
VERTEX
  5
1BF
  8
SOLID_ENDWALL_TRIM
 10
89.49072229914617
 20
2.595958711728202
 30
0.0
  0
VERTEX
  5
1C0
  8
SOLID_ENDWALL_TRIM
 10
89.57581918935847
 20
2.680815004699582
 30
0.0
  0
VERTEX
  5
1C1
  8
SOLID_ENDWALL_TRIM
 10
89.65929627319582
 20
2.767271127444076
 30
0.0
  0
VERTEX
  5
1C2
  8
SOLID_ENDWALL_TRIM
 10
89.74111316836405
 20
2.855325934054747
 30
0.0
  0
VERTEX
  5
1C3
  8
SOLID_ENDWALL_TRIM
 10
89.82122830187672
 20
2.944977568745855
 30
0.0
  0
VERTEX
  5
1C4
  8
SOLID_ENDWALL_TRIM
 10
89.89959881752674
 20
3.036223250646401
 30
0.0
  0
VERTEX
  5
1C5
  8
SOLID_ENDWALL_TRIM
 10
89.9761806152448
 20
3.129059179303624
 30
0.0
  0
VERTEX
  5
1C6
  8
SOLID_ENDWALL_TRIM
 10
90.0509283579915
 20
3.223480388405334
 30
0.0
  0
VERTEX
  5
1C7
  8
SOLID_ENDWALL_TRIM
 10
90.12379549682754
 20
3.319480601013822
 30
0.0
  0
VERTEX
  5
1C8
  8
SOLID_ENDWALL_TRIM
 10
90.19473431908244
 20
3.417052092766027
 30
0.0
  0
VERTEX
  5
1C9
  8
SOLID_ENDWALL_TRIM
 10
90.26369600510606
 20
3.516185548458054
 30
0.0
  0
VERTEX
  5
1CA
  8
SOLID_ENDWALL_TRIM
 10
90.33063067547045
 20
3.616869879448643
 30
0.0
  0
VERTEX
  5
1CB
  8
SOLID_ENDWALL_TRIM
 10
90.39548750166267
 20
3.71909210670725
 30
0.0
  0
VERTEX
  5
1CC
  8
SOLID_ENDWALL_TRIM
 10
90.45547161202393
 20
3.818300225576933
 30
0.0
  0
VERTEX
  5
1CD
  8
SOLID_ENDWALL_TRIM
 10
90.59005680023637
 20
4.048480439643355
 30
0.0
  0
VERTEX
  5
1CE
  8
SOLID_ENDWALL_TRIM
 10
90.72000269413746
 20
4.274729209958934
 30
0.0
  0
VERTEX
  5
1CF
  8
SOLID_ENDWALL_TRIM
 10
90.84795858163324
 20
4.501575396963346
 30
0.0
  0
VERTEX
  5
1D0
  8
SOLID_ENDWALL_TRIM
 10
90.97392138868253
 20
4.729011524804775
 30
0.0
  0
VERTEX
  5
1D1
  8
SOLID_ENDWALL_TRIM
 10
91.09788803873488
 20
4.95703009384266
 30
0.0
  0
VERTEX
  5
1D2
  8
SOLID_ENDWALL_TRIM
 10
91.21985545024944
 20
5.185623574925159
 30
0.0
  0
VERTEX
  5
1D3
  8
SOLID_ENDWALL_TRIM
 10
91.33982054158076
 20
5.414784417241719
 30
0.0
  0
VERTEX
  5
1D4
  8
SOLID_ENDWALL_TRIM
 10
91.45778023463953
 20
5.644505054367584
 30
0.0
  0
VERTEX
  5
1D5
  8
SOLID_ENDWALL_TRIM
 10
91.57373143492367
 20
5.874777863593009
 30
0.0
  0
VERTEX
  5
1D6
  8
SOLID_ENDWALL_TRIM
 10
91.68767106917238
 20
6.105595238751959
 30
0.0
  0
VERTEX
  5
1D7
  8
SOLID_ENDWALL_TRIM
 10
91.79959604375944
 20
6.336949506128405
 30
0.0
  0
VERTEX
  5
1D8
  8
SOLID_ENDWALL_TRIM
 10
91.90950327665013
 20
6.568832986089148
 30
0.0
  0
VERTEX
  5
1D9
  8
SOLID_ENDWALL_TRIM
 10
92.01738968324133
 20
6.801237964311041
 30
0.0
  0
VERTEX
  5
1DA
  8
SOLID_ENDWALL_TRIM
 10
92.1232521928161
 20
7.034156724535534
 30
0.0
  0
VERTEX
  5
1DB
  8
SOLID_ENDWALL_TRIM
 10
92.22708771755259
 20
7.267581479663533
 30
0.0
  0
VERTEX
  5
1DC
  8
SOLID_ENDWALL_TRIM
 10
92.32889318744645
 20
7.501504446643195
 30
0.0
  0
VERTEX
  5
1DD
  8
SOLID_ENDWALL_TRIM
 10
92.42866552990307
 20
7.735917799248965
 30
0.0
  0
VERTEX
  5
1DE
  8
SOLID_ENDWALL_TRIM
 10
92.52640168548686
 20
7.970813703462738
 30
0.0
  0
VERTEX
  5
1DF
  8
SOLID_ENDWALL_TRIM
 10
92.6220985832312
 20
8.206184255552726
 30
0.0
  0
VERTEX
  5
1E0
  8
SOLID_ENDWALL_TRIM
 10
92.71575317890137
 20
8.442021573806015
 30
0.0
  0
VERTEX
  5
1E1
  8
SOLID_ENDWALL_TRIM
 10
92.80736242441361
 20
8.67831772165624
 30
0.0
  0
VERTEX
  5
1E2
  8
SOLID_ENDWALL_TRIM
 10
92.89692327858887
 20
8.91506473222631
 30
0.0
  0
VERTEX
  5
1E3
  8
SOLID_ENDWALL_TRIM
 10
92.98443270521051
 20
9.152254599772787
 30
0.0
  0
VERTEX
  5
1E4
  8
SOLID_ENDWALL_TRIM
 10
93.06988769017693
 20
9.389879324757713
 30
0.0
  0
VERTEX
  5
1E5
  8
SOLID_ENDWALL_TRIM
 10
93.15328521816258
 20
9.627930849389996
 30
0.0
  0
VERTEX
  5
1E6
  8
SOLID_ENDWALL_TRIM
 10
93.23462228861496
 20
9.866401097967865
 30
0.0
  0
VERTEX
  5
1E7
  8
SOLID_ENDWALL_TRIM
 10
93.31389590846669
 20
10.10528195409466
 30
0.0
  0
VERTEX
  5
1E8
  8
SOLID_ENDWALL_TRIM
 10
93.39110310520681
 20
10.34456529733785
 30
0.0
  0
VERTEX
  5
1E9
  8
SOLID_ENDWALL_TRIM
 10
93.46624091421876
 20
10.58424296445633
 30
0.0
  0
VERTEX
  5
1EA
  8
SOLID_ENDWALL_TRIM
 10
93.53930637945979
 20
10.82430674536778
 30
0.0
  0
VERTEX
  5
1EB
  8
SOLID_ENDWALL_TRIM
 10
93.61029656996908
 20
11.06474843576194
 30
0.0
  0
VERTEX
  5
1EC
  8
SOLID_ENDWALL_TRIM
 10
93.67920856626637
 20
11.30555979009574
 30
0.0
  0
VERTEX
  5
1ED
  8
SOLID_ENDWALL_TRIM
 10
93.74603946135363
 20
11.5467325225373
 30
0.0
  0
VERTEX
  5
1EE
  8
SOLID_ENDWALL_TRIM
 10
93.81078636732315
 20
11.78825832484386
 30
0.0
  0
VERTEX
  5
1EF
  8
SOLID_ENDWALL_TRIM
 10
93.87344641832209
 20
12.03012887728215
 30
0.0
  0
VERTEX
  5
1F0
  8
SOLID_ENDWALL_TRIM
 10
93.9340167625258
 20
12.27233581553133
 30
0.0
  0
VERTEX
  5
1F1
  8
SOLID_ENDWALL_TRIM
 10
93.99249456993954
 20
12.51487075655728
 30
0.0
  0
VERTEX
  5
1F2
  8
SOLID_ENDWALL_TRIM
 10
94.04887702736067
 20
12.75772527682653
 30
0.0
  0
VERTEX
  5
1F3
  8
SOLID_ENDWALL_TRIM
 10
94.10316135173429
 20
13.00089096465086
 30
0.0
  0
VERTEX
  5
1F4
  8
SOLID_ENDWALL_TRIM
 10
94.15534477037858
 20
13.24435933285309
 30
0.0
  0
VERTEX
  5
1F5
  8
SOLID_ENDWALL_TRIM
 10
94.20542454088985
 20
13.48812190149834
 30
0.0
  0
VERTEX
  5
1F6
  8
SOLID_ENDWALL_TRIM
 10
94.25339794214227
 20
13.7321701565175
 30
0.0
  0
VERTEX
  5
1F7
  8
SOLID_ENDWALL_TRIM
 10
94.29926227892969
 20
13.97649556763423
 30
0.0
  0
VERTEX
  5
1F8
  8
SOLID_ENDWALL_TRIM
 10
94.3430148762024
 20
14.22108955567052
 30
0.0
  0
VERTEX
  5
1F9
  8
SOLID_ENDWALL_TRIM
 10
94.38465309200382
 20
14.46594355680787
 30
0.0
  0
VERTEX
  5
1FA
  8
SOLID_ENDWALL_TRIM
 10
94.42417430426798
 20
14.71104894885644
 30
0.0
  0
VERTEX
  5
1FB
  8
SOLID_ENDWALL_TRIM
 10
94.46157592122535
 20
14.95639710289612
 30
0.0
  0
VERTEX
  5
1FC
  8
SOLID_ENDWALL_TRIM
 10
94.49685538124066
 20
15.20197938546295
 30
0.0
  0
VERTEX
  5
1FD
  8
SOLID_ENDWALL_TRIM
 10
94.53001014720115
 20
15.44778711560826
 30
0.0
  0
VERTEX
  5
1FE
  8
SOLID_ENDWALL_TRIM
 10
94.5610377118175
 20
15.69381159392429
 30
0.0
  0
VERTEX
  5
1FF
  8
SOLID_ENDWALL_TRIM
 10
94.58993560065272
 20
15.94004412406281
 30
0.0
  0
VERTEX
  5
200
  8
SOLID_ENDWALL_TRIM
 10
94.61670136801189
 20
16.18647597826163
 30
0.0
  0
VERTEX
  5
201
  8
SOLID_ENDWALL_TRIM
 10
94.64133259827707
 20
16.43309840221588
 30
0.0
  0
VERTEX
  5
202
  8
SOLID_ENDWALL_TRIM
 10
94.66382690953532
 20
16.67990264024189
 30
0.0
  0
VERTEX
  5
203
  8
SOLID_ENDWALL_TRIM
 10
94.684181952281
 20
16.92687992772295
 30
0.0
  0
VERTEX
  5
204
  8
SOLID_ENDWALL_TRIM
 10
94.70239540640995
 20
17.17402144135082
 30
0.0
  0
VERTEX
  5
205
  8
SOLID_ENDWALL_TRIM
 10
94.71846498960093
 20
17.42131839871541
 30
0.0
  0
VERTEX
  5
206
  8
SOLID_ENDWALL_TRIM
 10
94.73238845064003
 20
17.6687619701475
 30
0.0
  0
VERTEX
  5
207
  8
SOLID_ENDWALL_TRIM
 10
94.74416357309013
 20
17.91634332022983
 30
0.0
  0
VERTEX
  5
208
  8
SOLID_ENDWALL_TRIM
 10
94.75378817585937
 20
18.16405361249377
 30
0.0
  0
VERTEX
  5
209
  8
SOLID_ENDWALL_TRIM
 10
94.76126011216076
 20
18.4118839879589
 30
0.0
  0
VERTEX
  5
20A
  8
SOLID_ENDWALL_TRIM
 10
94.76657727108096
 20
18.65982559544096
 30
0.0
  0
VERTEX
  5
20B
  8
SOLID_ENDWALL_TRIM
 10
94.76973757704224
 20
18.90786955384789
 30
0.0
  0
VERTEX
  5
20C
  8
SOLID_ENDWALL_TRIM
 10
94.77072581194017
 20
19.15274150001966
 30
0.0
  0
VERTEX
  5
20D
  8
SOLID_ENDWALL_TRIM
 10
94.77072130538562
 20
19.16695208676362
 30
0.0
  0
VERTEX
  5
20E
  8
SOLID_ENDWALL_TRIM
 10
91.77072145622975
 20
19.16600073777505
 30
0.0
  0
VERTEX
  5
20F
  8
SOLID_ENDWALL_TRIM
 10
91.77072389212361
 20
19.15831934935073
 30
0.0
  0
VERTEX
  5
210
  8
SOLID_ENDWALL_TRIM
 10
91.7698147006925
 20
18.93303337233607
 30
0.0
  0
VERTEX
  5
211
  8
SOLID_ENDWALL_TRIM
 10
91.76698702656614
 20
18.71109679559669
 30
0.0
  0
VERTEX
  5
212
  8
SOLID_ENDWALL_TRIM
 10
91.76222946392483
 20
18.48924942604532
 30
0.0
  0
VERTEX
  5
213
  8
SOLID_ENDWALL_TRIM
 10
91.75554374962138
 20
18.26749658642217
 30
0.0
  0
VERTEX
  5
214
  8
SOLID_ENDWALL_TRIM
 10
91.74693158478664
 20
18.04584360779842
 30
0.0
  0
VERTEX
  5
215
  8
SOLID_ENDWALL_TRIM
 10
91.73639463515184
 20
17.82429583058052
 30
0.0
  0
VERTEX
  5
216
  8
SOLID_ENDWALL_TRIM
 10
91.72393453140234
 20
17.60285860550135
 30
0.0
  0
VERTEX
  5
217
  8
SOLID_ENDWALL_TRIM
 10
91.70955286956308
 20
17.38153729459106
 30
0.0
  0
VERTEX
  5
218
  8
SOLID_ENDWALL_TRIM
 10
91.6932512114135
 20
17.16033727212977
 30
0.0
  0
VERTEX
  5
219
  8
SOLID_ENDWALL_TRIM
 10
91.67503108493378
 20
16.93926392558279
 30
0.0
  0
VERTEX
  5
21A
  8
SOLID_ENDWALL_TRIM
 10
91.65489398477774
 20
16.71832265651238
 30
0.0
  0
VERTEX
  5
21B
  8
SOLID_ENDWALL_TRIM
 10
91.63284137277543
 20
16.49751888146949
 30
0.0
  0
VERTEX
  5
21C
  8
SOLID_ENDWALL_TRIM
 10
91.60887467846038
 20
16.27685803286232
 30
0.0
  0
VERTEX
  5
21D
  8
SOLID_ENDWALL_TRIM
 10
91.5829952996242
 20
16.05634555979992
 30
0.0
  0
VERTEX
  5
21E
  8
SOLID_ENDWALL_TRIM
 10
91.55520460289478
 20
15.83598692891388
 30
0.0
  0
VERTEX
  5
21F
  8
SOLID_ENDWALL_TRIM
 10
91.52550392433744
 20
15.61578762515006
 30
0.0
  0
VERTEX
  5
220
  8
SOLID_ENDWALL_TRIM
 10
91.49389457007948
 20
15.39575315253756
 30
0.0
  0
VERTEX
  5
221
  8
SOLID_ENDWALL_TRIM
 10
91.46037781695492
 20
15.17588903493248
 30
0.0
  0
VERTEX
  5
222
  8
SOLID_ENDWALL_TRIM
 10
91.42495491316896
 20
14.95620081672592
 30
0.0
  0
VERTEX
  5
223
  8
SOLID_ENDWALL_TRIM
 10
91.387627078982
 20
14.73669406353343
 30
0.0
  0
VERTEX
  5
224
  8
SOLID_ENDWALL_TRIM
 10
91.3483955074094
 20
14.51737436284981
 30
0.0
  0
VERTEX
  5
225
  8
SOLID_ENDWALL_TRIM
 10
91.3072613649395
 20
14.29824732467551
 30
0.0
  0
VERTEX
  5
226
  8
SOLID_ENDWALL_TRIM
 10
91.26422579226454
 20
14.07931858211583
 30
0.0
  0
VERTEX
  5
227
  8
SOLID_ENDWALL_TRIM
 10
91.21928990502585
 20
13.86059379194586
 30
0.0
  0
VERTEX
  5
228
  8
SOLID_ENDWALL_TRIM
 10
91.17245479457239
 20
13.64207863515054
 30
0.0
  0
VERTEX
  5
229
  8
SOLID_ENDWALL_TRIM
 10
91.12372152872837
 20
13.42377881742965
 30
0.0
  0
VERTEX
  5
22A
  8
SOLID_ENDWALL_TRIM
 10
91.07309115257254
 20
13.20570006967415
 30
0.0
  0
VERTEX
  5
22B
  8
SOLID_ENDWALL_TRIM
 10
91.02056468922564
 20
12.98784814841298
 30
0.0
  0
VERTEX
  5
22C
  8
SOLID_ENDWALL_TRIM
 10
90.96614314064385
 20
12.77022883622709
 30
0.0
  0
VERTEX
  5
22D
  8
SOLID_ENDWALL_TRIM
 10
90.90982748842004
 20
12.55284794213372
 30
0.0
  0
VERTEX
  5
22E
  8
SOLID_ENDWALL_TRIM
 10
90.85161869458904
 20
12.33571130194065
 30
0.0
  0
VERTEX
  5
22F
  8
SOLID_ENDWALL_TRIM
 10
90.79151770243726
 20
12.11882477856858
 30
0.0
  0
VERTEX
  5
230
  8
SOLID_ENDWALL_TRIM
 10
90.7295254373135
 20
11.9021942623454
 30
0.0
  0
VERTEX
  5
231
  8
SOLID_ENDWALL_TRIM
 10
90.66564280744348
 20
11.68582567126765
 30
0.0
  0
VERTEX
  5
232
  8
SOLID_ENDWALL_TRIM
 10
90.59987070474193
 20
11.4697249512356
 30
0.0
  0
VERTEX
  5
233
  8
SOLID_ENDWALL_TRIM
 10
90.53221000562593
 20
11.25389807625703
 30
0.0
  0
VERTEX
  5
234
  8
SOLID_ENDWALL_TRIM
 10
90.46266157182555
 20
11.03835104862043
 30
0.0
  0
VERTEX
  5
235
  8
SOLID_ENDWALL_TRIM
 10
90.39122625119165
 20
10.82308989904464
 30
0.0
  0
VERTEX
  5
236
  8
SOLID_ENDWALL_TRIM
 10
90.3179048784994
 20
10.60812068679348
 30
0.0
  0
VERTEX
  5
237
  8
SOLID_ENDWALL_TRIM
 10
90.2426982762484
 20
10.39344949977095
 30
0.0
  0
VERTEX
  5
238
  8
SOLID_ENDWALL_TRIM
 10
90.16560725545474
 20
10.17908245458199
 30
0.0
  0
VERTEX
  5
239
  8
SOLID_ENDWALL_TRIM
 10
90.08663261643818
 20
9.965025696571102
 30
0.0
  0
VERTEX
  5
23A
  8
SOLID_ENDWALL_TRIM
 10
90.0057751496011
 20
9.75128539983376
 30
0.0
  0
VERTEX
  5
23B
  8
SOLID_ENDWALL_TRIM
 10
89.92303563619868
 20
9.537867767202952
 30
0.0
  0
VERTEX
  5
23C
  8
SOLID_ENDWALL_TRIM
 10
89.83841484910153
 20
9.32477903021123
 30
0.0
  0
VERTEX
  5
23D
  8
SOLID_ENDWALL_TRIM
 10
89.75191355354565
 20
9.112025449028406
 30
0.0
  0
VERTEX
  5
23E
  8
SOLID_ENDWALL_TRIM
 10
89.66353250787444
 20
8.89961331237606
 30
0.0
  0
VERTEX
  5
23F
  8
SOLID_ENDWALL_TRIM
 10
89.57327246426854
 20
8.687548937422035
 30
0.0
  0
VERTEX
  5
240
  8
SOLID_ENDWALL_TRIM
 10
89.48113416946279
 20
8.47583866964811
 30
0.0
  0
VERTEX
  5
241
  8
SOLID_ENDWALL_TRIM
 10
89.38711836545264
 20
8.264488882702208
 30
0.0
  0
VERTEX
  5
242
  8
SOLID_ENDWALL_TRIM
 10
89.29122579018536
 20
8.05350597822695
 30
0.0
  0
VERTEX
  5
243
  8
SOLID_ENDWALL_TRIM
 10
89.19345717823995
 20
7.842896385670485
 30
0.0
  0
VERTEX
  5
244
  8
SOLID_ENDWALL_TRIM
 10
89.09381326149168
 20
7.632666562077758
 30
0.0
  0
VERTEX
  5
245
  8
SOLID_ENDWALL_TRIM
 10
88.9922947697624
 20
7.422822991865416
 30
0.0
  0
VERTEX
  5
246
  8
SOLID_ENDWALL_TRIM
 10
88.8889024314563
 20
7.213372186576691
 30
0.0
  0
VERTEX
  5
247
  8
SOLID_ENDWALL_TRIM
 10
88.78363697418087
 20
7.004320684624928
 30
0.0
  0
VERTEX
  5
248
  8
SOLID_ENDWALL_TRIM
 10
88.676499125352
 20
6.795675051016189
 30
0.0
  0
VERTEX
  5
249
  8
SOLID_ENDWALL_TRIM
 10
88.56748961278271
 20
6.587441877061393
 30
0.0
  0
VERTEX
  5
24A
  8
SOLID_ENDWALL_TRIM
 10
88.45660916525804
 20
6.379627780073007
 30
0.0
  0
VERTEX
  5
24B
  8
SOLID_ENDWALL_TRIM
 10
88.3438585130911
 20
6.17223940304808
 30
0.0
  0
VERTEX
  5
24C
  8
SOLID_ENDWALL_TRIM
 10
88.22923838866535
 20
5.96528341434083
 30
0.0
  0
VERTEX
  5
24D
  8
SOLID_ENDWALL_TRIM
 10
88.11274952695868
 20
5.75876650732249
 30
0.0
  0
VERTEX
  5
24E
  8
SOLID_ENDWALL_TRIM
 10
87.99439266605106
 20
5.552695400030244
 30
0.0
  0
VERTEX
  5
24F
  8
SOLID_ENDWALL_TRIM
 10
87.87682090955951
 20
5.351613153010077
 30
0.0
  0
VERTEX
  5
250
  8
SOLID_ENDWALL_TRIM
 10
87.84500244637212
 20
5.298988385139011
 30
0.0
  0
VERTEX
  5
251
  8
SOLID_ENDWALL_TRIM
 10
87.81461436803073
 20
5.251093086500588
 30
0.0
  0
VERTEX
  5
252
  8
SOLID_ENDWALL_TRIM
 10
87.7829060308382
 20
5.203396837336924
 30
0.0
  0
VERTEX
  5
253
  8
SOLID_ENDWALL_TRIM
 10
87.74987084991511
 20
5.155908270264546
 30
0.0
  0
VERTEX
  5
254
  8
SOLID_ENDWALL_TRIM
 10
87.71550319673321
 20
5.108637916948793
 30
0.0
  0
VERTEX
  5
255
  8
SOLID_ENDWALL_TRIM
 10
87.6797984862771
 20
5.0615980599635
 30
0.0
  0
VERTEX
  5
256
  8
SOLID_ENDWALL_TRIM
 10
87.64275324751935
 20
5.01480258347152
 30
0.0
  0
VERTEX
  5
257
  8
SOLID_ENDWALL_TRIM
 10
87.60436517817146
 20
4.968266824597378
 30
0.0
  0
VERTEX
  5
258
  8
SOLID_ENDWALL_TRIM
 10
87.56463318479854
 20
4.922007427101618
 30
0.0
  0
VERTEX
  5
259
  8
SOLID_ENDWALL_TRIM
 10
87.52355740945205
 20
4.876042198714059
 30
0.0
  0
VERTEX
  5
25A
  8
SOLID_ENDWALL_TRIM
 10
87.48113924405635
 20
4.830389973264629
 30
0.0
  0
VERTEX
  5
25B
  8
SOLID_ENDWALL_TRIM
 10
87.43738133380333
 20
4.785070478542422
 30
0.0
  0
VERTEX
  5
25C
  8
SOLID_ENDWALL_TRIM
 10
87.39228757078632
 20
4.74010421058034
 30
0.0
  0
VERTEX
  5
25D
  8
SOLID_ENDWALL_TRIM
 10
87.34586307909359
 20
4.695512314892368
 30
0.0
  0
VERTEX
  5
25E
  8
SOLID_ENDWALL_TRIM
 10
87.29811419253434
 20
4.651316475026362
 30
0.0
  0
VERTEX
  5
25F
  8
SOLID_ENDWALL_TRIM
 10
87.24904842609197
 20
4.607538808628362
 30
0.0
  0
VERTEX
  5
260
  8
SOLID_ENDWALL_TRIM
 10
87.19867444215953
 20
4.564201771103909
 30
0.0
  0
VERTEX
  5
261
  8
SOLID_ENDWALL_TRIM
 10
87.14700201250349
 20
4.521328066840907
 30
0.0
  0
VERTEX
  5
262
  8
SOLID_ENDWALL_TRIM
 10
87.09404197683449
 20
4.478940567862138
 30
0.0
  0
VERTEX
  5
263
  8
SOLID_ENDWALL_TRIM
 10
87.03980619878638
 20
4.437062239716908
 30
0.0
  0
VERTEX
  5
264
  8
SOLID_ENDWALL_TRIM
 10
86.98430752000564
 20
4.395716074341236
 30
0.0
  0
VERTEX
  5
265
  8
SOLID_ENDWALL_TRIM
 10
86.92755971298817
 20
4.354925029587377
 30
0.0
  0
VERTEX
  5
266
  8
SOLID_ENDWALL_TRIM
 10
86.86957743320721
 20
4.314711975073634
 30
0.0
  0
VERTEX
  5
267
  8
SOLID_ENDWALL_TRIM
 10
86.81037617101293
 20
4.275099643993882
 30
0.0
  0
VERTEX
  5
268
  8
SOLID_ENDWALL_TRIM
 10
86.74997220372035
 20
4.236110590513419
 30
0.0
  0
VERTEX
  5
269
  8
SOLID_ENDWALL_TRIM
 10
86.68838254821316
 20
4.197767152356902
 30
0.0
  0
VERTEX
  5
26A
  8
SOLID_ENDWALL_TRIM
 10
86.62562491436637
 20
4.160091418213198
 30
0.0
  0
VERTEX
  5
26B
  8
SOLID_ENDWALL_TRIM
 10
86.56171765951063
 20
4.123105199576059
 30
0.0
  0
VERTEX
  5
26C
  8
SOLID_ENDWALL_TRIM
 10
86.49667974412802
 20
4.086830006652291
 30
0.0
  0
VERTEX
  5
26D
  8
SOLID_ENDWALL_TRIM
 10
86.4305306889276
 20
4.051287027988166
 30
0.0
  0
VERTEX
  5
26E
  8
SOLID_ENDWALL_TRIM
 10
86.3632905333962
 20
4.016497113471416
 30
0.0
  0
VERTEX
  5
26F
  8
SOLID_ENDWALL_TRIM
 10
86.2949797959123
 20
3.982480760390501
 30
0.0
  0
VERTEX
  5
270
  8
SOLID_ENDWALL_TRIM
 10
86.22561943545549
 20
3.949258102252371
 30
0.0
  0
VERTEX
  5
271
  8
SOLID_ENDWALL_TRIM
 10
86.15523081494786
 20
3.916848900075421
 30
0.0
  0
VERTEX
  5
272
  8
SOLID_ENDWALL_TRIM
 10
86.08383566621393
 20
3.885272535896603
 30
0.0
  0
VERTEX
  5
273
  8
SOLID_ENDWALL_TRIM
 10
86.01145605655012
 20
3.854548008253061
 30
0.0
  0
VERTEX
  5
274
  8
SOLID_ENDWALL_TRIM
 10
85.93811435688468
 20
3.824693929419538
 30
0.0
  0
VERTEX
  5
275
  8
SOLID_ENDWALL_TRIM
 10
85.86383321146269
 20
3.795728524192838
 30
0.0
  0
VERTEX
  5
276
  8
SOLID_ENDWALL_TRIM
 10
85.78863550902616
 20
3.767669630044622
 30
0.0
  0
VERTEX
  5
277
  8
SOLID_ENDWALL_TRIM
 10
85.71254435542738
 20
3.740534698479961
 30
0.0
  0
VERTEX
  5
278
  8
SOLID_ENDWALL_TRIM
 10
85.63558304759982
 20
3.714340797443184
 30
0.0
  0
VERTEX
  5
279
  8
SOLID_ENDWALL_TRIM
 10
85.55777504883832
 20
3.689104614645031
 30
0.0
  0
VERTEX
  5
27A
  8
SOLID_ENDWALL_TRIM
 10
85.47914396530547
 20
3.664842461691989
 30
0.0
  0
VERTEX
  5
27B
  8
SOLID_ENDWALL_TRIM
 10
85.3997135236944
 20
3.64157027890775
 30
0.0
  0
VERTEX
  5
27C
  8
SOLID_ENDWALL_TRIM
 10
85.31950754999599
 20
3.619303640766759
 30
0.0
  0
VERTEX
  5
27D
  8
SOLID_ENDWALL_TRIM
 10
85.23854994926347
 20
3.598057761844586
 30
0.0
  0
VERTEX
  5
27E
  8
SOLID_ENDWALL_TRIM
 10
85.15686468634425
 20
3.577847503228952
 30
0.0
  0
VERTEX
  5
27F
  8
SOLID_ENDWALL_TRIM
 10
85.07447576748638
 20
3.558687379330479
 30
0.0
  0
VERTEX
  5
280
  8
SOLID_ENDWALL_TRIM
 10
84.99140722275939
 20
3.540591565037004
 30
0.0
  0
VERTEX
  5
281
  8
SOLID_ENDWALL_TRIM
 10
84.9076830892439
 20
3.523573903183262
 30
0.0
  0
VERTEX
  5
282
  8
SOLID_ENDWALL_TRIM
 10
84.82332739489931
 20
3.50764791229227
 30
0.0
  0
VERTEX
  5
283
  8
SOLID_ENDWALL_TRIM
 10
84.73836414308272
 20
3.49282679456752
 30
0.0
  0
VERTEX
  5
284
  8
SOLID_ENDWALL_TRIM
 10
84.65281729765803
 20
3.479123444121398
 30
0.0
  0
VERTEX
  5
285
  8
SOLID_ENDWALL_TRIM
 10
84.56671076863512
 20
3.466550455416211
 30
0.0
  0
VERTEX
  5
286
  8
SOLID_ENDWALL_TRIM
 10
84.48006839831447
 20
3.45512013192075
 30
0.0
  0
VERTEX
  5
287
  8
SOLID_ENDWALL_TRIM
 10
84.39291394787557
 20
3.444844494973097
 30
0.0
  0
VERTEX
  5
288
  8
SOLID_ENDWALL_TRIM
 10
84.30527108439429
 20
3.435735292851234
 30
0.0
  0
VERTEX
  5
289
  8
SOLID_ENDWALL_TRIM
 10
84.2171633682438
 20
3.427804010061265
 30
0.0
  0
VERTEX
  5
28A
  8
SOLID_ENDWALL_TRIM
 10
84.12861424084628
 20
3.421061876841633
 30
0.0
  0
VERTEX
  5
28B
  8
SOLID_ENDWALL_TRIM
 10
84.0396470127701
 20
3.415519878905399
 30
0.0
  0
VERTEX
  5
28C
  8
SOLID_ENDWALL_TRIM
 10
83.95028485213896
 20
3.411188767425358
 30
0.0
  0
VERTEX
  5
28D
  8
SOLID_ENDWALL_TRIM
 10
83.8605507733401
 20
3.408079069280631
 30
0.0
  0
VERTEX
  5
28E
  8
SOLID_ENDWALL_TRIM
 10
83.77046762602839
 20
3.40620109758089
 30
0.0
  0
VERTEX
  5
28F
  8
SOLID_ENDWALL_TRIM
 10
83.67496738517087
 20
3.405529143563683
 30
0.0
  0
VERTEX
  5
290
  8
SOLID_ENDWALL_TRIM
 10
81.68022390933123
 20
3.405526636565525
 30
0.0
  0
VERTEX
  5
291
  8
SOLID_ENDWALL_TRIM
 10
0.8704250625167447
 20
3.405526636566079
 30
0.0
  0
SEQEND
  5
5FE
  8
SOLID_ENDWALL_TRIM
  0
POLYLINE
  5
9A
  8
DOOR_OPTION_TRIM
 66
     1
 10
0.0
 20
0.0
 30
0.0
 70
     1
  0
VERTEX
  5
292
  8
DOOR_OPTION_TRIM
 10
9.73922064428261
 20
1.155526636632075
 30
0.0
 42
-0.4142135623730951
  0
VERTEX
  5
293
  8
DOOR_OPTION_TRIM
 10
9.609220644282615
 20
1.025526636632193
 30
0.0
 42
-0.4142135623730951
  0
VERTEX
  5
294
  8
DOOR_OPTION_TRIM
 10
9.47922064428262
 20
1.155526636632075
 30
0.0
 42
-0.4142135623730951
  0
VERTEX
  5
295
  8
DOOR_OPTION_TRIM
 10
9.609220644282615
 20
1.285526636631957
 30
0.0
 42
-0.4142135623730951
  0
SEQEND
  5
5FF
  8
DOOR_OPTION_TRIM
  0
POLYLINE
  5
9B
  8
DOOR_OPTION_TRIM
 66
     1
 10
0.0
 20
0.0
 30
0.0
 70
     1
  0
VERTEX
  5
296
  8
DOOR_OPTION_TRIM
 10
17.93834471522875
 20
1.155526636632075
 30
0.0
 42
-0.4142135623730951
  0
VERTEX
  5
297
  8
DOOR_OPTION_TRIM
 10
17.80834471522876
 20
1.025526636632193
 30
0.0
 42
-0.4142135623730951
  0
VERTEX
  5
298
  8
DOOR_OPTION_TRIM
 10
17.67834471522876
 20
1.155526636632075
 30
0.0
 42
-0.4142135623730951
  0
VERTEX
  5
299
  8
DOOR_OPTION_TRIM
 10
17.80834471522876
 20
1.285526636631957
 30
0.0
 42
-0.4142135623730951
  0
SEQEND
  5
600
  8
DOOR_OPTION_TRIM
  0
POLYLINE
  5
9C
  8
DOOR_OPTION_TRIM
 66
     1
 10
0.0
 20
0.0
 30
0.0
 70
     1
  0
VERTEX
  5
29A
  8
DOOR_OPTION_TRIM
 10
25.83834471522873
 20
1.155526636632075
 30
0.0
 42
-0.4142135623730951
  0
VERTEX
  5
29B
  8
DOOR_OPTION_TRIM
 10
25.70834471522873
 20
1.025526636632193
 30
0.0
 42
-0.4142135623730951
  0
VERTEX
  5
29C
  8
DOOR_OPTION_TRIM
 10
25.57834471522874
 20
1.155526636632075
 30
0.0
 42
-0.4142135623730951
  0
VERTEX
  5
29D
  8
DOOR_OPTION_TRIM
 10
25.70834471522873
 20
1.285526636631957
 30
0.0
 42
-0.4142135623730951
  0
SEQEND
  5
601
  8
DOOR_OPTION_TRIM
  0
POLYLINE
  5
9D
  8
DOOR_OPTION_TRIM
 66
     1
 10
0.0
 20
0.0
 30
0.0
 70
     1
  0
VERTEX
  5
29E
  8
DOOR_OPTION_TRIM
 10
33.73834471522877
 20
1.155526636632075
 30
0.0
 42
-0.4142135623730951
  0
VERTEX
  5
29F
  8
DOOR_OPTION_TRIM
 10
33.60834471522877
 20
1.025526636632193
 30
0.0
 42
-0.4142135623730951
  0
VERTEX
  5
2A0
  8
DOOR_OPTION_TRIM
 10
33.47834471522878
 20
1.155526636632075
 30
0.0
 42
-0.4142135623730951
  0
VERTEX
  5
2A1
  8
DOOR_OPTION_TRIM
 10
33.60834471522877
 20
1.285526636631957
 30
0.0
 42
-0.4142135623730951
  0
SEQEND
  5
602
  8
DOOR_OPTION_TRIM
  0
POLYLINE
  5
9E
  8
DOOR_OPTION_TRIM
 66
     1
 10
0.0
 20
0.0
 30
0.0
 70
     1
  0
VERTEX
  5
2A2
  8
DOOR_OPTION_TRIM
 10
41.63834471522875
 20
1.155526636632075
 30
0.0
 42
-0.4142135623730951
  0
VERTEX
  5
2A3
  8
DOOR_OPTION_TRIM
 10
41.50834471522875
 20
1.025526636632193
 30
0.0
 42
-0.4142135623730951
  0
VERTEX
  5
2A4
  8
DOOR_OPTION_TRIM
 10
41.37834471522876
 20
1.155526636632075
 30
0.0
 42
-0.4142135623730951
  0
VERTEX
  5
2A5
  8
DOOR_OPTION_TRIM
 10
41.50834471522875
 20
1.285526636631957
 30
0.0
 42
-0.4142135623730951
  0
SEQEND
  5
603
  8
DOOR_OPTION_TRIM
  0
POLYLINE
  5
9F
  8
DOOR_OPTION_TRIM
 66
     1
 10
0.0
 20
0.0
 30
0.0
 70
     1
  0
VERTEX
  5
2A6
  8
DOOR_OPTION_TRIM
 10
49.53834471522878
 20
1.155526636632075
 30
0.0
 42
-0.4142135623730951
  0
VERTEX
  5
2A7
  8
DOOR_OPTION_TRIM
 10
49.40834471522879
 20
1.025526636632193
 30
0.0
 42
-0.4142135623730951
  0
VERTEX
  5
2A8
  8
DOOR_OPTION_TRIM
 10
49.27834471522879
 20
1.155526636632075
 30
0.0
 42
-0.4142135623730951
  0
VERTEX
  5
2A9
  8
DOOR_OPTION_TRIM
 10
49.40834471522879
 20
1.285526636631957
 30
0.0
 42
-0.4142135623730951
  0
SEQEND
  5
604
  8
DOOR_OPTION_TRIM
  0
POLYLINE
  5
A0
  8
DOOR_OPTION_TRIM
 66
     1
 10
0.0
 20
0.0
 30
0.0
 70
     1
  0
VERTEX
  5
2AA
  8
DOOR_OPTION_TRIM
 10
57.43834471522876
 20
1.155526636632075
 30
0.0
 42
-0.4142135623730951
  0
VERTEX
  5
2AB
  8
DOOR_OPTION_TRIM
 10
57.30834471522876
 20
1.025526636632193
 30
0.0
 42
-0.4142135623730951
  0
VERTEX
  5
2AC
  8
DOOR_OPTION_TRIM
 10
57.17834471522877
 20
1.155526636632075
 30
0.0
 42
-0.4142135623730951
  0
VERTEX
  5
2AD
  8
DOOR_OPTION_TRIM
 10
57.30834471522876
 20
1.285526636631957
 30
0.0
 42
-0.4142135623730951
  0
SEQEND
  5
605
  8
DOOR_OPTION_TRIM
  0
POLYLINE
  5
A1
  8
DOOR_OPTION_TRIM
 66
     1
 10
0.0
 20
0.0
 30
0.0
 70
     1
  0
VERTEX
  5
2AE
  8
DOOR_OPTION_TRIM
 10
65.33834471522873
 20
1.155526636632089
 30
0.0
 42
-0.4142135623730951
  0
VERTEX
  5
2AF
  8
DOOR_OPTION_TRIM
 10
65.20834471522873
 20
1.025526636632208
 30
0.0
 42
-0.4142135623730951
  0
VERTEX
  5
2B0
  8
DOOR_OPTION_TRIM
 10
65.07834471522874
 20
1.155526636632089
 30
0.0
 42
-0.4142135623730951
  0
VERTEX
  5
2B1
  8
DOOR_OPTION_TRIM
 10
65.20834471522873
 20
1.285526636631971
 30
0.0
 42
-0.4142135623730951
  0
SEQEND
  5
606
  8
DOOR_OPTION_TRIM
  0
POLYLINE
  5
A2
  8
DOOR_OPTION_TRIM
 66
     1
 10
0.0
 20
0.0
 30
0.0
 70
     1
  0
VERTEX
  5
2B2
  8
DOOR_OPTION_TRIM
 10
73.23834471522876
 20
1.155526636632089
 30
0.0
 42
-0.4142135623730951
  0
VERTEX
  5
2B3
  8
DOOR_OPTION_TRIM
 10
73.10834471522877
 20
1.025526636632208
 30
0.0
 42
-0.4142135623730951
  0
VERTEX
  5
2B4
  8
DOOR_OPTION_TRIM
 10
72.97834471522877
 20
1.155526636632089
 30
0.0
 42
-0.4142135623730951
  0
VERTEX
  5
2B5
  8
DOOR_OPTION_TRIM
 10
73.10834471522877
 20
1.285526636631971
 30
0.0
 42
-0.4142135623730951
  0
SEQEND
  5
607
  8
DOOR_OPTION_TRIM
  0
POLYLINE
  5
A3
  8
DOOR_OPTION_TRIM
 66
     1
 10
0.0
 20
0.0
 30
0.0
 70
     1
  0
VERTEX
  5
2B6
  8
DOOR_OPTION_TRIM
 10
9.739227100780155
 20
1.155532350522193
 30
0.0
 42
-0.4142135623730951
  0
VERTEX
  5
2B7
  8
DOOR_OPTION_TRIM
 10
9.60922710078016
 20
1.025532350522312
 30
0.0
 42
-0.4142135623730951
  0
VERTEX
  5
2B8
  8
DOOR_OPTION_TRIM
 10
9.479227100780165
 20
1.155532350522193
 30
0.0
 42
-0.4142135623730951
  0
VERTEX
  5
2B9
  8
DOOR_OPTION_TRIM
 10
9.60922710078016
 20
1.285532350522075
 30
0.0
 42
-0.4142135623730951
  0
SEQEND
  5
608
  8
DOOR_OPTION_TRIM
  0
POLYLINE
  5
A4
  8
DOOR_OPTION_TRIM
 66
     1
 10
0.0
 20
0.0
 30
0.0
 70
     1
  0
VERTEX
  5
2BA
  8
DOOR_OPTION_TRIM
 10
17.9383511717263
 20
1.155532350522193
 30
0.0
 42
-0.4142135623730951
  0
VERTEX
  5
2BB
  8
DOOR_OPTION_TRIM
 10
17.8083511717263
 20
1.025532350522312
 30
0.0
 42
-0.4142135623730951
  0
VERTEX
  5
2BC
  8
DOOR_OPTION_TRIM
 10
17.67835117172631
 20
1.155532350522193
 30
0.0
 42
-0.4142135623730951
  0
VERTEX
  5
2BD
  8
DOOR_OPTION_TRIM
 10
17.8083511717263
 20
1.285532350522075
 30
0.0
 42
-0.4142135623730951
  0
SEQEND
  5
609
  8
DOOR_OPTION_TRIM
  0
POLYLINE
  5
A5
  8
DOOR_OPTION_TRIM
 66
     1
 10
0.0
 20
0.0
 30
0.0
 70
     1
  0
VERTEX
  5
2BE
  8
DOOR_OPTION_TRIM
 10
25.83835117172627
 20
1.155532350522193
 30
0.0
 42
-0.4142135623730951
  0
VERTEX
  5
2BF
  8
DOOR_OPTION_TRIM
 10
25.70835117172628
 20
1.025532350522312
 30
0.0
 42
-0.4142135623730951
  0
VERTEX
  5
2C0
  8
DOOR_OPTION_TRIM
 10
25.57835117172628
 20
1.155532350522193
 30
0.0
 42
-0.4142135623730951
  0
VERTEX
  5
2C1
  8
DOOR_OPTION_TRIM
 10
25.70835117172628
 20
1.285532350522075
 30
0.0
 42
-0.4142135623730951
  0
SEQEND
  5
60A
  8
DOOR_OPTION_TRIM
  0
POLYLINE
  5
A6
  8
DOOR_OPTION_TRIM
 66
     1
 10
0.0
 20
0.0
 30
0.0
 70
     1
  0
VERTEX
  5
2C2
  8
DOOR_OPTION_TRIM
 10
33.73835117172631
 20
1.155532350522193
 30
0.0
 42
-0.4142135623730951
  0
VERTEX
  5
2C3
  8
DOOR_OPTION_TRIM
 10
33.60835117172632
 20
1.025532350522312
 30
0.0
 42
-0.4142135623730951
  0
VERTEX
  5
2C4
  8
DOOR_OPTION_TRIM
 10
33.47835117172632
 20
1.155532350522193
 30
0.0
 42
-0.4142135623730951
  0
VERTEX
  5
2C5
  8
DOOR_OPTION_TRIM
 10
33.60835117172632
 20
1.285532350522075
 30
0.0
 42
-0.4142135623730951
  0
SEQEND
  5
60B
  8
DOOR_OPTION_TRIM
  0
POLYLINE
  5
A7
  8
DOOR_OPTION_TRIM
 66
     1
 10
0.0
 20
0.0
 30
0.0
 70
     1
  0
VERTEX
  5
2C6
  8
DOOR_OPTION_TRIM
 10
41.63835117172629
 20
1.155532350522193
 30
0.0
 42
-0.4142135623730951
  0
VERTEX
  5
2C7
  8
DOOR_OPTION_TRIM
 10
41.5083511717263
 20
1.025532350522312
 30
0.0
 42
-0.4142135623730951
  0
VERTEX
  5
2C8
  8
DOOR_OPTION_TRIM
 10
41.3783511717263
 20
1.155532350522193
 30
0.0
 42
-0.4142135623730951
  0
VERTEX
  5
2C9
  8
DOOR_OPTION_TRIM
 10
41.5083511717263
 20
1.285532350522075
 30
0.0
 42
-0.4142135623730951
  0
SEQEND
  5
60C
  8
DOOR_OPTION_TRIM
  0
POLYLINE
  5
A8
  8
DOOR_OPTION_TRIM
 66
     1
 10
0.0
 20
0.0
 30
0.0
 70
     1
  0
VERTEX
  5
2CA
  8
DOOR_OPTION_TRIM
 10
49.53835117172633
 20
1.155532350522193
 30
0.0
 42
-0.4142135623730951
  0
VERTEX
  5
2CB
  8
DOOR_OPTION_TRIM
 10
49.40835117172633
 20
1.025532350522312
 30
0.0
 42
-0.4142135623730951
  0
VERTEX
  5
2CC
  8
DOOR_OPTION_TRIM
 10
49.27835117172634
 20
1.155532350522193
 30
0.0
 42
-0.4142135623730951
  0
VERTEX
  5
2CD
  8
DOOR_OPTION_TRIM
 10
49.40835117172633
 20
1.285532350522075
 30
0.0
 42
-0.4142135623730951
  0
SEQEND
  5
60D
  8
DOOR_OPTION_TRIM
  0
POLYLINE
  5
A9
  8
DOOR_OPTION_TRIM
 66
     1
 10
0.0
 20
0.0
 30
0.0
 70
     1
  0
VERTEX
  5
2CE
  8
DOOR_OPTION_TRIM
 10
57.4383511717263
 20
1.155532350522193
 30
0.0
 42
-0.4142135623730951
  0
VERTEX
  5
2CF
  8
DOOR_OPTION_TRIM
 10
57.30835117172631
 20
1.025532350522312
 30
0.0
 42
-0.4142135623730951
  0
VERTEX
  5
2D0
  8
DOOR_OPTION_TRIM
 10
57.17835117172631
 20
1.155532350522193
 30
0.0
 42
-0.4142135623730951
  0
VERTEX
  5
2D1
  8
DOOR_OPTION_TRIM
 10
57.30835117172631
 20
1.285532350522075
 30
0.0
 42
-0.4142135623730951
  0
SEQEND
  5
60E
  8
DOOR_OPTION_TRIM
  0
POLYLINE
  5
AA
  8
DOOR_OPTION_TRIM
 66
     1
 10
0.0
 20
0.0
 30
0.0
 70
     1
  0
VERTEX
  5
2D2
  8
DOOR_OPTION_TRIM
 10
65.33835117172627
 20
1.155532350522208
 30
0.0
 42
-0.4142135623730951
  0
VERTEX
  5
2D3
  8
DOOR_OPTION_TRIM
 10
65.20835117172628
 20
1.025532350522326
 30
0.0
 42
-0.4142135623730951
  0
VERTEX
  5
2D4
  8
DOOR_OPTION_TRIM
 10
65.07835117172628
 20
1.155532350522208
 30
0.0
 42
-0.4142135623730951
  0
VERTEX
  5
2D5
  8
DOOR_OPTION_TRIM
 10
65.20835117172628
 20
1.285532350522089
 30
0.0
 42
-0.4142135623730951
  0
SEQEND
  5
60F
  8
DOOR_OPTION_TRIM
  0
POLYLINE
  5
AB
  8
DOOR_OPTION_TRIM
 66
     1
 10
0.0
 20
0.0
 30
0.0
 70
     1
  0
VERTEX
  5
2D6
  8
DOOR_OPTION_TRIM
 10
73.23835117172631
 20
1.155532350522208
 30
0.0
 42
-0.4142135623730951
  0
VERTEX
  5
2D7
  8
DOOR_OPTION_TRIM
 10
73.10835117172631
 20
1.025532350522326
 30
0.0
 42
-0.4142135623730951
  0
VERTEX
  5
2D8
  8
DOOR_OPTION_TRIM
 10
72.97835117172632
 20
1.155532350522208
 30
0.0
 42
-0.4142135623730951
  0
VERTEX
  5
2D9
  8
DOOR_OPTION_TRIM
 10
73.10835117172631
 20
1.285532350522089
 30
0.0
 42
-0.4142135623730951
  0
SEQEND
  5
610
  8
DOOR_OPTION_TRIM
  0
POLYLINE
  5
AC
  8
DOOR_OPTION_TRIM
 66
     1
 10
0.0
 20
0.0
 30
0.0
 70
     1
  0
VERTEX
  5
2DA
  8
DOOR_OPTION_TRIM
 10
83.0655445443961
 20
1.155528469846786
 30
0.0
 42
-0.4142135623730951
  0
VERTEX
  5
2DB
  8
DOOR_OPTION_TRIM
 10
82.93554454439611
 20
1.025528469846677
 30
0.0
 42
-0.4142135623730951
  0
VERTEX
  5
2DC
  8
DOOR_OPTION_TRIM
 10
82.80554454439611
 20
1.155528469846786
 30
0.0
 42
-0.4142135623730951
  0
VERTEX
  5
2DD
  8
DOOR_OPTION_TRIM
 10
82.93554454439611
 20
1.285528469846895
 30
0.0
 42
-0.4142135623730951
  0
SEQEND
  5
611
  8
DOOR_OPTION_TRIM
  0
POLYLINE
  5
AD
  8
DOOR_OPTION_TRIM
 66
     1
 10
0.0
 20
0.0
 30
0.0
 70
     1
  0
VERTEX
  5
2DE
  8
DOOR_OPTION_TRIM
 10
81.59453642271369
 20
1.155532985595869
 30
0.0
 42
-0.4142135623730951
  0
VERTEX
  5
2DF
  8
DOOR_OPTION_TRIM
 10
81.46453642271369
 20
1.025532985595987
 30
0.0
 42
-0.4142135623730951
  0
VERTEX
  5
2E0
  8
DOOR_OPTION_TRIM
 10
81.3345364227137
 20
1.155532985595869
 30
0.0
 42
-0.4142135623730951
  0
VERTEX
  5
2E1
  8
DOOR_OPTION_TRIM
 10
81.46453642271369
 20
1.285532985595751
 30
0.0
 42
-0.4142135623730951
  0
SEQEND
  5
612
  8
DOOR_OPTION_TRIM
  0
POLYLINE
  5
AE
  8
DOOR_OPTION_TRIM
 66
     1
 10
0.0
 20
0.0
 30
0.0
 70
     1
  0
VERTEX
  5
2E2
  8
DOOR_OPTION_TRIM
 10
88.5861437355163
 20
2.791321227496951
 30
0.0
 42
-0.4142135623730951
  0
VERTEX
  5
2E3
  8
DOOR_OPTION_TRIM
 10
88.56596282809606
 20
2.608584446919735
 30
0.0
 42
-0.4142135623730951
  0
VERTEX
  5
2E4
  8
DOOR_OPTION_TRIM
 10
88.38322604751896
 20
2.628765354339862
 30
0.0
 42
-0.4142135623730951
  0
VERTEX
  5
2E5
  8
DOOR_OPTION_TRIM
 10
88.40340695493909
 20
2.811502134917077
 30
0.0
 42
-0.4142135623730951
  0
SEQEND
  5
613
  8
DOOR_OPTION_TRIM
  0
POLYLINE
  5
AF
  8
DOOR_OPTION_TRIM
 66
     1
 10
0.0
 20
0.0
 30
0.0
 70
     1
  0
VERTEX
  5
2E6
  8
DOOR_OPTION_TRIM
 10
91.53646506221502
 20
7.577070412061516
 30
0.0
 42
-0.4142135623730951
  0
VERTEX
  5
2E7
  8
DOOR_OPTION_TRIM
 10
91.61128683989499
 20
7.409136789505624
 30
0.0
 42
-0.4142135623730951
  0
VERTEX
  5
2E8
  8
DOOR_OPTION_TRIM
 10
91.44335321733932
 20
7.334315011825197
 30
0.0
 42
-0.4142135623730951
  0
VERTEX
  5
2E9
  8
DOOR_OPTION_TRIM
 10
91.3685314396589
 20
7.502248634381317
 30
0.0
 42
-0.4142135623730951
  0
SEQEND
  5
614
  8
DOOR_OPTION_TRIM
  0
POLYLINE
  5
B0
  8
DOOR_OPTION_TRIM
 66
     1
 10
0.0
 20
0.0
 30
0.0
 70
     1
  0
VERTEX
  5
2EA
  8
DOOR_OPTION_TRIM
 10
93.31319656034536
 20
12.89874801665326
 30
0.0
 42
-0.4142135623730951
  0
VERTEX
  5
2EB
  8
DOOR_OPTION_TRIM
 10
93.40863809912007
 20
12.74161459348613
 30
0.0
 42
-0.4142135623730951
  0
VERTEX
  5
2EC
  8
DOOR_OPTION_TRIM
 10
93.25150467595283
 20
12.64617305471108
 30
0.0
 42
-0.4142135623730951
  0
VERTEX
  5
2ED
  8
DOOR_OPTION_TRIM
 10
93.1560631371779
 20
12.80330647787821
 30
0.0
 42
-0.4142135623730951
  0
SEQEND
  5
615
  8
DOOR_OPTION_TRIM
  0
POLYLINE
  5
B1
  8
DOOR_OPTION_TRIM
 66
     1
 10
0.0
 20
0.0
 30
0.0
 70
     1
  0
VERTEX
  5
2EE
  8
DOOR_OPTION_TRIM
 10
94.01224262896783
 20
18.65224290797516
 30
0.0
 42
-0.4142135623730951
  0
VERTEX
  5
2EF
  8
DOOR_OPTION_TRIM
 10
94.13993713566065
 20
18.5199775952118
 30
0.0
 42
-0.4142135623730951
  0
VERTEX
  5
2F0
  8
DOOR_OPTION_TRIM
 10
94.0076718228975
 20
18.39228308851864
 30
0.0
 42
-0.4142135623730951
  0
VERTEX
  5
2F1
  8
DOOR_OPTION_TRIM
 10
93.87997731620435
 20
18.524548401282
 30
0.0
 42
-0.4142135623730951
  0
SEQEND
  5
616
  8
DOOR_OPTION_TRIM
  0
POLYLINE
  5
B2
  8
DOOR_OPTION_TRIM
 66
     1
 10
0.0
 20
0.0
 30
0.0
 70
     1
  0
VERTEX
  5
2F2
  8
DOOR_OPTION_TRIM
 10
7.870425062516603
 20
0.4055278966959017
 30
0.0
  0
VERTEX
  5
2F3
  8
DOOR_OPTION_TRIM
 10
7.870425062516645
 20
3.405526636564318
 30
0.0
  0
VERTEX
  5
2F4
  8
DOOR_OPTION_TRIM
 10
81.68022390933122
 20
3.405526636563764
 30
0.0
  0
VERTEX
  5
2F5
  8
DOOR_OPTION_TRIM
 10
83.67496738517086
 20
3.405529143561921
 30
0.0
  0
VERTEX
  5
2F6
  8
DOOR_OPTION_TRIM
 10
83.77046762602838
 20
3.406201097579128
 30
0.0
  0
VERTEX
  5
2F7
  8
DOOR_OPTION_TRIM
 10
83.86055077334008
 20
3.40807906927887
 30
0.0
  0
VERTEX
  5
2F8
  8
DOOR_OPTION_TRIM
 10
83.95028485213895
 20
3.411188767423596
 30
0.0
  0
VERTEX
  5
2F9
  8
DOOR_OPTION_TRIM
 10
84.03964701277009
 20
3.415519878903638
 30
0.0
  0
VERTEX
  5
2FA
  8
DOOR_OPTION_TRIM
 10
84.12861424084626
 20
3.421061876839872
 30
0.0
  0
VERTEX
  5
2FB
  8
DOOR_OPTION_TRIM
 10
84.21716336824379
 20
3.427804010059504
 30
0.0
  0
VERTEX
  5
2FC
  8
DOOR_OPTION_TRIM
 10
84.30527108439428
 20
3.435735292849472
 30
0.0
  0
VERTEX
  5
2FD
  8
DOOR_OPTION_TRIM
 10
84.39291394787556
 20
3.444844494971335
 30
0.0
  0
VERTEX
  5
2FE
  8
DOOR_OPTION_TRIM
 10
84.48006839831446
 20
3.455120131918989
 30
0.0
  0
VERTEX
  5
2FF
  8
DOOR_OPTION_TRIM
 10
84.5667107686351
 20
3.466550455414449
 30
0.0
  0
VERTEX
  5
300
  8
DOOR_OPTION_TRIM
 10
84.65281729765802
 20
3.479123444119637
 30
0.0
  0
VERTEX
  5
301
  8
DOOR_OPTION_TRIM
 10
84.7383641430827
 20
3.492826794565758
 30
0.0
  0
VERTEX
  5
302
  8
DOOR_OPTION_TRIM
 10
84.8233273948993
 20
3.507647912290508
 30
0.0
  0
VERTEX
  5
303
  8
DOOR_OPTION_TRIM
 10
84.90768308924389
 20
3.5235739031815
 30
0.0
  0
VERTEX
  5
304
  8
DOOR_OPTION_TRIM
 10
84.99140722275938
 20
3.540591565035243
 30
0.0
  0
VERTEX
  5
305
  8
DOOR_OPTION_TRIM
 10
85.07447576748636
 20
3.558687379328717
 30
0.0
  0
VERTEX
  5
306
  8
DOOR_OPTION_TRIM
 10
85.15686468634424
 20
3.57784750322719
 30
0.0
  0
VERTEX
  5
307
  8
DOOR_OPTION_TRIM
 10
85.23854994926346
 20
3.598057761842824
 30
0.0
  0
VERTEX
  5
308
  8
DOOR_OPTION_TRIM
 10
85.31950754999598
 20
3.619303640764997
 30
0.0
  0
VERTEX
  5
309
  8
DOOR_OPTION_TRIM
 10
85.39971352369439
 20
3.641570278905988
 30
0.0
  0
VERTEX
  5
30A
  8
DOOR_OPTION_TRIM
 10
85.47914396530545
 20
3.664842461690228
 30
0.0
  0
VERTEX
  5
30B
  8
DOOR_OPTION_TRIM
 10
85.55777504883831
 20
3.68910461464327
 30
0.0
  0
VERTEX
  5
30C
  8
DOOR_OPTION_TRIM
 10
85.63558304759981
 20
3.714340797441423
 30
0.0
  0
VERTEX
  5
30D
  8
DOOR_OPTION_TRIM
 10
85.71254435542737
 20
3.7405346984782
 30
0.0
  0
VERTEX
  5
30E
  8
DOOR_OPTION_TRIM
 10
85.78863550902615
 20
3.76766963004286
 30
0.0
  0
VERTEX
  5
30F
  8
DOOR_OPTION_TRIM
 10
85.86383321146268
 20
3.795728524191077
 30
0.0
  0
VERTEX
  5
310
  8
DOOR_OPTION_TRIM
 10
85.93811435688467
 20
3.824693929417776
 30
0.0
  0
VERTEX
  5
311
  8
DOOR_OPTION_TRIM
 10
86.0114560565501
 20
3.8545480082513
 30
0.0
  0
VERTEX
  5
312
  8
DOOR_OPTION_TRIM
 10
86.08383566621391
 20
3.885272535894842
 30
0.0
  0
VERTEX
  5
313
  8
DOOR_OPTION_TRIM
 10
86.15523081494784
 20
3.91684890007366
 30
0.0
  0
VERTEX
  5
314
  8
DOOR_OPTION_TRIM
 10
86.22561943545547
 20
3.94925810225061
 30
0.0
  0
VERTEX
  5
315
  8
DOOR_OPTION_TRIM
 10
86.29497979591228
 20
3.982480760388739
 30
0.0
  0
VERTEX
  5
316
  8
DOOR_OPTION_TRIM
 10
86.36329053339618
 20
4.016497113469654
 30
0.0
  0
VERTEX
  5
317
  8
DOOR_OPTION_TRIM
 10
86.43053068892759
 20
4.051287027986405
 30
0.0
  0
VERTEX
  5
318
  8
DOOR_OPTION_TRIM
 10
86.496679744128
 20
4.08683000665053
 30
0.0
  0
VERTEX
  5
319
  8
DOOR_OPTION_TRIM
 10
86.56171765951062
 20
4.123105199574297
 30
0.0
  0
VERTEX
  5
31A
  8
DOOR_OPTION_TRIM
 10
86.62562491436636
 20
4.160091418211437
 30
0.0
  0
VERTEX
  5
31B
  8
DOOR_OPTION_TRIM
 10
86.68838254821314
 20
4.197767152355141
 30
0.0
  0
VERTEX
  5
31C
  8
DOOR_OPTION_TRIM
 10
86.74997220372033
 20
4.236110590511657
 30
0.0
  0
VERTEX
  5
31D
  8
DOOR_OPTION_TRIM
 10
86.81037617101292
 20
4.275099643992121
 30
0.0
  0
VERTEX
  5
31E
  8
DOOR_OPTION_TRIM
 10
86.8695774332072
 20
4.314711975071873
 30
0.0
  0
VERTEX
  5
31F
  8
DOOR_OPTION_TRIM
 10
86.92755971298816
 20
4.354925029585615
 30
0.0
  0
VERTEX
  5
320
  8
DOOR_OPTION_TRIM
 10
86.98430752000563
 20
4.395716074339475
 30
0.0
  0
VERTEX
  5
321
  8
DOOR_OPTION_TRIM
 10
87.03980619878637
 20
4.437062239715146
 30
0.0
  0
VERTEX
  5
322
  8
DOOR_OPTION_TRIM
 10
87.09404197683448
 20
4.478940567860377
 30
0.0
  0
VERTEX
  5
323
  8
DOOR_OPTION_TRIM
 10
87.14700201250348
 20
4.521328066839146
 30
0.0
  0
VERTEX
  5
324
  8
DOOR_OPTION_TRIM
 10
87.19867444215951
 20
4.564201771102148
 30
0.0
  0
VERTEX
  5
325
  8
DOOR_OPTION_TRIM
 10
87.24904842609196
 20
4.6075388086266
 30
0.0
  0
VERTEX
  5
326
  8
DOOR_OPTION_TRIM
 10
87.29811419253433
 20
4.651316475024601
 30
0.0
  0
VERTEX
  5
327
  8
DOOR_OPTION_TRIM
 10
87.34586307909358
 20
4.695512314890607
 30
0.0
  0
VERTEX
  5
328
  8
DOOR_OPTION_TRIM
 10
87.39228757078631
 20
4.740104210578579
 30
0.0
  0
VERTEX
  5
329
  8
DOOR_OPTION_TRIM
 10
87.43738133380332
 20
4.785070478540661
 30
0.0
  0
VERTEX
  5
32A
  8
DOOR_OPTION_TRIM
 10
87.48113924405634
 20
4.830389973262868
 30
0.0
  0
VERTEX
  5
32B
  8
DOOR_OPTION_TRIM
 10
87.52355740945204
 20
4.876042198712298
 30
0.0
  0
VERTEX
  5
32C
  8
DOOR_OPTION_TRIM
 10
87.56463318479852
 20
4.922007427099857
 30
0.0
  0
VERTEX
  5
32D
  8
DOOR_OPTION_TRIM
 10
87.60436517817145
 20
4.968266824595617
 30
0.0
  0
VERTEX
  5
32E
  8
DOOR_OPTION_TRIM
 10
87.64275324751934
 20
5.014802583469759
 30
0.0
  0
VERTEX
  5
32F
  8
DOOR_OPTION_TRIM
 10
87.67979848627708
 20
5.061598059961739
 30
0.0
  0
VERTEX
  5
330
  8
DOOR_OPTION_TRIM
 10
87.7155031967332
 20
5.108637916947032
 30
0.0
  0
VERTEX
  5
331
  8
DOOR_OPTION_TRIM
 10
87.7498708499151
 20
5.155908270262785
 30
0.0
  0
VERTEX
  5
332
  8
DOOR_OPTION_TRIM
 10
87.78290603083819
 20
5.203396837335163
 30
0.0
  0
VERTEX
  5
333
  8
DOOR_OPTION_TRIM
 10
87.81461436803072
 20
5.251093086498827
 30
0.0
  0
VERTEX
  5
334
  8
DOOR_OPTION_TRIM
 10
87.8450024463721
 20
5.29898838513725
 30
0.0
  0
VERTEX
  5
335
  8
DOOR_OPTION_TRIM
 10
87.8768209095595
 20
5.351613153008316
 30
0.0
  0
VERTEX
  5
336
  8
DOOR_OPTION_TRIM
 10
87.99439266605104
 20
5.552695400028483
 30
0.0
  0
VERTEX
  5
337
  8
DOOR_OPTION_TRIM
 10
88.11274952695867
 20
5.758766507320729
 30
0.0
  0
VERTEX
  5
338
  8
DOOR_OPTION_TRIM
 10
88.22923838866534
 20
5.965283414339069
 30
0.0
  0
VERTEX
  5
339
  8
DOOR_OPTION_TRIM
 10
88.34385851309109
 20
6.172239403046319
 30
0.0
  0
VERTEX
  5
33A
  8
DOOR_OPTION_TRIM
 10
88.45660916525803
 20
6.379627780071246
 30
0.0
  0
VERTEX
  5
33B
  8
DOOR_OPTION_TRIM
 10
88.5674896127827
 20
6.587441877059632
 30
0.0
  0
VERTEX
  5
33C
  8
DOOR_OPTION_TRIM
 10
88.67649912535198
 20
6.795675051014427
 30
0.0
  0
VERTEX
  5
33D
  8
DOOR_OPTION_TRIM
 10
88.78363697418085
 20
7.004320684623167
 30
0.0
  0
VERTEX
  5
33E
  8
DOOR_OPTION_TRIM
 10
88.88890243145629
 20
7.213372186574929
 30
0.0
  0
VERTEX
  5
33F
  8
DOOR_OPTION_TRIM
 10
88.99229476976238
 20
7.422822991863654
 30
0.0
  0
VERTEX
  5
340
  8
DOOR_OPTION_TRIM
 10
89.09381326149166
 20
7.632666562075997
 30
0.0
  0
VERTEX
  5
341
  8
DOOR_OPTION_TRIM
 10
89.19345717823994
 20
7.842896385668723
 30
0.0
  0
VERTEX
  5
342
  8
DOOR_OPTION_TRIM
 10
89.29122579018535
 20
8.05350597822519
 30
0.0
  0
VERTEX
  5
343
  8
DOOR_OPTION_TRIM
 10
89.38711836545262
 20
8.264488882700448
 30
0.0
  0
VERTEX
  5
344
  8
DOOR_OPTION_TRIM
 10
89.48113416946278
 20
8.47583866964635
 30
0.0
  0
VERTEX
  5
345
  8
DOOR_OPTION_TRIM
 10
89.57327246426853
 20
8.687548937420274
 30
0.0
  0
VERTEX
  5
346
  8
DOOR_OPTION_TRIM
 10
89.66353250787442
 20
8.8996133123743
 30
0.0
  0
VERTEX
  5
347
  8
DOOR_OPTION_TRIM
 10
89.75191355354563
 20
9.112025449026646
 30
0.0
  0
VERTEX
  5
348
  8
DOOR_OPTION_TRIM
 10
89.83841484910151
 20
9.32477903020947
 30
0.0
  0
VERTEX
  5
349
  8
DOOR_OPTION_TRIM
 10
89.92303563619866
 20
9.537867767201192
 30
0.0
  0
VERTEX
  5
34A
  8
DOOR_OPTION_TRIM
 10
90.00577514960109
 20
9.751285399832
 30
0.0
  0
VERTEX
  5
34B
  8
DOOR_OPTION_TRIM
 10
90.08663261643817
 20
9.965025696569342
 30
0.0
  0
VERTEX
  5
34C
  8
DOOR_OPTION_TRIM
 10
90.16560725545473
 20
10.17908245458023
 30
0.0
  0
VERTEX
  5
34D
  8
DOOR_OPTION_TRIM
 10
90.24269827624839
 20
10.39344949976919
 30
0.0
  0
VERTEX
  5
34E
  8
DOOR_OPTION_TRIM
 10
90.31790487849939
 20
10.60812068679172
 30
0.0
  0
VERTEX
  5
34F
  8
DOOR_OPTION_TRIM
 10
90.39122625119164
 20
10.82308989904288
 30
0.0
  0
VERTEX
  5
350
  8
DOOR_OPTION_TRIM
 10
90.46266157182554
 20
11.03835104861867
 30
0.0
  0
VERTEX
  5
351
  8
DOOR_OPTION_TRIM
 10
90.53221000562591
 20
11.25389807625527
 30
0.0
  0
VERTEX
  5
352
  8
DOOR_OPTION_TRIM
 10
90.59987070474192
 20
11.46972495123384
 30
0.0
  0
VERTEX
  5
353
  8
DOOR_OPTION_TRIM
 10
90.66564280744346
 20
11.68582567126589
 30
0.0
  0
VERTEX
  5
354
  8
DOOR_OPTION_TRIM
 10
90.72952543731348
 20
11.90219426234364
 30
0.0
  0
VERTEX
  5
355
  8
DOOR_OPTION_TRIM
 10
90.79151770243725
 20
12.11882477856682
 30
0.0
  0
VERTEX
  5
356
  8
DOOR_OPTION_TRIM
 10
90.85161869458902
 20
12.33571130193889
 30
0.0
  0
VERTEX
  5
357
  8
DOOR_OPTION_TRIM
 10
90.90982748842002
 20
12.55284794213196
 30
0.0
  0
VERTEX
  5
358
  8
DOOR_OPTION_TRIM
 10
90.96614314064384
 20
12.77022883622533
 30
0.0
  0
VERTEX
  5
359
  8
DOOR_OPTION_TRIM
 10
91.02056468922562
 20
12.98784814841122
 30
0.0
  0
VERTEX
  5
35A
  8
DOOR_OPTION_TRIM
 10
91.07309115257253
 20
13.20570006967239
 30
0.0
  0
VERTEX
  5
35B
  8
DOOR_OPTION_TRIM
 10
91.12372152872835
 20
13.42377881742789
 30
0.0
  0
VERTEX
  5
35C
  8
DOOR_OPTION_TRIM
 10
91.17245479457237
 20
13.64207863514878
 30
0.0
  0
VERTEX
  5
35D
  8
DOOR_OPTION_TRIM
 10
91.21928990502583
 20
13.8605937919441
 30
0.0
  0
VERTEX
  5
35E
  8
DOOR_OPTION_TRIM
 10
91.26422579226453
 20
14.07931858211407
 30
0.0
  0
VERTEX
  5
35F
  8
DOOR_OPTION_TRIM
 10
91.30726136493949
 20
14.29824732467375
 30
0.0
  0
VERTEX
  5
360
  8
DOOR_OPTION_TRIM
 10
91.34839550740939
 20
14.51737436284805
 30
0.0
  0
VERTEX
  5
361
  8
DOOR_OPTION_TRIM
 10
91.38762707898199
 20
14.73669406353167
 30
0.0
  0
VERTEX
  5
362
  8
DOOR_OPTION_TRIM
 10
91.42495491316895
 20
14.95620081672416
 30
0.0
  0
VERTEX
  5
363
  8
DOOR_OPTION_TRIM
 10
91.4603778169549
 20
15.17588903493072
 30
0.0
  0
VERTEX
  5
364
  8
DOOR_OPTION_TRIM
 10
91.49389457007946
 20
15.3957531525358
 30
0.0
  0
VERTEX
  5
365
  8
DOOR_OPTION_TRIM
 10
91.52550392433743
 20
15.6157876251483
 30
0.0
  0
VERTEX
  5
366
  8
DOOR_OPTION_TRIM
 10
91.55520460289476
 20
15.83598692891212
 30
0.0
  0
VERTEX
  5
367
  8
DOOR_OPTION_TRIM
 10
91.58299529962419
 20
16.05634555979816
 30
0.0
  0
VERTEX
  5
368
  8
DOOR_OPTION_TRIM
 10
91.60887467846037
 20
16.27685803286056
 30
0.0
  0
VERTEX
  5
369
  8
DOOR_OPTION_TRIM
 10
91.63284137277542
 20
16.49751888146773
 30
0.0
  0
VERTEX
  5
36A
  8
DOOR_OPTION_TRIM
 10
91.65489398477773
 20
16.71832265651062
 30
0.0
  0
VERTEX
  5
36B
  8
DOOR_OPTION_TRIM
 10
91.67503108493376
 20
16.93926392558103
 30
0.0
  0
VERTEX
  5
36C
  8
DOOR_OPTION_TRIM
 10
91.69325121141348
 20
17.160337272128
 30
0.0
  0
VERTEX
  5
36D
  8
DOOR_OPTION_TRIM
 10
91.70955286956307
 20
17.38153729458929
 30
0.0
  0
VERTEX
  5
36E
  8
DOOR_OPTION_TRIM
 10
91.72393453140232
 20
17.60285860549959
 30
0.0
  0
VERTEX
  5
36F
  8
DOOR_OPTION_TRIM
 10
91.73639463515183
 20
17.82429583057876
 30
0.0
  0
VERTEX
  5
370
  8
DOOR_OPTION_TRIM
 10
91.74693158478662
 20
18.04584360779666
 30
0.0
  0
VERTEX
  5
371
  8
DOOR_OPTION_TRIM
 10
91.75554374962137
 20
18.26749658642041
 30
0.0
  0
VERTEX
  5
372
  8
DOOR_OPTION_TRIM
 10
91.76222946392481
 20
18.48924942604356
 30
0.0
  0
VERTEX
  5
373
  8
DOOR_OPTION_TRIM
 10
91.76698702656613
 20
18.71109679559493
 30
0.0
  0
VERTEX
  5
374
  8
DOOR_OPTION_TRIM
 10
91.76981470069249
 20
18.93303337233431
 30
0.0
  0
VERTEX
  5
375
  8
DOOR_OPTION_TRIM
 10
91.7707238921236
 20
19.15831934934897
 30
0.0
  0
VERTEX
  5
376
  8
DOOR_OPTION_TRIM
 10
91.77072145622974
 20
19.16600073777329
 30
0.0
  0
VERTEX
  5
377
  8
DOOR_OPTION_TRIM
 10
94.7707213053856
 20
19.16695208676185
 30
0.0
  0
VERTEX
  5
378
  8
DOOR_OPTION_TRIM
 10
94.77072581194015
 20
19.1527415000179
 30
0.0
  0
VERTEX
  5
379
  8
DOOR_OPTION_TRIM
 10
94.76973757704222
 20
18.90786955384613
 30
0.0
  0
VERTEX
  5
37A
  8
DOOR_OPTION_TRIM
 10
94.76657727108095
 20
18.6598255954392
 30
0.0
  0
VERTEX
  5
37B
  8
DOOR_OPTION_TRIM
 10
94.76126011216074
 20
18.41188398795714
 30
0.0
  0
VERTEX
  5
37C
  8
DOOR_OPTION_TRIM
 10
94.75378817585936
 20
18.16405361249201
 30
0.0
  0
VERTEX
  5
37D
  8
DOOR_OPTION_TRIM
 10
94.74416357309012
 20
17.91634332022807
 30
0.0
  0
VERTEX
  5
37E
  8
DOOR_OPTION_TRIM
 10
94.73238845064002
 20
17.66876197014574
 30
0.0
  0
VERTEX
  5
37F
  8
DOOR_OPTION_TRIM
 10
94.71846498960092
 20
17.42131839871365
 30
0.0
  0
VERTEX
  5
380
  8
DOOR_OPTION_TRIM
 10
94.70239540640993
 20
17.17402144134905
 30
0.0
  0
VERTEX
  5
381
  8
DOOR_OPTION_TRIM
 10
94.68418195228098
 20
16.92687992772119
 30
0.0
  0
VERTEX
  5
382
  8
DOOR_OPTION_TRIM
 10
94.6638269095353
 20
16.67990264024013
 30
0.0
  0
VERTEX
  5
383
  8
DOOR_OPTION_TRIM
 10
94.64133259827706
 20
16.43309840221411
 30
0.0
  0
VERTEX
  5
384
  8
DOOR_OPTION_TRIM
 10
94.61670136801187
 20
16.18647597825986
 30
0.0
  0
VERTEX
  5
385
  8
DOOR_OPTION_TRIM
 10
94.58993560065271
 20
15.94004412406105
 30
0.0
  0
VERTEX
  5
386
  8
DOOR_OPTION_TRIM
 10
94.56103771181749
 20
15.69381159392253
 30
0.0
  0
VERTEX
  5
387
  8
DOOR_OPTION_TRIM
 10
94.53001014720114
 20
15.4477871156065
 30
0.0
  0
VERTEX
  5
388
  8
DOOR_OPTION_TRIM
 10
94.49685538124065
 20
15.20197938546119
 30
0.0
  0
VERTEX
  5
389
  8
DOOR_OPTION_TRIM
 10
94.46157592122533
 20
14.95639710289436
 30
0.0
  0
VERTEX
  5
38A
  8
DOOR_OPTION_TRIM
 10
94.42417430426796
 20
14.71104894885468
 30
0.0
  0
VERTEX
  5
38B
  8
DOOR_OPTION_TRIM
 10
94.3846530920038
 20
14.46594355680611
 30
0.0
  0
VERTEX
  5
38C
  8
DOOR_OPTION_TRIM
 10
94.34301487620239
 20
14.22108955566875
 30
0.0
  0
VERTEX
  5
38D
  8
DOOR_OPTION_TRIM
 10
94.29926227892967
 20
13.97649556763247
 30
0.0
  0
VERTEX
  5
38E
  8
DOOR_OPTION_TRIM
 10
94.25339794214226
 20
13.73217015651574
 30
0.0
  0
VERTEX
  5
38F
  8
DOOR_OPTION_TRIM
 10
94.20542454088984
 20
13.48812190149658
 30
0.0
  0
VERTEX
  5
390
  8
DOOR_OPTION_TRIM
 10
94.15534477037856
 20
13.24435933285133
 30
0.0
  0
VERTEX
  5
391
  8
DOOR_OPTION_TRIM
 10
94.10316135173427
 20
13.0008909646491
 30
0.0
  0
VERTEX
  5
392
  8
DOOR_OPTION_TRIM
 10
94.04887702736066
 20
12.75772527682477
 30
0.0
  0
VERTEX
  5
393
  8
DOOR_OPTION_TRIM
 10
93.99249456993952
 20
12.51487075655552
 30
0.0
  0
VERTEX
  5
394
  8
DOOR_OPTION_TRIM
 10
93.93401676252579
 20
12.27233581552957
 30
0.0
  0
VERTEX
  5
395
  8
DOOR_OPTION_TRIM
 10
93.87344641832208
 20
12.03012887728039
 30
0.0
  0
VERTEX
  5
396
  8
DOOR_OPTION_TRIM
 10
93.81078636732313
 20
11.7882583248421
 30
0.0
  0
VERTEX
  5
397
  8
DOOR_OPTION_TRIM
 10
93.74603946135362
 20
11.54673252253554
 30
0.0
  0
VERTEX
  5
398
  8
DOOR_OPTION_TRIM
 10
93.67920856626635
 20
11.30555979009398
 30
0.0
  0
VERTEX
  5
399
  8
DOOR_OPTION_TRIM
 10
93.61029656996907
 20
11.06474843576018
 30
0.0
  0
VERTEX
  5
39A
  8
DOOR_OPTION_TRIM
 10
93.53930637945977
 20
10.82430674536602
 30
0.0
  0
VERTEX
  5
39B
  8
DOOR_OPTION_TRIM
 10
93.46624091421874
 20
10.58424296445457
 30
0.0
  0
VERTEX
  5
39C
  8
DOOR_OPTION_TRIM
 10
93.3911031052068
 20
10.34456529733609
 30
0.0
  0
VERTEX
  5
39D
  8
DOOR_OPTION_TRIM
 10
93.31389590846668
 20
10.1052819540929
 30
0.0
  0
VERTEX
  5
39E
  8
DOOR_OPTION_TRIM
 10
93.23462228861494
 20
9.866401097966104
 30
0.0
  0
VERTEX
  5
39F
  8
DOOR_OPTION_TRIM
 10
93.15328521816257
 20
9.627930849388235
 30
0.0
  0
VERTEX
  5
3A0
  8
DOOR_OPTION_TRIM
 10
93.06988769017691
 20
9.389879324755952
 30
0.0
  0
VERTEX
  5
3A1
  8
DOOR_OPTION_TRIM
 10
92.9844327052105
 20
9.152254599771027
 30
0.0
  0
VERTEX
  5
3A2
  8
DOOR_OPTION_TRIM
 10
92.89692327858886
 20
8.91506473222455
 30
0.0
  0
VERTEX
  5
3A3
  8
DOOR_OPTION_TRIM
 10
92.8073624244136
 20
8.67831772165448
 30
0.0
  0
VERTEX
  5
3A4
  8
DOOR_OPTION_TRIM
 10
92.71575317890135
 20
8.442021573804254
 30
0.0
  0
VERTEX
  5
3A5
  8
DOOR_OPTION_TRIM
 10
92.62209858323119
 20
8.206184255550966
 30
0.0
  0
VERTEX
  5
3A6
  8
DOOR_OPTION_TRIM
 10
92.52640168548685
 20
7.970813703460976
 30
0.0
  0
VERTEX
  5
3A7
  8
DOOR_OPTION_TRIM
 10
92.42866552990306
 20
7.735917799247204
 30
0.0
  0
VERTEX
  5
3A8
  8
DOOR_OPTION_TRIM
 10
92.32889318744644
 20
7.501504446641434
 30
0.0
  0
VERTEX
  5
3A9
  8
DOOR_OPTION_TRIM
 10
92.22708771755258
 20
7.267581479661771
 30
0.0
  0
VERTEX
  5
3AA
  8
DOOR_OPTION_TRIM
 10
92.12325219281608
 20
7.034156724533773
 30
0.0
  0
VERTEX
  5
3AB
  8
DOOR_OPTION_TRIM
 10
92.01738968324132
 20
6.80123796430928
 30
0.0
  0
VERTEX
  5
3AC
  8
DOOR_OPTION_TRIM
 10
91.90950327665011
 20
6.568832986087386
 30
0.0
  0
VERTEX
  5
3AD
  8
DOOR_OPTION_TRIM
 10
91.79959604375942
 20
6.336949506126643
 30
0.0
  0
VERTEX
  5
3AE
  8
DOOR_OPTION_TRIM
 10
91.68767106917237
 20
6.105595238750197
 30
0.0
  0
VERTEX
  5
3AF
  8
DOOR_OPTION_TRIM
 10
91.57373143492366
 20
5.874777863591248
 30
0.0
  0
VERTEX
  5
3B0
  8
DOOR_OPTION_TRIM
 10
91.45778023463951
 20
5.644505054365823
 30
0.0
  0
VERTEX
  5
3B1
  8
DOOR_OPTION_TRIM
 10
91.33982054158075
 20
5.414784417239957
 30
0.0
  0
VERTEX
  5
3B2
  8
DOOR_OPTION_TRIM
 10
91.21985545024943
 20
5.185623574923397
 30
0.0
  0
VERTEX
  5
3B3
  8
DOOR_OPTION_TRIM
 10
91.09788803873487
 20
4.957030093840899
 30
0.0
  0
VERTEX
  5
3B4
  8
DOOR_OPTION_TRIM
 10
90.97392138868251
 20
4.729011524803013
 30
0.0
  0
VERTEX
  5
3B5
  8
DOOR_OPTION_TRIM
 10
90.84795858163322
 20
4.501575396961584
 30
0.0
  0
VERTEX
  5
3B6
  8
DOOR_OPTION_TRIM
 10
90.72000269413745
 20
4.274729209957172
 30
0.0
  0
VERTEX
  5
3B7
  8
DOOR_OPTION_TRIM
 10
90.59005680023635
 20
4.048480439641594
 30
0.0
  0
VERTEX
  5
3B8
  8
DOOR_OPTION_TRIM
 10
90.45547161202391
 20
3.818300225575172
 30
0.0
  0
VERTEX
  5
3B9
  8
DOOR_OPTION_TRIM
 10
90.39548750166266
 20
3.719092106705489
 30
0.0
  0
VERTEX
  5
3BA
  8
DOOR_OPTION_TRIM
 10
90.33063067547043
 20
3.616869879446881
 30
0.0
  0
VERTEX
  5
3BB
  8
DOOR_OPTION_TRIM
 10
90.26369600510604
 20
3.516185548456292
 30
0.0
  0
VERTEX
  5
3BC
  8
DOOR_OPTION_TRIM
 10
90.19473431908243
 20
3.417052092764266
 30
0.0
  0
VERTEX
  5
3BD
  8
DOOR_OPTION_TRIM
 10
90.12379549682753
 20
3.31948060101206
 30
0.0
  0
VERTEX
  5
3BE
  8
DOOR_OPTION_TRIM
 10
90.05092835799148
 20
3.223480388403573
 30
0.0
  0
VERTEX
  5
3BF
  8
DOOR_OPTION_TRIM
 10
89.97618061524479
 20
3.129059179301862
 30
0.0
  0
VERTEX
  5
3C0
  8
DOOR_OPTION_TRIM
 10
89.89959881752672
 20
3.036223250644639
 30
0.0
  0
VERTEX
  5
3C1
  8
DOOR_OPTION_TRIM
 10
89.8212283018767
 20
2.944977568744093
 30
0.0
  0
VERTEX
  5
3C2
  8
DOOR_OPTION_TRIM
 10
89.74111316836404
 20
2.855325934052985
 30
0.0
  0
VERTEX
  5
3C3
  8
DOOR_OPTION_TRIM
 10
89.6592962731958
 20
2.767271127442314
 30
0.0
  0
VERTEX
  5
3C4
  8
DOOR_OPTION_TRIM
 10
89.57581918935846
 20
2.68081500469782
 30
0.0
  0
VERTEX
  5
3C5
  8
DOOR_OPTION_TRIM
 10
89.49072229914616
 20
2.595958711726439
 30
0.0
  0
VERTEX
  5
3C6
  8
DOOR_OPTION_TRIM
 10
89.40404469930597
 20
2.512702689884122
 30
0.0
  0
VERTEX
  5
3C7
  8
DOOR_OPTION_TRIM
 10
89.31582431485565
 20
2.431046880506642
 30
0.0
  0
VERTEX
  5
3C8
  8
DOOR_OPTION_TRIM
 10
89.22609785513139
 20
2.350990757636851
 30
0.0
  0
VERTEX
  5
3C9
  8
DOOR_OPTION_TRIM
 10
89.13490091657529
 20
2.272533489812872
 30
0.0
  0
VERTEX
  5
3CA
  8
DOOR_OPTION_TRIM
 10
89.04226795489573
 20
2.19567396864079
 30
0.0
  0
VERTEX
  5
3CB
  8
DOOR_OPTION_TRIM
 10
88.94823238852966
 20
2.120410944098353
 30
0.0
  0
VERTEX
  5
3CC
  8
DOOR_OPTION_TRIM
 10
88.8528265945735
 20
2.046743057593289
 30
0.0
  0
VERTEX
  5
3CD
  8
DOOR_OPTION_TRIM
 10
88.75608197086164
 20
1.97466892345949
 30
0.0
  0
VERTEX
  5
3CE
  8
DOOR_OPTION_TRIM
 10
88.65802896481016
 20
1.904187176658183
 30
0.0
  0
VERTEX
  5
3CF
  8
DOOR_OPTION_TRIM
 10
88.55869719899617
 20
1.83529658250302
 30
0.0
  0
VERTEX
  5
3D0
  8
DOOR_OPTION_TRIM
 10
88.45811541454366
 20
1.767996008174691
 30
0.0
  0
VERTEX
  5
3D1
  8
DOOR_OPTION_TRIM
 10
88.3563115699673
 20
1.702284503975193
 30
0.0
  0
VERTEX
  5
3D2
  8
DOOR_OPTION_TRIM
 10
88.25331289394869
 20
1.638161343365596
 30
0.0
  0
VERTEX
  5
3D3
  8
DOOR_OPTION_TRIM
 10
88.14914590617097
 20
1.575626039022268
 30
0.0
  0
VERTEX
  5
3D4
  8
DOOR_OPTION_TRIM
 10
88.04383651629739
 20
1.514678402805316
 30
0.0
  0
VERTEX
  5
3D5
  8
DOOR_OPTION_TRIM
 10
87.93741000020434
 20
1.455318529829697
 30
0.0
  0
VERTEX
  5
3D6
  8
DOOR_OPTION_TRIM
 10
87.82989107248629
 20
1.397546836058268
 30
0.0
  0
VERTEX
  5
3D7
  8
DOOR_OPTION_TRIM
 10
87.72130393294917
 20
1.341364079207437
 30
0.0
  0
VERTEX
  5
3D8
  8
DOOR_OPTION_TRIM
 10
87.61167231391498
 20
1.286771375367266
 30
0.0
  0
VERTEX
  5
3D9
  8
DOOR_OPTION_TRIM
 10
87.50101949693469
 20
1.233770198926891
 30
0.0
  0
VERTEX
  5
3DA
  8
DOOR_OPTION_TRIM
 10
87.3893683665248
 20
1.182362399860381
 30
0.0
  0
VERTEX
  5
3DB
  8
DOOR_OPTION_TRIM
 10
87.27674142412995
 20
1.13255020080544
 30
0.0
  0
VERTEX
  5
3DC
  8
DOOR_OPTION_TRIM
 10
87.16316084466796
 20
1.084336212621224
 30
0.0
  0
VERTEX
  5
3DD
  8
DOOR_OPTION_TRIM
 10
87.04864851689688
 20
1.037723438617491
 30
0.0
  0
VERTEX
  5
3DE
  8
DOOR_OPTION_TRIM
 10
86.93322601499146
 20
0.9927152535034338
 30
0.0
  0
VERTEX
  5
3DF
  8
DOOR_OPTION_TRIM
 10
86.81691469715786
 20
0.9493154307762097
 30
0.0
  0
VERTEX
  5
3E0
  8
DOOR_OPTION_TRIM
 10
86.69973572316864
 20
0.9075281364345074
 30
0.0
  0
VERTEX
  5
3E1
  8
DOOR_OPTION_TRIM
 10
86.58171002115903
 20
0.8673579047987232
 30
0.0
  0
VERTEX
  5
3E2
  8
DOOR_OPTION_TRIM
 10
86.46285837701923
 20
0.828809659467538
 30
0.0
  0
VERTEX
  5
3E3
  8
DOOR_OPTION_TRIM
 10
86.34320141078403
 20
0.7918886926705682
 30
0.0
  0
VERTEX
  5
3E4
  8
DOOR_OPTION_TRIM
 10
86.22275964718771
 20
0.756600676165931
 30
0.0
  0
VERTEX
  5
3E5
  8
DOOR_OPTION_TRIM
 10
86.10155351869814
 20
0.7229516487183218
 30
0.0
  0
VERTEX
  5
3E6
  8
DOOR_OPTION_TRIM
 10
85.97960333432472
 20
0.6909479970341863
 30
0.0
  0
VERTEX
  5
3E7
  8
DOOR_OPTION_TRIM
 10
85.85692940635833
 20
0.6605964779352007
 30
0.0
  0
VERTEX
  5
3E8
  8
DOOR_OPTION_TRIM
 10
85.73355193608784
 20
0.6319041774328298
 30
0.0
  0
VERTEX
  5
3E9
  8
DOOR_OPTION_TRIM
 10
85.60949115122837
 20
0.6048785332783382
 30
0.0
  0
VERTEX
  5
3EA
  8
DOOR_OPTION_TRIM
 10
85.48476726510323
 20
0.5795273134959871
 30
0.0
  0
VERTEX
  5
3EB
  8
DOOR_OPTION_TRIM
 10
85.35940049445541
 20
0.5558586084331409
 30
0.0
  0
VERTEX
  5
3EC
  8
DOOR_OPTION_TRIM
 10
85.2334110517351
 20
0.5338808201810252
 30
0.0
  0
VERTEX
  5
3ED
  8
DOOR_OPTION_TRIM
 10
85.1068192479817
 20
0.5136026691749294
 30
0.0
  0
VERTEX
  5
3EE
  8
DOOR_OPTION_TRIM
 10
84.97964539772708
 20
0.4950331667820365
 30
0.0
  0
VERTEX
  5
3EF
  8
DOOR_OPTION_TRIM
 10
84.85190990298194
 20
0.4781816191276675
 30
0.0
  0
VERTEX
  5
3F0
  8
DOOR_OPTION_TRIM
 10
84.72363324303494
 20
0.4630576135947422
 30
0.0
  0
VERTEX
  5
3F1
  8
DOOR_OPTION_TRIM
 10
84.59483600027504
 20
0.449671011741998
 30
0.0
  0
VERTEX
  5
3F2
  8
DOOR_OPTION_TRIM
 10
84.4655388525736
 20
0.4380319375565023
 30
0.0
  0
VERTEX
  5
3F3
  8
DOOR_OPTION_TRIM
 10
84.33576260844909
 20
0.4281507703441321
 30
0.0
  0
VERTEX
  5
3F4
  8
DOOR_OPTION_TRIM
 10
84.20552818385674
 20
0.4200381322267503
 30
0.0
  0
VERTEX
  5
3F5
  8
DOOR_OPTION_TRIM
 10
84.07485666912741
 20
0.413704882333036
 30
0.0
  0
VERTEX
  5
3F6
  8
DOOR_OPTION_TRIM
 10
83.94376928733452
 20
0.4091621022677145
 30
0.0
  0
VERTEX
  5
3F7
  8
DOOR_OPTION_TRIM
 10
83.8122874220591
 20
0.406421087741478
 30
0.0
  0
VERTEX
  5
3F8
  8
DOOR_OPTION_TRIM
 10
83.68552335240581
 20
0.4055291568232633
 30
0.0
  0
VERTEX
  5
3F9
  8
DOOR_OPTION_TRIM
 10
81.68022579453411
 20
0.4055266365650141
 30
0.0
  0
SEQEND
  5
617
  8
DOOR_OPTION_TRIM
  0
POLYLINE
  5
B4
  8
THREE_QUARTER_INCH_THRUCUT
 66
     1
 10
0.0
 20
0.0
 30
0.0
 70
     1
  0
VERTEX
  5
3FA
  8
THREE_QUARTER_INCH_THRUCUT
 10
16.68175876105654
 20
9.90259860308301
 30
0.0
  0
VERTEX
  5
3FB
  8
THREE_QUARTER_INCH_THRUCUT
 10
16.68175876105654
 20
9.40259860308301
 30
0.0
 42
-1.0
  0
VERTEX
  5
3FC
  8
THREE_QUARTER_INCH_THRUCUT
 10
16.42097135948173
 20
9.40259860308301
 30
0.0
  0
VERTEX
  5
3FD
  8
THREE_QUARTER_INCH_THRUCUT
 10
13.94254616263136
 20
9.40259860308301
 30
0.0
 42
-1.0
  0
VERTEX
  5
3FE
  8
THREE_QUARTER_INCH_THRUCUT
 10
13.68175876105654
 20
9.40259860308301
 30
0.0
  0
VERTEX
  5
3FF
  8
THREE_QUARTER_INCH_THRUCUT
 10
13.68175876105654
 20
9.902598603088856
 30
0.0
 42
-1.0
  0
VERTEX
  5
400
  8
THREE_QUARTER_INCH_THRUCUT
 10
13.94254616263136
 20
9.90259860308301
 30
0.0
  0
VERTEX
  5
401
  8
THREE_QUARTER_INCH_THRUCUT
 10
16.42097135948173
 20
9.90259860308301
 30
0.0
 42
-1.0
  0
SEQEND
  5
618
  8
THREE_QUARTER_INCH_THRUCUT
  0
POLYLINE
  5
B5
  8
THREE_QUARTER_INCH_THRUCUT
 66
     1
 10
0.0
 20
0.0
 30
0.0
 70
     1
  0
VERTEX
  5
402
  8
THREE_QUARTER_INCH_THRUCUT
 10
31.43175876105406
 20
9.902587810530253
 30
0.0
 42
1.0
  0
VERTEX
  5
403
  8
THREE_QUARTER_INCH_THRUCUT
 10
31.17097135947924
 20
9.902587810530253
 30
0.0
  0
VERTEX
  5
404
  8
THREE_QUARTER_INCH_THRUCUT
 10
28.69254616262886
 20
9.902587810530253
 30
0.0
 42
1.0
  0
VERTEX
  5
405
  8
THREE_QUARTER_INCH_THRUCUT
 10
28.43175876105404
 20
9.902587810530253
 30
0.0
  0
VERTEX
  5
406
  8
THREE_QUARTER_INCH_THRUCUT
 10
28.43175876105404
 20
9.402587810530253
 30
0.0
 42
1.0
  0
VERTEX
  5
407
  8
THREE_QUARTER_INCH_THRUCUT
 10
28.69254616262886
 20
9.402587810530253
 30
0.0
  0
VERTEX
  5
408
  8
THREE_QUARTER_INCH_THRUCUT
 10
31.17097135947924
 20
9.402587810530253
 30
0.0
 42
1.0
  0
VERTEX
  5
409
  8
THREE_QUARTER_INCH_THRUCUT
 10
31.43175876105406
 20
9.402587810530253
 30
0.0
  0
SEQEND
  5
619
  8
THREE_QUARTER_INCH_THRUCUT
  0
POLYLINE
  5
B6
  8
THREE_QUARTER_INCH_THRUCUT
 66
     1
 10
0.0
 20
0.0
 30
0.0
 70
     1
  0
VERTEX
  5
40A
  8
THREE_QUARTER_INCH_THRUCUT
 10
46.18175876105759
 20
9.902577017991916
 30
0.0
  0
VERTEX
  5
40B
  8
THREE_QUARTER_INCH_THRUCUT
 10
46.18175876105759
 20
9.402577017977382
 30
0.0
 42
-1.0
  0
VERTEX
  5
40C
  8
THREE_QUARTER_INCH_THRUCUT
 10
45.92097135948277
 20
9.402577017977382
 30
0.0
  0
VERTEX
  5
40D
  8
THREE_QUARTER_INCH_THRUCUT
 10
43.4425461626324
 20
9.402577017977382
 30
0.0
 42
-1.0
  0
VERTEX
  5
40E
  8
THREE_QUARTER_INCH_THRUCUT
 10
43.18175876105759
 20
9.402577017977382
 30
0.0
  0
VERTEX
  5
40F
  8
THREE_QUARTER_INCH_THRUCUT
 10
43.18175876105759
 20
9.902577017980443
 30
0.0
 42
-1.0
  0
VERTEX
  5
410
  8
THREE_QUARTER_INCH_THRUCUT
 10
43.4425461626324
 20
9.902577017977382
 30
0.0
  0
VERTEX
  5
411
  8
THREE_QUARTER_INCH_THRUCUT
 10
45.92097135948277
 20
9.902577017977382
 30
0.0
 42
-1.0
  0
SEQEND
  5
61A
  8
THREE_QUARTER_INCH_THRUCUT
  0
POLYLINE
  5
B7
  8
THREE_QUARTER_INCH_THRUCUT
 66
     1
 10
0.0
 20
0.0
 30
0.0
 70
     1
  0
VERTEX
  5
412
  8
THREE_QUARTER_INCH_THRUCUT
 10
13.55054894876885
 20
46.65260401602133
 30
0.0
 42
-0.4142135623730951
  0
VERTEX
  5
413
  8
THREE_QUARTER_INCH_THRUCUT
 10
13.42054894876885
 20
46.52260401602145
 30
0.0
 42
-0.4142135623730951
  0
VERTEX
  5
414
  8
THREE_QUARTER_INCH_THRUCUT
 10
13.29054894876886
 20
46.65260401602133
 30
0.0
 42
-0.4142135623730951
  0
VERTEX
  5
415
  8
THREE_QUARTER_INCH_THRUCUT
 10
13.42054894876885
 20
46.78260401602121
 30
0.0
 42
-0.4142135623730951
  0
SEQEND
  5
61B
  8
THREE_QUARTER_INCH_THRUCUT
  0
POLYLINE
  5
B8
  8
THREE_QUARTER_INCH_THRUCUT
 66
     1
 10
0.0
 20
0.0
 30
0.0
 70
     1
  0
VERTEX
  5
416
  8
THREE_QUARTER_INCH_THRUCUT
 10
21.74967301971499
 20
46.65260401602133
 30
0.0
 42
-0.4142135623730951
  0
VERTEX
  5
417
  8
THREE_QUARTER_INCH_THRUCUT
 10
21.61967301971499
 20
46.52260401602145
 30
0.0
 42
-0.4142135623730951
  0
VERTEX
  5
418
  8
THREE_QUARTER_INCH_THRUCUT
 10
21.489673019715
 20
46.65260401602133
 30
0.0
 42
-0.4142135623730951
  0
VERTEX
  5
419
  8
THREE_QUARTER_INCH_THRUCUT
 10
21.61967301971499
 20
46.78260401602121
 30
0.0
 42
-0.4142135623730951
  0
SEQEND
  5
61C
  8
THREE_QUARTER_INCH_THRUCUT
  0
POLYLINE
  5
B9
  8
THREE_QUARTER_INCH_THRUCUT
 66
     1
 10
0.0
 20
0.0
 30
0.0
 70
     1
  0
VERTEX
  5
41A
  8
THREE_QUARTER_INCH_THRUCUT
 10
29.64967301971495
 20
46.65260401602133
 30
0.0
 42
-0.4142135623730951
  0
VERTEX
  5
41B
  8
THREE_QUARTER_INCH_THRUCUT
 10
29.51967301971496
 20
46.52260401602145
 30
0.0
 42
-0.4142135623730951
  0
VERTEX
  5
41C
  8
THREE_QUARTER_INCH_THRUCUT
 10
29.38967301971496
 20
46.65260401602133
 30
0.0
 42
-0.4142135623730951
  0
VERTEX
  5
41D
  8
THREE_QUARTER_INCH_THRUCUT
 10
29.51967301971496
 20
46.78260401602121
 30
0.0
 42
-0.4142135623730951
  0
SEQEND
  5
61D
  8
THREE_QUARTER_INCH_THRUCUT
  0
POLYLINE
  5
BA
  8
THREE_QUARTER_INCH_THRUCUT
 66
     1
 10
0.0
 20
0.0
 30
0.0
 70
     1
  0
VERTEX
  5
41E
  8
THREE_QUARTER_INCH_THRUCUT
 10
37.54967301971502
 20
46.65260401602133
 30
0.0
 42
-0.4142135623730951
  0
VERTEX
  5
41F
  8
THREE_QUARTER_INCH_THRUCUT
 10
37.41967301971503
 20
46.52260401602145
 30
0.0
 42
-0.4142135623730951
  0
VERTEX
  5
420
  8
THREE_QUARTER_INCH_THRUCUT
 10
37.28967301971503
 20
46.65260401602133
 30
0.0
 42
-0.4142135623730951
  0
VERTEX
  5
421
  8
THREE_QUARTER_INCH_THRUCUT
 10
37.41967301971503
 20
46.78260401602121
 30
0.0
 42
-0.4142135623730951
  0
SEQEND
  5
61E
  8
THREE_QUARTER_INCH_THRUCUT
  0
POLYLINE
  5
BB
  8
THREE_QUARTER_INCH_THRUCUT
 66
     1
 10
0.0
 20
0.0
 30
0.0
 70
     1
  0
VERTEX
  5
422
  8
THREE_QUARTER_INCH_THRUCUT
 10
45.449673019715
 20
46.65260401602133
 30
0.0
 42
-0.4142135623730951
  0
VERTEX
  5
423
  8
THREE_QUARTER_INCH_THRUCUT
 10
45.319673019715
 20
46.52260401602145
 30
0.0
 42
-0.4142135623730951
  0
VERTEX
  5
424
  8
THREE_QUARTER_INCH_THRUCUT
 10
45.18967301971501
 20
46.65260401602133
 30
0.0
 42
-0.4142135623730951
  0
VERTEX
  5
425
  8
THREE_QUARTER_INCH_THRUCUT
 10
45.319673019715
 20
46.78260401602121
 30
0.0
 42
-0.4142135623730951
  0
SEQEND
  5
61F
  8
THREE_QUARTER_INCH_THRUCUT
  0
POLYLINE
  5
BC
  8
THREE_QUARTER_INCH_THRUCUT
 66
     1
 10
0.0
 20
0.0
 30
0.0
 70
     1
  0
VERTEX
  5
426
  8
THREE_QUARTER_INCH_THRUCUT
 10
53.34967301971503
 20
46.65260401602133
 30
0.0
 42
-0.4142135623730951
  0
VERTEX
  5
427
  8
THREE_QUARTER_INCH_THRUCUT
 10
53.21967301971504
 20
46.52260401602145
 30
0.0
 42
-0.4142135623730951
  0
VERTEX
  5
428
  8
THREE_QUARTER_INCH_THRUCUT
 10
53.08967301971504
 20
46.65260401602133
 30
0.0
 42
-0.4142135623730951
  0
VERTEX
  5
429
  8
THREE_QUARTER_INCH_THRUCUT
 10
53.21967301971504
 20
46.78260401602121
 30
0.0
 42
-0.4142135623730951
  0
SEQEND
  5
620
  8
THREE_QUARTER_INCH_THRUCUT
  0
POLYLINE
  5
BD
  8
THREE_QUARTER_INCH_THRUCUT
 66
     1
 10
0.0
 20
0.0
 30
0.0
 70
     1
  0
VERTEX
  5
42A
  8
THREE_QUARTER_INCH_THRUCUT
 10
61.249673019715
 20
46.65260401602133
 30
0.0
 42
-0.4142135623730951
  0
VERTEX
  5
42B
  8
THREE_QUARTER_INCH_THRUCUT
 10
61.11967301971501
 20
46.52260401602145
 30
0.0
 42
-0.4142135623730951
  0
VERTEX
  5
42C
  8
THREE_QUARTER_INCH_THRUCUT
 10
60.98967301971501
 20
46.65260401602133
 30
0.0
 42
-0.4142135623730951
  0
VERTEX
  5
42D
  8
THREE_QUARTER_INCH_THRUCUT
 10
61.11967301971501
 20
46.78260401602121
 30
0.0
 42
-0.4142135623730951
  0
SEQEND
  5
621
  8
THREE_QUARTER_INCH_THRUCUT
  0
POLYLINE
  5
BE
  8
THREE_QUARTER_INCH_THRUCUT
 66
     1
 10
0.0
 20
0.0
 30
0.0
 70
     1
  0
VERTEX
  5
42E
  8
THREE_QUARTER_INCH_THRUCUT
 10
13.55055540526639
 20
46.65260972991145
 30
0.0
 42
-0.4142135623730951
  0
VERTEX
  5
42F
  8
THREE_QUARTER_INCH_THRUCUT
 10
13.4205554052664
 20
46.52260972991157
 30
0.0
 42
-0.4142135623730951
  0
VERTEX
  5
430
  8
THREE_QUARTER_INCH_THRUCUT
 10
13.2905554052664
 20
46.65260972991145
 30
0.0
 42
-0.4142135623730951
  0
VERTEX
  5
431
  8
THREE_QUARTER_INCH_THRUCUT
 10
13.4205554052664
 20
46.78260972991133
 30
0.0
 42
-0.4142135623730951
  0
SEQEND
  5
622
  8
THREE_QUARTER_INCH_THRUCUT
  0
POLYLINE
  5
BF
  8
THREE_QUARTER_INCH_THRUCUT
 66
     1
 10
0.0
 20
0.0
 30
0.0
 70
     1
  0
VERTEX
  5
432
  8
THREE_QUARTER_INCH_THRUCUT
 10
21.74967947621253
 20
46.65260972991145
 30
0.0
 42
-0.4142135623730951
  0
VERTEX
  5
433
  8
THREE_QUARTER_INCH_THRUCUT
 10
21.61967947621254
 20
46.52260972991157
 30
0.0
 42
-0.4142135623730951
  0
VERTEX
  5
434
  8
THREE_QUARTER_INCH_THRUCUT
 10
21.48967947621254
 20
46.65260972991145
 30
0.0
 42
-0.4142135623730951
  0
VERTEX
  5
435
  8
THREE_QUARTER_INCH_THRUCUT
 10
21.61967947621254
 20
46.78260972991133
 30
0.0
 42
-0.4142135623730951
  0
SEQEND
  5
623
  8
THREE_QUARTER_INCH_THRUCUT
  0
POLYLINE
  5
C0
  8
THREE_QUARTER_INCH_THRUCUT
 66
     1
 10
0.0
 20
0.0
 30
0.0
 70
     1
  0
VERTEX
  5
436
  8
THREE_QUARTER_INCH_THRUCUT
 10
29.6496794762125
 20
46.65260972991145
 30
0.0
 42
-0.4142135623730951
  0
VERTEX
  5
437
  8
THREE_QUARTER_INCH_THRUCUT
 10
29.5196794762125
 20
46.52260972991157
 30
0.0
 42
-0.4142135623730951
  0
VERTEX
  5
438
  8
THREE_QUARTER_INCH_THRUCUT
 10
29.38967947621251
 20
46.65260972991145
 30
0.0
 42
-0.4142135623730951
  0
VERTEX
  5
439
  8
THREE_QUARTER_INCH_THRUCUT
 10
29.5196794762125
 20
46.78260972991133
 30
0.0
 42
-0.4142135623730951
  0
SEQEND
  5
624
  8
THREE_QUARTER_INCH_THRUCUT
  0
POLYLINE
  5
C1
  8
THREE_QUARTER_INCH_THRUCUT
 66
     1
 10
0.0
 20
0.0
 30
0.0
 70
     1
  0
VERTEX
  5
43A
  8
THREE_QUARTER_INCH_THRUCUT
 10
37.54967947621257
 20
46.65260972991145
 30
0.0
 42
-0.4142135623730951
  0
VERTEX
  5
43B
  8
THREE_QUARTER_INCH_THRUCUT
 10
37.41967947621257
 20
46.52260972991157
 30
0.0
 42
-0.4142135623730951
  0
VERTEX
  5
43C
  8
THREE_QUARTER_INCH_THRUCUT
 10
37.28967947621258
 20
46.65260972991145
 30
0.0
 42
-0.4142135623730951
  0
VERTEX
  5
43D
  8
THREE_QUARTER_INCH_THRUCUT
 10
37.41967947621257
 20
46.78260972991133
 30
0.0
 42
-0.4142135623730951
  0
SEQEND
  5
625
  8
THREE_QUARTER_INCH_THRUCUT
  0
POLYLINE
  5
C2
  8
THREE_QUARTER_INCH_THRUCUT
 66
     1
 10
0.0
 20
0.0
 30
0.0
 70
     1
  0
VERTEX
  5
43E
  8
THREE_QUARTER_INCH_THRUCUT
 10
45.44967947621254
 20
46.65260972991145
 30
0.0
 42
-0.4142135623730951
  0
VERTEX
  5
43F
  8
THREE_QUARTER_INCH_THRUCUT
 10
45.31967947621255
 20
46.52260972991157
 30
0.0
 42
-0.4142135623730951
  0
VERTEX
  5
440
  8
THREE_QUARTER_INCH_THRUCUT
 10
45.18967947621255
 20
46.65260972991145
 30
0.0
 42
-0.4142135623730951
  0
VERTEX
  5
441
  8
THREE_QUARTER_INCH_THRUCUT
 10
45.31967947621255
 20
46.78260972991133
 30
0.0
 42
-0.4142135623730951
  0
SEQEND
  5
626
  8
THREE_QUARTER_INCH_THRUCUT
  0
POLYLINE
  5
C3
  8
THREE_QUARTER_INCH_THRUCUT
 66
     1
 10
0.0
 20
0.0
 30
0.0
 70
     1
  0
VERTEX
  5
442
  8
THREE_QUARTER_INCH_THRUCUT
 10
53.34967947621258
 20
46.65260972991145
 30
0.0
 42
-0.4142135623730951
  0
VERTEX
  5
443
  8
THREE_QUARTER_INCH_THRUCUT
 10
53.21967947621258
 20
46.52260972991157
 30
0.0
 42
-0.4142135623730951
  0
VERTEX
  5
444
  8
THREE_QUARTER_INCH_THRUCUT
 10
53.08967947621259
 20
46.65260972991145
 30
0.0
 42
-0.4142135623730951
  0
VERTEX
  5
445
  8
THREE_QUARTER_INCH_THRUCUT
 10
53.21967947621258
 20
46.78260972991133
 30
0.0
 42
-0.4142135623730951
  0
SEQEND
  5
627
  8
THREE_QUARTER_INCH_THRUCUT
  0
POLYLINE
  5
C4
  8
THREE_QUARTER_INCH_THRUCUT
 66
     1
 10
0.0
 20
0.0
 30
0.0
 70
     1
  0
VERTEX
  5
446
  8
THREE_QUARTER_INCH_THRUCUT
 10
61.24967947621255
 20
46.65260972991145
 30
0.0
 42
-0.4142135623730951
  0
VERTEX
  5
447
  8
THREE_QUARTER_INCH_THRUCUT
 10
61.11967947621255
 20
46.52260972991157
 30
0.0
 42
-0.4142135623730951
  0
VERTEX
  5
448
  8
THREE_QUARTER_INCH_THRUCUT
 10
60.98967947621256
 20
46.65260972991145
 30
0.0
 42
-0.4142135623730951
  0
VERTEX
  5
449
  8
THREE_QUARTER_INCH_THRUCUT
 10
61.11967947621255
 20
46.78260972991133
 30
0.0
 42
-0.4142135623730951
  0
SEQEND
  5
628
  8
THREE_QUARTER_INCH_THRUCUT
  0
POLYLINE
  5
C5
  8
THREE_QUARTER_INCH_THRUCUT
 66
     1
 10
0.0
 20
0.0
 30
0.0
 70
     1
  0
VERTEX
  5
44A
  8
THREE_QUARTER_INCH_THRUCUT
 10
7.790577715372351
 20
46.6526179112608
 30
0.0
 42
-0.4142135623730951
  0
VERTEX
  5
44B
  8
THREE_QUARTER_INCH_THRUCUT
 10
7.920574887878828
 20
46.78262073869259
 30
0.0
 42
-0.4142135623730951
  0
VERTEX
  5
44C
  8
THREE_QUARTER_INCH_THRUCUT
 10
8.050577715310894
 20
46.65262356618622
 30
0.0
 42
-0.4142135623730951
  0
VERTEX
  5
44D
  8
THREE_QUARTER_INCH_THRUCUT
 10
7.920580542804302
 20
46.52262073875421
 30
0.0
 42
-0.4142135623730951
  0
SEQEND
  5
629
  8
THREE_QUARTER_INCH_THRUCUT
  0
POLYLINE
  5
C6
  8
THREE_QUARTER_INCH_THRUCUT
 66
     1
 10
0.0
 20
0.0
 30
0.0
 70
     1
  0
VERTEX
  5
44E
  8
THREE_QUARTER_INCH_THRUCUT
 10
3.407698903332502
 20
46.65263091240799
 30
0.0
 42
-0.4142135623730951
  0
VERTEX
  5
44F
  8
THREE_QUARTER_INCH_THRUCUT
 10
3.537696075839037
 20
46.78263373984022
 30
0.0
 42
-0.4142135623730951
  0
VERTEX
  5
450
  8
THREE_QUARTER_INCH_THRUCUT
 10
3.667698903270932
 20
46.6526365673334
 30
0.0
 42
-0.4142135623730951
  0
VERTEX
  5
451
  8
THREE_QUARTER_INCH_THRUCUT
 10
3.537701730764397
 20
46.52263373990139
 30
0.0
 42
-0.4142135623730951
  0
SEQEND
  5
62A
  8
THREE_QUARTER_INCH_THRUCUT
  0
POLYLINE
  5
C7
  8
THREE_QUARTER_INCH_THRUCUT
 66
     1
 10
0.0
 20
0.0
 30
0.0
 70
     1
  0
VERTEX
  5
452
  8
THREE_QUARTER_INCH_THRUCUT
 10
7.79057771928241
 20
44.26973910765732
 30
0.0
 42
-0.4142135623730951
  0
VERTEX
  5
453
  8
THREE_QUARTER_INCH_THRUCUT
 10
7.920574891788888
 20
44.3997419350891
 30
0.0
 42
-0.4142135623730951
  0
VERTEX
  5
454
  8
THREE_QUARTER_INCH_THRUCUT
 10
8.050577719220954
 20
44.26974476258273
 30
0.0
 42
-0.4142135623730951
  0
VERTEX
  5
455
  8
THREE_QUARTER_INCH_THRUCUT
 10
7.920580546714362
 20
44.13974193515072
 30
0.0
 42
-0.4142135623730951
  0
SEQEND
  5
62B
  8
THREE_QUARTER_INCH_THRUCUT
  0
POLYLINE
  5
C8
  8
THREE_QUARTER_INCH_THRUCUT
 66
     1
 10
0.0
 20
0.0
 30
0.0
 70
     1
  0
VERTEX
  5
456
  8
THREE_QUARTER_INCH_THRUCUT
 10
3.407698907242562
 20
44.2697521088045
 30
0.0
 42
-0.4142135623730951
  0
VERTEX
  5
457
  8
THREE_QUARTER_INCH_THRUCUT
 10
3.537696079749097
 20
44.39975493623673
 30
0.0
 42
-0.4142135623730951
  0
VERTEX
  5
458
  8
THREE_QUARTER_INCH_THRUCUT
 10
3.667698907180991
 20
44.26975776372991
 30
0.0
 42
-0.4142135623730951
  0
VERTEX
  5
459
  8
THREE_QUARTER_INCH_THRUCUT
 10
3.537701734674457
 20
44.1397549362979
 30
0.0
 42
-0.4142135623730951
  0
SEQEND
  5
62C
  8
THREE_QUARTER_INCH_THRUCUT
  0
POLYLINE
  5
C9
  8
THREE_QUARTER_INCH_THRUCUT
 66
     1
 10
0.0
 20
0.0
 30
0.0
 70
     1
  0
VERTEX
  5
45A
  8
THREE_QUARTER_INCH_THRUCUT
 10
5.599138313306057
 20
45.46118784098827
 30
0.0
 42
0.4142135623730951
  0
VERTEX
  5
45B
  8
THREE_QUARTER_INCH_THRUCUT
 10
5.729138313306052
 20
45.33118784098839
 30
0.0
 42
0.4142135623730951
  0
VERTEX
  5
45C
  8
THREE_QUARTER_INCH_THRUCUT
 10
5.859138313306048
 20
45.46118784098827
 30
0.0
 42
0.4142135623730951
  0
VERTEX
  5
45D
  8
THREE_QUARTER_INCH_THRUCUT
 10
5.729138313306166
 20
45.59118784098838
 30
0.0
 42
0.4142135623730951
  0
SEQEND
  5
62D
  8
THREE_QUARTER_INCH_THRUCUT
  0
POLYLINE
  5
CA
  8
THREE_QUARTER_INCH_THRUCUT
 66
     1
 10
0.0
 20
0.0
 30
0.0
 70
     1
  0
VERTEX
  5
45E
  8
THREE_QUARTER_INCH_THRUCUT
 10
7.79057771535058
 20
46.65261791125307
 30
0.0
 42
-0.4142135623730951
  0
VERTEX
  5
45F
  8
THREE_QUARTER_INCH_THRUCUT
 10
7.920574887857057
 20
46.78262073868486
 30
0.0
 42
-0.4142135623730951
  0
VERTEX
  5
460
  8
THREE_QUARTER_INCH_THRUCUT
 10
8.050577715289123
 20
46.65262356617849
 30
0.0
 42
-0.4142135623730951
  0
VERTEX
  5
461
  8
THREE_QUARTER_INCH_THRUCUT
 10
7.920580542782531
 20
46.52262073874648
 30
0.0
 42
-0.4142135623730951
  0
SEQEND
  5
62E
  8
THREE_QUARTER_INCH_THRUCUT
  0
POLYLINE
  5
CB
  8
THREE_QUARTER_INCH_THRUCUT
 66
     1
 10
0.0
 20
0.0
 30
0.0
 70
     1
  0
VERTEX
  5
462
  8
THREE_QUARTER_INCH_THRUCUT
 10
3.407698903310731
 20
46.65263091240026
 30
0.0
 42
-0.4142135623730951
  0
VERTEX
  5
463
  8
THREE_QUARTER_INCH_THRUCUT
 10
3.537696075817266
 20
46.78263373983249
 30
0.0
 42
-0.4142135623730951
  0
VERTEX
  5
464
  8
THREE_QUARTER_INCH_THRUCUT
 10
3.66769890324916
 20
46.65263656732567
 30
0.0
 42
-0.4142135623730951
  0
VERTEX
  5
465
  8
THREE_QUARTER_INCH_THRUCUT
 10
3.537701730742626
 20
46.52263373989366
 30
0.0
 42
-0.4142135623730951
  0
SEQEND
  5
62F
  8
THREE_QUARTER_INCH_THRUCUT
  0
POLYLINE
  5
CC
  8
THREE_QUARTER_INCH_THRUCUT
 66
     1
 10
0.0
 20
0.0
 30
0.0
 70
     1
  0
VERTEX
  5
466
  8
THREE_QUARTER_INCH_THRUCUT
 10
7.790577719260639
 20
44.26973910764953
 30
0.0
 42
-0.4142135623730951
  0
VERTEX
  5
467
  8
THREE_QUARTER_INCH_THRUCUT
 10
7.920574891767117
 20
44.39974193508131
 30
0.0
 42
-0.4142135623730951
  0
VERTEX
  5
468
  8
THREE_QUARTER_INCH_THRUCUT
 10
8.050577719199183
 20
44.26974476257494
 30
0.0
 42
-0.4142135623730951
  0
VERTEX
  5
469
  8
THREE_QUARTER_INCH_THRUCUT
 10
7.920580546692591
 20
44.13974193514294
 30
0.0
 42
-0.4142135623730951
  0
SEQEND
  5
630
  8
THREE_QUARTER_INCH_THRUCUT
  0
POLYLINE
  5
CD
  8
THREE_QUARTER_INCH_THRUCUT
 66
     1
 10
0.0
 20
0.0
 30
0.0
 70
     1
  0
VERTEX
  5
46A
  8
THREE_QUARTER_INCH_THRUCUT
 10
3.407698907220791
 20
44.26975210879671
 30
0.0
 42
-0.4142135623730951
  0
VERTEX
  5
46B
  8
THREE_QUARTER_INCH_THRUCUT
 10
3.537696079727326
 20
44.39975493622894
 30
0.0
 42
-0.4142135623730951
  0
VERTEX
  5
46C
  8
THREE_QUARTER_INCH_THRUCUT
 10
3.66769890715922
 20
44.26975776372213
 30
0.0
 42
-0.4142135623730951
  0
VERTEX
  5
46D
  8
THREE_QUARTER_INCH_THRUCUT
 10
3.537701734652686
 20
44.13975493629012
 30
0.0
 42
-0.4142135623730951
  0
SEQEND
  5
631
  8
THREE_QUARTER_INCH_THRUCUT
  0
POLYLINE
  5
CE
  8
THREE_QUARTER_INCH_THRUCUT
 66
     1
 10
0.0
 20
0.0
 30
0.0
 70
     1
  0
VERTEX
  5
46E
  8
THREE_QUARTER_INCH_THRUCUT
 10
5.599138313284286
 20
45.46118784098054
 30
0.0
 42
0.4142135623730951
  0
VERTEX
  5
46F
  8
THREE_QUARTER_INCH_THRUCUT
 10
5.729138313284281
 20
45.33118784098066
 30
0.0
 42
0.4142135623730951
  0
VERTEX
  5
470
  8
THREE_QUARTER_INCH_THRUCUT
 10
5.859138313284276
 20
45.46118784098054
 30
0.0
 42
0.4142135623730951
  0
VERTEX
  5
471
  8
THREE_QUARTER_INCH_THRUCUT
 10
5.729138313284395
 20
45.59118784098065
 30
0.0
 42
0.4142135623730951
  0
SEQEND
  5
632
  8
THREE_QUARTER_INCH_THRUCUT
  0
POLYLINE
  5
CF
  8
THREE_QUARTER_INCH_THRUCUT
 66
     1
 10
0.0
 20
0.0
 30
0.0
 70
     1
  0
VERTEX
  5
472
  8
THREE_QUARTER_INCH_THRUCUT
 10
12.43175976105597
 20
15.42434629918138
 30
0.0
 42
-1.0
  0
VERTEX
  5
473
  8
THREE_QUARTER_INCH_THRUCUT
 10
12.43175976105597
 20
15.16355889760657
 30
0.0
  0
VERTEX
  5
474
  8
THREE_QUARTER_INCH_THRUCUT
 10
11.68175976105597
 20
15.16355889760657
 30
0.0
 42
-1.0
  0
VERTEX
  5
475
  8
THREE_QUARTER_INCH_THRUCUT
 10
11.68175976105597
 20
15.42434629918138
 30
0.0
  0
VERTEX
  5
476
  8
THREE_QUARTER_INCH_THRUCUT
 10
11.68175976105597
 20
17.90277149603175
 30
0.0
 42
-1.0
  0
VERTEX
  5
477
  8
THREE_QUARTER_INCH_THRUCUT
 10
11.68175976105597
 20
18.16355889760657
 30
0.0
  0
VERTEX
  5
478
  8
THREE_QUARTER_INCH_THRUCUT
 10
12.43175976105597
 20
18.16355889760657
 30
0.0
 42
-1.0
  0
VERTEX
  5
479
  8
THREE_QUARTER_INCH_THRUCUT
 10
12.43175976105597
 20
17.90277149603175
 30
0.0
  0
SEQEND
  5
633
  8
THREE_QUARTER_INCH_THRUCUT
  0
POLYLINE
  5
D0
  8
THREE_QUARTER_INCH_THRUCUT
 66
     1
 10
0.0
 20
0.0
 30
0.0
 70
     1
  0
VERTEX
  5
47A
  8
THREE_QUARTER_INCH_THRUCUT
 10
12.43175976105597
 20
27.42433950014779
 30
0.0
 42
-1.0
  0
VERTEX
  5
47B
  8
THREE_QUARTER_INCH_THRUCUT
 10
12.43175976105597
 20
27.16355209857297
 30
0.0
  0
VERTEX
  5
47C
  8
THREE_QUARTER_INCH_THRUCUT
 10
11.68175976105597
 20
27.16355209857297
 30
0.0
 42
-1.0
  0
VERTEX
  5
47D
  8
THREE_QUARTER_INCH_THRUCUT
 10
11.68175976105597
 20
27.42433950014779
 30
0.0
  0
VERTEX
  5
47E
  8
THREE_QUARTER_INCH_THRUCUT
 10
11.68175976105597
 20
29.90276469699815
 30
0.0
 42
-1.0
  0
VERTEX
  5
47F
  8
THREE_QUARTER_INCH_THRUCUT
 10
11.68175976105597
 20
30.16355209857297
 30
0.0
  0
VERTEX
  5
480
  8
THREE_QUARTER_INCH_THRUCUT
 10
12.43175976105597
 20
30.16355209857297
 30
0.0
 42
-1.0
  0
VERTEX
  5
481
  8
THREE_QUARTER_INCH_THRUCUT
 10
12.43175976105597
 20
29.90276469699815
 30
0.0
  0
SEQEND
  5
634
  8
THREE_QUARTER_INCH_THRUCUT
  0
POLYLINE
  5
D1
  8
THREE_QUARTER_INCH_THRUCUT
 66
     1
 10
0.0
 20
0.0
 30
0.0
 70
     1
  0
VERTEX
  5
482
  8
THREE_QUARTER_INCH_THRUCUT
 10
12.4317603596232
 20
39.42434629918456
 30
0.0
 42
-1.0
  0
VERTEX
  5
483
  8
THREE_QUARTER_INCH_THRUCUT
 10
12.4317603596232
 20
39.16355889760975
 30
0.0
  0
VERTEX
  5
484
  8
THREE_QUARTER_INCH_THRUCUT
 10
11.6817603596232
 20
39.16355889760975
 30
0.0
 42
-1.0
  0
VERTEX
  5
485
  8
THREE_QUARTER_INCH_THRUCUT
 10
11.6817603596232
 20
39.42434629918456
 30
0.0
  0
VERTEX
  5
486
  8
THREE_QUARTER_INCH_THRUCUT
 10
11.6817603596232
 20
41.90277149603493
 30
0.0
 42
-1.0
  0
VERTEX
  5
487
  8
THREE_QUARTER_INCH_THRUCUT
 10
11.6817603596232
 20
42.16355889760975
 30
0.0
  0
VERTEX
  5
488
  8
THREE_QUARTER_INCH_THRUCUT
 10
12.4317603596232
 20
42.16355889760975
 30
0.0
 42
-1.0
  0
VERTEX
  5
489
  8
THREE_QUARTER_INCH_THRUCUT
 10
12.4317603596232
 20
41.90277149603493
 30
0.0
  0
SEQEND
  5
635
  8
THREE_QUARTER_INCH_THRUCUT
  0
POLYLINE
  5
D2
  8
THREE_QUARTER_INCH_THRUCUT
 66
     1
 10
0.0
 20
0.0
 30
0.0
 70
     1
  0
VERTEX
  5
48A
  8
THREE_QUARTER_INCH_THRUCUT
 10
1.681528526154082
 20
47.40260972984369
 30
0.0
  0
VERTEX
  5
48B
  8
THREE_QUARTER_INCH_THRUCUT
 10
1.681491465540049
 20
28.65270838335632
 30
0.0
  0
VERTEX
  5
48C
  8
THREE_QUARTER_INCH_THRUCUT
 10
3.497086925438524
 20
28.65270838335632
 30
0.0
 42
-1.0
  0
VERTEX
  5
48D
  8
THREE_QUARTER_INCH_THRUCUT
 10
3.681491465540049
 20
28.46830384325485
 30
0.0
  0
VERTEX
  5
48E
  8
THREE_QUARTER_INCH_THRUCUT
 10
3.681491465540049
 20
27.15262138335643
 30
0.0
  0
VERTEX
  5
48F
  8
THREE_QUARTER_INCH_THRUCUT
 10
3.681484768018677
 20
25.92136944818835
 30
0.0
 42
0.143058627175503
  0
VERTEX
  5
490
  8
THREE_QUARTER_INCH_THRUCUT
 10
3.69081979042808
 20
25.9087142511195
 30
0.0
 42
-0.0750617181916302
  0
VERTEX
  5
491
  8
THREE_QUARTER_INCH_THRUCUT
 10
3.701765768018632
 20
25.89742344818855
 30
0.0
 42
-0.2532340495763916
  0
VERTEX
  5
492
  8
THREE_QUARTER_INCH_THRUCUT
 10
3.724136499342549
 20
25.71795408953781
 30
0.0
 42
-0.2532310404645838
  0
VERTEX
  5
493
  8
THREE_QUARTER_INCH_THRUCUT
 10
3.586125768018647
 20
25.60106344818873
 30
0.0
 42
-0.2018735615043351
  0
VERTEX
  5
494
  8
THREE_QUARTER_INCH_THRUCUT
 10
3.46984893463862
 20
25.62363040515233
 30
0.0
 42
0.0597507938202493
  0
VERTEX
  5
495
  8
THREE_QUARTER_INCH_THRUCUT
 10
3.412784768018653
 20
25.65266944818872
 30
0.0
  0
VERTEX
  5
496
  8
THREE_QUARTER_INCH_THRUCUT
 10
1.681484768018677
 20
25.65266944818872
 30
0.0
  0
VERTEX
  5
497
  8
THREE_QUARTER_INCH_THRUCUT
 10
1.6814851628301
 20
4.652601883354141
 30
0.0
  0
VERTEX
  5
498
  8
THREE_QUARTER_INCH_THRUCUT
 10
4.926475780470312
 20
4.652586024651914
 30
0.0
 42
0.4142106424158553
  0
VERTEX
  5
499
  8
THREE_QUARTER_INCH_THRUCUT
 10
5.056474486142761
 20
4.78258602464452
 30
0.0
  0
VERTEX
  5
49A
  8
THREE_QUARTER_INCH_THRUCUT
 10
5.056474486142648
 20
4.968739544305567
 30
0.0
 42
-1.0
  0
VERTEX
  5
49B
  8
THREE_QUARTER_INCH_THRUCUT
 10
5.240322253171158
 20
5.152587307414382
 30
0.0
  0
VERTEX
  5
49C
  8
THREE_QUARTER_INCH_THRUCUT
 10
5.926474486142766
 20
5.152587292783796
 30
0.0
  0
VERTEX
  5
49D
  8
THREE_QUARTER_INCH_THRUCUT
 10
5.926474486142652
 20
5.752587553138159
 30
0.0
  0
VERTEX
  5
49E
  8
THREE_QUARTER_INCH_THRUCUT
 10
5.240317075453405
 20
5.752587530482874
 30
0.0
 42
-1.0
  0
VERTEX
  5
49F
  8
THREE_QUARTER_INCH_THRUCUT
 10
5.056469306288832
 20
5.936437581960849
 30
0.0
  0
VERTEX
  5
4A0
  8
THREE_QUARTER_INCH_THRUCUT
 10
5.056470953094063
 20
6.068742030416292
 30
0.0
 42
-1.0
  0
VERTEX
  5
4A1
  8
THREE_QUARTER_INCH_THRUCUT
 10
5.240318716191055
 20
6.252587505155265
 30
0.0
  0
VERTEX
  5
4A2
  8
THREE_QUARTER_INCH_THRUCUT
 10
5.926474486142652
 20
6.252587505145261
 30
0.0
  0
VERTEX
  5
4A3
  8
THREE_QUARTER_INCH_THRUCUT
 10
5.926474486142652
 20
6.739764409507774
 30
0.0
  0
VERTEX
  5
4A4
  8
THREE_QUARTER_INCH_THRUCUT
 10
6.186474486142757
 20
6.739764409507774
 30
0.0
  0
VERTEX
  5
4A5
  8
THREE_QUARTER_INCH_THRUCUT
 10
6.186474486142757
 20
6.252587505145261
 30
0.0
  0
VERTEX
  5
4A6
  8
THREE_QUARTER_INCH_THRUCUT
 10
6.872630256094354
 20
6.252587505155265
 30
0.0
 42
-1.0
  0
VERTEX
  5
4A7
  8
THREE_QUARTER_INCH_THRUCUT
 10
7.056478019191346
 20
6.068742030416292
 30
0.0
  0
VERTEX
  5
4A8
  8
THREE_QUARTER_INCH_THRUCUT
 10
7.056479665996577
 20
5.936437581960849
 30
0.0
 42
-1.0
  0
VERTEX
  5
4A9
  8
THREE_QUARTER_INCH_THRUCUT
 10
6.872631896832004
 20
5.752587530482874
 30
0.0
  0
VERTEX
  5
4AA
  8
THREE_QUARTER_INCH_THRUCUT
 10
6.186474486142757
 20
5.752587553138159
 30
0.0
  0
VERTEX
  5
4AB
  8
THREE_QUARTER_INCH_THRUCUT
 10
6.186474486142643
 20
5.152587292783796
 30
0.0
  0
VERTEX
  5
4AC
  8
THREE_QUARTER_INCH_THRUCUT
 10
6.872626719114251
 20
5.152587307414382
 30
0.0
 42
-1.0
  0
VERTEX
  5
4AD
  8
THREE_QUARTER_INCH_THRUCUT
 10
7.056474486142761
 20
4.968739544305567
 30
0.0
  0
VERTEX
  5
4AE
  8
THREE_QUARTER_INCH_THRUCUT
 10
7.056474486142648
 20
4.78258602464452
 30
0.0
 42
0.4142106424158553
  0
VERTEX
  5
4AF
  8
THREE_QUARTER_INCH_THRUCUT
 10
7.186473191920541
 20
4.652586024651914
 30
0.0
  0
VERTEX
  5
4B0
  8
THREE_QUARTER_INCH_THRUCUT
 10
24.17647578047031
 20
4.652609812705254
 30
0.0
 42
0.4142106424158553
  0
VERTEX
  5
4B1
  8
THREE_QUARTER_INCH_THRUCUT
 10
24.30647448614276
 20
4.782617742048973
 30
0.0
  0
VERTEX
  5
4B2
  8
THREE_QUARTER_INCH_THRUCUT
 10
24.30647448614265
 20
4.968771261710021
 30
0.0
 42
-1.0
  0
VERTEX
  5
4B3
  8
THREE_QUARTER_INCH_THRUCUT
 10
24.49032225317116
 20
5.152619024818836
 30
0.0
  0
VERTEX
  5
4B4
  8
THREE_QUARTER_INCH_THRUCUT
 10
25.17647448614277
 20
5.15261901018825
 30
0.0
  0
VERTEX
  5
4B5
  8
THREE_QUARTER_INCH_THRUCUT
 10
25.17647448614265
 20
5.752619270542613
 30
0.0
  0
VERTEX
  5
4B6
  8
THREE_QUARTER_INCH_THRUCUT
 10
24.4903170754534
 20
5.752619247887328
 30
0.0
 42
-1.0
  0
VERTEX
  5
4B7
  8
THREE_QUARTER_INCH_THRUCUT
 10
24.30646930628883
 20
5.936469299365303
 30
0.0
  0
VERTEX
  5
4B8
  8
THREE_QUARTER_INCH_THRUCUT
 10
24.30647095309406
 20
6.068773747820746
 30
0.0
 42
-1.0
  0
VERTEX
  5
4B9
  8
THREE_QUARTER_INCH_THRUCUT
 10
24.49031871619106
 20
6.252619222559719
 30
0.0
  0
VERTEX
  5
4BA
  8
THREE_QUARTER_INCH_THRUCUT
 10
25.17647448614265
 20
6.252619222549715
 30
0.0
  0
VERTEX
  5
4BB
  8
THREE_QUARTER_INCH_THRUCUT
 10
25.17647448614265
 20
6.739796126912228
 30
0.0
  0
VERTEX
  5
4BC
  8
THREE_QUARTER_INCH_THRUCUT
 10
25.43647448614276
 20
6.739796126912228
 30
0.0
  0
VERTEX
  5
4BD
  8
THREE_QUARTER_INCH_THRUCUT
 10
25.43647448614276
 20
6.252619222549715
 30
0.0
  0
VERTEX
  5
4BE
  8
THREE_QUARTER_INCH_THRUCUT
 10
26.12263025609435
 20
6.252619222559719
 30
0.0
 42
-1.0
  0
VERTEX
  5
4BF
  8
THREE_QUARTER_INCH_THRUCUT
 10
26.30647801919135
 20
6.068773747820746
 30
0.0
  0
VERTEX
  5
4C0
  8
THREE_QUARTER_INCH_THRUCUT
 10
26.30647966599658
 20
5.936469299365303
 30
0.0
 42
-1.0
  0
VERTEX
  5
4C1
  8
THREE_QUARTER_INCH_THRUCUT
 10
26.122631896832
 20
5.752619247887328
 30
0.0
  0
VERTEX
  5
4C2
  8
THREE_QUARTER_INCH_THRUCUT
 10
25.43647448614276
 20
5.752619270542613
 30
0.0
  0
VERTEX
  5
4C3
  8
THREE_QUARTER_INCH_THRUCUT
 10
25.43647448614264
 20
5.15261901018825
 30
0.0
  0
VERTEX
  5
4C4
  8
THREE_QUARTER_INCH_THRUCUT
 10
26.12262671911425
 20
5.152619024818836
 30
0.0
 42
-1.0
  0
VERTEX
  5
4C5
  8
THREE_QUARTER_INCH_THRUCUT
 10
26.30647448614276
 20
4.968771261710021
 30
0.0
  0
VERTEX
  5
4C6
  8
THREE_QUARTER_INCH_THRUCUT
 10
26.30647448614265
 20
4.782617742048973
 30
0.0
 42
0.4142106424158553
  0
VERTEX
  5
4C7
  8
THREE_QUARTER_INCH_THRUCUT
 10
26.43647319192054
 20
4.652609812705254
 30
0.0
  0
VERTEX
  5
4C8
  8
THREE_QUARTER_INCH_THRUCUT
 10
48.55147578047033
 20
4.652609812705254
 30
0.0
 42
0.4142106424158553
  0
VERTEX
  5
4C9
  8
THREE_QUARTER_INCH_THRUCUT
 10
48.68147448614278
 20
4.782617742048973
 30
0.0
  0
VERTEX
  5
4CA
  8
THREE_QUARTER_INCH_THRUCUT
 10
48.68147448614267
 20
4.968771261710021
 30
0.0
 42
-1.0
  0
VERTEX
  5
4CB
  8
THREE_QUARTER_INCH_THRUCUT
 10
48.86532225317118
 20
5.152619024818836
 30
0.0
  0
VERTEX
  5
4CC
  8
THREE_QUARTER_INCH_THRUCUT
 10
49.55147448614279
 20
5.15261901018825
 30
0.0
  0
VERTEX
  5
4CD
  8
THREE_QUARTER_INCH_THRUCUT
 10
49.55147448614267
 20
5.752619270542613
 30
0.0
  0
VERTEX
  5
4CE
  8
THREE_QUARTER_INCH_THRUCUT
 10
48.86531707545343
 20
5.752619247887328
 30
0.0
 42
-1.0
  0
VERTEX
  5
4CF
  8
THREE_QUARTER_INCH_THRUCUT
 10
48.68146930628885
 20
5.936469299365303
 30
0.0
  0
VERTEX
  5
4D0
  8
THREE_QUARTER_INCH_THRUCUT
 10
48.68147095309408
 20
6.068773747820746
 30
0.0
 42
-1.0
  0
VERTEX
  5
4D1
  8
THREE_QUARTER_INCH_THRUCUT
 10
48.86531871619108
 20
6.252619222559719
 30
0.0
  0
VERTEX
  5
4D2
  8
THREE_QUARTER_INCH_THRUCUT
 10
49.55147448614267
 20
6.252619222549715
 30
0.0
  0
VERTEX
  5
4D3
  8
THREE_QUARTER_INCH_THRUCUT
 10
49.55147448614267
 20
6.739796126912228
 30
0.0
  0
VERTEX
  5
4D4
  8
THREE_QUARTER_INCH_THRUCUT
 10
49.81147448614278
 20
6.739796126912228
 30
0.0
  0
VERTEX
  5
4D5
  8
THREE_QUARTER_INCH_THRUCUT
 10
49.81147448614278
 20
6.252619222549715
 30
0.0
  0
VERTEX
  5
4D6
  8
THREE_QUARTER_INCH_THRUCUT
 10
50.49763025609438
 20
6.252619222559719
 30
0.0
 42
-1.0
  0
VERTEX
  5
4D7
  8
THREE_QUARTER_INCH_THRUCUT
 10
50.68147801919137
 20
6.068773747820746
 30
0.0
  0
VERTEX
  5
4D8
  8
THREE_QUARTER_INCH_THRUCUT
 10
50.6814796659966
 20
5.936469299365303
 30
0.0
 42
-1.0
  0
VERTEX
  5
4D9
  8
THREE_QUARTER_INCH_THRUCUT
 10
50.49763189683203
 20
5.752619247887328
 30
0.0
  0
VERTEX
  5
4DA
  8
THREE_QUARTER_INCH_THRUCUT
 10
49.81147448614278
 20
5.752619270542613
 30
0.0
  0
VERTEX
  5
4DB
  8
THREE_QUARTER_INCH_THRUCUT
 10
49.81147448614266
 20
5.15261901018825
 30
0.0
  0
VERTEX
  5
4DC
  8
THREE_QUARTER_INCH_THRUCUT
 10
50.49762671911427
 20
5.152619024818836
 30
0.0
 42
-1.0
  0
VERTEX
  5
4DD
  8
THREE_QUARTER_INCH_THRUCUT
 10
50.68147448614238
 20
4.968771261710021
 30
0.0
  0
VERTEX
  5
4DE
  8
THREE_QUARTER_INCH_THRUCUT
 10
50.68147448614187
 20
4.793246072471579
 30
0.0
 42
0.4142106424158553
  0
VERTEX
  5
4DF
  8
THREE_QUARTER_INCH_THRUCUT
 10
50.81147319191977
 20
4.663246072478973
 30
0.0
  0
VERTEX
  5
4E0
  8
THREE_QUARTER_INCH_THRUCUT
 10
51.04800437406857
 20
4.668113412434352
 30
0.0
  0
VERTEX
  5
4E1
  8
THREE_QUARTER_INCH_THRUCUT
 10
51.28431088738182
 20
4.673892809932948
 30
0.0
  0
VERTEX
  5
4E2
  8
THREE_QUARTER_INCH_THRUCUT
 10
51.52039104530016
 20
4.680582577003196
 30
0.0
  0
VERTEX
  5
4E3
  8
THREE_QUARTER_INCH_THRUCUT
 10
51.75624316126419
 20
4.688181025673531
 30
0.0
  0
VERTEX
  5
4E4
  8
THREE_QUARTER_INCH_THRUCUT
 10
51.99186554871454
 20
4.696686467972389
 30
0.0
  0
VERTEX
  5
4E5
  8
THREE_QUARTER_INCH_THRUCUT
 10
52.22725652109182
 20
4.706097215928207
 30
0.0
  0
VERTEX
  5
4E6
  8
THREE_QUARTER_INCH_THRUCUT
 10
52.46241439183667
 20
4.716411581569417
 30
0.0
  0
VERTEX
  5
4E7
  8
THREE_QUARTER_INCH_THRUCUT
 10
52.6973374743897
 20
4.72762787692446
 30
0.0
  0
VERTEX
  5
4E8
  8
THREE_QUARTER_INCH_THRUCUT
 10
52.93202408219152
 20
4.739744414021767
 30
0.0
  0
VERTEX
  5
4E9
  8
THREE_QUARTER_INCH_THRUCUT
 10
53.16647252868276
 20
4.752759504889775
 30
0.0
  0
VERTEX
  5
4EA
  8
THREE_QUARTER_INCH_THRUCUT
 10
53.40068112730404
 20
4.76667146155692
 30
0.0
  0
VERTEX
  5
4EB
  8
THREE_QUARTER_INCH_THRUCUT
 10
53.63464819149599
 20
4.781478596051638
 30
0.0
  0
VERTEX
  5
4EC
  8
THREE_QUARTER_INCH_THRUCUT
 10
53.86837203469922
 20
4.797179220402365
 30
0.0
  0
VERTEX
  5
4ED
  8
THREE_QUARTER_INCH_THRUCUT
 10
54.10185097035433
 20
4.813771646637532
 30
0.0
  0
VERTEX
  5
4EE
  8
THREE_QUARTER_INCH_THRUCUT
 10
54.33508331190198
 20
4.83125418678558
 30
0.0
  0
VERTEX
  5
4EF
  8
THREE_QUARTER_INCH_THRUCUT
 10
54.56806737278276
 20
4.849625152874943
 30
0.0
  0
VERTEX
  5
4F0
  8
THREE_QUARTER_INCH_THRUCUT
 10
54.80080146643731
 20
4.868882856934055
 30
0.0
  0
VERTEX
  5
4F1
  8
THREE_QUARTER_INCH_THRUCUT
 10
55.03328390630623
 20
4.889025610991355
 30
0.0
  0
VERTEX
  5
4F2
  8
THREE_QUARTER_INCH_THRUCUT
 10
55.26551300583016
 20
4.910051727075274
 30
0.0
  0
VERTEX
  5
4F3
  8
THREE_QUARTER_INCH_THRUCUT
 10
55.4974870784497
 20
4.931959517214253
 30
0.0
  0
VERTEX
  5
4F4
  8
THREE_QUARTER_INCH_THRUCUT
 10
55.72920443760549
 20
4.954747293436722
 30
0.0
  0
VERTEX
  5
4F5
  8
THREE_QUARTER_INCH_THRUCUT
 10
55.96066339673813
 20
4.978413367771121
 30
0.0
  0
VERTEX
  5
4F6
  8
THREE_QUARTER_INCH_THRUCUT
 10
56.19186226928826
 20
5.002956052245883
 30
0.0
  0
VERTEX
  5
4F7
  8
THREE_QUARTER_INCH_THRUCUT
 10
56.42279936869649
 20
5.028373658889445
 30
0.0
  0
VERTEX
  5
4F8
  8
THREE_QUARTER_INCH_THRUCUT
 10
56.65347300840344
 20
5.054664499730242
 30
0.0
  0
VERTEX
  5
4F9
  8
THREE_QUARTER_INCH_THRUCUT
 10
56.88388150184973
 20
5.081826886796708
 30
0.0
  0
VERTEX
  5
4FA
  8
THREE_QUARTER_INCH_THRUCUT
 10
57.11402316247597
 20
5.109859132117283
 30
0.0
  0
VERTEX
  5
4FB
  8
THREE_QUARTER_INCH_THRUCUT
 10
57.34389630372281
 20
5.138759547720397
 30
0.0
  0
VERTEX
  5
4FC
  8
THREE_QUARTER_INCH_THRUCUT
 10
57.57349923903084
 20
5.168526445634489
 30
0.0
  0
VERTEX
  5
4FD
  8
THREE_QUARTER_INCH_THRUCUT
 10
57.8028302818407
 20
5.199158137887996
 30
0.0
  0
VERTEX
  5
4FE
  8
THREE_QUARTER_INCH_THRUCUT
 10
58.031887745593
 20
5.230652936509351
 30
0.0
  0
VERTEX
  5
4FF
  8
THREE_QUARTER_INCH_THRUCUT
 10
58.26066994372835
 20
5.263009153526989
 30
0.0
  0
VERTEX
  5
500
  8
THREE_QUARTER_INCH_THRUCUT
 10
58.48917518968739
 20
5.296225100969346
 30
0.0
  0
VERTEX
  5
501
  8
THREE_QUARTER_INCH_THRUCUT
 10
58.71740179691074
 20
5.330299090864862
 30
0.0
  0
VERTEX
  5
502
  8
THREE_QUARTER_INCH_THRUCUT
 10
58.945348078839
 20
5.365229435241966
 30
0.0
  0
VERTEX
  5
503
  8
THREE_QUARTER_INCH_THRUCUT
 10
59.17301234891281
 20
5.401014446129098
 30
0.0
  0
VERTEX
  5
504
  8
THREE_QUARTER_INCH_THRUCUT
 10
59.40039292057278
 20
5.437652435554693
 30
0.0
  0
VERTEX
  5
505
  8
THREE_QUARTER_INCH_THRUCUT
 10
59.62748810725953
 20
5.475141715547184
 30
0.0
  0
VERTEX
  5
506
  8
THREE_QUARTER_INCH_THRUCUT
 10
59.85429622241369
 20
5.513480598135009
 30
0.0
  0
VERTEX
  5
507
  8
THREE_QUARTER_INCH_THRUCUT
 10
60.08081557947586
 20
5.552667395346602
 30
0.0
  0
VERTEX
  5
508
  8
THREE_QUARTER_INCH_THRUCUT
 10
60.30704449188668
 20
5.5927004192104
 30
0.0
  0
VERTEX
  5
509
  8
THREE_QUARTER_INCH_THRUCUT
 10
60.53298127308676
 20
5.633577981754839
 30
0.0
  0
VERTEX
  5
50A
  8
THREE_QUARTER_INCH_THRUCUT
 10
60.75862423651672
 20
5.675298395008354
 30
0.0
  0
VERTEX
  5
50B
  8
THREE_QUARTER_INCH_THRUCUT
 10
60.9839716956172
 20
5.717859970999379
 30
0.0
  0
VERTEX
  5
50C
  8
THREE_QUARTER_INCH_THRUCUT
 10
61.20902196382879
 20
5.761261021756352
 30
0.0
  0
VERTEX
  5
50D
  8
THREE_QUARTER_INCH_THRUCUT
 10
61.43377335459213
 20
5.805499859307707
 30
0.0
  0
VERTEX
  5
50E
  8
THREE_QUARTER_INCH_THRUCUT
 10
61.65822418134783
 20
5.85057479568188
 30
0.0
  0
VERTEX
  5
50F
  8
THREE_QUARTER_INCH_THRUCUT
 10
61.88237275753652
 20
5.896484142907307
 30
0.0
  0
VERTEX
  5
510
  8
THREE_QUARTER_INCH_THRUCUT
 10
62.10621739659881
 20
5.943226213012423
 30
0.0
  0
VERTEX
  5
511
  8
THREE_QUARTER_INCH_THRUCUT
 10
62.32975641197532
 20
5.990799318025664
 30
0.0
  0
VERTEX
  5
512
  8
THREE_QUARTER_INCH_THRUCUT
 10
62.55298811710668
 20
6.039201769975466
 30
0.0
  0
VERTEX
  5
513
  8
THREE_QUARTER_INCH_THRUCUT
 10
62.7759108254335
 20
6.088431880890264
 30
0.0
  0
VERTEX
  5
514
  8
THREE_QUARTER_INCH_THRUCUT
 10
62.99852285039641
 20
6.138487962798495
 30
0.0
  0
VERTEX
  5
515
  8
THREE_QUARTER_INCH_THRUCUT
 10
63.22082250543601
 20
6.189368327728591
 30
0.0
  0
VERTEX
  5
516
  8
THREE_QUARTER_INCH_THRUCUT
 10
63.44280810399295
 20
6.241071287708991
 30
0.0
  0
VERTEX
  5
517
  8
THREE_QUARTER_INCH_THRUCUT
 10
63.66447795950782
 20
6.293595154768129
 30
0.0
  0
VERTEX
  5
518
  8
THREE_QUARTER_INCH_THRUCUT
 10
63.88583038542127
 20
6.346938240934442
 30
0.0
  0
VERTEX
  5
519
  8
THREE_QUARTER_INCH_THRUCUT
 10
64.1068636951739
 20
6.401098858236363
 30
0.0
  0
VERTEX
  5
51A
  8
THREE_QUARTER_INCH_THRUCUT
 10
64.32757620220634
 20
6.456075318702331
 30
0.0
  0
VERTEX
  5
51B
  8
THREE_QUARTER_INCH_THRUCUT
 10
64.54796621995919
 20
6.511865934360778
 30
0.0
  0
VERTEX
  5
51C
  8
THREE_QUARTER_INCH_THRUCUT
 10
64.7680320618731
 20
6.568469017240142
 30
0.0
  0
VERTEX
  5
51D
  8
THREE_QUARTER_INCH_THRUCUT
 10
64.98777204138867
 20
6.625882879368859
 30
0.0
  0
VERTEX
  5
51E
  8
THREE_QUARTER_INCH_THRUCUT
 10
65.20718447194652
 20
6.684105832775363
 30
0.0
  0
VERTEX
  5
51F
  8
THREE_QUARTER_INCH_THRUCUT
 10
65.42626766698729
 20
6.743136189488091
 30
0.0
  0
VERTEX
  5
520
  8
THREE_QUARTER_INCH_THRUCUT
 10
65.64501993995158
 20
6.802972261535477
 30
0.0
  0
VERTEX
  5
521
  8
THREE_QUARTER_INCH_THRUCUT
 10
65.86343960428002
 20
6.863612360945957
 30
0.0
  0
VERTEX
  5
522
  8
THREE_QUARTER_INCH_THRUCUT
 10
66.0815249734132
 20
6.925054799747969
 30
0.0
  0
VERTEX
  5
523
  8
THREE_QUARTER_INCH_THRUCUT
 10
66.2992743607918
 20
6.987297889969945
 30
0.0
  0
VERTEX
  5
524
  8
THREE_QUARTER_INCH_THRUCUT
 10
66.51668607985638
 20
7.050339943640322
 30
0.0
  0
VERTEX
  5
525
  8
THREE_QUARTER_INCH_THRUCUT
 10
66.7337584440476
 20
7.114179272787537
 30
0.0
  0
VERTEX
  5
526
  8
THREE_QUARTER_INCH_THRUCUT
 10
66.95048976680607
 20
7.178814189440022
 30
0.0
  0
VERTEX
  5
527
  8
THREE_QUARTER_INCH_THRUCUT
 10
67.1668783615724
 20
7.244243005626218
 30
0.0
  0
VERTEX
  5
528
  8
THREE_QUARTER_INCH_THRUCUT
 10
67.38292254178721
 20
7.310464033374556
 30
0.0
  0
VERTEX
  5
529
  8
THREE_QUARTER_INCH_THRUCUT
 10
67.59862062089113
 20
7.377475584713475
 30
0.0
  0
VERTEX
  5
52A
  8
THREE_QUARTER_INCH_THRUCUT
 10
67.81397091232478
 20
7.445275971671405
 30
0.0
  0
VERTEX
  5
52B
  8
THREE_QUARTER_INCH_THRUCUT
 10
68.02897172952879
 20
7.513863506276788
 30
0.0
  0
VERTEX
  5
52C
  8
THREE_QUARTER_INCH_THRUCUT
 10
68.24362138594375
 20
7.583236500558057
 30
0.0
  0
VERTEX
  5
52D
  8
THREE_QUARTER_INCH_THRUCUT
 10
68.45791819501031
 20
7.653393266543647
 30
0.0
  0
VERTEX
  5
52E
  8
THREE_QUARTER_INCH_THRUCUT
 10
68.67186047016907
 20
7.724332116261994
 30
0.0
  0
VERTEX
  5
52F
  8
THREE_QUARTER_INCH_THRUCUT
 10
68.88544652486064
 20
7.796051361741534
 30
0.0
  0
VERTEX
  5
530
  8
THREE_QUARTER_INCH_THRUCUT
 10
69.09867467252568
 20
7.868549315010703
 30
0.0
  0
VERTEX
  5
531
  8
THREE_QUARTER_INCH_THRUCUT
 10
69.31154322660478
 20
7.941824288097934
 30
0.0
  0
VERTEX
  5
532
  8
THREE_QUARTER_INCH_THRUCUT
 10
69.52405050053858
 20
8.015874593031665
 30
0.0
  0
VERTEX
  5
533
  8
THREE_QUARTER_INCH_THRUCUT
 10
69.73619480776767
 20
8.090698541840332
 30
0.0
  0
VERTEX
  5
534
  8
THREE_QUARTER_INCH_THRUCUT
 10
69.94797446173271
 20
8.16629444655237
 30
0.0
  0
VERTEX
  5
535
  8
THREE_QUARTER_INCH_THRUCUT
 10
70.15938777587428
 20
8.242660619196213
 30
0.0
  0
VERTEX
  5
536
  8
THREE_QUARTER_INCH_THRUCUT
 10
70.37043306363302
 20
8.3197953718003
 30
0.0
  0
VERTEX
  5
537
  8
THREE_QUARTER_INCH_THRUCUT
 10
70.58110863844956
 20
8.397697016393064
 30
0.0
  0
VERTEX
  5
538
  8
THREE_QUARTER_INCH_THRUCUT
 10
70.7914128137645
 20
8.476363865002941
 30
0.0
  0
VERTEX
  5
539
  8
THREE_QUARTER_INCH_THRUCUT
 10
71.00134390301847
 20
8.555794229658364
 30
0.0
  0
VERTEX
  5
53A
  8
THREE_QUARTER_INCH_THRUCUT
 10
71.21090021965209
 20
8.635986422387774
 30
0.0
  0
VERTEX
  5
53B
  8
THREE_QUARTER_INCH_THRUCUT
 10
71.42008007710598
 20
8.716938755219603
 30
0.0
  0
VERTEX
  5
53C
  8
THREE_QUARTER_INCH_THRUCUT
 10
71.62888178882075
 20
8.79864954018229
 30
0.0
  0
VERTEX
  5
53D
  8
THREE_QUARTER_INCH_THRUCUT
 10
71.83730366823704
 20
8.881117089304263
 30
0.0
  0
VERTEX
  5
53E
  8
THREE_QUARTER_INCH_THRUCUT
 10
72.04534402879545
 20
8.964339714613965
 30
0.0
  0
VERTEX
  5
53F
  8
THREE_QUARTER_INCH_THRUCUT
 10
72.25300118393662
 20
9.04831572813983
 30
0.0
  0
VERTEX
  5
540
  8
THREE_QUARTER_INCH_THRUCUT
 10
72.46027344710114
 20
9.133043441910292
 30
0.0
  0
VERTEX
  5
541
  8
THREE_QUARTER_INCH_THRUCUT
 10
72.66715913172968
 20
9.218521167953789
 30
0.0
  0
VERTEX
  5
542
  8
THREE_QUARTER_INCH_THRUCUT
 10
72.87365655126283
 20
9.304747218298754
 30
0.0
  0
VERTEX
  5
543
  8
THREE_QUARTER_INCH_THRUCUT
 10
73.07976401914118
 20
9.391719904973622
 30
0.0
  0
VERTEX
  5
544
  8
THREE_QUARTER_INCH_THRUCUT
 10
73.28547984880538
 20
9.47943754000683
 30
0.0
  0
VERTEX
  5
545
  8
THREE_QUARTER_INCH_THRUCUT
 10
73.49080235369607
 20
9.567898435426816
 30
0.0
  0
VERTEX
  5
546
  8
THREE_QUARTER_INCH_THRUCUT
 10
73.69572984725384
 20
9.657100903262013
 30
0.0
  0
VERTEX
  5
547
  8
THREE_QUARTER_INCH_THRUCUT
 10
73.90026064291933
 20
9.747043255540856
 30
0.0
  0
VERTEX
  5
548
  8
THREE_QUARTER_INCH_THRUCUT
 10
74.10439305413317
 20
9.83772380429178
 30
0.0
  0
VERTEX
  5
549
  8
THREE_QUARTER_INCH_THRUCUT
 10
74.30812539433592
 20
9.929140861543226
 30
0.0
  0
VERTEX
  5
54A
  8
THREE_QUARTER_INCH_THRUCUT
 10
74.51145597696825
 20
10.02129273932362
 30
0.0
  0
VERTEX
  5
54B
  8
THREE_QUARTER_INCH_THRUCUT
 10
74.71438311547078
 20
10.11417774966141
 30
0.0
  0
VERTEX
  5
54C
  8
THREE_QUARTER_INCH_THRUCUT
 10
74.91690512328411
 20
10.20779420458502
 30
0.0
  0
VERTEX
  5
54D
  8
THREE_QUARTER_INCH_THRUCUT
 10
75.11902031384888
 20
10.3021404161229
 30
0.0
  0
VERTEX
  5
54E
  8
THREE_QUARTER_INCH_THRUCUT
 10
75.3207270006057
 20
10.39721469630347
 30
0.0
  0
VERTEX
  5
54F
  8
THREE_QUARTER_INCH_THRUCUT
 10
75.52202349699519
 20
10.49301535715517
 30
0.0
  0
VERTEX
  5
550
  8
THREE_QUARTER_INCH_THRUCUT
 10
75.72290811645796
 20
10.58954071070644
 30
0.0
  0
VERTEX
  5
551
  8
THREE_QUARTER_INCH_THRUCUT
 10
75.92337917243466
 20
10.68678906898571
 30
0.0
  0
VERTEX
  5
552
  8
THREE_QUARTER_INCH_THRUCUT
 10
76.1234349783659
 20
10.78475874402142
 30
0.0
  0
VERTEX
  5
553
  8
THREE_QUARTER_INCH_THRUCUT
 10
76.32307384769227
 20
10.88344804784201
 30
0.0
  0
VERTEX
  5
554
  8
THREE_QUARTER_INCH_THRUCUT
 10
76.52229409385441
 20
10.9828552924759
 30
0.0
  0
VERTEX
  5
555
  8
THREE_QUARTER_INCH_THRUCUT
 10
76.72109403029296
 20
11.08297878995154
 30
0.0
  0
VERTEX
  5
556
  8
THREE_QUARTER_INCH_THRUCUT
 10
76.91947197044853
 20
11.18381685229736
 30
0.0
  0
VERTEX
  5
557
  8
THREE_QUARTER_INCH_THRUCUT
 10
77.11742622776171
 20
11.2853677915418
 30
0.0
  0
VERTEX
  5
558
  8
THREE_QUARTER_INCH_THRUCUT
 10
77.31495511567314
 20
11.38762991971329
 30
0.0
  0
VERTEX
  5
559
  8
THREE_QUARTER_INCH_THRUCUT
 10
77.51205694762346
 20
11.49060154884026
 30
0.0
  0
VERTEX
  5
55A
  8
THREE_QUARTER_INCH_THRUCUT
 10
77.70873003705327
 20
11.59428099095116
 30
0.0
  0
VERTEX
  5
55B
  8
THREE_QUARTER_INCH_THRUCUT
 10
77.90497269740318
 20
11.69866655807442
 30
0.0
  0
VERTEX
  5
55C
  8
THREE_QUARTER_INCH_THRUCUT
 10
78.10078324211383
 20
11.80375656223848
 30
0.0
  0
VERTEX
  5
55D
  8
THREE_QUARTER_INCH_THRUCUT
 10
78.29615998462583
 20
11.90954931547176
 30
0.0
  0
VERTEX
  5
55E
  8
THREE_QUARTER_INCH_THRUCUT
 10
78.4911012383798
 20
12.01604312980271
 30
0.0
  0
VERTEX
  5
55F
  8
THREE_QUARTER_INCH_THRUCUT
 10
78.68560531681639
 20
12.12323631725976
 30
0.0
 42
0.4142106424158553
  0
VERTEX
  5
560
  8
THREE_QUARTER_INCH_THRUCUT
 10
78.73251161141131
 20
12.30199137739114
 30
0.0
  0
VERTEX
  5
561
  8
THREE_QUARTER_INCH_THRUCUT
 10
78.63943485158067
 20
12.46320505442113
 30
0.0
 42
-1.0
  0
VERTEX
  5
562
  8
THREE_QUARTER_INCH_THRUCUT
 10
78.70672780670206
 20
12.71434577121649
 30
0.0
  0
VERTEX
  5
563
  8
THREE_QUARTER_INCH_THRUCUT
 10
79.30095307863415
 20
13.05742187503201
 30
0.0
  0
VERTEX
  5
564
  8
THREE_QUARTER_INCH_THRUCUT
 10
79.00095294845691
 20
13.57703734277597
 30
0.0
  0
VERTEX
  5
565
  8
THREE_QUARTER_INCH_THRUCUT
 10
78.4067232111327
 20
13.2339586178115
 30
0.0
 42
-1.0
  0
VERTEX
  5
566
  8
THREE_QUARTER_INCH_THRUCUT
 10
78.15558134686806
 20
13.30125354829615
 30
0.0
  0
VERTEX
  5
567
  8
THREE_QUARTER_INCH_THRUCUT
 10
78.08943054881551
 20
13.41583338509476
 30
0.0
 42
-1.0
  0
VERTEX
  5
568
  8
THREE_QUARTER_INCH_THRUCUT
 10
78.15672464471696
 20
13.66697211813802
 30
0.0
  0
VERTEX
  5
569
  8
THREE_QUARTER_INCH_THRUCUT
 10
78.7509529724533
 20
14.01005000310524
 30
0.0
  0
VERTEX
  5
56A
  8
THREE_QUARTER_INCH_THRUCUT
 10
78.50736452027216
 20
14.4319575784199
 30
0.0
  0
VERTEX
  5
56B
  8
THREE_QUARTER_INCH_THRUCUT
 10
78.73253112525622
 20
14.56195757842001
 30
0.0
  0
VERTEX
  5
56C
  8
THREE_QUARTER_INCH_THRUCUT
 10
78.97611957743736
 20
14.14005000310512
 30
0.0
  0
VERTEX
  5
56D
  8
THREE_QUARTER_INCH_THRUCUT
 10
79.5703479051637
 20
14.48312788808984
 30
0.0
 42
-1.0
  0
VERTEX
  5
56E
  8
THREE_QUARTER_INCH_THRUCUT
 10
79.82148747580418
 20
14.41583691814335
 30
0.0
  0
VERTEX
  5
56F
  8
THREE_QUARTER_INCH_THRUCUT
 10
79.88764112620701
 20
14.30125872814996
 30
0.0
 42
-1.0
  0
VERTEX
  5
570
  8
THREE_QUARTER_INCH_THRUCUT
 10
79.82034931342041
 20
14.05011602850086
 30
0.0
  0
VERTEX
  5
571
  8
THREE_QUARTER_INCH_THRUCUT
 10
79.22611955344091
 20
13.70703734277608
 30
0.0
  0
VERTEX
  5
572
  8
THREE_QUARTER_INCH_THRUCUT
 10
79.52611968361798
 20
13.18742187503189
 30
0.0
  0
VERTEX
  5
573
  8
THREE_QUARTER_INCH_THRUCUT
 10
80.12034494091954
 20
13.53049800418821
 30
0.0
 42
-1.0
  0
VERTEX
  5
574
  8
THREE_QUARTER_INCH_THRUCUT
 10
80.37148565914968
 20
13.46320505442113
 30
0.0
  0
VERTEX
  5
575
  8
THREE_QUARTER_INCH_THRUCUT
 10
80.46456241898004
 20
13.30199137739091
 30
0.0
 42
0.4142106424158553
  0
VERTEX
  5
576
  8
THREE_QUARTER_INCH_THRUCUT
 10
80.64214460063913
 20
13.25440742779405
 30
0.0
  0
VERTEX
  5
577
  8
THREE_QUARTER_INCH_THRUCUT
 10
80.79870850634651
 20
13.34930342803078
 30
0.0
  0
VERTEX
  5
578
  8
THREE_QUARTER_INCH_THRUCUT
 10
80.95495693375528
 20
13.44472134307748
 30
0.0
  0
VERTEX
  5
579
  8
THREE_QUARTER_INCH_THRUCUT
 10
81.11088905131487
 20
13.54065628991068
 30
0.0
  0
VERTEX
  5
57A
  8
THREE_QUARTER_INCH_THRUCUT
 10
81.26650402747471
 20
13.63710338550693
 30
0.0
  0
VERTEX
  5
57B
  8
THREE_QUARTER_INCH_THRUCUT
 10
81.42180103068424
 20
13.73405774684276
 30
0.0
  0
VERTEX
  5
57C
  8
THREE_QUARTER_INCH_THRUCUT
 10
81.57677922939286
 20
13.83151449089472
 30
0.0
  0
VERTEX
  5
57D
  8
THREE_QUARTER_INCH_THRUCUT
 10
81.73143779205003
 20
13.92946873463933
 30
0.0
  0
VERTEX
  5
57E
  8
THREE_QUARTER_INCH_THRUCUT
 10
81.88577588710515
 20
14.02791559505315
 30
0.0
  0
VERTEX
  5
57F
  8
THREE_QUARTER_INCH_THRUCUT
 10
82.0397926830077
 20
14.12685018911271
 30
0.0
  0
VERTEX
  5
580
  8
THREE_QUARTER_INCH_THRUCUT
 10
82.19348734820704
 20
14.22626763379456
 30
0.0
  0
VERTEX
  5
581
  8
THREE_QUARTER_INCH_THRUCUT
 10
82.34685905115266
 20
14.32616304607522
 30
0.0
  0
VERTEX
  5
582
  8
THREE_QUARTER_INCH_THRUCUT
 10
82.49990696029397
 20
14.42653154293125
 30
0.0
  0
VERTEX
  5
583
  8
THREE_QUARTER_INCH_THRUCUT
 10
82.65263024408037
 20
14.52736824133917
 30
0.0
  0
VERTEX
  5
584
  8
THREE_QUARTER_INCH_THRUCUT
 10
82.80502807096134
 20
14.62866825827554
 30
0.0
  0
VERTEX
  5
585
  8
THREE_QUARTER_INCH_THRUCUT
 10
82.95709960938626
 20
14.73042671071688
 30
0.0
  0
VERTEX
  5
586
  8
THREE_QUARTER_INCH_THRUCUT
 10
83.1088440278046
 20
14.83263871563974
 30
0.0
  0
VERTEX
  5
587
  8
THREE_QUARTER_INCH_THRUCUT
 10
83.26026049466576
 20
14.93529939002066
 30
0.0
  0
VERTEX
  5
588
  8
THREE_QUARTER_INCH_THRUCUT
 10
83.41134817841919
 20
15.03840385083617
 30
0.0
  0
VERTEX
  5
589
  8
THREE_QUARTER_INCH_THRUCUT
 10
83.56210624751431
 20
15.14194721506282
 30
0.0
  0
VERTEX
  5
58A
  8
THREE_QUARTER_INCH_THRUCUT
 10
83.71253387040053
 20
15.24592459967715
 30
0.0
  0
VERTEX
  5
58B
  8
THREE_QUARTER_INCH_THRUCUT
 10
83.8626302155273
 20
15.3503311216557
 30
0.0
  0
VERTEX
  5
58C
  8
THREE_QUARTER_INCH_THRUCUT
 10
84.01239445134408
 20
15.455161897975
 30
0.0
  0
VERTEX
  5
58D
  8
THREE_QUARTER_INCH_THRUCUT
 10
84.16182574630025
 20
15.56041204561159
 30
0.0
  0
VERTEX
  5
58E
  8
THREE_QUARTER_INCH_THRUCUT
 10
84.31092326884527
 20
15.66607668154202
 30
0.0
  0
VERTEX
  5
58F
  8
THREE_QUARTER_INCH_THRUCUT
 10
84.45968618742856
 20
15.77215092274282
 30
0.0
  0
VERTEX
  5
590
  8
THREE_QUARTER_INCH_THRUCUT
 10
84.60811367049953
 20
15.87862988619053
 30
0.0
  0
VERTEX
  5
591
  8
THREE_QUARTER_INCH_THRUCUT
 10
84.75620488650765
 20
15.9855086888617
 30
0.0
  0
VERTEX
  5
592
  8
THREE_QUARTER_INCH_THRUCUT
 10
84.90395900390232
 20
16.09278244773285
 30
0.0
  0
VERTEX
  5
593
  8
THREE_QUARTER_INCH_THRUCUT
 10
85.05137519113295
 20
16.20044627978054
 30
0.0
  0
VERTEX
  5
594
  8
THREE_QUARTER_INCH_THRUCUT
 10
85.198452616649
 20
16.3084953019813
 30
0.0
  0
VERTEX
  5
595
  8
THREE_QUARTER_INCH_THRUCUT
 10
85.34519044889991
 20
16.41692463131167
 30
0.0
  0
VERTEX
  5
596
  8
THREE_QUARTER_INCH_THRUCUT
 10
85.4915878563351
 20
16.52572938474819
 30
0.0
  0
VERTEX
  5
597
  8
THREE_QUARTER_INCH_THRUCUT
 10
85.61829947344671
 20
16.62043382110128
 30
0.0
  0
VERTEX
  5
598
  8
THREE_QUARTER_INCH_THRUCUT
 10
85.74475413785754
 20
16.71546515962382
 30
0.0
  0
VERTEX
  5
599
  8
THREE_QUARTER_INCH_THRUCUT
 10
85.8709496924057
 20
16.81082178045952
 30
0.0
  0
VERTEX
  5
59A
  8
THREE_QUARTER_INCH_THRUCUT
 10
85.99688397992928
 20
16.90650206375213
 30
0.0
  0
VERTEX
  5
59B
  8
THREE_QUARTER_INCH_THRUCUT
 10
85.9968689398045
 20
47.40261036491769
 30
0.0
  0
SEQEND
  5
636
  8
THREE_QUARTER_INCH_THRUCUT
  0
POLYLINE
  5
D3
  8
THREE_QUARTER_INCH_THRUCUT
 66
     1
 10
0.0
 20
0.0
 30
0.0
 70
     1
  0
VERTEX
  5
59C
  8
THREE_QUARTER_INCH_THRUCUT
 10
85.40586472719994
 20
46.65261036498511
 30
0.0
 42
-0.4142135623730951
  0
VERTEX
  5
59D
  8
THREE_QUARTER_INCH_THRUCUT
 10
85.27586472719995
 20
46.52261036498523
 30
0.0
 42
-0.4142135623730951
  0
VERTEX
  5
59E
  8
THREE_QUARTER_INCH_THRUCUT
 10
85.14586472719995
 20
46.65261036498511
 30
0.0
 42
-0.4142135623730951
  0
VERTEX
  5
59F
  8
THREE_QUARTER_INCH_THRUCUT
 10
85.27586472719995
 20
46.78261036498499
 30
0.0
 42
-0.4142135623730951
  0
SEQEND
  5
637
  8
THREE_QUARTER_INCH_THRUCUT
  0
POLYLINE
  5
D4
  8
THREE_QUARTER_INCH_THRUCUT
 66
     1
 10
0.0
 20
0.0
 30
0.0
 70
     1
  0
VERTEX
  5
5A0
  8
THREE_QUARTER_INCH_THRUCUT
 10
85.40586472719994
 20
39.45261036498507
 30
0.0
 42
-0.4142135623730951
  0
VERTEX
  5
5A1
  8
THREE_QUARTER_INCH_THRUCUT
 10
85.27586472719995
 20
39.32261036498496
 30
0.0
 42
-0.4142135623730951
  0
VERTEX
  5
5A2
  8
THREE_QUARTER_INCH_THRUCUT
 10
85.14586472719995
 20
39.45261036498507
 30
0.0
 42
-0.4142135623730951
  0
VERTEX
  5
5A3
  8
THREE_QUARTER_INCH_THRUCUT
 10
85.27586472719995
 20
39.58261036498518
 30
0.0
 42
-0.4142135623730951
  0
SEQEND
  5
638
  8
THREE_QUARTER_INCH_THRUCUT
  0
POLYLINE
  5
D5
  8
THREE_QUARTER_INCH_THRUCUT
 66
     1
 10
0.0
 20
0.0
 30
0.0
 70
     1
  0
VERTEX
  5
5A4
  8
THREE_QUARTER_INCH_THRUCUT
 10
85.40586472719995
 20
25.05261036498499
 30
0.0
 42
-0.4142135623730951
  0
VERTEX
  5
5A5
  8
THREE_QUARTER_INCH_THRUCUT
 10
85.27586472719996
 20
24.9226103649851
 30
0.0
 42
-0.4142135623730951
  0
VERTEX
  5
5A6
  8
THREE_QUARTER_INCH_THRUCUT
 10
85.14586472719996
 20
25.05261036498499
 30
0.0
 42
-0.4142135623730951
  0
VERTEX
  5
5A7
  8
THREE_QUARTER_INCH_THRUCUT
 10
85.27586472719996
 20
25.18261036498509
 30
0.0
 42
-0.4142135623730951
  0
SEQEND
  5
639
  8
THREE_QUARTER_INCH_THRUCUT
  0
POLYLINE
  5
D6
  8
THREE_QUARTER_INCH_THRUCUT
 66
     1
 10
0.0
 20
0.0
 30
0.0
 70
     1
  0
VERTEX
  5
5A8
  8
THREE_QUARTER_INCH_THRUCUT
 10
85.40586472719995
 20
17.85261036498517
 30
0.0
 42
-0.4142135623730951
  0
VERTEX
  5
5A9
  8
THREE_QUARTER_INCH_THRUCUT
 10
85.27586472719996
 20
17.72261036498506
 30
0.0
 42
-0.4142135623730951
  0
VERTEX
  5
5AA
  8
THREE_QUARTER_INCH_THRUCUT
 10
85.14586472719996
 20
17.85261036498517
 30
0.0
 42
-0.4142135623730951
  0
VERTEX
  5
5AB
  8
THREE_QUARTER_INCH_THRUCUT
 10
85.27586472719996
 20
17.98261036498528
 30
0.0
 42
-0.4142135623730951
  0
SEQEND
  5
63A
  8
THREE_QUARTER_INCH_THRUCUT
  0
POLYLINE
  5
D7
  8
THREE_QUARTER_INCH_THRUCUT
 66
     1
 10
0.0
 20
0.0
 30
0.0
 70
     1
  0
VERTEX
  5
5AC
  8
THREE_QUARTER_INCH_THRUCUT
 10
85.40585958680911
 20
32.25261024341412
 30
0.0
 42
-0.4142135623730951
  0
VERTEX
  5
5AD
  8
THREE_QUARTER_INCH_THRUCUT
 10
85.27585958680912
 20
32.12261024341424
 30
0.0
 42
-0.4142135623730951
  0
VERTEX
  5
5AE
  8
THREE_QUARTER_INCH_THRUCUT
 10
85.14585958680912
 20
32.25261024341412
 30
0.0
 42
-0.4142135623730951
  0
VERTEX
  5
5AF
  8
THREE_QUARTER_INCH_THRUCUT
 10
85.27585958680912
 20
32.38261024341423
 30
0.0
 42
-0.4142135623730951
  0
SEQEND
  5
63B
  8
THREE_QUARTER_INCH_THRUCUT
  0
POLYLINE
  5
D8
  8
THREE_QUARTER_INCH_THRUCUT
 66
     1
 10
0.0
 20
0.0
 30
0.0
 70
     1
  0
VERTEX
  5
5B0
  8
THREE_QUARTER_INCH_THRUCUT
 10
85.40586472719994
 20
45.15261036498511
 30
0.0
 42
-0.4142135623730951
  0
VERTEX
  5
5B1
  8
THREE_QUARTER_INCH_THRUCUT
 10
85.27586472719995
 20
45.02261036498523
 30
0.0
 42
-0.4142135623730951
  0
VERTEX
  5
5B2
  8
THREE_QUARTER_INCH_THRUCUT
 10
85.14586472719995
 20
45.15261036498511
 30
0.0
 42
-0.4142135623730951
  0
VERTEX
  5
5B3
  8
THREE_QUARTER_INCH_THRUCUT
 10
85.27586472719995
 20
45.28261036498499
 30
0.0
 42
-0.4142135623730951
  0
SEQEND
  5
63C
  8
THREE_QUARTER_INCH_THRUCUT
  0
POLYLINE
  5
D9
  8
THREE_QUARTER_INCH_THRUCUT
 66
     1
 10
0.0
 20
0.0
 30
0.0
 70
     1
  0
VERTEX
  5
5B4
  8
THREE_QUARTER_INCH_THRUCUT
 10
69.149673019715
 20
46.65260401602133
 30
0.0
 42
-0.4142135623730951
  0
VERTEX
  5
5B5
  8
THREE_QUARTER_INCH_THRUCUT
 10
69.019673019715
 20
46.52260401602145
 30
0.0
 42
-0.4142135623730951
  0
VERTEX
  5
5B6
  8
THREE_QUARTER_INCH_THRUCUT
 10
68.889673019715
 20
46.65260401602133
 30
0.0
 42
-0.4142135623730951
  0
VERTEX
  5
5B7
  8
THREE_QUARTER_INCH_THRUCUT
 10
69.019673019715
 20
46.78260401602121
 30
0.0
 42
-0.4142135623730951
  0
SEQEND
  5
63D
  8
THREE_QUARTER_INCH_THRUCUT
  0
POLYLINE
  5
DA
  8
THREE_QUARTER_INCH_THRUCUT
 66
     1
 10
0.0
 20
0.0
 30
0.0
 70
     1
  0
VERTEX
  5
5B8
  8
THREE_QUARTER_INCH_THRUCUT
 10
77.04967301971503
 20
46.65260401602133
 30
0.0
 42
-0.4142135623730951
  0
VERTEX
  5
5B9
  8
THREE_QUARTER_INCH_THRUCUT
 10
76.91967301971503
 20
46.52260401602145
 30
0.0
 42
-0.4142135623730951
  0
VERTEX
  5
5BA
  8
THREE_QUARTER_INCH_THRUCUT
 10
76.78967301971504
 20
46.65260401602133
 30
0.0
 42
-0.4142135623730951
  0
VERTEX
  5
5BB
  8
THREE_QUARTER_INCH_THRUCUT
 10
76.91967301971503
 20
46.78260401602121
 30
0.0
 42
-0.4142135623730951
  0
SEQEND
  5
63E
  8
THREE_QUARTER_INCH_THRUCUT
  0
POLYLINE
  5
DB
  8
THREE_QUARTER_INCH_THRUCUT
 66
     1
 10
0.0
 20
0.0
 30
0.0
 70
     1
  0
VERTEX
  5
5BC
  8
THREE_QUARTER_INCH_THRUCUT
 10
69.14967947621254
 20
46.65260972991145
 30
0.0
 42
-0.4142135623730951
  0
VERTEX
  5
5BD
  8
THREE_QUARTER_INCH_THRUCUT
 10
69.01967947621254
 20
46.52260972991157
 30
0.0
 42
-0.4142135623730951
  0
VERTEX
  5
5BE
  8
THREE_QUARTER_INCH_THRUCUT
 10
68.88967947621255
 20
46.65260972991145
 30
0.0
 42
-0.4142135623730951
  0
VERTEX
  5
5BF
  8
THREE_QUARTER_INCH_THRUCUT
 10
69.01967947621254
 20
46.78260972991133
 30
0.0
 42
-0.4142135623730951
  0
SEQEND
  5
63F
  8
THREE_QUARTER_INCH_THRUCUT
  0
POLYLINE
  5
DC
  8
THREE_QUARTER_INCH_THRUCUT
 66
     1
 10
0.0
 20
0.0
 30
0.0
 70
     1
  0
VERTEX
  5
5C0
  8
THREE_QUARTER_INCH_THRUCUT
 10
77.04967947621257
 20
46.65260972991145
 30
0.0
 42
-0.4142135623730951
  0
VERTEX
  5
5C1
  8
THREE_QUARTER_INCH_THRUCUT
 10
76.91967947621258
 20
46.52260972991157
 30
0.0
 42
-0.4142135623730951
  0
VERTEX
  5
5C2
  8
THREE_QUARTER_INCH_THRUCUT
 10
76.78967947621258
 20
46.65260972991145
 30
0.0
 42
-0.4142135623730951
  0
VERTEX
  5
5C3
  8
THREE_QUARTER_INCH_THRUCUT
 10
76.91967947621258
 20
46.78260972991133
 30
0.0
 42
-0.4142135623730951
  0
SEQEND
  5
640
  8
THREE_QUARTER_INCH_THRUCUT
  0
POLYLINE
  5
DE
  8
SCREW_LOCATION_RECESS
 66
     1
 10
0.0
 20
0.0
 30
0.0
 70
     1
  0
VERTEX
  5
5C4
  8
SCREW_LOCATION_RECESS
 10
12.0568
 20
34.7936
 30
0.0
 42
0.4142135623730951
  0
VERTEX
  5
5C5
  8
SCREW_LOCATION_RECESS
 10
11.9268
 20
34.6636
 30
0.0
 42
0.4142135623730951
  0
VERTEX
  5
5C6
  8
SCREW_LOCATION_RECESS
 10
12.0568
 20
34.5336
 30
0.0
 42
0.4142135623730951
  0
VERTEX
  5
5C7
  8
SCREW_LOCATION_RECESS
 10
12.1868
 20
34.6636
 30
0.0
 42
0.4142135623730951
  0
SEQEND
  5
641
  8
SCREW_LOCATION_RECESS
  0
POLYLINE
  5
DF
  8
SCREW_LOCATION_RECESS
 66
     1
 10
0.0
 20
0.0
 30
0.0
 70
     1
  0
VERTEX
  5
5C8
  8
SCREW_LOCATION_RECESS
 10
12.0568
 20
22.7936
 30
0.0
 42
0.4142135623730951
  0
VERTEX
  5
5C9
  8
SCREW_LOCATION_RECESS
 10
11.9268
 20
22.6636
 30
0.0
 42
0.4142135623730951
  0
VERTEX
  5
5CA
  8
SCREW_LOCATION_RECESS
 10
12.0568
 20
22.5336
 30
0.0
 42
0.4142135623730951
  0
VERTEX
  5
5CB
  8
SCREW_LOCATION_RECESS
 10
12.1868
 20
22.6636
 30
0.0
 42
0.4142135623730951
  0
SEQEND
  5
642
  8
SCREW_LOCATION_RECESS
  0
POLYLINE
  5
E1
  8
SCREW_LOCATION_MARKERS
 66
     1
 10
0.0
 20
0.0
 30
0.0
 70
     1
  0
VERTEX
  5
5CC
  8
SCREW_LOCATION_MARKERS
 10
37.30675876105582
 20
9.782582414269498
 30
0.0
 42
-0.4142135623730951
  0
VERTEX
  5
5CD
  8
SCREW_LOCATION_MARKERS
 10
37.43675876105582
 20
9.6525824142695
 30
0.0
 42
-0.4142135623730951
  0
VERTEX
  5
5CE
  8
SCREW_LOCATION_MARKERS
 10
37.30675876105582
 20
9.5225824142695
 30
0.0
 42
-0.4142135623730951
  0
VERTEX
  5
5CF
  8
SCREW_LOCATION_MARKERS
 10
37.17675876105583
 20
9.6525824142695
 30
0.0
 42
-0.4142135623730951
  0
SEQEND
  5
643
  8
SCREW_LOCATION_MARKERS
  0
POLYLINE
  5
E2
  8
SCREW_LOCATION_MARKERS
 66
     1
 10
0.0
 20
0.0
 30
0.0
 70
     1
  0
VERTEX
  5
5D0
  8
SCREW_LOCATION_MARKERS
 10
22.5567587610553
 20
9.78259320680663
 30
0.0
 42
-0.4142135623730951
  0
VERTEX
  5
5D1
  8
SCREW_LOCATION_MARKERS
 10
22.68675876105529
 20
9.652593206806632
 30
0.0
 42
-0.4142135623730951
  0
VERTEX
  5
5D2
  8
SCREW_LOCATION_MARKERS
 10
22.5567587610553
 20
9.522593206806633
 30
0.0
 42
-0.4142135623730951
  0
VERTEX
  5
5D3
  8
SCREW_LOCATION_MARKERS
 10
22.4267587610553
 20
9.652593206806632
 30
0.0
 42
-0.4142135623730951
  0
SEQEND
  5
644
  8
SCREW_LOCATION_MARKERS
  0
ENDSEC
  0
EOF
