  0
SECTION
  2
HEADER
  9
$ACADVER
  1
AC1009
  9
$DWGCODEPAGE
  3
ansi_1252
  9
$INSBASE
 10
0.0
 20
0.0
 30
0.0
  9
$EXTMIN
 10
5.987880148019071
 20
0.9611357384095669
 30
0.0
  9
$EXTMAX
 10
94.20015080289605
 20
47.0388642691796
 30
0.0
  9
$LIMMIN
 10
0.0
 20
0.0
  9
$LIMMAX
 10
12.0
 20
9.0
  9
$ORTHOMODE
 70
     0
  9
$REGENMODE
 70
     1
  9
$FILLMODE
 70
     1
  9
$QTEXTMODE
 70
     0
  9
$MIRRTEXT
 70
     1
  9
$DRAGMODE
 70
     2
  9
$LTSCALE
 40
1.0
  9
$OSMODE
 70
    37
  9
$ATTMODE
 70
     1
  9
$TEXTSIZE
 40
0.2
  9
$TRACEWID
 40
0.05
  9
$TEXTSTYLE
  7
STANDARD
  9
$CLAYER
  8
0
  9
$CELTYPE
  6
BYLAYER
  9
$CECOLOR
 62
   256
  9
$DIMSCALE
 40
1.0
  9
$DIMASZ
 40
0.18
  9
$DIMEXO
 40
0.0625
  9
$DIMDLI
 40
0.38
  9
$DIMRND
 40
0.0
  9
$DIMDLE
 40
0.0
  9
$DIMEXE
 40
0.18
  9
$DIMTP
 40
0.0
  9
$DIMTM
 40
0.0
  9
$DIMTXT
 40
0.18
  9
$DIMCEN
 40
0.09
  9
$DIMTSZ
 40
0.0
  9
$DIMTOL
 70
     0
  9
$DIMLIM
 70
     0
  9
$DIMTIH
 70
     1
  9
$DIMTOH
 70
     1
  9
$DIMSE1
 70
     0
  9
$DIMSE2
 70
     0
  9
$DIMTAD
 70
     0
  9
$DIMZIN
 70
     0
  9
$DIMBLK
  1

  9
$DIMASO
 70
     1
  9
$DIMSHO
 70
     1
  9
$DIMPOST
  1

  9
$DIMAPOST
  1

  9
$DIMALT
 70
     0
  9
$DIMALTD
 70
     2
  9
$DIMALTF
 40
25.4
  9
$DIMLFAC
 40
1.0
  9
$DIMTOFL
 70
     0
  9
$DIMTVP
 40
0.0
  9
$DIMTIX
 70
     0
  9
$DIMSOXD
 70
     0
  9
$DIMSAH
 70
     0
  9
$DIMBLK1
  1

  9
$DIMBLK2
  1

  9
$DIMSTYLE
  2
STANDARD
  9
$DIMCLRD
 70
     0
  9
$DIMCLRE
 70
     0
  9
$DIMCLRT
 70
     0
  9
$DIMTFAC
 40
1.0
  9
$DIMGAP
 40
0.09
  9
$LUNITS
 70
     2
  9
$LUPREC
 70
     4
  9
$SKETCHINC
 40
0.1
  9
$FILLETRAD
 40
0.5
  9
$AUNITS
 70
     0
  9
$AUPREC
 70
     0
  9
$MENU
  1
.
  9
$ELEVATION
 40
0.0
  9
$PELEVATION
 40
0.0
  9
$THICKNESS
 40
0.0
  9
$LIMCHECK
 70
     0
  9
$CHAMFERA
 40
0.0
  9
$CHAMFERB
 40
0.0
  9
$SKPOLY
 70
     0
  9
$TDCREATE
 40
2454910.5
  9
$TDUPDATE
 40
2457884.611305787
  9
$TDINDWG
 40
0.0000000116
  9
$TDUSRTIMER
 40
0.0000000116
  9
$USRTIMER
 70
     1
  9
$ANGBASE
 50
0.0
  9
$ANGDIR
 70
     0
  9
$PDMODE
 70
     0
  9
$PDSIZE
 40
0.0
  9
$PLINEWID
 40
0.0
  9
$COORDS
 70
     1
  9
$SPLFRAME
 70
     0
  9
$SPLINETYPE
 70
     6
  9
$SPLINESEGS
 70
     8
  9
$ATTDIA
 70
     0
  9
$ATTREQ
 70
     1
  9
$HANDLING
 70
     1
  9
$HANDSEED
  5
321
  9
$SURFTAB1
 70
     6
  9
$SURFTAB2
 70
     6
  9
$SURFTYPE
 70
     6
  9
$SURFU
 70
     6
  9
$SURFV
 70
     6
  9
$UCSNAME
  2

  9
$UCSORG
 10
0.0
 20
0.0
 30
0.0
  9
$UCSXDIR
 10
1.0
 20
0.0
 30
0.0
  9
$UCSYDIR
 10
0.0
 20
1.0
 30
0.0
  9
$PUCSNAME
  2

  9
$PUCSORG
 10
0.0
 20
0.0
 30
0.0
  9
$PUCSXDIR
 10
1.0
 20
0.0
 30
0.0
  9
$PUCSYDIR
 10
0.0
 20
1.0
 30
0.0
  9
$USERI1
 70
     0
  9
$USERI2
 70
     0
  9
$USERI3
 70
     0
  9
$USERI4
 70
     0
  9
$USERI5
 70
     0
  9
$USERR1
 40
0.0
  9
$USERR2
 40
0.0
  9
$USERR3
 40
0.0
  9
$USERR4
 40
0.0
  9
$USERR5
 40
0.0
  9
$WORLDVIEW
 70
     1
  9
$SHADEDGE
 70
     3
  9
$SHADEDIF
 70
    70
  9
$TILEMODE
 70
     1
  9
$MAXACTVP
 70
    64
  9
$PLIMCHECK
 70
     0
  9
$PEXTMIN
 10
1.000000000000000E+20
 20
1.000000000000000E+20
 30
1.000000000000000E+20
  9
$PEXTMAX
 10
-1.000000000000000E+20
 20
-1.000000000000000E+20
 30
-1.000000000000000E+20
  9
$PLIMMIN
 10
0.0
 20
0.0
  9
$PLIMMAX
 10
12.0
 20
9.0
  9
$UNITMODE
 70
     0
  9
$VISRETAIN
 70
     1
  9
$PLINEGEN
 70
     0
  9
$PSLTSCALE
 70
     1
  0
ENDSEC
  0
SECTION
  2
TABLES
  0
TABLE
  2
VPORT
 70
     1
  0
VPORT
  2
*ACTIVE
 70
     0
 10
0.0
 20
0.0
 11
1.0
 21
1.0
 12
10.42990654205607
 22
4.5
 13
0.0
 23
0.0
 14
0.5
 24
0.5
 15
0.5
 25
0.5
 16
0.0
 26
0.0
 36
1.0
 17
0.0
 27
0.0
 37
0.0
 40
9.0
 41
1.972972972850329
 42
50.0
 43
0.0
 44
0.0
 50
0.0
 51
0.0
 71
     0
 72
   100
 73
     1
 74
     3
 75
     0
 76
     0
 77
     0
 78
     0
  0
ENDTAB
  0
TABLE
  2
LTYPE
 70
     2
  0
LTYPE
  2
CONTINUOUS
 70
     0
  3
Solid line
 72
    65
 73
     0
 40
0.0
  0
LTYPE
  2
CONTINUOUS2
 70
     0
  3
Solid Line
 72
    65
 73
     0
 40
0.0
  0
ENDTAB
  0
TABLE
  2
LAYER
 70
     2
  0
LAYER
  2
0
 70
     0
 62
     7
  6
CONTINUOUS
  0
LAYER
  2
THREE_QUARTER_INCH_THRUCUT
 70
     0
 62
    18
  6
CONTINUOUS
  0
ENDTAB
  0
TABLE
  2
STYLE
 70
     1
  0
STYLE
  2
STANDARD
 70
     0
 40
0.0
 41
1.0
 50
0.0
 71
     0
 42
0.2
  3
txt
  4

  0
ENDTAB
  0
TABLE
  2
VIEW
 70
     0
  0
ENDTAB
  0
TABLE
  2
UCS
 70
     0
  0
ENDTAB
  0
TABLE
  2
APPID
 70
     1
  0
APPID
  2
ACAD
 70
     0
  0
ENDTAB
  0
TABLE
  2
DIMSTYLE
 70
     1
  0
DIMSTYLE
  2
STANDARD
 70
     0
  3

  4

  5

  6

  7

 40
1.0
 41
0.18
 42
0.0625
 43
0.38
 44
0.18
 45
0.0
 46
0.0
 47
0.0
 48
0.0
140
0.18
141
0.09
142
0.0
143
25.4
144
1.0
145
0.0
146
1.0
147
0.09
 71
     0
 72
     0
 73
     1
 74
     1
 75
     0
 76
     0
 77
     0
 78
     0
170
     0
171
     2
172
     0
173
     0
174
     0
175
     0
176
     0
177
     0
178
     0
  0
ENDTAB
  0
ENDSEC
  0
SECTION
  2
BLOCKS
  0
BLOCK
  8
0
  2
$MODEL_SPACE
 70
     0
 10
0.0
 20
0.0
 30
0.0
  3
$MODEL_SPACE
  1

  0
ENDBLK
  5
21
  8
0
  0
BLOCK
 67
     1
  8
0
  2
$PAPER_SPACE
 70
     0
 10
0.0
 20
0.0
 30
0.0
  3
$PAPER_SPACE
  1

  0
ENDBLK
  5
1D
 67
     1
  8
0
  0
ENDSEC
  0
SECTION
  2
ENTITIES
  0
POLYLINE
  5
70
  8
THREE_QUARTER_INCH_THRUCUT
 66
     1
 10
0.0
 20
0.0
 30
0.0
 70
     1
  0
VERTEX
  5
B1
  8
THREE_QUARTER_INCH_THRUCUT
 10
18.88205666223761
 20
4.844885005370429
 30
0.0
 42
0.4142135623730951
  0
VERTEX
  5
B2
  8
THREE_QUARTER_INCH_THRUCUT
 10
18.7520566622375
 20
4.714885005370434
 30
0.0
 42
0.4142135623730951
  0
VERTEX
  5
B3
  8
THREE_QUARTER_INCH_THRUCUT
 10
18.88205666223761
 20
4.584885005370438
 30
0.0
 42
0.4142135623730951
  0
VERTEX
  5
B4
  8
THREE_QUARTER_INCH_THRUCUT
 10
19.01205666223772
 20
4.714885005370434
 30
0.0
 42
0.4142135623730951
  0
SEQEND
  5
2E7
  8
THREE_QUARTER_INCH_THRUCUT
  0
POLYLINE
  5
71
  8
THREE_QUARTER_INCH_THRUCUT
 66
     1
 10
0.0
 20
0.0
 30
0.0
 70
     1
  0
VERTEX
  5
B5
  8
THREE_QUARTER_INCH_THRUCUT
 10
11.88205666223761
 20
4.844885005370429
 30
0.0
 42
0.4142135623730951
  0
VERTEX
  5
B6
  8
THREE_QUARTER_INCH_THRUCUT
 10
11.7520566622375
 20
4.714885005370434
 30
0.0
 42
0.4142135623730951
  0
VERTEX
  5
B7
  8
THREE_QUARTER_INCH_THRUCUT
 10
11.88205666223761
 20
4.584885005370438
 30
0.0
 42
0.4142135623730951
  0
VERTEX
  5
B8
  8
THREE_QUARTER_INCH_THRUCUT
 10
12.01205666223772
 20
4.714885005370434
 30
0.0
 42
0.4142135623730951
  0
SEQEND
  5
2E8
  8
THREE_QUARTER_INCH_THRUCUT
  0
POLYLINE
  5
72
  8
THREE_QUARTER_INCH_THRUCUT
 66
     1
 10
0.0
 20
0.0
 30
0.0
 70
     1
  0
VERTEX
  5
B9
  8
THREE_QUARTER_INCH_THRUCUT
 10
38.38205666223761
 20
4.844885005370429
 30
0.0
 42
0.4142135623730951
  0
VERTEX
  5
BA
  8
THREE_QUARTER_INCH_THRUCUT
 10
38.2520566622375
 20
4.714885005370434
 30
0.0
 42
0.4142135623730951
  0
VERTEX
  5
BB
  8
THREE_QUARTER_INCH_THRUCUT
 10
38.38205666223761
 20
4.584885005370438
 30
0.0
 42
0.4142135623730951
  0
VERTEX
  5
BC
  8
THREE_QUARTER_INCH_THRUCUT
 10
38.51205666223772
 20
4.714885005370434
 30
0.0
 42
0.4142135623730951
  0
SEQEND
  5
2E9
  8
THREE_QUARTER_INCH_THRUCUT
  0
POLYLINE
  5
73
  8
THREE_QUARTER_INCH_THRUCUT
 66
     1
 10
0.0
 20
0.0
 30
0.0
 70
     1
  0
VERTEX
  5
BD
  8
THREE_QUARTER_INCH_THRUCUT
 10
18.88205643171606
 20
4.844874739231273
 30
0.0
 42
0.4142135623730951
  0
VERTEX
  5
BE
  8
THREE_QUARTER_INCH_THRUCUT
 10
18.75205643171595
 20
4.714874739231277
 30
0.0
 42
0.4142135623730951
  0
VERTEX
  5
BF
  8
THREE_QUARTER_INCH_THRUCUT
 10
18.88205643171606
 20
4.584874739231282
 30
0.0
 42
0.4142135623730951
  0
VERTEX
  5
C0
  8
THREE_QUARTER_INCH_THRUCUT
 10
19.01205643171617
 20
4.714874739231277
 30
0.0
 42
0.4142135623730951
  0
SEQEND
  5
2EA
  8
THREE_QUARTER_INCH_THRUCUT
  0
POLYLINE
  5
74
  8
THREE_QUARTER_INCH_THRUCUT
 66
     1
 10
0.0
 20
0.0
 30
0.0
 70
     1
  0
VERTEX
  5
C1
  8
THREE_QUARTER_INCH_THRUCUT
 10
11.88205643171606
 20
4.844874739231273
 30
0.0
 42
0.4142135623730951
  0
VERTEX
  5
C2
  8
THREE_QUARTER_INCH_THRUCUT
 10
11.75205643171595
 20
4.714874739231277
 30
0.0
 42
0.4142135623730951
  0
VERTEX
  5
C3
  8
THREE_QUARTER_INCH_THRUCUT
 10
11.88205643171606
 20
4.584874739231282
 30
0.0
 42
0.4142135623730951
  0
VERTEX
  5
C4
  8
THREE_QUARTER_INCH_THRUCUT
 10
12.01205643171617
 20
4.714874739231277
 30
0.0
 42
0.4142135623730951
  0
SEQEND
  5
2EB
  8
THREE_QUARTER_INCH_THRUCUT
  0
POLYLINE
  5
75
  8
THREE_QUARTER_INCH_THRUCUT
 66
     1
 10
0.0
 20
0.0
 30
0.0
 70
     1
  0
VERTEX
  5
C5
  8
THREE_QUARTER_INCH_THRUCUT
 10
32.68206116682493
 20
4.844885040768531
 30
0.0
 42
0.4142135623730951
  0
VERTEX
  5
C6
  8
THREE_QUARTER_INCH_THRUCUT
 10
32.55206116682482
 20
4.714885040768536
 30
0.0
 42
0.4142135623730951
  0
VERTEX
  5
C7
  8
THREE_QUARTER_INCH_THRUCUT
 10
32.68206116682493
 20
4.58488504076854
 30
0.0
 42
0.4142135623730951
  0
VERTEX
  5
C8
  8
THREE_QUARTER_INCH_THRUCUT
 10
32.81206116682504
 20
4.714885040768536
 30
0.0
 42
0.4142135623730951
  0
SEQEND
  5
2EC
  8
THREE_QUARTER_INCH_THRUCUT
  0
POLYLINE
  5
76
  8
THREE_QUARTER_INCH_THRUCUT
 66
     1
 10
0.0
 20
0.0
 30
0.0
 70
     1
  0
VERTEX
  5
C9
  8
THREE_QUARTER_INCH_THRUCUT
 10
25.78205881046367
 20
4.844879902599132
 30
0.0
 42
0.4142135623730951
  0
VERTEX
  5
CA
  8
THREE_QUARTER_INCH_THRUCUT
 10
25.65205881046356
 20
4.714879902599137
 30
0.0
 42
0.4142135623730951
  0
VERTEX
  5
CB
  8
THREE_QUARTER_INCH_THRUCUT
 10
25.78205881046367
 20
4.584879902599141
 30
0.0
 42
0.4142135623730951
  0
VERTEX
  5
CC
  8
THREE_QUARTER_INCH_THRUCUT
 10
25.91205881046378
 20
4.714879902599137
 30
0.0
 42
0.4142135623730951
  0
SEQEND
  5
2ED
  8
THREE_QUARTER_INCH_THRUCUT
  0
POLYLINE
  5
77
  8
THREE_QUARTER_INCH_THRUCUT
 66
     1
 10
0.0
 20
0.0
 30
0.0
 70
     1
  0
VERTEX
  5
CD
  8
THREE_QUARTER_INCH_THRUCUT
 10
32.68206117798665
 20
3.373876883688013
 30
0.0
 42
0.4142135623730951
  0
VERTEX
  5
CE
  8
THREE_QUARTER_INCH_THRUCUT
 10
32.55206117798654
 20
3.243876883688017
 30
0.0
 42
0.4142135623730951
  0
VERTEX
  5
CF
  8
THREE_QUARTER_INCH_THRUCUT
 10
32.68206117798665
 20
3.113876883688022
 30
0.0
 42
0.4142135623730951
  0
VERTEX
  5
D0
  8
THREE_QUARTER_INCH_THRUCUT
 10
32.81206117798676
 20
3.243876883688017
 30
0.0
 42
0.4142135623730951
  0
SEQEND
  5
2EE
  8
THREE_QUARTER_INCH_THRUCUT
  0
POLYLINE
  5
78
  8
THREE_QUARTER_INCH_THRUCUT
 66
     1
 10
0.0
 20
0.0
 30
0.0
 70
     1
  0
VERTEX
  5
D1
  8
THREE_QUARTER_INCH_THRUCUT
 10
18.28206117798656
 20
3.373876883688013
 30
0.0
 42
0.4142135623730951
  0
VERTEX
  5
D2
  8
THREE_QUARTER_INCH_THRUCUT
 10
18.15206117798667
 20
3.243876883688017
 30
0.0
 42
0.4142135623730951
  0
VERTEX
  5
D3
  8
THREE_QUARTER_INCH_THRUCUT
 10
18.28206117798656
 20
3.113876883688022
 30
0.0
 42
0.4142135623730951
  0
VERTEX
  5
D4
  8
THREE_QUARTER_INCH_THRUCUT
 10
18.41206117798666
 20
3.243876883688017
 30
0.0
 42
0.4142135623730951
  0
SEQEND
  5
2EF
  8
THREE_QUARTER_INCH_THRUCUT
  0
POLYLINE
  5
79
  8
THREE_QUARTER_INCH_THRUCUT
 66
     1
 10
0.0
 20
0.0
 30
0.0
 70
     1
  0
VERTEX
  5
D5
  8
THREE_QUARTER_INCH_THRUCUT
 10
11.08206117798674
 20
3.373876883688013
 30
0.0
 42
0.4142135623730951
  0
VERTEX
  5
D6
  8
THREE_QUARTER_INCH_THRUCUT
 10
10.95206117798663
 20
3.243876883688017
 30
0.0
 42
0.4142135623730951
  0
VERTEX
  5
D7
  8
THREE_QUARTER_INCH_THRUCUT
 10
11.08206117798674
 20
3.113876883688022
 30
0.0
 42
0.4142135623730951
  0
VERTEX
  5
D8
  8
THREE_QUARTER_INCH_THRUCUT
 10
11.21206117798685
 20
3.243876883688017
 30
0.0
 42
0.4142135623730951
  0
SEQEND
  5
2F0
  8
THREE_QUARTER_INCH_THRUCUT
  0
POLYLINE
  5
7A
  8
THREE_QUARTER_INCH_THRUCUT
 66
     1
 10
0.0
 20
0.0
 30
0.0
 70
     1
  0
VERTEX
  5
D9
  8
THREE_QUARTER_INCH_THRUCUT
 10
38.38206117798669
 20
3.373876883688013
 30
0.0
 42
0.4142135623730951
  0
VERTEX
  5
DA
  8
THREE_QUARTER_INCH_THRUCUT
 10
38.25206117798681
 20
3.243876883688017
 30
0.0
 42
0.4142135623730951
  0
VERTEX
  5
DB
  8
THREE_QUARTER_INCH_THRUCUT
 10
38.38206117798669
 20
3.113876883688022
 30
0.0
 42
0.4142135623730951
  0
VERTEX
  5
DC
  8
THREE_QUARTER_INCH_THRUCUT
 10
38.51206117798657
 20
3.243876883688017
 30
0.0
 42
0.4142135623730951
  0
SEQEND
  5
2F1
  8
THREE_QUARTER_INCH_THRUCUT
  0
POLYLINE
  5
7B
  8
THREE_QUARTER_INCH_THRUCUT
 66
     1
 10
0.0
 20
0.0
 30
0.0
 70
     1
  0
VERTEX
  5
DD
  8
THREE_QUARTER_INCH_THRUCUT
 10
32.6820609474651
 20
3.373866617548856
 30
0.0
 42
0.4142135623730951
  0
VERTEX
  5
DE
  8
THREE_QUARTER_INCH_THRUCUT
 10
32.55206094746499
 20
3.243866617548861
 30
0.0
 42
0.4142135623730951
  0
VERTEX
  5
DF
  8
THREE_QUARTER_INCH_THRUCUT
 10
32.6820609474651
 20
3.113866617548865
 30
0.0
 42
0.4142135623730951
  0
VERTEX
  5
E0
  8
THREE_QUARTER_INCH_THRUCUT
 10
32.81206094746521
 20
3.243866617548861
 30
0.0
 42
0.4142135623730951
  0
SEQEND
  5
2F2
  8
THREE_QUARTER_INCH_THRUCUT
  0
POLYLINE
  5
7C
  8
THREE_QUARTER_INCH_THRUCUT
 66
     1
 10
0.0
 20
0.0
 30
0.0
 70
     1
  0
VERTEX
  5
E1
  8
THREE_QUARTER_INCH_THRUCUT
 10
18.28206094746501
 20
3.373866617548856
 30
0.0
 42
0.4142135623730951
  0
VERTEX
  5
E2
  8
THREE_QUARTER_INCH_THRUCUT
 10
18.15206094746512
 20
3.243866617548861
 30
0.0
 42
0.4142135623730951
  0
VERTEX
  5
E3
  8
THREE_QUARTER_INCH_THRUCUT
 10
18.28206094746501
 20
3.113866617548865
 30
0.0
 42
0.4142135623730951
  0
VERTEX
  5
E4
  8
THREE_QUARTER_INCH_THRUCUT
 10
18.41206094746511
 20
3.243866617548861
 30
0.0
 42
0.4142135623730951
  0
SEQEND
  5
2F3
  8
THREE_QUARTER_INCH_THRUCUT
  0
POLYLINE
  5
7D
  8
THREE_QUARTER_INCH_THRUCUT
 66
     1
 10
0.0
 20
0.0
 30
0.0
 70
     1
  0
VERTEX
  5
E5
  8
THREE_QUARTER_INCH_THRUCUT
 10
11.08206094746519
 20
3.373866617548856
 30
0.0
 42
0.4142135623730951
  0
VERTEX
  5
E6
  8
THREE_QUARTER_INCH_THRUCUT
 10
10.95206094746508
 20
3.243866617548861
 30
0.0
 42
0.4142135623730951
  0
VERTEX
  5
E7
  8
THREE_QUARTER_INCH_THRUCUT
 10
11.08206094746519
 20
3.113866617548865
 30
0.0
 42
0.4142135623730951
  0
VERTEX
  5
E8
  8
THREE_QUARTER_INCH_THRUCUT
 10
11.2120609474653
 20
3.243866617548861
 30
0.0
 42
0.4142135623730951
  0
SEQEND
  5
2F4
  8
THREE_QUARTER_INCH_THRUCUT
  0
POLYLINE
  5
7E
  8
THREE_QUARTER_INCH_THRUCUT
 66
     1
 10
0.0
 20
0.0
 30
0.0
 70
     1
  0
VERTEX
  5
E9
  8
THREE_QUARTER_INCH_THRUCUT
 10
32.68206117798665
 20
3.373876883688013
 30
0.0
 42
0.4142135623730951
  0
VERTEX
  5
EA
  8
THREE_QUARTER_INCH_THRUCUT
 10
32.55206117798654
 20
3.243876883688017
 30
0.0
 42
0.4142135623730951
  0
VERTEX
  5
EB
  8
THREE_QUARTER_INCH_THRUCUT
 10
32.68206117798665
 20
3.113876883688022
 30
0.0
 42
0.4142135623730951
  0
VERTEX
  5
EC
  8
THREE_QUARTER_INCH_THRUCUT
 10
32.81206117798676
 20
3.243876883688017
 30
0.0
 42
0.4142135623730951
  0
SEQEND
  5
2F5
  8
THREE_QUARTER_INCH_THRUCUT
  0
POLYLINE
  5
7F
  8
THREE_QUARTER_INCH_THRUCUT
 66
     1
 10
0.0
 20
0.0
 30
0.0
 70
     1
  0
VERTEX
  5
ED
  8
THREE_QUARTER_INCH_THRUCUT
 10
32.6820609474651
 20
3.373866617548856
 30
0.0
 42
0.4142135623730951
  0
VERTEX
  5
EE
  8
THREE_QUARTER_INCH_THRUCUT
 10
32.55206094746499
 20
3.243866617548861
 30
0.0
 42
0.4142135623730951
  0
VERTEX
  5
EF
  8
THREE_QUARTER_INCH_THRUCUT
 10
32.6820609474651
 20
3.113866617548865
 30
0.0
 42
0.4142135623730951
  0
VERTEX
  5
F0
  8
THREE_QUARTER_INCH_THRUCUT
 10
32.81206094746521
 20
3.243866617548861
 30
0.0
 42
0.4142135623730951
  0
SEQEND
  5
2F6
  8
THREE_QUARTER_INCH_THRUCUT
  0
POLYLINE
  5
80
  8
THREE_QUARTER_INCH_THRUCUT
 66
     1
 10
0.0
 20
0.0
 30
0.0
 70
     1
  0
VERTEX
  5
F1
  8
THREE_QUARTER_INCH_THRUCUT
 10
25.4820610564157
 20
3.373871743297173
 30
0.0
 42
0.4142135623730951
  0
VERTEX
  5
F2
  8
THREE_QUARTER_INCH_THRUCUT
 10
25.35206105641581
 20
3.243871743297177
 30
0.0
 42
0.4142135623730951
  0
VERTEX
  5
F3
  8
THREE_QUARTER_INCH_THRUCUT
 10
25.4820610564157
 20
3.113871743297182
 30
0.0
 42
0.4142135623730951
  0
VERTEX
  5
F4
  8
THREE_QUARTER_INCH_THRUCUT
 10
25.6120610564158
 20
3.243871743297177
 30
0.0
 42
0.4142135623730951
  0
SEQEND
  5
2F7
  8
THREE_QUARTER_INCH_THRUCUT
  0
POLYLINE
  5
81
  8
THREE_QUARTER_INCH_THRUCUT
 66
     1
 10
0.0
 20
0.0
 30
0.0
 70
     1
  0
VERTEX
  5
F5
  8
THREE_QUARTER_INCH_THRUCUT
 10
31.02042202250525
 20
9.21125688530455
 30
0.0
 42
-0.4142135623730951
  0
VERTEX
  5
F6
  8
THREE_QUARTER_INCH_THRUCUT
 10
31.15042202250536
 20
9.081256885304555
 30
0.0
 42
-0.4142135623730951
  0
VERTEX
  5
F7
  8
THREE_QUARTER_INCH_THRUCUT
 10
31.02042202250525
 20
8.95125688530456
 30
0.0
 42
-0.4142135623730951
  0
VERTEX
  5
F8
  8
THREE_QUARTER_INCH_THRUCUT
 10
30.89042202250514
 20
9.081256885304555
 30
0.0
 42
-0.4142135623730951
  0
SEQEND
  5
2F8
  8
THREE_QUARTER_INCH_THRUCUT
  0
POLYLINE
  5
82
  8
THREE_QUARTER_INCH_THRUCUT
 66
     1
 10
0.0
 20
0.0
 30
0.0
 70
     1
  0
VERTEX
  5
F9
  8
THREE_QUARTER_INCH_THRUCUT
 10
38.02042202250525
 20
9.21125688530455
 30
0.0
 42
-0.4142135623730951
  0
VERTEX
  5
FA
  8
THREE_QUARTER_INCH_THRUCUT
 10
38.15042202250536
 20
9.081256885304555
 30
0.0
 42
-0.4142135623730951
  0
VERTEX
  5
FB
  8
THREE_QUARTER_INCH_THRUCUT
 10
38.02042202250525
 20
8.95125688530456
 30
0.0
 42
-0.4142135623730951
  0
VERTEX
  5
FC
  8
THREE_QUARTER_INCH_THRUCUT
 10
37.89042202250514
 20
9.081256885304555
 30
0.0
 42
-0.4142135623730951
  0
SEQEND
  5
2F9
  8
THREE_QUARTER_INCH_THRUCUT
  0
POLYLINE
  5
83
  8
THREE_QUARTER_INCH_THRUCUT
 66
     1
 10
0.0
 20
0.0
 30
0.0
 70
     1
  0
VERTEX
  5
FD
  8
THREE_QUARTER_INCH_THRUCUT
 10
11.52042202250525
 20
9.21125688530455
 30
0.0
 42
-0.4142135623730951
  0
VERTEX
  5
FE
  8
THREE_QUARTER_INCH_THRUCUT
 10
11.65042202250536
 20
9.081256885304555
 30
0.0
 42
-0.4142135623730951
  0
VERTEX
  5
FF
  8
THREE_QUARTER_INCH_THRUCUT
 10
11.52042202250525
 20
8.95125688530456
 30
0.0
 42
-0.4142135623730951
  0
VERTEX
  5
100
  8
THREE_QUARTER_INCH_THRUCUT
 10
11.39042202250514
 20
9.081256885304555
 30
0.0
 42
-0.4142135623730951
  0
SEQEND
  5
2FA
  8
THREE_QUARTER_INCH_THRUCUT
  0
POLYLINE
  5
84
  8
THREE_QUARTER_INCH_THRUCUT
 66
     1
 10
0.0
 20
0.0
 30
0.0
 70
     1
  0
VERTEX
  5
101
  8
THREE_QUARTER_INCH_THRUCUT
 10
31.0204222530268
 20
9.211246619165394
 30
0.0
 42
-0.4142135623730951
  0
VERTEX
  5
102
  8
THREE_QUARTER_INCH_THRUCUT
 10
31.15042225302691
 20
9.081246619165398
 30
0.0
 42
-0.4142135623730951
  0
VERTEX
  5
103
  8
THREE_QUARTER_INCH_THRUCUT
 10
31.0204222530268
 20
8.951246619165403
 30
0.0
 42
-0.4142135623730951
  0
VERTEX
  5
104
  8
THREE_QUARTER_INCH_THRUCUT
 10
30.89042225302669
 20
9.081246619165398
 30
0.0
 42
-0.4142135623730951
  0
SEQEND
  5
2FB
  8
THREE_QUARTER_INCH_THRUCUT
  0
POLYLINE
  5
85
  8
THREE_QUARTER_INCH_THRUCUT
 66
     1
 10
0.0
 20
0.0
 30
0.0
 70
     1
  0
VERTEX
  5
105
  8
THREE_QUARTER_INCH_THRUCUT
 10
38.0204222530268
 20
9.211246619165394
 30
0.0
 42
-0.4142135623730951
  0
VERTEX
  5
106
  8
THREE_QUARTER_INCH_THRUCUT
 10
38.15042225302691
 20
9.081246619165398
 30
0.0
 42
-0.4142135623730951
  0
VERTEX
  5
107
  8
THREE_QUARTER_INCH_THRUCUT
 10
38.0204222530268
 20
8.951246619165403
 30
0.0
 42
-0.4142135623730951
  0
VERTEX
  5
108
  8
THREE_QUARTER_INCH_THRUCUT
 10
37.89042225302669
 20
9.081246619165398
 30
0.0
 42
-0.4142135623730951
  0
SEQEND
  5
2FC
  8
THREE_QUARTER_INCH_THRUCUT
  0
POLYLINE
  5
86
  8
THREE_QUARTER_INCH_THRUCUT
 66
     1
 10
0.0
 20
0.0
 30
0.0
 70
     1
  0
VERTEX
  5
109
  8
THREE_QUARTER_INCH_THRUCUT
 10
17.22041751791793
 20
9.211256920702652
 30
0.0
 42
-0.4142135623730951
  0
VERTEX
  5
10A
  8
THREE_QUARTER_INCH_THRUCUT
 10
17.35041751791804
 20
9.081256920702657
 30
0.0
 42
-0.4142135623730951
  0
VERTEX
  5
10B
  8
THREE_QUARTER_INCH_THRUCUT
 10
17.22041751791793
 20
8.951256920702662
 30
0.0
 42
-0.4142135623730951
  0
VERTEX
  5
10C
  8
THREE_QUARTER_INCH_THRUCUT
 10
17.09041751791782
 20
9.081256920702657
 30
0.0
 42
-0.4142135623730951
  0
SEQEND
  5
2FD
  8
THREE_QUARTER_INCH_THRUCUT
  0
POLYLINE
  5
87
  8
THREE_QUARTER_INCH_THRUCUT
 66
     1
 10
0.0
 20
0.0
 30
0.0
 70
     1
  0
VERTEX
  5
10D
  8
THREE_QUARTER_INCH_THRUCUT
 10
24.12041987427919
 20
9.211251782533253
 30
0.0
 42
-0.4142135623730951
  0
VERTEX
  5
10E
  8
THREE_QUARTER_INCH_THRUCUT
 10
24.2504198742793
 20
9.081251782533258
 30
0.0
 42
-0.4142135623730951
  0
VERTEX
  5
10F
  8
THREE_QUARTER_INCH_THRUCUT
 10
24.12041987427919
 20
8.951251782533262
 30
0.0
 42
-0.4142135623730951
  0
VERTEX
  5
110
  8
THREE_QUARTER_INCH_THRUCUT
 10
23.99041987427908
 20
9.081251782533258
 30
0.0
 42
-0.4142135623730951
  0
SEQEND
  5
2FE
  8
THREE_QUARTER_INCH_THRUCUT
  0
POLYLINE
  5
88
  8
THREE_QUARTER_INCH_THRUCUT
 66
     1
 10
0.0
 20
0.0
 30
0.0
 70
     1
  0
VERTEX
  5
111
  8
THREE_QUARTER_INCH_THRUCUT
 10
17.22041750675621
 20
7.740248763622134
 30
0.0
 42
-0.4142135623730951
  0
VERTEX
  5
112
  8
THREE_QUARTER_INCH_THRUCUT
 10
17.35041750675632
 20
7.610248763622138
 30
0.0
 42
-0.4142135623730951
  0
VERTEX
  5
113
  8
THREE_QUARTER_INCH_THRUCUT
 10
17.22041750675621
 20
7.480248763622143
 30
0.0
 42
-0.4142135623730951
  0
VERTEX
  5
114
  8
THREE_QUARTER_INCH_THRUCUT
 10
17.0904175067561
 20
7.610248763622138
 30
0.0
 42
-0.4142135623730951
  0
SEQEND
  5
2FF
  8
THREE_QUARTER_INCH_THRUCUT
  0
POLYLINE
  5
89
  8
THREE_QUARTER_INCH_THRUCUT
 66
     1
 10
0.0
 20
0.0
 30
0.0
 70
     1
  0
VERTEX
  5
115
  8
THREE_QUARTER_INCH_THRUCUT
 10
31.6204175067563
 20
7.740248763622134
 30
0.0
 42
-0.4142135623730951
  0
VERTEX
  5
116
  8
THREE_QUARTER_INCH_THRUCUT
 10
31.75041750675619
 20
7.610248763622138
 30
0.0
 42
-0.4142135623730951
  0
VERTEX
  5
117
  8
THREE_QUARTER_INCH_THRUCUT
 10
31.6204175067563
 20
7.480248763622143
 30
0.0
 42
-0.4142135623730951
  0
VERTEX
  5
118
  8
THREE_QUARTER_INCH_THRUCUT
 10
31.4904175067562
 20
7.610248763622138
 30
0.0
 42
-0.4142135623730951
  0
SEQEND
  5
300
  8
THREE_QUARTER_INCH_THRUCUT
  0
POLYLINE
  5
8A
  8
THREE_QUARTER_INCH_THRUCUT
 66
     1
 10
0.0
 20
0.0
 30
0.0
 70
     1
  0
VERTEX
  5
119
  8
THREE_QUARTER_INCH_THRUCUT
 10
38.82041750675612
 20
7.740248763622134
 30
0.0
 42
-0.4142135623730951
  0
VERTEX
  5
11A
  8
THREE_QUARTER_INCH_THRUCUT
 10
38.95041750675623
 20
7.610248763622138
 30
0.0
 42
-0.4142135623730951
  0
VERTEX
  5
11B
  8
THREE_QUARTER_INCH_THRUCUT
 10
38.82041750675612
 20
7.480248763622143
 30
0.0
 42
-0.4142135623730951
  0
VERTEX
  5
11C
  8
THREE_QUARTER_INCH_THRUCUT
 10
38.69041750675601
 20
7.610248763622138
 30
0.0
 42
-0.4142135623730951
  0
SEQEND
  5
301
  8
THREE_QUARTER_INCH_THRUCUT
  0
POLYLINE
  5
8B
  8
THREE_QUARTER_INCH_THRUCUT
 66
     1
 10
0.0
 20
0.0
 30
0.0
 70
     1
  0
VERTEX
  5
11D
  8
THREE_QUARTER_INCH_THRUCUT
 10
11.52041750675617
 20
7.740248763622134
 30
0.0
 42
-0.4142135623730951
  0
VERTEX
  5
11E
  8
THREE_QUARTER_INCH_THRUCUT
 10
11.65041750675605
 20
7.610248763622138
 30
0.0
 42
-0.4142135623730951
  0
VERTEX
  5
11F
  8
THREE_QUARTER_INCH_THRUCUT
 10
11.52041750675617
 20
7.480248763622143
 30
0.0
 42
-0.4142135623730951
  0
VERTEX
  5
120
  8
THREE_QUARTER_INCH_THRUCUT
 10
11.39041750675629
 20
7.610248763622138
 30
0.0
 42
-0.4142135623730951
  0
SEQEND
  5
302
  8
THREE_QUARTER_INCH_THRUCUT
  0
POLYLINE
  5
8C
  8
THREE_QUARTER_INCH_THRUCUT
 66
     1
 10
0.0
 20
0.0
 30
0.0
 70
     1
  0
VERTEX
  5
121
  8
THREE_QUARTER_INCH_THRUCUT
 10
17.22041773727776
 20
7.740238497482977
 30
0.0
 42
-0.4142135623730951
  0
VERTEX
  5
122
  8
THREE_QUARTER_INCH_THRUCUT
 10
17.35041773727787
 20
7.610238497482982
 30
0.0
 42
-0.4142135623730951
  0
VERTEX
  5
123
  8
THREE_QUARTER_INCH_THRUCUT
 10
17.22041773727776
 20
7.480238497482986
 30
0.0
 42
-0.4142135623730951
  0
VERTEX
  5
124
  8
THREE_QUARTER_INCH_THRUCUT
 10
17.09041773727765
 20
7.610238497482982
 30
0.0
 42
-0.4142135623730951
  0
SEQEND
  5
303
  8
THREE_QUARTER_INCH_THRUCUT
  0
POLYLINE
  5
8D
  8
THREE_QUARTER_INCH_THRUCUT
 66
     1
 10
0.0
 20
0.0
 30
0.0
 70
     1
  0
VERTEX
  5
125
  8
THREE_QUARTER_INCH_THRUCUT
 10
31.62041773727785
 20
7.740238497482977
 30
0.0
 42
-0.4142135623730951
  0
VERTEX
  5
126
  8
THREE_QUARTER_INCH_THRUCUT
 10
31.75041773727774
 20
7.610238497482982
 30
0.0
 42
-0.4142135623730951
  0
VERTEX
  5
127
  8
THREE_QUARTER_INCH_THRUCUT
 10
31.62041773727785
 20
7.480238497482986
 30
0.0
 42
-0.4142135623730951
  0
VERTEX
  5
128
  8
THREE_QUARTER_INCH_THRUCUT
 10
31.49041773727775
 20
7.610238497482982
 30
0.0
 42
-0.4142135623730951
  0
SEQEND
  5
304
  8
THREE_QUARTER_INCH_THRUCUT
  0
POLYLINE
  5
8E
  8
THREE_QUARTER_INCH_THRUCUT
 66
     1
 10
0.0
 20
0.0
 30
0.0
 70
     1
  0
VERTEX
  5
129
  8
THREE_QUARTER_INCH_THRUCUT
 10
38.82041773727767
 20
7.740238497482977
 30
0.0
 42
-0.4142135623730951
  0
VERTEX
  5
12A
  8
THREE_QUARTER_INCH_THRUCUT
 10
38.95041773727778
 20
7.610238497482982
 30
0.0
 42
-0.4142135623730951
  0
VERTEX
  5
12B
  8
THREE_QUARTER_INCH_THRUCUT
 10
38.82041773727767
 20
7.480238497482986
 30
0.0
 42
-0.4142135623730951
  0
VERTEX
  5
12C
  8
THREE_QUARTER_INCH_THRUCUT
 10
38.69041773727756
 20
7.610238497482982
 30
0.0
 42
-0.4142135623730951
  0
SEQEND
  5
305
  8
THREE_QUARTER_INCH_THRUCUT
  0
POLYLINE
  5
8F
  8
THREE_QUARTER_INCH_THRUCUT
 66
     1
 10
0.0
 20
0.0
 30
0.0
 70
     1
  0
VERTEX
  5
12D
  8
THREE_QUARTER_INCH_THRUCUT
 10
17.22041750675621
 20
7.740248763622134
 30
0.0
 42
-0.4142135623730951
  0
VERTEX
  5
12E
  8
THREE_QUARTER_INCH_THRUCUT
 10
17.35041750675632
 20
7.610248763622138
 30
0.0
 42
-0.4142135623730951
  0
VERTEX
  5
12F
  8
THREE_QUARTER_INCH_THRUCUT
 10
17.22041750675621
 20
7.480248763622143
 30
0.0
 42
-0.4142135623730951
  0
VERTEX
  5
130
  8
THREE_QUARTER_INCH_THRUCUT
 10
17.0904175067561
 20
7.610248763622138
 30
0.0
 42
-0.4142135623730951
  0
SEQEND
  5
306
  8
THREE_QUARTER_INCH_THRUCUT
  0
POLYLINE
  5
90
  8
THREE_QUARTER_INCH_THRUCUT
 66
     1
 10
0.0
 20
0.0
 30
0.0
 70
     1
  0
VERTEX
  5
131
  8
THREE_QUARTER_INCH_THRUCUT
 10
17.22041773727776
 20
7.740238497482977
 30
0.0
 42
-0.4142135623730951
  0
VERTEX
  5
132
  8
THREE_QUARTER_INCH_THRUCUT
 10
17.35041773727787
 20
7.610238497482982
 30
0.0
 42
-0.4142135623730951
  0
VERTEX
  5
133
  8
THREE_QUARTER_INCH_THRUCUT
 10
17.22041773727776
 20
7.480238497482986
 30
0.0
 42
-0.4142135623730951
  0
VERTEX
  5
134
  8
THREE_QUARTER_INCH_THRUCUT
 10
17.09041773727765
 20
7.610238497482982
 30
0.0
 42
-0.4142135623730951
  0
SEQEND
  5
307
  8
THREE_QUARTER_INCH_THRUCUT
  0
POLYLINE
  5
91
  8
THREE_QUARTER_INCH_THRUCUT
 66
     1
 10
0.0
 20
0.0
 30
0.0
 70
     1
  0
VERTEX
  5
135
  8
THREE_QUARTER_INCH_THRUCUT
 10
24.42041762832717
 20
7.740243623231294
 30
0.0
 42
-0.4142135623730951
  0
VERTEX
  5
136
  8
THREE_QUARTER_INCH_THRUCUT
 10
24.55041762832705
 20
7.610243623231298
 30
0.0
 42
-0.4142135623730951
  0
VERTEX
  5
137
  8
THREE_QUARTER_INCH_THRUCUT
 10
24.42041762832717
 20
7.480243623231303
 30
0.0
 42
-0.4142135623730951
  0
VERTEX
  5
138
  8
THREE_QUARTER_INCH_THRUCUT
 10
24.29041762832706
 20
7.610243623231298
 30
0.0
 42
-0.4142135623730951
  0
SEQEND
  5
308
  8
THREE_QUARTER_INCH_THRUCUT
  0
POLYLINE
  5
92
  8
THREE_QUARTER_INCH_THRUCUT
 66
     1
 10
0.0
 20
0.0
 30
0.0
 70
     1
  0
VERTEX
  5
139
  8
THREE_QUARTER_INCH_THRUCUT
 10
9.15324698173422
 20
2.464896825245091
 30
0.0
  0
VERTEX
  5
13A
  8
THREE_QUARTER_INCH_THRUCUT
 10
39.13205441194587
 20
2.464875798454614
 30
0.0
  0
VERTEX
  5
13B
  8
THREE_QUARTER_INCH_THRUCUT
 10
39.13205693266267
 20
5.464869805916976
 30
0.0
  0
VERTEX
  5
13C
  8
THREE_QUARTER_INCH_THRUCUT
 10
11.44170502154928
 20
5.464895250519476
 30
0.0
  0
SEQEND
  5
309
  8
THREE_QUARTER_INCH_THRUCUT
  0
POLYLINE
  5
93
  8
THREE_QUARTER_INCH_THRUCUT
 66
     1
 10
0.0
 20
0.0
 30
0.0
 70
     1
  0
VERTEX
  5
13D
  8
THREE_QUARTER_INCH_THRUCUT
 10
40.74923170300864
 20
6.831268705179212
 30
0.0
  0
VERTEX
  5
13E
  8
THREE_QUARTER_INCH_THRUCUT
 10
10.77042427279699
 20
6.831247678388735
 30
0.0
  0
VERTEX
  5
13F
  8
THREE_QUARTER_INCH_THRUCUT
 10
10.77042175208019
 20
9.831241685851097
 30
0.0
  0
VERTEX
  5
140
  8
THREE_QUARTER_INCH_THRUCUT
 10
38.46077366319359
 20
9.831267130453597
 30
0.0
  0
SEQEND
  5
30A
  8
THREE_QUARTER_INCH_THRUCUT
  0
POLYLINE
  5
94
  8
THREE_QUARTER_INCH_THRUCUT
 66
     1
 10
0.0
 20
0.0
 30
0.0
 70
     1
  0
VERTEX
  5
141
  8
THREE_QUARTER_INCH_THRUCUT
 10
12.01037469487066
 20
46.18068706995062
 30
0.0
  0
VERTEX
  5
142
  8
THREE_QUARTER_INCH_THRUCUT
 10
11.92547024885051
 20
46.13333122926348
 30
0.0
  0
VERTEX
  5
143
  8
THREE_QUARTER_INCH_THRUCUT
 10
11.84168996924286
 20
46.08484353023697
 30
0.0
  0
VERTEX
  5
144
  8
THREE_QUARTER_INCH_THRUCUT
 10
11.75905585091566
 20
46.03523520560053
 30
0.0
  0
VERTEX
  5
145
  8
THREE_QUARTER_INCH_THRUCUT
 10
11.67758986461091
 20
45.98451750013497
 30
0.0
  0
VERTEX
  5
146
  8
THREE_QUARTER_INCH_THRUCUT
 10
11.59731395517234
 20
45.93270166970898
 30
0.0
  0
VERTEX
  5
147
  8
THREE_QUARTER_INCH_THRUCUT
 10
11.51825003972404
 20
45.8797989801527
 30
0.0
  0
VERTEX
  5
148
  8
THREE_QUARTER_INCH_THRUCUT
 10
11.4404200058073
 20
45.82582070595366
 30
0.0
  0
VERTEX
  5
149
  8
THREE_QUARTER_INCH_THRUCUT
 10
11.36384570948498
 20
45.77077812876097
 30
0.0
  0
VERTEX
  5
14A
  8
THREE_QUARTER_INCH_THRUCUT
 10
11.28854897342465
 20
45.71468253568024
 30
0.0
  0
VERTEX
  5
14B
  8
THREE_QUARTER_INCH_THRUCUT
 10
11.21455158497495
 20
45.65754521734685
 30
0.0
  0
VERTEX
  5
14C
  8
THREE_QUARTER_INCH_THRUCUT
 10
11.14187529425048
 20
45.59937746575928
 30
0.0
  0
VERTEX
  5
14D
  8
THREE_QUARTER_INCH_THRUCUT
 10
11.07054181224531
 20
45.54019057186063
 30
0.0
  0
VERTEX
  5
14E
  8
THREE_QUARTER_INCH_THRUCUT
 10
11.00057280899658
 20
45.47999582285296
 30
0.0
  0
VERTEX
  5
14F
  8
THREE_QUARTER_INCH_THRUCUT
 10
10.93198991182372
 20
45.41880449923279
 30
0.0
  0
VERTEX
  5
150
  8
THREE_QUARTER_INCH_THRUCUT
 10
10.86481470367117
 20
45.35662787153738
 30
0.0
  0
VERTEX
  5
151
  8
THREE_QUARTER_INCH_THRUCUT
 10
10.79906872158703
 20
45.293477196794
 30
0.0
  0
VERTEX
  5
152
  8
THREE_QUARTER_INCH_THRUCUT
 10
10.7347734553724
 20
45.2293637146655
 30
0.0
  0
VERTEX
  5
153
  8
THREE_QUARTER_INCH_THRUCUT
 10
10.67195034643963
 20
45.16429864329335
 30
0.0
  0
VERTEX
  5
154
  8
THREE_QUARTER_INCH_THRUCUT
 10
10.61062078692102
 20
45.09829317484035
 30
0.0
  0
VERTEX
  5
155
  8
THREE_QUARTER_INCH_THRUCUT
 10
10.5508061190731
 20
45.03135847073882
 30
0.0
  0
VERTEX
  5
156
  8
THREE_QUARTER_INCH_THRUCUT
 10
10.4925276350216
 20
44.9635056566634
 30
0.0
  0
VERTEX
  5
157
  8
THREE_QUARTER_INCH_THRUCUT
 10
10.43580657689726
 20
44.89474581724413
 30
0.0
  0
VERTEX
  5
158
  8
THREE_QUARTER_INCH_THRUCUT
 10
10.38066413741144
 20
44.82508999055254
 30
0.0
  0
VERTEX
  5
159
  8
THREE_QUARTER_INCH_THRUCUT
 10
10.32712146092136
 20
44.75454916239504
 30
0.0
  0
VERTEX
  5
15A
  8
THREE_QUARTER_INCH_THRUCUT
 10
10.27519964503476
 20
44.68313426045891
 30
0.0
  0
VERTEX
  5
15B
  8
THREE_QUARTER_INCH_THRUCUT
 10
10.22491974279954
 20
44.61085614836826
 30
0.0
  0
VERTEX
  5
15C
  8
THREE_QUARTER_INCH_THRUCUT
 10
10.17630276552346
 20
44.53772561971105
 30
0.0
  0
VERTEX
  5
15D
  8
THREE_QUARTER_INCH_THRUCUT
 10
10.12936968626006
 20
44.46375339211282
 30
0.0
  0
VERTEX
  5
15E
  8
THREE_QUARTER_INCH_THRUCUT
 10
10.08403171571017
 20
44.3887686211044
 30
0.0
  0
VERTEX
  5
15F
  8
THREE_QUARTER_INCH_THRUCUT
 10
9.958293510693194
 20
44.17371934774529
 30
0.0
  0
VERTEX
  5
160
  8
THREE_QUARTER_INCH_THRUCUT
 10
9.834373914117789
 20
43.95796296247339
 30
0.0
  0
VERTEX
  5
161
  8
THREE_QUARTER_INCH_THRUCUT
 10
9.712380880018754
 20
43.74168800098106
 30
0.0
  0
VERTEX
  5
162
  8
THREE_QUARTER_INCH_THRUCUT
 10
9.592316267809265
 20
43.52490154526002
 30
0.0
  0
VERTEX
  5
163
  8
THREE_QUARTER_INCH_THRUCUT
 10
9.474181936778434
 20
43.30761067631543
 30
0.0
  0
VERTEX
  5
164
  8
THREE_QUARTER_INCH_THRUCUT
 10
9.357979746111637
 20
43.08982247415189
 30
0.0
  0
VERTEX
  5
165
  8
THREE_QUARTER_INCH_THRUCUT
 10
9.243711554911426
 20
42.87154401775966
 30
0.0
  0
VERTEX
  5
166
  8
THREE_QUARTER_INCH_THRUCUT
 10
9.131379222219193
 20
42.65278238510142
 30
0.0
  0
VERTEX
  5
167
  8
THREE_QUARTER_INCH_THRUCUT
 10
9.020984607037446
 20
42.43354465310016
 30
0.0
  0
VERTEX
  5
168
  8
THREE_QUARTER_INCH_THRUCUT
 10
8.912529568352921
 20
42.21383789762636
 30
0.0
  0
VERTEX
  5
169
  8
THREE_QUARTER_INCH_THRUCUT
 10
8.806015965159856
 20
41.99366919348687
 30
0.0
  0
VERTEX
  5
16A
  8
THREE_QUARTER_INCH_THRUCUT
 10
8.701445656484493
 20
41.77304561441393
 30
0.0
  0
VERTEX
  5
16B
  8
THREE_QUARTER_INCH_THRUCUT
 10
8.598820501409689
 20
41.55197423305434
 30
0.0
  0
VERTEX
  5
16C
  8
THREE_QUARTER_INCH_THRUCUT
 10
8.498142359100468
 20
41.33046212096052
 30
0.0
  0
VERTEX
  5
16D
  8
THREE_QUARTER_INCH_THRUCUT
 10
8.39941308883
 20
41.10851634858044
 30
0.0
  0
VERTEX
  5
16E
  8
THREE_QUARTER_INCH_THRUCUT
 10
8.30263455000623
 20
40.88614398525031
 30
0.0
  0
VERTEX
  5
16F
  8
THREE_QUARTER_INCH_THRUCUT
 10
8.207808602198993
 20
40.66335209918644
 30
0.0
  0
VERTEX
  5
170
  8
THREE_QUARTER_INCH_THRUCUT
 10
8.11493710516764
 20
40.44014775747847
 30
0.0
  0
VERTEX
  5
171
  8
THREE_QUARTER_INCH_THRUCUT
 10
8.024021918889487
 20
40.2165380260834
 30
0.0
  0
VERTEX
  5
172
  8
THREE_QUARTER_INCH_THRUCUT
 10
7.935064903588268
 20
39.99252996982032
 30
0.0
  0
VERTEX
  5
173
  8
THREE_QUARTER_INCH_THRUCUT
 10
7.848067919763407
 20
39.76813065236659
 30
0.0
  0
VERTEX
  5
174
  8
THREE_QUARTER_INCH_THRUCUT
 10
7.763032828219691
 20
39.5433471362537
 30
0.0
  0
VERTEX
  5
175
  8
THREE_QUARTER_INCH_THRUCUT
 10
7.679961490097481
 20
39.31818648286547
 30
0.0
  0
VERTEX
  5
176
  8
THREE_QUARTER_INCH_THRUCUT
 10
7.598855766902814
 20
39.0926557524359
 30
0.0
  0
VERTEX
  5
177
  8
THREE_QUARTER_INCH_THRUCUT
 10
7.519717520538519
 20
38.86676200404928
 30
0.0
  0
VERTEX
  5
178
  8
THREE_QUARTER_INCH_THRUCUT
 10
7.442548613335232
 20
38.64051229564016
 30
0.0
  0
VERTEX
  5
179
  8
THREE_QUARTER_INCH_THRUCUT
 10
7.36735090808291
 20
38.41391368399478
 30
0.0
  0
VERTEX
  5
17A
  8
THREE_QUARTER_INCH_THRUCUT
 10
7.294126268062696
 20
38.1869732247544
 30
0.0
  0
VERTEX
  5
17B
  8
THREE_QUARTER_INCH_THRUCUT
 10
7.222876557078548
 20
37.95969797241797
 30
0.0
  0
VERTEX
  5
17C
  8
THREE_QUARTER_INCH_THRUCUT
 10
7.153603639489672
 20
37.73209498034724
 30
0.0
  0
VERTEX
  5
17D
  8
THREE_QUARTER_INCH_THRUCUT
 10
7.086309380242865
 20
37.50417130077311
 30
0.0
  0
VERTEX
  5
17E
  8
THREE_QUARTER_INCH_THRUCUT
 10
7.020995644904628
 20
37.27593398480177
 30
0.0
  0
VERTEX
  5
17F
  8
THREE_QUARTER_INCH_THRUCUT
 10
6.957664299694057
 20
37.04739008242358
 30
0.0
  0
VERTEX
  5
180
  8
THREE_QUARTER_INCH_THRUCUT
 10
6.896317211515152
 20
36.81854664252192
 30
0.0
  0
VERTEX
  5
181
  8
THREE_QUARTER_INCH_THRUCUT
 10
6.836956247989361
 20
36.58941071288392
 30
0.0
  0
VERTEX
  5
182
  8
THREE_QUARTER_INCH_THRUCUT
 10
6.779583277488014
 20
36.35998934021244
 30
0.0
  0
VERTEX
  5
183
  8
THREE_QUARTER_INCH_THRUCUT
 10
6.724200169164972
 20
36.13028957013829
 30
0.0
  0
VERTEX
  5
184
  8
THREE_QUARTER_INCH_THRUCUT
 10
6.67080879298838
 20
35.90031844723511
 30
0.0
  0
VERTEX
  5
185
  8
THREE_QUARTER_INCH_THRUCUT
 10
6.619411019773208
 20
35.67008301503448
 30
0.0
  0
VERTEX
  5
186
  8
THREE_QUARTER_INCH_THRUCUT
 10
6.570008721212487
 20
35.4395903160423
 30
0.0
  0
VERTEX
  5
187
  8
THREE_QUARTER_INCH_THRUCUT
 10
6.522603769909308
 20
35.20884739175709
 30
0.0
  0
VERTEX
  5
188
  8
THREE_QUARTER_INCH_THRUCUT
 10
6.477198039407609
 20
34.97786128268841
 30
0.0
  0
VERTEX
  5
189
  8
THREE_QUARTER_INCH_THRUCUT
 10
6.433793404223065
 20
34.74663902837766
 30
0.0
  0
VERTEX
  5
18A
  8
THREE_QUARTER_INCH_THRUCUT
 10
6.392391739873331
 20
34.51518766741934
 30
0.0
  0
VERTEX
  5
18B
  8
THREE_QUARTER_INCH_THRUCUT
 10
6.352994922908051
 20
34.28351423748403
 30
0.0
  0
VERTEX
  5
18C
  8
THREE_QUARTER_INCH_THRUCUT
 10
6.315604830937771
 20
34.05162577534178
 30
0.0
  0
VERTEX
  5
18D
  8
THREE_QUARTER_INCH_THRUCUT
 10
6.280223342663005
 20
33.81952931688748
 30
0.0
  0
VERTEX
  5
18E
  8
THREE_QUARTER_INCH_THRUCUT
 10
6.246852337901869
 20
33.58723189716703
 30
0.0
  0
VERTEX
  5
18F
  8
THREE_QUARTER_INCH_THRUCUT
 10
6.215493697617815
 20
33.35474055040537
 30
0.0
  0
VERTEX
  5
190
  8
THREE_QUARTER_INCH_THRUCUT
 10
6.186149303946008
 20
33.12206231003368
 30
0.0
  0
VERTEX
  5
191
  8
THREE_QUARTER_INCH_THRUCUT
 10
6.158821040218937
 20
32.88920420872033
 30
0.0
  0
VERTEX
  5
192
  8
THREE_QUARTER_INCH_THRUCUT
 10
6.133510790991847
 20
32.65617327840083
 30
0.0
  0
VERTEX
  5
193
  8
THREE_QUARTER_INCH_THRUCUT
 10
6.110220442066334
 20
32.42297655031005
 30
0.0
  0
VERTEX
  5
194
  8
THREE_QUARTER_INCH_THRUCUT
 10
6.088951880513816
 20
32.18962105501451
 30
0.0
  0
VERTEX
  5
195
  8
THREE_QUARTER_INCH_THRUCUT
 10
6.069706994697482
 20
31.95611382244657
 30
0.0
  0
VERTEX
  5
196
  8
THREE_QUARTER_INCH_THRUCUT
 10
6.052487674293543
 20
31.72246188193922
 30
0.0
  0
VERTEX
  5
197
  8
THREE_QUARTER_INCH_THRUCUT
 10
6.037295810311191
 20
31.48867226226137
 30
0.0
  0
VERTEX
  5
198
  8
THREE_QUARTER_INCH_THRUCUT
 10
6.02413329511158
 20
31.25475199165463
 30
0.0
  0
VERTEX
  5
199
  8
THREE_QUARTER_INCH_THRUCUT
 10
6.013002022425793
 20
31.02070809787038
 30
0.0
  0
VERTEX
  5
19A
  8
THREE_QUARTER_INCH_THRUCUT
 10
6.003903887371264
 20
30.78654760820835
 30
0.0
  0
VERTEX
  5
19B
  8
THREE_QUARTER_INCH_THRUCUT
 10
5.996840786467216
 20
30.55227754955523
 30
0.0
  0
VERTEX
  5
19C
  8
THREE_QUARTER_INCH_THRUCUT
 10
5.991814617648869
 20
30.31790494842424
 30
0.0
  0
VERTEX
  5
19D
  8
THREE_QUARTER_INCH_THRUCUT
 10
5.988827280280431
 20
30.08343683099518
 30
0.0
  0
VERTEX
  5
19E
  8
THREE_QUARTER_INCH_THRUCUT
 10
5.987880148019071
 20
29.848749602815
 30
0.0
  0
VERTEX
  5
19F
  8
THREE_QUARTER_INCH_THRUCUT
 10
5.987883577765684
 20
29.83791515525012
 30
0.0
  0
VERTEX
  5
1A0
  8
THREE_QUARTER_INCH_THRUCUT
 10
5.987880148019071
 20
29.82708070768534
 30
0.0
  0
VERTEX
  5
1A1
  8
THREE_QUARTER_INCH_THRUCUT
 10
5.988827280280431
 20
29.59239347950505
 30
0.0
  0
VERTEX
  5
1A2
  8
THREE_QUARTER_INCH_THRUCUT
 10
5.991814617648869
 20
29.35792536207599
 30
0.0
  0
VERTEX
  5
1A3
  8
THREE_QUARTER_INCH_THRUCUT
 10
5.996840786467216
 20
29.123552760945
 30
0.0
  0
VERTEX
  5
1A4
  8
THREE_QUARTER_INCH_THRUCUT
 10
6.003903887371264
 20
28.88928270229188
 30
0.0
  0
VERTEX
  5
1A5
  8
THREE_QUARTER_INCH_THRUCUT
 10
6.013002022425793
 20
28.65512221262985
 30
0.0
  0
VERTEX
  5
1A6
  8
THREE_QUARTER_INCH_THRUCUT
 10
6.02413329511158
 20
28.4210783188456
 30
0.0
  0
VERTEX
  5
1A7
  8
THREE_QUARTER_INCH_THRUCUT
 10
6.037295810311191
 20
28.18715804823886
 30
0.0
  0
VERTEX
  5
1A8
  8
THREE_QUARTER_INCH_THRUCUT
 10
6.052487674293543
 20
27.95336842856101
 30
0.0
  0
VERTEX
  5
1A9
  8
THREE_QUARTER_INCH_THRUCUT
 10
6.069706994697482
 20
27.71971648805366
 30
0.0
  0
VERTEX
  5
1AA
  8
THREE_QUARTER_INCH_THRUCUT
 10
6.088951880513816
 20
27.48620925548572
 30
0.0
  0
VERTEX
  5
1AB
  8
THREE_QUARTER_INCH_THRUCUT
 10
6.110220442066334
 20
27.25285376019018
 30
0.0
  0
VERTEX
  5
1AC
  8
THREE_QUARTER_INCH_THRUCUT
 10
6.133510790991847
 20
27.0196570320994
 30
0.0
  0
VERTEX
  5
1AD
  8
THREE_QUARTER_INCH_THRUCUT
 10
6.158821040218937
 20
26.7866261017799
 30
0.0
  0
VERTEX
  5
1AE
  8
THREE_QUARTER_INCH_THRUCUT
 10
6.186149303946008
 20
26.55376800046655
 30
0.0
  0
VERTEX
  5
1AF
  8
THREE_QUARTER_INCH_THRUCUT
 10
6.215493697617815
 20
26.32108976009486
 30
0.0
  0
VERTEX
  5
1B0
  8
THREE_QUARTER_INCH_THRUCUT
 10
6.246852337901869
 20
26.0885984133332
 30
0.0
  0
VERTEX
  5
1B1
  8
THREE_QUARTER_INCH_THRUCUT
 10
6.280223342663005
 20
25.85630099361286
 30
0.0
  0
VERTEX
  5
1B2
  8
THREE_QUARTER_INCH_THRUCUT
 10
6.315604830937771
 20
25.62420453515846
 30
0.0
  0
VERTEX
  5
1B3
  8
THREE_QUARTER_INCH_THRUCUT
 10
6.352994922908051
 20
25.39231607301609
 30
0.0
  0
VERTEX
  5
1B4
  8
THREE_QUARTER_INCH_THRUCUT
 10
6.392391739873331
 20
25.16064264308089
 30
0.0
  0
VERTEX
  5
1B5
  8
THREE_QUARTER_INCH_THRUCUT
 10
6.433793404223065
 20
24.92919128212257
 30
0.0
  0
VERTEX
  5
1B6
  8
THREE_QUARTER_INCH_THRUCUT
 10
6.477198039407609
 20
24.69796902781182
 30
0.0
  0
VERTEX
  5
1B7
  8
THREE_QUARTER_INCH_THRUCUT
 10
6.522603769909308
 20
24.46698291874314
 30
0.0
  0
VERTEX
  5
1B8
  8
THREE_QUARTER_INCH_THRUCUT
 10
6.570008721212487
 20
24.23623999445793
 30
0.0
  0
VERTEX
  5
1B9
  8
THREE_QUARTER_INCH_THRUCUT
 10
6.619411019773208
 20
24.00574729546575
 30
0.0
  0
VERTEX
  5
1BA
  8
THREE_QUARTER_INCH_THRUCUT
 10
6.67080879298838
 20
23.77551186326512
 30
0.0
  0
VERTEX
  5
1BB
  8
THREE_QUARTER_INCH_THRUCUT
 10
6.724200169164972
 20
23.54554074036206
 30
0.0
  0
VERTEX
  5
1BC
  8
THREE_QUARTER_INCH_THRUCUT
 10
6.779583277488014
 20
23.31584097028779
 30
0.0
  0
VERTEX
  5
1BD
  8
THREE_QUARTER_INCH_THRUCUT
 10
6.836956247989333
 20
23.08641959761631
 30
0.0
  0
VERTEX
  5
1BE
  8
THREE_QUARTER_INCH_THRUCUT
 10
6.896317211515152
 20
22.85728366797831
 30
0.0
  0
VERTEX
  5
1BF
  8
THREE_QUARTER_INCH_THRUCUT
 10
6.957664299694057
 20
22.62844022807654
 30
0.0
  0
VERTEX
  5
1C0
  8
THREE_QUARTER_INCH_THRUCUT
 10
7.020995644904628
 20
22.39989632569846
 30
0.0
  0
VERTEX
  5
1C1
  8
THREE_QUARTER_INCH_THRUCUT
 10
7.086309380242865
 20
22.17165900972712
 30
0.0
  0
VERTEX
  5
1C2
  8
THREE_QUARTER_INCH_THRUCUT
 10
7.153603639489701
 20
21.94373533015299
 30
0.0
  0
VERTEX
  5
1C3
  8
THREE_QUARTER_INCH_THRUCUT
 10
7.222876557078548
 20
21.71613233808237
 30
0.0
  0
VERTEX
  5
1C4
  8
THREE_QUARTER_INCH_THRUCUT
 10
7.294126268062696
 20
21.48885708574583
 30
0.0
  0
VERTEX
  5
1C5
  8
THREE_QUARTER_INCH_THRUCUT
 10
7.36735090808291
 20
21.26191662650545
 30
0.0
  0
VERTEX
  5
1C6
  8
THREE_QUARTER_INCH_THRUCUT
 10
7.442548613335232
 20
21.03531801486007
 30
0.0
  0
VERTEX
  5
1C7
  8
THREE_QUARTER_INCH_THRUCUT
 10
7.519717520538519
 20
20.80906830645095
 30
0.0
  0
VERTEX
  5
1C8
  8
THREE_QUARTER_INCH_THRUCUT
 10
7.598855766902814
 20
20.58317455806433
 30
0.0
  0
VERTEX
  5
1C9
  8
THREE_QUARTER_INCH_THRUCUT
 10
7.67996149009751
 20
20.35764382763476
 30
0.0
  0
VERTEX
  5
1CA
  8
THREE_QUARTER_INCH_THRUCUT
 10
7.763032828219691
 20
20.13248317424653
 30
0.0
  0
VERTEX
  5
1CB
  8
THREE_QUARTER_INCH_THRUCUT
 10
7.848067919763407
 20
19.90769965813364
 30
0.0
  0
VERTEX
  5
1CC
  8
THREE_QUARTER_INCH_THRUCUT
 10
7.935064903588268
 20
19.68330034067991
 30
0.0
  0
VERTEX
  5
1CD
  8
THREE_QUARTER_INCH_THRUCUT
 10
8.024021918889487
 20
19.45929228441683
 30
0.0
  0
VERTEX
  5
1CE
  8
THREE_QUARTER_INCH_THRUCUT
 10
8.11493710516764
 20
19.23568255302176
 30
0.0
  0
VERTEX
  5
1CF
  8
THREE_QUARTER_INCH_THRUCUT
 10
8.207808602198993
 20
19.01247821131379
 30
0.0
  0
VERTEX
  5
1D0
  8
THREE_QUARTER_INCH_THRUCUT
 10
8.30263455000623
 20
18.7896863252498
 30
0.0
  0
VERTEX
  5
1D1
  8
THREE_QUARTER_INCH_THRUCUT
 10
8.39941308883
 20
18.56731396191979
 30
0.0
  0
VERTEX
  5
1D2
  8
THREE_QUARTER_INCH_THRUCUT
 10
8.498142359100468
 20
18.34536818953983
 30
0.0
  0
VERTEX
  5
1D3
  8
THREE_QUARTER_INCH_THRUCUT
 10
8.598820501409689
 20
18.12385607744589
 30
0.0
  0
VERTEX
  5
1D4
  8
THREE_QUARTER_INCH_THRUCUT
 10
8.701445656484493
 20
17.9027846960863
 30
0.0
  0
VERTEX
  5
1D5
  8
THREE_QUARTER_INCH_THRUCUT
 10
8.806015965159856
 20
17.68216111701337
 30
0.0
  0
VERTEX
  5
1D6
  8
THREE_QUARTER_INCH_THRUCUT
 10
8.912529568352921
 20
17.46199241287387
 30
0.0
  0
VERTEX
  5
1D7
  8
THREE_QUARTER_INCH_THRUCUT
 10
9.020984607037446
 20
17.24228565740007
 30
0.0
  0
VERTEX
  5
1D8
  8
THREE_QUARTER_INCH_THRUCUT
 10
9.131379222219193
 20
17.02304792539881
 30
0.0
  0
VERTEX
  5
1D9
  8
THREE_QUARTER_INCH_THRUCUT
 10
9.243711554911426
 20
16.80428629274057
 30
0.0
  0
VERTEX
  5
1DA
  8
THREE_QUARTER_INCH_THRUCUT
 10
9.357979746111637
 20
16.58600783634834
 30
0.0
  0
VERTEX
  5
1DB
  8
THREE_QUARTER_INCH_THRUCUT
 10
9.474181936778434
 20
16.3682196341848
 30
0.0
  0
VERTEX
  5
1DC
  8
THREE_QUARTER_INCH_THRUCUT
 10
9.592316267809265
 20
16.15092876524021
 30
0.0
  0
VERTEX
  5
1DD
  8
THREE_QUARTER_INCH_THRUCUT
 10
9.712380880018754
 20
15.93414230951918
 30
0.0
  0
VERTEX
  5
1DE
  8
THREE_QUARTER_INCH_THRUCUT
 10
9.834373914117789
 20
15.71786734802684
 30
0.0
  0
VERTEX
  5
1DF
  8
THREE_QUARTER_INCH_THRUCUT
 10
9.958293510693194
 20
15.50211096275494
 30
0.0
  0
VERTEX
  5
1E0
  8
THREE_QUARTER_INCH_THRUCUT
 10
10.08403171571019
 20
15.28706168939583
 30
0.0
  0
VERTEX
  5
1E1
  8
THREE_QUARTER_INCH_THRUCUT
 10
10.12936968626006
 20
15.21207691838741
 30
0.0
  0
VERTEX
  5
1E2
  8
THREE_QUARTER_INCH_THRUCUT
 10
10.17630276552346
 20
15.13810469078918
 30
0.0
  0
VERTEX
  5
1E3
  8
THREE_QUARTER_INCH_THRUCUT
 10
10.22491974279954
 20
15.06497416213186
 30
0.0
  0
VERTEX
  5
1E4
  8
THREE_QUARTER_INCH_THRUCUT
 10
10.27519964503476
 20
14.99269605004132
 30
0.0
  0
VERTEX
  5
1E5
  8
THREE_QUARTER_INCH_THRUCUT
 10
10.32712146092136
 20
14.9212811481052
 30
0.0
  0
VERTEX
  5
1E6
  8
THREE_QUARTER_INCH_THRUCUT
 10
10.38066413741147
 20
14.85074031994758
 30
0.0
  0
VERTEX
  5
1E7
  8
THREE_QUARTER_INCH_THRUCUT
 10
10.43580657689726
 20
14.78108449325611
 30
0.0
  0
VERTEX
  5
1E8
  8
THREE_QUARTER_INCH_THRUCUT
 10
10.49252763502157
 20
14.71232465383683
 30
0.0
  0
VERTEX
  5
1E9
  8
THREE_QUARTER_INCH_THRUCUT
 10
10.5508061190731
 20
14.64447183976141
 30
0.0
  0
VERTEX
  5
1EA
  8
THREE_QUARTER_INCH_THRUCUT
 10
10.61062078692102
 20
14.57753713565988
 30
0.0
  0
VERTEX
  5
1EB
  8
THREE_QUARTER_INCH_THRUCUT
 10
10.6719503464396
 20
14.51153166720689
 30
0.0
  0
VERTEX
  5
1EC
  8
THREE_QUARTER_INCH_THRUCUT
 10
10.7347734553724
 20
14.44646659583474
 30
0.0
  0
VERTEX
  5
1ED
  8
THREE_QUARTER_INCH_THRUCUT
 10
10.79906872158703
 20
14.38235311370623
 30
0.0
  0
VERTEX
  5
1EE
  8
THREE_QUARTER_INCH_THRUCUT
 10
10.86481470367117
 20
14.31920243896285
 30
0.0
  0
VERTEX
  5
1EF
  8
THREE_QUARTER_INCH_THRUCUT
 10
10.93198991182372
 20
14.25702581126744
 30
0.0
  0
VERTEX
  5
1F0
  8
THREE_QUARTER_INCH_THRUCUT
 10
11.00057280899658
 20
14.19583448764728
 30
0.0
  0
VERTEX
  5
1F1
  8
THREE_QUARTER_INCH_THRUCUT
 10
11.07054181224531
 20
14.1356397386396
 30
0.0
  0
VERTEX
  5
1F2
  8
THREE_QUARTER_INCH_THRUCUT
 10
11.14187529425048
 20
14.07645284474096
 30
0.0
  0
VERTEX
  5
1F3
  8
THREE_QUARTER_INCH_THRUCUT
 10
11.21455158497495
 20
14.01828509315338
 30
0.0
  0
VERTEX
  5
1F4
  8
THREE_QUARTER_INCH_THRUCUT
 10
11.28854897342465
 20
13.96114777482
 30
0.0
  0
VERTEX
  5
1F5
  8
THREE_QUARTER_INCH_THRUCUT
 10
11.36384570948498
 20
13.90505218173927
 30
0.0
  0
VERTEX
  5
1F6
  8
THREE_QUARTER_INCH_THRUCUT
 10
11.4404200058073
 20
13.85000960454657
 30
0.0
  0
VERTEX
  5
1F7
  8
THREE_QUARTER_INCH_THRUCUT
 10
11.51825003972404
 20
13.79603133034754
 30
0.0
  0
VERTEX
  5
1F8
  8
THREE_QUARTER_INCH_THRUCUT
 10
11.59731395517234
 20
13.74312864079126
 30
0.0
  0
VERTEX
  5
1F9
  8
THREE_QUARTER_INCH_THRUCUT
 10
11.67758986461091
 20
13.69131281036526
 30
0.0
  0
VERTEX
  5
1FA
  8
THREE_QUARTER_INCH_THRUCUT
 10
11.75905585091566
 20
13.64059510489971
 30
0.0
  0
VERTEX
  5
1FB
  8
THREE_QUARTER_INCH_THRUCUT
 10
11.84168996924283
 20
13.59098678026327
 30
0.0
  0
VERTEX
  5
1FC
  8
THREE_QUARTER_INCH_THRUCUT
 10
11.92547024885051
 20
13.54249908123676
 30
0.0
  0
VERTEX
  5
1FD
  8
THREE_QUARTER_INCH_THRUCUT
 10
12.01037469487066
 20
13.49514324054961
 30
0.0
  0
VERTEX
  5
1FE
  8
THREE_QUARTER_INCH_THRUCUT
 10
12.09638129002614
 20
13.44893047806487
 30
0.0
  0
VERTEX
  5
1FF
  8
THREE_QUARTER_INCH_THRUCUT
 10
12.18346799628874
 20
13.40387200009888
 30
0.0
  0
VERTEX
  5
200
  8
THREE_QUARTER_INCH_THRUCUT
 10
12.27161275647459
 20
13.35997899886467
 30
0.0
  0
VERTEX
  5
201
  8
THREE_QUARTER_INCH_THRUCUT
 10
12.36079349577578
 20
13.31726265202336
 30
0.0
  0
VERTEX
  5
202
  8
THREE_QUARTER_INCH_THRUCUT
 10
12.45098812322668
 20
13.27573412233697
 30
0.0
  0
VERTEX
  5
203
  8
THREE_QUARTER_INCH_THRUCUT
 10
12.54217453310564
 20
13.23540455740782
 30
0.0
  0
VERTEX
  5
204
  8
THREE_QUARTER_INCH_THRUCUT
 10
12.63433060627186
 20
13.19628508949869
 30
0.0
  0
VERTEX
  5
205
  8
THREE_QUARTER_INCH_THRUCUT
 10
12.72743421143964
 20
13.15838683542176
 30
0.0
  0
VERTEX
  5
206
  8
THREE_QUARTER_INCH_THRUCUT
 10
12.82146320639045
 20
13.12172089648981
 30
0.0
  0
VERTEX
  5
207
  8
THREE_QUARTER_INCH_THRUCUT
 10
12.91639543912576
 20
13.08629835852297
 30
0.0
  0
VERTEX
  5
208
  8
THREE_QUARTER_INCH_THRUCUT
 10
13.0122087489628
 20
13.05213029190246
 30
0.0
  0
VERTEX
  5
209
  8
THREE_QUARTER_INCH_THRUCUT
 10
13.10888096757547
 20
13.01922775166723
 30
0.0
  0
VERTEX
  5
20A
  8
THREE_QUARTER_INCH_THRUCUT
 10
13.20638991998326
 20
12.98760177764688
 30
0.0
  0
VERTEX
  5
20B
  8
THREE_QUARTER_INCH_THRUCUT
 10
13.30471342549093
 20
12.95726339462668
 30
0.0
  0
VERTEX
  5
20C
  8
THREE_QUARTER_INCH_THRUCUT
 10
13.40382929858198
 20
12.92822361254058
 30
0.0
  0
VERTEX
  5
20D
  8
THREE_QUARTER_INCH_THRUCUT
 10
13.50371534976806
 20
12.90049342668896
 30
0.0
  0
VERTEX
  5
20E
  8
THREE_QUARTER_INCH_THRUCUT
 10
13.60434938639828
 20
12.87408381797558
 30
0.0
  0
VERTEX
  5
20F
  8
THREE_QUARTER_INCH_THRUCUT
 10
13.70570921343004
 20
12.84900575316543
 30
0.0
  0
VERTEX
  5
210
  8
THREE_QUARTER_INCH_THRUCUT
 10
13.80777263416466
 20
12.82527018515576
 30
0.0
  0
VERTEX
  5
211
  8
THREE_QUARTER_INCH_THRUCUT
 10
13.91051745095056
 20
12.80288805326335
 30
0.0
  0
VERTEX
  5
212
  8
THREE_QUARTER_INCH_THRUCUT
 10
14.01392146585589
 20
12.7818702835226
 30
0.0
  0
VERTEX
  5
213
  8
THREE_QUARTER_INCH_THRUCUT
 10
14.11796248131345
 20
12.76222778899568
 30
0.0
  0
VERTEX
  5
214
  8
THREE_QUARTER_INCH_THRUCUT
 10
14.22261830074022
 20
12.74397147009175
 30
0.0
  0
VERTEX
  5
215
  8
THREE_QUARTER_INCH_THRUCUT
 10
14.32786672913288
 20
12.72711221489645
 30
0.0
  0
VERTEX
  5
216
  8
THREE_QUARTER_INCH_THRUCUT
 10
14.43368557364239
 20
12.71166089950929
 30
0.0
  0
VERTEX
  5
217
  8
THREE_QUARTER_INCH_THRUCUT
 10
14.54005264412795
 20
12.69762838839016
 30
0.0
  0
VERTEX
  5
218
  8
THREE_QUARTER_INCH_THRUCUT
 10
14.64694575369363
 20
12.68502553471386
 30
0.0
  0
VERTEX
  5
219
  8
THREE_QUARTER_INCH_THRUCUT
 10
14.7543427192076
 20
12.67386318073237
 30
0.0
  0
VERTEX
  5
21A
  8
THREE_QUARTER_INCH_THRUCUT
 10
14.86222136180628
 20
12.66415215814719
 30
0.0
  0
VERTEX
  5
21B
  8
THREE_QUARTER_INCH_THRUCUT
 10
14.97055950738398
 20
12.65590328848906
 30
0.0
  0
VERTEX
  5
21C
  8
THREE_QUARTER_INCH_THRUCUT
 10
15.07933498706926
 20
12.64912738350744
 30
0.0
  0
VERTEX
  5
21D
  8
THREE_QUARTER_INCH_THRUCUT
 10
15.18852563768841
 20
12.64383524557035
 30
0.0
  0
VERTEX
  5
21E
  8
THREE_QUARTER_INCH_THRUCUT
 10
15.29810930221718
 20
12.6400376680741
 30
0.0
  0
VERTEX
  5
21F
  8
THREE_QUARTER_INCH_THRUCUT
 10
15.40806383022077
 20
12.63774543586429
 30
0.0
  0
VERTEX
  5
220
  8
THREE_QUARTER_INCH_THRUCUT
 10
15.51857064832298
 20
12.63696789331901
 30
0.0
  0
VERTEX
  5
221
  8
THREE_QUARTER_INCH_THRUCUT
 10
17.01306758678082
 20
12.63696890086895
 30
0.0
  0
VERTEX
  5
222
  8
THREE_QUARTER_INCH_THRUCUT
 10
94.20015080289605
 20
12.63697093892958
 30
0.0
  0
VERTEX
  5
223
  8
THREE_QUARTER_INCH_THRUCUT
 10
94.20015080289599
 20
47.034980212425
 30
0.0
  0
VERTEX
  5
224
  8
THREE_QUARTER_INCH_THRUCUT
 10
17.01306443326818
 20
47.03497964425888
 30
0.0
  0
VERTEX
  5
225
  8
THREE_QUARTER_INCH_THRUCUT
 10
16.9918261494751
 20
47.0388642691796
 30
0.0
  0
VERTEX
  5
226
  8
THREE_QUARTER_INCH_THRUCUT
 10
15.51857070625154
 20
47.03886241758879
 30
0.0
  0
VERTEX
  5
227
  8
THREE_QUARTER_INCH_THRUCUT
 10
15.40806383022074
 20
47.03808487463594
 30
0.0
  0
VERTEX
  5
228
  8
THREE_QUARTER_INCH_THRUCUT
 10
15.29810930221721
 20
47.03579264242613
 30
0.0
  0
VERTEX
  5
229
  8
THREE_QUARTER_INCH_THRUCUT
 10
15.18852563768838
 20
47.03199506492989
 30
0.0
  0
VERTEX
  5
22A
  8
THREE_QUARTER_INCH_THRUCUT
 10
15.07933498706926
 20
47.0267029269928
 30
0.0
  0
VERTEX
  5
22B
  8
THREE_QUARTER_INCH_THRUCUT
 10
14.97055950738398
 20
47.01992702201117
 30
0.0
  0
VERTEX
  5
22C
  8
THREE_QUARTER_INCH_THRUCUT
 10
14.86222136180628
 20
47.01167815235293
 30
0.0
  0
VERTEX
  5
22D
  8
THREE_QUARTER_INCH_THRUCUT
 10
14.7543427192076
 20
47.00196712976786
 30
0.0
  0
VERTEX
  5
22E
  8
THREE_QUARTER_INCH_THRUCUT
 10
14.6469457536936
 20
46.99080477578637
 30
0.0
  0
VERTEX
  5
22F
  8
THREE_QUARTER_INCH_THRUCUT
 10
14.54005264412795
 20
46.97820192211007
 30
0.0
  0
VERTEX
  5
230
  8
THREE_QUARTER_INCH_THRUCUT
 10
14.43368557364236
 20
46.96416941099095
 30
0.0
  0
VERTEX
  5
231
  8
THREE_QUARTER_INCH_THRUCUT
 10
14.32786672913288
 20
46.94871809560378
 30
0.0
  0
VERTEX
  5
232
  8
THREE_QUARTER_INCH_THRUCUT
 10
14.22261830074019
 20
46.93185884040848
 30
0.0
  0
VERTEX
  5
233
  8
THREE_QUARTER_INCH_THRUCUT
 10
14.11796248131345
 20
46.91360252150456
 30
0.0
  0
VERTEX
  5
234
  8
THREE_QUARTER_INCH_THRUCUT
 10
14.01392146585589
 20
46.89396002697764
 30
0.0
  0
VERTEX
  5
235
  8
THREE_QUARTER_INCH_THRUCUT
 10
13.91051745095059
 20
46.87294225723689
 30
0.0
  0
VERTEX
  5
236
  8
THREE_QUARTER_INCH_THRUCUT
 10
13.80777263416466
 20
46.85056012534447
 30
0.0
  0
VERTEX
  5
237
  8
THREE_QUARTER_INCH_THRUCUT
 10
13.70570921343004
 20
46.82682455733492
 30
0.0
  0
VERTEX
  5
238
  8
THREE_QUARTER_INCH_THRUCUT
 10
13.60434938639828
 20
46.80174649252466
 30
0.0
  0
VERTEX
  5
239
  8
THREE_QUARTER_INCH_THRUCUT
 10
13.50371534976806
 20
46.77533688381139
 30
0.0
  0
VERTEX
  5
23A
  8
THREE_QUARTER_INCH_THRUCUT
 10
13.40382929858198
 20
46.74760669795965
 30
0.0
  0
VERTEX
  5
23B
  8
THREE_QUARTER_INCH_THRUCUT
 10
13.30471342549096
 20
46.71856691587355
 30
0.0
  0
VERTEX
  5
23C
  8
THREE_QUARTER_INCH_THRUCUT
 10
13.20638991998326
 20
46.68822853285336
 30
0.0
  0
VERTEX
  5
23D
  8
THREE_QUARTER_INCH_THRUCUT
 10
13.10888096757547
 20
46.656602558833
 30
0.0
  0
VERTEX
  5
23E
  8
THREE_QUARTER_INCH_THRUCUT
 10
13.0122087489628
 20
46.62370001859777
 30
0.0
  0
VERTEX
  5
23F
  8
THREE_QUARTER_INCH_THRUCUT
 10
12.91639543912576
 20
46.58953195197726
 30
0.0
  0
VERTEX
  5
240
  8
THREE_QUARTER_INCH_THRUCUT
 10
12.82146320639042
 20
46.55410941401043
 30
0.0
  0
VERTEX
  5
241
  8
THREE_QUARTER_INCH_THRUCUT
 10
12.72743421143964
 20
46.51744347507848
 30
0.0
  0
VERTEX
  5
242
  8
THREE_QUARTER_INCH_THRUCUT
 10
12.63433060627186
 20
46.47954522100154
 30
0.0
  0
VERTEX
  5
243
  8
THREE_QUARTER_INCH_THRUCUT
 10
12.54217453310561
 20
46.44042575309241
 30
0.0
  0
VERTEX
  5
244
  8
THREE_QUARTER_INCH_THRUCUT
 10
12.45098812322668
 20
46.40009618816337
 30
0.0
  0
VERTEX
  5
245
  8
THREE_QUARTER_INCH_THRUCUT
 10
12.36079349577578
 20
46.35856765847687
 30
0.0
  0
VERTEX
  5
246
  8
THREE_QUARTER_INCH_THRUCUT
 10
12.27161275647459
 20
46.31585131163557
 30
0.0
  0
VERTEX
  5
247
  8
THREE_QUARTER_INCH_THRUCUT
 10
12.18346799628874
 20
46.27195831040125
 30
0.0
  0
VERTEX
  5
248
  8
THREE_QUARTER_INCH_THRUCUT
 10
12.09638129002614
 20
46.22689983243536
 30
0.0
  0
SEQEND
  5
30B
  8
THREE_QUARTER_INCH_THRUCUT
  0
POLYLINE
  5
95
  8
THREE_QUARTER_INCH_THRUCUT
 66
     1
 10
0.0
 20
0.0
 30
0.0
 70
     1
  0
VERTEX
  5
249
  8
THREE_QUARTER_INCH_THRUCUT
 10
52.25017804295601
 20
7.070191273682624
 30
0.0
 42
0.4142135623730951
  0
VERTEX
  5
24A
  8
THREE_QUARTER_INCH_THRUCUT
 10
52.38018087038779
 20
7.200188446189102
 30
0.0
 42
0.4142135623730951
  0
VERTEX
  5
24B
  8
THREE_QUARTER_INCH_THRUCUT
 10
52.25018369788143
 20
7.330191273621168
 30
0.0
 42
0.4142135623730951
  0
VERTEX
  5
24C
  8
THREE_QUARTER_INCH_THRUCUT
 10
52.12018087044942
 20
7.200194101114576
 30
0.0
 42
0.4142135623730951
  0
SEQEND
  5
30C
  8
THREE_QUARTER_INCH_THRUCUT
  0
POLYLINE
  5
96
  8
THREE_QUARTER_INCH_THRUCUT
 66
     1
 10
0.0
 20
0.0
 30
0.0
 70
     1
  0
VERTEX
  5
24D
  8
THREE_QUARTER_INCH_THRUCUT
 10
52.25019104410319
 20
2.687312461642776
 30
0.0
 42
0.4142135623730951
  0
VERTEX
  5
24E
  8
THREE_QUARTER_INCH_THRUCUT
 10
52.38019387153543
 20
2.817309634149311
 30
0.0
 42
0.4142135623730951
  0
VERTEX
  5
24F
  8
THREE_QUARTER_INCH_THRUCUT
 10
52.25019669902861
 20
2.947312461581205
 30
0.0
 42
0.4142135623730951
  0
VERTEX
  5
250
  8
THREE_QUARTER_INCH_THRUCUT
 10
52.1201938715966
 20
2.817315289074671
 30
0.0
 42
0.4142135623730951
  0
SEQEND
  5
30D
  8
THREE_QUARTER_INCH_THRUCUT
  0
POLYLINE
  5
97
  8
THREE_QUARTER_INCH_THRUCUT
 66
     1
 10
0.0
 20
0.0
 30
0.0
 70
     1
  0
VERTEX
  5
251
  8
THREE_QUARTER_INCH_THRUCUT
 10
49.86729923935252
 20
7.070191277592684
 30
0.0
 42
0.4142135623730951
  0
VERTEX
  5
252
  8
THREE_QUARTER_INCH_THRUCUT
 10
49.9973020667843
 20
7.200188450099162
 30
0.0
 42
0.4142135623730951
  0
VERTEX
  5
253
  8
THREE_QUARTER_INCH_THRUCUT
 10
49.86730489427794
 20
7.330191277531227
 30
0.0
 42
0.4142135623730951
  0
VERTEX
  5
254
  8
THREE_QUARTER_INCH_THRUCUT
 10
49.73730206684593
 20
7.200194105024636
 30
0.0
 42
0.4142135623730951
  0
SEQEND
  5
30E
  8
THREE_QUARTER_INCH_THRUCUT
  0
POLYLINE
  5
98
  8
THREE_QUARTER_INCH_THRUCUT
 66
     1
 10
0.0
 20
0.0
 30
0.0
 70
     1
  0
VERTEX
  5
255
  8
THREE_QUARTER_INCH_THRUCUT
 10
49.8673122404997
 20
2.687312465552836
 30
0.0
 42
0.4142135623730951
  0
VERTEX
  5
256
  8
THREE_QUARTER_INCH_THRUCUT
 10
49.99731506793194
 20
2.817309638059371
 30
0.0
 42
0.4142135623730951
  0
VERTEX
  5
257
  8
THREE_QUARTER_INCH_THRUCUT
 10
49.86731789542512
 20
2.947312465491265
 30
0.0
 42
0.4142135623730951
  0
VERTEX
  5
258
  8
THREE_QUARTER_INCH_THRUCUT
 10
49.73731506799311
 20
2.81731529298473
 30
0.0
 42
0.4142135623730951
  0
SEQEND
  5
30F
  8
THREE_QUARTER_INCH_THRUCUT
  0
POLYLINE
  5
99
  8
THREE_QUARTER_INCH_THRUCUT
 66
     1
 10
0.0
 20
0.0
 30
0.0
 70
     1
  0
VERTEX
  5
259
  8
THREE_QUARTER_INCH_THRUCUT
 10
51.05874797268359
 20
4.878751871616331
 30
0.0
 42
-0.4142135623730951
  0
VERTEX
  5
25A
  8
THREE_QUARTER_INCH_THRUCUT
 10
50.92874797268371
 20
5.008751871616326
 30
0.0
 42
-0.4142135623730951
  0
VERTEX
  5
25B
  8
THREE_QUARTER_INCH_THRUCUT
 10
51.05874797268359
 20
5.138751871616321
 30
0.0
 42
-0.4142135623730951
  0
VERTEX
  5
25C
  8
THREE_QUARTER_INCH_THRUCUT
 10
51.1887479726837
 20
5.00875187161644
 30
0.0
 42
-0.4142135623730951
  0
SEQEND
  5
310
  8
THREE_QUARTER_INCH_THRUCUT
  0
POLYLINE
  5
9A
  8
THREE_QUARTER_INCH_THRUCUT
 66
     1
 10
0.0
 20
0.0
 30
0.0
 70
     1
  0
VERTEX
  5
25D
  8
THREE_QUARTER_INCH_THRUCUT
 10
52.25017804294828
 20
7.070191273660853
 30
0.0
 42
0.4142135623730951
  0
VERTEX
  5
25E
  8
THREE_QUARTER_INCH_THRUCUT
 10
52.38018087038006
 20
7.200188446167331
 30
0.0
 42
0.4142135623730951
  0
VERTEX
  5
25F
  8
THREE_QUARTER_INCH_THRUCUT
 10
52.25018369787369
 20
7.330191273599397
 30
0.0
 42
0.4142135623730951
  0
VERTEX
  5
260
  8
THREE_QUARTER_INCH_THRUCUT
 10
52.12018087044169
 20
7.200194101092805
 30
0.0
 42
0.4142135623730951
  0
SEQEND
  5
311
  8
THREE_QUARTER_INCH_THRUCUT
  0
POLYLINE
  5
9B
  8
THREE_QUARTER_INCH_THRUCUT
 66
     1
 10
0.0
 20
0.0
 30
0.0
 70
     1
  0
VERTEX
  5
261
  8
THREE_QUARTER_INCH_THRUCUT
 10
52.25019104409546
 20
2.687312461621005
 30
0.0
 42
0.4142135623730951
  0
VERTEX
  5
262
  8
THREE_QUARTER_INCH_THRUCUT
 10
52.38019387152769
 20
2.81730963412754
 30
0.0
 42
0.4142135623730951
  0
VERTEX
  5
263
  8
THREE_QUARTER_INCH_THRUCUT
 10
52.25019669902088
 20
2.947312461559434
 30
0.0
 42
0.4142135623730951
  0
VERTEX
  5
264
  8
THREE_QUARTER_INCH_THRUCUT
 10
52.12019387158887
 20
2.8173152890529
 30
0.0
 42
0.4142135623730951
  0
SEQEND
  5
312
  8
THREE_QUARTER_INCH_THRUCUT
  0
POLYLINE
  5
9C
  8
THREE_QUARTER_INCH_THRUCUT
 66
     1
 10
0.0
 20
0.0
 30
0.0
 70
     1
  0
VERTEX
  5
265
  8
THREE_QUARTER_INCH_THRUCUT
 10
49.86729923934479
 20
7.070191277570913
 30
0.0
 42
0.4142135623730951
  0
VERTEX
  5
266
  8
THREE_QUARTER_INCH_THRUCUT
 10
49.99730206677657
 20
7.200188450077391
 30
0.0
 42
0.4142135623730951
  0
VERTEX
  5
267
  8
THREE_QUARTER_INCH_THRUCUT
 10
49.86730489427021
 20
7.330191277509456
 30
0.0
 42
0.4142135623730951
  0
VERTEX
  5
268
  8
THREE_QUARTER_INCH_THRUCUT
 10
49.7373020668382
 20
7.200194105002865
 30
0.0
 42
0.4142135623730951
  0
SEQEND
  5
313
  8
THREE_QUARTER_INCH_THRUCUT
  0
POLYLINE
  5
9D
  8
THREE_QUARTER_INCH_THRUCUT
 66
     1
 10
0.0
 20
0.0
 30
0.0
 70
     1
  0
VERTEX
  5
269
  8
THREE_QUARTER_INCH_THRUCUT
 10
49.86731224049197
 20
2.687312465531065
 30
0.0
 42
0.4142135623730951
  0
VERTEX
  5
26A
  8
THREE_QUARTER_INCH_THRUCUT
 10
49.99731506792421
 20
2.817309638037599
 30
0.0
 42
0.4142135623730951
  0
VERTEX
  5
26B
  8
THREE_QUARTER_INCH_THRUCUT
 10
49.86731789541739
 20
2.947312465469494
 30
0.0
 42
0.4142135623730951
  0
VERTEX
  5
26C
  8
THREE_QUARTER_INCH_THRUCUT
 10
49.73731506798538
 20
2.817315292962959
 30
0.0
 42
0.4142135623730951
  0
SEQEND
  5
314
  8
THREE_QUARTER_INCH_THRUCUT
  0
POLYLINE
  5
9E
  8
THREE_QUARTER_INCH_THRUCUT
 66
     1
 10
0.0
 20
0.0
 30
0.0
 70
     1
  0
VERTEX
  5
26D
  8
THREE_QUARTER_INCH_THRUCUT
 10
51.05874797267575
 20
4.878751871594559
 30
0.0
 42
-0.4142135623730951
  0
VERTEX
  5
26E
  8
THREE_QUARTER_INCH_THRUCUT
 10
50.92874797267586
 20
5.008751871594555
 30
0.0
 42
-0.4142135623730951
  0
VERTEX
  5
26F
  8
THREE_QUARTER_INCH_THRUCUT
 10
51.05874797267575
 20
5.13875187159455
 30
0.0
 42
-0.4142135623730951
  0
VERTEX
  5
270
  8
THREE_QUARTER_INCH_THRUCUT
 10
51.18874797267586
 20
5.008751871594669
 30
0.0
 42
-0.4142135623730951
  0
SEQEND
  5
315
  8
THREE_QUARTER_INCH_THRUCUT
  0
POLYLINE
  5
9F
  8
THREE_QUARTER_INCH_THRUCUT
 66
     1
 10
0.0
 20
0.0
 30
0.0
 70
     1
  0
VERTEX
  5
271
  8
THREE_QUARTER_INCH_THRUCUT
 10
88.27188559860554
 20
7.070191273660853
 30
0.0
 42
-0.4142135623730951
  0
VERTEX
  5
272
  8
THREE_QUARTER_INCH_THRUCUT
 10
88.14188277117375
 20
7.200188446167331
 30
0.0
 42
-0.4142135623730951
  0
VERTEX
  5
273
  8
THREE_QUARTER_INCH_THRUCUT
 10
88.27187994368012
 20
7.330191273599397
 30
0.0
 42
-0.4142135623730951
  0
VERTEX
  5
274
  8
THREE_QUARTER_INCH_THRUCUT
 10
88.40188277111213
 20
7.200194101092805
 30
0.0
 42
-0.4142135623730951
  0
SEQEND
  5
316
  8
THREE_QUARTER_INCH_THRUCUT
  0
POLYLINE
  5
A0
  8
THREE_QUARTER_INCH_THRUCUT
 66
     1
 10
0.0
 20
0.0
 30
0.0
 70
     1
  0
VERTEX
  5
275
  8
THREE_QUARTER_INCH_THRUCUT
 10
88.27187259745835
 20
2.687312461621005
 30
0.0
 42
-0.4142135623730951
  0
VERTEX
  5
276
  8
THREE_QUARTER_INCH_THRUCUT
 10
88.14186977002612
 20
2.81730963412754
 30
0.0
 42
-0.4142135623730951
  0
VERTEX
  5
277
  8
THREE_QUARTER_INCH_THRUCUT
 10
88.27186694253294
 20
2.947312461559434
 30
0.0
 42
-0.4142135623730951
  0
VERTEX
  5
278
  8
THREE_QUARTER_INCH_THRUCUT
 10
88.40186976996495
 20
2.8173152890529
 30
0.0
 42
-0.4142135623730951
  0
SEQEND
  5
317
  8
THREE_QUARTER_INCH_THRUCUT
  0
POLYLINE
  5
A1
  8
THREE_QUARTER_INCH_THRUCUT
 66
     1
 10
0.0
 20
0.0
 30
0.0
 70
     1
  0
VERTEX
  5
279
  8
THREE_QUARTER_INCH_THRUCUT
 10
90.65476440220903
 20
7.070191277570913
 30
0.0
 42
-0.4142135623730951
  0
VERTEX
  5
27A
  8
THREE_QUARTER_INCH_THRUCUT
 10
90.52476157477724
 20
7.200188450077391
 30
0.0
 42
-0.4142135623730951
  0
VERTEX
  5
27B
  8
THREE_QUARTER_INCH_THRUCUT
 10
90.65475874728361
 20
7.330191277509456
 30
0.0
 42
-0.4142135623730951
  0
VERTEX
  5
27C
  8
THREE_QUARTER_INCH_THRUCUT
 10
90.78476157471562
 20
7.200194105002865
 30
0.0
 42
-0.4142135623730951
  0
SEQEND
  5
318
  8
THREE_QUARTER_INCH_THRUCUT
  0
POLYLINE
  5
A2
  8
THREE_QUARTER_INCH_THRUCUT
 66
     1
 10
0.0
 20
0.0
 30
0.0
 70
     1
  0
VERTEX
  5
27D
  8
THREE_QUARTER_INCH_THRUCUT
 10
90.65475140106184
 20
2.687312465531065
 30
0.0
 42
-0.4142135623730951
  0
VERTEX
  5
27E
  8
THREE_QUARTER_INCH_THRUCUT
 10
90.52474857362961
 20
2.817309638037599
 30
0.0
 42
-0.4142135623730951
  0
VERTEX
  5
27F
  8
THREE_QUARTER_INCH_THRUCUT
 10
90.65474574613643
 20
2.947312465469494
 30
0.0
 42
-0.4142135623730951
  0
VERTEX
  5
280
  8
THREE_QUARTER_INCH_THRUCUT
 10
90.78474857356844
 20
2.817315292962959
 30
0.0
 42
-0.4142135623730951
  0
SEQEND
  5
319
  8
THREE_QUARTER_INCH_THRUCUT
  0
POLYLINE
  5
A3
  8
THREE_QUARTER_INCH_THRUCUT
 66
     1
 10
0.0
 20
0.0
 30
0.0
 70
     1
  0
VERTEX
  5
281
  8
THREE_QUARTER_INCH_THRUCUT
 10
89.46331566887807
 20
4.878751871594559
 30
0.0
 42
0.4142135623730951
  0
VERTEX
  5
282
  8
THREE_QUARTER_INCH_THRUCUT
 10
89.59331566887795
 20
5.008751871594555
 30
0.0
 42
0.4142135623730951
  0
VERTEX
  5
283
  8
THREE_QUARTER_INCH_THRUCUT
 10
89.46331566887807
 20
5.13875187159455
 30
0.0
 42
0.4142135623730951
  0
VERTEX
  5
284
  8
THREE_QUARTER_INCH_THRUCUT
 10
89.33331566887796
 20
5.008751871594669
 30
0.0
 42
0.4142135623730951
  0
SEQEND
  5
31A
  8
THREE_QUARTER_INCH_THRUCUT
  0
POLYLINE
  5
A4
  8
THREE_QUARTER_INCH_THRUCUT
 66
     1
 10
0.0
 20
0.0
 30
0.0
 70
     1
  0
VERTEX
  5
285
  8
THREE_QUARTER_INCH_THRUCUT
 10
88.26817080741137
 20
7.070191273682624
 30
0.0
 42
-0.4142135623730951
  0
VERTEX
  5
286
  8
THREE_QUARTER_INCH_THRUCUT
 10
88.13816797997958
 20
7.200188446189102
 30
0.0
 42
-0.4142135623730951
  0
VERTEX
  5
287
  8
THREE_QUARTER_INCH_THRUCUT
 10
88.26816515248595
 20
7.330191273621168
 30
0.0
 42
-0.4142135623730951
  0
VERTEX
  5
288
  8
THREE_QUARTER_INCH_THRUCUT
 10
88.39816797991796
 20
7.200194101114576
 30
0.0
 42
-0.4142135623730951
  0
SEQEND
  5
31B
  8
THREE_QUARTER_INCH_THRUCUT
  0
POLYLINE
  5
A5
  8
THREE_QUARTER_INCH_THRUCUT
 66
     1
 10
0.0
 20
0.0
 30
0.0
 70
     1
  0
VERTEX
  5
289
  8
THREE_QUARTER_INCH_THRUCUT
 10
88.26815780626418
 20
2.687312461642776
 30
0.0
 42
-0.4142135623730951
  0
VERTEX
  5
28A
  8
THREE_QUARTER_INCH_THRUCUT
 10
88.13815497883195
 20
2.817309634149311
 30
0.0
 42
-0.4142135623730951
  0
VERTEX
  5
28B
  8
THREE_QUARTER_INCH_THRUCUT
 10
88.26815215133877
 20
2.947312461581205
 30
0.0
 42
-0.4142135623730951
  0
VERTEX
  5
28C
  8
THREE_QUARTER_INCH_THRUCUT
 10
88.39815497877078
 20
2.817315289074671
 30
0.0
 42
-0.4142135623730951
  0
SEQEND
  5
31C
  8
THREE_QUARTER_INCH_THRUCUT
  0
POLYLINE
  5
A6
  8
THREE_QUARTER_INCH_THRUCUT
 66
     1
 10
0.0
 20
0.0
 30
0.0
 70
     1
  0
VERTEX
  5
28D
  8
THREE_QUARTER_INCH_THRUCUT
 10
90.65104961101486
 20
7.070191277592684
 30
0.0
 42
-0.4142135623730951
  0
VERTEX
  5
28E
  8
THREE_QUARTER_INCH_THRUCUT
 10
90.52104678358307
 20
7.200188450099162
 30
0.0
 42
-0.4142135623730951
  0
VERTEX
  5
28F
  8
THREE_QUARTER_INCH_THRUCUT
 10
90.65104395608944
 20
7.330191277531227
 30
0.0
 42
-0.4142135623730951
  0
VERTEX
  5
290
  8
THREE_QUARTER_INCH_THRUCUT
 10
90.78104678352145
 20
7.200194105024636
 30
0.0
 42
-0.4142135623730951
  0
SEQEND
  5
31D
  8
THREE_QUARTER_INCH_THRUCUT
  0
POLYLINE
  5
A7
  8
THREE_QUARTER_INCH_THRUCUT
 66
     1
 10
0.0
 20
0.0
 30
0.0
 70
     1
  0
VERTEX
  5
291
  8
THREE_QUARTER_INCH_THRUCUT
 10
90.65103660986767
 20
2.687312465552836
 30
0.0
 42
-0.4142135623730951
  0
VERTEX
  5
292
  8
THREE_QUARTER_INCH_THRUCUT
 10
90.52103378243544
 20
2.817309638059371
 30
0.0
 42
-0.4142135623730951
  0
VERTEX
  5
293
  8
THREE_QUARTER_INCH_THRUCUT
 10
90.65103095494226
 20
2.947312465491265
 30
0.0
 42
-0.4142135623730951
  0
VERTEX
  5
294
  8
THREE_QUARTER_INCH_THRUCUT
 10
90.78103378237427
 20
2.81731529298473
 30
0.0
 42
-0.4142135623730951
  0
SEQEND
  5
31E
  8
THREE_QUARTER_INCH_THRUCUT
  0
POLYLINE
  5
A8
  8
THREE_QUARTER_INCH_THRUCUT
 66
     1
 10
0.0
 20
0.0
 30
0.0
 70
     1
  0
VERTEX
  5
295
  8
THREE_QUARTER_INCH_THRUCUT
 10
89.45960087768378
 20
4.878751871616331
 30
0.0
 42
0.4142135623730951
  0
VERTEX
  5
296
  8
THREE_QUARTER_INCH_THRUCUT
 10
89.58960087768367
 20
5.008751871616326
 30
0.0
 42
0.4142135623730951
  0
VERTEX
  5
297
  8
THREE_QUARTER_INCH_THRUCUT
 10
89.45960087768378
 20
5.138751871616321
 30
0.0
 42
0.4142135623730951
  0
VERTEX
  5
298
  8
THREE_QUARTER_INCH_THRUCUT
 10
89.32960087768367
 20
5.00875187161644
 30
0.0
 42
0.4142135623730951
  0
SEQEND
  5
31F
  8
THREE_QUARTER_INCH_THRUCUT
  0
POLYLINE
  5
A9
  8
THREE_QUARTER_INCH_THRUCUT
 66
     1
 10
0.0
 20
0.0
 30
0.0
 70
     1
  0
VERTEX
  5
299
  8
THREE_QUARTER_INCH_THRUCUT
 10
87.39189955149754
 20
8.63918949661111
 30
0.0
  0
VERTEX
  5
29A
  8
THREE_QUARTER_INCH_THRUCUT
 10
87.6520636414632
 20
8.639189496628958
 30
0.0
  0
VERTEX
  5
29B
  8
THREE_QUARTER_INCH_THRUCUT
 10
87.6520636414632
 20
9.126366400991245
 30
0.0
  0
VERTEX
  5
29C
  8
THREE_QUARTER_INCH_THRUCUT
 10
88.33821941141491
 20
9.12636640098124
 30
0.0
 42
1.0
  0
VERTEX
  5
29D
  8
THREE_QUARTER_INCH_THRUCUT
 10
88.5220671745119
 20
9.310211875720213
 30
0.0
  0
VERTEX
  5
29E
  8
THREE_QUARTER_INCH_THRUCUT
 10
88.52206882131713
 20
9.442516324175656
 30
0.0
 42
1.0
  0
VERTEX
  5
29F
  8
THREE_QUARTER_INCH_THRUCUT
 10
88.33822105215245
 20
9.626366375653632
 30
0.0
  0
VERTEX
  5
2A0
  8
THREE_QUARTER_INCH_THRUCUT
 10
87.6520636414632
 20
9.626366352998346
 30
0.0
  0
VERTEX
  5
2A1
  8
THREE_QUARTER_INCH_THRUCUT
 10
87.6520636414632
 20
10.22636660582573
 30
0.0
  0
VERTEX
  5
2A2
  8
THREE_QUARTER_INCH_THRUCUT
 10
88.33821587543139
 20
10.22636659799169
 30
0.0
 42
1.0
  0
VERTEX
  5
2A3
  8
THREE_QUARTER_INCH_THRUCUT
 10
88.5220636415579
 20
10.41021436101467
 30
0.0
  0
VERTEX
  5
2A4
  8
THREE_QUARTER_INCH_THRUCUT
 10
88.5220636415537
 20
10.96136698037641
 30
0.0
  0
VERTEX
  5
2A5
  8
THREE_QUARTER_INCH_THRUCUT
 10
92.5220636415537
 20
10.96136698037641
 30
0.0
  0
VERTEX
  5
2A6
  8
THREE_QUARTER_INCH_THRUCUT
 10
92.5220636415537
 20
0.9611357384095669
 30
0.0
  0
VERTEX
  5
2A7
  8
THREE_QUARTER_INCH_THRUCUT
 10
48.0
 20
0.9611357384095669
 30
0.0
  0
VERTEX
  5
2A8
  8
THREE_QUARTER_INCH_THRUCUT
 10
48.00000000000011
 20
10.96136698037641
 30
0.0
  0
VERTEX
  5
2A9
  8
THREE_QUARTER_INCH_THRUCUT
 10
52.00000000000011
 20
10.96136698037641
 30
0.0
  0
VERTEX
  5
2AA
  8
THREE_QUARTER_INCH_THRUCUT
 10
51.99999999999591
 20
10.41021436101467
 30
0.0
 42
1.0
  0
VERTEX
  5
2AB
  8
THREE_QUARTER_INCH_THRUCUT
 10
52.18384776612243
 20
10.22636659799169
 30
0.0
  0
VERTEX
  5
2AC
  8
THREE_QUARTER_INCH_THRUCUT
 10
52.87000000009061
 20
10.22636660582573
 30
0.0
  0
VERTEX
  5
2AD
  8
THREE_QUARTER_INCH_THRUCUT
 10
52.87000000009061
 20
9.626366352998346
 30
0.0
  0
VERTEX
  5
2AE
  8
THREE_QUARTER_INCH_THRUCUT
 10
52.18384258940137
 20
9.626366375653632
 30
0.0
 42
1.0
  0
VERTEX
  5
2AF
  8
THREE_QUARTER_INCH_THRUCUT
 10
51.99999482023668
 20
9.442516324175656
 30
0.0
  0
VERTEX
  5
2B0
  8
THREE_QUARTER_INCH_THRUCUT
 10
51.99999646704191
 20
9.310211875720213
 30
0.0
 42
1.0
  0
VERTEX
  5
2B1
  8
THREE_QUARTER_INCH_THRUCUT
 10
52.1838442301389
 20
9.12636640098124
 30
0.0
  0
VERTEX
  5
2B2
  8
THREE_QUARTER_INCH_THRUCUT
 10
52.87000000009061
 20
9.126366400991245
 30
0.0
  0
VERTEX
  5
2B3
  8
THREE_QUARTER_INCH_THRUCUT
 10
52.87000000009061
 20
8.639189496628958
 30
0.0
  0
VERTEX
  5
2B4
  8
THREE_QUARTER_INCH_THRUCUT
 10
53.00000000009038
 20
8.63918949663055
 30
0.0
  0
VERTEX
  5
2B5
  8
THREE_QUARTER_INCH_THRUCUT
 10
53.13000000009129
 20
8.639189496628902
 30
0.0
  0
VERTEX
  5
2B6
  8
THREE_QUARTER_INCH_THRUCUT
 10
53.13000000009129
 20
9.126366400991188
 30
0.0
  0
VERTEX
  5
2B7
  8
THREE_QUARTER_INCH_THRUCUT
 10
53.81615577004288
 20
9.126366400981183
 30
0.0
 42
1.0
  0
VERTEX
  5
2B8
  8
THREE_QUARTER_INCH_THRUCUT
 10
54.00000353313987
 20
9.310211875720157
 30
0.0
  0
VERTEX
  5
2B9
  8
THREE_QUARTER_INCH_THRUCUT
 10
54.00000517994511
 20
9.4425163241756
 30
0.0
 42
1.0
  0
VERTEX
  5
2BA
  8
THREE_QUARTER_INCH_THRUCUT
 10
53.81615741078053
 20
9.626366375653575
 30
0.0
  0
VERTEX
  5
2BB
  8
THREE_QUARTER_INCH_THRUCUT
 10
53.13000000009129
 20
9.62636635299829
 30
0.0
  0
VERTEX
  5
2BC
  8
THREE_QUARTER_INCH_THRUCUT
 10
53.13000000009117
 20
10.22636660588388
 30
0.0
  0
VERTEX
  5
2BD
  8
THREE_QUARTER_INCH_THRUCUT
 10
53.81615223306278
 20
10.22636659872207
 30
0.0
 42
1.0
  0
VERTEX
  5
2BE
  8
THREE_QUARTER_INCH_THRUCUT
 10
53.99999999999636
 20
10.4102143619166
 30
0.0
  0
VERTEX
  5
2BF
  8
THREE_QUARTER_INCH_THRUCUT
 10
53.99999999999829
 20
10.96136709819201
 30
0.0
  0
VERTEX
  5
2C0
  8
THREE_QUARTER_INCH_THRUCUT
 10
68.49233170023479
 20
10.96136458481068
 30
0.0
 42
0.4142135623731151
  0
VERTEX
  5
2C1
  8
THREE_QUARTER_INCH_THRUCUT
 10
68.76103229893124
 20
10.96136456296507
 30
0.0
 42
0.4142135623730996
  0
VERTEX
  5
2C2
  8
THREE_QUARTER_INCH_THRUCUT
 10
68.76103232077685
 20
11.23006516166153
 30
0.0
  0
VERTEX
  5
2C3
  8
THREE_QUARTER_INCH_THRUCUT
 10
68.76103232077685
 20
11.56136604111943
 30
0.0
  0
VERTEX
  5
2C4
  8
THREE_QUARTER_INCH_THRUCUT
 10
68.76255132077688
 20
11.57873104111947
 30
0.0
  0
VERTEX
  5
2C5
  8
THREE_QUARTER_INCH_THRUCUT
 10
68.76706232077686
 20
11.59556904111948
 30
0.0
  0
VERTEX
  5
2C6
  8
THREE_QUARTER_INCH_THRUCUT
 10
68.77442932077679
 20
11.6113660411195
 30
0.0
  0
VERTEX
  5
2C7
  8
THREE_QUARTER_INCH_THRUCUT
 10
68.78442732077679
 20
11.62564504111948
 30
0.0
  0
VERTEX
  5
2C8
  8
THREE_QUARTER_INCH_THRUCUT
 10
68.79675332077682
 20
11.63797104111951
 30
0.0
  0
VERTEX
  5
2C9
  8
THREE_QUARTER_INCH_THRUCUT
 10
68.8110323207768
 20
11.64796904111951
 30
0.0
  0
VERTEX
  5
2CA
  8
THREE_QUARTER_INCH_THRUCUT
 10
68.82683032077682
 20
11.65533604111944
 30
0.0
  0
VERTEX
  5
2CB
  8
THREE_QUARTER_INCH_THRUCUT
 10
68.84366732077683
 20
11.65984704111942
 30
0.0
  0
VERTEX
  5
2CC
  8
THREE_QUARTER_INCH_THRUCUT
 10
68.86103232077687
 20
11.66136604111945
 30
0.0
  0
VERTEX
  5
2CD
  8
THREE_QUARTER_INCH_THRUCUT
 10
70.2610318207769
 20
11.66136604111945
 30
0.0
  0
VERTEX
  5
2CE
  8
THREE_QUARTER_INCH_THRUCUT
 10
71.66103132077683
 20
11.66136604111945
 30
0.0
  0
VERTEX
  5
2CF
  8
THREE_QUARTER_INCH_THRUCUT
 10
71.67839632077687
 20
11.65984704111942
 30
0.0
  0
VERTEX
  5
2D0
  8
THREE_QUARTER_INCH_THRUCUT
 10
71.69523332077688
 20
11.65533604111944
 30
0.0
  0
VERTEX
  5
2D1
  8
THREE_QUARTER_INCH_THRUCUT
 10
71.71103132077678
 20
11.64796904111951
 30
0.0
  0
VERTEX
  5
2D2
  8
THREE_QUARTER_INCH_THRUCUT
 10
71.72531032077688
 20
11.63797104111951
 30
0.0
  0
VERTEX
  5
2D3
  8
THREE_QUARTER_INCH_THRUCUT
 10
71.7376363207768
 20
11.62564504111948
 30
0.0
  0
VERTEX
  5
2D4
  8
THREE_QUARTER_INCH_THRUCUT
 10
71.7476343207768
 20
11.6113660411195
 30
0.0
  0
VERTEX
  5
2D5
  8
THREE_QUARTER_INCH_THRUCUT
 10
71.75500132077684
 20
11.59556904111948
 30
0.0
  0
VERTEX
  5
2D6
  8
THREE_QUARTER_INCH_THRUCUT
 10
71.75951232077682
 20
11.57873104111947
 30
0.0
  0
VERTEX
  5
2D7
  8
THREE_QUARTER_INCH_THRUCUT
 10
71.76103132077685
 20
11.56136604111943
 30
0.0
  0
VERTEX
  5
2D8
  8
THREE_QUARTER_INCH_THRUCUT
 10
71.76103132077685
 20
11.23006958301745
 30
0.0
 42
1.0
  0
VERTEX
  5
2D9
  8
THREE_QUARTER_INCH_THRUCUT
 10
72.0297318626748
 20
10.96136900616661
 30
0.0
  0
VERTEX
  5
2DA
  8
THREE_QUARTER_INCH_THRUCUT
 10
86.39189955989536
 20
10.96136699431368
 30
0.0
 42
-0.4142135529153272
  0
VERTEX
  5
2DB
  8
THREE_QUARTER_INCH_THRUCUT
 10
86.5218995514025
 20
10.83136684929771
 30
0.0
  0
VERTEX
  5
2DC
  8
THREE_QUARTER_INCH_THRUCUT
 10
86.52189955140273
 20
10.41021436101455
 30
0.0
 42
1.0
  0
VERTEX
  5
2DD
  8
THREE_QUARTER_INCH_THRUCUT
 10
86.70574731752924
 20
10.22636659799157
 30
0.0
  0
VERTEX
  5
2DE
  8
THREE_QUARTER_INCH_THRUCUT
 10
87.39189955149754
 20
10.22636660582562
 30
0.0
  0
VERTEX
  5
2DF
  8
THREE_QUARTER_INCH_THRUCUT
 10
87.39189955149743
 20
9.626366352998346
 30
0.0
  0
VERTEX
  5
2E0
  8
THREE_QUARTER_INCH_THRUCUT
 10
86.70574214080818
 20
9.626366375653632
 30
0.0
 42
1.0
  0
VERTEX
  5
2E1
  8
THREE_QUARTER_INCH_THRUCUT
 10
86.52189437164361
 20
9.442516324175656
 30
0.0
  0
VERTEX
  5
2E2
  8
THREE_QUARTER_INCH_THRUCUT
 10
86.52189601844884
 20
9.310211875720213
 30
0.0
 42
1.0
  0
VERTEX
  5
2E3
  8
THREE_QUARTER_INCH_THRUCUT
 10
86.70574378154583
 20
9.12636640098124
 30
0.0
  0
VERTEX
  5
2E4
  8
THREE_QUARTER_INCH_THRUCUT
 10
87.39189955149743
 20
9.126366400991245
 30
0.0
  0
SEQEND
  5
320
  8
THREE_QUARTER_INCH_THRUCUT
  0
ENDSEC
  0
EOF
