  0
SECTION
  2
HEADER
  9
$ACADVER
  1
AC1009
  9
$DWGCODEPAGE
  3
ansi_1252
  9
$INSBASE
 10
0.0
 20
0.0
 30
0.0
  9
$EXTMIN
 10
1.775340976074804
 20
1.627105039765282
 30
0.0
  9
$EXTMAX
 10
68.4753402228353
 20
47.28471316205193
 30
0.0
  9
$LIMMIN
 10
0.0
 20
0.0
  9
$LIMMAX
 10
12.0
 20
9.0
  9
$ORTHOMODE
 70
     0
  9
$REGENMODE
 70
     1
  9
$FILLMODE
 70
     1
  9
$QTEXTMODE
 70
     0
  9
$MIRRTEXT
 70
     1
  9
$DRAGMODE
 70
     2
  9
$LTSCALE
 40
1.0
  9
$OSMODE
 70
    37
  9
$ATTMODE
 70
     1
  9
$TEXTSIZE
 40
0.2
  9
$TRACEWID
 40
0.05
  9
$TEXTSTYLE
  7
STANDARD
  9
$CLAYER
  8
0
  9
$CELTYPE
  6
BYLAYER
  9
$CECOLOR
 62
   256
  9
$DIMSCALE
 40
1.0
  9
$DIMASZ
 40
0.18
  9
$DIMEXO
 40
0.0625
  9
$DIMDLI
 40
0.38
  9
$DIMRND
 40
0.0
  9
$DIMDLE
 40
0.0
  9
$DIMEXE
 40
0.18
  9
$DIMTP
 40
0.0
  9
$DIMTM
 40
0.0
  9
$DIMTXT
 40
0.18
  9
$DIMCEN
 40
0.09
  9
$DIMTSZ
 40
0.0
  9
$DIMTOL
 70
     0
  9
$DIMLIM
 70
     0
  9
$DIMTIH
 70
     1
  9
$DIMTOH
 70
     1
  9
$DIMSE1
 70
     0
  9
$DIMSE2
 70
     0
  9
$DIMTAD
 70
     0
  9
$DIMZIN
 70
     0
  9
$DIMBLK
  1

  9
$DIMASO
 70
     1
  9
$DIMSHO
 70
     1
  9
$DIMPOST
  1

  9
$DIMAPOST
  1

  9
$DIMALT
 70
     0
  9
$DIMALTD
 70
     2
  9
$DIMALTF
 40
25.4
  9
$DIMLFAC
 40
1.0
  9
$DIMTOFL
 70
     0
  9
$DIMTVP
 40
0.0
  9
$DIMTIX
 70
     0
  9
$DIMSOXD
 70
     0
  9
$DIMSAH
 70
     0
  9
$DIMBLK1
  1

  9
$DIMBLK2
  1

  9
$DIMSTYLE
  2
STANDARD
  9
$DIMCLRD
 70
     0
  9
$DIMCLRE
 70
     0
  9
$DIMCLRT
 70
     0
  9
$DIMTFAC
 40
1.0
  9
$DIMGAP
 40
0.09
  9
$LUNITS
 70
     2
  9
$LUPREC
 70
     4
  9
$SKETCHINC
 40
0.1
  9
$FILLETRAD
 40
0.5
  9
$AUNITS
 70
     0
  9
$AUPREC
 70
     0
  9
$MENU
  1
.
  9
$ELEVATION
 40
0.0
  9
$PELEVATION
 40
0.0
  9
$THICKNESS
 40
0.0
  9
$LIMCHECK
 70
     0
  9
$CHAMFERA
 40
0.0
  9
$CHAMFERB
 40
0.0
  9
$SKPOLY
 70
     0
  9
$TDCREATE
 40
2454910.5
  9
$TDUPDATE
 40
2457884.615828472
  9
$TDINDWG
 40
0.0000000116
  9
$TDUSRTIMER
 40
0.0000000116
  9
$USRTIMER
 70
     1
  9
$ANGBASE
 50
0.0
  9
$ANGDIR
 70
     0
  9
$PDMODE
 70
     0
  9
$PDSIZE
 40
0.0
  9
$PLINEWID
 40
0.0
  9
$COORDS
 70
     1
  9
$SPLFRAME
 70
     0
  9
$SPLINETYPE
 70
     6
  9
$SPLINESEGS
 70
     8
  9
$ATTDIA
 70
     0
  9
$ATTREQ
 70
     1
  9
$HANDLING
 70
     1
  9
$HANDSEED
  5
278
  9
$SURFTAB1
 70
     6
  9
$SURFTAB2
 70
     6
  9
$SURFTYPE
 70
     6
  9
$SURFU
 70
     6
  9
$SURFV
 70
     6
  9
$UCSNAME
  2

  9
$UCSORG
 10
0.0
 20
0.0
 30
0.0
  9
$UCSXDIR
 10
1.0
 20
0.0
 30
0.0
  9
$UCSYDIR
 10
0.0
 20
1.0
 30
0.0
  9
$PUCSNAME
  2

  9
$PUCSORG
 10
0.0
 20
0.0
 30
0.0
  9
$PUCSXDIR
 10
1.0
 20
0.0
 30
0.0
  9
$PUCSYDIR
 10
0.0
 20
1.0
 30
0.0
  9
$USERI1
 70
     0
  9
$USERI2
 70
     0
  9
$USERI3
 70
     0
  9
$USERI4
 70
     0
  9
$USERI5
 70
     0
  9
$USERR1
 40
0.0
  9
$USERR2
 40
0.0
  9
$USERR3
 40
0.0
  9
$USERR4
 40
0.0
  9
$USERR5
 40
0.0
  9
$WORLDVIEW
 70
     1
  9
$SHADEDGE
 70
     3
  9
$SHADEDIF
 70
    70
  9
$TILEMODE
 70
     1
  9
$MAXACTVP
 70
    64
  9
$PLIMCHECK
 70
     0
  9
$PEXTMIN
 10
1.000000000000000E+20
 20
1.000000000000000E+20
 30
1.000000000000000E+20
  9
$PEXTMAX
 10
-1.000000000000000E+20
 20
-1.000000000000000E+20
 30
-1.000000000000000E+20
  9
$PLIMMIN
 10
0.0
 20
0.0
  9
$PLIMMAX
 10
12.0
 20
9.0
  9
$UNITMODE
 70
     0
  9
$VISRETAIN
 70
     1
  9
$PLINEGEN
 70
     0
  9
$PSLTSCALE
 70
     1
  0
ENDSEC
  0
SECTION
  2
TABLES
  0
TABLE
  2
VPORT
 70
     1
  0
VPORT
  2
*ACTIVE
 70
     0
 10
0.0
 20
0.0
 11
1.0
 21
1.0
 12
10.42990654205607
 22
4.5
 13
0.0
 23
0.0
 14
0.5
 24
0.5
 15
0.5
 25
0.5
 16
0.0
 26
0.0
 36
1.0
 17
0.0
 27
0.0
 37
0.0
 40
9.0
 41
1.972972972850329
 42
50.0
 43
0.0
 44
0.0
 50
0.0
 51
0.0
 71
     0
 72
   100
 73
     1
 74
     3
 75
     0
 76
     0
 77
     0
 78
     0
  0
ENDTAB
  0
TABLE
  2
LTYPE
 70
     2
  0
LTYPE
  2
CONTINUOUS
 70
     0
  3
Solid line
 72
    65
 73
     0
 40
0.0
  0
LTYPE
  2
CONTINUOUS2
 70
     0
  3
Solid Line
 72
    65
 73
     0
 40
0.0
  0
ENDTAB
  0
TABLE
  2
LAYER
 70
     5
  0
LAYER
  2
0
 70
     0
 62
     7
  6
CONTINUOUS
  0
LAYER
  2
SCREW_LOCATION_RECESS
 70
     0
 62
     1
  6
CONTINUOUS
  0
LAYER
  2
LABELS
 70
     0
 62
   150
  6
CONTINUOUS
  0
LAYER
  2
THREE_QUARTER_INCH_THRUCUT
 70
     0
 62
    18
  6
CONTINUOUS
  0
LAYER
  2
THREE_QUARTER_INCH_CUTOUT
 70
     0
 62
    18
  6
CONTINUOUS
  0
ENDTAB
  0
TABLE
  2
STYLE
 70
     1
  0
STYLE
  2
STANDARD
 70
     0
 40
0.0
 41
1.0
 50
0.0
 71
     0
 42
0.2
  3
txt
  4

  0
ENDTAB
  0
TABLE
  2
VIEW
 70
     0
  0
ENDTAB
  0
TABLE
  2
UCS
 70
     0
  0
ENDTAB
  0
TABLE
  2
APPID
 70
     1
  0
APPID
  2
ACAD
 70
     0
  0
ENDTAB
  0
TABLE
  2
DIMSTYLE
 70
     1
  0
DIMSTYLE
  2
STANDARD
 70
     0
  3

  4

  5

  6

  7

 40
1.0
 41
0.18
 42
0.0625
 43
0.38
 44
0.18
 45
0.0
 46
0.0
 47
0.0
 48
0.0
140
0.18
141
0.09
142
0.0
143
25.4
144
1.0
145
0.0
146
1.0
147
0.09
 71
     0
 72
     0
 73
     1
 74
     1
 75
     0
 76
     0
 77
     0
 78
     0
170
     0
171
     2
172
     0
173
     0
174
     0
175
     0
176
     0
177
     0
178
     0
  0
ENDTAB
  0
ENDSEC
  0
SECTION
  2
BLOCKS
  0
BLOCK
  8
0
  2
$MODEL_SPACE
 70
     0
 10
0.0
 20
0.0
 30
0.0
  3
$MODEL_SPACE
  1

  0
ENDBLK
  5
21
  8
0
  0
BLOCK
 67
     1
  8
0
  2
$PAPER_SPACE
 70
     0
 10
0.0
 20
0.0
 30
0.0
  3
$PAPER_SPACE
  1

  0
ENDBLK
  5
1D
 67
     1
  8
0
  0
ENDSEC
  0
SECTION
  2
ENTITIES
  0
POLYLINE
  5
70
  8
SCREW_LOCATION_RECESS
 66
     1
 10
0.0
 20
0.0
 30
0.0
 70
     1
  0
VERTEX
  5
90
  8
SCREW_LOCATION_RECESS
 10
24.15034097609275
 20
35.91471316206142
 30
0.0
 42
0.4142135623730951
  0
VERTEX
  5
91
  8
SCREW_LOCATION_RECESS
 10
24.02034097609278
 20
35.78471316206142
 30
0.0
 42
0.4142135623730951
  0
VERTEX
  5
92
  8
SCREW_LOCATION_RECESS
 10
24.15034097609275
 20
35.6547131620614
 30
0.0
 42
0.4142135623730951
  0
VERTEX
  5
93
  8
SCREW_LOCATION_RECESS
 10
24.28034097609275
 20
35.78471316206142
 30
0.0
 42
0.4142135623730951
  0
SEQEND
  5
262
  8
SCREW_LOCATION_RECESS
  0
POLYLINE
  5
71
  8
SCREW_LOCATION_RECESS
 66
     1
 10
0.0
 20
0.0
 30
0.0
 70
     1
  0
VERTEX
  5
94
  8
SCREW_LOCATION_RECESS
 10
46.15034097609275
 20
35.91471316206142
 30
0.0
 42
0.4142135623730951
  0
VERTEX
  5
95
  8
SCREW_LOCATION_RECESS
 10
46.02034097609277
 20
35.78471316206142
 30
0.0
 42
0.4142135623730951
  0
VERTEX
  5
96
  8
SCREW_LOCATION_RECESS
 10
46.15034097609275
 20
35.6547131620614
 30
0.0
 42
0.4142135623730951
  0
VERTEX
  5
97
  8
SCREW_LOCATION_RECESS
 10
46.28034097609276
 20
35.78471316206142
 30
0.0
 42
0.4142135623730951
  0
SEQEND
  5
263
  8
SCREW_LOCATION_RECESS
  0
POLYLINE
  5
72
  8
SCREW_LOCATION_RECESS
 66
     1
 10
0.0
 20
0.0
 30
0.0
 70
     1
  0
VERTEX
  5
98
  8
SCREW_LOCATION_RECESS
 10
24.15034097609275
 20
17.15471316204566
 30
0.0
 42
-0.4142135623730951
  0
VERTEX
  5
99
  8
SCREW_LOCATION_RECESS
 10
24.02034097609278
 20
17.28471316204568
 30
0.0
 42
-0.4142135623730951
  0
VERTEX
  5
9A
  8
SCREW_LOCATION_RECESS
 10
24.15034097609275
 20
17.4147131620457
 30
0.0
 42
-0.4142135623730951
  0
VERTEX
  5
9B
  8
SCREW_LOCATION_RECESS
 10
24.28034097609275
 20
17.28471316204568
 30
0.0
 42
-0.4142135623730951
  0
SEQEND
  5
264
  8
SCREW_LOCATION_RECESS
  0
POLYLINE
  5
73
  8
SCREW_LOCATION_RECESS
 66
     1
 10
0.0
 20
0.0
 30
0.0
 70
     1
  0
VERTEX
  5
9C
  8
SCREW_LOCATION_RECESS
 10
46.15034097609275
 20
17.15471316204567
 30
0.0
 42
-0.4142135623730951
  0
VERTEX
  5
9D
  8
SCREW_LOCATION_RECESS
 10
46.02034097609277
 20
17.28471316204568
 30
0.0
 42
-0.4142135623730951
  0
VERTEX
  5
9E
  8
SCREW_LOCATION_RECESS
 10
46.15034097609275
 20
17.41471316204569
 30
0.0
 42
-0.4142135623730951
  0
VERTEX
  5
9F
  8
SCREW_LOCATION_RECESS
 10
46.28034097609276
 20
17.28471316204568
 30
0.0
 42
-0.4142135623730951
  0
SEQEND
  5
265
  8
SCREW_LOCATION_RECESS
  0
POLYLINE
  5
74
  8
SCREW_LOCATION_RECESS
 66
     1
 10
0.0
 20
0.0
 30
0.0
 70
     1
  0
VERTEX
  5
A0
  8
SCREW_LOCATION_RECESS
 10
52.40034097607706
 20
10.16471316423806
 30
0.0
 42
0.4142135623730951
  0
VERTEX
  5
A1
  8
SCREW_LOCATION_RECESS
 10
52.27034097607702
 20
10.034713164238
 30
0.0
 42
0.4142135623730951
  0
VERTEX
  5
A2
  8
SCREW_LOCATION_RECESS
 10
52.40034097607706
 20
9.904713164238094
 30
0.0
 42
0.4142135623730951
  0
VERTEX
  5
A3
  8
SCREW_LOCATION_RECESS
 10
52.53034097607707
 20
10.03471316423799
 30
0.0
 42
0.4142135623730951
  0
SEQEND
  5
266
  8
SCREW_LOCATION_RECESS
  0
POLYLINE
  5
75
  8
SCREW_LOCATION_RECESS
 66
     1
 10
0.0
 20
0.0
 30
0.0
 70
     1
  0
VERTEX
  5
A4
  8
SCREW_LOCATION_RECESS
 10
41.40034097607706
 20
10.16471316423806
 30
0.0
 42
0.4142135623730951
  0
VERTEX
  5
A5
  8
SCREW_LOCATION_RECESS
 10
41.27034097607703
 20
10.03471316423799
 30
0.0
 42
0.4142135623730951
  0
VERTEX
  5
A6
  8
SCREW_LOCATION_RECESS
 10
41.40034097607706
 20
9.904713164238094
 30
0.0
 42
0.4142135623730951
  0
VERTEX
  5
A7
  8
SCREW_LOCATION_RECESS
 10
41.53034097607708
 20
10.03471316423799
 30
0.0
 42
0.4142135623730951
  0
SEQEND
  5
267
  8
SCREW_LOCATION_RECESS
  0
POLYLINE
  5
76
  8
SCREW_LOCATION_RECESS
 66
     1
 10
0.0
 20
0.0
 30
0.0
 70
     1
  0
VERTEX
  5
A8
  8
SCREW_LOCATION_RECESS
 10
8.40034097607706
 20
10.16471316423806
 30
0.0
 42
0.4142135623730951
  0
VERTEX
  5
A9
  8
SCREW_LOCATION_RECESS
 10
8.270340976077044
 20
10.034713164238
 30
0.0
 42
0.4142135623730951
  0
VERTEX
  5
AA
  8
SCREW_LOCATION_RECESS
 10
8.40034097607706
 20
9.904713164238094
 30
0.0
 42
0.4142135623730951
  0
VERTEX
  5
AB
  8
SCREW_LOCATION_RECESS
 10
8.530340976077081
 20
10.03471316423799
 30
0.0
 42
0.4142135623730951
  0
SEQEND
  5
268
  8
SCREW_LOCATION_RECESS
  0
POLYLINE
  5
77
  8
SCREW_LOCATION_RECESS
 66
     1
 10
0.0
 20
0.0
 30
0.0
 70
     1
  0
VERTEX
  5
AC
  8
SCREW_LOCATION_RECESS
 10
30.40034097607707
 20
9.904713164238094
 30
0.0
 42
-0.4142135623730951
  0
VERTEX
  5
AD
  8
SCREW_LOCATION_RECESS
 10
30.27034097607706
 20
10.03471316423799
 30
0.0
 42
-0.4142135623730951
  0
VERTEX
  5
AE
  8
SCREW_LOCATION_RECESS
 10
30.40034097607707
 20
10.16471316423804
 30
0.0
 42
-0.4142135623730951
  0
VERTEX
  5
AF
  8
SCREW_LOCATION_RECESS
 10
30.53034097607711
 20
10.03471316423799
 30
0.0
 42
-0.4142135623730951
  0
SEQEND
  5
269
  8
SCREW_LOCATION_RECESS
  0
POLYLINE
  5
78
  8
SCREW_LOCATION_RECESS
 66
     1
 10
0.0
 20
0.0
 30
0.0
 70
     1
  0
VERTEX
  5
B0
  8
SCREW_LOCATION_RECESS
 10
19.40034097607707
 20
9.904713164238094
 30
0.0
 42
-0.4142135623730951
  0
VERTEX
  5
B1
  8
SCREW_LOCATION_RECESS
 10
19.27034097607706
 20
10.034713164238
 30
0.0
 42
-0.4142135623730951
  0
VERTEX
  5
B2
  8
SCREW_LOCATION_RECESS
 10
19.40034097607707
 20
10.16471316423804
 30
0.0
 42
-0.4142135623730951
  0
VERTEX
  5
B3
  8
SCREW_LOCATION_RECESS
 10
19.53034097607711
 20
10.03471316423799
 30
0.0
 42
-0.4142135623730951
  0
SEQEND
  5
26A
  8
SCREW_LOCATION_RECESS
  0
POLYLINE
  5
79
  8
SCREW_LOCATION_RECESS
 66
     1
 10
0.0
 20
0.0
 30
0.0
 70
     1
  0
VERTEX
  5
B4
  8
SCREW_LOCATION_RECESS
 10
66.43159097607706
 20
9.90471316423808
 30
0.0
 42
-0.4142135623730951
  0
VERTEX
  5
B5
  8
SCREW_LOCATION_RECESS
 10
66.30159097607704
 20
10.03471316423799
 30
0.0
 42
-0.4142135623730951
  0
VERTEX
  5
B6
  8
SCREW_LOCATION_RECESS
 10
66.43159097607706
 20
10.16471316423804
 30
0.0
 42
-0.4142135623730951
  0
VERTEX
  5
B7
  8
SCREW_LOCATION_RECESS
 10
66.56159097607707
 20
10.03471316423799
 30
0.0
 42
-0.4142135623730951
  0
SEQEND
  5
26B
  8
SCREW_LOCATION_RECESS
  0
POLYLINE
  5
7A
  8
SCREW_LOCATION_RECESS
 66
     1
 10
0.0
 20
0.0
 30
0.0
 70
     1
  0
VERTEX
  5
B8
  8
SCREW_LOCATION_RECESS
 10
59.40034097513008
 20
9.904713189533892
 30
0.0
 42
-0.4142135623730951
  0
VERTEX
  5
B9
  8
SCREW_LOCATION_RECESS
 10
59.27034097514019
 20
10.03471318954393
 30
0.0
 42
-0.4142135623730951
  0
VERTEX
  5
BA
  8
SCREW_LOCATION_RECESS
 10
59.40034097515033
 20
10.16471318953386
 30
0.0
 42
-0.4142135623730951
  0
VERTEX
  5
BB
  8
SCREW_LOCATION_RECESS
 10
59.53034097514021
 20
10.03471318952368
 30
0.0
 42
-0.4142135623730951
  0
SEQEND
  5
26C
  8
SCREW_LOCATION_RECESS
  0
POLYLINE
  5
7B
  8
SCREW_LOCATION_RECESS
 66
     1
 10
0.0
 20
0.0
 30
0.0
 70
     1
  0
VERTEX
  5
BC
  8
SCREW_LOCATION_RECESS
 10
66.40034097513008
 20
9.904713189533892
 30
0.0
 42
-0.4142135623730951
  0
VERTEX
  5
BD
  8
SCREW_LOCATION_RECESS
 10
66.27034097514017
 20
10.03471318954393
 30
0.0
 42
-0.4142135623730951
  0
VERTEX
  5
BE
  8
SCREW_LOCATION_RECESS
 10
66.40034097515033
 20
10.16471318953385
 30
0.0
 42
-0.4142135623730951
  0
VERTEX
  5
BF
  8
SCREW_LOCATION_RECESS
 10
66.5303409751402
 20
10.03471318952367
 30
0.0
 42
-0.4142135623730951
  0
SEQEND
  5
26D
  8
SCREW_LOCATION_RECESS
  0
POLYLINE
  5
7C
  8
SCREW_LOCATION_RECESS
 66
     1
 10
0.0
 20
0.0
 30
0.0
 70
     1
  0
VERTEX
  5
C0
  8
SCREW_LOCATION_RECESS
 10
2.150340976074292
 20
19.75846316205045
 30
0.0
 42
0.4142135623730951
  0
VERTEX
  5
C1
  8
SCREW_LOCATION_RECESS
 10
2.020340976074279
 20
19.62846316205039
 30
0.0
 42
0.4142135623730951
  0
VERTEX
  5
C2
  8
SCREW_LOCATION_RECESS
 10
2.150340976074292
 20
19.49846316205049
 30
0.0
 42
0.4142135623730951
  0
VERTEX
  5
C3
  8
SCREW_LOCATION_RECESS
 10
2.280340976074324
 20
19.62846316205039
 30
0.0
 42
0.4142135623730951
  0
SEQEND
  5
26E
  8
SCREW_LOCATION_RECESS
  0
POLYLINE
  5
7D
  8
SCREW_LOCATION_RECESS
 66
     1
 10
0.0
 20
0.0
 30
0.0
 70
     1
  0
VERTEX
  5
C4
  8
SCREW_LOCATION_RECESS
 10
2.150340976074538
 20
33.57096316365291
 30
0.0
 42
0.4142135623730951
  0
VERTEX
  5
C5
  8
SCREW_LOCATION_RECESS
 10
2.02034097607456
 20
33.44096316365288
 30
0.0
 42
0.4142135623730951
  0
VERTEX
  5
C6
  8
SCREW_LOCATION_RECESS
 10
2.150340976074538
 20
33.31096316365289
 30
0.0
 42
0.4142135623730951
  0
VERTEX
  5
C7
  8
SCREW_LOCATION_RECESS
 10
2.280340976074534
 20
33.44096316365288
 30
0.0
 42
0.4142135623730951
  0
SEQEND
  5
26F
  8
SCREW_LOCATION_RECESS
  0
POLYLINE
  5
7F
  8
LABELS
 66
     1
 10
0.0
 20
0.0
 30
0.0
  0
VERTEX
  5
C8
  8
LABELS
 10
6.133811213164432
 20
15.54459183068004
 30
0.0
  0
VERTEX
  5
C9
  8
LABELS
 10
10.13381121316444
 20
14.04059183067991
 30
0.0
  0
VERTEX
  5
CA
  8
LABELS
 10
10.13381121316444
 20
13.92859183068006
 30
0.0
  0
VERTEX
  5
CB
  8
LABELS
 10
7.141811213164443
 20
12.80859183067994
 30
0.0
  0
VERTEX
  5
CC
  8
LABELS
 10
7.141811213164443
 20
15.14459183068018
 30
0.0
  0
VERTEX
  5
CD
  8
LABELS
 10
7.141811213164443
 20
12.80859183067994
 30
0.0
  0
VERTEX
  5
CE
  8
LABELS
 10
6.133811213164432
 20
12.42459183067992
 30
0.0
  0
SEQEND
  5
270
  8
LABELS
  0
POLYLINE
  5
81
  8
THREE_QUARTER_INCH_THRUCUT
 66
     1
 10
0.0
 20
0.0
 30
0.0
 70
     1
  0
VERTEX
  5
CF
  8
THREE_QUARTER_INCH_THRUCUT
 10
67.7753409772046
 20
9.284713163534686
 30
0.0
  0
VERTEX
  5
D0
  8
THREE_QUARTER_INCH_THRUCUT
 10
2.525340976074823
 20
9.284713166231793
 30
0.0
  0
VERTEX
  5
D1
  8
THREE_QUARTER_INCH_THRUCUT
 10
2.525340976074808
 20
9.784713162051984
 30
0.0
  0
VERTEX
  5
D2
  8
THREE_QUARTER_INCH_THRUCUT
 10
2.525340976074155
 20
15.96142576047512
 30
0.0
 42
1.0
  0
VERTEX
  5
D3
  8
THREE_QUARTER_INCH_THRUCUT
 10
2.525340976074126
 20
16.22221316204993
 30
0.0
  0
VERTEX
  5
D4
  8
THREE_QUARTER_INCH_THRUCUT
 10
1.775340976074808
 20
16.22221316205198
 30
0.0
  0
VERTEX
  5
D5
  8
THREE_QUARTER_INCH_THRUCUT
 10
1.775340976074808
 20
23.03471316205195
 30
0.0
  0
VERTEX
  5
D6
  8
THREE_QUARTER_INCH_THRUCUT
 10
2.150340976074125
 20
23.0347131620499
 30
0.0
 42
1.0
  0
VERTEX
  5
D7
  8
THREE_QUARTER_INCH_THRUCUT
 10
2.150340976074211
 20
23.29550056362472
 30
0.0
  0
VERTEX
  5
D8
  8
THREE_QUARTER_INCH_THRUCUT
 10
2.150340976074808
 20
25.03471316205194
 30
0.0
  0
VERTEX
  5
D9
  8
THREE_QUARTER_INCH_THRUCUT
 10
2.525340976074197
 20
25.0347131620499
 30
0.0
 42
1.0
  0
VERTEX
  5
DA
  8
THREE_QUARTER_INCH_THRUCUT
 10
2.525340976074197
 20
25.29550056362471
 30
0.0
  0
VERTEX
  5
DB
  8
THREE_QUARTER_INCH_THRUCUT
 10
2.525340976074197
 20
27.77392576048234
 30
0.0
 42
1.0
  0
VERTEX
  5
DC
  8
THREE_QUARTER_INCH_THRUCUT
 10
2.525340976074126
 20
28.03471316205716
 30
0.0
  0
VERTEX
  5
DD
  8
THREE_QUARTER_INCH_THRUCUT
 10
2.150340976074808
 20
28.03471316205193
 30
0.0
  0
VERTEX
  5
DE
  8
THREE_QUARTER_INCH_THRUCUT
 10
2.150340976074211
 20
29.77392576047507
 30
0.0
 42
1.0
  0
VERTEX
  5
DF
  8
THREE_QUARTER_INCH_THRUCUT
 10
2.150340976074125
 20
30.03471316204988
 30
0.0
  0
VERTEX
  5
E0
  8
THREE_QUARTER_INCH_THRUCUT
 10
1.775340976074808
 20
30.03471316205193
 30
0.0
  0
VERTEX
  5
E1
  8
THREE_QUARTER_INCH_THRUCUT
 10
1.775340976074804
 20
36.84721316205193
 30
0.0
  0
VERTEX
  5
E2
  8
THREE_QUARTER_INCH_THRUCUT
 10
2.525340976074123
 20
36.84721316204988
 30
0.0
 42
1.0
  0
VERTEX
  5
E3
  8
THREE_QUARTER_INCH_THRUCUT
 10
2.525340976074137
 20
37.1080005636247
 30
0.0
  0
VERTEX
  5
E4
  8
THREE_QUARTER_INCH_THRUCUT
 10
2.525340976074805
 20
46.78471316205193
 30
0.0
  0
VERTEX
  5
E5
  8
THREE_QUARTER_INCH_THRUCUT
 10
11.88955357507008
 20
46.78471316205193
 30
0.0
 42
1.0
  0
VERTEX
  5
E6
  8
THREE_QUARTER_INCH_THRUCUT
 10
12.15034097664488
 20
46.78471316205193
 30
0.0
  0
VERTEX
  5
E7
  8
THREE_QUARTER_INCH_THRUCUT
 10
12.15034097664083
 20
47.28471316205193
 30
0.0
  0
VERTEX
  5
E8
  8
THREE_QUARTER_INCH_THRUCUT
 10
14.15034097664083
 20
47.28471316205193
 30
0.0
  0
VERTEX
  5
E9
  8
THREE_QUARTER_INCH_THRUCUT
 10
14.15034097663761
 20
46.78471316205193
 30
0.0
 42
1.0
  0
VERTEX
  5
EA
  8
THREE_QUARTER_INCH_THRUCUT
 10
14.41112837821241
 20
46.78471316205193
 30
0.0
  0
VERTEX
  5
EB
  8
THREE_QUARTER_INCH_THRUCUT
 10
33.88955357506281
 20
46.78471316205193
 30
0.0
 42
1.0
  0
VERTEX
  5
EC
  8
THREE_QUARTER_INCH_THRUCUT
 10
34.1503409766376
 20
46.78471316205193
 30
0.0
  0
VERTEX
  5
ED
  8
THREE_QUARTER_INCH_THRUCUT
 10
34.15034097664083
 20
47.28471316205193
 30
0.0
  0
VERTEX
  5
EE
  8
THREE_QUARTER_INCH_THRUCUT
 10
36.15034097664083
 20
47.28471316205193
 30
0.0
  0
VERTEX
  5
EF
  8
THREE_QUARTER_INCH_THRUCUT
 10
36.15034097664488
 20
46.78471316205193
 30
0.0
 42
1.0
  0
VERTEX
  5
F0
  8
THREE_QUARTER_INCH_THRUCUT
 10
36.41112837821969
 20
46.78471316205193
 30
0.0
  0
VERTEX
  5
F1
  8
THREE_QUARTER_INCH_THRUCUT
 10
55.88955357506278
 20
46.78471316205193
 30
0.0
 42
1.0
  0
VERTEX
  5
F2
  8
THREE_QUARTER_INCH_THRUCUT
 10
56.15034097663759
 20
46.78471316205193
 30
0.0
  0
VERTEX
  5
F3
  8
THREE_QUARTER_INCH_THRUCUT
 10
56.15034097664083
 20
47.28471316205193
 30
0.0
  0
VERTEX
  5
F4
  8
THREE_QUARTER_INCH_THRUCUT
 10
58.15034097664083
 20
47.28471316205193
 30
0.0
  0
VERTEX
  5
F5
  8
THREE_QUARTER_INCH_THRUCUT
 10
58.15034097664487
 20
46.78471316205193
 30
0.0
 42
1.0
  0
VERTEX
  5
F6
  8
THREE_QUARTER_INCH_THRUCUT
 10
58.41112837821969
 20
46.78471316205193
 30
0.0
  0
VERTEX
  5
F7
  8
THREE_QUARTER_INCH_THRUCUT
 10
67.77534073907404
 20
46.78471316205204
 30
0.0
  0
VERTEX
  5
F8
  8
THREE_QUARTER_INCH_THRUCUT
 10
67.77534208254342
 20
41.80341264332671
 30
0.0
 42
1.0
  0
VERTEX
  5
F9
  8
THREE_QUARTER_INCH_THRUCUT
 10
68.0440437647333
 20
41.53471330285149
 30
0.0
  0
VERTEX
  5
FA
  8
THREE_QUARTER_INCH_THRUCUT
 10
68.37534022283528
 20
41.53471330285149
 30
0.0
  0
VERTEX
  5
FB
  8
THREE_QUARTER_INCH_THRUCUT
 10
68.39270522283532
 20
41.53319430285157
 30
0.0
  0
VERTEX
  5
FC
  8
THREE_QUARTER_INCH_THRUCUT
 10
68.40954322283532
 20
41.52868330285148
 30
0.0
  0
VERTEX
  5
FD
  8
THREE_QUARTER_INCH_THRUCUT
 10
68.42534022283535
 20
41.52131630285155
 30
0.0
  0
VERTEX
  5
FE
  8
THREE_QUARTER_INCH_THRUCUT
 10
68.43961922283533
 20
41.51131830285155
 30
0.0
  0
VERTEX
  5
FF
  8
THREE_QUARTER_INCH_THRUCUT
 10
68.45194522283536
 20
41.49899230285152
 30
0.0
  0
VERTEX
  5
100
  8
THREE_QUARTER_INCH_THRUCUT
 10
68.46194322283536
 20
41.48471330285153
 30
0.0
  0
VERTEX
  5
101
  8
THREE_QUARTER_INCH_THRUCUT
 10
68.46931022283529
 20
41.46891530285163
 30
0.0
  0
VERTEX
  5
102
  8
THREE_QUARTER_INCH_THRUCUT
 10
68.47382122283527
 20
41.4520783028515
 30
0.0
  0
VERTEX
  5
103
  8
THREE_QUARTER_INCH_THRUCUT
 10
68.4753402228353
 20
41.43471330285158
 30
0.0
  0
VERTEX
  5
104
  8
THREE_QUARTER_INCH_THRUCUT
 10
68.4753402228353
 20
40.03471380285166
 30
0.0
  0
VERTEX
  5
105
  8
THREE_QUARTER_INCH_THRUCUT
 10
68.4753402228353
 20
38.63471430285151
 30
0.0
  0
VERTEX
  5
106
  8
THREE_QUARTER_INCH_THRUCUT
 10
68.47382122283527
 20
38.61734930285158
 30
0.0
  0
VERTEX
  5
107
  8
THREE_QUARTER_INCH_THRUCUT
 10
68.46931022283529
 20
38.60051230285146
 30
0.0
  0
VERTEX
  5
108
  8
THREE_QUARTER_INCH_THRUCUT
 10
68.46194322283536
 20
38.58471430285155
 30
0.0
  0
VERTEX
  5
109
  8
THREE_QUARTER_INCH_THRUCUT
 10
68.45194522283536
 20
38.57043530285156
 30
0.0
  0
VERTEX
  5
10A
  8
THREE_QUARTER_INCH_THRUCUT
 10
68.43961922283533
 20
38.55810930285153
 30
0.0
  0
VERTEX
  5
10B
  8
THREE_QUARTER_INCH_THRUCUT
 10
68.42534022283535
 20
38.54811130285154
 30
0.0
  0
VERTEX
  5
10C
  8
THREE_QUARTER_INCH_THRUCUT
 10
68.40954322283532
 20
38.54074430285161
 30
0.0
  0
VERTEX
  5
10D
  8
THREE_QUARTER_INCH_THRUCUT
 10
68.39270522283532
 20
38.53623330285151
 30
0.0
  0
VERTEX
  5
10E
  8
THREE_QUARTER_INCH_THRUCUT
 10
68.37534022283528
 20
38.5347143028516
 30
0.0
  0
VERTEX
  5
10F
  8
THREE_QUARTER_INCH_THRUCUT
 10
68.04403934337738
 20
38.5347143028516
 30
0.0
 42
0.4142135623730996
  0
VERTEX
  5
110
  8
THREE_QUARTER_INCH_THRUCUT
 10
67.77533874468092
 20
38.53471428100599
 30
0.0
 42
0.4142135623731151
  0
VERTEX
  5
111
  8
THREE_QUARTER_INCH_THRUCUT
 10
67.77533987186546
 20
38.26601368230942
 30
0.0
  0
VERTEX
  5
112
  8
THREE_QUARTER_INCH_THRUCUT
 10
67.77534208254342
 20
29.80341264327714
 30
0.0
 42
1.0
  0
VERTEX
  5
113
  8
THREE_QUARTER_INCH_THRUCUT
 10
68.0440437647333
 20
29.53471330285149
 30
0.0
  0
VERTEX
  5
114
  8
THREE_QUARTER_INCH_THRUCUT
 10
68.37534022283528
 20
29.53471330285149
 30
0.0
  0
VERTEX
  5
115
  8
THREE_QUARTER_INCH_THRUCUT
 10
68.39270522283532
 20
29.53319430285157
 30
0.0
  0
VERTEX
  5
116
  8
THREE_QUARTER_INCH_THRUCUT
 10
68.40954322283532
 20
29.52868330285148
 30
0.0
  0
VERTEX
  5
117
  8
THREE_QUARTER_INCH_THRUCUT
 10
68.42534022283535
 20
29.52131630285155
 30
0.0
  0
VERTEX
  5
118
  8
THREE_QUARTER_INCH_THRUCUT
 10
68.43961922283533
 20
29.51131830285155
 30
0.0
  0
VERTEX
  5
119
  8
THREE_QUARTER_INCH_THRUCUT
 10
68.45194522283536
 20
29.49899230285152
 30
0.0
  0
VERTEX
  5
11A
  8
THREE_QUARTER_INCH_THRUCUT
 10
68.46194322283536
 20
29.48471330285153
 30
0.0
  0
VERTEX
  5
11B
  8
THREE_QUARTER_INCH_THRUCUT
 10
68.46931022283529
 20
29.46891530285163
 30
0.0
  0
VERTEX
  5
11C
  8
THREE_QUARTER_INCH_THRUCUT
 10
68.47382122283527
 20
29.4520783028515
 30
0.0
  0
VERTEX
  5
11D
  8
THREE_QUARTER_INCH_THRUCUT
 10
68.4753402228353
 20
29.43471330285158
 30
0.0
  0
VERTEX
  5
11E
  8
THREE_QUARTER_INCH_THRUCUT
 10
68.4753402228353
 20
28.03471380285166
 30
0.0
  0
VERTEX
  5
11F
  8
THREE_QUARTER_INCH_THRUCUT
 10
68.4753402228353
 20
26.63471430285152
 30
0.0
  0
VERTEX
  5
120
  8
THREE_QUARTER_INCH_THRUCUT
 10
68.47382122283527
 20
26.61734930285159
 30
0.0
  0
VERTEX
  5
121
  8
THREE_QUARTER_INCH_THRUCUT
 10
68.46931022283529
 20
26.60051230285147
 30
0.0
  0
VERTEX
  5
122
  8
THREE_QUARTER_INCH_THRUCUT
 10
68.46194322283536
 20
26.58471430285157
 30
0.0
  0
VERTEX
  5
123
  8
THREE_QUARTER_INCH_THRUCUT
 10
68.45194522283536
 20
26.57043530285158
 30
0.0
  0
VERTEX
  5
124
  8
THREE_QUARTER_INCH_THRUCUT
 10
68.43961922283533
 20
26.55810930285155
 30
0.0
  0
VERTEX
  5
125
  8
THREE_QUARTER_INCH_THRUCUT
 10
68.42534022283535
 20
26.54811130285155
 30
0.0
  0
VERTEX
  5
126
  8
THREE_QUARTER_INCH_THRUCUT
 10
68.40954322283532
 20
26.54074430285162
 30
0.0
  0
VERTEX
  5
127
  8
THREE_QUARTER_INCH_THRUCUT
 10
68.39270522283532
 20
26.53623330285153
 30
0.0
  0
VERTEX
  5
128
  8
THREE_QUARTER_INCH_THRUCUT
 10
68.37534022283528
 20
26.53471430285161
 30
0.0
  0
VERTEX
  5
129
  8
THREE_QUARTER_INCH_THRUCUT
 10
68.04403934337738
 20
26.53471430285161
 30
0.0
 42
0.4142135623730996
  0
VERTEX
  5
12A
  8
THREE_QUARTER_INCH_THRUCUT
 10
67.77533874468092
 20
26.534714281006
 30
0.0
 42
0.4142135623731151
  0
VERTEX
  5
12B
  8
THREE_QUARTER_INCH_THRUCUT
 10
67.77533987186546
 20
26.26601368230943
 30
0.0
  0
VERTEX
  5
12C
  8
THREE_QUARTER_INCH_THRUCUT
 10
67.77534208254342
 20
17.80341264325149
 30
0.0
 42
1.0
  0
VERTEX
  5
12D
  8
THREE_QUARTER_INCH_THRUCUT
 10
68.0440437647333
 20
17.53471330285153
 30
0.0
  0
VERTEX
  5
12E
  8
THREE_QUARTER_INCH_THRUCUT
 10
68.37534022283528
 20
17.53471330285153
 30
0.0
  0
VERTEX
  5
12F
  8
THREE_QUARTER_INCH_THRUCUT
 10
68.39270522283532
 20
17.53319430285162
 30
0.0
  0
VERTEX
  5
130
  8
THREE_QUARTER_INCH_THRUCUT
 10
68.40954322283532
 20
17.52868330285152
 30
0.0
  0
VERTEX
  5
131
  8
THREE_QUARTER_INCH_THRUCUT
 10
68.42534022283535
 20
17.52131630285159
 30
0.0
  0
VERTEX
  5
132
  8
THREE_QUARTER_INCH_THRUCUT
 10
68.43961922283533
 20
17.5113183028516
 30
0.0
  0
VERTEX
  5
133
  8
THREE_QUARTER_INCH_THRUCUT
 10
68.45194522283536
 20
17.49899230285157
 30
0.0
  0
VERTEX
  5
134
  8
THREE_QUARTER_INCH_THRUCUT
 10
68.46194322283536
 20
17.48471330285158
 30
0.0
  0
VERTEX
  5
135
  8
THREE_QUARTER_INCH_THRUCUT
 10
68.46931022283529
 20
17.46891530285167
 30
0.0
  0
VERTEX
  5
136
  8
THREE_QUARTER_INCH_THRUCUT
 10
68.47382122283527
 20
17.45207830285155
 30
0.0
  0
VERTEX
  5
137
  8
THREE_QUARTER_INCH_THRUCUT
 10
68.4753402228353
 20
17.43471330285162
 30
0.0
  0
VERTEX
  5
138
  8
THREE_QUARTER_INCH_THRUCUT
 10
68.4753402228353
 20
16.03471380285171
 30
0.0
  0
VERTEX
  5
139
  8
THREE_QUARTER_INCH_THRUCUT
 10
68.4753402228353
 20
14.63471430285156
 30
0.0
  0
VERTEX
  5
13A
  8
THREE_QUARTER_INCH_THRUCUT
 10
68.47382122283527
 20
14.61734930285163
 30
0.0
  0
VERTEX
  5
13B
  8
THREE_QUARTER_INCH_THRUCUT
 10
68.46931022283529
 20
14.60051230285151
 30
0.0
  0
VERTEX
  5
13C
  8
THREE_QUARTER_INCH_THRUCUT
 10
68.46194322283536
 20
14.5847143028516
 30
0.0
  0
VERTEX
  5
13D
  8
THREE_QUARTER_INCH_THRUCUT
 10
68.45194522283536
 20
14.57043530285162
 30
0.0
  0
VERTEX
  5
13E
  8
THREE_QUARTER_INCH_THRUCUT
 10
68.43961922283533
 20
14.55810930285159
 30
0.0
  0
VERTEX
  5
13F
  8
THREE_QUARTER_INCH_THRUCUT
 10
68.42534022283535
 20
14.54811130285159
 30
0.0
  0
VERTEX
  5
140
  8
THREE_QUARTER_INCH_THRUCUT
 10
68.40954322283532
 20
14.54074430285166
 30
0.0
  0
VERTEX
  5
141
  8
THREE_QUARTER_INCH_THRUCUT
 10
68.39270522283532
 20
14.53623330285157
 30
0.0
  0
VERTEX
  5
142
  8
THREE_QUARTER_INCH_THRUCUT
 10
68.37534022283528
 20
14.53471430285165
 30
0.0
  0
VERTEX
  5
143
  8
THREE_QUARTER_INCH_THRUCUT
 10
68.04403934337738
 20
14.53471430285165
 30
0.0
 42
0.4142135623730996
  0
VERTEX
  5
144
  8
THREE_QUARTER_INCH_THRUCUT
 10
67.77533874468092
 20
14.53471428100604
 30
0.0
 42
0.4142135623731151
  0
VERTEX
  5
145
  8
THREE_QUARTER_INCH_THRUCUT
 10
67.77533987186546
 20
14.26601368230947
 30
0.0
  0
SEQEND
  5
271
  8
THREE_QUARTER_INCH_THRUCUT
  0
POLYLINE
  5
82
  8
THREE_QUARTER_INCH_THRUCUT
 66
     1
 10
0.0
 20
0.0
 30
0.0
 70
     1
  0
VERTEX
  5
146
  8
THREE_QUARTER_INCH_THRUCUT
 10
46.52534097607604
 20
27.77392576047689
 30
0.0
  0
VERTEX
  5
147
  8
THREE_QUARTER_INCH_THRUCUT
 10
46.52534097607496
 20
25.29550056362653
 30
0.0
 42
-1.0
  0
VERTEX
  5
148
  8
THREE_QUARTER_INCH_THRUCUT
 10
46.52534097607484
 20
25.03471316205172
 30
0.0
  0
VERTEX
  5
149
  8
THREE_QUARTER_INCH_THRUCUT
 10
45.77534097607615
 20
25.03471316205308
 30
0.0
 42
-1.0
  0
VERTEX
  5
14A
  8
THREE_QUARTER_INCH_THRUCUT
 10
45.77534097607615
 20
25.2955005636279
 30
0.0
  0
VERTEX
  5
14B
  8
THREE_QUARTER_INCH_THRUCUT
 10
45.77534097607595
 20
27.77392576047825
 30
0.0
 42
-1.0
  0
VERTEX
  5
14C
  8
THREE_QUARTER_INCH_THRUCUT
 10
45.77534097607595
 20
28.03471316205307
 30
0.0
  0
VERTEX
  5
14D
  8
THREE_QUARTER_INCH_THRUCUT
 10
46.52534097607615
 20
28.0347131620517
 30
0.0
 42
-1.0
  0
SEQEND
  5
272
  8
THREE_QUARTER_INCH_THRUCUT
  0
POLYLINE
  5
83
  8
THREE_QUARTER_INCH_THRUCUT
 66
     1
 10
0.0
 20
0.0
 30
0.0
 70
     1
  0
VERTEX
  5
14E
  8
THREE_QUARTER_INCH_THRUCUT
 10
23.77534097606948
 20
25.29550056363017
 30
0.0
  0
VERTEX
  5
14F
  8
THREE_QUARTER_INCH_THRUCUT
 10
23.77534097608079
 20
27.77392576047325
 30
0.0
 42
-1.0
  0
VERTEX
  5
150
  8
THREE_QUARTER_INCH_THRUCUT
 10
23.77534097608198
 20
28.03471316204806
 30
0.0
  0
VERTEX
  5
151
  8
THREE_QUARTER_INCH_THRUCUT
 10
24.52534097607616
 20
28.0347131620517
 30
0.0
 42
-1.0
  0
VERTEX
  5
152
  8
THREE_QUARTER_INCH_THRUCUT
 10
24.52534097607604
 20
27.77392576047689
 30
0.0
  0
VERTEX
  5
153
  8
THREE_QUARTER_INCH_THRUCUT
 10
24.52534097607496
 20
25.29550056362653
 30
0.0
 42
-1.0
  0
VERTEX
  5
154
  8
THREE_QUARTER_INCH_THRUCUT
 10
24.52534097607485
 20
25.03471316205172
 30
0.0
  0
VERTEX
  5
155
  8
THREE_QUARTER_INCH_THRUCUT
 10
23.77534097606888
 20
25.03471316205535
 30
0.0
 42
-1.0
  0
SEQEND
  5
273
  8
THREE_QUARTER_INCH_THRUCUT
  0
POLYLINE
  5
85
  8
THREE_QUARTER_INCH_CUTOUT
 66
     1
 10
0.0
 20
0.0
 30
0.0
 70
     1
  0
VERTEX
  5
156
  8
THREE_QUARTER_INCH_CUTOUT
 10
5.701681189685807
 20
4.337125766827503
 30
0.0
 42
0.4142135623730951
  0
VERTEX
  5
157
  8
THREE_QUARTER_INCH_CUTOUT
 10
5.542463103514386
 20
4.245204055377533
 30
0.0
 42
0.4142135623730951
  0
VERTEX
  5
158
  8
THREE_QUARTER_INCH_CUTOUT
 10
5.634384814964413
 20
4.085985969206197
 30
0.0
 42
0.4142135623730951
  0
VERTEX
  5
159
  8
THREE_QUARTER_INCH_CUTOUT
 10
5.793602901135976
 20
4.17790768065611
 30
0.0
 42
0.4142135623730951
  0
SEQEND
  5
274
  8
THREE_QUARTER_INCH_CUTOUT
  0
POLYLINE
  5
86
  8
THREE_QUARTER_INCH_CUTOUT
 66
     1
 10
0.0
 20
0.0
 30
0.0
 70
     1
  0
VERTEX
  5
15A
  8
THREE_QUARTER_INCH_CUTOUT
 10
6.219249018389654
 20
6.268996247136945
 30
0.0
 42
0.4142135623730951
  0
VERTEX
  5
15B
  8
THREE_QUARTER_INCH_CUTOUT
 10
6.060030932218233
 20
6.177074535686975
 30
0.0
 42
0.4142135623730951
  0
VERTEX
  5
15C
  8
THREE_QUARTER_INCH_CUTOUT
 10
6.151952643668373
 20
6.017856449515525
 30
0.0
 42
0.4142135623730951
  0
VERTEX
  5
15D
  8
THREE_QUARTER_INCH_CUTOUT
 10
6.311170729839738
 20
6.109778160965496
 30
0.0
 42
0.4142135623730951
  0
SEQEND
  5
275
  8
THREE_QUARTER_INCH_CUTOUT
  0
POLYLINE
  5
87
  8
THREE_QUARTER_INCH_CUTOUT
 66
     1
 10
0.0
 20
0.0
 30
0.0
 70
     1
  0
VERTEX
  5
15E
  8
THREE_QUARTER_INCH_CUTOUT
 10
4.028633448489295
 20
5.82077372409457
 30
0.0
 42
0.4142135623730951
  0
VERTEX
  5
15F
  8
THREE_QUARTER_INCH_CUTOUT
 10
3.869415362317874
 20
5.7288520126446
 30
0.0
 42
0.4142135623730951
  0
VERTEX
  5
160
  8
THREE_QUARTER_INCH_CUTOUT
 10
3.961337073767901
 20
5.569633926473093
 30
0.0
 42
0.4142135623730951
  0
VERTEX
  5
161
  8
THREE_QUARTER_INCH_CUTOUT
 10
4.120555159939322
 20
5.661555637923064
 30
0.0
 42
0.4142135623730951
  0
SEQEND
  5
276
  8
THREE_QUARTER_INCH_CUTOUT
  0
POLYLINE
  5
88
  8
THREE_QUARTER_INCH_CUTOUT
 66
     1
 10
0.0
 20
0.0
 30
0.0
 70
     1
  0
VERTEX
  5
162
  8
THREE_QUARTER_INCH_CUTOUT
 10
65.9380877536023
 20
6.377120898468588
 30
0.0
  0
VERTEX
  5
163
  8
THREE_QUARTER_INCH_CUTOUT
 10
55.93808810802286
 20
6.377120898468588
 30
0.0
  0
VERTEX
  5
164
  8
THREE_QUARTER_INCH_CUTOUT
 10
53.27904018405686
 20
6.37711823372045
 30
0.0
  0
VERTEX
  5
165
  8
THREE_QUARTER_INCH_CUTOUT
 10
19.81795470905038
 20
6.377093750294582
 30
0.0
 42
-0.4142135623731033
  0
VERTEX
  5
166
  8
THREE_QUARTER_INCH_CUTOUT
 10
19.62795492459865
 20
6.187084485355106
 30
0.0
 42
-0.4142135623731126
  0
VERTEX
  5
167
  8
THREE_QUARTER_INCH_CUTOUT
 10
19.43795470905063
 20
6.377084269806849
 30
0.0
 42
0.0034227606007967
  0
VERTEX
  5
168
  8
THREE_QUARTER_INCH_CUTOUT
 10
19.43795645950617
 20
6.827084485348896
 30
0.0
  0
VERTEX
  5
169
  8
THREE_QUARTER_INCH_CUTOUT
 10
17.93819295515489
 20
6.827094986426962
 30
0.0
 42
-0.0072107587634131
  0
VERTEX
  5
16A
  8
THREE_QUARTER_INCH_CUTOUT
 10
16.45156397360286
 20
6.848561667592596
 30
0.0
 42
0.0001135149948654
  0
VERTEX
  5
16B
  8
THREE_QUARTER_INCH_CUTOUT
 10
16.43858082703606
 20
6.398748518709388
 30
0.0
 42
-0.4142138179706592
  0
VERTEX
  5
16C
  8
THREE_QUARTER_INCH_CUTOUT
 10
16.24252057668578
 20
6.215008372745094
 30
0.0
  0
VERTEX
  5
16D
  8
THREE_QUARTER_INCH_CUTOUT
 10
16.23280415825805
 20
6.215568494288231
 30
0.0
  0
VERTEX
  5
16E
  8
THREE_QUARTER_INCH_CUTOUT
 10
16.22323032508616
 20
6.216606007039784
 30
0.0
  0
VERTEX
  5
16F
  8
THREE_QUARTER_INCH_CUTOUT
 10
16.21381045177493
 20
6.218108769100075
 30
0.0
  0
VERTEX
  5
170
  8
THREE_QUARTER_INCH_CUTOUT
 10
16.20455591292923
 20
6.220064638569425
 30
0.0
  0
VERTEX
  5
171
  8
THREE_QUARTER_INCH_CUTOUT
 10
16.1954780831539
 20
6.222461473548153
 30
0.0
  0
VERTEX
  5
172
  8
THREE_QUARTER_INCH_CUTOUT
 10
16.18658833705379
 20
6.225287132136579
 30
0.0
  0
VERTEX
  5
173
  8
THREE_QUARTER_INCH_CUTOUT
 10
16.17789804923375
 20
6.228529472435025
 30
0.0
  0
VERTEX
  5
174
  8
THREE_QUARTER_INCH_CUTOUT
 10
16.16941859429863
 20
6.23217635254381
 30
0.0
  0
VERTEX
  5
175
  8
THREE_QUARTER_INCH_CUTOUT
 10
16.16116134685328
 20
6.236215630563255
 30
0.0
  0
VERTEX
  5
176
  8
THREE_QUARTER_INCH_CUTOUT
 10
16.15313768150255
 20
6.240635164593678
 30
0.0
  0
VERTEX
  5
177
  8
THREE_QUARTER_INCH_CUTOUT
 10
16.14535897285128
 20
6.245422812735402
 30
0.0
  0
VERTEX
  5
178
  8
THREE_QUARTER_INCH_CUTOUT
 10
16.13783659550433
 20
6.250566433088746
 30
0.0
  0
VERTEX
  5
179
  8
THREE_QUARTER_INCH_CUTOUT
 10
16.13058192406653
 20
6.25605388375403
 30
0.0
  0
VERTEX
  5
17A
  8
THREE_QUARTER_INCH_CUTOUT
 10
16.12360633314276
 20
6.261873022831576
 30
0.0
  0
VERTEX
  5
17B
  8
THREE_QUARTER_INCH_CUTOUT
 10
16.11692119733785
 20
6.268011708421701
 30
0.0
  0
VERTEX
  5
17C
  8
THREE_QUARTER_INCH_CUTOUT
 10
16.11053789125665
 20
6.274457798624729
 30
0.0
  0
VERTEX
  5
17D
  8
THREE_QUARTER_INCH_CUTOUT
 10
16.10446778950401
 20
6.281199151540978
 30
0.0
  0
VERTEX
  5
17E
  8
THREE_QUARTER_INCH_CUTOUT
 10
16.09872226668477
 20
6.288223625270769
 30
0.0
  0
VERTEX
  5
17F
  8
THREE_QUARTER_INCH_CUTOUT
 10
16.0933126974038
 20
6.29551907791442
 30
0.0
  0
VERTEX
  5
180
  8
THREE_QUARTER_INCH_CUTOUT
 10
16.08825045626594
 20
6.303073367572255
 30
0.0
  0
VERTEX
  5
181
  8
THREE_QUARTER_INCH_CUTOUT
 10
16.08354691787603
 20
6.310874352344593
 30
0.0
  0
VERTEX
  5
182
  8
THREE_QUARTER_INCH_CUTOUT
 10
16.07921345683893
 20
6.318909890331752
 30
0.0
  0
VERTEX
  5
183
  8
THREE_QUARTER_INCH_CUTOUT
 10
16.07526144775947
 20
6.327167839634054
 30
0.0
  0
VERTEX
  5
184
  8
THREE_QUARTER_INCH_CUTOUT
 10
16.07170226524253
 20
6.33563605835182
 30
0.0
  0
VERTEX
  5
185
  8
THREE_QUARTER_INCH_CUTOUT
 10
16.06854728389293
 20
6.344302404585369
 30
0.0
  0
VERTEX
  5
186
  8
THREE_QUARTER_INCH_CUTOUT
 10
16.06580787831554
 20
6.353154736435023
 30
0.0
  0
VERTEX
  5
187
  8
THREE_QUARTER_INCH_CUTOUT
 10
16.0634954231152
 20
6.362180912001101
 30
0.0
  0
VERTEX
  5
188
  8
THREE_QUARTER_INCH_CUTOUT
 10
16.06162129289676
 20
6.371368789383921
 30
0.0
  0
VERTEX
  5
189
  8
THREE_QUARTER_INCH_CUTOUT
 10
16.06019686226507
 20
6.380706226683806
 30
0.0
  0
VERTEX
  5
18A
  8
THREE_QUARTER_INCH_CUTOUT
 10
16.05923350582497
 20
6.390181082001077
 30
0.0
  0
VERTEX
  5
18B
  8
THREE_QUARTER_INCH_CUTOUT
 10
16.05874259818133
 20
6.399781213436053
 30
0.0
  0
VERTEX
  5
18C
  8
THREE_QUARTER_INCH_CUTOUT
 10
16.05873551393897
 20
6.409494479089053
 30
0.0
  0
VERTEX
  5
18D
  8
THREE_QUARTER_INCH_CUTOUT
 10
15.85808358276932
 20
6.416700552841371
 30
0.0
  0
VERTEX
  5
18E
  8
THREE_QUARTER_INCH_CUTOUT
 10
15.65761879838573
 20
6.424615960057589
 30
0.0
  0
VERTEX
  5
18F
  8
THREE_QUARTER_INCH_CUTOUT
 10
15.4573423565056
 20
6.433239469794203
 30
0.0
  0
VERTEX
  5
190
  8
THREE_QUARTER_INCH_CUTOUT
 10
15.2572554528463
 20
6.44256985110771
 30
0.0
  0
VERTEX
  5
191
  8
THREE_QUARTER_INCH_CUTOUT
 10
15.05735928312525
 20
6.452605873054609
 30
0.0
  0
VERTEX
  5
192
  8
THREE_QUARTER_INCH_CUTOUT
 10
14.85765504305984
 20
6.463346304691397
 30
0.0
  0
VERTEX
  5
193
  8
THREE_QUARTER_INCH_CUTOUT
 10
14.65814392836746
 20
6.474789915074571
 30
0.0
  0
VERTEX
  5
194
  8
THREE_QUARTER_INCH_CUTOUT
 10
14.4588271347655
 20
6.48693547326063
 30
0.0
  0
VERTEX
  5
195
  8
THREE_QUARTER_INCH_CUTOUT
 10
14.25970585797137
 20
6.49978174830607
 30
0.0
  0
VERTEX
  5
196
  8
THREE_QUARTER_INCH_CUTOUT
 10
14.06078129370246
 20
6.513327509267389
 30
0.0
  0
VERTEX
  5
197
  8
THREE_QUARTER_INCH_CUTOUT
 10
13.86205463767617
 20
6.527571525201084
 30
0.0
  0
VERTEX
  5
198
  8
THREE_QUARTER_INCH_CUTOUT
 10
13.66352708560988
 20
6.542512565163653
 30
0.0
  0
VERTEX
  5
199
  8
THREE_QUARTER_INCH_CUTOUT
 10
13.465199833221
 20
6.558149398211594
 30
0.0
  0
VERTEX
  5
19A
  8
THREE_QUARTER_INCH_CUTOUT
 10
13.26707407622692
 20
6.574480793401404
 30
0.0
  0
VERTEX
  5
19B
  8
THREE_QUARTER_INCH_CUTOUT
 10
13.06915101034504
 20
6.591505519789582
 30
0.0
  0
VERTEX
  5
19C
  8
THREE_QUARTER_INCH_CUTOUT
 10
12.87143183129275
 20
6.609222346432622
 30
0.0
  0
VERTEX
  5
19D
  8
THREE_QUARTER_INCH_CUTOUT
 10
12.67391773478745
 20
6.627630042387024
 30
0.0
  0
VERTEX
  5
19E
  8
THREE_QUARTER_INCH_CUTOUT
 10
12.47660991654653
 20
6.646727376709285
 30
0.0
  0
VERTEX
  5
19F
  8
THREE_QUARTER_INCH_CUTOUT
 10
12.27950957228739
 20
6.666513118455903
 30
0.0
  0
VERTEX
  5
1A0
  8
THREE_QUARTER_INCH_CUTOUT
 10
12.08261789772742
 20
6.686986036683376
 30
0.0
  0
VERTEX
  5
1A1
  8
THREE_QUARTER_INCH_CUTOUT
 10
11.88593608858403
 20
6.708144900448199
 30
0.0
  0
VERTEX
  5
1A2
  8
THREE_QUARTER_INCH_CUTOUT
 10
11.6894653405746
 20
6.729988478806873
 30
0.0
  0
VERTEX
  5
1A3
  8
THREE_QUARTER_INCH_CUTOUT
 10
11.49320684941653
 20
6.752515540815892
 30
0.0
  0
VERTEX
  5
1A4
  8
THREE_QUARTER_INCH_CUTOUT
 10
11.29716181082722
 20
6.775724855531756
 30
0.0
  0
VERTEX
  5
1A5
  8
THREE_QUARTER_INCH_CUTOUT
 10
11.10133142052406
 20
6.799615192010961
 30
0.0
  0
VERTEX
  5
1A6
  8
THREE_QUARTER_INCH_CUTOUT
 10
10.90571687422445
 20
6.824185319310006
 30
0.0
  0
VERTEX
  5
1A7
  8
THREE_QUARTER_INCH_CUTOUT
 10
10.71031936764578
 20
6.849434006485387
 30
0.0
  0
VERTEX
  5
1A8
  8
THREE_QUARTER_INCH_CUTOUT
 10
10.51514009650544
 20
6.875360022593602
 30
0.0
  0
VERTEX
  5
1A9
  8
THREE_QUARTER_INCH_CUTOUT
 10
10.32018025652085
 20
6.901962136691148
 30
0.0
  0
VERTEX
  5
1AA
  8
THREE_QUARTER_INCH_CUTOUT
 10
10.12544104340938
 20
6.929239117834525
 30
0.0
  0
VERTEX
  5
1AB
  8
THREE_QUARTER_INCH_CUTOUT
 10
9.930923652888438
 20
6.957189735080229
 30
0.0
  0
VERTEX
  5
1AC
  8
THREE_QUARTER_INCH_CUTOUT
 10
9.736629280675416
 20
6.985812757484757
 30
0.0
  0
VERTEX
  5
1AD
  8
THREE_QUARTER_INCH_CUTOUT
 10
9.542559122487711
 20
7.015106954104606
 30
0.0
  0
VERTEX
  5
1AE
  8
THREE_QUARTER_INCH_CUTOUT
 10
9.348714374042718
 20
7.045071093996274
 30
0.0
  0
VERTEX
  5
1AF
  8
THREE_QUARTER_INCH_CUTOUT
 10
9.155096231057833
 20
7.07570394621626
 30
0.0
  0
VERTEX
  5
1B0
  8
THREE_QUARTER_INCH_CUTOUT
 10
8.96170588925045
 20
7.10700427982106
 30
0.0
  0
VERTEX
  5
1B1
  8
THREE_QUARTER_INCH_CUTOUT
 10
8.768544544337963
 20
7.138970863867171
 30
0.0
  0
VERTEX
  5
1B2
  8
THREE_QUARTER_INCH_CUTOUT
 10
8.575613392037774
 20
7.171602467411091
 30
0.0
  0
VERTEX
  5
1B3
  8
THREE_QUARTER_INCH_CUTOUT
 10
8.382913628067271
 20
7.20489785950932
 30
0.0
  0
VERTEX
  5
1B4
  8
THREE_QUARTER_INCH_CUTOUT
 10
8.190446448143854
 20
7.238855809218352
 30
0.0
  0
VERTEX
  5
1B5
  8
THREE_QUARTER_INCH_CUTOUT
 10
7.998213047984917
 20
7.273475085594686
 30
0.0
  0
VERTEX
  5
1B6
  8
THREE_QUARTER_INCH_CUTOUT
 10
7.806214623307858
 20
7.308754457694819
 30
0.0
  0
VERTEX
  5
1B7
  8
THREE_QUARTER_INCH_CUTOUT
 10
7.614452369830069
 20
7.344692694575249
 30
0.0
  0
VERTEX
  5
1B8
  8
THREE_QUARTER_INCH_CUTOUT
 10
7.422927483268946
 20
7.381288565292475
 30
0.0
  0
VERTEX
  5
1B9
  8
THREE_QUARTER_INCH_CUTOUT
 10
7.231641159341886
 20
7.418540838902992
 30
0.0
  0
VERTEX
  5
1BA
  8
THREE_QUARTER_INCH_CUTOUT
 10
7.040594593766285
 20
7.456448284463297
 30
0.0
  0
VERTEX
  5
1BB
  8
THREE_QUARTER_INCH_CUTOUT
 10
6.849788982259536
 20
7.495009671029891
 30
0.0
  0
VERTEX
  5
1BC
  8
THREE_QUARTER_INCH_CUTOUT
 10
6.659225520539038
 20
7.534223767659268
 30
0.0
  0
VERTEX
  5
1BD
  8
THREE_QUARTER_INCH_CUTOUT
 10
6.468905404322184
 20
7.574089343407928
 30
0.0
  0
VERTEX
  5
1BE
  8
THREE_QUARTER_INCH_CUTOUT
 10
6.278829829326369
 20
7.614605167332368
 30
0.0
  0
VERTEX
  5
1BF
  8
THREE_QUARTER_INCH_CUTOUT
 10
6.088999991268992
 20
7.655770008489084
 30
0.0
  0
VERTEX
  5
1C0
  8
THREE_QUARTER_INCH_CUTOUT
 10
5.899417085867444
 20
7.697582635934574
 30
0.0
  0
VERTEX
  5
1C1
  8
THREE_QUARTER_INCH_CUTOUT
 10
5.710082308839124
 20
7.740041818725336
 30
0.0
  0
VERTEX
  5
1C2
  8
THREE_QUARTER_INCH_CUTOUT
 10
5.520996855901426
 20
7.783146325917869
 30
0.0
  0
VERTEX
  5
1C3
  8
THREE_QUARTER_INCH_CUTOUT
 10
5.332161922771746
 20
7.826894926568668
 30
0.0
  0
VERTEX
  5
1C4
  8
THREE_QUARTER_INCH_CUTOUT
 10
5.143578705167478
 20
7.871286389734232
 30
0.0
  0
VERTEX
  5
1C5
  8
THREE_QUARTER_INCH_CUTOUT
 10
4.955248398806019
 20
7.916319484471058
 30
0.0
  0
VERTEX
  5
1C6
  8
THREE_QUARTER_INCH_CUTOUT
 10
4.767172199404765
 20
7.961992979835644
 30
0.0
  0
VERTEX
  5
1C7
  8
THREE_QUARTER_INCH_CUTOUT
 10
4.579351302681109
 20
8.008305644884485
 30
0.0
  0
VERTEX
  5
1C8
  8
THREE_QUARTER_INCH_CUTOUT
 10
4.391786904352451
 20
8.055256248674082
 30
0.0
  0
VERTEX
  5
1C9
  8
THREE_QUARTER_INCH_CUTOUT
 10
4.204480200136183
 20
8.102843560260933
 30
0.0
  0
VERTEX
  5
1CA
  8
THREE_QUARTER_INCH_CUTOUT
 10
4.017432385749702
 20
8.151066348701532
 30
0.0
  0
VERTEX
  5
1CB
  8
THREE_QUARTER_INCH_CUTOUT
 10
3.830644656910402
 20
8.199923383052377
 30
0.0
  0
VERTEX
  5
1CC
  8
THREE_QUARTER_INCH_CUTOUT
 10
3.64411820933568
 20
8.249413432369968
 30
0.0
  0
VERTEX
  5
1CD
  8
THREE_QUARTER_INCH_CUTOUT
 10
3.609335524667493
 20
8.119524483822763
 30
0.0
 42
0.1988557026438834
  0
VERTEX
  5
1CE
  8
THREE_QUARTER_INCH_CUTOUT
 10
3.64779223636716
 20
7.819857005275358
 30
0.0
  0
VERTEX
  5
1CF
  8
THREE_QUARTER_INCH_CUTOUT
 10
4.00417367289176
 20
7.20353167382631
 30
0.0
 42
-0.4142135623730944
  0
VERTEX
  5
1D0
  8
THREE_QUARTER_INCH_CUTOUT
 10
3.787319964744391
 20
6.392366499423067
 30
0.0
  0
VERTEX
  5
1D1
  8
THREE_QUARTER_INCH_CUTOUT
 10
3.029063629783785
 20
5.954060155789696
 30
0.0
  0
VERTEX
  5
1D2
  8
THREE_QUARTER_INCH_CUTOUT
 10
2.270807294823292
 20
5.515753812156268
 30
0.0
 42
0.4142135623730944
  0
VERTEX
  5
1D3
  8
THREE_QUARTER_INCH_CUTOUT
 10
2.053953586675952
 20
4.704588637753082
 30
0.0
  0
VERTEX
  5
1D4
  8
THREE_QUARTER_INCH_CUTOUT
 10
2.410335023200552
 20
4.088263306304091
 30
0.0
 42
-0.1988557026438834
  0
VERTEX
  5
1D5
  8
THREE_QUARTER_INCH_CUTOUT
 10
2.448791734900219
 20
3.788595827756685
 30
0.0
  0
VERTEX
  5
1D6
  8
THREE_QUARTER_INCH_CUTOUT
 10
2.413862638008901
 20
3.658161948358432
 30
0.0
  0
VERTEX
  5
1D7
  8
THREE_QUARTER_INCH_CUTOUT
 10
2.629847854960633
 20
3.600854104838691
 30
0.0
  0
VERTEX
  5
1D8
  8
THREE_QUARTER_INCH_CUTOUT
 10
2.846148580239348
 20
3.54433017929177
 30
0.0
  0
VERTEX
  5
1D9
  8
THREE_QUARTER_INCH_CUTOUT
 10
3.062763256585183
 20
3.488591778056267
 30
0.0
  0
VERTEX
  5
1DA
  8
THREE_QUARTER_INCH_CUTOUT
 10
3.279690326738275
 20
3.433640507470778
 30
0.0
  0
VERTEX
  5
1DB
  8
THREE_QUARTER_INCH_CUTOUT
 10
3.496928233438762
 20
3.379477973873899
 30
0.0
  0
VERTEX
  5
1DC
  8
THREE_QUARTER_INCH_CUTOUT
 10
3.714475419426782
 20
3.326105783604228
 30
0.0
  0
VERTEX
  5
1DD
  8
THREE_QUARTER_INCH_CUTOUT
 10
3.932330327442472
 20
3.27352554300036
 30
0.0
  0
VERTEX
  5
1DE
  8
THREE_QUARTER_INCH_CUTOUT
 10
4.15049140022597
 20
3.221738858400893
 30
0.0
  0
VERTEX
  5
1DF
  8
THREE_QUARTER_INCH_CUTOUT
 10
4.368957080517413
 20
3.170747336144423
 30
0.0
  0
VERTEX
  5
1E0
  8
THREE_QUARTER_INCH_CUTOUT
 10
4.587725811056941
 20
3.120552582569546
 30
0.0
  0
VERTEX
  5
1E1
  8
THREE_QUARTER_INCH_CUTOUT
 10
4.806796034584689
 20
3.07115620401486
 30
0.0
  0
VERTEX
  5
1E2
  8
THREE_QUARTER_INCH_CUTOUT
 10
5.026166193840796
 20
3.022559806818962
 30
0.0
  0
VERTEX
  5
1E3
  8
THREE_QUARTER_INCH_CUTOUT
 10
5.245834731565399
 20
2.974764997320447
 30
0.0
  0
VERTEX
  5
1E4
  8
THREE_QUARTER_INCH_CUTOUT
 10
5.465800090498635
 20
2.927773381857913
 30
0.0
  0
VERTEX
  5
1E5
  8
THREE_QUARTER_INCH_CUTOUT
 10
5.686060713380643
 20
2.881586566769955
 30
0.0
  0
VERTEX
  5
1E6
  8
THREE_QUARTER_INCH_CUTOUT
 10
5.90661504295156
 20
2.836206158395171
 30
0.0
  0
VERTEX
  5
1E7
  8
THREE_QUARTER_INCH_CUTOUT
 10
6.127461521951522
 20
2.791633763072158
 30
0.0
  0
VERTEX
  5
1E8
  8
THREE_QUARTER_INCH_CUTOUT
 10
6.348598593120671
 20
2.747870987139512
 30
0.0
  0
VERTEX
  5
1E9
  8
THREE_QUARTER_INCH_CUTOUT
 10
6.570024699199141
 20
2.70491943693583
 30
0.0
  0
VERTEX
  5
1EA
  8
THREE_QUARTER_INCH_CUTOUT
 10
6.791738282927071
 20
2.662780718799707
 30
0.0
  0
VERTEX
  5
1EB
  8
THREE_QUARTER_INCH_CUTOUT
 10
7.013737787044597
 20
2.621456439069743
 30
0.0
  0
VERTEX
  5
1EC
  8
THREE_QUARTER_INCH_CUTOUT
 10
7.23602165429186
 20
2.580948204084531
 30
0.0
  0
VERTEX
  5
1ED
  8
THREE_QUARTER_INCH_CUTOUT
 10
7.458588327408995
 20
2.54125762018267
 30
0.0
  0
VERTEX
  5
1EE
  8
THREE_QUARTER_INCH_CUTOUT
 10
7.68143624913614
 20
2.502386293702756
 30
0.0
  0
VERTEX
  5
1EF
  8
THREE_QUARTER_INCH_CUTOUT
 10
7.904563862213433
 20
2.464335830983385
 30
0.0
  0
VERTEX
  5
1F0
  8
THREE_QUARTER_INCH_CUTOUT
 10
8.127969609381012
 20
2.427107838363155
 30
0.0
  0
VERTEX
  5
1F1
  8
THREE_QUARTER_INCH_CUTOUT
 10
8.351651933379012
 20
2.390703922180663
 30
0.0
  0
VERTEX
  5
1F2
  8
THREE_QUARTER_INCH_CUTOUT
 10
8.575609276947574
 20
2.355125688774503
 30
0.0
  0
VERTEX
  5
1F3
  8
THREE_QUARTER_INCH_CUTOUT
 10
8.799840082826835
 20
2.320374744483274
 30
0.0
  0
VERTEX
  5
1F4
  8
THREE_QUARTER_INCH_CUTOUT
 10
9.024342793756931
 20
2.286452695645572
 30
0.0
  0
VERTEX
  5
1F5
  8
THREE_QUARTER_INCH_CUTOUT
 10
9.249115852477999
 20
2.253361148599993
 30
0.0
  0
VERTEX
  5
1F6
  8
THREE_QUARTER_INCH_CUTOUT
 10
9.474157701730181
 20
2.221101709685135
 30
0.0
  0
VERTEX
  5
1F7
  8
THREE_QUARTER_INCH_CUTOUT
 10
9.699466784253612
 20
2.189675985239593
 30
0.0
  0
VERTEX
  5
1F8
  8
THREE_QUARTER_INCH_CUTOUT
 10
9.92504154278843
 20
2.159085581601965
 30
0.0
  0
VERTEX
  5
1F9
  8
THREE_QUARTER_INCH_CUTOUT
 10
10.15088042007477
 20
2.129332105110847
 30
0.0
  0
VERTEX
  5
1FA
  8
THREE_QUARTER_INCH_CUTOUT
 10
10.37698185885277
 20
2.100417162104836
 30
0.0
  0
VERTEX
  5
1FB
  8
THREE_QUARTER_INCH_CUTOUT
 10
10.60334430186257
 20
2.072342358922529
 30
0.0
  0
VERTEX
  5
1FC
  8
THREE_QUARTER_INCH_CUTOUT
 10
10.82996619184431
 20
2.045109301902523
 30
0.0
  0
VERTEX
  5
1FD
  8
THREE_QUARTER_INCH_CUTOUT
 10
11.05684597153813
 20
2.018719597383412
 30
0.0
  0
VERTEX
  5
1FE
  8
THREE_QUARTER_INCH_CUTOUT
 10
11.28398208368415
 20
1.993174851703795
 30
0.0
  0
VERTEX
  5
1FF
  8
THREE_QUARTER_INCH_CUTOUT
 10
11.51137297102253
 20
1.968476671202269
 30
0.0
  0
VERTEX
  5
200
  8
THREE_QUARTER_INCH_CUTOUT
 10
11.73901707629339
 20
1.944626662217429
 30
0.0
  0
VERTEX
  5
201
  8
THREE_QUARTER_INCH_CUTOUT
 10
11.96691284223688
 20
1.921626431087873
 30
0.0
  0
VERTEX
  5
202
  8
THREE_QUARTER_INCH_CUTOUT
 10
12.19505871159313
 20
1.899477584152196
 30
0.0
  0
VERTEX
  5
203
  8
THREE_QUARTER_INCH_CUTOUT
 10
12.42345312710229
 20
1.878181727748997
 30
0.0
  0
VERTEX
  5
204
  8
THREE_QUARTER_INCH_CUTOUT
 10
12.65209453150448
 20
1.857740468216871
 30
0.0
  0
VERTEX
  5
205
  8
THREE_QUARTER_INCH_CUTOUT
 10
12.88098136753984
 20
1.838155411894415
 30
0.0
  0
VERTEX
  5
206
  8
THREE_QUARTER_INCH_CUTOUT
 10
13.11011207794852
 20
1.819428165120226
 30
0.0
  0
VERTEX
  5
207
  8
THREE_QUARTER_INCH_CUTOUT
 10
13.33948510547066
 20
1.8015603342329
 30
0.0
  0
VERTEX
  5
208
  8
THREE_QUARTER_INCH_CUTOUT
 10
13.56909889284638
 20
1.784553525571034
 30
0.0
  0
VERTEX
  5
209
  8
THREE_QUARTER_INCH_CUTOUT
 10
13.79895188281582
 20
1.768409345473225
 30
0.0
  0
VERTEX
  5
20A
  8
THREE_QUARTER_INCH_CUTOUT
 10
14.02904251811913
 20
1.75312940027807
 30
0.0
  0
VERTEX
  5
20B
  8
THREE_QUARTER_INCH_CUTOUT
 10
14.25936924149645
 20
1.738715296324164
 30
0.0
  0
VERTEX
  5
20C
  8
THREE_QUARTER_INCH_CUTOUT
 10
14.4899304956879
 20
1.725168639950105
 30
0.0
  0
VERTEX
  5
20D
  8
THREE_QUARTER_INCH_CUTOUT
 10
14.72072472343363
 20
1.71249103749449
 30
0.0
  0
VERTEX
  5
20E
  8
THREE_QUARTER_INCH_CUTOUT
 10
14.95175036747377
 20
1.700684095295914
 30
0.0
  0
VERTEX
  5
20F
  8
THREE_QUARTER_INCH_CUTOUT
 10
15.18300587054846
 20
1.689749419692975
 30
0.0
  0
VERTEX
  5
210
  8
THREE_QUARTER_INCH_CUTOUT
 10
15.41448967539785
 20
1.679688617024269
 30
0.0
  0
VERTEX
  5
211
  8
THREE_QUARTER_INCH_CUTOUT
 10
15.64620022476206
 20
1.670503293628393
 30
0.0
  0
VERTEX
  5
212
  8
THREE_QUARTER_INCH_CUTOUT
 10
15.87813596138124
 20
1.662195055843945
 30
0.0
  0
VERTEX
  5
213
  8
THREE_QUARTER_INCH_CUTOUT
 10
16.11029532799552
 20
1.654765510009519
 30
0.0
  0
VERTEX
  5
214
  8
THREE_QUARTER_INCH_CUTOUT
 10
16.34267676734504
 20
1.648216262463713
 30
0.0
  0
VERTEX
  5
215
  8
THREE_QUARTER_INCH_CUTOUT
 10
16.57527872216994
 20
1.642548919545124
 30
0.0
  0
VERTEX
  5
216
  8
THREE_QUARTER_INCH_CUTOUT
 10
16.80809963521035
 20
1.637765087592348
 30
0.0
 42
0.4142106424158553
  0
VERTEX
  5
217
  8
THREE_QUARTER_INCH_CUTOUT
 10
16.93809834098825
 20
1.76776508758501
 30
0.0
  0
VERTEX
  5
218
  8
THREE_QUARTER_INCH_CUTOUT
 10
16.93809834098771
 20
1.943290276823396
 30
0.0
 42
-1.0
  0
VERTEX
  5
219
  8
THREE_QUARTER_INCH_CUTOUT
 10
17.12194610801579
 20
2.127138039932211
 30
0.0
  0
VERTEX
  5
21A
  8
THREE_QUARTER_INCH_CUTOUT
 10
17.8080983409874
 20
2.127138025301624
 30
0.0
  0
VERTEX
  5
21B
  8
THREE_QUARTER_INCH_CUTOUT
 10
17.80809834098729
 20
2.727138285655988
 30
0.0
  0
VERTEX
  5
21C
  8
THREE_QUARTER_INCH_CUTOUT
 10
17.12194093029804
 20
2.727138263000702
 30
0.0
 42
-1.0
  0
VERTEX
  5
21D
  8
THREE_QUARTER_INCH_CUTOUT
 10
16.93809316113347
 20
2.910988314478677
 30
0.0
  0
VERTEX
  5
21E
  8
THREE_QUARTER_INCH_CUTOUT
 10
16.9380948079387
 20
3.04329276293412
 30
0.0
 42
-1.0
  0
VERTEX
  5
21F
  8
THREE_QUARTER_INCH_CUTOUT
 10
17.12194257103569
 20
3.227138237673094
 30
0.0
  0
VERTEX
  5
220
  8
THREE_QUARTER_INCH_CUTOUT
 10
17.80809834098729
 20
3.227138237663089
 30
0.0
  0
VERTEX
  5
221
  8
THREE_QUARTER_INCH_CUTOUT
 10
17.80809834098729
 20
3.714315142025432
 30
0.0
  0
VERTEX
  5
222
  8
THREE_QUARTER_INCH_CUTOUT
 10
18.06809834098739
 20
3.714315142025432
 30
0.0
  0
VERTEX
  5
223
  8
THREE_QUARTER_INCH_CUTOUT
 10
18.06809834098739
 20
3.227138237663089
 30
0.0
  0
VERTEX
  5
224
  8
THREE_QUARTER_INCH_CUTOUT
 10
18.75425411093899
 20
3.227138237673094
 30
0.0
 42
-1.0
  0
VERTEX
  5
225
  8
THREE_QUARTER_INCH_CUTOUT
 10
18.93810187403598
 20
3.04329276293412
 30
0.0
  0
VERTEX
  5
226
  8
THREE_QUARTER_INCH_CUTOUT
 10
18.93810352084121
 20
2.910988314478677
 30
0.0
 42
-1.0
  0
VERTEX
  5
227
  8
THREE_QUARTER_INCH_CUTOUT
 10
18.75425575167664
 20
2.727138263000702
 30
0.0
  0
VERTEX
  5
228
  8
THREE_QUARTER_INCH_CUTOUT
 10
18.06809834098739
 20
2.727138285655988
 30
0.0
  0
VERTEX
  5
229
  8
THREE_QUARTER_INCH_CUTOUT
 10
18.06809834098728
 20
2.127138025301624
 30
0.0
  0
VERTEX
  5
22A
  8
THREE_QUARTER_INCH_CUTOUT
 10
18.75425057395888
 20
2.127138039932211
 30
0.0
 42
-1.0
  0
VERTEX
  5
22B
  8
THREE_QUARTER_INCH_CUTOUT
 10
18.93809834098739
 20
1.943290276823396
 30
0.0
  0
VERTEX
  5
22C
  8
THREE_QUARTER_INCH_CUTOUT
 10
18.93809834098728
 20
1.757136757162405
 30
0.0
 42
0.4142106424158553
  0
VERTEX
  5
22D
  8
THREE_QUARTER_INCH_CUTOUT
 10
19.06809704665976
 20
1.627128827818629
 30
0.0
  0
VERTEX
  5
22E
  8
THREE_QUARTER_INCH_CUTOUT
 10
30.16787453694116
 20
1.627128827818629
 30
0.0
  0
VERTEX
  5
22F
  8
THREE_QUARTER_INCH_CUTOUT
 10
41.18309963520951
 20
1.627128827818629
 30
0.0
 42
0.4142106424158553
  0
VERTEX
  5
230
  8
THREE_QUARTER_INCH_CUTOUT
 10
41.3130983409874
 20
1.757136757162405
 30
0.0
  0
VERTEX
  5
231
  8
THREE_QUARTER_INCH_CUTOUT
 10
41.31309834098729
 20
1.943290276823396
 30
0.0
 42
-1.0
  0
VERTEX
  5
232
  8
THREE_QUARTER_INCH_CUTOUT
 10
41.4969461080158
 20
2.127138039932211
 30
0.0
  0
VERTEX
  5
233
  8
THREE_QUARTER_INCH_CUTOUT
 10
42.18309834098741
 20
2.127138025301624
 30
0.0
  0
VERTEX
  5
234
  8
THREE_QUARTER_INCH_CUTOUT
 10
42.18309834098729
 20
2.727138285655988
 30
0.0
  0
VERTEX
  5
235
  8
THREE_QUARTER_INCH_CUTOUT
 10
41.49694093029805
 20
2.727138263000702
 30
0.0
 42
-1.0
  0
VERTEX
  5
236
  8
THREE_QUARTER_INCH_CUTOUT
 10
41.31309316113347
 20
2.910988314478677
 30
0.0
  0
VERTEX
  5
237
  8
THREE_QUARTER_INCH_CUTOUT
 10
41.3130948079387
 20
3.04329276293412
 30
0.0
 42
-1.0
  0
VERTEX
  5
238
  8
THREE_QUARTER_INCH_CUTOUT
 10
41.4969425710357
 20
3.227138237673094
 30
0.0
  0
VERTEX
  5
239
  8
THREE_QUARTER_INCH_CUTOUT
 10
42.18309834098729
 20
3.227138237663089
 30
0.0
  0
VERTEX
  5
23A
  8
THREE_QUARTER_INCH_CUTOUT
 10
42.18309834098729
 20
3.714315142025432
 30
0.0
  0
VERTEX
  5
23B
  8
THREE_QUARTER_INCH_CUTOUT
 10
42.4430983409874
 20
3.714315142025432
 30
0.0
  0
VERTEX
  5
23C
  8
THREE_QUARTER_INCH_CUTOUT
 10
42.4430983409874
 20
3.227138237663089
 30
0.0
  0
VERTEX
  5
23D
  8
THREE_QUARTER_INCH_CUTOUT
 10
43.12925411093899
 20
3.227138237673087
 30
0.0
 42
-1.0
  0
VERTEX
  5
23E
  8
THREE_QUARTER_INCH_CUTOUT
 10
43.31310187403599
 20
3.043292762934113
 30
0.0
  0
VERTEX
  5
23F
  8
THREE_QUARTER_INCH_CUTOUT
 10
43.31310352084122
 20
2.91098831447867
 30
0.0
 42
-1.0
  0
VERTEX
  5
240
  8
THREE_QUARTER_INCH_CUTOUT
 10
43.12925575167665
 20
2.727138263000695
 30
0.0
  0
VERTEX
  5
241
  8
THREE_QUARTER_INCH_CUTOUT
 10
42.4430983409874
 20
2.727138285655988
 30
0.0
  0
VERTEX
  5
242
  8
THREE_QUARTER_INCH_CUTOUT
 10
42.44309834098728
 20
2.127138025301624
 30
0.0
  0
VERTEX
  5
243
  8
THREE_QUARTER_INCH_CUTOUT
 10
43.12925057395889
 20
2.127138039932204
 30
0.0
 42
-1.0
  0
VERTEX
  5
244
  8
THREE_QUARTER_INCH_CUTOUT
 10
43.3130983409874
 20
1.943290276823389
 30
0.0
  0
VERTEX
  5
245
  8
THREE_QUARTER_INCH_CUTOUT
 10
43.31309834098729
 20
1.757136757162398
 30
0.0
 42
0.4142106424158553
  0
VERTEX
  5
246
  8
THREE_QUARTER_INCH_CUTOUT
 10
43.44309704665979
 20
1.627128827818622
 30
0.0
  0
VERTEX
  5
247
  8
THREE_QUARTER_INCH_CUTOUT
 10
60.43309963520951
 20
1.627105039765282
 30
0.0
 42
0.4142106424158553
  0
VERTEX
  5
248
  8
THREE_QUARTER_INCH_CUTOUT
 10
60.5630983409874
 20
1.757105039757944
 30
0.0
  0
VERTEX
  5
249
  8
THREE_QUARTER_INCH_CUTOUT
 10
60.56309834098729
 20
1.943258559418935
 30
0.0
 42
-1.0
  0
VERTEX
  5
24A
  8
THREE_QUARTER_INCH_CUTOUT
 10
60.7469461080158
 20
2.12710632252775
 30
0.0
  0
VERTEX
  5
24B
  8
THREE_QUARTER_INCH_CUTOUT
 10
61.43309834098741
 20
2.127106307897163
 30
0.0
  0
VERTEX
  5
24C
  8
THREE_QUARTER_INCH_CUTOUT
 10
61.43309834098729
 20
2.727106568251527
 30
0.0
  0
VERTEX
  5
24D
  8
THREE_QUARTER_INCH_CUTOUT
 10
60.74694093029805
 20
2.727106545596241
 30
0.0
 42
-1.0
  0
VERTEX
  5
24E
  8
THREE_QUARTER_INCH_CUTOUT
 10
60.56309316113347
 20
2.910956597074216
 30
0.0
  0
VERTEX
  5
24F
  8
THREE_QUARTER_INCH_CUTOUT
 10
60.5630948079387
 20
3.043261045529659
 30
0.0
 42
-1.0
  0
VERTEX
  5
250
  8
THREE_QUARTER_INCH_CUTOUT
 10
60.7469425710357
 20
3.227106520268633
 30
0.0
  0
VERTEX
  5
251
  8
THREE_QUARTER_INCH_CUTOUT
 10
61.43309834098729
 20
3.227106520258628
 30
0.0
  0
VERTEX
  5
252
  8
THREE_QUARTER_INCH_CUTOUT
 10
61.43309834098729
 20
3.714283424620971
 30
0.0
  0
VERTEX
  5
253
  8
THREE_QUARTER_INCH_CUTOUT
 10
61.6930983409874
 20
3.714283424620971
 30
0.0
  0
VERTEX
  5
254
  8
THREE_QUARTER_INCH_CUTOUT
 10
61.6930983409874
 20
3.227106520258628
 30
0.0
  0
VERTEX
  5
255
  8
THREE_QUARTER_INCH_CUTOUT
 10
62.379254110939
 20
3.227106520268633
 30
0.0
 42
-1.0
  0
VERTEX
  5
256
  8
THREE_QUARTER_INCH_CUTOUT
 10
62.56310187403599
 20
3.043261045529659
 30
0.0
  0
VERTEX
  5
257
  8
THREE_QUARTER_INCH_CUTOUT
 10
62.56310352084122
 20
2.910956597074216
 30
0.0
 42
-1.0
  0
VERTEX
  5
258
  8
THREE_QUARTER_INCH_CUTOUT
 10
62.37925575167665
 20
2.727106545596241
 30
0.0
  0
VERTEX
  5
259
  8
THREE_QUARTER_INCH_CUTOUT
 10
61.6930983409874
 20
2.727106568251527
 30
0.0
  0
VERTEX
  5
25A
  8
THREE_QUARTER_INCH_CUTOUT
 10
61.69309834098729
 20
2.127106307897163
 30
0.0
  0
VERTEX
  5
25B
  8
THREE_QUARTER_INCH_CUTOUT
 10
62.3792505739589
 20
2.12710632252775
 30
0.0
 42
-1.0
  0
VERTEX
  5
25C
  8
THREE_QUARTER_INCH_CUTOUT
 10
62.56309834098741
 20
1.943258559418935
 30
0.0
  0
VERTEX
  5
25D
  8
THREE_QUARTER_INCH_CUTOUT
 10
62.5630983409873
 20
1.757105039757944
 30
0.0
 42
0.4142106424158553
  0
VERTEX
  5
25E
  8
THREE_QUARTER_INCH_CUTOUT
 10
62.6930970466598
 20
1.627105039765282
 30
0.0
  0
VERTEX
  5
25F
  8
THREE_QUARTER_INCH_CUTOUT
 10
65.93808766430001
 20
1.627120898467509
 30
0.0
  0
SEQEND
  5
277
  8
THREE_QUARTER_INCH_CUTOUT
  0
ENDSEC
  0
EOF
