  0
SECTION
  2
HEADER
  9
$ACADVER
  1
AC1009
  9
$DWGCODEPAGE
  3
ansi_1252
  9
$INSBASE
 10
0.0
 20
0.0
 30
0.0
  9
$EXTMIN
 10
1.287070620695121
 20
0.2499999999999998
 30
0.0
  9
$EXTMAX
 10
95.75
 20
47.75
 30
0.0
  9
$LIMMIN
 10
0.0
 20
0.0
  9
$LIMMAX
 10
12.0
 20
9.0
  9
$ORTHOMODE
 70
     0
  9
$REGENMODE
 70
     1
  9
$FILLMODE
 70
     1
  9
$QTEXTMODE
 70
     0
  9
$MIRRTEXT
 70
     1
  9
$DRAGMODE
 70
     2
  9
$LTSCALE
 40
1.0
  9
$OSMODE
 70
    37
  9
$ATTMODE
 70
     1
  9
$TEXTSIZE
 40
0.2
  9
$TRACEWID
 40
0.05
  9
$TEXTSTYLE
  7
STANDARD
  9
$CLAYER
  8
0
  9
$CELTYPE
  6
BYLAYER
  9
$CECOLOR
 62
   256
  9
$DIMSCALE
 40
1.0
  9
$DIMASZ
 40
0.18
  9
$DIMEXO
 40
0.0625
  9
$DIMDLI
 40
0.38
  9
$DIMRND
 40
0.0
  9
$DIMDLE
 40
0.0
  9
$DIMEXE
 40
0.18
  9
$DIMTP
 40
0.0
  9
$DIMTM
 40
0.0
  9
$DIMTXT
 40
0.18
  9
$DIMCEN
 40
0.09
  9
$DIMTSZ
 40
0.0
  9
$DIMTOL
 70
     0
  9
$DIMLIM
 70
     0
  9
$DIMTIH
 70
     1
  9
$DIMTOH
 70
     1
  9
$DIMSE1
 70
     0
  9
$DIMSE2
 70
     0
  9
$DIMTAD
 70
     0
  9
$DIMZIN
 70
     0
  9
$DIMBLK
  1

  9
$DIMASO
 70
     1
  9
$DIMSHO
 70
     1
  9
$DIMPOST
  1

  9
$DIMAPOST
  1

  9
$DIMALT
 70
     0
  9
$DIMALTD
 70
     2
  9
$DIMALTF
 40
25.4
  9
$DIMLFAC
 40
1.0
  9
$DIMTOFL
 70
     0
  9
$DIMTVP
 40
0.0
  9
$DIMTIX
 70
     0
  9
$DIMSOXD
 70
     0
  9
$DIMSAH
 70
     0
  9
$DIMBLK1
  1

  9
$DIMBLK2
  1

  9
$DIMSTYLE
  2
STANDARD
  9
$DIMCLRD
 70
     0
  9
$DIMCLRE
 70
     0
  9
$DIMCLRT
 70
     0
  9
$DIMTFAC
 40
1.0
  9
$DIMGAP
 40
0.09
  9
$LUNITS
 70
     2
  9
$LUPREC
 70
     4
  9
$SKETCHINC
 40
0.1
  9
$FILLETRAD
 40
0.5
  9
$AUNITS
 70
     0
  9
$AUPREC
 70
     0
  9
$MENU
  1
.
  9
$ELEVATION
 40
0.0
  9
$PELEVATION
 40
0.0
  9
$THICKNESS
 40
0.0
  9
$LIMCHECK
 70
     0
  9
$CHAMFERA
 40
0.0
  9
$CHAMFERB
 40
0.0
  9
$SKPOLY
 70
     0
  9
$TDCREATE
 40
2454910.5
  9
$TDUPDATE
 40
2457907.702791261
  9
$TDINDWG
 40
0.0000000116
  9
$TDUSRTIMER
 40
0.0000000116
  9
$USRTIMER
 70
     1
  9
$ANGBASE
 50
0.0
  9
$ANGDIR
 70
     0
  9
$PDMODE
 70
     0
  9
$PDSIZE
 40
0.0
  9
$PLINEWID
 40
0.0
  9
$COORDS
 70
     1
  9
$SPLFRAME
 70
     0
  9
$SPLINETYPE
 70
     6
  9
$SPLINESEGS
 70
     8
  9
$ATTDIA
 70
     0
  9
$ATTREQ
 70
     1
  9
$HANDLING
 70
     1
  9
$HANDSEED
  5
626
  9
$SURFTAB1
 70
     6
  9
$SURFTAB2
 70
     6
  9
$SURFTYPE
 70
     6
  9
$SURFU
 70
     6
  9
$SURFV
 70
     6
  9
$UCSNAME
  2

  9
$UCSORG
 10
0.0
 20
0.0
 30
0.0
  9
$UCSXDIR
 10
1.0
 20
0.0
 30
0.0
  9
$UCSYDIR
 10
0.0
 20
1.0
 30
0.0
  9
$PUCSNAME
  2

  9
$PUCSORG
 10
0.0
 20
0.0
 30
0.0
  9
$PUCSXDIR
 10
1.0
 20
0.0
 30
0.0
  9
$PUCSYDIR
 10
0.0
 20
1.0
 30
0.0
  9
$USERI1
 70
     0
  9
$USERI2
 70
     0
  9
$USERI3
 70
     0
  9
$USERI4
 70
     0
  9
$USERI5
 70
     0
  9
$USERR1
 40
0.0
  9
$USERR2
 40
0.0
  9
$USERR3
 40
0.0
  9
$USERR4
 40
0.0
  9
$USERR5
 40
0.0
  9
$WORLDVIEW
 70
     1
  9
$SHADEDGE
 70
     3
  9
$SHADEDIF
 70
    70
  9
$TILEMODE
 70
     1
  9
$MAXACTVP
 70
    64
  9
$PLIMCHECK
 70
     0
  9
$PEXTMIN
 10
1.000000000000000E+20
 20
1.000000000000000E+20
 30
1.000000000000000E+20
  9
$PEXTMAX
 10
-1.000000000000000E+20
 20
-1.000000000000000E+20
 30
-1.000000000000000E+20
  9
$PLIMMIN
 10
0.0
 20
0.0
  9
$PLIMMAX
 10
12.0
 20
9.0
  9
$UNITMODE
 70
     0
  9
$VISRETAIN
 70
     1
  9
$PLINEGEN
 70
     0
  9
$PSLTSCALE
 70
     1
  0
ENDSEC
  0
SECTION
  2
TABLES
  0
TABLE
  2
VPORT
 70
     1
  0
VPORT
  2
*ACTIVE
 70
     0
 10
0.0
 20
0.0
 11
1.0
 21
1.0
 12
10.42990654205607
 22
4.5
 13
0.0
 23
0.0
 14
0.5
 24
0.5
 15
0.5
 25
0.5
 16
0.0
 26
0.0
 36
1.0
 17
0.0
 27
0.0
 37
0.0
 40
9.0
 41
1.972972972850329
 42
50.0
 43
0.0
 44
0.0
 50
0.0
 51
0.0
 71
     0
 72
   100
 73
     1
 74
     3
 75
     0
 76
     0
 77
     0
 78
     0
  0
ENDTAB
  0
TABLE
  2
LTYPE
 70
     2
  0
LTYPE
  2
CONTINUOUS
 70
     0
  3
Solid line
 72
    65
 73
     0
 40
0.0
  0
LTYPE
  2
CONTINUOUS2
 70
     0
  3
Solid Line
 72
    65
 73
     0
 40
0.0
  0
ENDTAB
  0
TABLE
  2
LAYER
 70
     7
  0
LAYER
  2
0
 70
     0
 62
     7
  6
CONTINUOUS
  0
LAYER
  2
THREE_QUARTER_INCH_THRUCUT
 70
     0
 62
    18
  6
CONTINUOUS
  0
LAYER
  2
LABELS
 70
     0
 62
   150
  6
CONTINUOUS
  0
LAYER
  2
SCREW_LOCATION_RECESS
 70
     0
 62
     1
  6
CONTINUOUS
  0
LAYER
  2
OPTIONAL_ATFAB_FURNITURE_C
 70
     0
 62
   105
  6
CONTINUOUS
  0
LAYER
  2
OPTIONAL_ATFAB_FURNITURE_S
 70
     0
 62
   245
  6
CONTINUOUS
  0
LAYER
  2
AVAILABLE_WASTE_AREA_FOR_O
 70
     0
 62
   253
  6
CONTINUOUS
  0
ENDTAB
  0
TABLE
  2
STYLE
 70
     1
  0
STYLE
  2
STANDARD
 70
     0
 40
0.0
 41
1.0
 50
0.0
 71
     0
 42
0.2
  3
txt
  4

  0
ENDTAB
  0
TABLE
  2
VIEW
 70
     0
  0
ENDTAB
  0
TABLE
  2
UCS
 70
     0
  0
ENDTAB
  0
TABLE
  2
APPID
 70
     1
  0
APPID
  2
ACAD
 70
     0
  0
ENDTAB
  0
TABLE
  2
DIMSTYLE
 70
     1
  0
DIMSTYLE
  2
STANDARD
 70
     0
  3

  4

  5

  6

  7

 40
1.0
 41
0.18
 42
0.0625
 43
0.38
 44
0.18
 45
0.0
 46
0.0
 47
0.0
 48
0.0
140
0.18
141
0.09
142
0.0
143
25.4
144
1.0
145
0.0
146
1.0
147
0.09
 71
     0
 72
     0
 73
     1
 74
     1
 75
     0
 76
     0
 77
     0
 78
     0
170
     0
171
     2
172
     0
173
     0
174
     0
175
     0
176
     0
177
     0
178
     0
  0
ENDTAB
  0
ENDSEC
  0
SECTION
  2
BLOCKS
  0
BLOCK
  8
0
  2
$MODEL_SPACE
 70
     0
 10
0.0
 20
0.0
 30
0.0
  3
$MODEL_SPACE
  1

  0
ENDBLK
  5
21
  8
0
  0
BLOCK
 67
     1
  8
0
  2
$PAPER_SPACE
 70
     0
 10
0.0
 20
0.0
 30
0.0
  3
$PAPER_SPACE
  1

  0
ENDBLK
  5
1D
 67
     1
  8
0
  0
ENDSEC
  0
SECTION
  2
ENTITIES
  0
POLYLINE
  5
70
  8
THREE_QUARTER_INCH_THRUCUT
 66
     1
 10
0.0
 20
0.0
 30
0.0
 70
     1
  0
VERTEX
  5
BE
  8
THREE_QUARTER_INCH_THRUCUT
 10
77.21940072826882
 20
2.282664059561084
 30
0.0
 42
0.4142135623730951
  0
VERTEX
  5
BF
  8
THREE_QUARTER_INCH_THRUCUT
 10
77.34940072826882
 20
2.412664059561079
 30
0.0
 42
0.4142135623730951
  0
VERTEX
  5
C0
  8
THREE_QUARTER_INCH_THRUCUT
 10
77.21940072826882
 20
2.542664059561075
 30
0.0
 42
0.4142135623730951
  0
VERTEX
  5
C1
  8
THREE_QUARTER_INCH_THRUCUT
 10
77.08940072826883
 20
2.412664059561079
 30
0.0
 42
0.4142135623730951
  0
SEQEND
  5
5E4
  8
THREE_QUARTER_INCH_THRUCUT
  0
POLYLINE
  5
71
  8
THREE_QUARTER_INCH_THRUCUT
 66
     1
 10
0.0
 20
0.0
 30
0.0
 70
     1
  0
VERTEX
  5
C2
  8
THREE_QUARTER_INCH_THRUCUT
 10
74.59440072826882
 20
2.282664059561084
 30
0.0
 42
0.4142135623730951
  0
VERTEX
  5
C3
  8
THREE_QUARTER_INCH_THRUCUT
 10
74.72440072826882
 20
2.412664059561079
 30
0.0
 42
0.4142135623730951
  0
VERTEX
  5
C4
  8
THREE_QUARTER_INCH_THRUCUT
 10
74.59440072826882
 20
2.542664059561075
 30
0.0
 42
0.4142135623730951
  0
VERTEX
  5
C5
  8
THREE_QUARTER_INCH_THRUCUT
 10
74.46440072826883
 20
2.412664059561079
 30
0.0
 42
0.4142135623730951
  0
SEQEND
  5
5E5
  8
THREE_QUARTER_INCH_THRUCUT
  0
POLYLINE
  5
72
  8
THREE_QUARTER_INCH_THRUCUT
 66
     1
 10
0.0
 20
0.0
 30
0.0
 70
     1
  0
VERTEX
  5
C6
  8
THREE_QUARTER_INCH_THRUCUT
 10
71.96940072826882
 20
2.282664059561084
 30
0.0
 42
0.4142135623730951
  0
VERTEX
  5
C7
  8
THREE_QUARTER_INCH_THRUCUT
 10
72.09940072826882
 20
2.412664059561079
 30
0.0
 42
0.4142135623730951
  0
VERTEX
  5
C8
  8
THREE_QUARTER_INCH_THRUCUT
 10
71.96940072826882
 20
2.542664059561075
 30
0.0
 42
0.4142135623730951
  0
VERTEX
  5
C9
  8
THREE_QUARTER_INCH_THRUCUT
 10
71.83940072826883
 20
2.412664059561079
 30
0.0
 42
0.4142135623730951
  0
SEQEND
  5
5E6
  8
THREE_QUARTER_INCH_THRUCUT
  0
POLYLINE
  5
73
  8
THREE_QUARTER_INCH_THRUCUT
 66
     1
 10
0.0
 20
0.0
 30
0.0
 70
     1
  0
VERTEX
  5
CA
  8
THREE_QUARTER_INCH_THRUCUT
 10
77.21940072826882
 20
6.27843880291534
 30
0.0
 42
0.4142135623730951
  0
VERTEX
  5
CB
  8
THREE_QUARTER_INCH_THRUCUT
 10
77.34940072826882
 20
6.408438802915335
 30
0.0
 42
0.4142135623730951
  0
VERTEX
  5
CC
  8
THREE_QUARTER_INCH_THRUCUT
 10
77.21940072826882
 20
6.53843880291533
 30
0.0
 42
0.4142135623730951
  0
VERTEX
  5
CD
  8
THREE_QUARTER_INCH_THRUCUT
 10
77.08940072826883
 20
6.408438802915335
 30
0.0
 42
0.4142135623730951
  0
SEQEND
  5
5E7
  8
THREE_QUARTER_INCH_THRUCUT
  0
POLYLINE
  5
74
  8
THREE_QUARTER_INCH_THRUCUT
 66
     1
 10
0.0
 20
0.0
 30
0.0
 70
     1
  0
VERTEX
  5
CE
  8
THREE_QUARTER_INCH_THRUCUT
 10
74.59440072826882
 20
6.27843880291534
 30
0.0
 42
0.4142135623730951
  0
VERTEX
  5
CF
  8
THREE_QUARTER_INCH_THRUCUT
 10
74.72440072826882
 20
6.408438802915335
 30
0.0
 42
0.4142135623730951
  0
VERTEX
  5
D0
  8
THREE_QUARTER_INCH_THRUCUT
 10
74.59440072826882
 20
6.53843880291533
 30
0.0
 42
0.4142135623730951
  0
VERTEX
  5
D1
  8
THREE_QUARTER_INCH_THRUCUT
 10
74.46440072826883
 20
6.408438802915335
 30
0.0
 42
0.4142135623730951
  0
SEQEND
  5
5E8
  8
THREE_QUARTER_INCH_THRUCUT
  0
POLYLINE
  5
75
  8
THREE_QUARTER_INCH_THRUCUT
 66
     1
 10
0.0
 20
0.0
 30
0.0
 70
     1
  0
VERTEX
  5
D2
  8
THREE_QUARTER_INCH_THRUCUT
 10
71.96940072826882
 20
6.27843880291534
 30
0.0
 42
0.4142135623730951
  0
VERTEX
  5
D3
  8
THREE_QUARTER_INCH_THRUCUT
 10
72.09940072826882
 20
6.408438802915335
 30
0.0
 42
0.4142135623730951
  0
VERTEX
  5
D4
  8
THREE_QUARTER_INCH_THRUCUT
 10
71.96940072826882
 20
6.53843880291533
 30
0.0
 42
0.4142135623730951
  0
VERTEX
  5
D5
  8
THREE_QUARTER_INCH_THRUCUT
 10
71.83940072826883
 20
6.408438802915335
 30
0.0
 42
0.4142135623730951
  0
SEQEND
  5
5E9
  8
THREE_QUARTER_INCH_THRUCUT
  0
POLYLINE
  5
76
  8
THREE_QUARTER_INCH_THRUCUT
 66
     1
 10
0.0
 20
0.0
 30
0.0
 70
     1
  0
VERTEX
  5
D6
  8
THREE_QUARTER_INCH_THRUCUT
 10
2.344379752631925
 20
4.908435802915442
 30
0.0
  0
VERTEX
  5
D7
  8
THREE_QUARTER_INCH_THRUCUT
 10
22.71437975262875
 20
4.908435802914918
 30
0.0
 42
0.4142135623729316
  0
VERTEX
  5
D8
  8
THREE_QUARTER_INCH_THRUCUT
 10
22.8443797526288
 20
5.038435802914799
 30
0.0
  0
VERTEX
  5
D9
  8
THREE_QUARTER_INCH_THRUCUT
 10
22.84437975262886
 20
5.139178449071588
 30
0.0
 42
-1.0
  0
VERTEX
  5
DA
  8
THREE_QUARTER_INCH_THRUCUT
 10
23.11363710647293
 20
5.408435802915429
 30
0.0
  0
VERTEX
  5
DB
  8
THREE_QUARTER_INCH_THRUCUT
 10
23.32512239878451
 20
5.408435802915458
 30
0.0
 42
-1.0
  0
VERTEX
  5
DC
  8
THREE_QUARTER_INCH_THRUCUT
 10
23.59437975262971
 20
5.139178449072753
 30
0.0
  0
VERTEX
  5
DD
  8
THREE_QUARTER_INCH_THRUCUT
 10
23.59437975263068
 20
5.038435802914259
 30
0.0
 42
0.4142135623703808
  0
VERTEX
  5
DE
  8
THREE_QUARTER_INCH_THRUCUT
 10
23.72437975263068
 20
4.908435802915458
 30
0.0
  0
VERTEX
  5
DF
  8
THREE_QUARTER_INCH_THRUCUT
 10
44.71437975262879
 20
4.908435802914832
 30
0.0
 42
0.4142135623729316
  0
VERTEX
  5
E0
  8
THREE_QUARTER_INCH_THRUCUT
 10
44.84437975262879
 20
5.038435802914714
 30
0.0
  0
VERTEX
  5
E1
  8
THREE_QUARTER_INCH_THRUCUT
 10
44.84437975262887
 20
5.139178449071503
 30
0.0
 42
-1.0
  0
VERTEX
  5
E2
  8
THREE_QUARTER_INCH_THRUCUT
 10
45.11363710647291
 20
5.408435802915344
 30
0.0
  0
VERTEX
  5
E3
  8
THREE_QUARTER_INCH_THRUCUT
 10
45.32512239878455
 20
5.408435802915372
 30
0.0
 42
-1.0
  0
VERTEX
  5
E4
  8
THREE_QUARTER_INCH_THRUCUT
 10
45.59437975262974
 20
5.139178449072668
 30
0.0
  0
VERTEX
  5
E5
  8
THREE_QUARTER_INCH_THRUCUT
 10
45.59437975263068
 20
5.038435802914174
 30
0.0
 42
0.4142135623703808
  0
VERTEX
  5
E6
  8
THREE_QUARTER_INCH_THRUCUT
 10
45.72437975263068
 20
4.908435802915372
 30
0.0
  0
VERTEX
  5
E7
  8
THREE_QUARTER_INCH_THRUCUT
 10
66.71437975262884
 20
4.908435802914832
 30
0.0
 42
0.4142135623729316
  0
VERTEX
  5
E8
  8
THREE_QUARTER_INCH_THRUCUT
 10
66.84437975262884
 20
5.038435802914714
 30
0.0
  0
VERTEX
  5
E9
  8
THREE_QUARTER_INCH_THRUCUT
 10
66.8443797526289
 20
5.139178449071503
 30
0.0
 42
-1.0
  0
VERTEX
  5
EA
  8
THREE_QUARTER_INCH_THRUCUT
 10
67.11363710647296
 20
5.408435802915344
 30
0.0
  0
VERTEX
  5
EB
  8
THREE_QUARTER_INCH_THRUCUT
 10
67.3251223987846
 20
5.408435802915372
 30
0.0
 42
-1.0
  0
VERTEX
  5
EC
  8
THREE_QUARTER_INCH_THRUCUT
 10
67.59437975262978
 20
5.139178449072668
 30
0.0
  0
VERTEX
  5
ED
  8
THREE_QUARTER_INCH_THRUCUT
 10
67.59437975263072
 20
5.038435802914174
 30
0.0
 42
0.4142135623703808
  0
VERTEX
  5
EE
  8
THREE_QUARTER_INCH_THRUCUT
 10
67.72437975263071
 20
4.908435802915372
 30
0.0
  0
VERTEX
  5
EF
  8
THREE_QUARTER_INCH_THRUCUT
 10
78.219379752636
 20
4.908435802915088
 30
0.0
  0
VERTEX
  5
F0
  8
THREE_QUARTER_INCH_THRUCUT
 10
78.21936711186146
 20
4.992380879797432
 30
0.0
  0
VERTEX
  5
F1
  8
THREE_QUARTER_INCH_THRUCUT
 10
78.21909983091302
 20
5.004744247226084
 30
0.0
  0
VERTEX
  5
F2
  8
THREE_QUARTER_INCH_THRUCUT
 10
78.21822530494947
 20
5.017025672693635
 30
0.0
  0
VERTEX
  5
F3
  8
THREE_QUARTER_INCH_THRUCUT
 10
78.2167519268526
 20
5.029204705326228
 30
0.0
  0
VERTEX
  5
F4
  8
THREE_QUARTER_INCH_THRUCUT
 10
78.21468808950428
 20
5.041260894250001
 30
0.0
  0
VERTEX
  5
F5
  8
THREE_QUARTER_INCH_THRUCUT
 10
78.21204218578634
 20
5.053173788591097
 30
0.0
  0
VERTEX
  5
F6
  8
THREE_QUARTER_INCH_THRUCUT
 10
78.20882260858063
 20
5.064922937475652
 30
0.0
  0
VERTEX
  5
F7
  8
THREE_QUARTER_INCH_THRUCUT
 10
78.20503775076898
 20
5.07648789002981
 30
0.0
  0
VERTEX
  5
F8
  8
THREE_QUARTER_INCH_THRUCUT
 10
78.20069600523324
 20
5.087848195379712
 30
0.0
  0
VERTEX
  5
F9
  8
THREE_QUARTER_INCH_THRUCUT
 10
78.19580576485524
 20
5.098983402651495
 30
0.0
  0
VERTEX
  5
FA
  8
THREE_QUARTER_INCH_THRUCUT
 10
78.19037542251684
 20
5.1098730609713
 30
0.0
  0
VERTEX
  5
FB
  8
THREE_QUARTER_INCH_THRUCUT
 10
78.18441337109988
 20
5.120496719465271
 30
0.0
  0
VERTEX
  5
FC
  8
THREE_QUARTER_INCH_THRUCUT
 10
78.17792800348619
 20
5.130833927259543
 30
0.0
  0
VERTEX
  5
FD
  8
THREE_QUARTER_INCH_THRUCUT
 10
78.1709277125576
 20
5.14086423348026
 30
0.0
  0
VERTEX
  5
FE
  8
THREE_QUARTER_INCH_THRUCUT
 10
78.16342089119598
 20
5.15056718725356
 30
0.0
  0
VERTEX
  5
FF
  8
THREE_QUARTER_INCH_THRUCUT
 10
78.15541593228315
 20
5.159922337705585
 30
0.0
  0
VERTEX
  5
100
  8
THREE_QUARTER_INCH_THRUCUT
 10
78.14692122870096
 20
5.168909233962475
 30
0.0
  0
VERTEX
  5
101
  8
THREE_QUARTER_INCH_THRUCUT
 10
77.82876032303326
 20
5.486647919404087
 30
0.0
  0
VERTEX
  5
102
  8
THREE_QUARTER_INCH_THRUCUT
 10
77.81545259465824
 20
5.500630065312133
 30
0.0
  0
VERTEX
  5
103
  8
THREE_QUARTER_INCH_THRUCUT
 10
77.8030026270532
 20
5.515112503912814
 30
0.0
  0
VERTEX
  5
104
  8
THREE_QUARTER_INCH_THRUCUT
 10
77.79141043928196
 20
5.530061915088182
 30
0.0
  0
VERTEX
  5
105
  8
THREE_QUARTER_INCH_THRUCUT
 10
77.78067605040829
 20
5.545444978720291
 30
0.0
  0
VERTEX
  5
106
  8
THREE_QUARTER_INCH_THRUCUT
 10
77.77079947949599
 20
5.561228374691194
 30
0.0
  0
VERTEX
  5
107
  8
THREE_QUARTER_INCH_THRUCUT
 10
77.76178074560889
 20
5.577378782882944
 30
0.0
  0
VERTEX
  5
108
  8
THREE_QUARTER_INCH_THRUCUT
 10
77.75361986781073
 20
5.593862883177593
 30
0.0
  0
VERTEX
  5
109
  8
THREE_QUARTER_INCH_THRUCUT
 10
77.74631686516534
 20
5.610647355457193
 30
0.0
  0
VERTEX
  5
10A
  8
THREE_QUARTER_INCH_THRUCUT
 10
77.7398717567365
 20
5.627698879603798
 30
0.0
  0
VERTEX
  5
10B
  8
THREE_QUARTER_INCH_THRUCUT
 10
77.73428456158801
 20
5.644984135499461
 30
0.0
  0
VERTEX
  5
10C
  8
THREE_QUARTER_INCH_THRUCUT
 10
77.72955529878368
 20
5.662469803026235
 30
0.0
  0
VERTEX
  5
10D
  8
THREE_QUARTER_INCH_THRUCUT
 10
77.72568398738728
 20
5.680122562066172
 30
0.0
  0
VERTEX
  5
10E
  8
THREE_QUARTER_INCH_THRUCUT
 10
77.72267064646262
 20
5.697909092501325
 30
0.0
  0
VERTEX
  5
10F
  8
THREE_QUARTER_INCH_THRUCUT
 10
77.72051529507348
 20
5.715796074213747
 30
0.0
  0
VERTEX
  5
110
  8
THREE_QUARTER_INCH_THRUCUT
 10
77.71921795228366
 20
5.733750187085492
 30
0.0
  0
VERTEX
  5
111
  8
THREE_QUARTER_INCH_THRUCUT
 10
77.71877863715696
 20
5.751738110998611
 30
0.0
  0
VERTEX
  5
112
  8
THREE_QUARTER_INCH_THRUCUT
 10
77.71919736875716
 20
5.769726525835157
 30
0.0
  0
VERTEX
  5
113
  8
THREE_QUARTER_INCH_THRUCUT
 10
77.7204741661481
 20
5.787682111477184
 30
0.0
  0
VERTEX
  5
114
  8
THREE_QUARTER_INCH_THRUCUT
 10
77.72260904839351
 20
5.805571547806744
 30
0.0
  0
VERTEX
  5
115
  8
THREE_QUARTER_INCH_THRUCUT
 10
77.72560203455723
 20
5.823361514705891
 30
0.0
  0
VERTEX
  5
116
  8
THREE_QUARTER_INCH_THRUCUT
 10
77.72945314370303
 20
5.841018692056675
 30
0.0
  0
VERTEX
  5
117
  8
THREE_QUARTER_INCH_THRUCUT
 10
77.73416239489472
 20
5.858509759741153
 30
0.0
  0
VERTEX
  5
118
  8
THREE_QUARTER_INCH_THRUCUT
 10
77.7397298071961
 20
5.875801397641375
 30
0.0
  0
VERTEX
  5
119
  8
THREE_QUARTER_INCH_THRUCUT
 10
77.74615539967094
 20
5.892860285639394
 30
0.0
  0
VERTEX
  5
11A
  8
THREE_QUARTER_INCH_THRUCUT
 10
77.75343919138305
 20
5.909653103617263
 30
0.0
  0
VERTEX
  5
11B
  8
THREE_QUARTER_INCH_THRUCUT
 10
77.76158120139623
 20
5.926146531457036
 30
0.0
  0
VERTEX
  5
11C
  8
THREE_QUARTER_INCH_THRUCUT
 10
77.77058144877424
 20
5.942307249040764
 30
0.0
  0
VERTEX
  5
11D
  8
THREE_QUARTER_INCH_THRUCUT
 10
77.78043995258093
 20
5.958101936250501
 30
0.0
  0
VERTEX
  5
11E
  8
THREE_QUARTER_INCH_THRUCUT
 10
77.79115673188005
 20
5.9734972729683
 30
0.0
  0
VERTEX
  5
11F
  8
THREE_QUARTER_INCH_THRUCUT
 10
77.80273180573542
 20
5.988459939076213
 30
0.0
  0
VERTEX
  5
120
  8
THREE_QUARTER_INCH_THRUCUT
 10
77.81516519321082
 20
6.002956614456293
 30
0.0
  0
VERTEX
  5
121
  8
THREE_QUARTER_INCH_THRUCUT
 10
77.82845691337005
 20
6.016953978990593
 30
0.0
  0
VERTEX
  5
122
  8
THREE_QUARTER_INCH_THRUCUT
 10
78.21938997498953
 20
6.408294567011191
 30
0.0
  0
VERTEX
  5
123
  8
THREE_QUARTER_INCH_THRUCUT
 10
78.61032303660895
 20
6.799635155031787
 30
0.0
  0
VERTEX
  5
124
  8
THREE_QUARTER_INCH_THRUCUT
 10
78.62361475676818
 20
6.813632519566083
 30
0.0
  0
VERTEX
  5
125
  8
THREE_QUARTER_INCH_THRUCUT
 10
78.63604814424357
 20
6.828129194946159
 30
0.0
  0
VERTEX
  5
126
  8
THREE_QUARTER_INCH_THRUCUT
 10
78.64762321809894
 20
6.843091861054068
 30
0.0
  0
VERTEX
  5
127
  8
THREE_QUARTER_INCH_THRUCUT
 10
78.65833999739806
 20
6.858487197771863
 30
0.0
  0
VERTEX
  5
128
  8
THREE_QUARTER_INCH_THRUCUT
 10
78.66819850120476
 20
6.874281884981598
 30
0.0
  0
VERTEX
  5
129
  8
THREE_QUARTER_INCH_THRUCUT
 10
78.67719874858277
 20
6.890442602565324
 30
0.0
  0
VERTEX
  5
12A
  8
THREE_QUARTER_INCH_THRUCUT
 10
78.68534075859594
 20
6.906936030405094
 30
0.0
  0
VERTEX
  5
12B
  8
THREE_QUARTER_INCH_THRUCUT
 10
78.69262455030805
 20
6.923728848382961
 30
0.0
  0
VERTEX
  5
12C
  8
THREE_QUARTER_INCH_THRUCUT
 10
78.6990501427829
 20
6.940787736380978
 30
0.0
  0
VERTEX
  5
12D
  8
THREE_QUARTER_INCH_THRUCUT
 10
78.70461755508427
 20
6.958079374281198
 30
0.0
  0
VERTEX
  5
12E
  8
THREE_QUARTER_INCH_THRUCUT
 10
78.70932680627597
 20
6.975570441965674
 30
0.0
  0
VERTEX
  5
12F
  8
THREE_QUARTER_INCH_THRUCUT
 10
78.71317791542177
 20
6.99322761931646
 30
0.0
  0
VERTEX
  5
130
  8
THREE_QUARTER_INCH_THRUCUT
 10
78.71617090158549
 20
7.011017586215606
 30
0.0
  0
VERTEX
  5
131
  8
THREE_QUARTER_INCH_THRUCUT
 10
78.7183057838309
 20
7.028907022545166
 30
0.0
  0
VERTEX
  5
132
  8
THREE_QUARTER_INCH_THRUCUT
 10
78.71958258122183
 20
7.046862608187194
 30
0.0
  0
VERTEX
  5
133
  8
THREE_QUARTER_INCH_THRUCUT
 10
78.72000131282203
 20
7.06485102302374
 30
0.0
  0
VERTEX
  5
134
  8
THREE_QUARTER_INCH_THRUCUT
 10
78.71956199769534
 20
7.082838946936859
 30
0.0
  0
VERTEX
  5
135
  8
THREE_QUARTER_INCH_THRUCUT
 10
78.71826465490551
 20
7.100793059808606
 30
0.0
  0
VERTEX
  5
136
  8
THREE_QUARTER_INCH_THRUCUT
 10
78.71610930351638
 20
7.11868004152103
 30
0.0
  0
VERTEX
  5
137
  8
THREE_QUARTER_INCH_THRUCUT
 10
78.71309596259171
 20
7.136466571956184
 30
0.0
  0
VERTEX
  5
138
  8
THREE_QUARTER_INCH_THRUCUT
 10
78.70922465119531
 20
7.154119330996123
 30
0.0
  0
VERTEX
  5
139
  8
THREE_QUARTER_INCH_THRUCUT
 10
78.70449538839098
 20
7.171604998522898
 30
0.0
  0
VERTEX
  5
13A
  8
THREE_QUARTER_INCH_THRUCUT
 10
78.69890819324249
 20
7.188890254418563
 30
0.0
  0
VERTEX
  5
13B
  8
THREE_QUARTER_INCH_THRUCUT
 10
78.69246308481365
 20
7.205941778565171
 30
0.0
  0
VERTEX
  5
13C
  8
THREE_QUARTER_INCH_THRUCUT
 10
78.68516008216827
 20
7.222726250844774
 30
0.0
  0
VERTEX
  5
13D
  8
THREE_QUARTER_INCH_THRUCUT
 10
78.6769992043701
 20
7.239210351139424
 30
0.0
  0
VERTEX
  5
13E
  8
THREE_QUARTER_INCH_THRUCUT
 10
78.667980470483
 20
7.255360759331175
 30
0.0
  0
VERTEX
  5
13F
  8
THREE_QUARTER_INCH_THRUCUT
 10
78.6581038995707
 20
7.271144155302081
 30
0.0
  0
VERTEX
  5
140
  8
THREE_QUARTER_INCH_THRUCUT
 10
78.64736951069703
 20
7.286527218934193
 30
0.0
  0
VERTEX
  5
141
  8
THREE_QUARTER_INCH_THRUCUT
 10
78.63577732292579
 20
7.301476630109564
 30
0.0
  0
VERTEX
  5
142
  8
THREE_QUARTER_INCH_THRUCUT
 10
78.62332735532075
 20
7.315959068710248
 30
0.0
  0
VERTEX
  5
143
  8
THREE_QUARTER_INCH_THRUCUT
 10
78.61001962694573
 20
7.329941214618296
 30
0.0
  0
VERTEX
  5
144
  8
THREE_QUARTER_INCH_THRUCUT
 10
78.29185872127803
 20
7.647679900059879
 30
0.0
  0
VERTEX
  5
145
  8
THREE_QUARTER_INCH_THRUCUT
 10
78.28336401769585
 20
7.656666796316761
 30
0.0
  0
VERTEX
  5
146
  8
THREE_QUARTER_INCH_THRUCUT
 10
78.27535905878301
 20
7.66602194676878
 30
0.0
  0
VERTEX
  5
147
  8
THREE_QUARTER_INCH_THRUCUT
 10
78.2678522374214
 20
7.675724900542077
 30
0.0
  0
VERTEX
  5
148
  8
THREE_QUARTER_INCH_THRUCUT
 10
78.2608519464928
 20
7.685755206762792
 30
0.0
  0
VERTEX
  5
149
  8
THREE_QUARTER_INCH_THRUCUT
 10
78.25436657887911
 20
7.696092414557065
 30
0.0
  0
VERTEX
  5
14A
  8
THREE_QUARTER_INCH_THRUCUT
 10
78.24840452746216
 20
7.706716073051037
 30
0.0
  0
VERTEX
  5
14B
  8
THREE_QUARTER_INCH_THRUCUT
 10
78.24297418512376
 20
7.717605731370847
 30
0.0
  0
VERTEX
  5
14C
  8
THREE_QUARTER_INCH_THRUCUT
 10
78.23808394474575
 20
7.728740938642636
 30
0.0
  0
VERTEX
  5
14D
  8
THREE_QUARTER_INCH_THRUCUT
 10
78.23374219921001
 20
7.740101243992543
 30
0.0
  0
VERTEX
  5
14E
  8
THREE_QUARTER_INCH_THRUCUT
 10
78.22995734139836
 20
7.751666196546706
 30
0.0
  0
VERTEX
  5
14F
  8
THREE_QUARTER_INCH_THRUCUT
 10
78.22673776419265
 20
7.763415345431269
 30
0.0
  0
VERTEX
  5
150
  8
THREE_QUARTER_INCH_THRUCUT
 10
78.22409186047472
 20
7.775328239772369
 30
0.0
  0
VERTEX
  5
151
  8
THREE_QUARTER_INCH_THRUCUT
 10
78.2220280231264
 20
7.787384428696146
 30
0.0
  0
VERTEX
  5
152
  8
THREE_QUARTER_INCH_THRUCUT
 10
78.22055464502952
 20
7.799563461328743
 30
0.0
  0
VERTEX
  5
153
  8
THREE_QUARTER_INCH_THRUCUT
 10
78.21968011906597
 20
7.811844886796298
 30
0.0
  0
VERTEX
  5
154
  8
THREE_QUARTER_INCH_THRUCUT
 10
78.21941283811753
 20
7.824208254224951
 30
0.0
  0
VERTEX
  5
155
  8
THREE_QUARTER_INCH_THRUCUT
 10
78.21940019734922
 20
7.908435802915145
 30
0.0
  0
VERTEX
  5
156
  8
THREE_QUARTER_INCH_THRUCUT
 10
67.72437975263071
 20
7.908435802915287
 30
0.0
 42
0.4142135623704057
  0
VERTEX
  5
157
  8
THREE_QUARTER_INCH_THRUCUT
 10
67.59437975263072
 20
7.778435802916485
 30
0.0
  0
VERTEX
  5
158
  8
THREE_QUARTER_INCH_THRUCUT
 10
67.59437975262978
 20
7.67769315675802
 30
0.0
 42
-1.0
  0
VERTEX
  5
159
  8
THREE_QUARTER_INCH_THRUCUT
 10
67.32512239878457
 20
7.408435802915344
 30
0.0
  0
VERTEX
  5
15A
  8
THREE_QUARTER_INCH_THRUCUT
 10
67.11363710647296
 20
7.408435802915344
 30
0.0
 42
-1.0
  0
VERTEX
  5
15B
  8
THREE_QUARTER_INCH_THRUCUT
 10
66.84437975262892
 20
7.677693156759156
 30
0.0
  0
VERTEX
  5
15C
  8
THREE_QUARTER_INCH_THRUCUT
 10
66.84437975262884
 20
7.778435802915149
 30
0.0
 42
0.4142135623727946
  0
VERTEX
  5
15D
  8
THREE_QUARTER_INCH_THRUCUT
 10
66.71437975262884
 20
7.908435802915031
 30
0.0
  0
VERTEX
  5
15E
  8
THREE_QUARTER_INCH_THRUCUT
 10
45.72437975263068
 20
7.908435802915287
 30
0.0
 42
0.4142135623704057
  0
VERTEX
  5
15F
  8
THREE_QUARTER_INCH_THRUCUT
 10
45.59437975263068
 20
7.778435802916485
 30
0.0
  0
VERTEX
  5
160
  8
THREE_QUARTER_INCH_THRUCUT
 10
45.59437975262974
 20
7.67769315675802
 30
0.0
 42
-1.0
  0
VERTEX
  5
161
  8
THREE_QUARTER_INCH_THRUCUT
 10
45.32512239878454
 20
7.408435802915344
 30
0.0
  0
VERTEX
  5
162
  8
THREE_QUARTER_INCH_THRUCUT
 10
45.11363710647294
 20
7.408435802915344
 30
0.0
 42
-1.0
  0
VERTEX
  5
163
  8
THREE_QUARTER_INCH_THRUCUT
 10
44.84437975262889
 20
7.677693156759156
 30
0.0
  0
VERTEX
  5
164
  8
THREE_QUARTER_INCH_THRUCUT
 10
44.84437975262879
 20
7.778435802915149
 30
0.0
 42
0.4142135623727946
  0
VERTEX
  5
165
  8
THREE_QUARTER_INCH_THRUCUT
 10
44.71437975262879
 20
7.908435802915031
 30
0.0
  0
VERTEX
  5
166
  8
THREE_QUARTER_INCH_THRUCUT
 10
23.72437975263068
 20
7.908435802915372
 30
0.0
 42
0.4142135623704057
  0
VERTEX
  5
167
  8
THREE_QUARTER_INCH_THRUCUT
 10
23.59437975263068
 20
7.778435802916571
 30
0.0
  0
VERTEX
  5
168
  8
THREE_QUARTER_INCH_THRUCUT
 10
23.59437975262971
 20
7.677693156758105
 30
0.0
 42
-1.0
  0
VERTEX
  5
169
  8
THREE_QUARTER_INCH_THRUCUT
 10
23.32512239878451
 20
7.408435802915429
 30
0.0
  0
VERTEX
  5
16A
  8
THREE_QUARTER_INCH_THRUCUT
 10
23.11363710647293
 20
7.408435802915429
 30
0.0
 42
-1.0
  0
VERTEX
  5
16B
  8
THREE_QUARTER_INCH_THRUCUT
 10
22.84437975262886
 20
7.677693156759242
 30
0.0
  0
VERTEX
  5
16C
  8
THREE_QUARTER_INCH_THRUCUT
 10
22.8443797526288
 20
7.778435802915235
 30
0.0
 42
0.4142135623727946
  0
VERTEX
  5
16D
  8
THREE_QUARTER_INCH_THRUCUT
 10
22.71437975262881
 20
7.908435802915116
 30
0.0
  0
VERTEX
  5
16E
  8
THREE_QUARTER_INCH_THRUCUT
 10
2.34437975263193
 20
7.908435802915372
 30
0.0
  0
VERTEX
  5
16F
  8
THREE_QUARTER_INCH_THRUCUT
 10
2.344379752629714
 20
7.677693156758105
 30
0.0
 42
-1.0
  0
VERTEX
  5
170
  8
THREE_QUARTER_INCH_THRUCUT
 10
2.075122398784508
 20
7.408435802915429
 30
0.0
  0
VERTEX
  5
171
  8
THREE_QUARTER_INCH_THRUCUT
 10
1.594379752629013
 20
7.408435802915427
 30
0.0
  0
VERTEX
  5
172
  8
THREE_QUARTER_INCH_THRUCUT
 10
1.594379752629012
 20
5.408435802915395
 30
0.0
  0
VERTEX
  5
173
  8
THREE_QUARTER_INCH_THRUCUT
 10
2.075122398784508
 20
5.408435802915458
 30
0.0
 42
-1.0
  0
VERTEX
  5
174
  8
THREE_QUARTER_INCH_THRUCUT
 10
2.344379752629714
 20
5.139178449072753
 30
0.0
  0
SEQEND
  5
5EA
  8
THREE_QUARTER_INCH_THRUCUT
  0
POLYLINE
  5
77
  8
THREE_QUARTER_INCH_THRUCUT
 66
     1
 10
0.0
 20
0.0
 30
0.0
 70
     1
  0
VERTEX
  5
175
  8
THREE_QUARTER_INCH_THRUCUT
 10
2.344379752631927
 20
0.9126610595612059
 30
0.0
  0
VERTEX
  5
176
  8
THREE_QUARTER_INCH_THRUCUT
 10
2.344379752629714
 20
1.143403705718498
 30
0.0
 42
1.0
  0
VERTEX
  5
177
  8
THREE_QUARTER_INCH_THRUCUT
 10
2.075122398784508
 20
1.412661059561202
 30
0.0
  0
VERTEX
  5
178
  8
THREE_QUARTER_INCH_THRUCUT
 10
1.594379752629012
 20
1.412661059561139
 30
0.0
  0
VERTEX
  5
179
  8
THREE_QUARTER_INCH_THRUCUT
 10
1.594379752629012
 20
3.41266105956117
 30
0.0
  0
VERTEX
  5
17A
  8
THREE_QUARTER_INCH_THRUCUT
 10
2.075122398784508
 20
3.412661059561172
 30
0.0
 42
1.0
  0
VERTEX
  5
17B
  8
THREE_QUARTER_INCH_THRUCUT
 10
2.344379752629714
 20
3.681918413403848
 30
0.0
  0
VERTEX
  5
17C
  8
THREE_QUARTER_INCH_THRUCUT
 10
2.34437975263193
 20
3.912661059561116
 30
0.0
  0
VERTEX
  5
17D
  8
THREE_QUARTER_INCH_THRUCUT
 10
22.71437975262881
 20
3.912661059560859
 30
0.0
 42
-0.4142135623727946
  0
VERTEX
  5
17E
  8
THREE_QUARTER_INCH_THRUCUT
 10
22.8443797526288
 20
3.782661059560978
 30
0.0
  0
VERTEX
  5
17F
  8
THREE_QUARTER_INCH_THRUCUT
 10
22.84437975262886
 20
3.681918413404984
 30
0.0
 42
1.0
  0
VERTEX
  5
180
  8
THREE_QUARTER_INCH_THRUCUT
 10
23.11363710647293
 20
3.412661059561172
 30
0.0
  0
VERTEX
  5
181
  8
THREE_QUARTER_INCH_THRUCUT
 10
23.32512239878451
 20
3.412661059561172
 30
0.0
 42
1.0
  0
VERTEX
  5
182
  8
THREE_QUARTER_INCH_THRUCUT
 10
23.59437975262971
 20
3.681918413403848
 30
0.0
  0
VERTEX
  5
183
  8
THREE_QUARTER_INCH_THRUCUT
 10
23.59437975263068
 20
3.782661059562313
 30
0.0
 42
-0.4142135623704057
  0
VERTEX
  5
184
  8
THREE_QUARTER_INCH_THRUCUT
 10
23.72437975263068
 20
3.912661059561115
 30
0.0
  0
VERTEX
  5
185
  8
THREE_QUARTER_INCH_THRUCUT
 10
44.71437975262879
 20
3.912661059560774
 30
0.0
 42
-0.4142135623727946
  0
VERTEX
  5
186
  8
THREE_QUARTER_INCH_THRUCUT
 10
44.84437975262879
 20
3.782661059560892
 30
0.0
  0
VERTEX
  5
187
  8
THREE_QUARTER_INCH_THRUCUT
 10
44.84437975262889
 20
3.681918413404899
 30
0.0
 42
1.0
  0
VERTEX
  5
188
  8
THREE_QUARTER_INCH_THRUCUT
 10
45.11363710647294
 20
3.412661059561087
 30
0.0
  0
VERTEX
  5
189
  8
THREE_QUARTER_INCH_THRUCUT
 10
45.32512239878454
 20
3.412661059561087
 30
0.0
 42
1.0
  0
VERTEX
  5
18A
  8
THREE_QUARTER_INCH_THRUCUT
 10
45.59437975262974
 20
3.681918413403762
 30
0.0
  0
VERTEX
  5
18B
  8
THREE_QUARTER_INCH_THRUCUT
 10
45.59437975263068
 20
3.782661059562228
 30
0.0
 42
-0.4142135623704057
  0
VERTEX
  5
18C
  8
THREE_QUARTER_INCH_THRUCUT
 10
45.72437975263068
 20
3.91266105956103
 30
0.0
  0
VERTEX
  5
18D
  8
THREE_QUARTER_INCH_THRUCUT
 10
66.71437975262884
 20
3.912661059560774
 30
0.0
 42
-0.4142135623727946
  0
VERTEX
  5
18E
  8
THREE_QUARTER_INCH_THRUCUT
 10
66.84437975262884
 20
3.782661059560892
 30
0.0
  0
VERTEX
  5
18F
  8
THREE_QUARTER_INCH_THRUCUT
 10
66.84437975262892
 20
3.681918413404899
 30
0.0
 42
1.0
  0
VERTEX
  5
190
  8
THREE_QUARTER_INCH_THRUCUT
 10
67.11363710647296
 20
3.412661059561087
 30
0.0
  0
VERTEX
  5
191
  8
THREE_QUARTER_INCH_THRUCUT
 10
67.32512239878457
 20
3.412661059561087
 30
0.0
 42
1.0
  0
VERTEX
  5
192
  8
THREE_QUARTER_INCH_THRUCUT
 10
67.59437975262978
 20
3.681918413403762
 30
0.0
  0
VERTEX
  5
193
  8
THREE_QUARTER_INCH_THRUCUT
 10
67.59437975263072
 20
3.782661059562228
 30
0.0
 42
-0.4142135623704057
  0
VERTEX
  5
194
  8
THREE_QUARTER_INCH_THRUCUT
 10
67.72437975263071
 20
3.91266105956103
 30
0.0
  0
VERTEX
  5
195
  8
THREE_QUARTER_INCH_THRUCUT
 10
78.21940019734922
 20
3.912661059560831
 30
0.0
  0
VERTEX
  5
196
  8
THREE_QUARTER_INCH_THRUCUT
 10
78.21941283811753
 20
3.828433510870694
 30
0.0
  0
VERTEX
  5
197
  8
THREE_QUARTER_INCH_THRUCUT
 10
78.21968011906597
 20
3.816070143442041
 30
0.0
  0
VERTEX
  5
198
  8
THREE_QUARTER_INCH_THRUCUT
 10
78.22055464502952
 20
3.803788717974486
 30
0.0
  0
VERTEX
  5
199
  8
THREE_QUARTER_INCH_THRUCUT
 10
78.2220280231264
 20
3.79160968534189
 30
0.0
  0
VERTEX
  5
19A
  8
THREE_QUARTER_INCH_THRUCUT
 10
78.22409186047472
 20
3.779553496418111
 30
0.0
  0
VERTEX
  5
19B
  8
THREE_QUARTER_INCH_THRUCUT
 10
78.22673776419265
 20
3.767640602077011
 30
0.0
  0
VERTEX
  5
19C
  8
THREE_QUARTER_INCH_THRUCUT
 10
78.22995734139836
 20
3.755891453192449
 30
0.0
  0
VERTEX
  5
19D
  8
THREE_QUARTER_INCH_THRUCUT
 10
78.23374219921001
 20
3.744326500638285
 30
0.0
  0
VERTEX
  5
19E
  8
THREE_QUARTER_INCH_THRUCUT
 10
78.23808394474575
 20
3.732966195288379
 30
0.0
  0
VERTEX
  5
19F
  8
THREE_QUARTER_INCH_THRUCUT
 10
78.24297418512376
 20
3.721830988016591
 30
0.0
  0
VERTEX
  5
1A0
  8
THREE_QUARTER_INCH_THRUCUT
 10
78.24840452746216
 20
3.710941329696781
 30
0.0
  0
VERTEX
  5
1A1
  8
THREE_QUARTER_INCH_THRUCUT
 10
78.25436657887911
 20
3.700317671202809
 30
0.0
  0
VERTEX
  5
1A2
  8
THREE_QUARTER_INCH_THRUCUT
 10
78.2608519464928
 20
3.689980463408535
 30
0.0
  0
VERTEX
  5
1A3
  8
THREE_QUARTER_INCH_THRUCUT
 10
78.2678522374214
 20
3.679950157187819
 30
0.0
  0
VERTEX
  5
1A4
  8
THREE_QUARTER_INCH_THRUCUT
 10
78.27535905878301
 20
3.670247203414522
 30
0.0
  0
VERTEX
  5
1A5
  8
THREE_QUARTER_INCH_THRUCUT
 10
78.28336401769585
 20
3.660892052962503
 30
0.0
  0
VERTEX
  5
1A6
  8
THREE_QUARTER_INCH_THRUCUT
 10
78.29185872127803
 20
3.651905156705622
 30
0.0
  0
VERTEX
  5
1A7
  8
THREE_QUARTER_INCH_THRUCUT
 10
78.61001962694573
 20
3.334166471264039
 30
0.0
  0
VERTEX
  5
1A8
  8
THREE_QUARTER_INCH_THRUCUT
 10
78.62332735532075
 20
3.32018432535599
 30
0.0
  0
VERTEX
  5
1A9
  8
THREE_QUARTER_INCH_THRUCUT
 10
78.63577732292579
 20
3.305701886755307
 30
0.0
  0
VERTEX
  5
1AA
  8
THREE_QUARTER_INCH_THRUCUT
 10
78.64736951069703
 20
3.290752475579936
 30
0.0
  0
VERTEX
  5
1AB
  8
THREE_QUARTER_INCH_THRUCUT
 10
78.6581038995707
 20
3.275369411947824
 30
0.0
  0
VERTEX
  5
1AC
  8
THREE_QUARTER_INCH_THRUCUT
 10
78.667980470483
 20
3.259586015976918
 30
0.0
  0
VERTEX
  5
1AD
  8
THREE_QUARTER_INCH_THRUCUT
 10
78.6769992043701
 20
3.243435607785167
 30
0.0
  0
VERTEX
  5
1AE
  8
THREE_QUARTER_INCH_THRUCUT
 10
78.68516008216827
 20
3.226951507490516
 30
0.0
  0
VERTEX
  5
1AF
  8
THREE_QUARTER_INCH_THRUCUT
 10
78.69246308481365
 20
3.210167035210913
 30
0.0
  0
VERTEX
  5
1B0
  8
THREE_QUARTER_INCH_THRUCUT
 10
78.69890819324249
 20
3.193115511064305
 30
0.0
  0
VERTEX
  5
1B1
  8
THREE_QUARTER_INCH_THRUCUT
 10
78.70449538839098
 20
3.17583025516864
 30
0.0
  0
VERTEX
  5
1B2
  8
THREE_QUARTER_INCH_THRUCUT
 10
78.70922465119531
 20
3.158344587641865
 30
0.0
  0
VERTEX
  5
1B3
  8
THREE_QUARTER_INCH_THRUCUT
 10
78.71309596259171
 20
3.140691828601927
 30
0.0
  0
VERTEX
  5
1B4
  8
THREE_QUARTER_INCH_THRUCUT
 10
78.71610930351638
 20
3.122905298166772
 30
0.0
  0
VERTEX
  5
1B5
  8
THREE_QUARTER_INCH_THRUCUT
 10
78.71826465490551
 20
3.105018316454348
 30
0.0
  0
VERTEX
  5
1B6
  8
THREE_QUARTER_INCH_THRUCUT
 10
78.71956199769534
 20
3.087064203582603
 30
0.0
  0
VERTEX
  5
1B7
  8
THREE_QUARTER_INCH_THRUCUT
 10
78.72000131282203
 20
3.069076279669483
 30
0.0
  0
VERTEX
  5
1B8
  8
THREE_QUARTER_INCH_THRUCUT
 10
78.71958258122183
 20
3.051087864832936
 30
0.0
  0
VERTEX
  5
1B9
  8
THREE_QUARTER_INCH_THRUCUT
 10
78.7183057838309
 20
3.033132279190909
 30
0.0
  0
VERTEX
  5
1BA
  8
THREE_QUARTER_INCH_THRUCUT
 10
78.71617090158549
 20
3.015242842861348
 30
0.0
  0
VERTEX
  5
1BB
  8
THREE_QUARTER_INCH_THRUCUT
 10
78.71317791542177
 20
2.997452875962203
 30
0.0
  0
VERTEX
  5
1BC
  8
THREE_QUARTER_INCH_THRUCUT
 10
78.70932680627597
 20
2.979795698611418
 30
0.0
  0
VERTEX
  5
1BD
  8
THREE_QUARTER_INCH_THRUCUT
 10
78.70461755508427
 20
2.962304630926942
 30
0.0
  0
VERTEX
  5
1BE
  8
THREE_QUARTER_INCH_THRUCUT
 10
78.6990501427829
 20
2.945012993026722
 30
0.0
  0
VERTEX
  5
1BF
  8
THREE_QUARTER_INCH_THRUCUT
 10
78.69262455030805
 20
2.927954105028704
 30
0.0
  0
VERTEX
  5
1C0
  8
THREE_QUARTER_INCH_THRUCUT
 10
78.68534075859594
 20
2.911161287050837
 30
0.0
  0
VERTEX
  5
1C1
  8
THREE_QUARTER_INCH_THRUCUT
 10
78.67719874858277
 20
2.894667859211067
 30
0.0
  0
VERTEX
  5
1C2
  8
THREE_QUARTER_INCH_THRUCUT
 10
78.66819850120476
 20
2.878507141627341
 30
0.0
  0
VERTEX
  5
1C3
  8
THREE_QUARTER_INCH_THRUCUT
 10
78.65833999739806
 20
2.862712454417607
 30
0.0
  0
VERTEX
  5
1C4
  8
THREE_QUARTER_INCH_THRUCUT
 10
78.64762321809894
 20
2.847317117699812
 30
0.0
  0
VERTEX
  5
1C5
  8
THREE_QUARTER_INCH_THRUCUT
 10
78.63604814424357
 20
2.832354451591903
 30
0.0
  0
VERTEX
  5
1C6
  8
THREE_QUARTER_INCH_THRUCUT
 10
78.62361475676818
 20
2.817857776211827
 30
0.0
  0
VERTEX
  5
1C7
  8
THREE_QUARTER_INCH_THRUCUT
 10
78.61032303660895
 20
2.803860411677531
 30
0.0
  0
VERTEX
  5
1C8
  8
THREE_QUARTER_INCH_THRUCUT
 10
78.21938997498953
 20
2.412519823656934
 30
0.0
  0
VERTEX
  5
1C9
  8
THREE_QUARTER_INCH_THRUCUT
 10
77.82845691337005
 20
2.021179235636338
 30
0.0
  0
VERTEX
  5
1CA
  8
THREE_QUARTER_INCH_THRUCUT
 10
77.81516519321082
 20
2.007181871102038
 30
0.0
  0
VERTEX
  5
1CB
  8
THREE_QUARTER_INCH_THRUCUT
 10
77.80273180573542
 20
1.992685195721957
 30
0.0
  0
VERTEX
  5
1CC
  8
THREE_QUARTER_INCH_THRUCUT
 10
77.79115673188005
 20
1.977722529614043
 30
0.0
  0
VERTEX
  5
1CD
  8
THREE_QUARTER_INCH_THRUCUT
 10
77.78043995258093
 20
1.962327192896245
 30
0.0
  0
VERTEX
  5
1CE
  8
THREE_QUARTER_INCH_THRUCUT
 10
77.77058144877424
 20
1.946532505686507
 30
0.0
  0
VERTEX
  5
1CF
  8
THREE_QUARTER_INCH_THRUCUT
 10
77.76158120139623
 20
1.930371788102779
 30
0.0
  0
VERTEX
  5
1D0
  8
THREE_QUARTER_INCH_THRUCUT
 10
77.75343919138305
 20
1.913878360263007
 30
0.0
  0
VERTEX
  5
1D1
  8
THREE_QUARTER_INCH_THRUCUT
 10
77.74615539967094
 20
1.897085542285137
 30
0.0
  0
VERTEX
  5
1D2
  8
THREE_QUARTER_INCH_THRUCUT
 10
77.7397298071961
 20
1.880026654287118
 30
0.0
  0
VERTEX
  5
1D3
  8
THREE_QUARTER_INCH_THRUCUT
 10
77.73416239489472
 20
1.862735016386897
 30
0.0
  0
VERTEX
  5
1D4
  8
THREE_QUARTER_INCH_THRUCUT
 10
77.72945314370303
 20
1.84524394870242
 30
0.0
  0
VERTEX
  5
1D5
  8
THREE_QUARTER_INCH_THRUCUT
 10
77.72560203455723
 20
1.827586771351635
 30
0.0
  0
VERTEX
  5
1D6
  8
THREE_QUARTER_INCH_THRUCUT
 10
77.72260904839351
 20
1.809796804452489
 30
0.0
  0
VERTEX
  5
1D7
  8
THREE_QUARTER_INCH_THRUCUT
 10
77.7204741661481
 20
1.791907368122928
 30
0.0
  0
VERTEX
  5
1D8
  8
THREE_QUARTER_INCH_THRUCUT
 10
77.71919736875716
 20
1.773951782480901
 30
0.0
  0
VERTEX
  5
1D9
  8
THREE_QUARTER_INCH_THRUCUT
 10
77.71877863715696
 20
1.755963367644355
 30
0.0
  0
VERTEX
  5
1DA
  8
THREE_QUARTER_INCH_THRUCUT
 10
77.71921795228366
 20
1.737975443731236
 30
0.0
  0
VERTEX
  5
1DB
  8
THREE_QUARTER_INCH_THRUCUT
 10
77.72051529507348
 20
1.720021330859492
 30
0.0
  0
VERTEX
  5
1DC
  8
THREE_QUARTER_INCH_THRUCUT
 10
77.72267064646262
 20
1.70213434914707
 30
0.0
  0
VERTEX
  5
1DD
  8
THREE_QUARTER_INCH_THRUCUT
 10
77.72568398738728
 20
1.684347818711916
 30
0.0
  0
VERTEX
  5
1DE
  8
THREE_QUARTER_INCH_THRUCUT
 10
77.72955529878368
 20
1.666695059671979
 30
0.0
  0
VERTEX
  5
1DF
  8
THREE_QUARTER_INCH_THRUCUT
 10
77.73428456158801
 20
1.649209392145205
 30
0.0
  0
VERTEX
  5
1E0
  8
THREE_QUARTER_INCH_THRUCUT
 10
77.7398717567365
 20
1.631924136249542
 30
0.0
  0
VERTEX
  5
1E1
  8
THREE_QUARTER_INCH_THRUCUT
 10
77.74631686516534
 20
1.614872612102937
 30
0.0
  0
VERTEX
  5
1E2
  8
THREE_QUARTER_INCH_THRUCUT
 10
77.75361986781073
 20
1.598088139823336
 30
0.0
  0
VERTEX
  5
1E3
  8
THREE_QUARTER_INCH_THRUCUT
 10
77.76178074560889
 20
1.581604039528688
 30
0.0
  0
VERTEX
  5
1E4
  8
THREE_QUARTER_INCH_THRUCUT
 10
77.77079947949599
 20
1.565453631336939
 30
0.0
  0
VERTEX
  5
1E5
  8
THREE_QUARTER_INCH_THRUCUT
 10
77.78067605040829
 20
1.549670235366036
 30
0.0
  0
VERTEX
  5
1E6
  8
THREE_QUARTER_INCH_THRUCUT
 10
77.79141043928196
 20
1.534287171733926
 30
0.0
  0
VERTEX
  5
1E7
  8
THREE_QUARTER_INCH_THRUCUT
 10
77.8030026270532
 20
1.519337760558558
 30
0.0
  0
VERTEX
  5
1E8
  8
THREE_QUARTER_INCH_THRUCUT
 10
77.81545259465824
 20
1.504855321957877
 30
0.0
  0
VERTEX
  5
1E9
  8
THREE_QUARTER_INCH_THRUCUT
 10
77.82876032303326
 20
1.490873176049831
 30
0.0
  0
VERTEX
  5
1EA
  8
THREE_QUARTER_INCH_THRUCUT
 10
78.14692122870096
 20
1.17313449060822
 30
0.0
  0
VERTEX
  5
1EB
  8
THREE_QUARTER_INCH_THRUCUT
 10
78.15541593228315
 20
1.16414759435133
 30
0.0
  0
VERTEX
  5
1EC
  8
THREE_QUARTER_INCH_THRUCUT
 10
78.16342089119598
 20
1.154792443899305
 30
0.0
  0
VERTEX
  5
1ED
  8
THREE_QUARTER_INCH_THRUCUT
 10
78.1709277125576
 20
1.145089490126004
 30
0.0
  0
VERTEX
  5
1EE
  8
THREE_QUARTER_INCH_THRUCUT
 10
78.17792800348619
 20
1.135059183905287
 30
0.0
  0
VERTEX
  5
1EF
  8
THREE_QUARTER_INCH_THRUCUT
 10
78.18441337109988
 20
1.124721976111015
 30
0.0
  0
VERTEX
  5
1F0
  8
THREE_QUARTER_INCH_THRUCUT
 10
78.19037542251684
 20
1.114098317617046
 30
0.0
  0
VERTEX
  5
1F1
  8
THREE_QUARTER_INCH_THRUCUT
 10
78.19580576485524
 20
1.10320865929724
 30
0.0
  0
VERTEX
  5
1F2
  8
THREE_QUARTER_INCH_THRUCUT
 10
78.20069600523324
 20
1.092073452025457
 30
0.0
  0
VERTEX
  5
1F3
  8
THREE_QUARTER_INCH_THRUCUT
 10
78.20503775076898
 20
1.080713146675557
 30
0.0
  0
VERTEX
  5
1F4
  8
THREE_QUARTER_INCH_THRUCUT
 10
78.20882260858063
 20
1.069148194121398
 30
0.0
  0
VERTEX
  5
1F5
  8
THREE_QUARTER_INCH_THRUCUT
 10
78.21204218578634
 20
1.057399045236842
 30
0.0
  0
VERTEX
  5
1F6
  8
THREE_QUARTER_INCH_THRUCUT
 10
78.21468808950428
 20
1.045486150895747
 30
0.0
  0
VERTEX
  5
1F7
  8
THREE_QUARTER_INCH_THRUCUT
 10
78.2167519268526
 20
1.033429961971974
 30
0.0
  0
VERTEX
  5
1F8
  8
THREE_QUARTER_INCH_THRUCUT
 10
78.21822530494947
 20
1.021250929339381
 30
0.0
  0
VERTEX
  5
1F9
  8
THREE_QUARTER_INCH_THRUCUT
 10
78.21909983091302
 20
1.008969503871829
 30
0.0
  0
VERTEX
  5
1FA
  8
THREE_QUARTER_INCH_THRUCUT
 10
78.21936711186146
 20
0.9966061364431775
 30
0.0
  0
VERTEX
  5
1FB
  8
THREE_QUARTER_INCH_THRUCUT
 10
78.219379752636
 20
0.9126610595608333
 30
0.0
  0
VERTEX
  5
1FC
  8
THREE_QUARTER_INCH_THRUCUT
 10
67.72437975263071
 20
0.9126610595611175
 30
0.0
 42
-0.4142135623703808
  0
VERTEX
  5
1FD
  8
THREE_QUARTER_INCH_THRUCUT
 10
67.59437975263072
 20
1.04266105955992
 30
0.0
  0
VERTEX
  5
1FE
  8
THREE_QUARTER_INCH_THRUCUT
 10
67.59437975262978
 20
1.143403705718413
 30
0.0
 42
1.0
  0
VERTEX
  5
1FF
  8
THREE_QUARTER_INCH_THRUCUT
 10
67.3251223987846
 20
1.412661059561117
 30
0.0
  0
VERTEX
  5
200
  8
THREE_QUARTER_INCH_THRUCUT
 10
67.11363710647296
 20
1.412661059561088
 30
0.0
 42
1.0
  0
VERTEX
  5
201
  8
THREE_QUARTER_INCH_THRUCUT
 10
66.8443797526289
 20
1.143403705717248
 30
0.0
  0
VERTEX
  5
202
  8
THREE_QUARTER_INCH_THRUCUT
 10
66.84437975262884
 20
1.04266105956046
 30
0.0
 42
-0.4142135623729316
  0
VERTEX
  5
203
  8
THREE_QUARTER_INCH_THRUCUT
 10
66.71437975262884
 20
0.9126610595605775
 30
0.0
  0
VERTEX
  5
204
  8
THREE_QUARTER_INCH_THRUCUT
 10
45.72437975263068
 20
0.9126610595611175
 30
0.0
 42
-0.4142135623703808
  0
VERTEX
  5
205
  8
THREE_QUARTER_INCH_THRUCUT
 10
45.59437975263068
 20
1.04266105955992
 30
0.0
  0
VERTEX
  5
206
  8
THREE_QUARTER_INCH_THRUCUT
 10
45.59437975262974
 20
1.143403705718413
 30
0.0
 42
1.0
  0
VERTEX
  5
207
  8
THREE_QUARTER_INCH_THRUCUT
 10
45.32512239878455
 20
1.412661059561117
 30
0.0
  0
VERTEX
  5
208
  8
THREE_QUARTER_INCH_THRUCUT
 10
45.11363710647291
 20
1.412661059561088
 30
0.0
 42
1.0
  0
VERTEX
  5
209
  8
THREE_QUARTER_INCH_THRUCUT
 10
44.84437975262887
 20
1.143403705717248
 30
0.0
  0
VERTEX
  5
20A
  8
THREE_QUARTER_INCH_THRUCUT
 10
44.84437975262879
 20
1.04266105956046
 30
0.0
 42
-0.4142135623729316
  0
VERTEX
  5
20B
  8
THREE_QUARTER_INCH_THRUCUT
 10
44.71437975262879
 20
0.9126610595605775
 30
0.0
  0
VERTEX
  5
20C
  8
THREE_QUARTER_INCH_THRUCUT
 10
23.72437975263068
 20
0.9126610595612028
 30
0.0
 42
-0.4142135623703808
  0
VERTEX
  5
20D
  8
THREE_QUARTER_INCH_THRUCUT
 10
23.59437975263068
 20
1.042661059560005
 30
0.0
  0
VERTEX
  5
20E
  8
THREE_QUARTER_INCH_THRUCUT
 10
23.59437975262971
 20
1.143403705718498
 30
0.0
 42
1.0
  0
VERTEX
  5
20F
  8
THREE_QUARTER_INCH_THRUCUT
 10
23.32512239878451
 20
1.412661059561202
 30
0.0
  0
VERTEX
  5
210
  8
THREE_QUARTER_INCH_THRUCUT
 10
23.11363710647293
 20
1.412661059561173
 30
0.0
 42
1.0
  0
VERTEX
  5
211
  8
THREE_QUARTER_INCH_THRUCUT
 10
22.84437975262886
 20
1.143403705717333
 30
0.0
  0
VERTEX
  5
212
  8
THREE_QUARTER_INCH_THRUCUT
 10
22.8443797526288
 20
1.042661059560545
 30
0.0
 42
-0.4142135623729316
  0
VERTEX
  5
213
  8
THREE_QUARTER_INCH_THRUCUT
 10
22.71437975262875
 20
0.9126610595606628
 30
0.0
  0
SEQEND
  5
5EB
  8
THREE_QUARTER_INCH_THRUCUT
  0
POLYLINE
  5
78
  8
THREE_QUARTER_INCH_THRUCUT
 66
     1
 10
0.0
 20
0.0
 30
0.0
 70
     1
  0
VERTEX
  5
214
  8
THREE_QUARTER_INCH_THRUCUT
 10
46.03707062069634
 20
28.6018571449002
 30
0.0
  0
VERTEX
  5
215
  8
THREE_QUARTER_INCH_THRUCUT
 10
46.03707062069526
 20
31.08028234175057
 30
0.0
 42
1.0
  0
VERTEX
  5
216
  8
THREE_QUARTER_INCH_THRUCUT
 10
46.03707062069515
 20
31.34106974332538
 30
0.0
  0
VERTEX
  5
217
  8
THREE_QUARTER_INCH_THRUCUT
 10
45.28707062069645
 20
31.34106974332402
 30
0.0
 42
1.0
  0
VERTEX
  5
218
  8
THREE_QUARTER_INCH_THRUCUT
 10
45.28707062069645
 20
31.0802823417492
 30
0.0
  0
VERTEX
  5
219
  8
THREE_QUARTER_INCH_THRUCUT
 10
45.28707062069626
 20
28.60185714489884
 30
0.0
 42
1.0
  0
VERTEX
  5
21A
  8
THREE_QUARTER_INCH_THRUCUT
 10
45.28707062069626
 20
28.34106974332402
 30
0.0
  0
VERTEX
  5
21B
  8
THREE_QUARTER_INCH_THRUCUT
 10
46.03707062069645
 20
28.34106974332538
 30
0.0
 42
1.0
  0
SEQEND
  5
5EC
  8
THREE_QUARTER_INCH_THRUCUT
  0
POLYLINE
  5
79
  8
THREE_QUARTER_INCH_THRUCUT
 66
     1
 10
0.0
 20
0.0
 30
0.0
 70
     1
  0
VERTEX
  5
21C
  8
THREE_QUARTER_INCH_THRUCUT
 10
23.28707062068978
 20
31.08028234174693
 30
0.0
  0
VERTEX
  5
21D
  8
THREE_QUARTER_INCH_THRUCUT
 10
23.28707062070109
 20
28.60185714490384
 30
0.0
 42
1.0
  0
VERTEX
  5
21E
  8
THREE_QUARTER_INCH_THRUCUT
 10
23.28707062070228
 20
28.34106974332902
 30
0.0
  0
VERTEX
  5
21F
  8
THREE_QUARTER_INCH_THRUCUT
 10
24.03707062069646
 20
28.34106974332538
 30
0.0
 42
1.0
  0
VERTEX
  5
220
  8
THREE_QUARTER_INCH_THRUCUT
 10
24.03707062069634
 20
28.6018571449002
 30
0.0
  0
VERTEX
  5
221
  8
THREE_QUARTER_INCH_THRUCUT
 10
24.03707062069526
 20
31.08028234175057
 30
0.0
 42
1.0
  0
VERTEX
  5
222
  8
THREE_QUARTER_INCH_THRUCUT
 10
24.03707062069515
 20
31.34106974332538
 30
0.0
  0
VERTEX
  5
223
  8
THREE_QUARTER_INCH_THRUCUT
 10
23.28707062068918
 20
31.34106974332175
 30
0.0
 42
1.0
  0
SEQEND
  5
5ED
  8
THREE_QUARTER_INCH_THRUCUT
  0
POLYLINE
  5
7A
  8
THREE_QUARTER_INCH_THRUCUT
 66
     1
 10
0.0
 20
0.0
 30
0.0
 70
     1
  0
VERTEX
  5
224
  8
THREE_QUARTER_INCH_THRUCUT
 10
7.052070621261182
 20
9.591069749263532
 30
0.0
  0
VERTEX
  5
225
  8
THREE_QUARTER_INCH_THRUCUT
 10
2.037070620695121
 20
9.591069743325129
 30
0.0
  0
VERTEX
  5
226
  8
THREE_QUARTER_INCH_THRUCUT
 10
2.037070620694438
 20
19.26778234175236
 30
0.0
 42
1.0
  0
VERTEX
  5
227
  8
THREE_QUARTER_INCH_THRUCUT
 10
2.037070620694438
 20
19.52856974332717
 30
0.0
  0
VERTEX
  5
228
  8
THREE_QUARTER_INCH_THRUCUT
 10
1.287070620695121
 20
19.52856974332513
 30
0.0
  0
VERTEX
  5
229
  8
THREE_QUARTER_INCH_THRUCUT
 10
1.287070620695121
 20
26.34106974332513
 30
0.0
  0
VERTEX
  5
22A
  8
THREE_QUARTER_INCH_THRUCUT
 10
1.662070620694438
 20
26.34106974332717
 30
0.0
 42
1.0
  0
VERTEX
  5
22B
  8
THREE_QUARTER_INCH_THRUCUT
 10
1.662070620694524
 20
26.60185714490199
 30
0.0
  0
VERTEX
  5
22C
  8
THREE_QUARTER_INCH_THRUCUT
 10
1.662070620695121
 20
28.34106974332513
 30
0.0
  0
VERTEX
  5
22D
  8
THREE_QUARTER_INCH_THRUCUT
 10
2.037070620694438
 20
28.3410697433199
 30
0.0
 42
1.0
  0
VERTEX
  5
22E
  8
THREE_QUARTER_INCH_THRUCUT
 10
2.037070620694495
 20
28.60185714489472
 30
0.0
  0
VERTEX
  5
22F
  8
THREE_QUARTER_INCH_THRUCUT
 10
2.037070620694495
 20
31.08028234175234
 30
0.0
 42
1.0
  0
VERTEX
  5
230
  8
THREE_QUARTER_INCH_THRUCUT
 10
2.037070620694495
 20
31.34106974332716
 30
0.0
  0
VERTEX
  5
231
  8
THREE_QUARTER_INCH_THRUCUT
 10
1.662070620695121
 20
31.34106974332511
 30
0.0
  0
VERTEX
  5
232
  8
THREE_QUARTER_INCH_THRUCUT
 10
1.662070620694524
 20
33.08028234175234
 30
0.0
 42
1.0
  0
VERTEX
  5
233
  8
THREE_QUARTER_INCH_THRUCUT
 10
1.662070620694438
 20
33.34106974332716
 30
0.0
  0
VERTEX
  5
234
  8
THREE_QUARTER_INCH_THRUCUT
 10
1.287070620695121
 20
33.34106974332511
 30
0.0
  0
VERTEX
  5
235
  8
THREE_QUARTER_INCH_THRUCUT
 10
1.287070620695121
 20
40.15356974332511
 30
0.0
  0
VERTEX
  5
236
  8
THREE_QUARTER_INCH_THRUCUT
 10
2.037070620694438
 20
40.15356974332716
 30
0.0
 42
1.0
  0
VERTEX
  5
237
  8
THREE_QUARTER_INCH_THRUCUT
 10
2.037070620694467
 20
40.41435714490198
 30
0.0
  0
VERTEX
  5
238
  8
THREE_QUARTER_INCH_THRUCUT
 10
2.037070620695121
 20
46.59106974332511
 30
0.0
  0
VERTEX
  5
239
  8
THREE_QUARTER_INCH_THRUCUT
 10
2.037070620695121
 20
47.0910697391453
 30
0.0
  0
VERTEX
  5
23A
  8
THREE_QUARTER_INCH_THRUCUT
 10
67.28707062182491
 20
47.09106974184241
 30
0.0
  0
VERTEX
  5
23B
  8
THREE_QUARTER_INCH_THRUCUT
 10
67.28706951648576
 20
42.10976922306762
 30
0.0
 42
0.4142135623731151
  0
VERTEX
  5
23C
  8
THREE_QUARTER_INCH_THRUCUT
 10
67.28706838930123
 20
41.84106862437105
 30
0.0
 42
0.4142135623730996
  0
VERTEX
  5
23D
  8
THREE_QUARTER_INCH_THRUCUT
 10
67.55576898799768
 20
41.84106860252545
 30
0.0
  0
VERTEX
  5
23E
  8
THREE_QUARTER_INCH_THRUCUT
 10
67.88706986745558
 20
41.84106860252545
 30
0.0
  0
VERTEX
  5
23F
  8
THREE_QUARTER_INCH_THRUCUT
 10
67.90443486745562
 20
41.83954960252553
 30
0.0
  0
VERTEX
  5
240
  8
THREE_QUARTER_INCH_THRUCUT
 10
67.92127286745563
 20
41.83503860252544
 30
0.0
  0
VERTEX
  5
241
  8
THREE_QUARTER_INCH_THRUCUT
 10
67.93706986745565
 20
41.82767160252551
 30
0.0
  0
VERTEX
  5
242
  8
THREE_QUARTER_INCH_THRUCUT
 10
67.95134886745564
 20
41.81767360252551
 30
0.0
  0
VERTEX
  5
243
  8
THREE_QUARTER_INCH_THRUCUT
 10
67.96367486745567
 20
41.80534760252548
 30
0.0
  0
VERTEX
  5
244
  8
THREE_QUARTER_INCH_THRUCUT
 10
67.97367286745566
 20
41.79106860252549
 30
0.0
  0
VERTEX
  5
245
  8
THREE_QUARTER_INCH_THRUCUT
 10
67.98103986745559
 20
41.77527060252559
 30
0.0
  0
VERTEX
  5
246
  8
THREE_QUARTER_INCH_THRUCUT
 10
67.98555086745557
 20
41.75843360252546
 30
0.0
  0
VERTEX
  5
247
  8
THREE_QUARTER_INCH_THRUCUT
 10
67.9870698674556
 20
41.74106860252554
 30
0.0
  0
VERTEX
  5
248
  8
THREE_QUARTER_INCH_THRUCUT
 10
67.9870698674556
 20
40.34106910252539
 30
0.0
  0
VERTEX
  5
249
  8
THREE_QUARTER_INCH_THRUCUT
 10
67.9870698674556
 20
38.94106960252547
 30
0.0
  0
VERTEX
  5
24A
  8
THREE_QUARTER_INCH_THRUCUT
 10
67.98555086745557
 20
38.92370460252554
 30
0.0
  0
VERTEX
  5
24B
  8
THREE_QUARTER_INCH_THRUCUT
 10
67.98103986745559
 20
38.90686760252542
 30
0.0
  0
VERTEX
  5
24C
  8
THREE_QUARTER_INCH_THRUCUT
 10
67.97367286745566
 20
38.89106960252551
 30
0.0
  0
VERTEX
  5
24D
  8
THREE_QUARTER_INCH_THRUCUT
 10
67.96367486745567
 20
38.87679060252552
 30
0.0
  0
VERTEX
  5
24E
  8
THREE_QUARTER_INCH_THRUCUT
 10
67.95134886745564
 20
38.86446460252549
 30
0.0
  0
VERTEX
  5
24F
  8
THREE_QUARTER_INCH_THRUCUT
 10
67.93706986745565
 20
38.8544666025255
 30
0.0
  0
VERTEX
  5
250
  8
THREE_QUARTER_INCH_THRUCUT
 10
67.92127286745563
 20
38.84709960252557
 30
0.0
  0
VERTEX
  5
251
  8
THREE_QUARTER_INCH_THRUCUT
 10
67.90443486745562
 20
38.84258860252547
 30
0.0
  0
VERTEX
  5
252
  8
THREE_QUARTER_INCH_THRUCUT
 10
67.88706986745558
 20
38.84106960252556
 30
0.0
  0
VERTEX
  5
253
  8
THREE_QUARTER_INCH_THRUCUT
 10
67.5557734093536
 20
38.84106960252556
 30
0.0
 42
1.0
  0
VERTEX
  5
254
  8
THREE_QUARTER_INCH_THRUCUT
 10
67.28707172716372
 20
38.5723702621256
 30
0.0
  0
VERTEX
  5
255
  8
THREE_QUARTER_INCH_THRUCUT
 10
67.28707063880461
 20
34.47106974259653
 30
0.0
  0
VERTEX
  5
256
  8
THREE_QUARTER_INCH_THRUCUT
 10
66.68707036147038
 20
34.47106974259665
 30
0.0
  0
VERTEX
  5
257
  8
THREE_QUARTER_INCH_THRUCUT
 10
66.68707038412566
 20
35.15722715328589
 30
0.0
 42
1.0
  0
VERTEX
  5
258
  8
THREE_QUARTER_INCH_THRUCUT
 10
66.50322033264769
 20
35.34107492245048
 30
0.0
  0
VERTEX
  5
259
  8
THREE_QUARTER_INCH_THRUCUT
 10
66.37091588419224
 20
35.34107327564524
 30
0.0
 42
1.0
  0
VERTEX
  5
25A
  8
THREE_QUARTER_INCH_THRUCUT
 10
66.18707040945327
 20
35.15722551254826
 30
0.0
  0
VERTEX
  5
25B
  8
THREE_QUARTER_INCH_THRUCUT
 10
66.18707040946327
 20
34.47106974259668
 30
0.0
  0
VERTEX
  5
25C
  8
THREE_QUARTER_INCH_THRUCUT
 10
65.69989350510092
 20
34.47106974259662
 30
0.0
  0
VERTEX
  5
25D
  8
THREE_QUARTER_INCH_THRUCUT
 10
65.69989350510092
 20
34.21106974259654
 30
0.0
  0
VERTEX
  5
25E
  8
THREE_QUARTER_INCH_THRUCUT
 10
66.18707040946327
 20
34.21106974259654
 30
0.0
  0
VERTEX
  5
25F
  8
THREE_QUARTER_INCH_THRUCUT
 10
66.18707040945327
 20
33.52491397264495
 30
0.0
 42
1.0
  0
VERTEX
  5
260
  8
THREE_QUARTER_INCH_THRUCUT
 10
66.37091588419224
 20
33.34106620954795
 30
0.0
  0
VERTEX
  5
261
  8
THREE_QUARTER_INCH_THRUCUT
 10
66.50322033264769
 20
33.34106456274272
 30
0.0
 42
1.0
  0
VERTEX
  5
262
  8
THREE_QUARTER_INCH_THRUCUT
 10
66.68707038412566
 20
33.5249123319073
 30
0.0
  0
VERTEX
  5
263
  8
THREE_QUARTER_INCH_THRUCUT
 10
66.68707036147038
 20
34.21106974259654
 30
0.0
  0
VERTEX
  5
264
  8
THREE_QUARTER_INCH_THRUCUT
 10
67.28707060484487
 20
34.21106974259671
 30
0.0
  0
VERTEX
  5
265
  8
THREE_QUARTER_INCH_THRUCUT
 10
67.28706951648576
 20
30.10976922306762
 30
0.0
 42
0.4142135623731151
  0
VERTEX
  5
266
  8
THREE_QUARTER_INCH_THRUCUT
 10
67.28706838930123
 20
29.84106862437105
 30
0.0
 42
0.4142135623730996
  0
VERTEX
  5
267
  8
THREE_QUARTER_INCH_THRUCUT
 10
67.55576898799768
 20
29.84106860252545
 30
0.0
  0
VERTEX
  5
268
  8
THREE_QUARTER_INCH_THRUCUT
 10
67.88706986745558
 20
29.84106860252545
 30
0.0
  0
VERTEX
  5
269
  8
THREE_QUARTER_INCH_THRUCUT
 10
67.90443486745562
 20
29.83954960252553
 30
0.0
  0
VERTEX
  5
26A
  8
THREE_QUARTER_INCH_THRUCUT
 10
67.92127286745563
 20
29.83503860252544
 30
0.0
  0
VERTEX
  5
26B
  8
THREE_QUARTER_INCH_THRUCUT
 10
67.93706986745565
 20
29.82767160252551
 30
0.0
  0
VERTEX
  5
26C
  8
THREE_QUARTER_INCH_THRUCUT
 10
67.95134886745564
 20
29.81767360252551
 30
0.0
  0
VERTEX
  5
26D
  8
THREE_QUARTER_INCH_THRUCUT
 10
67.96367486745567
 20
29.80534760252548
 30
0.0
  0
VERTEX
  5
26E
  8
THREE_QUARTER_INCH_THRUCUT
 10
67.97367286745566
 20
29.79106860252549
 30
0.0
  0
VERTEX
  5
26F
  8
THREE_QUARTER_INCH_THRUCUT
 10
67.98103986745559
 20
29.77527060252559
 30
0.0
  0
VERTEX
  5
270
  8
THREE_QUARTER_INCH_THRUCUT
 10
67.98555086745557
 20
29.75843360252546
 30
0.0
  0
VERTEX
  5
271
  8
THREE_QUARTER_INCH_THRUCUT
 10
67.9870698674556
 20
29.74106860252554
 30
0.0
  0
VERTEX
  5
272
  8
THREE_QUARTER_INCH_THRUCUT
 10
67.9870698674556
 20
28.3410691025254
 30
0.0
  0
VERTEX
  5
273
  8
THREE_QUARTER_INCH_THRUCUT
 10
67.9870698674556
 20
26.94106960252548
 30
0.0
  0
VERTEX
  5
274
  8
THREE_QUARTER_INCH_THRUCUT
 10
67.98555086745557
 20
26.92370460252555
 30
0.0
  0
VERTEX
  5
275
  8
THREE_QUARTER_INCH_THRUCUT
 10
67.98103986745559
 20
26.90686760252543
 30
0.0
  0
VERTEX
  5
276
  8
THREE_QUARTER_INCH_THRUCUT
 10
67.97367286745566
 20
26.89106960252553
 30
0.0
  0
VERTEX
  5
277
  8
THREE_QUARTER_INCH_THRUCUT
 10
67.96367486745567
 20
26.87679060252554
 30
0.0
  0
VERTEX
  5
278
  8
THREE_QUARTER_INCH_THRUCUT
 10
67.95134886745564
 20
26.86446460252551
 30
0.0
  0
VERTEX
  5
279
  8
THREE_QUARTER_INCH_THRUCUT
 10
67.93706986745565
 20
26.85446660252551
 30
0.0
  0
VERTEX
  5
27A
  8
THREE_QUARTER_INCH_THRUCUT
 10
67.92127286745563
 20
26.84709960252558
 30
0.0
  0
VERTEX
  5
27B
  8
THREE_QUARTER_INCH_THRUCUT
 10
67.90443486745562
 20
26.84258860252549
 30
0.0
  0
VERTEX
  5
27C
  8
THREE_QUARTER_INCH_THRUCUT
 10
67.88706986745558
 20
26.84106960252557
 30
0.0
  0
VERTEX
  5
27D
  8
THREE_QUARTER_INCH_THRUCUT
 10
67.5557734093536
 20
26.84106960252557
 30
0.0
 42
1.0
  0
VERTEX
  5
27E
  8
THREE_QUARTER_INCH_THRUCUT
 10
67.28707172716372
 20
26.57237026209992
 30
0.0
  0
VERTEX
  5
27F
  8
THREE_QUARTER_INCH_THRUCUT
 10
67.28707063880466
 20
22.47106974258369
 30
0.0
  0
VERTEX
  5
280
  8
THREE_QUARTER_INCH_THRUCUT
 10
66.68707036147038
 20
22.4710697425838
 30
0.0
  0
VERTEX
  5
281
  8
THREE_QUARTER_INCH_THRUCUT
 10
66.68707038412566
 20
23.15722715327305
 30
0.0
 42
1.0
  0
VERTEX
  5
282
  8
THREE_QUARTER_INCH_THRUCUT
 10
66.50322033264769
 20
23.34107492243762
 30
0.0
  0
VERTEX
  5
283
  8
THREE_QUARTER_INCH_THRUCUT
 10
66.37091588419224
 20
23.34107327563239
 30
0.0
 42
1.0
  0
VERTEX
  5
284
  8
THREE_QUARTER_INCH_THRUCUT
 10
66.18707040945327
 20
23.1572255125354
 30
0.0
  0
VERTEX
  5
285
  8
THREE_QUARTER_INCH_THRUCUT
 10
66.18707040946327
 20
22.47106974258383
 30
0.0
  0
VERTEX
  5
286
  8
THREE_QUARTER_INCH_THRUCUT
 10
65.69989350510092
 20
22.47106974258377
 30
0.0
  0
VERTEX
  5
287
  8
THREE_QUARTER_INCH_THRUCUT
 10
65.69989350510092
 20
22.2110697425837
 30
0.0
  0
VERTEX
  5
288
  8
THREE_QUARTER_INCH_THRUCUT
 10
66.18707040946327
 20
22.2110697425837
 30
0.0
  0
VERTEX
  5
289
  8
THREE_QUARTER_INCH_THRUCUT
 10
66.18707040945327
 20
21.5249139726321
 30
0.0
 42
1.0
  0
VERTEX
  5
28A
  8
THREE_QUARTER_INCH_THRUCUT
 10
66.37091588419224
 20
21.34106620953511
 30
0.0
  0
VERTEX
  5
28B
  8
THREE_QUARTER_INCH_THRUCUT
 10
66.50322033264769
 20
21.34106456272988
 30
0.0
 42
1.0
  0
VERTEX
  5
28C
  8
THREE_QUARTER_INCH_THRUCUT
 10
66.68707038412566
 20
21.52491233189445
 30
0.0
  0
VERTEX
  5
28D
  8
THREE_QUARTER_INCH_THRUCUT
 10
66.68707036147038
 20
22.2110697425837
 30
0.0
  0
VERTEX
  5
28E
  8
THREE_QUARTER_INCH_THRUCUT
 10
67.28707060484487
 20
22.21106974258381
 30
0.0
  0
VERTEX
  5
28F
  8
THREE_QUARTER_INCH_THRUCUT
 10
67.28706951648576
 20
18.10976922306764
 30
0.0
 42
0.4142135623731151
  0
VERTEX
  5
290
  8
THREE_QUARTER_INCH_THRUCUT
 10
67.28706838930123
 20
17.84106862437107
 30
0.0
 42
0.4142135623730996
  0
VERTEX
  5
291
  8
THREE_QUARTER_INCH_THRUCUT
 10
67.55576898799768
 20
17.84106860252546
 30
0.0
  0
VERTEX
  5
292
  8
THREE_QUARTER_INCH_THRUCUT
 10
67.88706986745558
 20
17.84106860252546
 30
0.0
  0
VERTEX
  5
293
  8
THREE_QUARTER_INCH_THRUCUT
 10
67.90443486745562
 20
17.83954960252554
 30
0.0
  0
VERTEX
  5
294
  8
THREE_QUARTER_INCH_THRUCUT
 10
67.92127286745563
 20
17.83503860252545
 30
0.0
  0
VERTEX
  5
295
  8
THREE_QUARTER_INCH_THRUCUT
 10
67.93706986745565
 20
17.82767160252552
 30
0.0
  0
VERTEX
  5
296
  8
THREE_QUARTER_INCH_THRUCUT
 10
67.95134886745564
 20
17.81767360252552
 30
0.0
  0
VERTEX
  5
297
  8
THREE_QUARTER_INCH_THRUCUT
 10
67.96367486745567
 20
17.80534760252549
 30
0.0
  0
VERTEX
  5
298
  8
THREE_QUARTER_INCH_THRUCUT
 10
67.97367286745566
 20
17.79106860252551
 30
0.0
  0
VERTEX
  5
299
  8
THREE_QUARTER_INCH_THRUCUT
 10
67.98103986745559
 20
17.7752706025256
 30
0.0
  0
VERTEX
  5
29A
  8
THREE_QUARTER_INCH_THRUCUT
 10
67.98555086745557
 20
17.75843360252548
 30
0.0
  0
VERTEX
  5
29B
  8
THREE_QUARTER_INCH_THRUCUT
 10
67.9870698674556
 20
17.74106860252555
 30
0.0
  0
VERTEX
  5
29C
  8
THREE_QUARTER_INCH_THRUCUT
 10
67.9870698674556
 20
16.3410691025254
 30
0.0
  0
VERTEX
  5
29D
  8
THREE_QUARTER_INCH_THRUCUT
 10
67.9870698674556
 20
14.94106960252548
 30
0.0
  0
VERTEX
  5
29E
  8
THREE_QUARTER_INCH_THRUCUT
 10
67.98555086745557
 20
14.92370460252555
 30
0.0
  0
VERTEX
  5
29F
  8
THREE_QUARTER_INCH_THRUCUT
 10
67.98103986745559
 20
14.90686760252543
 30
0.0
  0
VERTEX
  5
2A0
  8
THREE_QUARTER_INCH_THRUCUT
 10
67.97367286745566
 20
14.89106960252553
 30
0.0
  0
VERTEX
  5
2A1
  8
THREE_QUARTER_INCH_THRUCUT
 10
67.96367486745567
 20
14.87679060252554
 30
0.0
  0
VERTEX
  5
2A2
  8
THREE_QUARTER_INCH_THRUCUT
 10
67.95134886745564
 20
14.86446460252551
 30
0.0
  0
VERTEX
  5
2A3
  8
THREE_QUARTER_INCH_THRUCUT
 10
67.93706986745565
 20
14.85446660252551
 30
0.0
  0
VERTEX
  5
2A4
  8
THREE_QUARTER_INCH_THRUCUT
 10
67.92127286745563
 20
14.84709960252558
 30
0.0
  0
VERTEX
  5
2A5
  8
THREE_QUARTER_INCH_THRUCUT
 10
67.90443486745562
 20
14.84258860252549
 30
0.0
  0
VERTEX
  5
2A6
  8
THREE_QUARTER_INCH_THRUCUT
 10
67.88706986745558
 20
14.84106960252557
 30
0.0
  0
VERTEX
  5
2A7
  8
THREE_QUARTER_INCH_THRUCUT
 10
67.5557734093536
 20
14.84106960252557
 30
0.0
 42
1.0
  0
VERTEX
  5
2A8
  8
THREE_QUARTER_INCH_THRUCUT
 10
67.28707172716372
 20
14.57237026205035
 30
0.0
  0
VERTEX
  5
2A9
  8
THREE_QUARTER_INCH_THRUCUT
 10
67.28707038369436
 20
9.591069743325015
 30
0.0
  0
VERTEX
  5
2AA
  8
THREE_QUARTER_INCH_THRUCUT
 10
62.31207062126076
 20
9.591069732283636
 30
0.0
  0
VERTEX
  5
2AB
  8
THREE_QUARTER_INCH_THRUCUT
 10
62.31207062126113
 20
10.19106999857646
 30
0.0
  0
VERTEX
  5
2AC
  8
THREE_QUARTER_INCH_THRUCUT
 10
62.99822803195038
 20
10.19106997592117
 30
0.0
 42
1.0
  0
VERTEX
  5
2AD
  8
THREE_QUARTER_INCH_THRUCUT
 10
63.18207580111495
 20
10.37492002739915
 30
0.0
  0
VERTEX
  5
2AE
  8
THREE_QUARTER_INCH_THRUCUT
 10
63.18207415430972
 20
10.50722447585459
 30
0.0
 42
1.0
  0
VERTEX
  5
2AF
  8
THREE_QUARTER_INCH_THRUCUT
 10
62.99822639121273
 20
10.69106995059357
 30
0.0
  0
VERTEX
  5
2B0
  8
THREE_QUARTER_INCH_THRUCUT
 10
62.31207062126113
 20
10.69106995058356
 30
0.0
  0
VERTEX
  5
2B1
  8
THREE_QUARTER_INCH_THRUCUT
 10
62.31207062126107
 20
11.1782468549459
 30
0.0
  0
VERTEX
  5
2B2
  8
THREE_QUARTER_INCH_THRUCUT
 10
62.05207062126102
 20
11.1782468549459
 30
0.0
  0
VERTEX
  5
2B3
  8
THREE_QUARTER_INCH_THRUCUT
 10
62.05207062126102
 20
10.69106995058356
 30
0.0
  0
VERTEX
  5
2B4
  8
THREE_QUARTER_INCH_THRUCUT
 10
61.36591485130943
 20
10.69106995059357
 30
0.0
 42
1.0
  0
VERTEX
  5
2B5
  8
THREE_QUARTER_INCH_THRUCUT
 10
61.18206708821243
 20
10.50722447585459
 30
0.0
  0
VERTEX
  5
2B6
  8
THREE_QUARTER_INCH_THRUCUT
 10
61.1820654414072
 20
10.37492002739915
 30
0.0
 42
1.0
  0
VERTEX
  5
2B7
  8
THREE_QUARTER_INCH_THRUCUT
 10
61.36591321057178
 20
10.19106997592117
 30
0.0
  0
VERTEX
  5
2B8
  8
THREE_QUARTER_INCH_THRUCUT
 10
62.05207062126102
 20
10.19106999857646
 30
0.0
  0
VERTEX
  5
2B9
  8
THREE_QUARTER_INCH_THRUCUT
 10
62.05207062126119
 20
9.591069749263504
 30
0.0
  0
VERTEX
  5
2BA
  8
THREE_QUARTER_INCH_THRUCUT
 10
57.92285802283997
 20
9.591069743325129
 30
0.0
 42
1.0
  0
VERTEX
  5
2BB
  8
THREE_QUARTER_INCH_THRUCUT
 10
57.66207062126516
 20
9.591069743325129
 30
0.0
  0
VERTEX
  5
2BC
  8
THREE_QUARTER_INCH_THRUCUT
 10
57.66207062126112
 20
9.091069743325129
 30
0.0
  0
VERTEX
  5
2BD
  8
THREE_QUARTER_INCH_THRUCUT
 10
55.66207062126112
 20
9.091069743325129
 30
0.0
  0
VERTEX
  5
2BE
  8
THREE_QUARTER_INCH_THRUCUT
 10
55.66207062125788
 20
9.591069743325129
 30
0.0
 42
1.0
  0
VERTEX
  5
2BF
  8
THREE_QUARTER_INCH_THRUCUT
 10
55.40128321968307
 20
9.591069743325129
 30
0.0
  0
VERTEX
  5
2C0
  8
THREE_QUARTER_INCH_THRUCUT
 10
51.31207062126101
 20
9.591069732283664
 30
0.0
  0
VERTEX
  5
2C1
  8
THREE_QUARTER_INCH_THRUCUT
 10
51.31207062126113
 20
10.19106999857646
 30
0.0
  0
VERTEX
  5
2C2
  8
THREE_QUARTER_INCH_THRUCUT
 10
51.99822803195038
 20
10.19106997592117
 30
0.0
 42
1.0
  0
VERTEX
  5
2C3
  8
THREE_QUARTER_INCH_THRUCUT
 10
52.18207580111495
 20
10.37492002739915
 30
0.0
  0
VERTEX
  5
2C4
  8
THREE_QUARTER_INCH_THRUCUT
 10
52.18207415430972
 20
10.50722447585459
 30
0.0
 42
1.0
  0
VERTEX
  5
2C5
  8
THREE_QUARTER_INCH_THRUCUT
 10
51.99822639121273
 20
10.69106995059357
 30
0.0
  0
VERTEX
  5
2C6
  8
THREE_QUARTER_INCH_THRUCUT
 10
51.31207062126113
 20
10.69106995058356
 30
0.0
  0
VERTEX
  5
2C7
  8
THREE_QUARTER_INCH_THRUCUT
 10
51.31207062126107
 20
11.1782468549459
 30
0.0
  0
VERTEX
  5
2C8
  8
THREE_QUARTER_INCH_THRUCUT
 10
51.05207062126102
 20
11.1782468549459
 30
0.0
  0
VERTEX
  5
2C9
  8
THREE_QUARTER_INCH_THRUCUT
 10
51.05207062126102
 20
10.69106995058356
 30
0.0
  0
VERTEX
  5
2CA
  8
THREE_QUARTER_INCH_THRUCUT
 10
50.36591485130943
 20
10.69106995059357
 30
0.0
 42
1.0
  0
VERTEX
  5
2CB
  8
THREE_QUARTER_INCH_THRUCUT
 10
50.18206708821243
 20
10.50722447585459
 30
0.0
  0
VERTEX
  5
2CC
  8
THREE_QUARTER_INCH_THRUCUT
 10
50.1820654414072
 20
10.37492002739915
 30
0.0
 42
1.0
  0
VERTEX
  5
2CD
  8
THREE_QUARTER_INCH_THRUCUT
 10
50.36591321057178
 20
10.19106997592117
 30
0.0
  0
VERTEX
  5
2CE
  8
THREE_QUARTER_INCH_THRUCUT
 10
51.05207062126102
 20
10.19106999857646
 30
0.0
  0
VERTEX
  5
2CF
  8
THREE_QUARTER_INCH_THRUCUT
 10
51.05207062126119
 20
9.591069749263532
 30
0.0
  0
VERTEX
  5
2D0
  8
THREE_QUARTER_INCH_THRUCUT
 10
40.31207062126064
 20
9.591069732283664
 30
0.0
  0
VERTEX
  5
2D1
  8
THREE_QUARTER_INCH_THRUCUT
 10
40.31207062126113
 20
10.19106999857646
 30
0.0
  0
VERTEX
  5
2D2
  8
THREE_QUARTER_INCH_THRUCUT
 10
40.99822803195038
 20
10.19106997592117
 30
0.0
 42
1.0
  0
VERTEX
  5
2D3
  8
THREE_QUARTER_INCH_THRUCUT
 10
41.18207580111495
 20
10.37492002739915
 30
0.0
  0
VERTEX
  5
2D4
  8
THREE_QUARTER_INCH_THRUCUT
 10
41.18207415430972
 20
10.50722447585459
 30
0.0
 42
1.0
  0
VERTEX
  5
2D5
  8
THREE_QUARTER_INCH_THRUCUT
 10
40.99822639121273
 20
10.69106995059357
 30
0.0
  0
VERTEX
  5
2D6
  8
THREE_QUARTER_INCH_THRUCUT
 10
40.31207062126113
 20
10.69106995058356
 30
0.0
  0
VERTEX
  5
2D7
  8
THREE_QUARTER_INCH_THRUCUT
 10
40.31207062126107
 20
11.1782468549459
 30
0.0
  0
VERTEX
  5
2D8
  8
THREE_QUARTER_INCH_THRUCUT
 10
40.05207062126102
 20
11.1782468549459
 30
0.0
  0
VERTEX
  5
2D9
  8
THREE_QUARTER_INCH_THRUCUT
 10
40.05207062126102
 20
10.69106995058356
 30
0.0
  0
VERTEX
  5
2DA
  8
THREE_QUARTER_INCH_THRUCUT
 10
39.36591485130941
 20
10.69106995059357
 30
0.0
 42
1.0
  0
VERTEX
  5
2DB
  8
THREE_QUARTER_INCH_THRUCUT
 10
39.18206708821242
 20
10.50722447585459
 30
0.0
  0
VERTEX
  5
2DC
  8
THREE_QUARTER_INCH_THRUCUT
 10
39.18206544140719
 20
10.37492002739915
 30
0.0
 42
1.0
  0
VERTEX
  5
2DD
  8
THREE_QUARTER_INCH_THRUCUT
 10
39.36591321057176
 20
10.19106997592117
 30
0.0
  0
VERTEX
  5
2DE
  8
THREE_QUARTER_INCH_THRUCUT
 10
40.05207062126102
 20
10.19106999857646
 30
0.0
  0
VERTEX
  5
2DF
  8
THREE_QUARTER_INCH_THRUCUT
 10
40.05207062126119
 20
9.591069749263532
 30
0.0
  0
VERTEX
  5
2E0
  8
THREE_QUARTER_INCH_THRUCUT
 10
35.92285802283999
 20
9.591069743325129
 30
0.0
 42
1.0
  0
VERTEX
  5
2E1
  8
THREE_QUARTER_INCH_THRUCUT
 10
35.66207062126517
 20
9.591069743325129
 30
0.0
  0
VERTEX
  5
2E2
  8
THREE_QUARTER_INCH_THRUCUT
 10
35.66207062126114
 20
9.091069743325129
 30
0.0
  0
VERTEX
  5
2E3
  8
THREE_QUARTER_INCH_THRUCUT
 10
33.66207062126114
 20
9.091069743325129
 30
0.0
  0
VERTEX
  5
2E4
  8
THREE_QUARTER_INCH_THRUCUT
 10
33.6620706212579
 20
9.591069743325129
 30
0.0
 42
1.0
  0
VERTEX
  5
2E5
  8
THREE_QUARTER_INCH_THRUCUT
 10
33.40128321968311
 20
9.591069743325129
 30
0.0
  0
VERTEX
  5
2E6
  8
THREE_QUARTER_INCH_THRUCUT
 10
29.312070621261
 20
9.591069732283664
 30
0.0
  0
VERTEX
  5
2E7
  8
THREE_QUARTER_INCH_THRUCUT
 10
29.31207062126112
 20
10.19106999857646
 30
0.0
  0
VERTEX
  5
2E8
  8
THREE_QUARTER_INCH_THRUCUT
 10
29.99822803195037
 20
10.19106997592117
 30
0.0
 42
1.0
  0
VERTEX
  5
2E9
  8
THREE_QUARTER_INCH_THRUCUT
 10
30.18207580111494
 20
10.37492002739915
 30
0.0
  0
VERTEX
  5
2EA
  8
THREE_QUARTER_INCH_THRUCUT
 10
30.18207415430971
 20
10.50722447585459
 30
0.0
 42
1.0
  0
VERTEX
  5
2EB
  8
THREE_QUARTER_INCH_THRUCUT
 10
29.99822639121271
 20
10.69106995059357
 30
0.0
  0
VERTEX
  5
2EC
  8
THREE_QUARTER_INCH_THRUCUT
 10
29.31207062126112
 20
10.69106995058356
 30
0.0
  0
VERTEX
  5
2ED
  8
THREE_QUARTER_INCH_THRUCUT
 10
29.31207062126106
 20
11.1782468549459
 30
0.0
  0
VERTEX
  5
2EE
  8
THREE_QUARTER_INCH_THRUCUT
 10
29.05207062126101
 20
11.1782468549459
 30
0.0
  0
VERTEX
  5
2EF
  8
THREE_QUARTER_INCH_THRUCUT
 10
29.05207062126101
 20
10.69106995058356
 30
0.0
  0
VERTEX
  5
2F0
  8
THREE_QUARTER_INCH_THRUCUT
 10
28.36591485130942
 20
10.69106995059357
 30
0.0
 42
1.0
  0
VERTEX
  5
2F1
  8
THREE_QUARTER_INCH_THRUCUT
 10
28.18206708821242
 20
10.50722447585459
 30
0.0
  0
VERTEX
  5
2F2
  8
THREE_QUARTER_INCH_THRUCUT
 10
28.18206544140719
 20
10.37492002739915
 30
0.0
 42
1.0
  0
VERTEX
  5
2F3
  8
THREE_QUARTER_INCH_THRUCUT
 10
28.36591321057177
 20
10.19106997592117
 30
0.0
  0
VERTEX
  5
2F4
  8
THREE_QUARTER_INCH_THRUCUT
 10
29.05207062126101
 20
10.19106999857646
 30
0.0
  0
VERTEX
  5
2F5
  8
THREE_QUARTER_INCH_THRUCUT
 10
29.05207062126118
 20
9.591069749263532
 30
0.0
  0
VERTEX
  5
2F6
  8
THREE_QUARTER_INCH_THRUCUT
 10
18.312070621261
 20
9.591069732283664
 30
0.0
  0
VERTEX
  5
2F7
  8
THREE_QUARTER_INCH_THRUCUT
 10
18.31207062126112
 20
10.19106999857646
 30
0.0
  0
VERTEX
  5
2F8
  8
THREE_QUARTER_INCH_THRUCUT
 10
18.99822803195037
 20
10.19106997592117
 30
0.0
 42
1.0
  0
VERTEX
  5
2F9
  8
THREE_QUARTER_INCH_THRUCUT
 10
19.18207580111494
 20
10.37492002739915
 30
0.0
  0
VERTEX
  5
2FA
  8
THREE_QUARTER_INCH_THRUCUT
 10
19.18207415430971
 20
10.50722447585459
 30
0.0
 42
1.0
  0
VERTEX
  5
2FB
  8
THREE_QUARTER_INCH_THRUCUT
 10
18.99822639121271
 20
10.69106995059357
 30
0.0
  0
VERTEX
  5
2FC
  8
THREE_QUARTER_INCH_THRUCUT
 10
18.31207062126112
 20
10.69106995058356
 30
0.0
  0
VERTEX
  5
2FD
  8
THREE_QUARTER_INCH_THRUCUT
 10
18.31207062126106
 20
11.1782468549459
 30
0.0
  0
VERTEX
  5
2FE
  8
THREE_QUARTER_INCH_THRUCUT
 10
18.05207062126101
 20
11.1782468549459
 30
0.0
  0
VERTEX
  5
2FF
  8
THREE_QUARTER_INCH_THRUCUT
 10
18.05207062126101
 20
10.69106995058356
 30
0.0
  0
VERTEX
  5
300
  8
THREE_QUARTER_INCH_THRUCUT
 10
17.36591485130942
 20
10.69106995059357
 30
0.0
 42
1.0
  0
VERTEX
  5
301
  8
THREE_QUARTER_INCH_THRUCUT
 10
17.18206708821242
 20
10.50722447585459
 30
0.0
  0
VERTEX
  5
302
  8
THREE_QUARTER_INCH_THRUCUT
 10
17.18206544140719
 20
10.37492002739915
 30
0.0
 42
1.0
  0
VERTEX
  5
303
  8
THREE_QUARTER_INCH_THRUCUT
 10
17.36591321057177
 20
10.19106997592117
 30
0.0
  0
VERTEX
  5
304
  8
THREE_QUARTER_INCH_THRUCUT
 10
18.05207062126101
 20
10.19106999857646
 30
0.0
  0
VERTEX
  5
305
  8
THREE_QUARTER_INCH_THRUCUT
 10
18.05207062126118
 20
9.591069749263532
 30
0.0
  0
VERTEX
  5
306
  8
THREE_QUARTER_INCH_THRUCUT
 10
13.92285802283272
 20
9.591069743325129
 30
0.0
 42
1.0
  0
VERTEX
  5
307
  8
THREE_QUARTER_INCH_THRUCUT
 10
13.6620706212579
 20
9.591069743325129
 30
0.0
  0
VERTEX
  5
308
  8
THREE_QUARTER_INCH_THRUCUT
 10
13.66207062126114
 20
9.091069743325129
 30
0.0
  0
VERTEX
  5
309
  8
THREE_QUARTER_INCH_THRUCUT
 10
11.66207062126114
 20
9.091069743325129
 30
0.0
  0
VERTEX
  5
30A
  8
THREE_QUARTER_INCH_THRUCUT
 10
11.66207062126517
 20
9.591069743325129
 30
0.0
 42
1.0
  0
VERTEX
  5
30B
  8
THREE_QUARTER_INCH_THRUCUT
 10
11.40128321969039
 20
9.591069743325129
 30
0.0
  0
VERTEX
  5
30C
  8
THREE_QUARTER_INCH_THRUCUT
 10
7.312070621261002
 20
9.591069732283664
 30
0.0
  0
VERTEX
  5
30D
  8
THREE_QUARTER_INCH_THRUCUT
 10
7.312070621261116
 20
10.19106999857646
 30
0.0
  0
VERTEX
  5
30E
  8
THREE_QUARTER_INCH_THRUCUT
 10
7.998228031950363
 20
10.19106997592117
 30
0.0
 42
1.0
  0
VERTEX
  5
30F
  8
THREE_QUARTER_INCH_THRUCUT
 10
8.182075801114935
 20
10.37492002739915
 30
0.0
  0
VERTEX
  5
310
  8
THREE_QUARTER_INCH_THRUCUT
 10
8.182074154309705
 20
10.50722447585459
 30
0.0
 42
1.0
  0
VERTEX
  5
311
  8
THREE_QUARTER_INCH_THRUCUT
 10
7.998226391212713
 20
10.69106995059357
 30
0.0
  0
VERTEX
  5
312
  8
THREE_QUARTER_INCH_THRUCUT
 10
7.312070621261116
 20
10.69106995058356
 30
0.0
  0
VERTEX
  5
313
  8
THREE_QUARTER_INCH_THRUCUT
 10
7.312070621261059
 20
11.1782468549459
 30
0.0
  0
VERTEX
  5
314
  8
THREE_QUARTER_INCH_THRUCUT
 10
7.052070621261011
 20
11.1782468549459
 30
0.0
  0
VERTEX
  5
315
  8
THREE_QUARTER_INCH_THRUCUT
 10
7.052070621261011
 20
10.69106995058356
 30
0.0
  0
VERTEX
  5
316
  8
THREE_QUARTER_INCH_THRUCUT
 10
6.365914851309414
 20
10.69106995059357
 30
0.0
 42
1.0
  0
VERTEX
  5
317
  8
THREE_QUARTER_INCH_THRUCUT
 10
6.182067088212422
 20
10.50722447585459
 30
0.0
  0
VERTEX
  5
318
  8
THREE_QUARTER_INCH_THRUCUT
 10
6.182065441407191
 20
10.37492002739915
 30
0.0
 42
1.0
  0
VERTEX
  5
319
  8
THREE_QUARTER_INCH_THRUCUT
 10
6.365913210571764
 20
10.19106997592117
 30
0.0
  0
VERTEX
  5
31A
  8
THREE_QUARTER_INCH_THRUCUT
 10
7.052070621261011
 20
10.19106999857646
 30
0.0
  0
SEQEND
  5
5EE
  8
THREE_QUARTER_INCH_THRUCUT
  0
POLYLINE
  5
7C
  8
LABELS
 66
     1
 10
0.0
 20
0.0
 30
0.0
  0
VERTEX
  5
31B
  8
LABELS
 10
64.14181105992189
 20
17.09869751430084
 30
0.0
  0
VERTEX
  5
31C
  8
LABELS
 10
64.17728209297321
 20
17.08974003586749
 30
0.0
  0
VERTEX
  5
31D
  8
LABELS
 10
64.21241714904349
 20
17.08038372019331
 30
0.0
  0
VERTEX
  5
31E
  8
LABELS
 10
64.24720910408023
 20
17.07063307959501
 30
0.0
  0
VERTEX
  5
31F
  8
LABELS
 10
64.281650834031
 20
17.06049262638931
 30
0.0
  0
VERTEX
  5
320
  8
LABELS
 10
64.31573521484336
 20
17.04996687289294
 30
0.0
  0
VERTEX
  5
321
  8
LABELS
 10
64.34945512246482
 20
17.03906033142263
 30
0.0
  0
VERTEX
  5
322
  8
LABELS
 10
64.38280343284296
 20
17.02777751429509
 30
0.0
  0
VERTEX
  5
323
  8
LABELS
 10
64.4157730219253
 20
17.01612293382704
 30
0.0
  0
VERTEX
  5
324
  8
LABELS
 10
64.44835676565941
 20
17.00410110233522
 30
0.0
  0
VERTEX
  5
325
  8
LABELS
 10
64.48054753999281
 20
16.99171653213633
 30
0.0
  0
VERTEX
  5
326
  8
LABELS
 10
64.51233822087309
 20
16.97897373554711
 30
0.0
  0
VERTEX
  5
327
  8
LABELS
 10
64.54372168424774
 20
16.96587722488428
 30
0.0
  0
VERTEX
  5
328
  8
LABELS
 10
64.57469080606432
 20
16.95243151246456
 30
0.0
  0
VERTEX
  5
329
  8
LABELS
 10
64.60523846227042
 20
16.93864111060467
 30
0.0
  0
VERTEX
  5
32A
  8
LABELS
 10
64.63535752881353
 20
16.92451053162134
 30
0.0
  0
VERTEX
  5
32B
  8
LABELS
 10
64.6650408816412
 20
16.91004428783128
 30
0.0
  0
VERTEX
  5
32C
  8
LABELS
 10
64.69428139670102
 20
16.89524689155122
 30
0.0
  0
VERTEX
  5
32D
  8
LABELS
 10
64.72307194994048
 20
16.88012285509789
 30
0.0
  0
VERTEX
  5
32E
  8
LABELS
 10
64.75140541730715
 20
16.864676690788
 30
0.0
  0
VERTEX
  5
32F
  8
LABELS
 10
64.7792746747486
 20
16.84891291093828
 30
0.0
  0
VERTEX
  5
330
  8
LABELS
 10
64.80667259821236
 20
16.83283602786545
 30
0.0
  0
VERTEX
  5
331
  8
LABELS
 10
64.83359206364594
 20
16.81645055388624
 30
0.0
  0
VERTEX
  5
332
  8
LABELS
 10
64.86002594699693
 20
16.79976100131737
 30
0.0
  0
VERTEX
  5
333
  8
LABELS
 10
64.88596712421284
 20
16.78277188247555
 30
0.0
  0
VERTEX
  5
334
  8
LABELS
 10
64.91140847124126
 20
16.76548770967751
 30
0.0
  0
VERTEX
  5
335
  8
LABELS
 10
64.9363428640297
 20
16.74791299523998
 30
0.0
  0
VERTEX
  5
336
  8
LABELS
 10
64.96076317852571
 20
16.73005225147968
 30
0.0
  0
VERTEX
  5
337
  8
LABELS
 10
64.98466229067685
 20
16.71190999071332
 30
0.0
  0
VERTEX
  5
338
  8
LABELS
 10
65.00803307643065
 20
16.69349072525764
 30
0.0
  0
VERTEX
  5
339
  8
LABELS
 10
65.03086841173467
 20
16.67479896742935
 30
0.0
  0
VERTEX
  5
33A
  8
LABELS
 10
65.05316117253643
 20
16.65583922954518
 30
0.0
  0
VERTEX
  5
33B
  8
LABELS
 10
65.0749042347835
 20
16.63661602392186
 30
0.0
  0
VERTEX
  5
33C
  8
LABELS
 10
65.09609047442342
 20
16.61713386287609
 30
0.0
  0
VERTEX
  5
33D
  8
LABELS
 10
65.11671276740375
 20
16.59739725872461
 30
0.0
  0
VERTEX
  5
33E
  8
LABELS
 10
65.136763989672
 20
16.57741072378414
 30
0.0
  0
VERTEX
  5
33F
  8
LABELS
 10
65.15623701717574
 20
16.5571787703714
 30
0.0
  0
VERTEX
  5
340
  8
LABELS
 10
65.1751247258625
 20
16.53670591080311
 30
0.0
  0
VERTEX
  5
341
  8
LABELS
 10
65.19341999167985
 20
16.51599665739601
 30
0.0
  0
VERTEX
  5
342
  8
LABELS
 10
65.21111569057531
 20
16.4950555224668
 30
0.0
  0
VERTEX
  5
343
  8
LABELS
 10
65.22820469849646
 20
16.47388701833221
 30
0.0
  0
VERTEX
  5
344
  8
LABELS
 10
65.2446798913908
 20
16.45249565730896
 30
0.0
  0
VERTEX
  5
345
  8
LABELS
 10
65.26053414520591
 20
16.43088595171378
 30
0.0
  0
VERTEX
  5
346
  8
LABELS
 10
65.27576033588932
 20
16.4090624138634
 30
0.0
  0
VERTEX
  5
347
  8
LABELS
 10
65.29035133938858
 20
16.38702955607452
 30
0.0
  0
VERTEX
  5
348
  8
LABELS
 10
65.30430003165122
 20
16.36479189066388
 30
0.0
  0
VERTEX
  5
349
  8
LABELS
 10
65.31759928862482
 20
16.3423539299482
 30
0.0
  0
VERTEX
  5
34A
  8
LABELS
 10
65.3302419862569
 20
16.31972018624419
 30
0.0
  0
VERTEX
  5
34B
  8
LABELS
 10
65.342221000495
 20
16.2968951718686
 30
0.0
  0
VERTEX
  5
34C
  8
LABELS
 10
65.3535292072867
 20
16.27388339913812
 30
0.0
  0
VERTEX
  5
34D
  8
LABELS
 10
65.3641594825795
 20
16.2506893803695
 30
0.0
  0
VERTEX
  5
34E
  8
LABELS
 10
65.37410470232098
 20
16.22731762787944
 30
0.0
  0
VERTEX
  5
34F
  8
LABELS
 10
65.38335774245864
 20
16.20377265398468
 30
0.0
  0
VERTEX
  5
350
  8
LABELS
 10
65.39191147894007
 20
16.18005897100194
 30
0.0
  0
VERTEX
  5
351
  8
LABELS
 10
65.39975878771281
 20
16.15618109124793
 30
0.0
  0
VERTEX
  5
352
  8
LABELS
 10
65.40689254472441
 20
16.13214352703939
 30
0.0
  0
VERTEX
  5
353
  8
LABELS
 10
65.41330562592239
 20
16.10795079069303
 30
0.0
  0
VERTEX
  5
354
  8
LABELS
 10
65.41899090725431
 20
16.08360739452558
 30
0.0
  0
VERTEX
  5
355
  8
LABELS
 10
65.42394126466772
 20
16.05911785085375
 30
0.0
  0
VERTEX
  5
356
  8
LABELS
 10
65.42814957411017
 20
16.03448667199428
 30
0.0
  0
VERTEX
  5
357
  8
LABELS
 10
65.43160871152918
 20
16.00971837026389
 30
0.0
  0
VERTEX
  5
358
  8
LABELS
 10
65.43431155287232
 20
15.98481745797929
 30
0.0
  0
VERTEX
  5
359
  8
LABELS
 10
65.43625097408712
 20
15.95978844745721
 30
0.0
  0
VERTEX
  5
35A
  8
LABELS
 10
65.43741985112112
 20
15.93463585101438
 30
0.0
  0
VERTEX
  5
35B
  8
LABELS
 10
65.4378110599219
 20
15.90936418096751
 30
0.0
  0
VERTEX
  5
35C
  8
LABELS
 10
65.43764350180635
 20
15.89075237831625
 30
0.0
  0
VERTEX
  5
35D
  8
LABELS
 10
65.43714216787282
 20
15.87219713345401
 30
0.0
  0
VERTEX
  5
35E
  8
LABELS
 10
65.43630906874094
 20
15.85369986009771
 30
0.0
  0
VERTEX
  5
35F
  8
LABELS
 10
65.4351462150303
 20
15.83526197196429
 30
0.0
  0
VERTEX
  5
360
  8
LABELS
 10
65.43365561736056
 20
15.81688488277066
 30
0.0
  0
VERTEX
  5
361
  8
LABELS
 10
65.43183928635136
 20
15.79857000623377
 30
0.0
  0
VERTEX
  5
362
  8
LABELS
 10
65.42969923262233
 20
15.78031875607054
 30
0.0
  0
VERTEX
  5
363
  8
LABELS
 10
65.42723746679309
 20
15.76213254599789
 30
0.0
  0
VERTEX
  5
364
  8
LABELS
 10
65.42445599948329
 20
15.74401278973276
 30
0.0
  0
VERTEX
  5
365
  8
LABELS
 10
65.42135684131253
 20
15.72596090099208
 30
0.0
  0
VERTEX
  5
366
  8
LABELS
 10
65.41794200290046
 20
15.70797829349277
 30
0.0
  0
VERTEX
  5
367
  8
LABELS
 10
65.41421349486674
 20
15.69006638095177
 30
0.0
  0
VERTEX
  5
368
  8
LABELS
 10
65.41017332783096
 20
15.67222657708599
 30
0.0
  0
VERTEX
  5
369
  8
LABELS
 10
65.40582351241278
 20
15.65446029561237
 30
0.0
  0
VERTEX
  5
36A
  8
LABELS
 10
65.4011660592318
 20
15.63676895024785
 30
0.0
  0
VERTEX
  5
36B
  8
LABELS
 10
65.3962029789077
 20
15.61915395470934
 30
0.0
  0
VERTEX
  5
36C
  8
LABELS
 10
65.39093628206005
 20
15.60161672271377
 30
0.0
  0
VERTEX
  5
36D
  8
LABELS
 10
65.38536797930854
 20
15.58415866797808
 30
0.0
  0
VERTEX
  5
36E
  8
LABELS
 10
65.37950008127277
 20
15.5667812042192
 30
0.0
  0
VERTEX
  5
36F
  8
LABELS
 10
65.37333459857237
 20
15.54948574515404
 30
0.0
  0
VERTEX
  5
370
  8
LABELS
 10
65.36687354182699
 20
15.53227370449954
 30
0.0
  0
VERTEX
  5
371
  8
LABELS
 10
65.36011892165624
 20
15.51514649597264
 30
0.0
  0
VERTEX
  5
372
  8
LABELS
 10
65.35307274867978
 20
15.49810553329025
 30
0.0
  0
VERTEX
  5
373
  8
LABELS
 10
65.34573703351721
 20
15.48115223016931
 30
0.0
  0
VERTEX
  5
374
  8
LABELS
 10
65.33020501911233
 20
15.44751425747948
 30
0.0
  0
VERTEX
  5
375
  8
LABELS
 10
65.31353896339866
 20
15.41424388763858
 30
0.0
  0
VERTEX
  5
376
  8
LABELS
 10
65.29575495133327
 20
15.38135243038204
 30
0.0
  0
VERTEX
  5
377
  8
LABELS
 10
65.27686906787318
 20
15.3488511954453
 30
0.0
  0
VERTEX
  5
378
  8
LABELS
 10
65.25689739797548
 20
15.31675149256376
 30
0.0
  0
VERTEX
  5
379
  8
LABELS
 10
65.23585602659719
 20
15.28506463147288
 30
0.0
  0
VERTEX
  5
37A
  8
LABELS
 10
65.2137610386954
 20
15.25380192190807
 30
0.0
  0
VERTEX
  5
37B
  8
LABELS
 10
65.19062851922712
 20
15.22297467360477
 30
0.0
  0
VERTEX
  5
37C
  8
LABELS
 10
65.16647455314944
 20
15.1925941962984
 30
0.0
  0
VERTEX
  5
37D
  8
LABELS
 10
65.14131522541942
 20
15.1626717997244
 30
0.0
  0
VERTEX
  5
37E
  8
LABELS
 10
65.11516662099409
 20
15.13321879361819
 30
0.0
  0
VERTEX
  5
37F
  8
LABELS
 10
65.08804482483052
 20
15.1042464877152
 30
0.0
  0
VERTEX
  5
380
  8
LABELS
 10
65.05996592188578
 20
15.07576619175087
 30
0.0
  0
VERTEX
  5
381
  8
LABELS
 10
65.0309459971169
 20
15.04778921546062
 30
0.0
  0
VERTEX
  5
382
  8
LABELS
 10
65.00100113548093
 20
15.02032686857988
 30
0.0
  0
VERTEX
  5
383
  8
LABELS
 10
64.97014742193495
 20
14.99339046084408
 30
0.0
  0
VERTEX
  5
384
  8
LABELS
 10
64.93840094143602
 20
14.96699130198865
 30
0.0
  0
VERTEX
  5
385
  8
LABELS
 10
64.90577777894116
 20
14.94114070174902
 30
0.0
  0
VERTEX
  5
386
  8
LABELS
 10
64.87229401940745
 20
14.91584996986062
 30
0.0
  0
VERTEX
  5
387
  8
LABELS
 10
64.83796574779194
 20
14.89113041605887
 30
0.0
  0
VERTEX
  5
388
  8
LABELS
 10
64.80280904905169
 20
14.86699335007922
 30
0.0
  0
VERTEX
  5
389
  8
LABELS
 10
64.76684000814375
 20
14.84345008165708
 30
0.0
  0
VERTEX
  5
38A
  8
LABELS
 10
64.73007471002516
 20
14.82051192052788
 30
0.0
  0
VERTEX
  5
38B
  8
LABELS
 10
64.692529239653
 20
14.79819017642706
 30
0.0
  0
VERTEX
  5
38C
  8
LABELS
 10
64.6542196819843
 20
14.77649615909005
 30
0.0
  0
VERTEX
  5
38D
  8
LABELS
 10
64.61516212197613
 20
14.75544117825227
 30
0.0
  0
VERTEX
  5
38E
  8
LABELS
 10
64.57537264458556
 20
14.73503654364915
 30
0.0
  0
VERTEX
  5
38F
  8
LABELS
 10
64.53486733476961
 20
14.71529356501613
 30
0.0
  0
VERTEX
  5
390
  8
LABELS
 10
64.49366227748536
 20
14.69622355208862
 30
0.0
  0
VERTEX
  5
391
  8
LABELS
 10
64.45177355768988
 20
14.67783781460207
 30
0.0
  0
VERTEX
  5
392
  8
LABELS
 10
64.40921726034017
 20
14.6601476622919
 30
0.0
  0
VERTEX
  5
393
  8
LABELS
 10
64.36600947039335
 20
14.64316440489353
 30
0.0
  0
VERTEX
  5
394
  8
LABELS
 10
64.32216627280643
 20
14.62689935214241
 30
0.0
  0
VERTEX
  5
395
  8
LABELS
 10
64.27770375253648
 20
14.61136381377396
 30
0.0
  0
VERTEX
  5
396
  8
LABELS
 10
64.23263799454057
 20
14.5965690995236
 30
0.0
  0
VERTEX
  5
397
  8
LABELS
 10
64.18698508377571
 20
14.58252651912677
 30
0.0
  0
VERTEX
  5
398
  8
LABELS
 10
64.14076110519899
 20
14.5692473823189
 30
0.0
  0
VERTEX
  5
399
  8
LABELS
 10
64.09398214376746
 20
14.55674299883541
 30
0.0
  0
VERTEX
  5
39A
  8
LABELS
 10
64.04666428443818
 20
14.54502467841174
 30
0.0
  0
VERTEX
  5
39B
  8
LABELS
 10
63.99882361216821
 20
14.53410373078331
 30
0.0
  0
VERTEX
  5
39C
  8
LABELS
 10
63.95047621191459
 20
14.52399146568555
 30
0.0
  0
VERTEX
  5
39D
  8
LABELS
 10
63.90163816863438
 20
14.5146991928539
 30
0.0
  0
VERTEX
  5
39E
  8
LABELS
 10
63.85232556728464
 20
14.50623822202378
 30
0.0
  0
VERTEX
  5
39F
  8
LABELS
 10
63.80255449282241
 20
14.49861986293062
 30
0.0
  0
VERTEX
  5
3A0
  8
LABELS
 10
63.75234103020475
 20
14.49185542530986
 30
0.0
  0
VERTEX
  5
3A1
  8
LABELS
 10
63.70170126438873
 20
14.48595621889691
 30
0.0
  0
VERTEX
  5
3A2
  8
LABELS
 10
63.65065128033139
 20
14.48093355342722
 30
0.0
  0
VERTEX
  5
3A3
  8
LABELS
 10
63.59920716298979
 20
14.4767987386362
 30
0.0
  0
VERTEX
  5
3A4
  8
LABELS
 10
63.54738499732099
 20
14.47356308425929
 30
0.0
  0
VERTEX
  5
3A5
  8
LABELS
 10
63.49520086828203
 20
14.47123790003192
 30
0.0
  0
VERTEX
  5
3A6
  8
LABELS
 10
63.44267086082998
 20
14.46983449568951
 30
0.0
  0
VERTEX
  5
3A7
  8
LABELS
 10
63.3898110599219
 20
14.46936418096751
 30
0.0
  0
VERTEX
  5
3A8
  8
LABELS
 10
63.33695125901381
 20
14.46983449568951
 30
0.0
  0
VERTEX
  5
3A9
  8
LABELS
 10
63.28442125156176
 20
14.47123790003192
 30
0.0
  0
VERTEX
  5
3AA
  8
LABELS
 10
63.2322371225228
 20
14.47356308425929
 30
0.0
  0
VERTEX
  5
3AB
  8
LABELS
 10
63.180414956854
 20
14.4767987386362
 30
0.0
  0
VERTEX
  5
3AC
  8
LABELS
 10
63.12897083951241
 20
14.48093355342722
 30
0.0
  0
VERTEX
  5
3AD
  8
LABELS
 10
63.07792085545506
 20
14.48595621889691
 30
0.0
  0
VERTEX
  5
3AE
  8
LABELS
 10
63.02728108963904
 20
14.49185542530986
 30
0.0
  0
VERTEX
  5
3AF
  8
LABELS
 10
62.97706762702138
 20
14.49861986293062
 30
0.0
  0
VERTEX
  5
3B0
  8
LABELS
 10
62.92729655255915
 20
14.50623822202378
 30
0.0
  0
VERTEX
  5
3B1
  8
LABELS
 10
62.8779839512094
 20
14.5146991928539
 30
0.0
  0
VERTEX
  5
3B2
  8
LABELS
 10
62.82914590792919
 20
14.52399146568555
 30
0.0
  0
VERTEX
  5
3B3
  8
LABELS
 10
62.78079850767557
 20
14.53410373078331
 30
0.0
  0
VERTEX
  5
3B4
  8
LABELS
 10
62.73295783540559
 20
14.54502467841174
 30
0.0
  0
VERTEX
  5
3B5
  8
LABELS
 10
62.68563997607632
 20
14.55674299883541
 30
0.0
  0
VERTEX
  5
3B6
  8
LABELS
 10
62.6388610146448
 20
14.5692473823189
 30
0.0
  0
VERTEX
  5
3B7
  8
LABELS
 10
62.59263703606808
 20
14.58252651912677
 30
0.0
  0
VERTEX
  5
3B8
  8
LABELS
 10
62.54698412530324
 20
14.5965690995236
 30
0.0
  0
VERTEX
  5
3B9
  8
LABELS
 10
62.50191836730731
 20
14.61136381377396
 30
0.0
  0
VERTEX
  5
3BA
  8
LABELS
 10
62.45745584703737
 20
14.62689935214241
 30
0.0
  0
VERTEX
  5
3BB
  8
LABELS
 10
62.41361264945044
 20
14.64316440489353
 30
0.0
  0
VERTEX
  5
3BC
  8
LABELS
 10
62.37040485950361
 20
14.6601476622919
 30
0.0
  0
VERTEX
  5
3BD
  8
LABELS
 10
62.32784856215392
 20
14.67783781460207
 30
0.0
  0
VERTEX
  5
3BE
  8
LABELS
 10
62.28595984235842
 20
14.69622355208862
 30
0.0
  0
VERTEX
  5
3BF
  8
LABELS
 10
62.24475478507417
 20
14.71529356501613
 30
0.0
  0
VERTEX
  5
3C0
  8
LABELS
 10
62.20424947525824
 20
14.73503654364915
 30
0.0
  0
VERTEX
  5
3C1
  8
LABELS
 10
62.16445999786765
 20
14.75544117825227
 30
0.0
  0
VERTEX
  5
3C2
  8
LABELS
 10
62.12540243785948
 20
14.77649615909005
 30
0.0
  0
VERTEX
  5
3C3
  8
LABELS
 10
62.0870928801908
 20
14.79819017642706
 30
0.0
  0
VERTEX
  5
3C4
  8
LABELS
 10
62.04954740981863
 20
14.82051192052788
 30
0.0
  0
VERTEX
  5
3C5
  8
LABELS
 10
62.01278211170004
 20
14.84345008165708
 30
0.0
  0
VERTEX
  5
3C6
  8
LABELS
 10
61.97681307079209
 20
14.86699335007922
 30
0.0
  0
VERTEX
  5
3C7
  8
LABELS
 10
61.94165637205184
 20
14.89113041605888
 30
0.0
  0
VERTEX
  5
3C8
  8
LABELS
 10
61.90732810043633
 20
14.91584996986062
 30
0.0
  0
VERTEX
  5
3C9
  8
LABELS
 10
61.87384434090262
 20
14.94114070174902
 30
0.0
  0
VERTEX
  5
3CA
  8
LABELS
 10
61.84122117840776
 20
14.96699130198865
 30
0.0
  0
VERTEX
  5
3CB
  8
LABELS
 10
61.80947469790883
 20
14.99339046084408
 30
0.0
  0
VERTEX
  5
3CC
  8
LABELS
 10
61.77862098436285
 20
15.02032686857988
 30
0.0
  0
VERTEX
  5
3CD
  8
LABELS
 10
61.74867612272688
 20
15.04778921546062
 30
0.0
  0
VERTEX
  5
3CE
  8
LABELS
 10
61.719656197958
 20
15.07576619175087
 30
0.0
  0
VERTEX
  5
3CF
  8
LABELS
 10
61.69157729501326
 20
15.1042464877152
 30
0.0
  0
VERTEX
  5
3D0
  8
LABELS
 10
61.6644554988497
 20
15.13321879361819
 30
0.0
  0
VERTEX
  5
3D1
  8
LABELS
 10
61.63830689442437
 20
15.1626717997244
 30
0.0
  0
VERTEX
  5
3D2
  8
LABELS
 10
61.61314756669436
 20
15.1925941962984
 30
0.0
  0
VERTEX
  5
3D3
  8
LABELS
 10
61.58899360061669
 20
15.22297467360477
 30
0.0
  0
VERTEX
  5
3D4
  8
LABELS
 10
61.56586108114843
 20
15.25380192190807
 30
0.0
  0
VERTEX
  5
3D5
  8
LABELS
 10
61.54376609324662
 20
15.28506463147288
 30
0.0
  0
VERTEX
  5
3D6
  8
LABELS
 10
61.52272472186834
 20
15.31675149256376
 30
0.0
  0
VERTEX
  5
3D7
  8
LABELS
 10
61.50275305197062
 20
15.3488511954453
 30
0.0
  0
VERTEX
  5
3D8
  8
LABELS
 10
61.48386716851054
 20
15.38135243038205
 30
0.0
  0
VERTEX
  5
3D9
  8
LABELS
 10
61.46608315644513
 20
15.41424388763859
 30
0.0
  0
VERTEX
  5
3DA
  8
LABELS
 10
61.44941710073147
 20
15.44751425747948
 30
0.0
  0
VERTEX
  5
3DB
  8
LABELS
 10
61.43388508632658
 20
15.48115223016931
 30
0.0
  0
VERTEX
  5
3DC
  8
LABELS
 10
61.42654937116402
 20
15.49810553329025
 30
0.0
  0
VERTEX
  5
3DD
  8
LABELS
 10
61.41950319818756
 20
15.51514649597264
 30
0.0
  0
VERTEX
  5
3DE
  8
LABELS
 10
61.41274857801682
 20
15.53227370449954
 30
0.0
  0
VERTEX
  5
3DF
  8
LABELS
 10
61.40628752127142
 20
15.54948574515404
 30
0.0
  0
VERTEX
  5
3E0
  8
LABELS
 10
61.40012203857103
 20
15.5667812042192
 30
0.0
  0
VERTEX
  5
3E1
  8
LABELS
 10
61.39425414053526
 20
15.58415866797808
 30
0.0
  0
VERTEX
  5
3E2
  8
LABELS
 10
61.38868583778374
 20
15.60161672271377
 30
0.0
  0
VERTEX
  5
3E3
  8
LABELS
 10
61.38341914093611
 20
15.61915395470934
 30
0.0
  0
VERTEX
  5
3E4
  8
LABELS
 10
61.37845606061198
 20
15.63676895024785
 30
0.0
  0
VERTEX
  5
3E5
  8
LABELS
 10
61.37379860743101
 20
15.65446029561237
 30
0.0
  0
VERTEX
  5
3E6
  8
LABELS
 10
61.36944879201283
 20
15.67222657708599
 30
0.0
  0
VERTEX
  5
3E7
  8
LABELS
 10
61.36540862497705
 20
15.69006638095177
 30
0.0
  0
VERTEX
  5
3E8
  8
LABELS
 10
61.36168011694332
 20
15.70797829349277
 30
0.0
  0
VERTEX
  5
3E9
  8
LABELS
 10
61.35826527853126
 20
15.72596090099209
 30
0.0
  0
VERTEX
  5
3EA
  8
LABELS
 10
61.35516612036052
 20
15.74401278973277
 30
0.0
  0
VERTEX
  5
3EB
  8
LABELS
 10
61.35238465305071
 20
15.7621325459979
 30
0.0
  0
VERTEX
  5
3EC
  8
LABELS
 10
61.34992288722147
 20
15.78031875607054
 30
0.0
  0
VERTEX
  5
3ED
  8
LABELS
 10
61.34778283349244
 20
15.79857000623378
 30
0.0
  0
VERTEX
  5
3EE
  8
LABELS
 10
61.34596650248324
 20
15.81688488277067
 30
0.0
  0
VERTEX
  5
3EF
  8
LABELS
 10
61.34447590481351
 20
15.83526197196429
 30
0.0
  0
VERTEX
  5
3F0
  8
LABELS
 10
61.34331305110287
 20
15.85369986009771
 30
0.0
  0
VERTEX
  5
3F1
  8
LABELS
 10
61.34247995197097
 20
15.87219713345401
 30
0.0
  0
VERTEX
  5
3F2
  8
LABELS
 10
61.34197861803744
 20
15.89075237831625
 30
0.0
  0
VERTEX
  5
3F3
  8
LABELS
 10
61.34181105992189
 20
15.90936418096751
 30
0.0
  0
VERTEX
  5
3F4
  8
LABELS
 10
61.34216489207694
 20
15.93400037665864
 30
0.0
  0
VERTEX
  5
3F5
  8
LABELS
 10
61.34322227618298
 20
15.95852641225719
 30
0.0
  0
VERTEX
  5
3F6
  8
LABELS
 10
61.34497704370149
 20
15.9829383202986
 30
0.0
  0
VERTEX
  5
3F7
  8
LABELS
 10
61.34742302609387
 20
16.00723213331828
 30
0.0
  0
VERTEX
  5
3F8
  8
LABELS
 10
61.35055405482154
 20
16.03140388385165
 30
0.0
  0
VERTEX
  5
3F9
  8
LABELS
 10
61.35436396134595
 20
16.05544960443413
 30
0.0
  0
VERTEX
  5
3FA
  8
LABELS
 10
61.35884657712849
 20
16.07936532760114
 30
0.0
  0
VERTEX
  5
3FB
  8
LABELS
 10
61.36399573363062
 20
16.1031470858881
 30
0.0
  0
VERTEX
  5
3FC
  8
LABELS
 10
61.36980526231373
 20
16.12679091183043
 30
0.0
  0
VERTEX
  5
3FD
  8
LABELS
 10
61.37626899463928
 20
16.15029283796354
 30
0.0
  0
VERTEX
  5
3FE
  8
LABELS
 10
61.38338076206867
 20
16.17364889682286
 30
0.0
  0
VERTEX
  5
3FF
  8
LABELS
 10
61.39113439606334
 20
16.19685512094381
 30
0.0
  0
VERTEX
  5
400
  8
LABELS
 10
61.3995237280847
 20
16.2199075428618
 30
0.0
  0
VERTEX
  5
401
  8
LABELS
 10
61.40854258959418
 20
16.24280219511226
 30
0.0
  0
VERTEX
  5
402
  8
LABELS
 10
61.41818481205323
 20
16.26553511023061
 30
0.0
  0
VERTEX
  5
403
  8
LABELS
 10
61.42844422692323
 20
16.28810232075226
 30
0.0
  0
VERTEX
  5
404
  8
LABELS
 10
61.43931466566565
 20
16.31049985921263
 30
0.0
  0
VERTEX
  5
405
  8
LABELS
 10
61.45078995974188
 20
16.33272375814715
 30
0.0
  0
VERTEX
  5
406
  8
LABELS
 10
61.46286394061336
 20
16.35477005009124
 30
0.0
  0
VERTEX
  5
407
  8
LABELS
 10
61.47553043974153
 20
16.3766347675803
 30
0.0
  0
VERTEX
  5
408
  8
LABELS
 10
61.48878328858778
 20
16.39831394314977
 30
0.0
  0
VERTEX
  5
409
  8
LABELS
 10
61.50261631861357
 20
16.41980360933506
 30
0.0
  0
VERTEX
  5
40A
  8
LABELS
 10
61.51702336128029
 20
16.44109979867159
 30
0.0
  0
VERTEX
  5
40B
  8
LABELS
 10
61.53199824804941
 20
16.46219854369479
 30
0.0
  0
VERTEX
  5
40C
  8
LABELS
 10
61.54753481038233
 20
16.48309587694006
 30
0.0
  0
VERTEX
  5
40D
  8
LABELS
 10
61.56362687974046
 20
16.50378783094283
 30
0.0
  0
VERTEX
  5
40E
  8
LABELS
 10
61.58026828758524
 20
16.52427043823853
 30
0.0
  0
VERTEX
  5
40F
  8
LABELS
 10
61.5974528653781
 20
16.54453973136256
 30
0.0
  0
VERTEX
  5
410
  8
LABELS
 10
61.61517444458047
 20
16.56459174285035
 30
0.0
  0
VERTEX
  5
411
  8
LABELS
 10
61.63342685665376
 20
16.58442250523732
 30
0.0
  0
VERTEX
  5
412
  8
LABELS
 10
61.65220393305939
 20
16.60402805105889
 30
0.0
  0
VERTEX
  5
413
  8
LABELS
 10
61.67149950525881
 20
16.62340441285048
 30
0.0
  0
VERTEX
  5
414
  8
LABELS
 10
61.69130740471343
 20
16.6425476231475
 30
0.0
  0
VERTEX
  5
415
  8
LABELS
 10
61.71162146288466
 20
16.66145371448538
 30
0.0
  0
VERTEX
  5
416
  8
LABELS
 10
61.73243551123397
 20
16.68011871939954
 30
0.0
  0
VERTEX
  5
417
  8
LABELS
 10
61.75374338122274
 20
16.69853867042539
 30
0.0
  0
VERTEX
  5
418
  8
LABELS
 10
61.77553890431241
 20
16.71670960009835
 30
0.0
  0
VERTEX
  5
419
  8
LABELS
 10
61.79781591196441
 20
16.73462754095386
 30
0.0
  0
VERTEX
  5
41A
  8
LABELS
 10
61.82056823564017
 20
16.75228852552731
 30
0.0
  0
VERTEX
  5
41B
  8
LABELS
 10
61.8437897068011
 20
16.76968858635414
 30
0.0
  0
VERTEX
  5
41C
  8
LABELS
 10
61.86747415690863
 20
16.78682375596976
 30
0.0
  0
VERTEX
  5
41D
  8
LABELS
 10
61.89161541742419
 20
16.80369006690959
 30
0.0
  0
VERTEX
  5
41E
  8
LABELS
 10
61.9162073198092
 20
16.82028355170905
 30
0.0
  0
VERTEX
  5
41F
  8
LABELS
 10
61.94124369552509
 20
16.83660024290357
 30
0.0
  0
VERTEX
  5
420
  8
LABELS
 10
61.96671837603328
 20
16.85263617302856
 30
0.0
  0
VERTEX
  5
421
  8
LABELS
 10
61.9926251927952
 20
16.86838737461944
 30
0.0
  0
VERTEX
  5
422
  8
LABELS
 10
62.01895797727228
 20
16.88384988021163
 30
0.0
  0
VERTEX
  5
423
  8
LABELS
 10
62.04571056092593
 20
16.89901972234055
 30
0.0
  0
VERTEX
  5
424
  8
LABELS
 10
62.07287677521758
 20
16.91389293354162
 30
0.0
  0
VERTEX
  5
425
  8
LABELS
 10
62.10045045160867
 20
16.92846554635025
 30
0.0
  0
VERTEX
  5
426
  8
LABELS
 10
62.12842542156059
 20
16.94273359330188
 30
0.0
  0
VERTEX
  5
427
  8
LABELS
 10
62.15679551653481
 20
16.95669310693192
 30
0.0
  0
VERTEX
  5
428
  8
LABELS
 10
62.18555456799274
 20
16.97034011977577
 30
0.0
  0
VERTEX
  5
429
  8
LABELS
 10
62.21469640739578
 20
16.98367066436888
 30
0.0
  0
VERTEX
  5
42A
  8
LABELS
 10
62.24421486620538
 20
16.99668077324666
 30
0.0
  0
VERTEX
  5
42B
  8
LABELS
 10
62.27410377588297
 20
17.00936647894452
 30
0.0
  0
VERTEX
  5
42C
  8
LABELS
 10
62.30435696788996
 20
17.02172381399789
 30
0.0
  0
VERTEX
  5
42D
  8
LABELS
 10
62.33496827368777
 20
17.03374881094218
 30
0.0
  0
VERTEX
  5
42E
  8
LABELS
 10
62.36593152473784
 20
17.04543750231281
 30
0.0
  0
VERTEX
  5
42F
  8
LABELS
 10
62.39724055250159
 20
17.05678592064521
 30
0.0
  0
VERTEX
  5
430
  8
LABELS
 10
62.42888918844045
 20
17.06779009847479
 30
0.0
  0
VERTEX
  5
431
  8
LABELS
 10
62.46087126401584
 20
17.07844606833698
 30
0.0
  0
VERTEX
  5
432
  8
LABELS
 10
62.49318061068917
 20
17.08874986276719
 30
0.0
  0
VERTEX
  5
433
  8
LABELS
 10
62.52581105992189
 20
17.09869751430084
 30
0.0
  0
SEQEND
  5
5EF
  8
LABELS
  0
POLYLINE
  5
7E
  8
SCREW_LOCATION_RECESS
 66
     1
 10
0.0
 20
0.0
 30
0.0
 70
     1
  0
VERTEX
  5
434
  8
SCREW_LOCATION_RECESS
 10
67.21937975262901
 20
2.282601760870589
 30
0.0
 42
0.4142135623730951
  0
VERTEX
  5
435
  8
SCREW_LOCATION_RECESS
 10
67.34937975262903
 20
2.412601760870585
 30
0.0
 42
0.4142135623730951
  0
VERTEX
  5
436
  8
SCREW_LOCATION_RECESS
 10
67.21937975262901
 20
2.54260176087058
 30
0.0
 42
0.4142135623730951
  0
VERTEX
  5
437
  8
SCREW_LOCATION_RECESS
 10
67.08937975262901
 20
2.412601760870585
 30
0.0
 42
0.4142135623730951
  0
SEQEND
  5
5F0
  8
SCREW_LOCATION_RECESS
  0
POLYLINE
  5
7F
  8
SCREW_LOCATION_RECESS
 66
     1
 10
0.0
 20
0.0
 30
0.0
 70
     1
  0
VERTEX
  5
438
  8
SCREW_LOCATION_RECESS
 10
45.21937975262897
 20
2.282601760870589
 30
0.0
 42
0.4142135623730951
  0
VERTEX
  5
439
  8
SCREW_LOCATION_RECESS
 10
45.349379752629
 20
2.412601760870585
 30
0.0
 42
0.4142135623730951
  0
VERTEX
  5
43A
  8
SCREW_LOCATION_RECESS
 10
45.21937975262897
 20
2.54260176087058
 30
0.0
 42
0.4142135623730951
  0
VERTEX
  5
43B
  8
SCREW_LOCATION_RECESS
 10
45.08937975262898
 20
2.412601760870585
 30
0.0
 42
0.4142135623730951
  0
SEQEND
  5
5F1
  8
SCREW_LOCATION_RECESS
  0
POLYLINE
  5
80
  8
SCREW_LOCATION_RECESS
 66
     1
 10
0.0
 20
0.0
 30
0.0
 70
     1
  0
VERTEX
  5
43C
  8
SCREW_LOCATION_RECESS
 10
23.21937975262897
 20
2.282601760870675
 30
0.0
 42
0.4142135623730951
  0
VERTEX
  5
43D
  8
SCREW_LOCATION_RECESS
 10
23.34937975262897
 20
2.41260176087067
 30
0.0
 42
0.4142135623730951
  0
VERTEX
  5
43E
  8
SCREW_LOCATION_RECESS
 10
23.21937975262897
 20
2.542601760870665
 30
0.0
 42
0.4142135623730951
  0
VERTEX
  5
43F
  8
SCREW_LOCATION_RECESS
 10
23.08937975262898
 20
2.41260176087067
 30
0.0
 42
0.4142135623730951
  0
SEQEND
  5
5F2
  8
SCREW_LOCATION_RECESS
  0
POLYLINE
  5
81
  8
SCREW_LOCATION_RECESS
 66
     1
 10
0.0
 20
0.0
 30
0.0
 70
     1
  0
VERTEX
  5
440
  8
SCREW_LOCATION_RECESS
 10
1.969379752628974
 20
2.282601760870675
 30
0.0
 42
0.4142135623730951
  0
VERTEX
  5
441
  8
SCREW_LOCATION_RECESS
 10
2.09937975262897
 20
2.41260176087067
 30
0.0
 42
0.4142135623730951
  0
VERTEX
  5
442
  8
SCREW_LOCATION_RECESS
 10
1.969379752628974
 20
2.542601760870665
 30
0.0
 42
0.4142135623730951
  0
VERTEX
  5
443
  8
SCREW_LOCATION_RECESS
 10
1.839379752628979
 20
2.41260176087067
 30
0.0
 42
0.4142135623730951
  0
SEQEND
  5
5F3
  8
SCREW_LOCATION_RECESS
  0
POLYLINE
  5
82
  8
SCREW_LOCATION_RECESS
 66
     1
 10
0.0
 20
0.0
 30
0.0
 70
     1
  0
VERTEX
  5
444
  8
SCREW_LOCATION_RECESS
 10
67.21937975262901
 20
6.278376504224846
 30
0.0
 42
0.4142135623730951
  0
VERTEX
  5
445
  8
SCREW_LOCATION_RECESS
 10
67.34937975262903
 20
6.408376504224841
 30
0.0
 42
0.4142135623730951
  0
VERTEX
  5
446
  8
SCREW_LOCATION_RECESS
 10
67.21937975262901
 20
6.538376504224836
 30
0.0
 42
0.4142135623730951
  0
VERTEX
  5
447
  8
SCREW_LOCATION_RECESS
 10
67.08937975262901
 20
6.408376504224841
 30
0.0
 42
0.4142135623730951
  0
SEQEND
  5
5F4
  8
SCREW_LOCATION_RECESS
  0
POLYLINE
  5
83
  8
SCREW_LOCATION_RECESS
 66
     1
 10
0.0
 20
0.0
 30
0.0
 70
     1
  0
VERTEX
  5
448
  8
SCREW_LOCATION_RECESS
 10
45.21937975262897
 20
6.278376504224846
 30
0.0
 42
0.4142135623730951
  0
VERTEX
  5
449
  8
SCREW_LOCATION_RECESS
 10
45.349379752629
 20
6.408376504224841
 30
0.0
 42
0.4142135623730951
  0
VERTEX
  5
44A
  8
SCREW_LOCATION_RECESS
 10
45.21937975262897
 20
6.538376504224836
 30
0.0
 42
0.4142135623730951
  0
VERTEX
  5
44B
  8
SCREW_LOCATION_RECESS
 10
45.08937975262898
 20
6.408376504224841
 30
0.0
 42
0.4142135623730951
  0
SEQEND
  5
5F5
  8
SCREW_LOCATION_RECESS
  0
POLYLINE
  5
84
  8
SCREW_LOCATION_RECESS
 66
     1
 10
0.0
 20
0.0
 30
0.0
 70
     1
  0
VERTEX
  5
44C
  8
SCREW_LOCATION_RECESS
 10
23.21937975262897
 20
6.278376504224931
 30
0.0
 42
0.4142135623730951
  0
VERTEX
  5
44D
  8
SCREW_LOCATION_RECESS
 10
23.34937975262897
 20
6.408376504224926
 30
0.0
 42
0.4142135623730951
  0
VERTEX
  5
44E
  8
SCREW_LOCATION_RECESS
 10
23.21937975262897
 20
6.538376504224921
 30
0.0
 42
0.4142135623730951
  0
VERTEX
  5
44F
  8
SCREW_LOCATION_RECESS
 10
23.08937975262898
 20
6.408376504224926
 30
0.0
 42
0.4142135623730951
  0
SEQEND
  5
5F6
  8
SCREW_LOCATION_RECESS
  0
POLYLINE
  5
85
  8
SCREW_LOCATION_RECESS
 66
     1
 10
0.0
 20
0.0
 30
0.0
 70
     1
  0
VERTEX
  5
450
  8
SCREW_LOCATION_RECESS
 10
1.969379752628974
 20
6.278376504224931
 30
0.0
 42
0.4142135623730951
  0
VERTEX
  5
451
  8
SCREW_LOCATION_RECESS
 10
2.09937975262897
 20
6.408376504224926
 30
0.0
 42
0.4142135623730951
  0
VERTEX
  5
452
  8
SCREW_LOCATION_RECESS
 10
1.969379752628974
 20
6.538376504224921
 30
0.0
 42
0.4142135623730951
  0
VERTEX
  5
453
  8
SCREW_LOCATION_RECESS
 10
1.839379752628979
 20
6.408376504224926
 30
0.0
 42
0.4142135623730951
  0
SEQEND
  5
5F7
  8
SCREW_LOCATION_RECESS
  0
POLYLINE
  5
86
  8
SCREW_LOCATION_RECESS
 66
     1
 10
0.0
 20
0.0
 30
0.0
 70
     1
  0
VERTEX
  5
454
  8
SCREW_LOCATION_RECESS
 10
23.66207062071305
 20
20.46106974331567
 30
0.0
 42
-0.4142135623730951
  0
VERTEX
  5
455
  8
SCREW_LOCATION_RECESS
 10
23.53207062071307
 20
20.59106974331566
 30
0.0
 42
-0.4142135623730951
  0
VERTEX
  5
456
  8
SCREW_LOCATION_RECESS
 10
23.66207062071305
 20
20.72106974331569
 30
0.0
 42
-0.4142135623730951
  0
VERTEX
  5
457
  8
SCREW_LOCATION_RECESS
 10
23.79207062071304
 20
20.59106974331566
 30
0.0
 42
-0.4142135623730951
  0
SEQEND
  5
5F8
  8
SCREW_LOCATION_RECESS
  0
POLYLINE
  5
87
  8
SCREW_LOCATION_RECESS
 66
     1
 10
0.0
 20
0.0
 30
0.0
 70
     1
  0
VERTEX
  5
458
  8
SCREW_LOCATION_RECESS
 10
45.66207062071305
 20
20.46106974331567
 30
0.0
 42
-0.4142135623730951
  0
VERTEX
  5
459
  8
SCREW_LOCATION_RECESS
 10
45.53207062071307
 20
20.59106974331566
 30
0.0
 42
-0.4142135623730951
  0
VERTEX
  5
45A
  8
SCREW_LOCATION_RECESS
 10
45.66207062071305
 20
20.72106974331569
 30
0.0
 42
-0.4142135623730951
  0
VERTEX
  5
45B
  8
SCREW_LOCATION_RECESS
 10
45.79207062071306
 20
20.59106974331566
 30
0.0
 42
-0.4142135623730951
  0
SEQEND
  5
5F9
  8
SCREW_LOCATION_RECESS
  0
POLYLINE
  5
88
  8
SCREW_LOCATION_RECESS
 66
     1
 10
0.0
 20
0.0
 30
0.0
 70
     1
  0
VERTEX
  5
45C
  8
SCREW_LOCATION_RECESS
 10
51.18207062126105
 20
46.21106974113628
 30
0.0
 42
-0.4142135623730951
  0
VERTEX
  5
45D
  8
SCREW_LOCATION_RECESS
 10
51.05207062126101
 20
46.34106974113633
 30
0.0
 42
-0.4142135623730951
  0
VERTEX
  5
45E
  8
SCREW_LOCATION_RECESS
 10
51.18207062126105
 20
46.47106974113624
 30
0.0
 42
-0.4142135623730951
  0
VERTEX
  5
45F
  8
SCREW_LOCATION_RECESS
 10
51.31207062126106
 20
46.34106974113634
 30
0.0
 42
-0.4142135623730951
  0
SEQEND
  5
5FA
  8
SCREW_LOCATION_RECESS
  0
POLYLINE
  5
89
  8
SCREW_LOCATION_RECESS
 66
     1
 10
0.0
 20
0.0
 30
0.0
 70
     1
  0
VERTEX
  5
460
  8
SCREW_LOCATION_RECESS
 10
40.18207062126105
 20
46.21106974112293
 30
0.0
 42
-0.4142135623730951
  0
VERTEX
  5
461
  8
SCREW_LOCATION_RECESS
 10
40.05207062126101
 20
46.341069741123
 30
0.0
 42
-0.4142135623730951
  0
VERTEX
  5
462
  8
SCREW_LOCATION_RECESS
 10
40.18207062126105
 20
46.4710697411229
 30
0.0
 42
-0.4142135623730951
  0
VERTEX
  5
463
  8
SCREW_LOCATION_RECESS
 10
40.31207062126106
 20
46.341069741123
 30
0.0
 42
-0.4142135623730951
  0
SEQEND
  5
5FB
  8
SCREW_LOCATION_RECESS
  0
POLYLINE
  5
8A
  8
SCREW_LOCATION_RECESS
 66
     1
 10
0.0
 20
0.0
 30
0.0
 70
     1
  0
VERTEX
  5
464
  8
SCREW_LOCATION_RECESS
 10
7.182070621261035
 20
46.21106974114607
 30
0.0
 42
-0.4142135623730951
  0
VERTEX
  5
465
  8
SCREW_LOCATION_RECESS
 10
7.052070621261018
 20
46.34106974114612
 30
0.0
 42
-0.4142135623730951
  0
VERTEX
  5
466
  8
SCREW_LOCATION_RECESS
 10
7.182070621261035
 20
46.47106974114603
 30
0.0
 42
-0.4142135623730951
  0
VERTEX
  5
467
  8
SCREW_LOCATION_RECESS
 10
7.312070621261055
 20
46.34106974114612
 30
0.0
 42
-0.4142135623730951
  0
SEQEND
  5
5FC
  8
SCREW_LOCATION_RECESS
  0
POLYLINE
  5
8B
  8
SCREW_LOCATION_RECESS
 66
     1
 10
0.0
 20
0.0
 30
0.0
 70
     1
  0
VERTEX
  5
468
  8
SCREW_LOCATION_RECESS
 10
29.18207062126102
 20
46.4710697411306
 30
0.0
 42
0.4142135623730951
  0
VERTEX
  5
469
  8
SCREW_LOCATION_RECESS
 10
29.05207062126101
 20
46.3410697411307
 30
0.0
 42
0.4142135623730951
  0
VERTEX
  5
46A
  8
SCREW_LOCATION_RECESS
 10
29.18207062126102
 20
46.21106974113065
 30
0.0
 42
0.4142135623730951
  0
VERTEX
  5
46B
  8
SCREW_LOCATION_RECESS
 10
29.31207062126107
 20
46.3410697411307
 30
0.0
 42
0.4142135623730951
  0
SEQEND
  5
5FD
  8
SCREW_LOCATION_RECESS
  0
POLYLINE
  5
8C
  8
SCREW_LOCATION_RECESS
 66
     1
 10
0.0
 20
0.0
 30
0.0
 70
     1
  0
VERTEX
  5
46C
  8
SCREW_LOCATION_RECESS
 10
18.18207062126103
 20
46.47106974113832
 30
0.0
 42
0.4142135623730951
  0
VERTEX
  5
46D
  8
SCREW_LOCATION_RECESS
 10
18.05207062126102
 20
46.3410697411384
 30
0.0
 42
0.4142135623730951
  0
VERTEX
  5
46E
  8
SCREW_LOCATION_RECESS
 10
18.18207062126103
 20
46.21106974113837
 30
0.0
 42
0.4142135623730951
  0
VERTEX
  5
46F
  8
SCREW_LOCATION_RECESS
 10
18.31207062126107
 20
46.34106974113842
 30
0.0
 42
0.4142135623730951
  0
SEQEND
  5
5FE
  8
SCREW_LOCATION_RECESS
  0
POLYLINE
  5
8D
  8
SCREW_LOCATION_RECESS
 66
     1
 10
0.0
 20
0.0
 30
0.0
 70
     1
  0
VERTEX
  5
470
  8
SCREW_LOCATION_RECESS
 10
65.94332062069736
 20
46.47106974113901
 30
0.0
 42
0.4142135623730951
  0
VERTEX
  5
471
  8
SCREW_LOCATION_RECESS
 10
65.81332062069734
 20
46.3410697411391
 30
0.0
 42
0.4142135623730951
  0
VERTEX
  5
472
  8
SCREW_LOCATION_RECESS
 10
65.94332062069736
 20
46.21106974113905
 30
0.0
 42
0.4142135623730951
  0
VERTEX
  5
473
  8
SCREW_LOCATION_RECESS
 10
66.07332062069736
 20
46.3410697411391
 30
0.0
 42
0.4142135623730951
  0
SEQEND
  5
5FF
  8
SCREW_LOCATION_RECESS
  0
POLYLINE
  5
8E
  8
SCREW_LOCATION_RECESS
 66
     1
 10
0.0
 20
0.0
 30
0.0
 70
     1
  0
VERTEX
  5
474
  8
SCREW_LOCATION_RECESS
 10
62.18207062125092
 20
46.47106974110749
 30
0.0
 42
0.4142135623730951
  0
VERTEX
  5
475
  8
SCREW_LOCATION_RECESS
 10
62.05207062126102
 20
46.34106974109746
 30
0.0
 42
0.4142135623730951
  0
VERTEX
  5
476
  8
SCREW_LOCATION_RECESS
 10
62.18207062127117
 20
46.21106974110753
 30
0.0
 42
0.4142135623730951
  0
VERTEX
  5
477
  8
SCREW_LOCATION_RECESS
 10
62.31207062126104
 20
46.3410697411177
 30
0.0
 42
0.4142135623730951
  0
SEQEND
  5
600
  8
SCREW_LOCATION_RECESS
  0
POLYLINE
  5
8F
  8
SCREW_LOCATION_RECESS
 66
     1
 10
0.0
 20
0.0
 30
0.0
 70
     1
  0
VERTEX
  5
478
  8
SCREW_LOCATION_RECESS
 10
65.91207061975038
 20
46.47106971584321
 30
0.0
 42
0.4142135623730951
  0
VERTEX
  5
479
  8
SCREW_LOCATION_RECESS
 10
65.78207061976046
 20
46.34106971583316
 30
0.0
 42
0.4142135623730951
  0
VERTEX
  5
47A
  8
SCREW_LOCATION_RECESS
 10
65.91207061977062
 20
46.21106971584324
 30
0.0
 42
0.4142135623730951
  0
VERTEX
  5
47B
  8
SCREW_LOCATION_RECESS
 10
66.0420706197605
 20
46.34106971585341
 30
0.0
 42
0.4142135623730951
  0
SEQEND
  5
601
  8
SCREW_LOCATION_RECESS
  0
POLYLINE
  5
90
  8
SCREW_LOCATION_RECESS
 66
     1
 10
0.0
 20
0.0
 30
0.0
 70
     1
  0
VERTEX
  5
47C
  8
SCREW_LOCATION_RECESS
 10
1.662070620694591
 20
36.61731974332664
 30
0.0
 42
-0.4142135623730951
  0
VERTEX
  5
47D
  8
SCREW_LOCATION_RECESS
 10
1.532070620694577
 20
36.74731974332669
 30
0.0
 42
-0.4142135623730951
  0
VERTEX
  5
47E
  8
SCREW_LOCATION_RECESS
 10
1.662070620694591
 20
36.8773197433266
 30
0.0
 42
-0.4142135623730951
  0
VERTEX
  5
47F
  8
SCREW_LOCATION_RECESS
 10
1.792070620694622
 20
36.74731974332669
 30
0.0
 42
-0.4142135623730951
  0
SEQEND
  5
602
  8
SCREW_LOCATION_RECESS
  0
POLYLINE
  5
91
  8
SCREW_LOCATION_RECESS
 66
     1
 10
0.0
 20
0.0
 30
0.0
 70
     1
  0
VERTEX
  5
480
  8
SCREW_LOCATION_RECESS
 10
1.662070620694836
 20
22.8048197417242
 30
0.0
 42
-0.4142135623730951
  0
VERTEX
  5
481
  8
SCREW_LOCATION_RECESS
 10
1.532070620694858
 20
22.93481974172422
 30
0.0
 42
-0.4142135623730951
  0
VERTEX
  5
482
  8
SCREW_LOCATION_RECESS
 10
1.662070620694836
 20
23.06481974172421
 30
0.0
 42
-0.4142135623730951
  0
VERTEX
  5
483
  8
SCREW_LOCATION_RECESS
 10
1.792070620694832
 20
22.93481974172422
 30
0.0
 42
-0.4142135623730951
  0
SEQEND
  5
603
  8
SCREW_LOCATION_RECESS
  0
POLYLINE
  5
93
  8
OPTIONAL_ATFAB_FURNITURE_C
 66
     1
 10
0.0
 20
0.0
 30
0.0
 70
     1
  0
VERTEX
  5
484
  8
OPTIONAL_ATFAB_FURNITURE_C
 10
75.28907712776805
 20
46.02815656104368
 30
0.0
 42
0.4142135623730951
  0
VERTEX
  5
485
  8
OPTIONAL_ATFAB_FURNITURE_C
 10
75.13362467945467
 20
45.87270411273034
 30
0.0
 42
-1.0
  0
VERTEX
  5
486
  8
OPTIONAL_ATFAB_FURNITURE_C
 10
74.8227197828279
 20
45.87270411273034
 30
0.0
  0
VERTEX
  5
487
  8
OPTIONAL_ATFAB_FURNITURE_C
 10
74.8227197828279
 20
46.76655569053229
 30
0.0
  0
VERTEX
  5
488
  8
OPTIONAL_ATFAB_FURNITURE_C
 10
68.99325297107602
 20
46.76655569053229
 30
0.0
  0
VERTEX
  5
489
  8
OPTIONAL_ATFAB_FURNITURE_C
 10
68.99325297107602
 20
29.27815525527656
 30
0.0
  0
VERTEX
  5
48A
  8
OPTIONAL_ATFAB_FURNITURE_C
 10
74.8227197828279
 20
29.27815525527656
 30
0.0
  0
VERTEX
  5
48B
  8
OPTIONAL_ATFAB_FURNITURE_C
 10
74.8227197828279
 20
30.1720068330785
 30
0.0
 42
-1.0
  0
VERTEX
  5
48C
  8
OPTIONAL_ATFAB_FURNITURE_C
 10
75.13362467945467
 20
30.1720068330785
 30
0.0
 42
0.4142135623730951
  0
VERTEX
  5
48D
  8
OPTIONAL_ATFAB_FURNITURE_C
 10
75.28907712776805
 20
30.01655438476513
 30
0.0
  0
VERTEX
  5
48E
  8
OPTIONAL_ATFAB_FURNITURE_C
 10
80.18582924963965
 20
30.01655438476513
 30
0.0
 42
0.4142135623730951
  0
VERTEX
  5
48F
  8
OPTIONAL_ATFAB_FURNITURE_C
 10
80.34128169795304
 20
30.1720068330785
 30
0.0
 42
-1.0
  0
VERTEX
  5
490
  8
OPTIONAL_ATFAB_FURNITURE_C
 10
80.65218659457982
 20
30.1720068330785
 30
0.0
  0
VERTEX
  5
491
  8
OPTIONAL_ATFAB_FURNITURE_C
 10
80.65218659457979
 20
29.27815525527656
 30
0.0
  0
VERTEX
  5
492
  8
OPTIONAL_ATFAB_FURNITURE_C
 10
86.4816534063317
 20
29.27815525527656
 30
0.0
  0
VERTEX
  5
493
  8
OPTIONAL_ATFAB_FURNITURE_C
 10
86.4816534063317
 20
35.10762206702847
 30
0.0
  0
VERTEX
  5
494
  8
OPTIONAL_ATFAB_FURNITURE_C
 10
85.58780182852975
 20
35.10762206702847
 30
0.0
 42
-1.0
  0
VERTEX
  5
495
  8
OPTIONAL_ATFAB_FURNITURE_C
 10
85.58780182852975
 20
35.41852696365523
 30
0.0
 42
0.4142135623730951
  0
VERTEX
  5
496
  8
OPTIONAL_ATFAB_FURNITURE_C
 10
85.74325427684312
 20
35.57397941196859
 30
0.0
  0
VERTEX
  5
497
  8
OPTIONAL_ATFAB_FURNITURE_C
 10
85.74325427684312
 20
40.47073153384016
 30
0.0
 42
0.4142135623730962
  0
VERTEX
  5
498
  8
OPTIONAL_ATFAB_FURNITURE_C
 10
85.58780182852975
 20
40.62618398215351
 30
0.0
 42
-1.0
  0
VERTEX
  5
499
  8
OPTIONAL_ATFAB_FURNITURE_C
 10
85.58780182852975
 20
40.93708887878032
 30
0.0
  0
VERTEX
  5
49A
  8
OPTIONAL_ATFAB_FURNITURE_C
 10
86.4816534063317
 20
40.93708887878032
 30
0.0
  0
VERTEX
  5
49B
  8
OPTIONAL_ATFAB_FURNITURE_C
 10
86.4816534063317
 20
46.76655569053229
 30
0.0
  0
VERTEX
  5
49C
  8
OPTIONAL_ATFAB_FURNITURE_C
 10
80.65218659457979
 20
46.76655569053229
 30
0.0
  0
VERTEX
  5
49D
  8
OPTIONAL_ATFAB_FURNITURE_C
 10
80.65218659457982
 20
45.87270411273034
 30
0.0
 42
-1.0
  0
VERTEX
  5
49E
  8
OPTIONAL_ATFAB_FURNITURE_C
 10
80.34128169795304
 20
45.87270411273034
 30
0.0
 42
0.414213562373095
  0
VERTEX
  5
49F
  8
OPTIONAL_ATFAB_FURNITURE_C
 10
80.18582924963965
 20
46.02815656104368
 30
0.0
  0
SEQEND
  5
604
  8
OPTIONAL_ATFAB_FURNITURE_C
  0
POLYLINE
  5
94
  8
OPTIONAL_ATFAB_FURNITURE_C
 66
     1
 10
0.0
 20
0.0
 30
0.0
 70
     1
  0
VERTEX
  5
4A0
  8
OPTIONAL_ATFAB_FURNITURE_C
 10
94.37264108408345
 20
29.24870898119593
 30
0.0
  0
VERTEX
  5
4A1
  8
OPTIONAL_ATFAB_FURNITURE_C
 10
91.60075906442873
 20
29.24870898119428
 30
0.0
  0
VERTEX
  5
4A2
  8
OPTIONAL_ATFAB_FURNITURE_C
 10
91.60075906442873
 20
28.35291950742788
 30
0.0
 42
-0.9999999999999998
  0
VERTEX
  5
4A3
  8
OPTIONAL_ATFAB_FURNITURE_C
 10
91.28918011706034
 20
28.35291950742788
 30
0.0
 42
0.4142135623730951
  0
VERTEX
  5
4A4
  8
OPTIONAL_ATFAB_FURNITURE_C
 10
91.13339064337615
 20
28.50870898111209
 30
0.0
  0
VERTEX
  5
4A5
  8
OPTIONAL_ATFAB_FURNITURE_C
 10
85.91841459206233
 20
28.50870898111209
 30
0.0
  0
VERTEX
  5
4A6
  8
OPTIONAL_ATFAB_FURNITURE_C
 10
85.91841459206395
 20
25.73682696145743
 30
0.0
  0
VERTEX
  5
4A7
  8
OPTIONAL_ATFAB_FURNITURE_C
 10
86.81420406583044
 20
25.73682696145743
 30
0.0
 42
-0.9999999999999998
  0
VERTEX
  5
4A8
  8
OPTIONAL_ATFAB_FURNITURE_C
 10
86.81420406583044
 20
25.42524801408899
 30
0.0
 42
0.4142135623730951
  0
VERTEX
  5
4A9
  8
OPTIONAL_ATFAB_FURNITURE_C
 10
86.65841459214624
 20
25.26945854040479
 30
0.0
  0
VERTEX
  5
4AA
  8
OPTIONAL_ATFAB_FURNITURE_C
 10
86.65841459214624
 20
20.05448248909101
 30
0.0
  0
VERTEX
  5
4AB
  8
OPTIONAL_ATFAB_FURNITURE_C
 10
89.43029661180083
 20
20.05448248909266
 30
0.0
  0
VERTEX
  5
4AC
  8
OPTIONAL_ATFAB_FURNITURE_C
 10
89.43029661180083
 20
20.95027196285913
 30
0.0
 42
-0.9999999999999998
  0
VERTEX
  5
4AD
  8
OPTIONAL_ATFAB_FURNITURE_C
 10
89.74187555916933
 20
20.95027196285913
 30
0.0
 42
0.4142135623730951
  0
VERTEX
  5
4AE
  8
OPTIONAL_ATFAB_FURNITURE_C
 10
89.89766503285355
 20
20.79448248917486
 30
0.0
  0
VERTEX
  5
4AF
  8
OPTIONAL_ATFAB_FURNITURE_C
 10
95.11264108416725
 20
20.79448248917486
 30
0.0
  0
VERTEX
  5
4B0
  8
OPTIONAL_ATFAB_FURNITURE_C
 10
95.11264108416574
 20
23.5663645088295
 30
0.0
  0
VERTEX
  5
4B1
  8
OPTIONAL_ATFAB_FURNITURE_C
 10
94.21685161039923
 20
23.5663645088295
 30
0.0
 42
-0.9999999999999998
  0
VERTEX
  5
4B2
  8
OPTIONAL_ATFAB_FURNITURE_C
 10
94.21685161039923
 20
23.87794345619789
 30
0.0
 42
0.4142135623730951
  0
VERTEX
  5
4B3
  8
OPTIONAL_ATFAB_FURNITURE_C
 10
94.37264108408345
 20
24.03373292988214
 30
0.0
  0
SEQEND
  5
605
  8
OPTIONAL_ATFAB_FURNITURE_C
  0
POLYLINE
  5
95
  8
OPTIONAL_ATFAB_FURNITURE_C
 66
     1
 10
0.0
 20
0.0
 30
0.0
 70
     1
  0
VERTEX
  5
4B4
  8
OPTIONAL_ATFAB_FURNITURE_C
 10
89.43029661180094
 20
23.56636450882957
 30
0.0
  0
VERTEX
  5
4B5
  8
OPTIONAL_ATFAB_FURNITURE_C
 10
91.60075906442873
 20
23.56636450882957
 30
0.0
  0
VERTEX
  5
4B6
  8
OPTIONAL_ATFAB_FURNITURE_C
 10
91.60075906442873
 20
25.73682696145743
 30
0.0
  0
VERTEX
  5
4B7
  8
OPTIONAL_ATFAB_FURNITURE_C
 10
89.43029661180094
 20
25.73682696145743
 30
0.0
  0
SEQEND
  5
606
  8
OPTIONAL_ATFAB_FURNITURE_C
  0
POLYLINE
  5
96
  8
OPTIONAL_ATFAB_FURNITURE_C
 66
     1
 10
0.0
 20
0.0
 30
0.0
  0
VERTEX
  5
4B8
  8
OPTIONAL_ATFAB_FURNITURE_C
 10
79.4866341731666
 20
15.3825776390947
 30
0.0
  0
VERTEX
  5
4B9
  8
OPTIONAL_ATFAB_FURNITURE_C
 10
88.23083439079446
 20
13.47243681485561
 30
0.0
  0
VERTEX
  5
4BA
  8
OPTIONAL_ATFAB_FURNITURE_C
 10
88.23083439079446
 20
15.06776756567162
 30
0.0
 42
0.4142135623731618
  0
VERTEX
  5
4BB
  8
OPTIONAL_ATFAB_FURNITURE_C
 10
88.07538194248109
 20
15.22322001398503
 30
0.0
 42
-1.0
  0
VERTEX
  5
4BC
  8
OPTIONAL_ATFAB_FURNITURE_C
 10
88.07538194248109
 20
15.53412491061181
 30
0.0
  0
VERTEX
  5
4BD
  8
OPTIONAL_ATFAB_FURNITURE_C
 10
89.12468596859648
 20
15.53412491061181
 30
0.0
 42
-1.0
  0
VERTEX
  5
4BE
  8
OPTIONAL_ATFAB_FURNITURE_C
 10
89.12468596859648
 20
15.223220013985
 30
0.0
 42
0.4142135623730951
  0
VERTEX
  5
4BF
  8
OPTIONAL_ATFAB_FURNITURE_C
 10
88.96923352028301
 20
15.06776756567162
 30
0.0
  0
VERTEX
  5
4C0
  8
OPTIONAL_ATFAB_FURNITURE_C
 10
88.96923352028301
 20
4.104483648370319
 30
0.0
 42
0.4142135623730618
  0
VERTEX
  5
4C1
  8
OPTIONAL_ATFAB_FURNITURE_C
 10
89.12468596859648
 20
3.94903120005695
 30
0.0
 42
-1.0
  0
VERTEX
  5
4C2
  8
OPTIONAL_ATFAB_FURNITURE_C
 10
89.12468596859648
 20
3.638126303430184
 30
0.0
  0
VERTEX
  5
4C3
  8
OPTIONAL_ATFAB_FURNITURE_C
 10
88.07538194248109
 20
3.638126303430184
 30
0.0
 42
-1.0
  0
VERTEX
  5
4C4
  8
OPTIONAL_ATFAB_FURNITURE_C
 10
88.07538194248109
 20
3.949031200056936
 30
0.0
 42
0.4142135623730951
  0
VERTEX
  5
4C5
  8
OPTIONAL_ATFAB_FURNITURE_C
 10
88.23083439079446
 20
4.104483648370319
 30
0.0
  0
VERTEX
  5
4C6
  8
OPTIONAL_ATFAB_FURNITURE_C
 10
88.23083439079446
 20
5.699814399186408
 30
0.0
  0
VERTEX
  5
4C7
  8
OPTIONAL_ATFAB_FURNITURE_C
 10
79.48663417316662
 20
3.789673574947244
 30
0.0
  0
SEQEND
  5
607
  8
OPTIONAL_ATFAB_FURNITURE_C
  0
POLYLINE
  5
97
  8
OPTIONAL_ATFAB_FURNITURE_C
 66
     1
 10
0.0
 20
0.0
 30
0.0
  0
VERTEX
  5
4C8
  8
OPTIONAL_ATFAB_FURNITURE_C
 10
79.48663417316662
 20
3.789673574947244
 30
0.0
  0
VERTEX
  5
4C9
  8
OPTIONAL_ATFAB_FURNITURE_C
 10
79.48663417316662
 20
1.580324518881639
 30
0.0
  0
VERTEX
  5
4CA
  8
OPTIONAL_ATFAB_FURNITURE_C
 10
83.87816583801973
 20
1.580324518881639
 30
0.0
 42
0.4142135623730784
  0
VERTEX
  5
4CB
  8
OPTIONAL_ATFAB_FURNITURE_C
 10
84.03361828633308
 20
1.735776967195051
 30
0.0
 42
-1.0
  0
VERTEX
  5
4CC
  8
OPTIONAL_ATFAB_FURNITURE_C
 10
84.34452318295988
 20
1.735776967195051
 30
0.0
  0
VERTEX
  5
4CD
  8
OPTIONAL_ATFAB_FURNITURE_C
 10
84.34452318295988
 20
0.8419253893930971
 30
0.0
  0
VERTEX
  5
4CE
  8
OPTIONAL_ATFAB_FURNITURE_C
 10
91.72851447784561
 20
0.8419253893930971
 30
0.0
  0
VERTEX
  5
4CF
  8
OPTIONAL_ATFAB_FURNITURE_C
 10
91.72851447784561
 20
1.735776967195051
 30
0.0
 42
-1.0
  0
VERTEX
  5
4D0
  8
OPTIONAL_ATFAB_FURNITURE_C
 10
92.03941937447232
 20
1.735776967195051
 30
0.0
 42
0.4142135623730951
  0
VERTEX
  5
4D1
  8
OPTIONAL_ATFAB_FURNITURE_C
 10
92.19487182278577
 20
1.580324518881639
 30
0.0
  0
VERTEX
  5
4D2
  8
OPTIONAL_ATFAB_FURNITURE_C
 10
94.48779543540809
 20
1.580324518881639
 30
0.0
  0
VERTEX
  5
4D3
  8
OPTIONAL_ATFAB_FURNITURE_C
 10
94.48779543540819
 20
6.205034856204861
 30
0.0
 42
0.4142135623730951
  0
VERTEX
  5
4D4
  8
OPTIONAL_ATFAB_FURNITURE_C
 10
94.33234298709483
 20
6.360487304518244
 30
0.0
 42
-1.0
  0
VERTEX
  5
4D5
  8
OPTIONAL_ATFAB_FURNITURE_C
 10
94.33234298709483
 20
6.671392201145011
 30
0.0
  0
VERTEX
  5
4D6
  8
OPTIONAL_ATFAB_FURNITURE_C
 10
95.22619456489667
 20
6.671392201145053
 30
0.0
  0
VERTEX
  5
4D7
  8
OPTIONAL_ATFAB_FURNITURE_C
 10
95.22619456489667
 20
12.50085901289695
 30
0.0
  0
VERTEX
  5
4D8
  8
OPTIONAL_ATFAB_FURNITURE_C
 10
94.33234298709483
 20
12.50085901289694
 30
0.0
 42
-1.0
  0
VERTEX
  5
4D9
  8
OPTIONAL_ATFAB_FURNITURE_C
 10
94.33234298709483
 20
12.81176390952368
 30
0.0
 42
0.4142135623730951
  0
VERTEX
  5
4DA
  8
OPTIONAL_ATFAB_FURNITURE_C
 10
94.48779543540819
 20
12.96721635783706
 30
0.0
  0
VERTEX
  5
4DB
  8
OPTIONAL_ATFAB_FURNITURE_C
 10
94.48779543540819
 20
17.59192669516028
 30
0.0
  0
VERTEX
  5
4DC
  8
OPTIONAL_ATFAB_FURNITURE_C
 10
92.19487182278577
 20
17.59192669516028
 30
0.0
 42
0.4142135623730951
  0
VERTEX
  5
4DD
  8
OPTIONAL_ATFAB_FURNITURE_C
 10
92.03941937447232
 20
17.4364742468469
 30
0.0
 42
-1.0
  0
VERTEX
  5
4DE
  8
OPTIONAL_ATFAB_FURNITURE_C
 10
91.72851447784562
 20
17.4364742468469
 30
0.0
  0
VERTEX
  5
4DF
  8
OPTIONAL_ATFAB_FURNITURE_C
 10
91.72851447784562
 20
18.33032582464887
 30
0.0
  0
VERTEX
  5
4E0
  8
OPTIONAL_ATFAB_FURNITURE_C
 10
84.34452318295988
 20
18.33032582464887
 30
0.0
  0
VERTEX
  5
4E1
  8
OPTIONAL_ATFAB_FURNITURE_C
 10
84.34452318295988
 20
17.4364742468469
 30
0.0
 42
-1.0
  0
VERTEX
  5
4E2
  8
OPTIONAL_ATFAB_FURNITURE_C
 10
84.03361828633308
 20
17.4364742468469
 30
0.0
 42
0.4142135623730951
  0
VERTEX
  5
4E3
  8
OPTIONAL_ATFAB_FURNITURE_C
 10
83.87816583801973
 20
17.59192669516028
 30
0.0
  0
VERTEX
  5
4E4
  8
OPTIONAL_ATFAB_FURNITURE_C
 10
79.48663417316662
 20
17.59192669516032
 30
0.0
  0
VERTEX
  5
4E5
  8
OPTIONAL_ATFAB_FURNITURE_C
 10
79.4866341731666
 20
15.3825776390947
 30
0.0
  0
SEQEND
  5
608
  8
OPTIONAL_ATFAB_FURNITURE_C
  0
POLYLINE
  5
98
  8
OPTIONAL_ATFAB_FURNITURE_C
 66
     1
 10
0.0
 20
0.0
 30
0.0
  0
VERTEX
  5
4E6
  8
OPTIONAL_ATFAB_FURNITURE_C
 10
84.34435535178193
 20
13.8858685982542
 30
0.0
  0
VERTEX
  5
4E7
  8
OPTIONAL_ATFAB_FURNITURE_C
 10
75.60015513415406
 20
15.79600942249327
 30
0.0
  0
VERTEX
  5
4E8
  8
OPTIONAL_ATFAB_FURNITURE_C
 10
75.60015513415406
 20
14.20067867167722
 30
0.0
 42
0.4142135623730951
  0
VERTEX
  5
4E9
  8
OPTIONAL_ATFAB_FURNITURE_C
 10
75.75560758246745
 20
14.04522622336385
 30
0.0
 42
-1.0
  0
VERTEX
  5
4EA
  8
OPTIONAL_ATFAB_FURNITURE_C
 10
75.75560758246745
 20
13.73432132673707
 30
0.0
  0
VERTEX
  5
4EB
  8
OPTIONAL_ATFAB_FURNITURE_C
 10
74.70630355635215
 20
13.73432132673708
 30
0.0
 42
-1.0
  0
VERTEX
  5
4EC
  8
OPTIONAL_ATFAB_FURNITURE_C
 10
74.70630355635215
 20
14.04522622336385
 30
0.0
 42
0.4142135623730951
  0
VERTEX
  5
4ED
  8
OPTIONAL_ATFAB_FURNITURE_C
 10
74.86175600466554
 20
14.20067867167722
 30
0.0
  0
VERTEX
  5
4EE
  8
OPTIONAL_ATFAB_FURNITURE_C
 10
74.86175600466554
 20
25.16396258897853
 30
0.0
 42
0.4142135623730284
  0
VERTEX
  5
4EF
  8
OPTIONAL_ATFAB_FURNITURE_C
 10
74.70630355635215
 20
25.31941503729189
 30
0.0
 42
-1.0
  0
VERTEX
  5
4F0
  8
OPTIONAL_ATFAB_FURNITURE_C
 10
74.70630355635215
 20
25.63031993391866
 30
0.0
  0
VERTEX
  5
4F1
  8
OPTIONAL_ATFAB_FURNITURE_C
 10
75.75560758246745
 20
25.63031993391866
 30
0.0
 42
-1.0
  0
VERTEX
  5
4F2
  8
OPTIONAL_ATFAB_FURNITURE_C
 10
75.75560758246745
 20
25.31941503729192
 30
0.0
 42
0.4142135623730951
  0
VERTEX
  5
4F3
  8
OPTIONAL_ATFAB_FURNITURE_C
 10
75.60015513415406
 20
25.16396258897853
 30
0.0
  0
VERTEX
  5
4F4
  8
OPTIONAL_ATFAB_FURNITURE_C
 10
75.60015513415406
 20
23.56863183816246
 30
0.0
  0
VERTEX
  5
4F5
  8
OPTIONAL_ATFAB_FURNITURE_C
 10
84.34435535178193
 20
25.47877266240154
 30
0.0
  0
SEQEND
  5
609
  8
OPTIONAL_ATFAB_FURNITURE_C
  0
POLYLINE
  5
99
  8
OPTIONAL_ATFAB_FURNITURE_C
 66
     1
 10
0.0
 20
0.0
 30
0.0
  0
VERTEX
  5
4F6
  8
OPTIONAL_ATFAB_FURNITURE_C
 10
84.34435535178193
 20
25.47877266240154
 30
0.0
  0
VERTEX
  5
4F7
  8
OPTIONAL_ATFAB_FURNITURE_C
 10
84.34435535178193
 20
27.68812171846714
 30
0.0
  0
VERTEX
  5
4F8
  8
OPTIONAL_ATFAB_FURNITURE_C
 10
79.95282368692892
 20
27.68812171846712
 30
0.0
 42
0.4142135623731117
  0
VERTEX
  5
4F9
  8
OPTIONAL_ATFAB_FURNITURE_C
 10
79.79737123861555
 20
27.53266927015372
 30
0.0
 42
-1.0
  0
VERTEX
  5
4FA
  8
OPTIONAL_ATFAB_FURNITURE_C
 10
79.48646634198876
 20
27.53266927015373
 30
0.0
  0
VERTEX
  5
4FB
  8
OPTIONAL_ATFAB_FURNITURE_C
 10
79.48646634198876
 20
28.42652084795574
 30
0.0
  0
VERTEX
  5
4FC
  8
OPTIONAL_ATFAB_FURNITURE_C
 10
69.34319408954033
 20
28.42652084795574
 30
0.0
  0
VERTEX
  5
4FD
  8
OPTIONAL_ATFAB_FURNITURE_C
 10
69.34319408954033
 20
23.06341138114399
 30
0.0
 42
0.4142135623730951
  0
VERTEX
  5
4FE
  8
OPTIONAL_ATFAB_FURNITURE_C
 10
69.49864653785377
 20
22.90795893283061
 30
0.0
 42
-1.0
  0
VERTEX
  5
4FF
  8
OPTIONAL_ATFAB_FURNITURE_C
 10
69.49864653785377
 20
22.59705403620383
 30
0.0
  0
VERTEX
  5
500
  8
OPTIONAL_ATFAB_FURNITURE_C
 10
68.60479496005188
 20
22.59705403620383
 30
0.0
  0
VERTEX
  5
501
  8
OPTIONAL_ATFAB_FURNITURE_C
 10
68.60479496005188
 20
16.76758722445192
 30
0.0
  0
VERTEX
  5
502
  8
OPTIONAL_ATFAB_FURNITURE_C
 10
69.49864653785377
 20
16.76758722445192
 30
0.0
 42
-1.0
  0
VERTEX
  5
503
  8
OPTIONAL_ATFAB_FURNITURE_C
 10
69.49864653785377
 20
16.45668232782515
 30
0.0
 42
0.4142135623730951
  0
VERTEX
  5
504
  8
OPTIONAL_ATFAB_FURNITURE_C
 10
69.34319408954033
 20
16.30122987951177
 30
0.0
  0
VERTEX
  5
505
  8
OPTIONAL_ATFAB_FURNITURE_C
 10
69.34319408954033
 20
10.93812041270003
 30
0.0
  0
VERTEX
  5
506
  8
OPTIONAL_ATFAB_FURNITURE_C
 10
72.10247504710291
 20
10.93812041270003
 30
0.0
  0
VERTEX
  5
507
  8
OPTIONAL_ATFAB_FURNITURE_C
 10
72.10247504710306
 20
11.83197199050198
 30
0.0
 42
-1.0
  0
VERTEX
  5
508
  8
OPTIONAL_ATFAB_FURNITURE_C
 10
72.41337994372974
 20
11.83197199050198
 30
0.0
 42
0.4142135623730951
  0
VERTEX
  5
509
  8
OPTIONAL_ATFAB_FURNITURE_C
 10
72.56883239204309
 20
11.6765195421886
 30
0.0
  0
VERTEX
  5
50A
  8
OPTIONAL_ATFAB_FURNITURE_C
 10
79.02010899704858
 20
11.67651954218859
 30
0.0
 42
0.4142135623730784
  0
VERTEX
  5
50B
  8
OPTIONAL_ATFAB_FURNITURE_C
 10
79.17556144536194
 20
11.83197199050198
 30
0.0
 42
-1.0
  0
VERTEX
  5
50C
  8
OPTIONAL_ATFAB_FURNITURE_C
 10
79.48646634198876
 20
11.83197199050198
 30
0.0
  0
VERTEX
  5
50D
  8
OPTIONAL_ATFAB_FURNITURE_C
 10
79.48646634198876
 20
10.93812041270002
 30
0.0
  0
VERTEX
  5
50E
  8
OPTIONAL_ATFAB_FURNITURE_C
 10
84.34435535178193
 20
10.93812041270002
 30
0.0
  0
VERTEX
  5
50F
  8
OPTIONAL_ATFAB_FURNITURE_C
 10
84.34435535178193
 20
13.8858685982542
 30
0.0
  0
SEQEND
  5
60A
  8
OPTIONAL_ATFAB_FURNITURE_C
  0
POLYLINE
  5
9A
  8
OPTIONAL_ATFAB_FURNITURE_C
 66
     1
 10
0.0
 20
0.0
 30
0.0
 70
     1
  0
VERTEX
  5
510
  8
OPTIONAL_ATFAB_FURNITURE_C
 10
85.9853078166656
 20
21.65851634739173
 30
0.0
  0
VERTEX
  5
511
  8
OPTIONAL_ATFAB_FURNITURE_C
 10
77.24110759903779
 20
23.56865717163011
 30
0.0
  0
VERTEX
  5
512
  8
OPTIONAL_ATFAB_FURNITURE_C
 10
77.24110759903779
 20
21.97332642081468
 30
0.0
 42
0.4142135623730618
  0
VERTEX
  5
513
  8
OPTIONAL_ATFAB_FURNITURE_C
 10
77.39656004735112
 20
21.8178739725013
 30
0.0
 42
-1.0
  0
VERTEX
  5
514
  8
OPTIONAL_ATFAB_FURNITURE_C
 10
77.39656004735112
 20
21.50696907587453
 30
0.0
  0
VERTEX
  5
515
  8
OPTIONAL_ATFAB_FURNITURE_C
 10
76.5027084695492
 20
21.50696907587453
 30
0.0
  0
VERTEX
  5
516
  8
OPTIONAL_ATFAB_FURNITURE_C
 10
76.5027084695492
 20
19.44916729132611
 30
0.0
  0
VERTEX
  5
517
  8
OPTIONAL_ATFAB_FURNITURE_C
 10
80.66106146193228
 20
19.44916729132611
 30
0.0
 42
0.4142135623731117
  0
VERTEX
  5
518
  8
OPTIONAL_ATFAB_FURNITURE_C
 10
80.8165139102456
 20
19.6046197396395
 30
0.0
 42
-1.0
  0
VERTEX
  5
519
  8
OPTIONAL_ATFAB_FURNITURE_C
 10
81.12741880687231
 20
19.6046197396395
 30
0.0
  0
VERTEX
  5
51A
  8
OPTIONAL_ATFAB_FURNITURE_C
 10
81.12741880687231
 20
18.71076816183753
 30
0.0
  0
VERTEX
  5
51B
  8
OPTIONAL_ATFAB_FURNITURE_C
 10
85.98530781666558
 20
18.71076816183753
 30
0.0
  0
SEQEND
  5
60B
  8
OPTIONAL_ATFAB_FURNITURE_C
  0
POLYLINE
  5
9B
  8
OPTIONAL_ATFAB_FURNITURE_C
 66
     1
 10
0.0
 20
0.0
 30
0.0
  0
VERTEX
  5
51C
  8
OPTIONAL_ATFAB_FURNITURE_C
 10
91.74634754163557
 20
41.20979861910399
 30
0.0
  0
VERTEX
  5
51D
  8
OPTIONAL_ATFAB_FURNITURE_C
 10
88.79859935608135
 20
41.20979861910399
 30
0.0
  0
VERTEX
  5
51E
  8
OPTIONAL_ATFAB_FURNITURE_C
 10
88.79859935608135
 20
36.35190960931072
 30
0.0
  0
VERTEX
  5
51F
  8
OPTIONAL_ATFAB_FURNITURE_C
 10
89.69245093388328
 20
36.35190960931072
 30
0.0
 42
-1.0
  0
VERTEX
  5
520
  8
OPTIONAL_ATFAB_FURNITURE_C
 10
89.69245093388328
 20
36.04100471268399
 30
0.0
 42
0.4142135623730951
  0
VERTEX
  5
521
  8
OPTIONAL_ATFAB_FURNITURE_C
 10
89.5369984855699
 20
35.88555226437065
 30
0.0
  0
VERTEX
  5
522
  8
OPTIONAL_ATFAB_FURNITURE_C
 10
89.5369984855699
 20
31.72719927198759
 30
0.0
  0
VERTEX
  5
523
  8
OPTIONAL_ATFAB_FURNITURE_C
 10
91.59480027011836
 20
31.72719927198759
 30
0.0
  0
VERTEX
  5
524
  8
OPTIONAL_ATFAB_FURNITURE_C
 10
91.59480027011834
 20
32.62105084978951
 30
0.0
 42
-1.0
  0
VERTEX
  5
525
  8
OPTIONAL_ATFAB_FURNITURE_C
 10
91.90570516674514
 20
32.62105084978951
 30
0.0
 42
0.4142135623730951
  0
VERTEX
  5
526
  8
OPTIONAL_ATFAB_FURNITURE_C
 10
92.0611576150585
 20
32.46559840147614
 30
0.0
  0
VERTEX
  5
527
  8
OPTIONAL_ATFAB_FURNITURE_C
 10
93.65648836587395
 20
32.46559840147614
 30
0.0
  0
VERTEX
  5
528
  8
OPTIONAL_ATFAB_FURNITURE_C
 10
91.74634754163557
 20
41.20979861910399
 30
0.0
  0
SEQEND
  5
60C
  8
OPTIONAL_ATFAB_FURNITURE_C
  0
POLYLINE
  5
9D
  8
OPTIONAL_ATFAB_FURNITURE_S
 66
     1
 10
0.0
 20
0.0
 30
0.0
 70
     1
  0
VERTEX
  5
529
  8
OPTIONAL_ATFAB_FURNITURE_S
 10
89.16779892082562
 20
39.12403467127805
 30
0.0
 42
0.4142135623730951
  0
VERTEX
  5
52A
  8
OPTIONAL_ATFAB_FURNITURE_S
 10
89.05779892082563
 20
39.01403467127805
 30
0.0
 42
0.4142135623730951
  0
VERTEX
  5
52B
  8
OPTIONAL_ATFAB_FURNITURE_S
 10
89.16779892082562
 20
38.90403467127805
 30
0.0
 42
0.4142135623730951
  0
VERTEX
  5
52C
  8
OPTIONAL_ATFAB_FURNITURE_S
 10
89.27779892082563
 20
39.01403467127805
 30
0.0
 42
0.4142135623730951
  0
SEQEND
  5
60D
  8
OPTIONAL_ATFAB_FURNITURE_S
  0
POLYLINE
  5
9E
  8
OPTIONAL_ATFAB_FURNITURE_S
 66
     1
 10
0.0
 20
0.0
 30
0.0
 70
     1
  0
VERTEX
  5
52D
  8
OPTIONAL_ATFAB_FURNITURE_S
 10
90.3327207053741
 20
32.20640072133249
 30
0.0
 42
0.4142135623730951
  0
VERTEX
  5
52E
  8
OPTIONAL_ATFAB_FURNITURE_S
 10
90.22272070537409
 20
32.09640072133249
 30
0.0
 42
0.4142135623730951
  0
VERTEX
  5
52F
  8
OPTIONAL_ATFAB_FURNITURE_S
 10
90.3327207053741
 20
31.98640072133249
 30
0.0
 42
0.4142135623730951
  0
VERTEX
  5
530
  8
OPTIONAL_ATFAB_FURNITURE_S
 10
90.44272070537409
 20
32.09640072133249
 30
0.0
 42
0.4142135623730951
  0
SEQEND
  5
60E
  8
OPTIONAL_ATFAB_FURNITURE_S
  0
POLYLINE
  5
9F
  8
OPTIONAL_ATFAB_FURNITURE_S
 66
     1
 10
0.0
 20
0.0
 30
0.0
 70
     1
  0
VERTEX
  5
531
  8
OPTIONAL_ATFAB_FURNITURE_S
 10
76.8309343854576
 20
28.05732128321144
 30
0.0
 42
0.4142135623730951
  0
VERTEX
  5
532
  8
OPTIONAL_ATFAB_FURNITURE_S
 10
76.9409343854576
 20
27.94732128321143
 30
0.0
 42
0.4142135623730951
  0
VERTEX
  5
533
  8
OPTIONAL_ATFAB_FURNITURE_S
 10
77.0509343854576
 20
28.05732128321144
 30
0.0
 42
0.4142135623730951
  0
VERTEX
  5
534
  8
OPTIONAL_ATFAB_FURNITURE_S
 10
76.9409343854576
 20
28.16732128321143
 30
0.0
 42
0.4142135623730951
  0
SEQEND
  5
60F
  8
OPTIONAL_ATFAB_FURNITURE_S
  0
POLYLINE
  5
A0
  8
OPTIONAL_ATFAB_FURNITURE_S
 66
     1
 10
0.0
 20
0.0
 30
0.0
 70
     1
  0
VERTEX
  5
535
  8
OPTIONAL_ATFAB_FURNITURE_S
 10
75.1209574540104
 20
26.89239949866301
 30
0.0
 42
0.4142135623730951
  0
VERTEX
  5
536
  8
OPTIONAL_ATFAB_FURNITURE_S
 10
75.2309574540104
 20
26.78239949866301
 30
0.0
 42
0.4142135623730951
  0
VERTEX
  5
537
  8
OPTIONAL_ATFAB_FURNITURE_S
 10
75.3409574540104
 20
26.89239949866301
 30
0.0
 42
0.4142135623730951
  0
VERTEX
  5
538
  8
OPTIONAL_ATFAB_FURNITURE_S
 10
75.2309574540104
 20
27.00239949866301
 30
0.0
 42
0.4142135623730951
  0
SEQEND
  5
610
  8
OPTIONAL_ATFAB_FURNITURE_S
  0
POLYLINE
  5
A1
  8
OPTIONAL_ATFAB_FURNITURE_S
 66
     1
 10
0.0
 20
0.0
 30
0.0
 70
     1
  0
VERTEX
  5
539
  8
OPTIONAL_ATFAB_FURNITURE_S
 10
83.8000986729258
 20
29.75735482002085
 30
0.0
 42
0.4142135623730951
  0
VERTEX
  5
53A
  8
OPTIONAL_ATFAB_FURNITURE_S
 10
83.6900986729258
 20
29.64735482002084
 30
0.0
 42
0.4142135623730951
  0
VERTEX
  5
53B
  8
OPTIONAL_ATFAB_FURNITURE_S
 10
83.8000986729258
 20
29.53735482002085
 30
0.0
 42
0.4142135623730951
  0
VERTEX
  5
53C
  8
OPTIONAL_ATFAB_FURNITURE_S
 10
83.9100986729258
 20
29.64735482002084
 30
0.0
 42
0.4142135623730951
  0
SEQEND
  5
611
  8
OPTIONAL_ATFAB_FURNITURE_S
  0
POLYLINE
  5
A2
  8
OPTIONAL_ATFAB_FURNITURE_S
 66
     1
 10
0.0
 20
0.0
 30
0.0
 70
     1
  0
VERTEX
  5
53D
  8
OPTIONAL_ATFAB_FURNITURE_S
 10
86.11245384158744
 20
32.43890955342677
 30
0.0
 42
0.4142135623730951
  0
VERTEX
  5
53E
  8
OPTIONAL_ATFAB_FURNITURE_S
 10
86.00245384158744
 20
32.32890955342677
 30
0.0
 42
0.4142135623730951
  0
VERTEX
  5
53F
  8
OPTIONAL_ATFAB_FURNITURE_S
 10
86.11245384158744
 20
32.21890955342677
 30
0.0
 42
0.4142135623730951
  0
VERTEX
  5
540
  8
OPTIONAL_ATFAB_FURNITURE_S
 10
86.22245384158744
 20
32.32890955342677
 30
0.0
 42
0.4142135623730951
  0
SEQEND
  5
612
  8
OPTIONAL_ATFAB_FURNITURE_S
  0
POLYLINE
  5
A3
  8
OPTIONAL_ATFAB_FURNITURE_S
 66
     1
 10
0.0
 20
0.0
 30
0.0
 70
     1
  0
VERTEX
  5
541
  8
OPTIONAL_ATFAB_FURNITURE_S
 10
86.11245384158742
 20
43.82580139238207
 30
0.0
 42
0.4142135623730951
  0
VERTEX
  5
542
  8
OPTIONAL_ATFAB_FURNITURE_S
 10
86.00245384158744
 20
43.71580139238207
 30
0.0
 42
0.4142135623730951
  0
VERTEX
  5
543
  8
OPTIONAL_ATFAB_FURNITURE_S
 10
86.11245384158742
 20
43.60580139238207
 30
0.0
 42
0.4142135623730951
  0
VERTEX
  5
544
  8
OPTIONAL_ATFAB_FURNITURE_S
 10
86.22245384158744
 20
43.71580139238207
 30
0.0
 42
0.4142135623730951
  0
SEQEND
  5
613
  8
OPTIONAL_ATFAB_FURNITURE_S
  0
POLYLINE
  5
A4
  8
OPTIONAL_ATFAB_FURNITURE_S
 66
     1
 10
0.0
 20
0.0
 30
0.0
 70
     1
  0
VERTEX
  5
545
  8
OPTIONAL_ATFAB_FURNITURE_S
 10
83.8000986729258
 20
46.50735589443055
 30
0.0
 42
0.4142135623730951
  0
VERTEX
  5
546
  8
OPTIONAL_ATFAB_FURNITURE_S
 10
83.6900986729258
 20
46.39735589443054
 30
0.0
 42
0.4142135623730951
  0
VERTEX
  5
547
  8
OPTIONAL_ATFAB_FURNITURE_S
 10
83.8000986729258
 20
46.28735589443054
 30
0.0
 42
0.4142135623730951
  0
VERTEX
  5
548
  8
OPTIONAL_ATFAB_FURNITURE_S
 10
83.9100986729258
 20
46.39735589443054
 30
0.0
 42
0.4142135623730951
  0
SEQEND
  5
614
  8
OPTIONAL_ATFAB_FURNITURE_S
  0
POLYLINE
  5
A5
  8
OPTIONAL_ATFAB_FURNITURE_S
 66
     1
 10
0.0
 20
0.0
 30
0.0
 70
     1
  0
VERTEX
  5
549
  8
OPTIONAL_ATFAB_FURNITURE_S
 10
68.86399640939665
 20
19.68232063032787
 30
0.0
 42
0.4142135623730951
  0
VERTEX
  5
54A
  8
OPTIONAL_ATFAB_FURNITURE_S
 10
68.97399640939665
 20
19.57232063032787
 30
0.0
 42
0.4142135623730951
  0
VERTEX
  5
54B
  8
OPTIONAL_ATFAB_FURNITURE_S
 10
69.08399640939665
 20
19.68232063032787
 30
0.0
 42
0.4142135623730951
  0
VERTEX
  5
54C
  8
OPTIONAL_ATFAB_FURNITURE_S
 10
68.97399640939665
 20
19.79232063032787
 30
0.0
 42
0.4142135623730951
  0
SEQEND
  5
615
  8
OPTIONAL_ATFAB_FURNITURE_S
  0
POLYLINE
  5
A6
  8
OPTIONAL_ATFAB_FURNITURE_S
 66
     1
 10
0.0
 20
0.0
 30
0.0
 70
     1
  0
VERTEX
  5
54D
  8
OPTIONAL_ATFAB_FURNITURE_S
 10
71.67480770448189
 20
46.50735589443054
 30
0.0
 42
0.4142135623730951
  0
VERTEX
  5
54E
  8
OPTIONAL_ATFAB_FURNITURE_S
 10
71.5648077044819
 20
46.39735589443054
 30
0.0
 42
0.4142135623730951
  0
VERTEX
  5
54F
  8
OPTIONAL_ATFAB_FURNITURE_S
 10
71.67480770448189
 20
46.28735589443054
 30
0.0
 42
0.4142135623730951
  0
VERTEX
  5
550
  8
OPTIONAL_ATFAB_FURNITURE_S
 10
71.78480770448189
 20
46.39735589443054
 30
0.0
 42
0.4142135623730951
  0
SEQEND
  5
616
  8
OPTIONAL_ATFAB_FURNITURE_S
  0
POLYLINE
  5
A7
  8
OPTIONAL_ATFAB_FURNITURE_S
 66
     1
 10
0.0
 20
0.0
 30
0.0
 70
     1
  0
VERTEX
  5
551
  8
OPTIONAL_ATFAB_FURNITURE_S
 10
71.67480770448189
 20
29.75735482002085
 30
0.0
 42
0.4142135623730951
  0
VERTEX
  5
552
  8
OPTIONAL_ATFAB_FURNITURE_S
 10
71.5648077044819
 20
29.64735482002084
 30
0.0
 42
0.4142135623730951
  0
VERTEX
  5
553
  8
OPTIONAL_ATFAB_FURNITURE_S
 10
71.67480770448189
 20
29.53735482002085
 30
0.0
 42
0.4142135623730951
  0
VERTEX
  5
554
  8
OPTIONAL_ATFAB_FURNITURE_S
 10
71.78480770448189
 20
29.64735482002084
 30
0.0
 42
0.4142135623730951
  0
SEQEND
  5
617
  8
OPTIONAL_ATFAB_FURNITURE_S
  0
POLYLINE
  5
A8
  8
OPTIONAL_ATFAB_FURNITURE_S
 66
     1
 10
0.0
 20
0.0
 30
0.0
 70
     1
  0
VERTEX
  5
555
  8
OPTIONAL_ATFAB_FURNITURE_S
 10
70.3796577804522
 20
11.30731997744431
 30
0.0
 42
0.4142135623730951
  0
VERTEX
  5
556
  8
OPTIONAL_ATFAB_FURNITURE_S
 10
70.4896577804522
 20
11.19731997744431
 30
0.0
 42
0.4142135623730951
  0
VERTEX
  5
557
  8
OPTIONAL_ATFAB_FURNITURE_S
 10
70.5996577804522
 20
11.30731997744431
 30
0.0
 42
0.4142135623730951
  0
VERTEX
  5
558
  8
OPTIONAL_ATFAB_FURNITURE_S
 10
70.4896577804522
 20
11.41731997744431
 30
0.0
 42
0.4142135623730951
  0
SEQEND
  5
618
  8
OPTIONAL_ATFAB_FURNITURE_S
  0
POLYLINE
  5
A9
  8
OPTIONAL_ATFAB_FURNITURE_S
 66
     1
 10
0.0
 20
0.0
 30
0.0
 70
     1
  0
VERTEX
  5
559
  8
OPTIONAL_ATFAB_FURNITURE_S
 10
82.03859140395598
 20
11.30731997744431
 30
0.0
 42
0.4142135623730951
  0
VERTEX
  5
55A
  8
OPTIONAL_ATFAB_FURNITURE_S
 10
82.14859140395598
 20
11.19731997744431
 30
0.0
 42
0.4142135623730951
  0
VERTEX
  5
55B
  8
OPTIONAL_ATFAB_FURNITURE_S
 10
82.25859140395599
 20
11.30731997744431
 30
0.0
 42
0.4142135623730951
  0
VERTEX
  5
55C
  8
OPTIONAL_ATFAB_FURNITURE_S
 10
82.14859140395598
 20
11.41731997744431
 30
0.0
 42
0.4142135623730951
  0
SEQEND
  5
619
  8
OPTIONAL_ATFAB_FURNITURE_S
  0
POLYLINE
  5
AA
  8
OPTIONAL_ATFAB_FURNITURE_S
 66
     1
 10
0.0
 20
0.0
 30
0.0
 70
     1
  0
VERTEX
  5
55D
  8
OPTIONAL_ATFAB_FURNITURE_S
 10
76.98190991889398
 20
20.2448892797729
 30
0.0
 42
0.4142135623730951
  0
VERTEX
  5
55E
  8
OPTIONAL_ATFAB_FURNITURE_S
 10
76.87190991889399
 20
20.35488927977291
 30
0.0
 42
0.4142135623730951
  0
VERTEX
  5
55F
  8
OPTIONAL_ATFAB_FURNITURE_S
 10
76.76190991889398
 20
20.2448892797729
 30
0.0
 42
0.4142135623730951
  0
VERTEX
  5
560
  8
OPTIONAL_ATFAB_FURNITURE_S
 10
76.87190991889399
 20
20.13488927977289
 30
0.0
 42
0.4142135623730951
  0
SEQEND
  5
61A
  8
OPTIONAL_ATFAB_FURNITURE_S
  0
POLYLINE
  5
AB
  8
OPTIONAL_ATFAB_FURNITURE_S
 66
     1
 10
0.0
 20
0.0
 30
0.0
 70
     1
  0
VERTEX
  5
561
  8
OPTIONAL_ATFAB_FURNITURE_S
 10
83.89954386883964
 20
19.07996772658182
 30
0.0
 42
0.4142135623730951
  0
VERTEX
  5
562
  8
OPTIONAL_ATFAB_FURNITURE_S
 10
83.78954386883964
 20
19.18996772658181
 30
0.0
 42
0.4142135623730951
  0
VERTEX
  5
563
  8
OPTIONAL_ATFAB_FURNITURE_S
 10
83.67954386883964
 20
19.07996772658182
 30
0.0
 42
0.4142135623730951
  0
VERTEX
  5
564
  8
OPTIONAL_ATFAB_FURNITURE_S
 10
83.78954386883964
 20
18.96996772658181
 30
0.0
 42
0.4142135623730951
  0
SEQEND
  5
61B
  8
OPTIONAL_ATFAB_FURNITURE_S
  0
POLYLINE
  5
AC
  8
OPTIONAL_ATFAB_FURNITURE_S
 66
     1
 10
0.0
 20
0.0
 30
0.0
 70
     1
  0
VERTEX
  5
565
  8
OPTIONAL_ATFAB_FURNITURE_S
 10
87.9265169458022
 20
17.96112625990459
 30
0.0
 42
0.4142135623730951
  0
VERTEX
  5
566
  8
OPTIONAL_ATFAB_FURNITURE_S
 10
88.03651694580219
 20
17.85112625990461
 30
0.0
 42
0.4142135623730951
  0
VERTEX
  5
567
  8
OPTIONAL_ATFAB_FURNITURE_S
 10
88.1465169458022
 20
17.96112625990459
 30
0.0
 42
0.4142135623730951
  0
VERTEX
  5
568
  8
OPTIONAL_ATFAB_FURNITURE_S
 10
88.03651694580219
 20
18.07112625990461
 30
0.0
 42
0.4142135623730951
  0
SEQEND
  5
61C
  8
OPTIONAL_ATFAB_FURNITURE_S
  0
POLYLINE
  5
AD
  8
OPTIONAL_ATFAB_FURNITURE_S
 66
     1
 10
0.0
 20
0.0
 30
0.0
 70
     1
  0
VERTEX
  5
569
  8
OPTIONAL_ATFAB_FURNITURE_S
 10
88.49003207093824
 20
16.79620447535611
 30
0.0
 42
0.4142135623730951
  0
VERTEX
  5
56A
  8
OPTIONAL_ATFAB_FURNITURE_S
 10
88.60003207093823
 20
16.68620447535611
 30
0.0
 42
0.4142135623730951
  0
VERTEX
  5
56B
  8
OPTIONAL_ATFAB_FURNITURE_S
 10
88.71003207093824
 20
16.79620447535611
 30
0.0
 42
0.4142135623730951
  0
VERTEX
  5
56C
  8
OPTIONAL_ATFAB_FURNITURE_S
 10
88.60003207093823
 20
16.90620447535611
 30
0.0
 42
0.4142135623730951
  0
SEQEND
  5
61D
  8
OPTIONAL_ATFAB_FURNITURE_S
  0
POLYLINE
  5
AE
  8
OPTIONAL_ATFAB_FURNITURE_S
 66
     1
 10
0.0
 20
0.0
 30
0.0
 70
     1
  0
VERTEX
  5
56D
  8
OPTIONAL_ATFAB_FURNITURE_S
 10
94.74699311555187
 20
9.586125607021001
 30
0.0
 42
0.4142135623730951
  0
VERTEX
  5
56E
  8
OPTIONAL_ATFAB_FURNITURE_S
 10
94.85699311555187
 20
9.476125607021002
 30
0.0
 42
0.4142135623730951
  0
VERTEX
  5
56F
  8
OPTIONAL_ATFAB_FURNITURE_S
 10
94.96699311555187
 20
9.586125607021001
 30
0.0
 42
0.4142135623730951
  0
VERTEX
  5
570
  8
OPTIONAL_ATFAB_FURNITURE_S
 10
94.85699311555187
 20
9.696125607021001
 30
0.0
 42
0.4142135623730951
  0
SEQEND
  5
61E
  8
OPTIONAL_ATFAB_FURNITURE_S
  0
POLYLINE
  5
AF
  8
OPTIONAL_ATFAB_FURNITURE_S
 66
     1
 10
0.0
 20
0.0
 30
0.0
 70
     1
  0
VERTEX
  5
571
  8
OPTIONAL_ATFAB_FURNITURE_S
 10
88.04435560197354
 20
20.53323248913377
 30
0.0
 42
0.4142135623730951
  0
VERTEX
  5
572
  8
OPTIONAL_ATFAB_FURNITURE_S
 10
87.93560560197355
 20
20.42448248913377
 30
0.0
 42
0.4142135623730951
  0
VERTEX
  5
573
  8
OPTIONAL_ATFAB_FURNITURE_S
 10
88.04435560197354
 20
20.31573248913377
 30
0.0
 42
0.4142135623730951
  0
VERTEX
  5
574
  8
OPTIONAL_ATFAB_FURNITURE_S
 10
88.15310560197352
 20
20.42448248913377
 30
0.0
 42
0.4142135623730951
  0
SEQEND
  5
61F
  8
OPTIONAL_ATFAB_FURNITURE_S
  0
POLYLINE
  5
B0
  8
OPTIONAL_ATFAB_FURNITURE_S
 66
     1
 10
0.0
 20
0.0
 30
0.0
 70
     1
  0
VERTEX
  5
575
  8
OPTIONAL_ATFAB_FURNITURE_S
 10
94.74264108412615
 20
22.28917349900219
 30
0.0
 42
0.4142135623730951
  0
VERTEX
  5
576
  8
OPTIONAL_ATFAB_FURNITURE_S
 10
94.63389108412616
 20
22.18042349900219
 30
0.0
 42
0.4142135623730951
  0
VERTEX
  5
577
  8
OPTIONAL_ATFAB_FURNITURE_S
 10
94.74264108412615
 20
22.07167349900219
 30
0.0
 42
0.4142135623730951
  0
VERTEX
  5
578
  8
OPTIONAL_ATFAB_FURNITURE_S
 10
94.85139108412613
 20
22.18042349900219
 30
0.0
 42
0.4142135623730951
  0
SEQEND
  5
620
  8
OPTIONAL_ATFAB_FURNITURE_S
  0
POLYLINE
  5
B1
  8
OPTIONAL_ATFAB_FURNITURE_S
 66
     1
 10
0.0
 20
0.0
 30
0.0
 70
     1
  0
VERTEX
  5
579
  8
OPTIONAL_ATFAB_FURNITURE_S
 10
86.28841459210344
 20
27.23151797128475
 30
0.0
 42
0.4142135623730951
  0
VERTEX
  5
57A
  8
OPTIONAL_ATFAB_FURNITURE_S
 10
86.17966459210345
 20
27.12276797128475
 30
0.0
 42
0.4142135623730951
  0
VERTEX
  5
57B
  8
OPTIONAL_ATFAB_FURNITURE_S
 10
86.28841459210344
 20
27.01401797128475
 30
0.0
 42
0.4142135623730951
  0
VERTEX
  5
57C
  8
OPTIONAL_ATFAB_FURNITURE_S
 10
86.39716459210342
 20
27.12276797128475
 30
0.0
 42
0.4142135623730951
  0
SEQEND
  5
621
  8
OPTIONAL_ATFAB_FURNITURE_S
  0
POLYLINE
  5
B2
  8
OPTIONAL_ATFAB_FURNITURE_S
 66
     1
 10
0.0
 20
0.0
 30
0.0
 70
     1
  0
VERTEX
  5
57D
  8
OPTIONAL_ATFAB_FURNITURE_S
 10
92.98670007425613
 20
28.98745898115482
 30
0.0
 42
0.4142135623730951
  0
VERTEX
  5
57E
  8
OPTIONAL_ATFAB_FURNITURE_S
 10
92.87795007425615
 20
28.87870898115482
 30
0.0
 42
0.4142135623730951
  0
VERTEX
  5
57F
  8
OPTIONAL_ATFAB_FURNITURE_S
 10
92.98670007425613
 20
28.76995898115482
 30
0.0
 42
0.4142135623730951
  0
VERTEX
  5
580
  8
OPTIONAL_ATFAB_FURNITURE_S
 10
93.09545007425612
 20
28.87870898115482
 30
0.0
 42
0.4142135623730951
  0
SEQEND
  5
622
  8
OPTIONAL_ATFAB_FURNITURE_S
  0
POLYLINE
  5
B3
  8
OPTIONAL_ATFAB_FURNITURE_S
 66
     1
 10
0.0
 20
0.0
 30
0.0
 70
     1
  0
VERTEX
  5
581
  8
OPTIONAL_ATFAB_FURNITURE_S
 10
87.92651694580219
 20
1.211125185494752
 30
0.0
 42
0.4142135623730951
  0
VERTEX
  5
582
  8
OPTIONAL_ATFAB_FURNITURE_S
 10
88.03651694580219
 20
1.101125185494753
 30
0.0
 42
0.4142135623730951
  0
VERTEX
  5
583
  8
OPTIONAL_ATFAB_FURNITURE_S
 10
88.14651694580219
 20
1.211125185494752
 30
0.0
 42
0.4142135623730951
  0
VERTEX
  5
584
  8
OPTIONAL_ATFAB_FURNITURE_S
 10
88.03651694580219
 20
1.321125185494752
 30
0.0
 42
0.4142135623730951
  0
SEQEND
  5
623
  8
OPTIONAL_ATFAB_FURNITURE_S
  0
POLYLINE
  5
B4
  8
OPTIONAL_ATFAB_FURNITURE_S
 66
     1
 10
0.0
 20
0.0
 30
0.0
 70
     1
  0
VERTEX
  5
585
  8
OPTIONAL_ATFAB_FURNITURE_S
 10
88.49003207093811
 20
2.376046738685823
 30
0.0
 42
0.4142135623730951
  0
VERTEX
  5
586
  8
OPTIONAL_ATFAB_FURNITURE_S
 10
88.60003207093811
 20
2.266046738685824
 30
0.0
 42
0.4142135623730951
  0
VERTEX
  5
587
  8
OPTIONAL_ATFAB_FURNITURE_S
 10
88.71003207093811
 20
2.376046738685823
 30
0.0
 42
0.4142135623730951
  0
VERTEX
  5
588
  8
OPTIONAL_ATFAB_FURNITURE_S
 10
88.60003207093811
 20
2.486046738685822
 30
0.0
 42
0.4142135623730951
  0
SEQEND
  5
624
  8
OPTIONAL_ATFAB_FURNITURE_S
  0
POLYLINE
  5
B6
  8
AVAILABLE_WASTE_AREA_FOR_O
 66
     1
 10
0.0
 20
0.0
 30
0.0
 70
     1
  0
VERTEX
  5
589
  8
AVAILABLE_WASTE_AREA_FOR_O
 10
68.21686128916339
 20
29.86110105843022
 30
0.0
  0
VERTEX
  5
58A
  8
AVAILABLE_WASTE_AREA_FOR_O
 10
68.23269398558203
 20
29.80200659828984
 30
0.0
  0
VERTEX
  5
58B
  8
AVAILABLE_WASTE_AREA_FOR_O
 10
68.23706986745559
 20
29.75198211589304
 30
0.0
  0
VERTEX
  5
58C
  8
AVAILABLE_WASTE_AREA_FOR_O
 10
68.2370698674556
 20
28.3410691025254
 30
0.0
  0
VERTEX
  5
58D
  8
AVAILABLE_WASTE_AREA_FOR_O
 10
68.23706986745557
 20
26.93015608911912
 30
0.0
  0
VERTEX
  5
58E
  8
AVAILABLE_WASTE_AREA_FOR_O
 10
68.2326939855719
 20
26.88013160668879
 30
0.0
  0
VERTEX
  5
58F
  8
AVAILABLE_WASTE_AREA_FOR_O
 10
68.21686128915611
 20
26.8210371466019
 30
0.0
  0
VERTEX
  5
590
  8
AVAILABLE_WASTE_AREA_FOR_O
 10
68.1910058762478
 20
26.76559207896037
 30
0.0
  0
VERTEX
  5
591
  8
AVAILABLE_WASTE_AREA_FOR_O
 10
68.15591862216219
 20
26.71548096663471
 30
0.0
  0
VERTEX
  5
592
  8
AVAILABLE_WASTE_AREA_FOR_O
 10
68.11265850335118
 20
26.6722208478283
 30
0.0
  0
VERTEX
  5
593
  8
AVAILABLE_WASTE_AREA_FOR_O
 10
68.06254989281314
 20
26.63713534545974
 30
0.0
  0
VERTEX
  5
594
  8
AVAILABLE_WASTE_AREA_FOR_O
 10
68.00710457866936
 20
26.6112781808478
 30
0.0
  0
VERTEX
  5
595
  8
AVAILABLE_WASTE_AREA_FOR_O
 10
67.94800600040693
 20
26.59544532145493
 30
0.0
  0
VERTEX
  5
596
  8
AVAILABLE_WASTE_AREA_FOR_O
 10
67.89798338085544
 20
26.59106960252567
 30
0.0
  0
VERTEX
  5
597
  8
AVAILABLE_WASTE_AREA_FOR_O
 10
67.5557734093536
 20
26.59106960252557
 30
0.0
  0
VERTEX
  5
598
  8
AVAILABLE_WASTE_AREA_FOR_O
 10
67.53631335886168
 20
26.59182814041533
 30
0.0
  0
VERTEX
  5
599
  8
AVAILABLE_WASTE_AREA_FOR_O
 10
67.5370717271637
 20
26.57237019679263
 30
0.0
  0
VERTEX
  5
59A
  8
AVAILABLE_WASTE_AREA_FOR_O
 10
67.53706951648574
 20
18.10976915776035
 30
0.0
  0
VERTEX
  5
59B
  8
AVAILABLE_WASTE_AREA_FOR_O
 10
67.53631106118853
 20
18.09031023043759
 30
0.0
  0
VERTEX
  5
59C
  8
AVAILABLE_WASTE_AREA_FOR_O
 10
67.55576898799768
 20
18.09106860252546
 30
0.0
  0
VERTEX
  5
59D
  8
AVAILABLE_WASTE_AREA_FOR_O
 10
67.89798338081724
 20
18.09106860252535
 30
0.0
  0
VERTEX
  5
59E
  8
AVAILABLE_WASTE_AREA_FOR_O
 10
67.94800600033099
 20
18.08669288361283
 30
0.0
  0
VERTEX
  5
59F
  8
AVAILABLE_WASTE_AREA_FOR_O
 10
68.00710457863735
 20
18.07086002421461
 30
0.0
  0
VERTEX
  5
5A0
  8
AVAILABLE_WASTE_AREA_FOR_O
 10
68.06254989277406
 20
18.04500285961353
 30
0.0
  0
VERTEX
  5
5A1
  8
AVAILABLE_WASTE_AREA_FOR_O
 10
68.11265850333385
 20
18.0099173572429
 30
0.0
  0
VERTEX
  5
5A2
  8
AVAILABLE_WASTE_AREA_FOR_O
 10
68.15591862217869
 20
17.96665723839749
 30
0.0
  0
VERTEX
  5
5A3
  8
AVAILABLE_WASTE_AREA_FOR_O
 10
68.19100587621244
 20
17.91654612612905
 30
0.0
  0
VERTEX
  5
5A4
  8
AVAILABLE_WASTE_AREA_FOR_O
 10
68.21686128916332
 20
17.86110105846103
 30
0.0
  0
VERTEX
  5
5A5
  8
AVAILABLE_WASTE_AREA_FOR_O
 10
68.23269398558443
 20
17.80200659826198
 30
0.0
  0
VERTEX
  5
5A6
  8
AVAILABLE_WASTE_AREA_FOR_O
 10
68.23706986745569
 20
17.7519821158462
 30
0.0
  0
VERTEX
  5
5A7
  8
AVAILABLE_WASTE_AREA_FOR_O
 10
68.2370698674556
 20
16.3410691025254
 30
0.0
  0
VERTEX
  5
5A8
  8
AVAILABLE_WASTE_AREA_FOR_O
 10
68.23706986745557
 20
14.93015608915664
 30
0.0
  0
VERTEX
  5
5A9
  8
AVAILABLE_WASTE_AREA_FOR_O
 10
68.23269398557943
 20
14.880131606742
 30
0.0
  0
VERTEX
  5
5AA
  8
AVAILABLE_WASTE_AREA_FOR_O
 10
68.21686128915238
 20
14.82103714659394
 30
0.0
  0
VERTEX
  5
5AB
  8
AVAILABLE_WASTE_AREA_FOR_O
 10
68.1910058762495
 20
14.76559207897412
 30
0.0
  0
VERTEX
  5
5AC
  8
AVAILABLE_WASTE_AREA_FOR_O
 10
68.15591862219394
 20
14.71548096667573
 30
0.0
  0
VERTEX
  5
5AD
  8
AVAILABLE_WASTE_AREA_FOR_O
 10
68.1126585033402
 20
14.67222084781264
 30
0.0
  0
VERTEX
  5
5AE
  8
AVAILABLE_WASTE_AREA_FOR_O
 10
68.06254989275675
 20
14.63713534542625
 30
0.0
  0
VERTEX
  5
5AF
  8
AVAILABLE_WASTE_AREA_FOR_O
 10
68.00710457867154
 20
14.61127818085293
 30
0.0
  0
VERTEX
  5
5B0
  8
AVAILABLE_WASTE_AREA_FOR_O
 10
67.94800600041002
 20
14.5954453214552
 30
0.0
  0
VERTEX
  5
5B1
  8
AVAILABLE_WASTE_AREA_FOR_O
 10
67.89798338086291
 20
14.59106960252532
 30
0.0
  0
VERTEX
  5
5B2
  8
AVAILABLE_WASTE_AREA_FOR_O
 10
67.5557734093536
 20
14.59106960252557
 30
0.0
  0
VERTEX
  5
5B3
  8
AVAILABLE_WASTE_AREA_FOR_O
 10
67.53631335885778
 20
14.59182814041563
 30
0.0
  0
VERTEX
  5
5B4
  8
AVAILABLE_WASTE_AREA_FOR_O
 10
67.5370717271637
 20
14.57237019462472
 30
0.0
  0
VERTEX
  5
5B5
  8
AVAILABLE_WASTE_AREA_FOR_O
 10
67.53707038369436
 20
9.5910697096122
 30
0.0
  0
VERTEX
  5
5B6
  8
AVAILABLE_WASTE_AREA_FOR_O
 10
67.53707038369436
 20
8.158435802915292
 30
0.0
  0
VERTEX
  5
5B7
  8
AVAILABLE_WASTE_AREA_FOR_O
 10
78.97000131282203
 20
8.158435802915138
 30
0.0
  0
VERTEX
  5
5B8
  8
AVAILABLE_WASTE_AREA_FOR_O
 10
78.97000131282202
 20
0.2499999999999998
 30
0.0
  0
VERTEX
  5
5B9
  8
AVAILABLE_WASTE_AREA_FOR_O
 10
95.75
 20
0.25
 30
0.0
  0
VERTEX
  5
5BA
  8
AVAILABLE_WASTE_AREA_FOR_O
 10
95.75
 20
47.75
 30
0.0
  0
VERTEX
  5
5BB
  8
AVAILABLE_WASTE_AREA_FOR_O
 10
67.53707062182491
 20
47.75
 30
0.0
  0
VERTEX
  5
5BC
  8
AVAILABLE_WASTE_AREA_FOR_O
 10
67.53707062182491
 20
47.0910697141052
 30
0.0
  0
VERTEX
  5
5BD
  8
AVAILABLE_WASTE_AREA_FOR_O
 10
67.53706951648576
 20
42.1097691675932
 30
0.0
  0
VERTEX
  5
5BE
  8
AVAILABLE_WASTE_AREA_FOR_O
 10
67.53631106118853
 20
42.09031023043758
 30
0.0
  0
VERTEX
  5
5BF
  8
AVAILABLE_WASTE_AREA_FOR_O
 10
67.55576898799768
 20
42.09106860252545
 30
0.0
  0
VERTEX
  5
5C0
  8
AVAILABLE_WASTE_AREA_FOR_O
 10
67.8979833806676
 20
42.09106860252535
 30
0.0
  0
VERTEX
  5
5C1
  8
AVAILABLE_WASTE_AREA_FOR_O
 10
67.94800600023609
 20
42.08669288362474
 30
0.0
  0
VERTEX
  5
5C2
  8
AVAILABLE_WASTE_AREA_FOR_O
 10
68.00710457860367
 20
42.07086002423029
 30
0.0
  0
VERTEX
  5
5C3
  8
AVAILABLE_WASTE_AREA_FOR_O
 10
68.06254989272412
 20
42.04500285963252
 30
0.0
  0
VERTEX
  5
5C4
  8
AVAILABLE_WASTE_AREA_FOR_O
 10
68.11265850337406
 20
42.00991735722118
 30
0.0
  0
VERTEX
  5
5C5
  8
AVAILABLE_WASTE_AREA_FOR_O
 10
68.15591862220776
 20
41.96665723835611
 30
0.0
  0
VERTEX
  5
5C6
  8
AVAILABLE_WASTE_AREA_FOR_O
 10
68.19100587618931
 20
41.91654612617867
 30
0.0
  0
VERTEX
  5
5C7
  8
AVAILABLE_WASTE_AREA_FOR_O
 10
68.2168612891947
 20
41.86110105839424
 30
0.0
  0
VERTEX
  5
5C8
  8
AVAILABLE_WASTE_AREA_FOR_O
 10
68.23269398558821
 20
41.8020065982189
 30
0.0
  0
VERTEX
  5
5C9
  8
AVAILABLE_WASTE_AREA_FOR_O
 10
68.23706986745569
 20
41.75198211586951
 30
0.0
  0
VERTEX
  5
5CA
  8
AVAILABLE_WASTE_AREA_FOR_O
 10
68.2370698674556
 20
40.34106910252539
 30
0.0
  0
VERTEX
  5
5CB
  8
AVAILABLE_WASTE_AREA_FOR_O
 10
68.23706986745573
 20
38.9301560893831
 30
0.0
  0
VERTEX
  5
5CC
  8
AVAILABLE_WASTE_AREA_FOR_O
 10
68.23269398559572
 20
38.88013160677764
 30
0.0
  0
VERTEX
  5
5CD
  8
AVAILABLE_WASTE_AREA_FOR_O
 10
68.21686128914469
 20
38.8210371465465
 30
0.0
  0
VERTEX
  5
5CE
  8
AVAILABLE_WASTE_AREA_FOR_O
 10
68.19100587616926
 20
38.76559207882539
 30
0.0
  0
VERTEX
  5
5CF
  8
AVAILABLE_WASTE_AREA_FOR_O
 10
68.15591862218058
 20
38.71548096667159
 30
0.0
  0
VERTEX
  5
5D0
  8
AVAILABLE_WASTE_AREA_FOR_O
 10
68.11265850336719
 20
38.67222084783951
 30
0.0
  0
VERTEX
  5
5D1
  8
AVAILABLE_WASTE_AREA_FOR_O
 10
68.06254989279805
 20
38.63713534545271
 30
0.0
  0
VERTEX
  5
5D2
  8
AVAILABLE_WASTE_AREA_FOR_O
 10
68.00710457873282
 20
38.61127818088286
 30
0.0
  0
VERTEX
  5
5D3
  8
AVAILABLE_WASTE_AREA_FOR_O
 10
67.94800600043094
 20
38.59544532145702
 30
0.0
  0
VERTEX
  5
5D4
  8
AVAILABLE_WASTE_AREA_FOR_O
 10
67.89798338080305
 20
38.59106960252635
 30
0.0
  0
VERTEX
  5
5D5
  8
AVAILABLE_WASTE_AREA_FOR_O
 10
67.5557734093536
 20
38.59106960252556
 30
0.0
  0
VERTEX
  5
5D6
  8
AVAILABLE_WASTE_AREA_FOR_O
 10
67.53631335700106
 20
38.59182814227781
 30
0.0
  0
VERTEX
  5
5D7
  8
AVAILABLE_WASTE_AREA_FOR_O
 10
67.5370717271637
 20
38.57237019681831
 30
0.0
  0
VERTEX
  5
5D8
  8
AVAILABLE_WASTE_AREA_FOR_O
 10
67.53706951648574
 20
30.10976915776034
 30
0.0
  0
VERTEX
  5
5D9
  8
AVAILABLE_WASTE_AREA_FOR_O
 10
67.53631106118853
 20
30.09031023043758
 30
0.0
  0
VERTEX
  5
5DA
  8
AVAILABLE_WASTE_AREA_FOR_O
 10
67.55576898799768
 20
30.09106860252545
 30
0.0
  0
VERTEX
  5
5DB
  8
AVAILABLE_WASTE_AREA_FOR_O
 10
67.89798338081727
 20
30.09106860252535
 30
0.0
  0
VERTEX
  5
5DC
  8
AVAILABLE_WASTE_AREA_FOR_O
 10
67.94800600040523
 20
30.08669288360645
 30
0.0
  0
VERTEX
  5
5DD
  8
AVAILABLE_WASTE_AREA_FOR_O
 10
68.00710457869516
 20
30.07086002418765
 30
0.0
  0
VERTEX
  5
5DE
  8
AVAILABLE_WASTE_AREA_FOR_O
 10
68.06254989279677
 20
30.04500285959762
 30
0.0
  0
VERTEX
  5
5DF
  8
AVAILABLE_WASTE_AREA_FOR_O
 10
68.11265850334087
 20
30.00991735723704
 30
0.0
  0
VERTEX
  5
5E0
  8
AVAILABLE_WASTE_AREA_FOR_O
 10
68.15591862219836
 20
29.96665723836946
 30
0.0
  0
VERTEX
  5
5E1
  8
AVAILABLE_WASTE_AREA_FOR_O
 10
68.19100587624769
 20
29.91654612608443
 30
0.0
  0
SEQEND
  5
625
  8
AVAILABLE_WASTE_AREA_FOR_O
  0
ENDSEC
  0
EOF
