  0
SECTION
  2
HEADER
  9
$ACADVER
  1
AC1009
  9
$DWGCODEPAGE
  3
ansi_1252
  9
$INSBASE
 10
0.0
 20
0.0
 30
0.0
  9
$EXTMIN
 10
3.214840462877604
 20
1.135234032561051
 30
0.0
  9
$EXTMAX
 10
92.34999962281421
 20
47.06803474160598
 30
0.0
  9
$LIMMIN
 10
0.0
 20
0.0
  9
$LIMMAX
 10
12.0
 20
9.0
  9
$ORTHOMODE
 70
     0
  9
$REGENMODE
 70
     1
  9
$FILLMODE
 70
     1
  9
$QTEXTMODE
 70
     0
  9
$MIRRTEXT
 70
     1
  9
$DRAGMODE
 70
     2
  9
$LTSCALE
 40
1.0
  9
$OSMODE
 70
    37
  9
$ATTMODE
 70
     1
  9
$TEXTSIZE
 40
0.2
  9
$TRACEWID
 40
0.05
  9
$TEXTSTYLE
  7
STANDARD
  9
$CLAYER
  8
0
  9
$CELTYPE
  6
BYLAYER
  9
$CECOLOR
 62
   256
  9
$DIMSCALE
 40
1.0
  9
$DIMASZ
 40
0.18
  9
$DIMEXO
 40
0.0625
  9
$DIMDLI
 40
0.38
  9
$DIMRND
 40
0.0
  9
$DIMDLE
 40
0.0
  9
$DIMEXE
 40
0.18
  9
$DIMTP
 40
0.0
  9
$DIMTM
 40
0.0
  9
$DIMTXT
 40
0.18
  9
$DIMCEN
 40
0.09
  9
$DIMTSZ
 40
0.0
  9
$DIMTOL
 70
     0
  9
$DIMLIM
 70
     0
  9
$DIMTIH
 70
     1
  9
$DIMTOH
 70
     1
  9
$DIMSE1
 70
     0
  9
$DIMSE2
 70
     0
  9
$DIMTAD
 70
     0
  9
$DIMZIN
 70
     0
  9
$DIMBLK
  1

  9
$DIMASO
 70
     1
  9
$DIMSHO
 70
     1
  9
$DIMPOST
  1

  9
$DIMAPOST
  1

  9
$DIMALT
 70
     0
  9
$DIMALTD
 70
     2
  9
$DIMALTF
 40
25.4
  9
$DIMLFAC
 40
1.0
  9
$DIMTOFL
 70
     0
  9
$DIMTVP
 40
0.0
  9
$DIMTIX
 70
     0
  9
$DIMSOXD
 70
     0
  9
$DIMSAH
 70
     0
  9
$DIMBLK1
  1

  9
$DIMBLK2
  1

  9
$DIMSTYLE
  2
STANDARD
  9
$DIMCLRD
 70
     0
  9
$DIMCLRE
 70
     0
  9
$DIMCLRT
 70
     0
  9
$DIMTFAC
 40
1.0
  9
$DIMGAP
 40
0.09
  9
$LUNITS
 70
     2
  9
$LUPREC
 70
     4
  9
$SKETCHINC
 40
0.1
  9
$FILLETRAD
 40
0.5
  9
$AUNITS
 70
     0
  9
$AUPREC
 70
     0
  9
$MENU
  1
.
  9
$ELEVATION
 40
0.0
  9
$PELEVATION
 40
0.0
  9
$THICKNESS
 40
0.0
  9
$LIMCHECK
 70
     0
  9
$CHAMFERA
 40
0.0
  9
$CHAMFERB
 40
0.0
  9
$SKPOLY
 70
     0
  9
$TDCREATE
 40
2454910.5
  9
$TDUPDATE
 40
2457898.616885856
  9
$TDINDWG
 40
0.0000000116
  9
$TDUSRTIMER
 40
0.0000000116
  9
$USRTIMER
 70
     1
  9
$ANGBASE
 50
0.0
  9
$ANGDIR
 70
     0
  9
$PDMODE
 70
     0
  9
$PDSIZE
 40
0.0
  9
$PLINEWID
 40
0.0
  9
$COORDS
 70
     1
  9
$SPLFRAME
 70
     0
  9
$SPLINETYPE
 70
     6
  9
$SPLINESEGS
 70
     8
  9
$ATTDIA
 70
     0
  9
$ATTREQ
 70
     1
  9
$HANDLING
 70
     1
  9
$HANDSEED
  5
282
  9
$SURFTAB1
 70
     6
  9
$SURFTAB2
 70
     6
  9
$SURFTYPE
 70
     6
  9
$SURFU
 70
     6
  9
$SURFV
 70
     6
  9
$UCSNAME
  2

  9
$UCSORG
 10
0.0
 20
0.0
 30
0.0
  9
$UCSXDIR
 10
1.0
 20
0.0
 30
0.0
  9
$UCSYDIR
 10
0.0
 20
1.0
 30
0.0
  9
$PUCSNAME
  2

  9
$PUCSORG
 10
0.0
 20
0.0
 30
0.0
  9
$PUCSXDIR
 10
1.0
 20
0.0
 30
0.0
  9
$PUCSYDIR
 10
0.0
 20
1.0
 30
0.0
  9
$USERI1
 70
     0
  9
$USERI2
 70
     0
  9
$USERI3
 70
     0
  9
$USERI4
 70
     0
  9
$USERI5
 70
     0
  9
$USERR1
 40
0.0
  9
$USERR2
 40
0.0
  9
$USERR3
 40
0.0
  9
$USERR4
 40
0.0
  9
$USERR5
 40
0.0
  9
$WORLDVIEW
 70
     1
  9
$SHADEDGE
 70
     3
  9
$SHADEDIF
 70
    70
  9
$TILEMODE
 70
     1
  9
$MAXACTVP
 70
    64
  9
$PLIMCHECK
 70
     0
  9
$PEXTMIN
 10
1.000000000000000E+20
 20
1.000000000000000E+20
 30
1.000000000000000E+20
  9
$PEXTMAX
 10
-1.000000000000000E+20
 20
-1.000000000000000E+20
 30
-1.000000000000000E+20
  9
$PLIMMIN
 10
0.0
 20
0.0
  9
$PLIMMAX
 10
12.0
 20
9.0
  9
$UNITMODE
 70
     0
  9
$VISRETAIN
 70
     1
  9
$PLINEGEN
 70
     0
  9
$PSLTSCALE
 70
     1
  0
ENDSEC
  0
SECTION
  2
TABLES
  0
TABLE
  2
VPORT
 70
     1
  0
VPORT
  2
*ACTIVE
 70
     0
 10
0.0
 20
0.0
 11
1.0
 21
1.0
 12
10.42990654205607
 22
4.5
 13
0.0
 23
0.0
 14
0.5
 24
0.5
 15
0.5
 25
0.5
 16
0.0
 26
0.0
 36
1.0
 17
0.0
 27
0.0
 37
0.0
 40
9.0
 41
1.972972972850329
 42
50.0
 43
0.0
 44
0.0
 50
0.0
 51
0.0
 71
     0
 72
   100
 73
     1
 74
     3
 75
     0
 76
     0
 77
     0
 78
     0
  0
ENDTAB
  0
TABLE
  2
LTYPE
 70
     2
  0
LTYPE
  2
CONTINUOUS
 70
     0
  3
Solid line
 72
    65
 73
     0
 40
0.0
  0
LTYPE
  2
CONTINUOUS2
 70
     0
  3
Solid Line
 72
    65
 73
     0
 40
0.0
  0
ENDTAB
  0
TABLE
  2
LAYER
 70
     4
  0
LAYER
  2
0
 70
     0
 62
     7
  6
CONTINUOUS
  0
LAYER
  2
SCREW_LOCATION_RECESS
 70
     0
 62
     1
  6
CONTINUOUS
  0
LAYER
  2
LABELS
 70
     0
 62
   150
  6
CONTINUOUS
  0
LAYER
  2
THREE_QUARTER_INCH_THRUCUT
 70
     0
 62
    18
  6
CONTINUOUS
  0
ENDTAB
  0
TABLE
  2
STYLE
 70
     1
  0
STYLE
  2
STANDARD
 70
     0
 40
0.0
 41
1.0
 50
0.0
 71
     0
 42
0.2
  3
txt
  4

  0
ENDTAB
  0
TABLE
  2
VIEW
 70
     0
  0
ENDTAB
  0
TABLE
  2
UCS
 70
     0
  0
ENDTAB
  0
TABLE
  2
APPID
 70
     1
  0
APPID
  2
ACAD
 70
     0
  0
ENDTAB
  0
TABLE
  2
DIMSTYLE
 70
     1
  0
DIMSTYLE
  2
STANDARD
 70
     0
  3

  4

  5

  6

  7

 40
1.0
 41
0.18
 42
0.0625
 43
0.38
 44
0.18
 45
0.0
 46
0.0
 47
0.0
 48
0.0
140
0.18
141
0.09
142
0.0
143
25.4
144
1.0
145
0.0
146
1.0
147
0.09
 71
     0
 72
     0
 73
     1
 74
     1
 75
     0
 76
     0
 77
     0
 78
     0
170
     0
171
     2
172
     0
173
     0
174
     0
175
     0
176
     0
177
     0
178
     0
  0
ENDTAB
  0
ENDSEC
  0
SECTION
  2
BLOCKS
  0
BLOCK
  8
0
  2
$MODEL_SPACE
 70
     0
 10
0.0
 20
0.0
 30
0.0
  3
$MODEL_SPACE
  1

  0
ENDBLK
  5
21
  8
0
  0
BLOCK
 67
     1
  8
0
  2
$PAPER_SPACE
 70
     0
 10
0.0
 20
0.0
 30
0.0
  3
$PAPER_SPACE
  1

  0
ENDBLK
  5
1D
 67
     1
  8
0
  0
ENDSEC
  0
SECTION
  2
ENTITIES
  0
POLYLINE
  5
70
  8
SCREW_LOCATION_RECESS
 66
     1
 10
0.0
 20
0.0
 30
0.0
 70
     1
  0
VERTEX
  5
96
  8
SCREW_LOCATION_RECESS
 10
87.22499962154137
 20
9.948034770377518
 30
0.0
 42
0.4142135623730951
  0
VERTEX
  5
97
  8
SCREW_LOCATION_RECESS
 10
87.09499962153123
 20
9.818034770387584
 30
0.0
 42
0.4142135623730951
  0
VERTEX
  5
98
  8
SCREW_LOCATION_RECESS
 10
87.22499962152112
 20
9.688034770377556
 30
0.0
 42
0.4142135623730951
  0
VERTEX
  5
99
  8
SCREW_LOCATION_RECESS
 10
87.35499962153126
 20
9.818034770367333
 30
0.0
 42
0.4142135623730951
  0
SEQEND
  5
265
  8
SCREW_LOCATION_RECESS
  0
POLYLINE
  5
71
  8
SCREW_LOCATION_RECESS
 66
     1
 10
0.0
 20
0.0
 30
0.0
 70
     1
  0
VERTEX
  5
9A
  8
SCREW_LOCATION_RECESS
 10
76.22499962153037
 20
9.688034771240595
 30
0.0
 42
-0.4142135623730976
  0
VERTEX
  5
9B
  8
SCREW_LOCATION_RECESS
 10
76.0949996215405
 20
9.818034771250616
 30
0.0
 42
-0.4142135623730951
  0
VERTEX
  5
9C
  8
SCREW_LOCATION_RECESS
 10
76.22499962155064
 20
9.948034771240529
 30
0.0
 42
-0.4142135623730951
  0
VERTEX
  5
9D
  8
SCREW_LOCATION_RECESS
 10
76.35499962154056
 20
9.818034771230366
 30
0.0
 42
-0.4142135623730976
  0
SEQEND
  5
266
  8
SCREW_LOCATION_RECESS
  0
POLYLINE
  5
72
  8
SCREW_LOCATION_RECESS
 66
     1
 10
0.0
 20
0.0
 30
0.0
 70
     1
  0
VERTEX
  5
9E
  8
SCREW_LOCATION_RECESS
 10
70.34999962280656
 20
9.688034771266096
 30
0.0
 42
-0.4142135623730976
  0
VERTEX
  5
9F
  8
SCREW_LOCATION_RECESS
 10
70.21999962281667
 20
9.818034771276118
 30
0.0
 42
-0.4142135623730951
  0
VERTEX
  5
A0
  8
SCREW_LOCATION_RECESS
 10
70.34999962282681
 20
9.94803477126603
 30
0.0
 42
-0.4142135623730951
  0
VERTEX
  5
A1
  8
SCREW_LOCATION_RECESS
 10
70.47999962281673
 20
9.818034771255867
 30
0.0
 42
-0.4142135623730976
  0
SEQEND
  5
267
  8
SCREW_LOCATION_RECESS
  0
POLYLINE
  5
73
  8
SCREW_LOCATION_RECESS
 66
     1
 10
0.0
 20
0.0
 30
0.0
 70
     1
  0
VERTEX
  5
A2
  8
SCREW_LOCATION_RECESS
 10
8.724999624091055
 20
9.948034766949789
 30
0.0
 42
-0.4142135623730951
  0
VERTEX
  5
A3
  8
SCREW_LOCATION_RECESS
 10
8.854999624101211
 20
9.818034766959862
 30
0.0
 42
-0.4142135623730951
  0
VERTEX
  5
A4
  8
SCREW_LOCATION_RECESS
 10
8.724999624111312
 20
9.68803476694984
 30
0.0
 42
-0.4142135623730951
  0
VERTEX
  5
A5
  8
SCREW_LOCATION_RECESS
 10
8.594999624101163
 20
9.818034766939604
 30
0.0
 42
-0.4142135623730951
  0
SEQEND
  5
268
  8
SCREW_LOCATION_RECESS
  0
POLYLINE
  5
74
  8
SCREW_LOCATION_RECESS
 66
     1
 10
0.0
 20
0.0
 30
0.0
 70
     1
  0
VERTEX
  5
A6
  8
SCREW_LOCATION_RECESS
 10
41.72499962409105
 20
9.948034769520582
 30
0.0
 42
-0.4142135623730951
  0
VERTEX
  5
A7
  8
SCREW_LOCATION_RECESS
 10
41.8549996241012
 20
9.818034769530655
 30
0.0
 42
-0.4142135623730951
  0
VERTEX
  5
A8
  8
SCREW_LOCATION_RECESS
 10
41.72499962411131
 20
9.68803476952062
 30
0.0
 42
-0.4142135623730951
  0
VERTEX
  5
A9
  8
SCREW_LOCATION_RECESS
 10
41.59499962410116
 20
9.818034769510398
 30
0.0
 42
-0.4142135623730951
  0
SEQEND
  5
269
  8
SCREW_LOCATION_RECESS
  0
POLYLINE
  5
75
  8
SCREW_LOCATION_RECESS
 66
     1
 10
0.0
 20
0.0
 30
0.0
 70
     1
  0
VERTEX
  5
AA
  8
SCREW_LOCATION_RECESS
 10
19.72499962411131
 20
9.68803476780677
 30
0.0
 42
0.4142135623730951
  0
VERTEX
  5
AB
  8
SCREW_LOCATION_RECESS
 10
19.85499962410118
 20
9.81803476781679
 30
0.0
 42
0.4142135623730951
  0
VERTEX
  5
AC
  8
SCREW_LOCATION_RECESS
 10
19.72499962409105
 20
9.948034767806703
 30
0.0
 42
0.4142135623730951
  0
VERTEX
  5
AD
  8
SCREW_LOCATION_RECESS
 10
19.59499962410113
 20
9.818034767796533
 30
0.0
 42
0.4142135623730951
  0
SEQEND
  5
26A
  8
SCREW_LOCATION_RECESS
  0
POLYLINE
  5
76
  8
SCREW_LOCATION_RECESS
 66
     1
 10
0.0
 20
0.0
 30
0.0
 70
     1
  0
VERTEX
  5
AE
  8
SCREW_LOCATION_RECESS
 10
30.72499962411131
 20
9.688034768663698
 30
0.0
 42
0.4142135623730951
  0
VERTEX
  5
AF
  8
SCREW_LOCATION_RECESS
 10
30.85499962410118
 20
9.818034768673726
 30
0.0
 42
0.4142135623730951
  0
VERTEX
  5
B0
  8
SCREW_LOCATION_RECESS
 10
30.72499962409105
 20
9.94803476866364
 30
0.0
 42
0.4142135623730951
  0
VERTEX
  5
B1
  8
SCREW_LOCATION_RECESS
 10
30.59499962410113
 20
9.818034768653462
 30
0.0
 42
0.4142135623730951
  0
SEQEND
  5
26B
  8
SCREW_LOCATION_RECESS
  0
POLYLINE
  5
77
  8
SCREW_LOCATION_RECESS
 66
     1
 10
0.0
 20
0.0
 30
0.0
 70
     1
  0
VERTEX
  5
B2
  8
SCREW_LOCATION_RECESS
 10
52.72499962409105
 20
9.948034770377518
 30
0.0
 42
-0.4142135623730951
  0
VERTEX
  5
B3
  8
SCREW_LOCATION_RECESS
 10
52.8549996241012
 20
9.818034770387584
 30
0.0
 42
-0.4142135623730951
  0
VERTEX
  5
B4
  8
SCREW_LOCATION_RECESS
 10
52.72499962411131
 20
9.688034770377556
 30
0.0
 42
-0.4142135623730951
  0
VERTEX
  5
B5
  8
SCREW_LOCATION_RECESS
 10
52.59499962410116
 20
9.818034770367333
 30
0.0
 42
-0.4142135623730951
  0
SEQEND
  5
26C
  8
SCREW_LOCATION_RECESS
  0
POLYLINE
  5
78
  8
SCREW_LOCATION_RECESS
 66
     1
 10
0.0
 20
0.0
 30
0.0
 70
     1
  0
VERTEX
  5
B6
  8
SCREW_LOCATION_RECESS
 10
63.72499962410205
 20
9.688034771240595
 30
0.0
 42
0.4142135623730976
  0
VERTEX
  5
B7
  8
SCREW_LOCATION_RECESS
 10
63.85499962409193
 20
9.818034771250616
 30
0.0
 42
0.4142135623730951
  0
VERTEX
  5
B8
  8
SCREW_LOCATION_RECESS
 10
63.72499962408179
 20
9.948034771240529
 30
0.0
 42
0.4142135623730951
  0
VERTEX
  5
B9
  8
SCREW_LOCATION_RECESS
 10
63.59499962409187
 20
9.818034771230366
 30
0.0
 42
0.4142135623730976
  0
SEQEND
  5
26D
  8
SCREW_LOCATION_RECESS
  0
POLYLINE
  5
79
  8
SCREW_LOCATION_RECESS
 66
     1
 10
0.0
 20
0.0
 30
0.0
 70
     1
  0
VERTEX
  5
BA
  8
SCREW_LOCATION_RECESS
 10
4.724999622795472
 20
9.948034766744229
 30
0.0
 42
-0.4142135623730951
  0
VERTEX
  5
BB
  8
SCREW_LOCATION_RECESS
 10
4.854999622805629
 20
9.818034766754302
 30
0.0
 42
-0.4142135623730951
  0
VERTEX
  5
BC
  8
SCREW_LOCATION_RECESS
 10
4.72499962281573
 20
9.68803476674428
 30
0.0
 42
-0.4142135623730951
  0
VERTEX
  5
BD
  8
SCREW_LOCATION_RECESS
 10
4.594999622805581
 20
9.818034766734044
 30
0.0
 42
-0.4142135623730951
  0
SEQEND
  5
26E
  8
SCREW_LOCATION_RECESS
  0
POLYLINE
  5
7A
  8
SCREW_LOCATION_RECESS
 66
     1
 10
0.0
 20
0.0
 30
0.0
 70
     1
  0
VERTEX
  5
BE
  8
SCREW_LOCATION_RECESS
 10
69.97499962280526
 20
35.82303474159091
 30
0.0
 42
0.4142135623730951
  0
VERTEX
  5
BF
  8
SCREW_LOCATION_RECESS
 10
69.84499962280523
 20
35.69303474159091
 30
0.0
 42
0.4142135623730951
  0
VERTEX
  5
C0
  8
SCREW_LOCATION_RECESS
 10
69.97499962280526
 20
35.56303474159095
 30
0.0
 42
0.4142135623730951
  0
VERTEX
  5
C1
  8
SCREW_LOCATION_RECESS
 10
70.10499962280528
 20
35.69303474159091
 30
0.0
 42
0.4142135623730951
  0
SEQEND
  5
26F
  8
SCREW_LOCATION_RECESS
  0
POLYLINE
  5
7B
  8
SCREW_LOCATION_RECESS
 66
     1
 10
0.0
 20
0.0
 30
0.0
 70
     1
  0
VERTEX
  5
C2
  8
SCREW_LOCATION_RECESS
 10
69.97499962354573
 20
16.81303474330478
 30
0.0
 42
-0.4142135623730951
  0
VERTEX
  5
C3
  8
SCREW_LOCATION_RECESS
 10
69.84499962353559
 20
16.94303474329464
 30
0.0
 42
-0.4142135623730951
  0
VERTEX
  5
C4
  8
SCREW_LOCATION_RECESS
 10
69.97499962352548
 20
17.07303474330474
 30
0.0
 42
-0.4142135623730951
  0
VERTEX
  5
C5
  8
SCREW_LOCATION_RECESS
 10
70.10499962353562
 20
16.94303474331489
 30
0.0
 42
-0.4142135623730951
  0
SEQEND
  5
270
  8
SCREW_LOCATION_RECESS
  0
POLYLINE
  5
7C
  8
SCREW_LOCATION_RECESS
 66
     1
 10
0.0
 20
0.0
 30
0.0
 70
     1
  0
VERTEX
  5
C6
  8
SCREW_LOCATION_RECESS
 10
47.97499962280451
 20
35.82303474159364
 30
0.0
 42
0.4142135623730951
  0
VERTEX
  5
C7
  8
SCREW_LOCATION_RECESS
 10
47.84499962280449
 20
35.69303474159364
 30
0.0
 42
0.4142135623730951
  0
VERTEX
  5
C8
  8
SCREW_LOCATION_RECESS
 10
47.97499962280451
 20
35.56303474159368
 30
0.0
 42
0.4142135623730951
  0
VERTEX
  5
C9
  8
SCREW_LOCATION_RECESS
 10
48.10499962280453
 20
35.69303474159364
 30
0.0
 42
0.4142135623730951
  0
SEQEND
  5
271
  8
SCREW_LOCATION_RECESS
  0
POLYLINE
  5
7D
  8
SCREW_LOCATION_RECESS
 66
     1
 10
0.0
 20
0.0
 30
0.0
 70
     1
  0
VERTEX
  5
CA
  8
SCREW_LOCATION_RECESS
 10
47.97499962354498
 20
16.81303474330751
 30
0.0
 42
-0.4142135623730951
  0
VERTEX
  5
CB
  8
SCREW_LOCATION_RECESS
 10
47.84499962353483
 20
16.94303474329736
 30
0.0
 42
-0.4142135623730951
  0
VERTEX
  5
CC
  8
SCREW_LOCATION_RECESS
 10
47.97499962352473
 20
17.07303474330747
 30
0.0
 42
-0.4142135623730951
  0
VERTEX
  5
CD
  8
SCREW_LOCATION_RECESS
 10
48.10499962353487
 20
16.94303474331761
 30
0.0
 42
-0.4142135623730951
  0
SEQEND
  5
272
  8
SCREW_LOCATION_RECESS
  0
POLYLINE
  5
7E
  8
SCREW_LOCATION_RECESS
 66
     1
 10
0.0
 20
0.0
 30
0.0
 70
     1
  0
VERTEX
  5
CE
  8
SCREW_LOCATION_RECESS
 10
25.9749996228045
 20
35.82303474159
 30
0.0
 42
0.4142135623730951
  0
VERTEX
  5
CF
  8
SCREW_LOCATION_RECESS
 10
25.84499962280449
 20
35.69303474159
 30
0.0
 42
0.4142135623730951
  0
VERTEX
  5
D0
  8
SCREW_LOCATION_RECESS
 10
25.9749996228045
 20
35.56303474159004
 30
0.0
 42
0.4142135623730951
  0
VERTEX
  5
D1
  8
SCREW_LOCATION_RECESS
 10
26.10499962280453
 20
35.69303474159
 30
0.0
 42
0.4142135623730951
  0
SEQEND
  5
273
  8
SCREW_LOCATION_RECESS
  0
POLYLINE
  5
7F
  8
SCREW_LOCATION_RECESS
 66
     1
 10
0.0
 20
0.0
 30
0.0
 70
     1
  0
VERTEX
  5
D2
  8
SCREW_LOCATION_RECESS
 10
25.97499962354497
 20
16.81303474330387
 30
0.0
 42
-0.4142135623730951
  0
VERTEX
  5
D3
  8
SCREW_LOCATION_RECESS
 10
25.84499962353483
 20
16.94303474329373
 30
0.0
 42
-0.4142135623730951
  0
VERTEX
  5
D4
  8
SCREW_LOCATION_RECESS
 10
25.97499962352472
 20
17.07303474330383
 30
0.0
 42
-0.4142135623730951
  0
VERTEX
  5
D5
  8
SCREW_LOCATION_RECESS
 10
26.10499962353487
 20
16.94303474331398
 30
0.0
 42
-0.4142135623730951
  0
SEQEND
  5
274
  8
SCREW_LOCATION_RECESS
  0
POLYLINE
  5
80
  8
SCREW_LOCATION_RECESS
 66
     1
 10
0.0
 20
0.0
 30
0.0
 70
     1
  0
VERTEX
  5
D6
  8
SCREW_LOCATION_RECESS
 10
91.97499962281424
 20
12.66678474114934
 30
0.0
 42
0.4142135623730976
  0
VERTEX
  5
D7
  8
SCREW_LOCATION_RECESS
 10
91.84499962281426
 20
12.53678474114932
 30
0.0
 42
0.4142135623730951
  0
VERTEX
  5
D8
  8
SCREW_LOCATION_RECESS
 10
91.97499962281424
 20
12.40678474114931
 30
0.0
 42
0.4142135623730951
  0
VERTEX
  5
D9
  8
SCREW_LOCATION_RECESS
 10
92.10499962281423
 20
12.53678474114932
 30
0.0
 42
0.4142135623730976
  0
SEQEND
  5
275
  8
SCREW_LOCATION_RECESS
  0
POLYLINE
  5
81
  8
SCREW_LOCATION_RECESS
 66
     1
 10
0.0
 20
0.0
 30
0.0
 70
     1
  0
VERTEX
  5
DA
  8
SCREW_LOCATION_RECESS
 10
91.97499962281394
 20
41.729284740004
 30
0.0
 42
0.4142135623730951
  0
VERTEX
  5
DB
  8
SCREW_LOCATION_RECESS
 10
91.84499962281396
 20
41.59928474000397
 30
0.0
 42
0.4142135623730951
  0
VERTEX
  5
DC
  8
SCREW_LOCATION_RECESS
 10
91.97499962281394
 20
41.46928474000398
 30
0.0
 42
0.4142135623730951
  0
VERTEX
  5
DD
  8
SCREW_LOCATION_RECESS
 10
92.10499962281393
 20
41.59928474000397
 30
0.0
 42
0.4142135623730951
  0
SEQEND
  5
276
  8
SCREW_LOCATION_RECESS
  0
POLYLINE
  5
83
  8
LABELS
 66
     1
 10
0.0
 20
0.0
 30
0.0
  0
VERTEX
  5
DE
  8
LABELS
 10
6.344331358694561
 20
14.8677074186785
 30
0.0
  0
VERTEX
  5
DF
  8
LABELS
 10
10.34433135869456
 20
13.36370741867859
 30
0.0
  0
VERTEX
  5
E0
  8
LABELS
 10
10.34433135869456
 20
13.25170741867851
 30
0.0
  0
VERTEX
  5
E1
  8
LABELS
 10
7.35233135869457
 20
12.13170741867839
 30
0.0
  0
VERTEX
  5
E2
  8
LABELS
 10
7.35233135869457
 20
14.46770741867841
 30
0.0
  0
VERTEX
  5
E3
  8
LABELS
 10
7.35233135869457
 20
12.13170741867839
 30
0.0
  0
VERTEX
  5
E4
  8
LABELS
 10
6.344331358694561
 20
11.74770741867837
 30
0.0
  0
SEQEND
  5
277
  8
LABELS
  0
POLYLINE
  5
85
  8
THREE_QUARTER_INCH_THRUCUT
 66
     1
 10
0.0
 20
0.0
 30
0.0
 70
     1
  0
VERTEX
  5
E5
  8
THREE_QUARTER_INCH_THRUCUT
 10
7.701635462877613
 20
4.332771407561047
 30
0.0
 42
0.961490096133456
  0
VERTEX
  5
E6
  8
THREE_QUARTER_INCH_THRUCUT
 10
7.748617879484023
 20
3.935859683283495
 30
0.0
 42
0.9614707681241729
  0
VERTEX
  5
E7
  8
THREE_QUARTER_INCH_THRUCUT
 10
7.732922462877614
 20
4.335234407561046
 30
0.0
 42
0.0196430313934635
  0
VERTEX
  5
E8
  8
THREE_QUARTER_INCH_THRUCUT
 10
7.717234580697584
 20
4.334617874186449
 30
0.0
 42
0.0196329840983488
  0
SEQEND
  5
278
  8
THREE_QUARTER_INCH_THRUCUT
  0
POLYLINE
  5
86
  8
THREE_QUARTER_INCH_THRUCUT
 66
     1
 10
0.0
 20
0.0
 30
0.0
 70
     1
  0
VERTEX
  5
E9
  8
THREE_QUARTER_INCH_THRUCUT
 10
29.6981924628776
 20
4.332195407561045
 30
0.0
 42
0.9203497392141604
  0
VERTEX
  5
EA
  8
THREE_QUARTER_INCH_THRUCUT
 10
29.73466673667934
 20
3.935255464204139
 30
0.0
 42
0.920351574329487
  0
VERTEX
  5
EB
  8
THREE_QUARTER_INCH_THRUCUT
 10
29.7642084628776
 20
4.332771407561047
 30
0.0
 42
0.0414759603059265
  0
VERTEX
  5
EC
  8
THREE_QUARTER_INCH_THRUCUT
 10
29.73117613388099
 20
4.335226232418307
 30
0.0
 42
0.0414769555563666
  0
SEQEND
  5
279
  8
THREE_QUARTER_INCH_THRUCUT
  0
POLYLINE
  5
87
  8
THREE_QUARTER_INCH_THRUCUT
 66
     1
 10
0.0
 20
0.0
 30
0.0
 70
     1
  0
VERTEX
  5
ED
  8
THREE_QUARTER_INCH_THRUCUT
 10
3.214840462877604
 20
7.635234032561051
 30
0.0
  0
VERTEX
  5
EE
  8
THREE_QUARTER_INCH_THRUCUT
 10
5.357922462877609
 20
7.635234032561048
 30
0.0
  0
VERTEX
  5
EF
  8
THREE_QUARTER_INCH_THRUCUT
 10
5.357922462877609
 20
6.515234407561053
 30
0.0
  0
VERTEX
  5
F0
  8
THREE_QUARTER_INCH_THRUCUT
 10
5.326649462877611
 20
6.512642407561046
 30
0.0
  0
VERTEX
  5
F1
  8
THREE_QUARTER_INCH_THRUCUT
 10
5.296229462877611
 20
6.504939407561054
 30
0.0
  0
VERTEX
  5
F2
  8
THREE_QUARTER_INCH_THRUCUT
 10
5.267492462877612
 20
6.492334407561046
 30
0.0
  0
VERTEX
  5
F3
  8
THREE_QUARTER_INCH_THRUCUT
 10
5.24122146287761
 20
6.475170407561052
 30
0.0
  0
VERTEX
  5
F4
  8
THREE_QUARTER_INCH_THRUCUT
 10
5.21813446287761
 20
6.45391740756105
 30
0.0
  0
VERTEX
  5
F5
  8
THREE_QUARTER_INCH_THRUCUT
 10
5.198860462877611
 20
6.42915440756105
 30
0.0
  0
VERTEX
  5
F6
  8
THREE_QUARTER_INCH_THRUCUT
 10
5.183925462877609
 20
6.401556407561046
 30
0.0
  0
VERTEX
  5
F7
  8
THREE_QUARTER_INCH_THRUCUT
 10
5.173735462877608
 20
6.371876407561047
 30
0.0
  0
VERTEX
  5
F8
  8
THREE_QUARTER_INCH_THRUCUT
 10
5.168570462877612
 20
6.340924407561047
 30
0.0
  0
VERTEX
  5
F9
  8
THREE_QUARTER_INCH_THRUCUT
 10
5.168570462877612
 20
6.309544407561049
 30
0.0
  0
VERTEX
  5
FA
  8
THREE_QUARTER_INCH_THRUCUT
 10
5.173735462877608
 20
6.278591407561052
 30
0.0
  0
VERTEX
  5
FB
  8
THREE_QUARTER_INCH_THRUCUT
 10
5.183925462877609
 20
6.24891240756105
 30
0.0
  0
VERTEX
  5
FC
  8
THREE_QUARTER_INCH_THRUCUT
 10
5.198860462877611
 20
6.221314407561053
 30
0.0
  0
VERTEX
  5
FD
  8
THREE_QUARTER_INCH_THRUCUT
 10
5.21813446287761
 20
6.196550407561048
 30
0.0
  0
VERTEX
  5
FE
  8
THREE_QUARTER_INCH_THRUCUT
 10
5.24122146287761
 20
6.175297407561047
 30
0.0
  0
VERTEX
  5
FF
  8
THREE_QUARTER_INCH_THRUCUT
 10
5.267492462877612
 20
6.15813440756105
 30
0.0
  0
VERTEX
  5
100
  8
THREE_QUARTER_INCH_THRUCUT
 10
5.296229462877611
 20
6.145528407561045
 30
0.0
  0
VERTEX
  5
101
  8
THREE_QUARTER_INCH_THRUCUT
 10
5.326649462877611
 20
6.137825407561053
 30
0.0
  0
VERTEX
  5
102
  8
THREE_QUARTER_INCH_THRUCUT
 10
5.357922462877609
 20
6.13523440756105
 30
0.0
  0
VERTEX
  5
103
  8
THREE_QUARTER_INCH_THRUCUT
 10
6.10792246287761
 20
6.13523440756105
 30
0.0
  0
VERTEX
  5
104
  8
THREE_QUARTER_INCH_THRUCUT
 10
6.139194462877612
 20
6.137825407561053
 30
0.0
  0
VERTEX
  5
105
  8
THREE_QUARTER_INCH_THRUCUT
 10
6.169614462877611
 20
6.145528407561045
 30
0.0
  0
VERTEX
  5
106
  8
THREE_QUARTER_INCH_THRUCUT
 10
6.198352462877612
 20
6.15813440756105
 30
0.0
  0
VERTEX
  5
107
  8
THREE_QUARTER_INCH_THRUCUT
 10
6.224622462877612
 20
6.175297407561047
 30
0.0
  0
VERTEX
  5
108
  8
THREE_QUARTER_INCH_THRUCUT
 10
6.247709462877609
 20
6.196550407561048
 30
0.0
  0
VERTEX
  5
109
  8
THREE_QUARTER_INCH_THRUCUT
 10
6.266983462877612
 20
6.221314407561053
 30
0.0
  0
VERTEX
  5
10A
  8
THREE_QUARTER_INCH_THRUCUT
 10
6.281918462877613
 20
6.24891240756105
 30
0.0
  0
VERTEX
  5
10B
  8
THREE_QUARTER_INCH_THRUCUT
 10
6.292108462877611
 20
6.278591407561052
 30
0.0
  0
VERTEX
  5
10C
  8
THREE_QUARTER_INCH_THRUCUT
 10
6.297273462877612
 20
6.309544407561049
 30
0.0
  0
VERTEX
  5
10D
  8
THREE_QUARTER_INCH_THRUCUT
 10
6.297273462877612
 20
6.340924407561047
 30
0.0
  0
VERTEX
  5
10E
  8
THREE_QUARTER_INCH_THRUCUT
 10
6.292108462877611
 20
6.371876407561047
 30
0.0
  0
VERTEX
  5
10F
  8
THREE_QUARTER_INCH_THRUCUT
 10
6.281918462877613
 20
6.401556407561046
 30
0.0
  0
VERTEX
  5
110
  8
THREE_QUARTER_INCH_THRUCUT
 10
6.266983462877612
 20
6.42915440756105
 30
0.0
  0
VERTEX
  5
111
  8
THREE_QUARTER_INCH_THRUCUT
 10
6.247709462877609
 20
6.45391740756105
 30
0.0
  0
VERTEX
  5
112
  8
THREE_QUARTER_INCH_THRUCUT
 10
6.224622462877612
 20
6.475170407561052
 30
0.0
  0
VERTEX
  5
113
  8
THREE_QUARTER_INCH_THRUCUT
 10
6.198352462877612
 20
6.492334407561046
 30
0.0
  0
VERTEX
  5
114
  8
THREE_QUARTER_INCH_THRUCUT
 10
6.169614462877611
 20
6.504939407561054
 30
0.0
  0
VERTEX
  5
115
  8
THREE_QUARTER_INCH_THRUCUT
 10
6.139194462877612
 20
6.512642407561046
 30
0.0
  0
VERTEX
  5
116
  8
THREE_QUARTER_INCH_THRUCUT
 10
6.10792246287761
 20
6.515234407561053
 30
0.0
  0
VERTEX
  5
117
  8
THREE_QUARTER_INCH_THRUCUT
 10
6.107922462877609
 20
7.635234032561048
 30
0.0
  0
VERTEX
  5
118
  8
THREE_QUARTER_INCH_THRUCUT
 10
27.35792246287761
 20
7.635234032561048
 30
0.0
  0
VERTEX
  5
119
  8
THREE_QUARTER_INCH_THRUCUT
 10
27.35792246287761
 20
6.515234407561053
 30
0.0
  0
VERTEX
  5
11A
  8
THREE_QUARTER_INCH_THRUCUT
 10
27.32664946287761
 20
6.512642407561046
 30
0.0
  0
VERTEX
  5
11B
  8
THREE_QUARTER_INCH_THRUCUT
 10
27.29622946287761
 20
6.504939407561054
 30
0.0
  0
VERTEX
  5
11C
  8
THREE_QUARTER_INCH_THRUCUT
 10
27.26749246287761
 20
6.492334407561046
 30
0.0
  0
VERTEX
  5
11D
  8
THREE_QUARTER_INCH_THRUCUT
 10
27.24122146287761
 20
6.475170407561052
 30
0.0
  0
VERTEX
  5
11E
  8
THREE_QUARTER_INCH_THRUCUT
 10
27.2181344628776
 20
6.45391740756105
 30
0.0
  0
VERTEX
  5
11F
  8
THREE_QUARTER_INCH_THRUCUT
 10
27.19886046287761
 20
6.42915440756105
 30
0.0
  0
VERTEX
  5
120
  8
THREE_QUARTER_INCH_THRUCUT
 10
27.18392546287761
 20
6.401556407561046
 30
0.0
  0
VERTEX
  5
121
  8
THREE_QUARTER_INCH_THRUCUT
 10
27.17373546287761
 20
6.371876407561047
 30
0.0
  0
VERTEX
  5
122
  8
THREE_QUARTER_INCH_THRUCUT
 10
27.16857046287761
 20
6.340924407561047
 30
0.0
  0
VERTEX
  5
123
  8
THREE_QUARTER_INCH_THRUCUT
 10
27.16857046287761
 20
6.309544407561049
 30
0.0
  0
VERTEX
  5
124
  8
THREE_QUARTER_INCH_THRUCUT
 10
27.17373546287761
 20
6.278591407561052
 30
0.0
  0
VERTEX
  5
125
  8
THREE_QUARTER_INCH_THRUCUT
 10
27.18392546287761
 20
6.24891240756105
 30
0.0
  0
VERTEX
  5
126
  8
THREE_QUARTER_INCH_THRUCUT
 10
27.19886046287761
 20
6.221314407561053
 30
0.0
  0
VERTEX
  5
127
  8
THREE_QUARTER_INCH_THRUCUT
 10
27.2181344628776
 20
6.196550407561048
 30
0.0
  0
VERTEX
  5
128
  8
THREE_QUARTER_INCH_THRUCUT
 10
27.24122146287761
 20
6.175297407561047
 30
0.0
  0
VERTEX
  5
129
  8
THREE_QUARTER_INCH_THRUCUT
 10
27.26749246287761
 20
6.15813440756105
 30
0.0
  0
VERTEX
  5
12A
  8
THREE_QUARTER_INCH_THRUCUT
 10
27.29622946287761
 20
6.145528407561045
 30
0.0
  0
VERTEX
  5
12B
  8
THREE_QUARTER_INCH_THRUCUT
 10
27.32664946287761
 20
6.137825407561053
 30
0.0
  0
VERTEX
  5
12C
  8
THREE_QUARTER_INCH_THRUCUT
 10
27.35792246287761
 20
6.13523440756105
 30
0.0
  0
VERTEX
  5
12D
  8
THREE_QUARTER_INCH_THRUCUT
 10
28.10792246287761
 20
6.13523440756105
 30
0.0
  0
VERTEX
  5
12E
  8
THREE_QUARTER_INCH_THRUCUT
 10
28.13919446287761
 20
6.137825407561053
 30
0.0
  0
VERTEX
  5
12F
  8
THREE_QUARTER_INCH_THRUCUT
 10
28.16961446287761
 20
6.145528407561045
 30
0.0
  0
VERTEX
  5
130
  8
THREE_QUARTER_INCH_THRUCUT
 10
28.19835246287761
 20
6.15813440756105
 30
0.0
  0
VERTEX
  5
131
  8
THREE_QUARTER_INCH_THRUCUT
 10
28.22462246287761
 20
6.175297407561047
 30
0.0
  0
VERTEX
  5
132
  8
THREE_QUARTER_INCH_THRUCUT
 10
28.24770946287761
 20
6.196550407561048
 30
0.0
  0
VERTEX
  5
133
  8
THREE_QUARTER_INCH_THRUCUT
 10
28.26698346287761
 20
6.221314407561053
 30
0.0
  0
VERTEX
  5
134
  8
THREE_QUARTER_INCH_THRUCUT
 10
28.28191846287761
 20
6.24891240756105
 30
0.0
  0
VERTEX
  5
135
  8
THREE_QUARTER_INCH_THRUCUT
 10
28.29210846287761
 20
6.278591407561052
 30
0.0
  0
VERTEX
  5
136
  8
THREE_QUARTER_INCH_THRUCUT
 10
28.29727346287761
 20
6.309544407561049
 30
0.0
  0
VERTEX
  5
137
  8
THREE_QUARTER_INCH_THRUCUT
 10
28.29727346287761
 20
6.340924407561047
 30
0.0
  0
VERTEX
  5
138
  8
THREE_QUARTER_INCH_THRUCUT
 10
28.29210846287761
 20
6.371876407561047
 30
0.0
  0
VERTEX
  5
139
  8
THREE_QUARTER_INCH_THRUCUT
 10
28.28191846287761
 20
6.401556407561046
 30
0.0
  0
VERTEX
  5
13A
  8
THREE_QUARTER_INCH_THRUCUT
 10
28.26698346287761
 20
6.42915440756105
 30
0.0
  0
VERTEX
  5
13B
  8
THREE_QUARTER_INCH_THRUCUT
 10
28.24770946287761
 20
6.45391740756105
 30
0.0
  0
VERTEX
  5
13C
  8
THREE_QUARTER_INCH_THRUCUT
 10
28.22462246287761
 20
6.475170407561052
 30
0.0
  0
VERTEX
  5
13D
  8
THREE_QUARTER_INCH_THRUCUT
 10
28.19835246287761
 20
6.492334407561046
 30
0.0
  0
VERTEX
  5
13E
  8
THREE_QUARTER_INCH_THRUCUT
 10
28.16961446287761
 20
6.504939407561054
 30
0.0
  0
VERTEX
  5
13F
  8
THREE_QUARTER_INCH_THRUCUT
 10
28.13919446287761
 20
6.512642407561046
 30
0.0
  0
VERTEX
  5
140
  8
THREE_QUARTER_INCH_THRUCUT
 10
28.10792246287761
 20
6.515234407561053
 30
0.0
  0
VERTEX
  5
141
  8
THREE_QUARTER_INCH_THRUCUT
 10
28.1079224628776
 20
7.635234032561048
 30
0.0
  0
VERTEX
  5
142
  8
THREE_QUARTER_INCH_THRUCUT
 10
39.7329224628776
 20
7.635234032561051
 30
0.0
  0
VERTEX
  5
143
  8
THREE_QUARTER_INCH_THRUCUT
 10
38.76437292048919
 20
6.666783528056616
 30
0.0
 42
0.4142135623730946
  0
VERTEX
  5
144
  8
THREE_QUARTER_INCH_THRUCUT
 10
38.76437292048919
 20
5.353684420994075
 30
0.0
  0
VERTEX
  5
145
  8
THREE_QUARTER_INCH_THRUCUT
 10
40.70147200526601
 20
3.416783644128038
 30
0.0
 42
-0.4142135623730944
  0
VERTEX
  5
146
  8
THREE_QUARTER_INCH_THRUCUT
 10
40.70147200526601
 20
2.103684537065493
 30
0.0
  0
VERTEX
  5
147
  8
THREE_QUARTER_INCH_THRUCUT
 10
39.7329224628776
 20
1.135234032561051
 30
0.0
  0
VERTEX
  5
148
  8
THREE_QUARTER_INCH_THRUCUT
 10
6.214839703659134
 20
1.135234407561238
 30
0.0
 42
-0.4142133630070195
  0
VERTEX
  5
149
  8
THREE_QUARTER_INCH_THRUCUT
 10
3.214840462877633
 20
4.135234645761578
 30
0.0
  0
SEQEND
  5
27A
  8
THREE_QUARTER_INCH_THRUCUT
  0
POLYLINE
  5
88
  8
THREE_QUARTER_INCH_THRUCUT
 66
     1
 10
0.0
 20
0.0
 30
0.0
 70
     1
  0
VERTEX
  5
14A
  8
THREE_QUARTER_INCH_THRUCUT
 10
70.34999962281285
 20
27.5572473400298
 30
0.0
  0
VERTEX
  5
14B
  8
THREE_QUARTER_INCH_THRUCUT
 10
70.34999962281654
 20
25.07882214318124
 30
0.0
 42
-1.0
  0
VERTEX
  5
14C
  8
THREE_QUARTER_INCH_THRUCUT
 10
70.34999962281694
 20
24.81803474160643
 30
0.0
  0
VERTEX
  5
14D
  8
THREE_QUARTER_INCH_THRUCUT
 10
69.59999962281262
 20
24.81803474160677
 30
0.0
 42
-1.0
  0
VERTEX
  5
14E
  8
THREE_QUARTER_INCH_THRUCUT
 10
69.59999962281285
 20
25.07882214318158
 30
0.0
  0
VERTEX
  5
14F
  8
THREE_QUARTER_INCH_THRUCUT
 10
69.59999962281466
 20
27.55724734003196
 30
0.0
 42
-1.0
  0
VERTEX
  5
150
  8
THREE_QUARTER_INCH_THRUCUT
 10
69.59999962281489
 20
27.81803474160677
 30
0.0
  0
VERTEX
  5
151
  8
THREE_QUARTER_INCH_THRUCUT
 10
70.34999962281262
 20
27.81803474160461
 30
0.0
 42
-1.0
  0
SEQEND
  5
27B
  8
THREE_QUARTER_INCH_THRUCUT
  0
POLYLINE
  5
89
  8
THREE_QUARTER_INCH_THRUCUT
 66
     1
 10
0.0
 20
0.0
 30
0.0
 70
     1
  0
VERTEX
  5
152
  8
THREE_QUARTER_INCH_THRUCUT
 10
48.34999962281209
 20
27.55724734003253
 30
0.0
  0
VERTEX
  5
153
  8
THREE_QUARTER_INCH_THRUCUT
 10
48.34999962281579
 20
25.07882214318397
 30
0.0
 42
-1.0
  0
VERTEX
  5
154
  8
THREE_QUARTER_INCH_THRUCUT
 10
48.34999962281618
 20
24.81803474160915
 30
0.0
  0
VERTEX
  5
155
  8
THREE_QUARTER_INCH_THRUCUT
 10
47.59999962281186
 20
24.81803474160949
 30
0.0
 42
-1.0
  0
VERTEX
  5
156
  8
THREE_QUARTER_INCH_THRUCUT
 10
47.59999962281209
 20
25.07882214318431
 30
0.0
  0
VERTEX
  5
157
  8
THREE_QUARTER_INCH_THRUCUT
 10
47.59999962281391
 20
27.55724734003469
 30
0.0
 42
-1.0
  0
VERTEX
  5
158
  8
THREE_QUARTER_INCH_THRUCUT
 10
47.59999962281414
 20
27.8180347416095
 30
0.0
  0
VERTEX
  5
159
  8
THREE_QUARTER_INCH_THRUCUT
 10
48.34999962281186
 20
27.81803474160734
 30
0.0
 42
-1.0
  0
SEQEND
  5
27C
  8
THREE_QUARTER_INCH_THRUCUT
  0
POLYLINE
  5
8A
  8
THREE_QUARTER_INCH_THRUCUT
 66
     1
 10
0.0
 20
0.0
 30
0.0
 70
     1
  0
VERTEX
  5
15A
  8
THREE_QUARTER_INCH_THRUCUT
 10
26.34999962281209
 20
27.55724734002889
 30
0.0
  0
VERTEX
  5
15B
  8
THREE_QUARTER_INCH_THRUCUT
 10
26.34999962281579
 20
25.07882214318033
 30
0.0
 42
-1.0
  0
VERTEX
  5
15C
  8
THREE_QUARTER_INCH_THRUCUT
 10
26.34999962281618
 20
24.81803474160552
 30
0.0
  0
VERTEX
  5
15D
  8
THREE_QUARTER_INCH_THRUCUT
 10
25.59999962281186
 20
24.81803474160586
 30
0.0
 42
-1.0
  0
VERTEX
  5
15E
  8
THREE_QUARTER_INCH_THRUCUT
 10
25.59999962281209
 20
25.07882214318067
 30
0.0
  0
VERTEX
  5
15F
  8
THREE_QUARTER_INCH_THRUCUT
 10
25.59999962281391
 20
27.55724734003105
 30
0.0
 42
-1.0
  0
VERTEX
  5
160
  8
THREE_QUARTER_INCH_THRUCUT
 10
25.59999962281414
 20
27.81803474160586
 30
0.0
  0
VERTEX
  5
161
  8
THREE_QUARTER_INCH_THRUCUT
 10
26.34999962281186
 20
27.8180347416037
 30
0.0
 42
-1.0
  0
SEQEND
  5
27D
  8
THREE_QUARTER_INCH_THRUCUT
  0
POLYLINE
  5
8B
  8
THREE_QUARTER_INCH_THRUCUT
 66
     1
 10
0.0
 20
0.0
 30
0.0
 70
     1
  0
VERTEX
  5
162
  8
THREE_QUARTER_INCH_THRUCUT
 10
78.34887971927719
 20
4.332771407561047
 30
0.0
 42
-0.961490096133456
  0
VERTEX
  5
163
  8
THREE_QUARTER_INCH_THRUCUT
 10
78.30189730267078
 20
3.935859683283495
 30
0.0
 42
-0.9614707681241729
  0
VERTEX
  5
164
  8
THREE_QUARTER_INCH_THRUCUT
 10
78.31759271927719
 20
4.335234407561046
 30
0.0
 42
-0.0196430313934635
  0
VERTEX
  5
165
  8
THREE_QUARTER_INCH_THRUCUT
 10
78.33328060145722
 20
4.334617874186449
 30
0.0
 42
-0.0196329840983488
  0
SEQEND
  5
27E
  8
THREE_QUARTER_INCH_THRUCUT
  0
POLYLINE
  5
8C
  8
THREE_QUARTER_INCH_THRUCUT
 66
     1
 10
0.0
 20
0.0
 30
0.0
 70
     1
  0
VERTEX
  5
166
  8
THREE_QUARTER_INCH_THRUCUT
 10
56.35232271927734
 20
4.332195407561045
 30
0.0
 42
-0.9203497392141604
  0
VERTEX
  5
167
  8
THREE_QUARTER_INCH_THRUCUT
 10
56.31584844547559
 20
3.935255464204139
 30
0.0
 42
-0.920351574329487
  0
VERTEX
  5
168
  8
THREE_QUARTER_INCH_THRUCUT
 10
56.28630671927733
 20
4.332771407561047
 30
0.0
 42
-0.0414759603059265
  0
VERTEX
  5
169
  8
THREE_QUARTER_INCH_THRUCUT
 10
56.31933904827395
 20
4.335226232418307
 30
0.0
 42
-0.0414769555563666
  0
SEQEND
  5
27F
  8
THREE_QUARTER_INCH_THRUCUT
  0
POLYLINE
  5
8D
  8
THREE_QUARTER_INCH_THRUCUT
 66
     1
 10
0.0
 20
0.0
 30
0.0
 70
     1
  0
VERTEX
  5
16A
  8
THREE_QUARTER_INCH_THRUCUT
 10
82.8356747192772
 20
7.635234032561051
 30
0.0
  0
VERTEX
  5
16B
  8
THREE_QUARTER_INCH_THRUCUT
 10
80.69259271927719
 20
7.635234032561048
 30
0.0
  0
VERTEX
  5
16C
  8
THREE_QUARTER_INCH_THRUCUT
 10
80.69259271927719
 20
6.515234407561053
 30
0.0
  0
VERTEX
  5
16D
  8
THREE_QUARTER_INCH_THRUCUT
 10
80.72386571927719
 20
6.512642407561046
 30
0.0
  0
VERTEX
  5
16E
  8
THREE_QUARTER_INCH_THRUCUT
 10
80.75428571927719
 20
6.504939407561054
 30
0.0
  0
VERTEX
  5
16F
  8
THREE_QUARTER_INCH_THRUCUT
 10
80.78302271927718
 20
6.492334407561046
 30
0.0
  0
VERTEX
  5
170
  8
THREE_QUARTER_INCH_THRUCUT
 10
80.80929371927719
 20
6.475170407561052
 30
0.0
  0
VERTEX
  5
171
  8
THREE_QUARTER_INCH_THRUCUT
 10
80.8323807192772
 20
6.45391740756105
 30
0.0
  0
VERTEX
  5
172
  8
THREE_QUARTER_INCH_THRUCUT
 10
80.85165471927719
 20
6.42915440756105
 30
0.0
  0
VERTEX
  5
173
  8
THREE_QUARTER_INCH_THRUCUT
 10
80.86658971927719
 20
6.401556407561046
 30
0.0
  0
VERTEX
  5
174
  8
THREE_QUARTER_INCH_THRUCUT
 10
80.8767797192772
 20
6.371876407561047
 30
0.0
  0
VERTEX
  5
175
  8
THREE_QUARTER_INCH_THRUCUT
 10
80.88194471927719
 20
6.340924407561047
 30
0.0
  0
VERTEX
  5
176
  8
THREE_QUARTER_INCH_THRUCUT
 10
80.88194471927719
 20
6.309544407561049
 30
0.0
  0
VERTEX
  5
177
  8
THREE_QUARTER_INCH_THRUCUT
 10
80.8767797192772
 20
6.278591407561052
 30
0.0
  0
VERTEX
  5
178
  8
THREE_QUARTER_INCH_THRUCUT
 10
80.86658971927719
 20
6.24891240756105
 30
0.0
  0
VERTEX
  5
179
  8
THREE_QUARTER_INCH_THRUCUT
 10
80.85165471927719
 20
6.221314407561053
 30
0.0
  0
VERTEX
  5
17A
  8
THREE_QUARTER_INCH_THRUCUT
 10
80.8323807192772
 20
6.196550407561048
 30
0.0
  0
VERTEX
  5
17B
  8
THREE_QUARTER_INCH_THRUCUT
 10
80.80929371927719
 20
6.175297407561047
 30
0.0
  0
VERTEX
  5
17C
  8
THREE_QUARTER_INCH_THRUCUT
 10
80.78302271927718
 20
6.15813440756105
 30
0.0
  0
VERTEX
  5
17D
  8
THREE_QUARTER_INCH_THRUCUT
 10
80.75428571927719
 20
6.145528407561045
 30
0.0
  0
VERTEX
  5
17E
  8
THREE_QUARTER_INCH_THRUCUT
 10
80.72386571927719
 20
6.137825407561053
 30
0.0
  0
VERTEX
  5
17F
  8
THREE_QUARTER_INCH_THRUCUT
 10
80.69259271927719
 20
6.13523440756105
 30
0.0
  0
VERTEX
  5
180
  8
THREE_QUARTER_INCH_THRUCUT
 10
79.94259271927719
 20
6.13523440756105
 30
0.0
  0
VERTEX
  5
181
  8
THREE_QUARTER_INCH_THRUCUT
 10
79.91132071927719
 20
6.137825407561053
 30
0.0
  0
VERTEX
  5
182
  8
THREE_QUARTER_INCH_THRUCUT
 10
79.8809007192772
 20
6.145528407561045
 30
0.0
  0
VERTEX
  5
183
  8
THREE_QUARTER_INCH_THRUCUT
 10
79.85216271927719
 20
6.15813440756105
 30
0.0
  0
VERTEX
  5
184
  8
THREE_QUARTER_INCH_THRUCUT
 10
79.82589271927719
 20
6.175297407561047
 30
0.0
  0
VERTEX
  5
185
  8
THREE_QUARTER_INCH_THRUCUT
 10
79.80280571927719
 20
6.196550407561048
 30
0.0
  0
VERTEX
  5
186
  8
THREE_QUARTER_INCH_THRUCUT
 10
79.78353171927719
 20
6.221314407561053
 30
0.0
  0
VERTEX
  5
187
  8
THREE_QUARTER_INCH_THRUCUT
 10
79.76859671927718
 20
6.24891240756105
 30
0.0
  0
VERTEX
  5
188
  8
THREE_QUARTER_INCH_THRUCUT
 10
79.75840671927719
 20
6.278591407561052
 30
0.0
  0
VERTEX
  5
189
  8
THREE_QUARTER_INCH_THRUCUT
 10
79.75324171927718
 20
6.309544407561049
 30
0.0
  0
VERTEX
  5
18A
  8
THREE_QUARTER_INCH_THRUCUT
 10
79.75324171927718
 20
6.340924407561047
 30
0.0
  0
VERTEX
  5
18B
  8
THREE_QUARTER_INCH_THRUCUT
 10
79.75840671927719
 20
6.371876407561047
 30
0.0
  0
VERTEX
  5
18C
  8
THREE_QUARTER_INCH_THRUCUT
 10
79.76859671927718
 20
6.401556407561046
 30
0.0
  0
VERTEX
  5
18D
  8
THREE_QUARTER_INCH_THRUCUT
 10
79.78353171927719
 20
6.42915440756105
 30
0.0
  0
VERTEX
  5
18E
  8
THREE_QUARTER_INCH_THRUCUT
 10
79.80280571927719
 20
6.45391740756105
 30
0.0
  0
VERTEX
  5
18F
  8
THREE_QUARTER_INCH_THRUCUT
 10
79.82589271927719
 20
6.475170407561052
 30
0.0
  0
VERTEX
  5
190
  8
THREE_QUARTER_INCH_THRUCUT
 10
79.85216271927719
 20
6.492334407561046
 30
0.0
  0
VERTEX
  5
191
  8
THREE_QUARTER_INCH_THRUCUT
 10
79.8809007192772
 20
6.504939407561054
 30
0.0
  0
VERTEX
  5
192
  8
THREE_QUARTER_INCH_THRUCUT
 10
79.91132071927719
 20
6.512642407561046
 30
0.0
  0
VERTEX
  5
193
  8
THREE_QUARTER_INCH_THRUCUT
 10
79.94259271927719
 20
6.515234407561053
 30
0.0
  0
VERTEX
  5
194
  8
THREE_QUARTER_INCH_THRUCUT
 10
79.94259271927719
 20
7.635234032561048
 30
0.0
  0
VERTEX
  5
195
  8
THREE_QUARTER_INCH_THRUCUT
 10
58.69259271927731
 20
7.635234032561048
 30
0.0
  0
VERTEX
  5
196
  8
THREE_QUARTER_INCH_THRUCUT
 10
58.69259271927731
 20
6.515234407561053
 30
0.0
  0
VERTEX
  5
197
  8
THREE_QUARTER_INCH_THRUCUT
 10
58.72386571927731
 20
6.512642407561046
 30
0.0
  0
VERTEX
  5
198
  8
THREE_QUARTER_INCH_THRUCUT
 10
58.75428571927731
 20
6.504939407561054
 30
0.0
  0
VERTEX
  5
199
  8
THREE_QUARTER_INCH_THRUCUT
 10
58.78302271927731
 20
6.492334407561046
 30
0.0
  0
VERTEX
  5
19A
  8
THREE_QUARTER_INCH_THRUCUT
 10
58.80929371927731
 20
6.475170407561052
 30
0.0
  0
VERTEX
  5
19B
  8
THREE_QUARTER_INCH_THRUCUT
 10
58.83238071927732
 20
6.45391740756105
 30
0.0
  0
VERTEX
  5
19C
  8
THREE_QUARTER_INCH_THRUCUT
 10
58.85165471927731
 20
6.42915440756105
 30
0.0
  0
VERTEX
  5
19D
  8
THREE_QUARTER_INCH_THRUCUT
 10
58.86658971927731
 20
6.401556407561046
 30
0.0
  0
VERTEX
  5
19E
  8
THREE_QUARTER_INCH_THRUCUT
 10
58.87677971927731
 20
6.371876407561047
 30
0.0
  0
VERTEX
  5
19F
  8
THREE_QUARTER_INCH_THRUCUT
 10
58.88194471927731
 20
6.340924407561047
 30
0.0
  0
VERTEX
  5
1A0
  8
THREE_QUARTER_INCH_THRUCUT
 10
58.88194471927731
 20
6.309544407561049
 30
0.0
  0
VERTEX
  5
1A1
  8
THREE_QUARTER_INCH_THRUCUT
 10
58.87677971927731
 20
6.278591407561052
 30
0.0
  0
VERTEX
  5
1A2
  8
THREE_QUARTER_INCH_THRUCUT
 10
58.86658971927731
 20
6.24891240756105
 30
0.0
  0
VERTEX
  5
1A3
  8
THREE_QUARTER_INCH_THRUCUT
 10
58.85165471927731
 20
6.221314407561053
 30
0.0
  0
VERTEX
  5
1A4
  8
THREE_QUARTER_INCH_THRUCUT
 10
58.83238071927732
 20
6.196550407561048
 30
0.0
  0
VERTEX
  5
1A5
  8
THREE_QUARTER_INCH_THRUCUT
 10
58.80929371927731
 20
6.175297407561047
 30
0.0
  0
VERTEX
  5
1A6
  8
THREE_QUARTER_INCH_THRUCUT
 10
58.78302271927731
 20
6.15813440756105
 30
0.0
  0
VERTEX
  5
1A7
  8
THREE_QUARTER_INCH_THRUCUT
 10
58.75428571927731
 20
6.145528407561045
 30
0.0
  0
VERTEX
  5
1A8
  8
THREE_QUARTER_INCH_THRUCUT
 10
58.72386571927731
 20
6.137825407561053
 30
0.0
  0
VERTEX
  5
1A9
  8
THREE_QUARTER_INCH_THRUCUT
 10
58.69259271927731
 20
6.13523440756105
 30
0.0
  0
VERTEX
  5
1AA
  8
THREE_QUARTER_INCH_THRUCUT
 10
57.94259271927731
 20
6.13523440756105
 30
0.0
  0
VERTEX
  5
1AB
  8
THREE_QUARTER_INCH_THRUCUT
 10
57.91132071927732
 20
6.137825407561053
 30
0.0
  0
VERTEX
  5
1AC
  8
THREE_QUARTER_INCH_THRUCUT
 10
57.88090071927731
 20
6.145528407561045
 30
0.0
  0
VERTEX
  5
1AD
  8
THREE_QUARTER_INCH_THRUCUT
 10
57.85216271927732
 20
6.15813440756105
 30
0.0
  0
VERTEX
  5
1AE
  8
THREE_QUARTER_INCH_THRUCUT
 10
57.82589271927732
 20
6.175297407561047
 30
0.0
  0
VERTEX
  5
1AF
  8
THREE_QUARTER_INCH_THRUCUT
 10
57.80280571927732
 20
6.196550407561048
 30
0.0
  0
VERTEX
  5
1B0
  8
THREE_QUARTER_INCH_THRUCUT
 10
57.78353171927732
 20
6.221314407561053
 30
0.0
  0
VERTEX
  5
1B1
  8
THREE_QUARTER_INCH_THRUCUT
 10
57.76859671927732
 20
6.24891240756105
 30
0.0
  0
VERTEX
  5
1B2
  8
THREE_QUARTER_INCH_THRUCUT
 10
57.75840671927732
 20
6.278591407561052
 30
0.0
  0
VERTEX
  5
1B3
  8
THREE_QUARTER_INCH_THRUCUT
 10
57.75324171927732
 20
6.309544407561049
 30
0.0
  0
VERTEX
  5
1B4
  8
THREE_QUARTER_INCH_THRUCUT
 10
57.75324171927732
 20
6.340924407561047
 30
0.0
  0
VERTEX
  5
1B5
  8
THREE_QUARTER_INCH_THRUCUT
 10
57.75840671927732
 20
6.371876407561047
 30
0.0
  0
VERTEX
  5
1B6
  8
THREE_QUARTER_INCH_THRUCUT
 10
57.76859671927732
 20
6.401556407561046
 30
0.0
  0
VERTEX
  5
1B7
  8
THREE_QUARTER_INCH_THRUCUT
 10
57.78353171927732
 20
6.42915440756105
 30
0.0
  0
VERTEX
  5
1B8
  8
THREE_QUARTER_INCH_THRUCUT
 10
57.80280571927732
 20
6.45391740756105
 30
0.0
  0
VERTEX
  5
1B9
  8
THREE_QUARTER_INCH_THRUCUT
 10
57.82589271927732
 20
6.475170407561052
 30
0.0
  0
VERTEX
  5
1BA
  8
THREE_QUARTER_INCH_THRUCUT
 10
57.85216271927732
 20
6.492334407561046
 30
0.0
  0
VERTEX
  5
1BB
  8
THREE_QUARTER_INCH_THRUCUT
 10
57.88090071927731
 20
6.504939407561054
 30
0.0
  0
VERTEX
  5
1BC
  8
THREE_QUARTER_INCH_THRUCUT
 10
57.91132071927732
 20
6.512642407561046
 30
0.0
  0
VERTEX
  5
1BD
  8
THREE_QUARTER_INCH_THRUCUT
 10
57.94259271927731
 20
6.515234407561053
 30
0.0
  0
VERTEX
  5
1BE
  8
THREE_QUARTER_INCH_THRUCUT
 10
57.94259271927732
 20
7.635234032561048
 30
0.0
  0
VERTEX
  5
1BF
  8
THREE_QUARTER_INCH_THRUCUT
 10
46.31759271927741
 20
7.635234032561051
 30
0.0
  0
VERTEX
  5
1C0
  8
THREE_QUARTER_INCH_THRUCUT
 10
47.28614226166582
 20
6.666783528056616
 30
0.0
 42
-0.4142135623730946
  0
VERTEX
  5
1C1
  8
THREE_QUARTER_INCH_THRUCUT
 10
47.28614226166582
 20
5.353684420994075
 30
0.0
  0
VERTEX
  5
1C2
  8
THREE_QUARTER_INCH_THRUCUT
 10
45.349043176889
 20
3.416783644128038
 30
0.0
 42
0.4142135623730944
  0
VERTEX
  5
1C3
  8
THREE_QUARTER_INCH_THRUCUT
 10
45.349043176889
 20
2.103684537065493
 30
0.0
  0
VERTEX
  5
1C4
  8
THREE_QUARTER_INCH_THRUCUT
 10
46.31759271927741
 20
1.135234032561051
 30
0.0
  0
VERTEX
  5
1C5
  8
THREE_QUARTER_INCH_THRUCUT
 10
79.83567547849566
 20
1.135234407561238
 30
0.0
 42
0.4142133630070195
  0
VERTEX
  5
1C6
  8
THREE_QUARTER_INCH_THRUCUT
 10
82.83567471927716
 20
4.135234645761578
 30
0.0
  0
SEQEND
  5
280
  8
THREE_QUARTER_INCH_THRUCUT
  0
POLYLINE
  5
8E
  8
THREE_QUARTER_INCH_THRUCUT
 66
     1
 10
0.0
 20
0.0
 30
0.0
 70
     1
  0
VERTEX
  5
1C7
  8
THREE_QUARTER_INCH_THRUCUT
 10
4.349999605836768
 20
21.68803474233455
 30
0.0
  0
VERTEX
  5
1C8
  8
THREE_QUARTER_INCH_THRUCUT
 10
4.349998517477673
 20
17.58673422280549
 30
0.0
 42
-1.0
  0
VERTEX
  5
1C9
  8
THREE_QUARTER_INCH_THRUCUT
 10
4.081296835287787
 20
17.31803488240553
 30
0.0
  0
VERTEX
  5
1CA
  8
THREE_QUARTER_INCH_THRUCUT
 10
3.750000377185813
 20
17.31803488240553
 30
0.0
  0
VERTEX
  5
1CB
  8
THREE_QUARTER_INCH_THRUCUT
 10
3.732635377185773
 20
17.31651588240561
 30
0.0
  0
VERTEX
  5
1CC
  8
THREE_QUARTER_INCH_THRUCUT
 10
3.715797377185766
 20
17.31200488240552
 30
0.0
  0
VERTEX
  5
1CD
  8
THREE_QUARTER_INCH_THRUCUT
 10
3.700000377185745
 20
17.30463788240559
 30
0.0
  0
VERTEX
  5
1CE
  8
THREE_QUARTER_INCH_THRUCUT
 10
3.685721377185757
 20
17.29463988240559
 30
0.0
  0
VERTEX
  5
1CF
  8
THREE_QUARTER_INCH_THRUCUT
 10
3.673395377185727
 20
17.28231388240556
 30
0.0
  0
VERTEX
  5
1D0
  8
THREE_QUARTER_INCH_THRUCUT
 10
3.663397377185731
 20
17.26803488240558
 30
0.0
  0
VERTEX
  5
1D1
  8
THREE_QUARTER_INCH_THRUCUT
 10
3.6560303771858
 20
17.25223688240567
 30
0.0
  0
VERTEX
  5
1D2
  8
THREE_QUARTER_INCH_THRUCUT
 10
3.651519377185821
 20
17.23539988240555
 30
0.0
  0
VERTEX
  5
1D3
  8
THREE_QUARTER_INCH_THRUCUT
 10
3.650000377185791
 20
17.21803488240562
 30
0.0
  0
VERTEX
  5
1D4
  8
THREE_QUARTER_INCH_THRUCUT
 10
3.650000377185791
 20
15.8180353824057
 30
0.0
  0
VERTEX
  5
1D5
  8
THREE_QUARTER_INCH_THRUCUT
 10
3.650000377185791
 20
14.41803588240555
 30
0.0
  0
VERTEX
  5
1D6
  8
THREE_QUARTER_INCH_THRUCUT
 10
3.651519377185821
 20
14.40067088240563
 30
0.0
  0
VERTEX
  5
1D7
  8
THREE_QUARTER_INCH_THRUCUT
 10
3.6560303771858
 20
14.3838338824055
 30
0.0
  0
VERTEX
  5
1D8
  8
THREE_QUARTER_INCH_THRUCUT
 10
3.663397377185731
 20
14.3680358824056
 30
0.0
  0
VERTEX
  5
1D9
  8
THREE_QUARTER_INCH_THRUCUT
 10
3.673395377185727
 20
14.35375688240561
 30
0.0
  0
VERTEX
  5
1DA
  8
THREE_QUARTER_INCH_THRUCUT
 10
3.685721377185757
 20
14.34143088240558
 30
0.0
  0
VERTEX
  5
1DB
  8
THREE_QUARTER_INCH_THRUCUT
 10
3.700000377185745
 20
14.33143288240559
 30
0.0
  0
VERTEX
  5
1DC
  8
THREE_QUARTER_INCH_THRUCUT
 10
3.715797377185766
 20
14.32406588240566
 30
0.0
  0
VERTEX
  5
1DD
  8
THREE_QUARTER_INCH_THRUCUT
 10
3.732635377185773
 20
14.31955488240556
 30
0.0
  0
VERTEX
  5
1DE
  8
THREE_QUARTER_INCH_THRUCUT
 10
3.750000377185813
 20
14.31803588240565
 30
0.0
  0
VERTEX
  5
1DF
  8
THREE_QUARTER_INCH_THRUCUT
 10
4.081301256643712
 20
14.31803588240565
 30
0.0
 42
-0.4142135623730996
  0
VERTEX
  5
1E0
  8
THREE_QUARTER_INCH_THRUCUT
 10
4.350001855340167
 20
14.31803586056004
 30
0.0
 42
-0.4142135623731151
  0
VERTEX
  5
1E1
  8
THREE_QUARTER_INCH_THRUCUT
 10
4.350000728155635
 20
14.04933526186347
 30
0.0
  0
VERTEX
  5
1E2
  8
THREE_QUARTER_INCH_THRUCUT
 10
4.349999622816483
 20
9.068034743088681
 30
0.0
  0
VERTEX
  5
1E3
  8
THREE_QUARTER_INCH_THRUCUT
 10
92.34999962281421
 20
9.06803474068284
 30
0.0
  0
VERTEX
  5
1E4
  8
THREE_QUARTER_INCH_THRUCUT
 10
92.34999962281421
 20
16.00553474160598
 30
0.0
  0
VERTEX
  5
1E5
  8
THREE_QUARTER_INCH_THRUCUT
 10
91.59999962281398
 20
16.00553474160461
 30
0.0
 42
-1.0
  0
VERTEX
  5
1E6
  8
THREE_QUARTER_INCH_THRUCUT
 10
91.59999962281398
 20
16.26632214317943
 30
0.0
  0
VERTEX
  5
1E7
  8
THREE_QUARTER_INCH_THRUCUT
 10
91.59999962281444
 20
22.55724734003161
 30
0.0
 42
-1.0
  0
VERTEX
  5
1E8
  8
THREE_QUARTER_INCH_THRUCUT
 10
91.59999962281444
 20
22.81803474160643
 30
0.0
  0
VERTEX
  5
1E9
  8
THREE_QUARTER_INCH_THRUCUT
 10
91.97499962281421
 20
22.81803474160597
 30
0.0
  0
VERTEX
  5
1EA
  8
THREE_QUARTER_INCH_THRUCUT
 10
91.97499962281421
 20
24.81803474160597
 30
0.0
  0
VERTEX
  5
1EB
  8
THREE_QUARTER_INCH_THRUCUT
 10
91.59999962281353
 20
24.81803474160643
 30
0.0
 42
-1.0
  0
VERTEX
  5
1EC
  8
THREE_QUARTER_INCH_THRUCUT
 10
91.59999962281353
 20
25.07882214318124
 30
0.0
  0
VERTEX
  5
1ED
  8
THREE_QUARTER_INCH_THRUCUT
 10
91.59999962281444
 20
27.55724734003162
 30
0.0
 42
-1.0
  0
VERTEX
  5
1EE
  8
THREE_QUARTER_INCH_THRUCUT
 10
91.59999962281444
 20
27.81803474160643
 30
0.0
  0
VERTEX
  5
1EF
  8
THREE_QUARTER_INCH_THRUCUT
 10
91.97499962281421
 20
27.81803474160598
 30
0.0
  0
VERTEX
  5
1F0
  8
THREE_QUARTER_INCH_THRUCUT
 10
91.97499962281421
 20
29.81803474160598
 30
0.0
  0
VERTEX
  5
1F1
  8
THREE_QUARTER_INCH_THRUCUT
 10
91.59999962281398
 20
29.81803474160461
 30
0.0
 42
-1.0
  0
VERTEX
  5
1F2
  8
THREE_QUARTER_INCH_THRUCUT
 10
91.59999962281398
 20
30.07882214317943
 30
0.0
  0
VERTEX
  5
1F3
  8
THREE_QUARTER_INCH_THRUCUT
 10
91.59999962281444
 20
36.36974734003162
 30
0.0
 42
-1.0
  0
VERTEX
  5
1F4
  8
THREE_QUARTER_INCH_THRUCUT
 10
91.59999962281444
 20
36.63053474160643
 30
0.0
  0
VERTEX
  5
1F5
  8
THREE_QUARTER_INCH_THRUCUT
 10
92.34999962281421
 20
36.63053474160598
 30
0.0
  0
VERTEX
  5
1F6
  8
THREE_QUARTER_INCH_THRUCUT
 10
92.34999962281421
 20
46.56803474160598
 30
0.0
  0
VERTEX
  5
1F7
  8
THREE_QUARTER_INCH_THRUCUT
 10
82.23578702495587
 20
46.56803474160598
 30
0.0
 42
-1.0
  0
VERTEX
  5
1F8
  8
THREE_QUARTER_INCH_THRUCUT
 10
81.97499962338105
 20
46.56803474160598
 30
0.0
  0
VERTEX
  5
1F9
  8
THREE_QUARTER_INCH_THRUCUT
 10
81.97499962338037
 20
47.06803474160598
 30
0.0
  0
VERTEX
  5
1FA
  8
THREE_QUARTER_INCH_THRUCUT
 10
79.97499962338037
 20
47.06803474160598
 30
0.0
  0
VERTEX
  5
1FB
  8
THREE_QUARTER_INCH_THRUCUT
 10
79.97499962337923
 20
46.56803474160598
 30
0.0
 42
-1.0
  0
VERTEX
  5
1FC
  8
THREE_QUARTER_INCH_THRUCUT
 10
79.71421222180442
 20
46.56803474160598
 30
0.0
  0
VERTEX
  5
1FD
  8
THREE_QUARTER_INCH_THRUCUT
 10
60.23578702495585
 20
46.56803474160598
 30
0.0
 42
-1.0
  0
VERTEX
  5
1FE
  8
THREE_QUARTER_INCH_THRUCUT
 10
59.97499962338104
 20
46.56803474160598
 30
0.0
  0
VERTEX
  5
1FF
  8
THREE_QUARTER_INCH_THRUCUT
 10
59.97499962338024
 20
47.06803474160598
 30
0.0
  0
VERTEX
  5
200
  8
THREE_QUARTER_INCH_THRUCUT
 10
57.97499962338024
 20
47.06803474160598
 30
0.0
  0
VERTEX
  5
201
  8
THREE_QUARTER_INCH_THRUCUT
 10
57.9749996233774
 20
46.56803474160598
 30
0.0
 42
-1.0
  0
VERTEX
  5
202
  8
THREE_QUARTER_INCH_THRUCUT
 10
57.71421222180258
 20
46.56803474160598
 30
0.0
  0
VERTEX
  5
203
  8
THREE_QUARTER_INCH_THRUCUT
 10
38.23578702495585
 20
46.56803474160598
 30
0.0
 42
-1.0
  0
VERTEX
  5
204
  8
THREE_QUARTER_INCH_THRUCUT
 10
37.97499962338104
 20
46.56803474160598
 30
0.0
  0
VERTEX
  5
205
  8
THREE_QUARTER_INCH_THRUCUT
 10
37.97499962338024
 20
47.06803474160598
 30
0.0
  0
VERTEX
  5
206
  8
THREE_QUARTER_INCH_THRUCUT
 10
35.97499962338024
 20
47.06803474160598
 30
0.0
  0
VERTEX
  5
207
  8
THREE_QUARTER_INCH_THRUCUT
 10
35.97499962338104
 20
46.56803474160598
 30
0.0
 42
-1.0
  0
VERTEX
  5
208
  8
THREE_QUARTER_INCH_THRUCUT
 10
35.71421222180622
 20
46.56803474160598
 30
0.0
  0
VERTEX
  5
209
  8
THREE_QUARTER_INCH_THRUCUT
 10
16.23578702495585
 20
46.56803474160598
 30
0.0
 42
-1.0
  0
VERTEX
  5
20A
  8
THREE_QUARTER_INCH_THRUCUT
 10
15.97499962338104
 20
46.56803474160598
 30
0.0
  0
VERTEX
  5
20B
  8
THREE_QUARTER_INCH_THRUCUT
 10
15.97499962338024
 20
47.06803474160598
 30
0.0
  0
VERTEX
  5
20C
  8
THREE_QUARTER_INCH_THRUCUT
 10
13.97499962338024
 20
47.06803474160598
 30
0.0
  0
VERTEX
  5
20D
  8
THREE_QUARTER_INCH_THRUCUT
 10
13.97499962338024
 20
46.56803474160598
 30
0.0
 42
-1.0
  0
VERTEX
  5
20E
  8
THREE_QUARTER_INCH_THRUCUT
 10
13.71421222180702
 20
46.56803474160598
 30
0.0
  0
VERTEX
  5
20F
  8
THREE_QUARTER_INCH_THRUCUT
 10
4.349999860947094
 20
46.5680347416062
 30
0.0
  0
VERTEX
  5
210
  8
THREE_QUARTER_INCH_THRUCUT
 10
4.349998517477673
 20
41.58673422288076
 30
0.0
 42
-1.0
  0
VERTEX
  5
211
  8
THREE_QUARTER_INCH_THRUCUT
 10
4.081296835287787
 20
41.31803488240553
 30
0.0
  0
VERTEX
  5
212
  8
THREE_QUARTER_INCH_THRUCUT
 10
3.750000377185813
 20
41.31803488240553
 30
0.0
  0
VERTEX
  5
213
  8
THREE_QUARTER_INCH_THRUCUT
 10
3.732635377185773
 20
41.31651588240562
 30
0.0
  0
VERTEX
  5
214
  8
THREE_QUARTER_INCH_THRUCUT
 10
3.715797377185766
 20
41.31200488240552
 30
0.0
  0
VERTEX
  5
215
  8
THREE_QUARTER_INCH_THRUCUT
 10
3.700000377185745
 20
41.30463788240559
 30
0.0
  0
VERTEX
  5
216
  8
THREE_QUARTER_INCH_THRUCUT
 10
3.685721377185757
 20
41.2946398824056
 30
0.0
  0
VERTEX
  5
217
  8
THREE_QUARTER_INCH_THRUCUT
 10
3.673395377185727
 20
41.28231388240557
 30
0.0
  0
VERTEX
  5
218
  8
THREE_QUARTER_INCH_THRUCUT
 10
3.663397377185731
 20
41.26803488240558
 30
0.0
  0
VERTEX
  5
219
  8
THREE_QUARTER_INCH_THRUCUT
 10
3.6560303771858
 20
41.25223688240568
 30
0.0
  0
VERTEX
  5
21A
  8
THREE_QUARTER_INCH_THRUCUT
 10
3.651519377185821
 20
41.23539988240555
 30
0.0
  0
VERTEX
  5
21B
  8
THREE_QUARTER_INCH_THRUCUT
 10
3.650000377185791
 20
41.21803488240563
 30
0.0
  0
VERTEX
  5
21C
  8
THREE_QUARTER_INCH_THRUCUT
 10
3.650000377185791
 20
39.8180353824057
 30
0.0
  0
VERTEX
  5
21D
  8
THREE_QUARTER_INCH_THRUCUT
 10
3.650000377185791
 20
38.41803588240555
 30
0.0
  0
VERTEX
  5
21E
  8
THREE_QUARTER_INCH_THRUCUT
 10
3.651519377185821
 20
38.40067088240563
 30
0.0
  0
VERTEX
  5
21F
  8
THREE_QUARTER_INCH_THRUCUT
 10
3.6560303771858
 20
38.3838338824055
 30
0.0
  0
VERTEX
  5
220
  8
THREE_QUARTER_INCH_THRUCUT
 10
3.663397377185731
 20
38.3680358824056
 30
0.0
  0
VERTEX
  5
221
  8
THREE_QUARTER_INCH_THRUCUT
 10
3.673395377185727
 20
38.35375688240561
 30
0.0
  0
VERTEX
  5
222
  8
THREE_QUARTER_INCH_THRUCUT
 10
3.685721377185757
 20
38.34143088240558
 30
0.0
  0
VERTEX
  5
223
  8
THREE_QUARTER_INCH_THRUCUT
 10
3.700000377185745
 20
38.33143288240559
 30
0.0
  0
VERTEX
  5
224
  8
THREE_QUARTER_INCH_THRUCUT
 10
3.715797377185766
 20
38.32406588240566
 30
0.0
  0
VERTEX
  5
225
  8
THREE_QUARTER_INCH_THRUCUT
 10
3.732635377185773
 20
38.31955488240556
 30
0.0
  0
VERTEX
  5
226
  8
THREE_QUARTER_INCH_THRUCUT
 10
3.750000377185813
 20
38.31803588240565
 30
0.0
  0
VERTEX
  5
227
  8
THREE_QUARTER_INCH_THRUCUT
 10
4.081301256643712
 20
38.31803588240565
 30
0.0
 42
-0.4142135623730996
  0
VERTEX
  5
228
  8
THREE_QUARTER_INCH_THRUCUT
 10
4.350001855340167
 20
38.31803586056004
 30
0.0
 42
-0.4142135623731151
  0
VERTEX
  5
229
  8
THREE_QUARTER_INCH_THRUCUT
 10
4.350000728155635
 20
38.04933526186347
 30
0.0
  0
VERTEX
  5
22A
  8
THREE_QUARTER_INCH_THRUCUT
 10
4.349999639796541
 20
33.94803474234726
 30
0.0
  0
VERTEX
  5
22B
  8
THREE_QUARTER_INCH_THRUCUT
 10
4.949999883171031
 20
33.94803474234738
 30
0.0
  0
VERTEX
  5
22C
  8
THREE_QUARTER_INCH_THRUCUT
 10
4.949999860515746
 20
34.63419215303663
 30
0.0
 42
-1.0
  0
VERTEX
  5
22D
  8
THREE_QUARTER_INCH_THRUCUT
 10
5.133849911993721
 20
34.8180399222012
 30
0.0
  0
VERTEX
  5
22E
  8
THREE_QUARTER_INCH_THRUCUT
 10
5.266154360449164
 20
34.81803827539597
 30
0.0
 42
-1.0
  0
VERTEX
  5
22F
  8
THREE_QUARTER_INCH_THRUCUT
 10
5.449999835188137
 20
34.63419051229898
 30
0.0
  0
VERTEX
  5
230
  8
THREE_QUARTER_INCH_THRUCUT
 10
5.449999835178104
 20
33.94803474234738
 30
0.0
  0
VERTEX
  5
231
  8
THREE_QUARTER_INCH_THRUCUT
 10
5.937176739540476
 20
33.94803474234738
 30
0.0
  0
VERTEX
  5
232
  8
THREE_QUARTER_INCH_THRUCUT
 10
5.937176739540462
 20
33.68803474234731
 30
0.0
  0
VERTEX
  5
233
  8
THREE_QUARTER_INCH_THRUCUT
 10
5.449999835178119
 20
33.68803474234725
 30
0.0
  0
VERTEX
  5
234
  8
THREE_QUARTER_INCH_THRUCUT
 10
5.449999835188137
 20
33.00187897239567
 30
0.0
 42
-1.0
  0
VERTEX
  5
235
  8
THREE_QUARTER_INCH_THRUCUT
 10
5.26615436044915
 20
32.81803120929869
 30
0.0
  0
VERTEX
  5
236
  8
THREE_QUARTER_INCH_THRUCUT
 10
5.133849911993707
 20
32.81802956249344
 30
0.0
 42
-1.0
  0
VERTEX
  5
237
  8
THREE_QUARTER_INCH_THRUCUT
 10
4.949999860515732
 20
33.00187733165803
 30
0.0
  0
VERTEX
  5
238
  8
THREE_QUARTER_INCH_THRUCUT
 10
4.949999883171017
 20
33.68803474234728
 30
0.0
  0
VERTEX
  5
239
  8
THREE_QUARTER_INCH_THRUCUT
 10
4.349999605836767
 20
33.6880347423474
 30
0.0
  0
VERTEX
  5
23A
  8
THREE_QUARTER_INCH_THRUCUT
 10
4.349998517477673
 20
29.58673422283119
 30
0.0
 42
-1.0
  0
VERTEX
  5
23B
  8
THREE_QUARTER_INCH_THRUCUT
 10
4.081296835287787
 20
29.31803488240553
 30
0.0
  0
VERTEX
  5
23C
  8
THREE_QUARTER_INCH_THRUCUT
 10
3.750000377185813
 20
29.31803488240553
 30
0.0
  0
VERTEX
  5
23D
  8
THREE_QUARTER_INCH_THRUCUT
 10
3.732635377185773
 20
29.31651588240562
 30
0.0
  0
VERTEX
  5
23E
  8
THREE_QUARTER_INCH_THRUCUT
 10
3.715797377185766
 20
29.31200488240552
 30
0.0
  0
VERTEX
  5
23F
  8
THREE_QUARTER_INCH_THRUCUT
 10
3.700000377185745
 20
29.30463788240559
 30
0.0
  0
VERTEX
  5
240
  8
THREE_QUARTER_INCH_THRUCUT
 10
3.685721377185757
 20
29.2946398824056
 30
0.0
  0
VERTEX
  5
241
  8
THREE_QUARTER_INCH_THRUCUT
 10
3.673395377185727
 20
29.28231388240557
 30
0.0
  0
VERTEX
  5
242
  8
THREE_QUARTER_INCH_THRUCUT
 10
3.663397377185731
 20
29.26803488240558
 30
0.0
  0
VERTEX
  5
243
  8
THREE_QUARTER_INCH_THRUCUT
 10
3.6560303771858
 20
29.25223688240568
 30
0.0
  0
VERTEX
  5
244
  8
THREE_QUARTER_INCH_THRUCUT
 10
3.651519377185821
 20
29.23539988240555
 30
0.0
  0
VERTEX
  5
245
  8
THREE_QUARTER_INCH_THRUCUT
 10
3.650000377185791
 20
29.21803488240563
 30
0.0
  0
VERTEX
  5
246
  8
THREE_QUARTER_INCH_THRUCUT
 10
3.650000377185791
 20
27.8180353824057
 30
0.0
  0
VERTEX
  5
247
  8
THREE_QUARTER_INCH_THRUCUT
 10
3.650000377185791
 20
26.41803588240555
 30
0.0
  0
VERTEX
  5
248
  8
THREE_QUARTER_INCH_THRUCUT
 10
3.651519377185821
 20
26.40067088240562
 30
0.0
  0
VERTEX
  5
249
  8
THREE_QUARTER_INCH_THRUCUT
 10
3.6560303771858
 20
26.3838338824055
 30
0.0
  0
VERTEX
  5
24A
  8
THREE_QUARTER_INCH_THRUCUT
 10
3.663397377185731
 20
26.36803588240559
 30
0.0
  0
VERTEX
  5
24B
  8
THREE_QUARTER_INCH_THRUCUT
 10
3.673395377185727
 20
26.35375688240561
 30
0.0
  0
VERTEX
  5
24C
  8
THREE_QUARTER_INCH_THRUCUT
 10
3.685721377185757
 20
26.34143088240558
 30
0.0
  0
VERTEX
  5
24D
  8
THREE_QUARTER_INCH_THRUCUT
 10
3.700000377185745
 20
26.33143288240558
 30
0.0
  0
VERTEX
  5
24E
  8
THREE_QUARTER_INCH_THRUCUT
 10
3.715797377185766
 20
26.32406588240565
 30
0.0
  0
VERTEX
  5
24F
  8
THREE_QUARTER_INCH_THRUCUT
 10
3.732635377185773
 20
26.31955488240555
 30
0.0
  0
VERTEX
  5
250
  8
THREE_QUARTER_INCH_THRUCUT
 10
3.750000377185813
 20
26.31803588240564
 30
0.0
  0
VERTEX
  5
251
  8
THREE_QUARTER_INCH_THRUCUT
 10
4.081301256643712
 20
26.31803588240564
 30
0.0
 42
-0.4142135623730996
  0
VERTEX
  5
252
  8
THREE_QUARTER_INCH_THRUCUT
 10
4.350001855340167
 20
26.31803586056003
 30
0.0
 42
-0.4142135623731151
  0
VERTEX
  5
253
  8
THREE_QUARTER_INCH_THRUCUT
 10
4.350000728155635
 20
26.04933526186346
 30
0.0
  0
VERTEX
  5
254
  8
THREE_QUARTER_INCH_THRUCUT
 10
4.349999639796541
 20
21.94803474233442
 30
0.0
  0
VERTEX
  5
255
  8
THREE_QUARTER_INCH_THRUCUT
 10
4.949999883171032
 20
21.94803474233454
 30
0.0
  0
VERTEX
  5
256
  8
THREE_QUARTER_INCH_THRUCUT
 10
4.949999860515747
 20
22.63419215302379
 30
0.0
 42
-1.0
  0
VERTEX
  5
257
  8
THREE_QUARTER_INCH_THRUCUT
 10
5.133849911993722
 20
22.81803992218836
 30
0.0
  0
VERTEX
  5
258
  8
THREE_QUARTER_INCH_THRUCUT
 10
5.266154360449165
 20
22.81803827538313
 30
0.0
 42
-1.0
  0
VERTEX
  5
259
  8
THREE_QUARTER_INCH_THRUCUT
 10
5.449999835188138
 20
22.63419051228614
 30
0.0
  0
VERTEX
  5
25A
  8
THREE_QUARTER_INCH_THRUCUT
 10
5.449999835178105
 20
21.94803474233454
 30
0.0
  0
VERTEX
  5
25B
  8
THREE_QUARTER_INCH_THRUCUT
 10
5.937176739540477
 20
21.94803474233454
 30
0.0
  0
VERTEX
  5
25C
  8
THREE_QUARTER_INCH_THRUCUT
 10
5.937176739540463
 20
21.68803474233447
 30
0.0
  0
VERTEX
  5
25D
  8
THREE_QUARTER_INCH_THRUCUT
 10
5.44999983517812
 20
21.68803474233441
 30
0.0
  0
VERTEX
  5
25E
  8
THREE_QUARTER_INCH_THRUCUT
 10
5.449999835188138
 20
21.00187897238283
 30
0.0
 42
-1.0
  0
VERTEX
  5
25F
  8
THREE_QUARTER_INCH_THRUCUT
 10
5.266154360449151
 20
20.81803120928585
 30
0.0
  0
VERTEX
  5
260
  8
THREE_QUARTER_INCH_THRUCUT
 10
5.133849911993708
 20
20.8180295624806
 30
0.0
 42
-1.0
  0
VERTEX
  5
261
  8
THREE_QUARTER_INCH_THRUCUT
 10
4.949999860515732
 20
21.00187733164519
 30
0.0
  0
VERTEX
  5
262
  8
THREE_QUARTER_INCH_THRUCUT
 10
4.949999883171018
 20
21.68803474233444
 30
0.0
  0
SEQEND
  5
281
  8
THREE_QUARTER_INCH_THRUCUT
  0
ENDSEC
  0
EOF
