  0
SECTION
  2
HEADER
  9
$ACADVER
  1
AC1009
  9
$DWGCODEPAGE
  3
ansi_1252
  9
$INSBASE
 10
0.0
 20
0.0
 30
0.0
  9
$EXTMIN
 10
1.231104572031172
 20
7.182178560789639
 30
0.0
  9
$EXTMAX
 10
68.0011045720314
 20
46.68217856078968
 30
0.0
  9
$LIMMIN
 10
0.0
 20
0.0
  9
$LIMMAX
 10
12.0
 20
9.0
  9
$ORTHOMODE
 70
     0
  9
$REGENMODE
 70
     1
  9
$FILLMODE
 70
     1
  9
$QTEXTMODE
 70
     0
  9
$MIRRTEXT
 70
     1
  9
$DRAGMODE
 70
     2
  9
$LTSCALE
 40
1.0
  9
$OSMODE
 70
    37
  9
$ATTMODE
 70
     1
  9
$TEXTSIZE
 40
0.2
  9
$TRACEWID
 40
0.05
  9
$TEXTSTYLE
  7
STANDARD
  9
$CLAYER
  8
0
  9
$CELTYPE
  6
BYLAYER
  9
$CECOLOR
 62
   256
  9
$DIMSCALE
 40
1.0
  9
$DIMASZ
 40
0.18
  9
$DIMEXO
 40
0.0625
  9
$DIMDLI
 40
0.38
  9
$DIMRND
 40
0.0
  9
$DIMDLE
 40
0.0
  9
$DIMEXE
 40
0.18
  9
$DIMTP
 40
0.0
  9
$DIMTM
 40
0.0
  9
$DIMTXT
 40
0.18
  9
$DIMCEN
 40
0.09
  9
$DIMTSZ
 40
0.0
  9
$DIMTOL
 70
     0
  9
$DIMLIM
 70
     0
  9
$DIMTIH
 70
     1
  9
$DIMTOH
 70
     1
  9
$DIMSE1
 70
     0
  9
$DIMSE2
 70
     0
  9
$DIMTAD
 70
     0
  9
$DIMZIN
 70
     0
  9
$DIMBLK
  1

  9
$DIMASO
 70
     1
  9
$DIMSHO
 70
     1
  9
$DIMPOST
  1

  9
$DIMAPOST
  1

  9
$DIMALT
 70
     0
  9
$DIMALTD
 70
     2
  9
$DIMALTF
 40
25.4
  9
$DIMLFAC
 40
1.0
  9
$DIMTOFL
 70
     0
  9
$DIMTVP
 40
0.0
  9
$DIMTIX
 70
     0
  9
$DIMSOXD
 70
     0
  9
$DIMSAH
 70
     0
  9
$DIMBLK1
  1

  9
$DIMBLK2
  1

  9
$DIMSTYLE
  2
STANDARD
  9
$DIMCLRD
 70
     0
  9
$DIMCLRE
 70
     0
  9
$DIMCLRT
 70
     0
  9
$DIMTFAC
 40
1.0
  9
$DIMGAP
 40
0.09
  9
$LUNITS
 70
     2
  9
$LUPREC
 70
     4
  9
$SKETCHINC
 40
0.1
  9
$FILLETRAD
 40
0.5
  9
$AUNITS
 70
     0
  9
$AUPREC
 70
     0
  9
$MENU
  1
.
  9
$ELEVATION
 40
0.0
  9
$PELEVATION
 40
0.0
  9
$THICKNESS
 40
0.0
  9
$LIMCHECK
 70
     0
  9
$CHAMFERA
 40
0.0
  9
$CHAMFERB
 40
0.0
  9
$SKPOLY
 70
     0
  9
$TDCREATE
 40
2454910.5
  9
$TDUPDATE
 40
2457902.625070278
  9
$TDINDWG
 40
0.0000000116
  9
$TDUSRTIMER
 40
0.0000000116
  9
$USRTIMER
 70
     1
  9
$ANGBASE
 50
0.0
  9
$ANGDIR
 70
     0
  9
$PDMODE
 70
     0
  9
$PDSIZE
 40
0.0
  9
$PLINEWID
 40
0.0
  9
$COORDS
 70
     1
  9
$SPLFRAME
 70
     0
  9
$SPLINETYPE
 70
     6
  9
$SPLINESEGS
 70
     8
  9
$ATTDIA
 70
     0
  9
$ATTREQ
 70
     1
  9
$HANDLING
 70
     1
  9
$HANDSEED
  5
148
  9
$SURFTAB1
 70
     6
  9
$SURFTAB2
 70
     6
  9
$SURFTYPE
 70
     6
  9
$SURFU
 70
     6
  9
$SURFV
 70
     6
  9
$UCSNAME
  2

  9
$UCSORG
 10
0.0
 20
0.0
 30
0.0
  9
$UCSXDIR
 10
1.0
 20
0.0
 30
0.0
  9
$UCSYDIR
 10
0.0
 20
1.0
 30
0.0
  9
$PUCSNAME
  2

  9
$PUCSORG
 10
0.0
 20
0.0
 30
0.0
  9
$PUCSXDIR
 10
1.0
 20
0.0
 30
0.0
  9
$PUCSYDIR
 10
0.0
 20
1.0
 30
0.0
  9
$USERI1
 70
     0
  9
$USERI2
 70
     0
  9
$USERI3
 70
     0
  9
$USERI4
 70
     0
  9
$USERI5
 70
     0
  9
$USERR1
 40
0.0
  9
$USERR2
 40
0.0
  9
$USERR3
 40
0.0
  9
$USERR4
 40
0.0
  9
$USERR5
 40
0.0
  9
$WORLDVIEW
 70
     1
  9
$SHADEDGE
 70
     3
  9
$SHADEDIF
 70
    70
  9
$TILEMODE
 70
     1
  9
$MAXACTVP
 70
    64
  9
$PLIMCHECK
 70
     0
  9
$PEXTMIN
 10
1.000000000000000E+20
 20
1.000000000000000E+20
 30
1.000000000000000E+20
  9
$PEXTMAX
 10
-1.000000000000000E+20
 20
-1.000000000000000E+20
 30
-1.000000000000000E+20
  9
$PLIMMIN
 10
0.0
 20
0.0
  9
$PLIMMAX
 10
12.0
 20
9.0
  9
$UNITMODE
 70
     0
  9
$VISRETAIN
 70
     1
  9
$PLINEGEN
 70
     0
  9
$PSLTSCALE
 70
     1
  0
ENDSEC
  0
SECTION
  2
TABLES
  0
TABLE
  2
VPORT
 70
     1
  0
VPORT
  2
*ACTIVE
 70
     0
 10
0.0
 20
0.0
 11
1.0
 21
1.0
 12
10.42990654205607
 22
4.5
 13
0.0
 23
0.0
 14
0.5
 24
0.5
 15
0.5
 25
0.5
 16
0.0
 26
0.0
 36
1.0
 17
0.0
 27
0.0
 37
0.0
 40
9.0
 41
1.972972972850329
 42
50.0
 43
0.0
 44
0.0
 50
0.0
 51
0.0
 71
     0
 72
   100
 73
     1
 74
     3
 75
     0
 76
     0
 77
     0
 78
     0
  0
ENDTAB
  0
TABLE
  2
LTYPE
 70
     2
  0
LTYPE
  2
CONTINUOUS
 70
     0
  3
Solid line
 72
    65
 73
     0
 40
0.0
  0
LTYPE
  2
CONTINUOUS2
 70
     0
  3
Solid Line
 72
    65
 73
     0
 40
0.0
  0
ENDTAB
  0
TABLE
  2
LAYER
 70
     3
  0
LAYER
  2
0
 70
     0
 62
     7
  6
CONTINUOUS
  0
LAYER
  2
SCREW_LOCATION_RECESS
 70
     0
 62
     1
  6
CONTINUOUS
  0
LAYER
  2
HALF_INCH_THRUCUT
 70
     0
 62
    18
  6
CONTINUOUS
  0
ENDTAB
  0
TABLE
  2
STYLE
 70
     1
  0
STYLE
  2
STANDARD
 70
     0
 40
0.0
 41
1.0
 50
0.0
 71
     0
 42
0.2
  3
txt
  4

  0
ENDTAB
  0
TABLE
  2
VIEW
 70
     0
  0
ENDTAB
  0
TABLE
  2
UCS
 70
     0
  0
ENDTAB
  0
TABLE
  2
APPID
 70
     1
  0
APPID
  2
ACAD
 70
     0
  0
ENDTAB
  0
TABLE
  2
DIMSTYLE
 70
     1
  0
DIMSTYLE
  2
STANDARD
 70
     0
  3

  4

  5

  6

  7

 40
1.0
 41
0.18
 42
0.0625
 43
0.38
 44
0.18
 45
0.0
 46
0.0
 47
0.0
 48
0.0
140
0.18
141
0.09
142
0.0
143
25.4
144
1.0
145
0.0
146
1.0
147
0.09
 71
     0
 72
     0
 73
     1
 74
     1
 75
     0
 76
     0
 77
     0
 78
     0
170
     0
171
     2
172
     0
173
     0
174
     0
175
     0
176
     0
177
     0
178
     0
  0
ENDTAB
  0
ENDSEC
  0
SECTION
  2
BLOCKS
  0
BLOCK
  8
0
  2
$MODEL_SPACE
 70
     0
 10
0.0
 20
0.0
 30
0.0
  3
$MODEL_SPACE
  1

  0
ENDBLK
  5
21
  8
0
  0
BLOCK
 67
     1
  8
0
  2
$PAPER_SPACE
 70
     0
 10
0.0
 20
0.0
 30
0.0
  3
$PAPER_SPACE
  1

  0
ENDBLK
  5
1D
 67
     1
  8
0
  0
ENDSEC
  0
SECTION
  2
ENTITIES
  0
POLYLINE
  5
70
  8
SCREW_LOCATION_RECESS
 66
     1
 10
0.0
 20
0.0
 30
0.0
 70
     1
  0
VERTEX
  5
89
  8
SCREW_LOCATION_RECESS
 10
23.62610457203134
 20
14.81217856078968
 30
0.0
 42
0.4142135623730951
  0
VERTEX
  5
8A
  8
SCREW_LOCATION_RECESS
 10
23.49610457203136
 20
14.68217856078968
 30
0.0
 42
0.4142135623730951
  0
VERTEX
  5
8B
  8
SCREW_LOCATION_RECESS
 10
23.62610457203134
 20
14.55217856078968
 30
0.0
 42
0.4142135623730951
  0
VERTEX
  5
8C
  8
SCREW_LOCATION_RECESS
 10
23.75610457203137
 20
14.68217856078968
 30
0.0
 42
0.4142135623730951
  0
SEQEND
  5
137
  8
SCREW_LOCATION_RECESS
  0
POLYLINE
  5
71
  8
SCREW_LOCATION_RECESS
 66
     1
 10
0.0
 20
0.0
 30
0.0
 70
     1
  0
VERTEX
  5
8D
  8
SCREW_LOCATION_RECESS
 10
45.62610457203123
 20
39.31217855535388
 30
0.0
 42
0.4142135623730951
  0
VERTEX
  5
8E
  8
SCREW_LOCATION_RECESS
 10
45.49610457203125
 20
39.18217855535389
 30
0.0
 42
0.4142135623730951
  0
VERTEX
  5
8F
  8
SCREW_LOCATION_RECESS
 10
45.62610457203123
 20
39.05217855535389
 30
0.0
 42
0.4142135623730951
  0
VERTEX
  5
90
  8
SCREW_LOCATION_RECESS
 10
45.75610457203125
 20
39.18217855535389
 30
0.0
 42
0.4142135623730951
  0
SEQEND
  5
138
  8
SCREW_LOCATION_RECESS
  0
POLYLINE
  5
72
  8
SCREW_LOCATION_RECESS
 66
     1
 10
0.0
 20
0.0
 30
0.0
 70
     1
  0
VERTEX
  5
91
  8
SCREW_LOCATION_RECESS
 10
45.62610457203134
 20
27.06217856078973
 30
0.0
 42
0.4142135623730951
  0
VERTEX
  5
92
  8
SCREW_LOCATION_RECESS
 10
45.49610457203136
 20
26.93217856078974
 30
0.0
 42
0.4142135623730951
  0
VERTEX
  5
93
  8
SCREW_LOCATION_RECESS
 10
45.62610457203134
 20
26.80217856078975
 30
0.0
 42
0.4142135623730951
  0
VERTEX
  5
94
  8
SCREW_LOCATION_RECESS
 10
45.75610457203137
 20
26.93217856078974
 30
0.0
 42
0.4142135623730951
  0
SEQEND
  5
139
  8
SCREW_LOCATION_RECESS
  0
POLYLINE
  5
73
  8
SCREW_LOCATION_RECESS
 66
     1
 10
0.0
 20
0.0
 30
0.0
 70
     1
  0
VERTEX
  5
95
  8
SCREW_LOCATION_RECESS
 10
45.62610457203134
 20
14.81217856078973
 30
0.0
 42
0.4142135623730951
  0
VERTEX
  5
96
  8
SCREW_LOCATION_RECESS
 10
45.49610457203136
 20
14.68217856078974
 30
0.0
 42
0.4142135623730951
  0
VERTEX
  5
97
  8
SCREW_LOCATION_RECESS
 10
45.62610457203134
 20
14.55217856078974
 30
0.0
 42
0.4142135623730951
  0
VERTEX
  5
98
  8
SCREW_LOCATION_RECESS
 10
45.75610457203136
 20
14.68217856078974
 30
0.0
 42
0.4142135623730951
  0
SEQEND
  5
13A
  8
SCREW_LOCATION_RECESS
  0
POLYLINE
  5
74
  8
SCREW_LOCATION_RECESS
 66
     1
 10
0.0
 20
0.0
 30
0.0
 70
     1
  0
VERTEX
  5
99
  8
SCREW_LOCATION_RECESS
 10
67.62610457203134
 20
27.13217856078967
 30
0.0
 42
0.4142135623730951
  0
VERTEX
  5
9A
  8
SCREW_LOCATION_RECESS
 10
67.42610457203135
 20
26.93217856078968
 30
0.0
 42
0.4142135623730951
  0
VERTEX
  5
9B
  8
SCREW_LOCATION_RECESS
 10
67.62610457203134
 20
26.73217856078969
 30
0.0
 42
0.4142135623730951
  0
VERTEX
  5
9C
  8
SCREW_LOCATION_RECESS
 10
67.82610457203138
 20
26.93217856078968
 30
0.0
 42
0.4142135623730951
  0
SEQEND
  5
13B
  8
SCREW_LOCATION_RECESS
  0
POLYLINE
  5
75
  8
SCREW_LOCATION_RECESS
 66
     1
 10
0.0
 20
0.0
 30
0.0
 70
     1
  0
VERTEX
  5
9D
  8
SCREW_LOCATION_RECESS
 10
7.146153224796493
 20
9.187146775203507
 30
0.0
 42
0.4142135623730951
  0
VERTEX
  5
9E
  8
SCREW_LOCATION_RECESS
 10
7.016153224796493
 20
9.057146775203506
 30
0.0
 42
0.4142135623730951
  0
VERTEX
  5
9F
  8
SCREW_LOCATION_RECESS
 10
7.146153224796493
 20
8.927146775203505
 30
0.0
 42
0.4142135623730951
  0
VERTEX
  5
A0
  8
SCREW_LOCATION_RECESS
 10
7.276153224796492
 20
9.057146775203506
 30
0.0
 42
0.4142135623730951
  0
SEQEND
  5
13C
  8
SCREW_LOCATION_RECESS
  0
POLYLINE
  5
76
  8
SCREW_LOCATION_RECESS
 66
     1
 10
0.0
 20
0.0
 30
0.0
 70
     1
  0
VERTEX
  5
A1
  8
SCREW_LOCATION_RECESS
 10
18.14615322479649
 20
9.187146775203507
 30
0.0
 42
0.4142135623730951
  0
VERTEX
  5
A2
  8
SCREW_LOCATION_RECESS
 10
18.01615322479649
 20
9.057146775203506
 30
0.0
 42
0.4142135623730951
  0
VERTEX
  5
A3
  8
SCREW_LOCATION_RECESS
 10
18.14615322479649
 20
8.927146775203505
 30
0.0
 42
0.4142135623730951
  0
VERTEX
  5
A4
  8
SCREW_LOCATION_RECESS
 10
18.27615322479649
 20
9.057146775203506
 30
0.0
 42
0.4142135623730951
  0
SEQEND
  5
13D
  8
SCREW_LOCATION_RECESS
  0
POLYLINE
  5
77
  8
SCREW_LOCATION_RECESS
 66
     1
 10
0.0
 20
0.0
 30
0.0
 70
     1
  0
VERTEX
  5
A5
  8
SCREW_LOCATION_RECESS
 10
29.14615322479649
 20
9.187146775203507
 30
0.0
 42
0.4142135623730951
  0
VERTEX
  5
A6
  8
SCREW_LOCATION_RECESS
 10
29.01615322479649
 20
9.057146775203506
 30
0.0
 42
0.4142135623730951
  0
VERTEX
  5
A7
  8
SCREW_LOCATION_RECESS
 10
29.14615322479649
 20
8.927146775203505
 30
0.0
 42
0.4142135623730951
  0
VERTEX
  5
A8
  8
SCREW_LOCATION_RECESS
 10
29.27615322479649
 20
9.057146775203506
 30
0.0
 42
0.4142135623730951
  0
SEQEND
  5
13E
  8
SCREW_LOCATION_RECESS
  0
POLYLINE
  5
78
  8
SCREW_LOCATION_RECESS
 66
     1
 10
0.0
 20
0.0
 30
0.0
 70
     1
  0
VERTEX
  5
A9
  8
SCREW_LOCATION_RECESS
 10
40.14615322479649
 20
9.187146775203507
 30
0.0
 42
0.4142135623730951
  0
VERTEX
  5
AA
  8
SCREW_LOCATION_RECESS
 10
40.01615322479649
 20
9.057146775203506
 30
0.0
 42
0.4142135623730951
  0
VERTEX
  5
AB
  8
SCREW_LOCATION_RECESS
 10
40.14615322479649
 20
8.927146775203505
 30
0.0
 42
0.4142135623730951
  0
VERTEX
  5
AC
  8
SCREW_LOCATION_RECESS
 10
40.2761532247965
 20
9.057146775203506
 30
0.0
 42
0.4142135623730951
  0
SEQEND
  5
13F
  8
SCREW_LOCATION_RECESS
  0
POLYLINE
  5
79
  8
SCREW_LOCATION_RECESS
 66
     1
 10
0.0
 20
0.0
 30
0.0
 70
     1
  0
VERTEX
  5
AD
  8
SCREW_LOCATION_RECESS
 10
51.14615322479649
 20
9.187146775203507
 30
0.0
 42
0.4142135623730951
  0
VERTEX
  5
AE
  8
SCREW_LOCATION_RECESS
 10
51.01615322479649
 20
9.057146775203506
 30
0.0
 42
0.4142135623730951
  0
VERTEX
  5
AF
  8
SCREW_LOCATION_RECESS
 10
51.14615322479649
 20
8.927146775203505
 30
0.0
 42
0.4142135623730951
  0
VERTEX
  5
B0
  8
SCREW_LOCATION_RECESS
 10
51.2761532247965
 20
9.057146775203506
 30
0.0
 42
0.4142135623730951
  0
SEQEND
  5
140
  8
SCREW_LOCATION_RECESS
  0
POLYLINE
  5
7A
  8
SCREW_LOCATION_RECESS
 66
     1
 10
0.0
 20
0.0
 30
0.0
 70
     1
  0
VERTEX
  5
B1
  8
SCREW_LOCATION_RECESS
 10
62.14615322479649
 20
9.187146775203507
 30
0.0
 42
0.4142135623730951
  0
VERTEX
  5
B2
  8
SCREW_LOCATION_RECESS
 10
62.01615322479649
 20
9.057146775203506
 30
0.0
 42
0.4142135623730951
  0
VERTEX
  5
B3
  8
SCREW_LOCATION_RECESS
 10
62.14615322479649
 20
8.927146775203505
 30
0.0
 42
0.4142135623730951
  0
VERTEX
  5
B4
  8
SCREW_LOCATION_RECESS
 10
62.2761532247965
 20
9.057146775203506
 30
0.0
 42
0.4142135623730951
  0
SEQEND
  5
141
  8
SCREW_LOCATION_RECESS
  0
POLYLINE
  5
7B
  8
SCREW_LOCATION_RECESS
 66
     1
 10
0.0
 20
0.0
 30
0.0
 70
     1
  0
VERTEX
  5
B5
  8
SCREW_LOCATION_RECESS
 10
23.62610457203124
 20
39.31217855535383
 30
0.0
 42
0.4142135623730951
  0
VERTEX
  5
B6
  8
SCREW_LOCATION_RECESS
 10
23.49610457203124
 20
39.18217855535383
 30
0.0
 42
0.4142135623730951
  0
VERTEX
  5
B7
  8
SCREW_LOCATION_RECESS
 10
23.62610457203124
 20
39.05217855535383
 30
0.0
 42
0.4142135623730951
  0
VERTEX
  5
B8
  8
SCREW_LOCATION_RECESS
 10
23.75610457203124
 20
39.18217855535383
 30
0.0
 42
0.4142135623730951
  0
SEQEND
  5
142
  8
SCREW_LOCATION_RECESS
  0
POLYLINE
  5
7C
  8
SCREW_LOCATION_RECESS
 66
     1
 10
0.0
 20
0.0
 30
0.0
 70
     1
  0
VERTEX
  5
B9
  8
SCREW_LOCATION_RECESS
 10
23.62610457203135
 20
27.06217856078968
 30
0.0
 42
0.4142135623730951
  0
VERTEX
  5
BA
  8
SCREW_LOCATION_RECESS
 10
23.49610457203135
 20
26.93217856078968
 30
0.0
 42
0.4142135623730951
  0
VERTEX
  5
BB
  8
SCREW_LOCATION_RECESS
 10
23.62610457203135
 20
26.80217856078968
 30
0.0
 42
0.4142135623730951
  0
VERTEX
  5
BC
  8
SCREW_LOCATION_RECESS
 10
23.75610457203135
 20
26.93217856078968
 30
0.0
 42
0.4142135623730951
  0
SEQEND
  5
143
  8
SCREW_LOCATION_RECESS
  0
POLYLINE
  5
7E
  8
HALF_INCH_THRUCUT
 66
     1
 10
0.0
 20
0.0
 30
0.0
 70
     1
  0
VERTEX
  5
BD
  8
HALF_INCH_THRUCUT
 10
55.62610457259741
 20
9.43217856078968
 30
0.0
  0
VERTEX
  5
BE
  8
HALF_INCH_THRUCUT
 10
55.62610457259741
 20
8.68217856078968
 30
0.0
 42
1.0
  0
VERTEX
  5
BF
  8
HALF_INCH_THRUCUT
 10
55.8868919741722
 20
8.68217856078968
 30
0.0
  0
VERTEX
  5
C0
  8
HALF_INCH_THRUCUT
 10
57.3653171710226
 20
8.68217856078968
 30
0.0
 42
1.0
  0
VERTEX
  5
C1
  8
HALF_INCH_THRUCUT
 10
57.62610457259741
 20
8.68217856078968
 30
0.0
  0
VERTEX
  5
C2
  8
HALF_INCH_THRUCUT
 10
57.62610457259741
 20
9.43217856078968
 30
0.0
 42
1.0
  0
VERTEX
  5
C3
  8
HALF_INCH_THRUCUT
 10
57.3653171710226
 20
9.43217856078968
 30
0.0
  0
VERTEX
  5
C4
  8
HALF_INCH_THRUCUT
 10
55.8868919741722
 20
9.43217856078968
 30
0.0
 42
1.0
  0
SEQEND
  5
144
  8
HALF_INCH_THRUCUT
  0
POLYLINE
  5
7F
  8
HALF_INCH_THRUCUT
 66
     1
 10
0.0
 20
0.0
 30
0.0
 70
     1
  0
VERTEX
  5
C5
  8
HALF_INCH_THRUCUT
 10
33.62610457259738
 20
9.43217856078968
 30
0.0
  0
VERTEX
  5
C6
  8
HALF_INCH_THRUCUT
 10
33.62610457259738
 20
8.68217856078968
 30
0.0
 42
1.0
  0
VERTEX
  5
C7
  8
HALF_INCH_THRUCUT
 10
33.8868919741722
 20
8.68217856078968
 30
0.0
  0
VERTEX
  5
C8
  8
HALF_INCH_THRUCUT
 10
35.3653171710226
 20
8.68217856078968
 30
0.0
 42
1.0
  0
VERTEX
  5
C9
  8
HALF_INCH_THRUCUT
 10
35.62610457259741
 20
8.68217856078968
 30
0.0
  0
VERTEX
  5
CA
  8
HALF_INCH_THRUCUT
 10
35.62610457259741
 20
9.43217856078968
 30
0.0
 42
1.0
  0
VERTEX
  5
CB
  8
HALF_INCH_THRUCUT
 10
35.3653171710226
 20
9.43217856078968
 30
0.0
  0
VERTEX
  5
CC
  8
HALF_INCH_THRUCUT
 10
33.8868919741722
 20
9.43217856078968
 30
0.0
 42
1.0
  0
SEQEND
  5
145
  8
HALF_INCH_THRUCUT
  0
POLYLINE
  5
80
  8
HALF_INCH_THRUCUT
 66
     1
 10
0.0
 20
0.0
 30
0.0
 70
     1
  0
VERTEX
  5
CD
  8
HALF_INCH_THRUCUT
 10
11.62610457259741
 20
9.43217856078968
 30
0.0
  0
VERTEX
  5
CE
  8
HALF_INCH_THRUCUT
 10
11.62610457259741
 20
8.68217856078968
 30
0.0
 42
1.0
  0
VERTEX
  5
CF
  8
HALF_INCH_THRUCUT
 10
11.8868919741722
 20
8.68217856078968
 30
0.0
  0
VERTEX
  5
D0
  8
HALF_INCH_THRUCUT
 10
13.3653171710226
 20
8.68217856078968
 30
0.0
 42
1.0
  0
VERTEX
  5
D1
  8
HALF_INCH_THRUCUT
 10
13.62610457259741
 20
8.68217856078968
 30
0.0
  0
VERTEX
  5
D2
  8
HALF_INCH_THRUCUT
 10
13.62610457259741
 20
9.43217856078968
 30
0.0
 42
1.0
  0
VERTEX
  5
D3
  8
HALF_INCH_THRUCUT
 10
13.3653171710226
 20
9.43217856078968
 30
0.0
  0
VERTEX
  5
D4
  8
HALF_INCH_THRUCUT
 10
11.8868919741722
 20
9.43217856078968
 30
0.0
 42
1.0
  0
SEQEND
  5
146
  8
HALF_INCH_THRUCUT
  0
POLYLINE
  5
81
  8
HALF_INCH_THRUCUT
 66
     1
 10
0.0
 20
0.0
 30
0.0
 70
     1
  0
VERTEX
  5
D5
  8
HALF_INCH_THRUCUT
 10
2.001104572031378
 20
7.182178560789639
 30
0.0
  0
VERTEX
  5
D6
  8
HALF_INCH_THRUCUT
 10
23.23110457203138
 20
7.18217856078968
 30
0.0
  0
VERTEX
  5
D7
  8
HALF_INCH_THRUCUT
 10
23.23110457203138
 20
8.421391159214878
 30
0.0
 42
-1.0
  0
VERTEX
  5
D8
  8
HALF_INCH_THRUCUT
 10
23.23110457203138
 20
8.68217856078968
 30
0.0
  0
VERTEX
  5
D9
  8
HALF_INCH_THRUCUT
 10
24.02110457203138
 20
8.682178560789694
 30
0.0
 42
-1.0
  0
VERTEX
  5
DA
  8
HALF_INCH_THRUCUT
 10
24.02110457203138
 20
8.421391159214892
 30
0.0
  0
VERTEX
  5
DB
  8
HALF_INCH_THRUCUT
 10
24.02110457203138
 20
7.18217856078968
 30
0.0
  0
VERTEX
  5
DC
  8
HALF_INCH_THRUCUT
 10
45.23110457203138
 20
7.18217856078968
 30
0.0
  0
VERTEX
  5
DD
  8
HALF_INCH_THRUCUT
 10
45.23110457203136
 20
8.421391159214878
 30
0.0
 42
-1.0
  0
VERTEX
  5
DE
  8
HALF_INCH_THRUCUT
 10
45.23110457203136
 20
8.68217856078968
 30
0.0
  0
VERTEX
  5
DF
  8
HALF_INCH_THRUCUT
 10
46.02110457203143
 20
8.682178560789652
 30
0.0
 42
-1.0
  0
VERTEX
  5
E0
  8
HALF_INCH_THRUCUT
 10
46.02110457203143
 20
8.42139115921485
 30
0.0
  0
VERTEX
  5
E1
  8
HALF_INCH_THRUCUT
 10
46.02110457203138
 20
7.18217856078968
 30
0.0
  0
VERTEX
  5
E2
  8
HALF_INCH_THRUCUT
 10
67.23110457203138
 20
7.18217856078968
 30
0.0
  0
VERTEX
  5
E3
  8
HALF_INCH_THRUCUT
 10
67.2311045720313
 20
8.421391159214878
 30
0.0
 42
-1.0
  0
VERTEX
  5
E4
  8
HALF_INCH_THRUCUT
 10
67.2311045720313
 20
8.68217856078968
 30
0.0
  0
VERTEX
  5
E5
  8
HALF_INCH_THRUCUT
 10
67.6261045720314
 20
8.682178560789652
 30
0.0
  0
VERTEX
  5
E6
  8
HALF_INCH_THRUCUT
 10
67.6261045720314
 20
10.93217856078965
 30
0.0
  0
VERTEX
  5
E7
  8
HALF_INCH_THRUCUT
 10
67.2511045720314
 20
10.93217856078965
 30
0.0
 42
-1.0
  0
VERTEX
  5
E8
  8
HALF_INCH_THRUCUT
 10
67.2511045720314
 20
11.19296596236445
 30
0.0
  0
VERTEX
  5
E9
  8
HALF_INCH_THRUCUT
 10
67.2511045720314
 20
21.67139115921485
 30
0.0
 42
-1.0
  0
VERTEX
  5
EA
  8
HALF_INCH_THRUCUT
 10
67.2511045720314
 20
21.93217856078965
 30
0.0
  0
VERTEX
  5
EB
  8
HALF_INCH_THRUCUT
 10
68.0011045720314
 20
21.93217856078965
 30
0.0
  0
VERTEX
  5
EC
  8
HALF_INCH_THRUCUT
 10
68.0011045720314
 20
31.93217856078965
 30
0.0
  0
VERTEX
  5
ED
  8
HALF_INCH_THRUCUT
 10
67.2511045720314
 20
31.93217856078965
 30
0.0
 42
-1.0
  0
VERTEX
  5
EE
  8
HALF_INCH_THRUCUT
 10
67.2511045720314
 20
32.19296596236445
 30
0.0
  0
VERTEX
  5
EF
  8
HALF_INCH_THRUCUT
 10
67.2511045720314
 20
41.67139115921485
 30
0.0
 42
-1.0
  0
VERTEX
  5
F0
  8
HALF_INCH_THRUCUT
 10
67.2511045720314
 20
41.93217856078965
 30
0.0
  0
VERTEX
  5
F1
  8
HALF_INCH_THRUCUT
 10
67.6261045720314
 20
41.93217856078965
 30
0.0
  0
VERTEX
  5
F2
  8
HALF_INCH_THRUCUT
 10
67.6261045720314
 20
45.18217856078968
 30
0.0
  0
VERTEX
  5
F3
  8
HALF_INCH_THRUCUT
 10
67.23110457203119
 20
45.18217856078979
 30
0.0
 42
-1.0
  0
VERTEX
  5
F4
  8
HALF_INCH_THRUCUT
 10
67.23110457203121
 20
45.44296596236461
 30
0.0
  0
VERTEX
  5
F5
  8
HALF_INCH_THRUCUT
 10
67.23110457203138
 20
46.68217856078968
 30
0.0
  0
VERTEX
  5
F6
  8
HALF_INCH_THRUCUT
 10
46.02110457203138
 20
46.68217856078968
 30
0.0
  0
VERTEX
  5
F7
  8
HALF_INCH_THRUCUT
 10
46.02110457203158
 20
45.44296596236447
 30
0.0
 42
-1.0
  0
VERTEX
  5
F8
  8
HALF_INCH_THRUCUT
 10
46.0211045720316
 20
45.18217856078965
 30
0.0
  0
VERTEX
  5
F9
  8
HALF_INCH_THRUCUT
 10
45.23110457203119
 20
45.18217856078979
 30
0.0
 42
-1.0
  0
VERTEX
  5
FA
  8
HALF_INCH_THRUCUT
 10
45.23110457203121
 20
45.44296596236461
 30
0.0
  0
VERTEX
  5
FB
  8
HALF_INCH_THRUCUT
 10
45.23110457203138
 20
46.68217856078968
 30
0.0
  0
VERTEX
  5
FC
  8
HALF_INCH_THRUCUT
 10
24.02110457203138
 20
46.68217856078968
 30
0.0
  0
VERTEX
  5
FD
  8
HALF_INCH_THRUCUT
 10
24.02110457203138
 20
45.44296596236455
 30
0.0
 42
-1.0
  0
VERTEX
  5
FE
  8
HALF_INCH_THRUCUT
 10
24.02110457203138
 20
45.18217856078977
 30
0.0
  0
VERTEX
  5
FF
  8
HALF_INCH_THRUCUT
 10
23.23110457203141
 20
45.18217856078957
 30
0.0
 42
-1.0
  0
VERTEX
  5
100
  8
HALF_INCH_THRUCUT
 10
23.23110457203141
 20
45.44296596236438
 30
0.0
  0
VERTEX
  5
101
  8
HALF_INCH_THRUCUT
 10
23.23110457203138
 20
46.68217856078968
 30
0.0
  0
VERTEX
  5
102
  8
HALF_INCH_THRUCUT
 10
2.001104572031378
 20
46.68217856078968
 30
0.0
  0
VERTEX
  5
103
  8
HALF_INCH_THRUCUT
 10
2.001104572031153
 20
43.4429649623643
 30
0.0
 42
-1.0
  0
VERTEX
  5
104
  8
HALF_INCH_THRUCUT
 10
2.001104572031039
 20
43.1821775607895
 30
0.0
  0
VERTEX
  5
105
  8
HALF_INCH_THRUCUT
 10
1.231104572031399
 20
43.18217756078968
 30
0.0
  0
VERTEX
  5
106
  8
HALF_INCH_THRUCUT
 10
1.231104572031399
 20
40.18217756078965
 30
0.0
  0
VERTEX
  5
107
  8
HALF_INCH_THRUCUT
 10
2.001104572031267
 20
40.18217756078958
 30
0.0
 42
-1.0
  0
VERTEX
  5
108
  8
HALF_INCH_THRUCUT
 10
2.001104572031267
 20
39.92139015918785
 30
0.0
  0
VERTEX
  5
109
  8
HALF_INCH_THRUCUT
 10
2.001104563541389
 20
34.43717219041216
 30
0.0
  0
VERTEX
  5
10A
  8
HALF_INCH_THRUCUT
 10
2.601104832385744
 20
34.43717219041227
 30
0.0
  0
VERTEX
  5
10B
  8
HALF_INCH_THRUCUT
 10
2.601104809730458
 20
35.12332960110152
 30
0.0
 42
-1.0
  0
VERTEX
  5
10C
  8
HALF_INCH_THRUCUT
 10
2.784954861208433
 20
35.30717737026609
 30
0.0
  0
VERTEX
  5
10D
  8
HALF_INCH_THRUCUT
 10
2.917259309663876
 20
35.30717572346086
 30
0.0
 42
-1.0
  0
VERTEX
  5
10E
  8
HALF_INCH_THRUCUT
 10
3.10110478440285
 20
35.12332796036387
 30
0.0
  0
VERTEX
  5
10F
  8
HALF_INCH_THRUCUT
 10
3.101104784392845
 20
34.4371721904123
 30
0.0
  0
VERTEX
  5
110
  8
HALF_INCH_THRUCUT
 10
3.588281688755202
 20
34.43717219041224
 30
0.0
  0
VERTEX
  5
111
  8
HALF_INCH_THRUCUT
 10
3.588281688755202
 20
34.17717219041216
 30
0.0
  0
VERTEX
  5
112
  8
HALF_INCH_THRUCUT
 10
3.101104784392845
 20
34.17717219041216
 30
0.0
  0
VERTEX
  5
113
  8
HALF_INCH_THRUCUT
 10
3.10110478440285
 20
33.49101642046057
 30
0.0
 42
-1.0
  0
VERTEX
  5
114
  8
HALF_INCH_THRUCUT
 10
2.917259309663876
 20
33.30716865736358
 30
0.0
  0
VERTEX
  5
115
  8
HALF_INCH_THRUCUT
 10
2.784954861208433
 20
33.30716701055835
 30
0.0
 42
-1.0
  0
VERTEX
  5
116
  8
HALF_INCH_THRUCUT
 10
2.601104809730458
 20
33.49101477972292
 30
0.0
  0
VERTEX
  5
117
  8
HALF_INCH_THRUCUT
 10
2.601104832385744
 20
34.17717219041216
 30
0.0
  0
VERTEX
  5
118
  8
HALF_INCH_THRUCUT
 10
2.001104580521286
 20
34.17717219041228
 30
0.0
  0
VERTEX
  5
119
  8
HALF_INCH_THRUCUT
 10
2.00110457203138
 20
28.69296496236433
 30
0.0
 42
-1.0
  0
VERTEX
  5
11A
  8
HALF_INCH_THRUCUT
 10
2.00110457203138
 20
28.43217756078952
 30
0.0
  0
VERTEX
  5
11B
  8
HALF_INCH_THRUCUT
 10
1.231104572031399
 20
28.43217756078965
 30
0.0
  0
VERTEX
  5
11C
  8
HALF_INCH_THRUCUT
 10
1.231104572031172
 20
25.43217756078945
 30
0.0
  0
VERTEX
  5
11D
  8
HALF_INCH_THRUCUT
 10
2.001104572031153
 20
25.43217756078955
 30
0.0
 42
-1.0
  0
VERTEX
  5
11E
  8
HALF_INCH_THRUCUT
 10
2.001104572031153
 20
25.17139015921475
 30
0.0
  0
VERTEX
  5
11F
  8
HALF_INCH_THRUCUT
 10
2.001104563541318
 20
19.68717756078933
 30
0.0
  0
VERTEX
  5
120
  8
HALF_INCH_THRUCUT
 10
2.601104832385658
 20
19.68717756078957
 30
0.0
  0
VERTEX
  5
121
  8
HALF_INCH_THRUCUT
 10
2.601104809730373
 20
20.37333497147882
 30
0.0
 42
-1.0
  0
VERTEX
  5
122
  8
HALF_INCH_THRUCUT
 10
2.784954861208348
 20
20.55718274064339
 30
0.0
  0
VERTEX
  5
123
  8
HALF_INCH_THRUCUT
 10
2.917259309663791
 20
20.55718109383816
 30
0.0
 42
-1.0
  0
VERTEX
  5
124
  8
HALF_INCH_THRUCUT
 10
3.101104784402764
 20
20.37333333074117
 30
0.0
  0
VERTEX
  5
125
  8
HALF_INCH_THRUCUT
 10
3.10110478439276
 20
19.6871775607896
 30
0.0
  0
VERTEX
  5
126
  8
HALF_INCH_THRUCUT
 10
3.588281688755117
 20
19.68717756078955
 30
0.0
  0
VERTEX
  5
127
  8
HALF_INCH_THRUCUT
 10
3.588281688755117
 20
19.42717756078947
 30
0.0
  0
VERTEX
  5
128
  8
HALF_INCH_THRUCUT
 10
3.10110478439276
 20
19.42717756078947
 30
0.0
  0
VERTEX
  5
129
  8
HALF_INCH_THRUCUT
 10
3.101104784402764
 20
18.74102179083787
 30
0.0
 42
-1.0
  0
VERTEX
  5
12A
  8
HALF_INCH_THRUCUT
 10
2.917259309663791
 20
18.55717402774088
 30
0.0
  0
VERTEX
  5
12B
  8
HALF_INCH_THRUCUT
 10
2.784954861208348
 20
18.55717238093565
 30
0.0
 42
-1.0
  0
VERTEX
  5
12C
  8
HALF_INCH_THRUCUT
 10
2.601104809730373
 20
18.74102015010022
 30
0.0
  0
VERTEX
  5
12D
  8
HALF_INCH_THRUCUT
 10
2.601104832385658
 20
19.42717756078947
 30
0.0
  0
VERTEX
  5
12E
  8
HALF_INCH_THRUCUT
 10
2.001104580521215
 20
19.42717756078958
 30
0.0
  0
VERTEX
  5
12F
  8
HALF_INCH_THRUCUT
 10
2.00110457203138
 20
13.9429649623643
 30
0.0
 42
-1.0
  0
VERTEX
  5
130
  8
HALF_INCH_THRUCUT
 10
2.00110457203138
 20
13.68217756078954
 30
0.0
  0
VERTEX
  5
131
  8
HALF_INCH_THRUCUT
 10
1.231104572031399
 20
13.68217756078964
 30
0.0
  0
VERTEX
  5
132
  8
HALF_INCH_THRUCUT
 10
1.231104572031399
 20
10.68217756078964
 30
0.0
  0
VERTEX
  5
133
  8
HALF_INCH_THRUCUT
 10
2.00110457203138
 20
10.68217756078961
 30
0.0
 42
-1.0
  0
VERTEX
  5
134
  8
HALF_INCH_THRUCUT
 10
2.00110457203138
 20
10.42139015921481
 30
0.0
  0
SEQEND
  5
147
  8
HALF_INCH_THRUCUT
  0
ENDSEC
  0
EOF
