  0
SECTION
  2
HEADER
  9
$ACADVER
  1
AC1009
  9
$DWGCODEPAGE
  3
ansi_1252
  9
$INSBASE
 10
0.0
 20
0.0
 30
0.0
  9
$EXTMIN
 10
0.836726376328472
 20
7.72059018071791
 30
0.0
  9
$EXTMAX
 10
89.60672637632868
 20
47.22059018071795
 30
0.0
  9
$LIMMIN
 10
0.0
 20
0.0
  9
$LIMMAX
 10
12.0
 20
9.0
  9
$ORTHOMODE
 70
     0
  9
$REGENMODE
 70
     1
  9
$FILLMODE
 70
     1
  9
$QTEXTMODE
 70
     0
  9
$MIRRTEXT
 70
     1
  9
$DRAGMODE
 70
     2
  9
$LTSCALE
 40
1.0
  9
$OSMODE
 70
    37
  9
$ATTMODE
 70
     1
  9
$TEXTSIZE
 40
0.2
  9
$TRACEWID
 40
0.05
  9
$TEXTSTYLE
  7
STANDARD
  9
$CLAYER
  8
0
  9
$CELTYPE
  6
BYLAYER
  9
$CECOLOR
 62
   256
  9
$DIMSCALE
 40
1.0
  9
$DIMASZ
 40
0.18
  9
$DIMEXO
 40
0.0625
  9
$DIMDLI
 40
0.38
  9
$DIMRND
 40
0.0
  9
$DIMDLE
 40
0.0
  9
$DIMEXE
 40
0.18
  9
$DIMTP
 40
0.0
  9
$DIMTM
 40
0.0
  9
$DIMTXT
 40
0.18
  9
$DIMCEN
 40
0.09
  9
$DIMTSZ
 40
0.0
  9
$DIMTOL
 70
     0
  9
$DIMLIM
 70
     0
  9
$DIMTIH
 70
     1
  9
$DIMTOH
 70
     1
  9
$DIMSE1
 70
     0
  9
$DIMSE2
 70
     0
  9
$DIMTAD
 70
     0
  9
$DIMZIN
 70
     0
  9
$DIMBLK
  1

  9
$DIMASO
 70
     1
  9
$DIMSHO
 70
     1
  9
$DIMPOST
  1

  9
$DIMAPOST
  1

  9
$DIMALT
 70
     0
  9
$DIMALTD
 70
     2
  9
$DIMALTF
 40
25.4
  9
$DIMLFAC
 40
1.0
  9
$DIMTOFL
 70
     0
  9
$DIMTVP
 40
0.0
  9
$DIMTIX
 70
     0
  9
$DIMSOXD
 70
     0
  9
$DIMSAH
 70
     0
  9
$DIMBLK1
  1

  9
$DIMBLK2
  1

  9
$DIMSTYLE
  2
STANDARD
  9
$DIMCLRD
 70
     0
  9
$DIMCLRE
 70
     0
  9
$DIMCLRT
 70
     0
  9
$DIMTFAC
 40
1.0
  9
$DIMGAP
 40
0.09
  9
$LUNITS
 70
     2
  9
$LUPREC
 70
     4
  9
$SKETCHINC
 40
0.1
  9
$FILLETRAD
 40
0.5
  9
$AUNITS
 70
     0
  9
$AUPREC
 70
     0
  9
$MENU
  1
.
  9
$ELEVATION
 40
0.0
  9
$PELEVATION
 40
0.0
  9
$THICKNESS
 40
0.0
  9
$LIMCHECK
 70
     0
  9
$CHAMFERA
 40
0.0
  9
$CHAMFERB
 40
0.0
  9
$SKPOLY
 70
     0
  9
$TDCREATE
 40
2454910.5
  9
$TDUPDATE
 40
2457902.624668773
  9
$TDINDWG
 40
0.0000000116
  9
$TDUSRTIMER
 40
0.0000000116
  9
$USRTIMER
 70
     1
  9
$ANGBASE
 50
0.0
  9
$ANGDIR
 70
     0
  9
$PDMODE
 70
     0
  9
$PDSIZE
 40
0.0
  9
$PLINEWID
 40
0.0
  9
$COORDS
 70
     1
  9
$SPLFRAME
 70
     0
  9
$SPLINETYPE
 70
     6
  9
$SPLINESEGS
 70
     8
  9
$ATTDIA
 70
     0
  9
$ATTREQ
 70
     1
  9
$HANDLING
 70
     1
  9
$HANDSEED
  5
182
  9
$SURFTAB1
 70
     6
  9
$SURFTAB2
 70
     6
  9
$SURFTYPE
 70
     6
  9
$SURFU
 70
     6
  9
$SURFV
 70
     6
  9
$UCSNAME
  2

  9
$UCSORG
 10
0.0
 20
0.0
 30
0.0
  9
$UCSXDIR
 10
1.0
 20
0.0
 30
0.0
  9
$UCSYDIR
 10
0.0
 20
1.0
 30
0.0
  9
$PUCSNAME
  2

  9
$PUCSORG
 10
0.0
 20
0.0
 30
0.0
  9
$PUCSXDIR
 10
1.0
 20
0.0
 30
0.0
  9
$PUCSYDIR
 10
0.0
 20
1.0
 30
0.0
  9
$USERI1
 70
     0
  9
$USERI2
 70
     0
  9
$USERI3
 70
     0
  9
$USERI4
 70
     0
  9
$USERI5
 70
     0
  9
$USERR1
 40
0.0
  9
$USERR2
 40
0.0
  9
$USERR3
 40
0.0
  9
$USERR4
 40
0.0
  9
$USERR5
 40
0.0
  9
$WORLDVIEW
 70
     1
  9
$SHADEDGE
 70
     3
  9
$SHADEDIF
 70
    70
  9
$TILEMODE
 70
     1
  9
$MAXACTVP
 70
    64
  9
$PLIMCHECK
 70
     0
  9
$PEXTMIN
 10
1.000000000000000E+20
 20
1.000000000000000E+20
 30
1.000000000000000E+20
  9
$PEXTMAX
 10
-1.000000000000000E+20
 20
-1.000000000000000E+20
 30
-1.000000000000000E+20
  9
$PLIMMIN
 10
0.0
 20
0.0
  9
$PLIMMAX
 10
12.0
 20
9.0
  9
$UNITMODE
 70
     0
  9
$VISRETAIN
 70
     1
  9
$PLINEGEN
 70
     0
  9
$PSLTSCALE
 70
     1
  0
ENDSEC
  0
SECTION
  2
TABLES
  0
TABLE
  2
VPORT
 70
     1
  0
VPORT
  2
*ACTIVE
 70
     0
 10
0.0
 20
0.0
 11
1.0
 21
1.0
 12
10.42990654205607
 22
4.5
 13
0.0
 23
0.0
 14
0.5
 24
0.5
 15
0.5
 25
0.5
 16
0.0
 26
0.0
 36
1.0
 17
0.0
 27
0.0
 37
0.0
 40
9.0
 41
1.972972972850329
 42
50.0
 43
0.0
 44
0.0
 50
0.0
 51
0.0
 71
     0
 72
   100
 73
     1
 74
     3
 75
     0
 76
     0
 77
     0
 78
     0
  0
ENDTAB
  0
TABLE
  2
LTYPE
 70
     2
  0
LTYPE
  2
CONTINUOUS
 70
     0
  3
Solid line
 72
    65
 73
     0
 40
0.0
  0
LTYPE
  2
CONTINUOUS2
 70
     0
  3
Solid Line
 72
    65
 73
     0
 40
0.0
  0
ENDTAB
  0
TABLE
  2
LAYER
 70
     3
  0
LAYER
  2
0
 70
     0
 62
     7
  6
CONTINUOUS
  0
LAYER
  2
SCREW_LOCATION_RECESS
 70
     0
 62
     1
  6
CONTINUOUS
  0
LAYER
  2
HALF_INCH_THRUCUT
 70
     0
 62
    18
  6
CONTINUOUS
  0
ENDTAB
  0
TABLE
  2
STYLE
 70
     1
  0
STYLE
  2
STANDARD
 70
     0
 40
0.0
 41
1.0
 50
0.0
 71
     0
 42
0.2
  3
txt
  4

  0
ENDTAB
  0
TABLE
  2
VIEW
 70
     0
  0
ENDTAB
  0
TABLE
  2
UCS
 70
     0
  0
ENDTAB
  0
TABLE
  2
APPID
 70
     1
  0
APPID
  2
ACAD
 70
     0
  0
ENDTAB
  0
TABLE
  2
DIMSTYLE
 70
     1
  0
DIMSTYLE
  2
STANDARD
 70
     0
  3

  4

  5

  6

  7

 40
1.0
 41
0.18
 42
0.0625
 43
0.38
 44
0.18
 45
0.0
 46
0.0
 47
0.0
 48
0.0
140
0.18
141
0.09
142
0.0
143
25.4
144
1.0
145
0.0
146
1.0
147
0.09
 71
     0
 72
     0
 73
     1
 74
     1
 75
     0
 76
     0
 77
     0
 78
     0
170
     0
171
     2
172
     0
173
     0
174
     0
175
     0
176
     0
177
     0
178
     0
  0
ENDTAB
  0
ENDSEC
  0
SECTION
  2
BLOCKS
  0
BLOCK
  8
0
  2
$MODEL_SPACE
 70
     0
 10
0.0
 20
0.0
 30
0.0
  3
$MODEL_SPACE
  1

  0
ENDBLK
  5
21
  8
0
  0
BLOCK
 67
     1
  8
0
  2
$PAPER_SPACE
 70
     0
 10
0.0
 20
0.0
 30
0.0
  3
$PAPER_SPACE
  1

  0
ENDBLK
  5
1D
 67
     1
  8
0
  0
ENDSEC
  0
SECTION
  2
ENTITIES
  0
POLYLINE
  5
70
  8
SCREW_LOCATION_RECESS
 66
     1
 10
0.0
 20
0.0
 30
0.0
 70
     1
  0
VERTEX
  5
90
  8
SCREW_LOCATION_RECESS
 10
23.21172637632833
 20
39.85058917528202
 30
0.0
 42
0.4142135623730951
  0
VERTEX
  5
91
  8
SCREW_LOCATION_RECESS
 10
23.08172637632835
 20
39.72058917528203
 30
0.0
 42
0.4142135623730951
  0
VERTEX
  5
92
  8
SCREW_LOCATION_RECESS
 10
23.21172637632833
 20
39.59058917528203
 30
0.0
 42
0.4142135623730951
  0
VERTEX
  5
93
  8
SCREW_LOCATION_RECESS
 10
23.34172637632836
 20
39.72058917528203
 30
0.0
 42
0.4142135623730951
  0
SEQEND
  5
16A
  8
SCREW_LOCATION_RECESS
  0
POLYLINE
  5
71
  8
SCREW_LOCATION_RECESS
 66
     1
 10
0.0
 20
0.0
 30
0.0
 70
     1
  0
VERTEX
  5
94
  8
SCREW_LOCATION_RECESS
 10
23.21172637632845
 20
27.60058918071786
 30
0.0
 42
0.4142135623730951
  0
VERTEX
  5
95
  8
SCREW_LOCATION_RECESS
 10
23.08172637632846
 20
27.47058918071786
 30
0.0
 42
0.4142135623730951
  0
VERTEX
  5
96
  8
SCREW_LOCATION_RECESS
 10
23.21172637632845
 20
27.34058918071787
 30
0.0
 42
0.4142135623730951
  0
VERTEX
  5
97
  8
SCREW_LOCATION_RECESS
 10
23.34172637632847
 20
27.47058918071786
 30
0.0
 42
0.4142135623730951
  0
SEQEND
  5
16B
  8
SCREW_LOCATION_RECESS
  0
POLYLINE
  5
72
  8
SCREW_LOCATION_RECESS
 66
     1
 10
0.0
 20
0.0
 30
0.0
 70
     1
  0
VERTEX
  5
98
  8
SCREW_LOCATION_RECESS
 10
23.21172637632845
 20
15.35058918071787
 30
0.0
 42
0.4142135623730951
  0
VERTEX
  5
99
  8
SCREW_LOCATION_RECESS
 10
23.08172637632846
 20
15.22058918071788
 30
0.0
 42
0.4142135623730951
  0
VERTEX
  5
9A
  8
SCREW_LOCATION_RECESS
 10
23.21172637632845
 20
15.09058918071788
 30
0.0
 42
0.4142135623730951
  0
VERTEX
  5
9B
  8
SCREW_LOCATION_RECESS
 10
23.34172637632847
 20
15.22058918071788
 30
0.0
 42
0.4142135623730951
  0
SEQEND
  5
16C
  8
SCREW_LOCATION_RECESS
  0
POLYLINE
  5
73
  8
SCREW_LOCATION_RECESS
 66
     1
 10
0.0
 20
0.0
 30
0.0
 70
     1
  0
VERTEX
  5
9C
  8
SCREW_LOCATION_RECESS
 10
45.21172637632856
 20
39.850589175282
 30
0.0
 42
0.4142135623730951
  0
VERTEX
  5
9D
  8
SCREW_LOCATION_RECESS
 10
45.08172637632858
 20
39.72058917528199
 30
0.0
 42
0.4142135623730951
  0
VERTEX
  5
9E
  8
SCREW_LOCATION_RECESS
 10
45.21172637632856
 20
39.59058917528201
 30
0.0
 42
0.4142135623730951
  0
VERTEX
  5
9F
  8
SCREW_LOCATION_RECESS
 10
45.34172637632858
 20
39.72058917528199
 30
0.0
 42
0.4142135623730951
  0
SEQEND
  5
16D
  8
SCREW_LOCATION_RECESS
  0
POLYLINE
  5
74
  8
SCREW_LOCATION_RECESS
 66
     1
 10
0.0
 20
0.0
 30
0.0
 70
     1
  0
VERTEX
  5
A0
  8
SCREW_LOCATION_RECESS
 10
45.21172637632867
 20
27.60058918071783
 30
0.0
 42
0.4142135623730951
  0
VERTEX
  5
A1
  8
SCREW_LOCATION_RECESS
 10
45.08172637632869
 20
27.47058918071783
 30
0.0
 42
0.4142135623730951
  0
VERTEX
  5
A2
  8
SCREW_LOCATION_RECESS
 10
45.21172637632867
 20
27.34058918071785
 30
0.0
 42
0.4142135623730951
  0
VERTEX
  5
A3
  8
SCREW_LOCATION_RECESS
 10
45.3417263763287
 20
27.47058918071783
 30
0.0
 42
0.4142135623730951
  0
SEQEND
  5
16E
  8
SCREW_LOCATION_RECESS
  0
POLYLINE
  5
75
  8
SCREW_LOCATION_RECESS
 66
     1
 10
0.0
 20
0.0
 30
0.0
 70
     1
  0
VERTEX
  5
A4
  8
SCREW_LOCATION_RECESS
 10
45.21172637632867
 20
15.35058918071784
 30
0.0
 42
0.4142135623730951
  0
VERTEX
  5
A5
  8
SCREW_LOCATION_RECESS
 10
45.08172637632869
 20
15.22058918071784
 30
0.0
 42
0.4142135623730951
  0
VERTEX
  5
A6
  8
SCREW_LOCATION_RECESS
 10
45.21172637632867
 20
15.09058918071785
 30
0.0
 42
0.4142135623730951
  0
VERTEX
  5
A7
  8
SCREW_LOCATION_RECESS
 10
45.34172637632869
 20
15.22058918071784
 30
0.0
 42
0.4142135623730951
  0
SEQEND
  5
16F
  8
SCREW_LOCATION_RECESS
  0
POLYLINE
  5
76
  8
SCREW_LOCATION_RECESS
 66
     1
 10
0.0
 20
0.0
 30
0.0
 70
     1
  0
VERTEX
  5
A8
  8
SCREW_LOCATION_RECESS
 10
67.21172637632813
 20
39.85058917528244
 30
0.0
 42
0.4142135623730951
  0
VERTEX
  5
A9
  8
SCREW_LOCATION_RECESS
 10
67.08172637632813
 20
39.72058917528244
 30
0.0
 42
0.4142135623730951
  0
VERTEX
  5
AA
  8
SCREW_LOCATION_RECESS
 10
67.21172637632813
 20
39.59058917528245
 30
0.0
 42
0.4142135623730951
  0
VERTEX
  5
AB
  8
SCREW_LOCATION_RECESS
 10
67.34172637632815
 20
39.72058917528244
 30
0.0
 42
0.4142135623730951
  0
SEQEND
  5
170
  8
SCREW_LOCATION_RECESS
  0
POLYLINE
  5
77
  8
SCREW_LOCATION_RECESS
 66
     1
 10
0.0
 20
0.0
 30
0.0
 70
     1
  0
VERTEX
  5
AC
  8
SCREW_LOCATION_RECESS
 10
67.21172637632824
 20
27.60058918071827
 30
0.0
 42
0.4142135623730951
  0
VERTEX
  5
AD
  8
SCREW_LOCATION_RECESS
 10
67.08172637632826
 20
27.47058918071827
 30
0.0
 42
0.4142135623730951
  0
VERTEX
  5
AE
  8
SCREW_LOCATION_RECESS
 10
67.21172637632824
 20
27.34058918071828
 30
0.0
 42
0.4142135623730951
  0
VERTEX
  5
AF
  8
SCREW_LOCATION_RECESS
 10
67.34172637632828
 20
27.47058918071827
 30
0.0
 42
0.4142135623730951
  0
SEQEND
  5
171
  8
SCREW_LOCATION_RECESS
  0
POLYLINE
  5
78
  8
SCREW_LOCATION_RECESS
 66
     1
 10
0.0
 20
0.0
 30
0.0
 70
     1
  0
VERTEX
  5
B0
  8
SCREW_LOCATION_RECESS
 10
67.21172637632824
 20
15.35058918071829
 30
0.0
 42
0.4142135623730951
  0
VERTEX
  5
B1
  8
SCREW_LOCATION_RECESS
 10
67.08172637632826
 20
15.22058918071829
 30
0.0
 42
0.4142135623730951
  0
VERTEX
  5
B2
  8
SCREW_LOCATION_RECESS
 10
67.21172637632824
 20
15.09058918071829
 30
0.0
 42
0.4142135623730951
  0
VERTEX
  5
B3
  8
SCREW_LOCATION_RECESS
 10
67.34172637632828
 20
15.22058918071829
 30
0.0
 42
0.4142135623730951
  0
SEQEND
  5
172
  8
SCREW_LOCATION_RECESS
  0
POLYLINE
  5
79
  8
SCREW_LOCATION_RECESS
 66
     1
 10
0.0
 20
0.0
 30
0.0
 70
     1
  0
VERTEX
  5
B4
  8
SCREW_LOCATION_RECESS
 10
1.211726376328307
 20
39.85058917528211
 30
0.0
 42
0.4142135623730951
  0
VERTEX
  5
B5
  8
SCREW_LOCATION_RECESS
 10
1.08172637632832
 20
39.72058917528211
 30
0.0
 42
0.4142135623730951
  0
VERTEX
  5
B6
  8
SCREW_LOCATION_RECESS
 10
1.211726376328307
 20
39.59058917528212
 30
0.0
 42
0.4142135623730951
  0
VERTEX
  5
B7
  8
SCREW_LOCATION_RECESS
 10
1.34172637632833
 20
39.72058917528211
 30
0.0
 42
0.4142135623730951
  0
SEQEND
  5
173
  8
SCREW_LOCATION_RECESS
  0
POLYLINE
  5
7A
  8
SCREW_LOCATION_RECESS
 66
     1
 10
0.0
 20
0.0
 30
0.0
 70
     1
  0
VERTEX
  5
B8
  8
SCREW_LOCATION_RECESS
 10
1.211726376328421
 20
15.35058918071796
 30
0.0
 42
0.4142135623730951
  0
VERTEX
  5
B9
  8
SCREW_LOCATION_RECESS
 10
1.081726376328434
 20
15.22058918071796
 30
0.0
 42
0.4142135623730951
  0
VERTEX
  5
BA
  8
SCREW_LOCATION_RECESS
 10
1.211726376328421
 20
15.09058918071797
 30
0.0
 42
0.4142135623730951
  0
VERTEX
  5
BB
  8
SCREW_LOCATION_RECESS
 10
1.341726376328443
 20
15.22058918071796
 30
0.0
 42
0.4142135623730951
  0
SEQEND
  5
174
  8
SCREW_LOCATION_RECESS
  0
POLYLINE
  5
7B
  8
SCREW_LOCATION_RECESS
 66
     1
 10
0.0
 20
0.0
 30
0.0
 70
     1
  0
VERTEX
  5
BC
  8
SCREW_LOCATION_RECESS
 10
6.731775029093541
 20
9.725557395131775
 30
0.0
 42
0.4142135623730951
  0
VERTEX
  5
BD
  8
SCREW_LOCATION_RECESS
 10
6.601775029093545
 20
9.595557395131774
 30
0.0
 42
0.4142135623730951
  0
VERTEX
  5
BE
  8
SCREW_LOCATION_RECESS
 10
6.731775029093541
 20
9.465557395131773
 30
0.0
 42
0.4142135623730951
  0
VERTEX
  5
BF
  8
SCREW_LOCATION_RECESS
 10
6.861775029093536
 20
9.595557395131774
 30
0.0
 42
0.4142135623730951
  0
SEQEND
  5
175
  8
SCREW_LOCATION_RECESS
  0
POLYLINE
  5
7C
  8
SCREW_LOCATION_RECESS
 66
     1
 10
0.0
 20
0.0
 30
0.0
 70
     1
  0
VERTEX
  5
C0
  8
SCREW_LOCATION_RECESS
 10
17.73177502909354
 20
9.725557395131775
 30
0.0
 42
0.4142135623730951
  0
VERTEX
  5
C1
  8
SCREW_LOCATION_RECESS
 10
17.60177502909355
 20
9.595557395131774
 30
0.0
 42
0.4142135623730951
  0
VERTEX
  5
C2
  8
SCREW_LOCATION_RECESS
 10
17.73177502909354
 20
9.465557395131773
 30
0.0
 42
0.4142135623730951
  0
VERTEX
  5
C3
  8
SCREW_LOCATION_RECESS
 10
17.86177502909354
 20
9.595557395131774
 30
0.0
 42
0.4142135623730951
  0
SEQEND
  5
176
  8
SCREW_LOCATION_RECESS
  0
POLYLINE
  5
7D
  8
SCREW_LOCATION_RECESS
 66
     1
 10
0.0
 20
0.0
 30
0.0
 70
     1
  0
VERTEX
  5
C4
  8
SCREW_LOCATION_RECESS
 10
28.73177502909354
 20
9.725557395131775
 30
0.0
 42
0.4142135623730951
  0
VERTEX
  5
C5
  8
SCREW_LOCATION_RECESS
 10
28.60177502909355
 20
9.595557395131774
 30
0.0
 42
0.4142135623730951
  0
VERTEX
  5
C6
  8
SCREW_LOCATION_RECESS
 10
28.73177502909354
 20
9.465557395131773
 30
0.0
 42
0.4142135623730951
  0
VERTEX
  5
C7
  8
SCREW_LOCATION_RECESS
 10
28.86177502909354
 20
9.595557395131774
 30
0.0
 42
0.4142135623730951
  0
SEQEND
  5
177
  8
SCREW_LOCATION_RECESS
  0
POLYLINE
  5
7E
  8
SCREW_LOCATION_RECESS
 66
     1
 10
0.0
 20
0.0
 30
0.0
 70
     1
  0
VERTEX
  5
C8
  8
SCREW_LOCATION_RECESS
 10
39.73177502909354
 20
9.725557395131775
 30
0.0
 42
0.4142135623730951
  0
VERTEX
  5
C9
  8
SCREW_LOCATION_RECESS
 10
39.60177502909355
 20
9.595557395131774
 30
0.0
 42
0.4142135623730951
  0
VERTEX
  5
CA
  8
SCREW_LOCATION_RECESS
 10
39.73177502909354
 20
9.465557395131773
 30
0.0
 42
0.4142135623730951
  0
VERTEX
  5
CB
  8
SCREW_LOCATION_RECESS
 10
39.86177502909354
 20
9.595557395131774
 30
0.0
 42
0.4142135623730951
  0
SEQEND
  5
178
  8
SCREW_LOCATION_RECESS
  0
POLYLINE
  5
7F
  8
SCREW_LOCATION_RECESS
 66
     1
 10
0.0
 20
0.0
 30
0.0
 70
     1
  0
VERTEX
  5
CC
  8
SCREW_LOCATION_RECESS
 10
50.73177502909354
 20
9.725557395131775
 30
0.0
 42
0.4142135623730951
  0
VERTEX
  5
CD
  8
SCREW_LOCATION_RECESS
 10
50.60177502909355
 20
9.595557395131774
 30
0.0
 42
0.4142135623730951
  0
VERTEX
  5
CE
  8
SCREW_LOCATION_RECESS
 10
50.73177502909354
 20
9.465557395131773
 30
0.0
 42
0.4142135623730951
  0
VERTEX
  5
CF
  8
SCREW_LOCATION_RECESS
 10
50.86177502909354
 20
9.595557395131774
 30
0.0
 42
0.4142135623730951
  0
SEQEND
  5
179
  8
SCREW_LOCATION_RECESS
  0
POLYLINE
  5
80
  8
SCREW_LOCATION_RECESS
 66
     1
 10
0.0
 20
0.0
 30
0.0
 70
     1
  0
VERTEX
  5
D0
  8
SCREW_LOCATION_RECESS
 10
61.73177502909357
 20
9.725557395131775
 30
0.0
 42
0.4142135623730951
  0
VERTEX
  5
D1
  8
SCREW_LOCATION_RECESS
 10
61.60177502909357
 20
9.595557395131774
 30
0.0
 42
0.4142135623730951
  0
VERTEX
  5
D2
  8
SCREW_LOCATION_RECESS
 10
61.73177502909357
 20
9.465557395131773
 30
0.0
 42
0.4142135623730951
  0
VERTEX
  5
D3
  8
SCREW_LOCATION_RECESS
 10
61.86177502909356
 20
9.595557395131774
 30
0.0
 42
0.4142135623730951
  0
SEQEND
  5
17A
  8
SCREW_LOCATION_RECESS
  0
POLYLINE
  5
81
  8
SCREW_LOCATION_RECESS
 66
     1
 10
0.0
 20
0.0
 30
0.0
 70
     1
  0
VERTEX
  5
D4
  8
SCREW_LOCATION_RECESS
 10
83.7317750290936
 20
9.725557395131775
 30
0.0
 42
0.4142135623730951
  0
VERTEX
  5
D5
  8
SCREW_LOCATION_RECESS
 10
83.6017750290936
 20
9.595557395131774
 30
0.0
 42
0.4142135623730951
  0
VERTEX
  5
D6
  8
SCREW_LOCATION_RECESS
 10
83.7317750290936
 20
9.465557395131773
 30
0.0
 42
0.4142135623730951
  0
VERTEX
  5
D7
  8
SCREW_LOCATION_RECESS
 10
83.8617750290936
 20
9.595557395131774
 30
0.0
 42
0.4142135623730951
  0
SEQEND
  5
17B
  8
SCREW_LOCATION_RECESS
  0
POLYLINE
  5
82
  8
SCREW_LOCATION_RECESS
 66
     1
 10
0.0
 20
0.0
 30
0.0
 70
     1
  0
VERTEX
  5
D8
  8
SCREW_LOCATION_RECESS
 10
72.73177502909357
 20
9.725557395131775
 30
0.0
 42
0.4142135623730951
  0
VERTEX
  5
D9
  8
SCREW_LOCATION_RECESS
 10
72.60177502909357
 20
9.595557395131774
 30
0.0
 42
0.4142135623730951
  0
VERTEX
  5
DA
  8
SCREW_LOCATION_RECESS
 10
72.73177502909357
 20
9.465557395131773
 30
0.0
 42
0.4142135623730951
  0
VERTEX
  5
DB
  8
SCREW_LOCATION_RECESS
 10
72.86177502909356
 20
9.595557395131774
 30
0.0
 42
0.4142135623730951
  0
SEQEND
  5
17C
  8
SCREW_LOCATION_RECESS
  0
POLYLINE
  5
84
  8
HALF_INCH_THRUCUT
 66
     1
 10
0.0
 20
0.0
 30
0.0
 70
     1
  0
VERTEX
  5
DC
  8
HALF_INCH_THRUCUT
 10
77.21172637689446
 20
9.97058918071794
 30
0.0
  0
VERTEX
  5
DD
  8
HALF_INCH_THRUCUT
 10
77.21172637689446
 20
9.22058918071794
 30
0.0
 42
1.0
  0
VERTEX
  5
DE
  8
HALF_INCH_THRUCUT
 10
77.47251377846928
 20
9.22058918071794
 30
0.0
  0
VERTEX
  5
DF
  8
HALF_INCH_THRUCUT
 10
78.95093897531964
 20
9.22058918071794
 30
0.0
 42
1.0
  0
VERTEX
  5
E0
  8
HALF_INCH_THRUCUT
 10
79.21172637689446
 20
9.22058918071794
 30
0.0
  0
VERTEX
  5
E1
  8
HALF_INCH_THRUCUT
 10
79.21172637689446
 20
9.97058918071794
 30
0.0
 42
1.0
  0
VERTEX
  5
E2
  8
HALF_INCH_THRUCUT
 10
78.95093897531964
 20
9.97058918071794
 30
0.0
  0
VERTEX
  5
E3
  8
HALF_INCH_THRUCUT
 10
77.47251377846928
 20
9.97058918071794
 30
0.0
 42
1.0
  0
SEQEND
  5
17D
  8
HALF_INCH_THRUCUT
  0
POLYLINE
  5
85
  8
HALF_INCH_THRUCUT
 66
     1
 10
0.0
 20
0.0
 30
0.0
 70
     1
  0
VERTEX
  5
E4
  8
HALF_INCH_THRUCUT
 10
55.21172637689446
 20
9.97058918071794
 30
0.0
  0
VERTEX
  5
E5
  8
HALF_INCH_THRUCUT
 10
55.21172637689446
 20
9.22058918071794
 30
0.0
 42
1.0
  0
VERTEX
  5
E6
  8
HALF_INCH_THRUCUT
 10
55.47251377846928
 20
9.22058918071794
 30
0.0
  0
VERTEX
  5
E7
  8
HALF_INCH_THRUCUT
 10
56.95093897531964
 20
9.22058918071794
 30
0.0
 42
1.0
  0
VERTEX
  5
E8
  8
HALF_INCH_THRUCUT
 10
57.21172637689446
 20
9.22058918071794
 30
0.0
  0
VERTEX
  5
E9
  8
HALF_INCH_THRUCUT
 10
57.21172637689446
 20
9.97058918071794
 30
0.0
 42
1.0
  0
VERTEX
  5
EA
  8
HALF_INCH_THRUCUT
 10
56.95093897531964
 20
9.97058918071794
 30
0.0
  0
VERTEX
  5
EB
  8
HALF_INCH_THRUCUT
 10
55.47251377846928
 20
9.97058918071794
 30
0.0
 42
1.0
  0
SEQEND
  5
17E
  8
HALF_INCH_THRUCUT
  0
POLYLINE
  5
86
  8
HALF_INCH_THRUCUT
 66
     1
 10
0.0
 20
0.0
 30
0.0
 70
     1
  0
VERTEX
  5
EC
  8
HALF_INCH_THRUCUT
 10
33.21172637689446
 20
9.97058918071794
 30
0.0
  0
VERTEX
  5
ED
  8
HALF_INCH_THRUCUT
 10
33.21172637689446
 20
9.22058918071794
 30
0.0
 42
1.0
  0
VERTEX
  5
EE
  8
HALF_INCH_THRUCUT
 10
33.47251377846928
 20
9.22058918071794
 30
0.0
  0
VERTEX
  5
EF
  8
HALF_INCH_THRUCUT
 10
34.95093897531964
 20
9.22058918071794
 30
0.0
 42
1.0
  0
VERTEX
  5
F0
  8
HALF_INCH_THRUCUT
 10
35.21172637689446
 20
9.22058918071794
 30
0.0
  0
VERTEX
  5
F1
  8
HALF_INCH_THRUCUT
 10
35.21172637689446
 20
9.97058918071794
 30
0.0
 42
1.0
  0
VERTEX
  5
F2
  8
HALF_INCH_THRUCUT
 10
34.95093897531964
 20
9.97058918071794
 30
0.0
  0
VERTEX
  5
F3
  8
HALF_INCH_THRUCUT
 10
33.47251377846928
 20
9.97058918071794
 30
0.0
 42
1.0
  0
SEQEND
  5
17F
  8
HALF_INCH_THRUCUT
  0
POLYLINE
  5
87
  8
HALF_INCH_THRUCUT
 66
     1
 10
0.0
 20
0.0
 30
0.0
 70
     1
  0
VERTEX
  5
F4
  8
HALF_INCH_THRUCUT
 10
12.95093897531967
 20
9.970589180717926
 30
0.0
  0
VERTEX
  5
F5
  8
HALF_INCH_THRUCUT
 10
11.47251377846928
 20
9.970589180717933
 30
0.0
 42
1.0
  0
VERTEX
  5
F6
  8
HALF_INCH_THRUCUT
 10
11.21172637689446
 20
9.970589180717933
 30
0.0
  0
VERTEX
  5
F7
  8
HALF_INCH_THRUCUT
 10
11.21172637689446
 20
9.220589180717926
 30
0.0
 42
1.0
  0
VERTEX
  5
F8
  8
HALF_INCH_THRUCUT
 10
11.47251377846928
 20
9.220589180717926
 30
0.0
  0
VERTEX
  5
F9
  8
HALF_INCH_THRUCUT
 10
12.95093897531967
 20
9.220589180717926
 30
0.0
 42
1.0
  0
VERTEX
  5
FA
  8
HALF_INCH_THRUCUT
 10
13.21172637689446
 20
9.220589180717926
 30
0.0
  0
VERTEX
  5
FB
  8
HALF_INCH_THRUCUT
 10
13.21172637689446
 20
9.970589180717926
 30
0.0
 42
1.0
  0
SEQEND
  5
180
  8
HALF_INCH_THRUCUT
  0
POLYLINE
  5
88
  8
HALF_INCH_THRUCUT
 66
     1
 10
0.0
 20
0.0
 30
0.0
 70
     1
  0
VERTEX
  5
FC
  8
HALF_INCH_THRUCUT
 10
88.83672636783864
 20
19.96558918071785
 30
0.0
  0
VERTEX
  5
FD
  8
HALF_INCH_THRUCUT
 10
88.2367261159742
 20
19.96558918071774
 30
0.0
  0
VERTEX
  5
FE
  8
HALF_INCH_THRUCUT
 10
88.23672613862948
 20
19.27943177002849
 30
0.0
 42
-1.0
  0
VERTEX
  5
FF
  8
HALF_INCH_THRUCUT
 10
88.0528760871515
 20
19.09558400086392
 30
0.0
  0
VERTEX
  5
100
  8
HALF_INCH_THRUCUT
 10
87.92057163869606
 20
19.09558564766915
 30
0.0
 42
-1.0
  0
VERTEX
  5
101
  8
HALF_INCH_THRUCUT
 10
87.73672616395709
 20
19.27943341076614
 30
0.0
  0
VERTEX
  5
102
  8
HALF_INCH_THRUCUT
 10
87.73672616396709
 20
19.96558918071774
 30
0.0
  0
VERTEX
  5
103
  8
HALF_INCH_THRUCUT
 10
87.24954925960473
 20
19.96558918071774
 30
0.0
  0
VERTEX
  5
104
  8
HALF_INCH_THRUCUT
 10
87.24954925960473
 20
20.22558918071782
 30
0.0
  0
VERTEX
  5
105
  8
HALF_INCH_THRUCUT
 10
87.73672616396709
 20
20.22558918071787
 30
0.0
  0
VERTEX
  5
106
  8
HALF_INCH_THRUCUT
 10
87.73672616395709
 20
20.91174495066944
 30
0.0
 42
-1.0
  0
VERTEX
  5
107
  8
HALF_INCH_THRUCUT
 10
87.92057163869606
 20
21.09559271376643
 30
0.0
  0
VERTEX
  5
108
  8
HALF_INCH_THRUCUT
 10
88.0528760871515
 20
21.09559436057166
 30
0.0
 42
-1.0
  0
VERTEX
  5
109
  8
HALF_INCH_THRUCUT
 10
88.23672613862948
 20
20.91174659140709
 30
0.0
  0
VERTEX
  5
10A
  8
HALF_INCH_THRUCUT
 10
88.2367261159742
 20
20.22558918071784
 30
0.0
  0
VERTEX
  5
10B
  8
HALF_INCH_THRUCUT
 10
88.83672638481853
 20
20.22558918071759
 30
0.0
  0
VERTEX
  5
10C
  8
HALF_INCH_THRUCUT
 10
88.8367263763287
 20
25.70980177914302
 30
0.0
 42
-1.0
  0
VERTEX
  5
10D
  8
HALF_INCH_THRUCUT
 10
88.8367263763287
 20
25.97058918071782
 30
0.0
  0
VERTEX
  5
10E
  8
HALF_INCH_THRUCUT
 10
89.60672637632868
 20
25.97058918071772
 30
0.0
  0
VERTEX
  5
10F
  8
HALF_INCH_THRUCUT
 10
89.60672637632845
 20
28.97058918071792
 30
0.0
  0
VERTEX
  5
110
  8
HALF_INCH_THRUCUT
 10
88.83672637632847
 20
28.97058918071779
 30
0.0
 42
-1.0
  0
VERTEX
  5
111
  8
HALF_INCH_THRUCUT
 10
88.83672637632847
 20
29.23137658229259
 30
0.0
  0
VERTEX
  5
112
  8
HALF_INCH_THRUCUT
 10
88.83672636783857
 20
34.71558381034055
 30
0.0
  0
VERTEX
  5
113
  8
HALF_INCH_THRUCUT
 10
88.23672611597411
 20
34.71558381034043
 30
0.0
  0
VERTEX
  5
114
  8
HALF_INCH_THRUCUT
 10
88.2367261386294
 20
34.02942639965119
 30
0.0
 42
-1.0
  0
VERTEX
  5
115
  8
HALF_INCH_THRUCUT
 10
88.05287608715142
 20
33.84557863048661
 30
0.0
  0
VERTEX
  5
116
  8
HALF_INCH_THRUCUT
 10
87.92057163869598
 20
33.84558027729184
 30
0.0
 42
-1.0
  0
VERTEX
  5
117
  8
HALF_INCH_THRUCUT
 10
87.736726163957
 20
34.02942804038884
 30
0.0
  0
VERTEX
  5
118
  8
HALF_INCH_THRUCUT
 10
87.736726163967
 20
34.71558381034043
 30
0.0
  0
VERTEX
  5
119
  8
HALF_INCH_THRUCUT
 10
87.24954925960465
 20
34.71558381034043
 30
0.0
  0
VERTEX
  5
11A
  8
HALF_INCH_THRUCUT
 10
87.24954925960465
 20
34.97558381034051
 30
0.0
  0
VERTEX
  5
11B
  8
HALF_INCH_THRUCUT
 10
87.736726163967
 20
34.97558381034057
 30
0.0
  0
VERTEX
  5
11C
  8
HALF_INCH_THRUCUT
 10
87.736726163957
 20
35.66173958029214
 30
0.0
 42
-1.0
  0
VERTEX
  5
11D
  8
HALF_INCH_THRUCUT
 10
87.92057163869598
 20
35.84558734338913
 30
0.0
  0
VERTEX
  5
11E
  8
HALF_INCH_THRUCUT
 10
88.05287608715142
 20
35.84558899019436
 30
0.0
 42
-1.0
  0
VERTEX
  5
11F
  8
HALF_INCH_THRUCUT
 10
88.2367261386294
 20
35.66174122102979
 30
0.0
  0
VERTEX
  5
120
  8
HALF_INCH_THRUCUT
 10
88.23672611597411
 20
34.97558381034054
 30
0.0
  0
VERTEX
  5
121
  8
HALF_INCH_THRUCUT
 10
88.83672638481846
 20
34.97558381034042
 30
0.0
  0
VERTEX
  5
122
  8
HALF_INCH_THRUCUT
 10
88.83672637632858
 20
40.45980177911612
 30
0.0
 42
-1.0
  0
VERTEX
  5
123
  8
HALF_INCH_THRUCUT
 10
88.83672637632858
 20
40.72058918071785
 30
0.0
  0
VERTEX
  5
124
  8
HALF_INCH_THRUCUT
 10
89.60672637632845
 20
40.72058918071792
 30
0.0
  0
VERTEX
  5
125
  8
HALF_INCH_THRUCUT
 10
89.60672637632845
 20
43.72058918071795
 30
0.0
  0
VERTEX
  5
126
  8
HALF_INCH_THRUCUT
 10
88.83672637632881
 20
43.72058918071777
 30
0.0
 42
-1.0
  0
VERTEX
  5
127
  8
HALF_INCH_THRUCUT
 10
88.8367263763287
 20
43.98137658229257
 30
0.0
  0
VERTEX
  5
128
  8
HALF_INCH_THRUCUT
 10
88.83672637632847
 20
47.22059018071795
 30
0.0
  0
VERTEX
  5
129
  8
HALF_INCH_THRUCUT
 10
67.60672637632845
 20
47.22059018071795
 30
0.0
  0
VERTEX
  5
12A
  8
HALF_INCH_THRUCUT
 10
67.60672637632828
 20
45.98137658229302
 30
0.0
 42
-1.0
  0
VERTEX
  5
12B
  8
HALF_INCH_THRUCUT
 10
67.60672637632828
 20
45.72058918071822
 30
0.0
  0
VERTEX
  5
12C
  8
HALF_INCH_THRUCUT
 10
66.81672637632832
 20
45.72058918071832
 30
0.0
 42
-1.0
  0
VERTEX
  5
12D
  8
HALF_INCH_THRUCUT
 10
66.81672637632832
 20
45.98137658229314
 30
0.0
  0
VERTEX
  5
12E
  8
HALF_INCH_THRUCUT
 10
66.81672637632849
 20
47.22059018071795
 30
0.0
  0
VERTEX
  5
12F
  8
HALF_INCH_THRUCUT
 10
45.60672637632845
 20
47.22059018071795
 30
0.0
  0
VERTEX
  5
130
  8
HALF_INCH_THRUCUT
 10
45.60672637632868
 20
45.9813765822927
 30
0.0
 42
-1.0
  0
VERTEX
  5
131
  8
HALF_INCH_THRUCUT
 10
45.60672637632871
 20
45.72058918071789
 30
0.0
  0
VERTEX
  5
132
  8
HALF_INCH_THRUCUT
 10
44.81672637632875
 20
45.72058918071777
 30
0.0
 42
-1.0
  0
VERTEX
  5
133
  8
HALF_INCH_THRUCUT
 10
44.81672637632872
 20
45.98137658229257
 30
0.0
  0
VERTEX
  5
134
  8
HALF_INCH_THRUCUT
 10
44.81672637632843
 20
47.22059018071795
 30
0.0
  0
VERTEX
  5
135
  8
HALF_INCH_THRUCUT
 10
23.60672637632845
 20
47.22059018071795
 30
0.0
  0
VERTEX
  5
136
  8
HALF_INCH_THRUCUT
 10
23.60672637632848
 20
45.98137658229277
 30
0.0
 42
-1.0
  0
VERTEX
  5
137
  8
HALF_INCH_THRUCUT
 10
23.60672637632848
 20
45.72058918071797
 30
0.0
  0
VERTEX
  5
138
  8
HALF_INCH_THRUCUT
 10
22.81672637632852
 20
45.72058918071777
 30
0.0
 42
-1.0
  0
VERTEX
  5
139
  8
HALF_INCH_THRUCUT
 10
22.81672637632849
 20
45.98137658229257
 30
0.0
  0
VERTEX
  5
13A
  8
HALF_INCH_THRUCUT
 10
22.81672637632843
 20
47.22059018071795
 30
0.0
  0
VERTEX
  5
13B
  8
HALF_INCH_THRUCUT
 10
1.606726376328453
 20
47.22059018071795
 30
0.0
  0
VERTEX
  5
13C
  8
HALF_INCH_THRUCUT
 10
1.606726376328453
 20
45.98137658229277
 30
0.0
 42
-1.0
  0
VERTEX
  5
13D
  8
HALF_INCH_THRUCUT
 10
1.606726376328453
 20
45.72058918071795
 30
0.0
  0
VERTEX
  5
13E
  8
HALF_INCH_THRUCUT
 10
1.211726376328472
 20
45.72058918071795
 30
0.0
  0
VERTEX
  5
13F
  8
HALF_INCH_THRUCUT
 10
1.211726376328472
 20
42.73137658229273
 30
0.0
 42
-1.0
  0
VERTEX
  5
140
  8
HALF_INCH_THRUCUT
 10
1.211726376328472
 20
42.47058918071792
 30
0.0
  0
VERTEX
  5
141
  8
HALF_INCH_THRUCUT
 10
0.836726376328472
 20
42.47058918071792
 30
0.0
  0
VERTEX
  5
142
  8
HALF_INCH_THRUCUT
 10
0.836726376328472
 20
32.47058918071792
 30
0.0
  0
VERTEX
  5
143
  8
HALF_INCH_THRUCUT
 10
1.586726376328472
 20
32.47058918071792
 30
0.0
 42
-1.0
  0
VERTEX
  5
144
  8
HALF_INCH_THRUCUT
 10
1.586726376328472
 20
32.20980177914311
 30
0.0
  0
VERTEX
  5
145
  8
HALF_INCH_THRUCUT
 10
1.586726376328472
 20
22.73137658229272
 30
0.0
 42
-1.0
  0
VERTEX
  5
146
  8
HALF_INCH_THRUCUT
 10
1.586726376328472
 20
22.47058918071792
 30
0.0
  0
VERTEX
  5
147
  8
HALF_INCH_THRUCUT
 10
0.836726376328472
 20
22.47058918071792
 30
0.0
  0
VERTEX
  5
148
  8
HALF_INCH_THRUCUT
 10
0.836726376328472
 20
11.47058918071793
 30
0.0
  0
VERTEX
  5
149
  8
HALF_INCH_THRUCUT
 10
1.211726376328472
 20
11.47058918071793
 30
0.0
 42
-1.0
  0
VERTEX
  5
14A
  8
HALF_INCH_THRUCUT
 10
1.211726376328472
 20
11.20980177914312
 30
0.0
  0
VERTEX
  5
14B
  8
HALF_INCH_THRUCUT
 10
1.211726376328472
 20
9.220589180717905
 30
0.0
  0
VERTEX
  5
14C
  8
HALF_INCH_THRUCUT
 10
1.606726376328453
 20
9.220589180717905
 30
0.0
 42
-1.0
  0
VERTEX
  5
14D
  8
HALF_INCH_THRUCUT
 10
1.606726376328453
 20
8.959801779143103
 30
0.0
  0
VERTEX
  5
14E
  8
HALF_INCH_THRUCUT
 10
1.606726376328453
 20
7.72059018071791
 30
0.0
  0
VERTEX
  5
14F
  8
HALF_INCH_THRUCUT
 10
22.81672637632843
 20
7.72059018071791
 30
0.0
  0
VERTEX
  5
150
  8
HALF_INCH_THRUCUT
 10
22.81672637632846
 20
8.959801779143103
 30
0.0
 42
-1.0
  0
VERTEX
  5
151
  8
HALF_INCH_THRUCUT
 10
22.81672637632846
 20
9.220589180717905
 30
0.0
  0
VERTEX
  5
152
  8
HALF_INCH_THRUCUT
 10
23.60672637632845
 20
9.220589180717905
 30
0.0
 42
-1.0
  0
VERTEX
  5
153
  8
HALF_INCH_THRUCUT
 10
23.60672637632845
 20
8.959801779143103
 30
0.0
  0
VERTEX
  5
154
  8
HALF_INCH_THRUCUT
 10
23.60672637632845
 20
7.72059018071791
 30
0.0
  0
VERTEX
  5
155
  8
HALF_INCH_THRUCUT
 10
44.81672637632843
 20
7.72059018071791
 30
0.0
  0
VERTEX
  5
156
  8
HALF_INCH_THRUCUT
 10
44.81672637632846
 20
8.959801779143131
 30
0.0
 42
-1.0
  0
VERTEX
  5
157
  8
HALF_INCH_THRUCUT
 10
44.81672637632846
 20
9.220589180717933
 30
0.0
  0
VERTEX
  5
158
  8
HALF_INCH_THRUCUT
 10
45.60672637632842
 20
9.220589180717905
 30
0.0
 42
-1.0
  0
VERTEX
  5
159
  8
HALF_INCH_THRUCUT
 10
45.60672637632845
 20
8.95980177914311
 30
0.0
  0
VERTEX
  5
15A
  8
HALF_INCH_THRUCUT
 10
45.60672637632845
 20
7.72059018071791
 30
0.0
  0
VERTEX
  5
15B
  8
HALF_INCH_THRUCUT
 10
66.81672637632849
 20
7.72059018071791
 30
0.0
  0
VERTEX
  5
15C
  8
HALF_INCH_THRUCUT
 10
66.81672637632843
 20
8.959801779143074
 30
0.0
 42
-1.0
  0
VERTEX
  5
15D
  8
HALF_INCH_THRUCUT
 10
66.81672637632843
 20
9.220589180717877
 30
0.0
  0
VERTEX
  5
15E
  8
HALF_INCH_THRUCUT
 10
67.60672637632851
 20
9.220589180717834
 30
0.0
 42
-1.0
  0
VERTEX
  5
15F
  8
HALF_INCH_THRUCUT
 10
67.60672637632851
 20
8.959801779143032
 30
0.0
  0
VERTEX
  5
160
  8
HALF_INCH_THRUCUT
 10
67.60672637632845
 20
7.72059018071791
 30
0.0
  0
VERTEX
  5
161
  8
HALF_INCH_THRUCUT
 10
88.83672637632847
 20
7.72059018071791
 30
0.0
  0
VERTEX
  5
162
  8
HALF_INCH_THRUCUT
 10
88.83672637632847
 20
10.95980177914307
 30
0.0
 42
-1.0
  0
VERTEX
  5
163
  8
HALF_INCH_THRUCUT
 10
88.83672637632847
 20
11.22058918071788
 30
0.0
  0
VERTEX
  5
164
  8
HALF_INCH_THRUCUT
 10
89.60672637632845
 20
11.22058918071791
 30
0.0
  0
VERTEX
  5
165
  8
HALF_INCH_THRUCUT
 10
89.60672637632845
 20
14.22058918071791
 30
0.0
  0
VERTEX
  5
166
  8
HALF_INCH_THRUCUT
 10
88.83672637632847
 20
14.22058918071781
 30
0.0
 42
-1.0
  0
VERTEX
  5
167
  8
HALF_INCH_THRUCUT
 10
88.83672637632847
 20
14.48137658229257
 30
0.0
  0
SEQEND
  5
181
  8
HALF_INCH_THRUCUT
  0
ENDSEC
  0
EOF
