  0
SECTION
  2
HEADER
  9
$ACADVER
  1
AC1009
  9
$DWGCODEPAGE
  3
ansi_1252
  9
$INSBASE
 10
0.0
 20
0.0
 30
0.0
  9
$EXTMIN
 10
2.325
 20
0.8762959116404876
 30
0.0
  9
$EXTMAX
 10
91.07500000000017
 20
40.37629591164053
 30
0.0
  9
$LIMMIN
 10
0.0
 20
0.0
  9
$LIMMAX
 10
12.0
 20
9.0
  9
$ORTHOMODE
 70
     0
  9
$REGENMODE
 70
     1
  9
$FILLMODE
 70
     1
  9
$QTEXTMODE
 70
     0
  9
$MIRRTEXT
 70
     1
  9
$DRAGMODE
 70
     2
  9
$LTSCALE
 40
1.0
  9
$OSMODE
 70
    37
  9
$ATTMODE
 70
     1
  9
$TEXTSIZE
 40
0.2
  9
$TRACEWID
 40
0.05
  9
$TEXTSTYLE
  7
STANDARD
  9
$CLAYER
  8
0
  9
$CELTYPE
  6
BYLAYER
  9
$CECOLOR
 62
   256
  9
$DIMSCALE
 40
1.0
  9
$DIMASZ
 40
0.18
  9
$DIMEXO
 40
0.0625
  9
$DIMDLI
 40
0.38
  9
$DIMRND
 40
0.0
  9
$DIMDLE
 40
0.0
  9
$DIMEXE
 40
0.18
  9
$DIMTP
 40
0.0
  9
$DIMTM
 40
0.0
  9
$DIMTXT
 40
0.18
  9
$DIMCEN
 40
0.09
  9
$DIMTSZ
 40
0.0
  9
$DIMTOL
 70
     0
  9
$DIMLIM
 70
     0
  9
$DIMTIH
 70
     1
  9
$DIMTOH
 70
     1
  9
$DIMSE1
 70
     0
  9
$DIMSE2
 70
     0
  9
$DIMTAD
 70
     0
  9
$DIMZIN
 70
     0
  9
$DIMBLK
  1

  9
$DIMASO
 70
     1
  9
$DIMSHO
 70
     1
  9
$DIMPOST
  1

  9
$DIMAPOST
  1

  9
$DIMALT
 70
     0
  9
$DIMALTD
 70
     2
  9
$DIMALTF
 40
25.4
  9
$DIMLFAC
 40
1.0
  9
$DIMTOFL
 70
     0
  9
$DIMTVP
 40
0.0
  9
$DIMTIX
 70
     0
  9
$DIMSOXD
 70
     0
  9
$DIMSAH
 70
     0
  9
$DIMBLK1
  1

  9
$DIMBLK2
  1

  9
$DIMSTYLE
  2
STANDARD
  9
$DIMCLRD
 70
     0
  9
$DIMCLRE
 70
     0
  9
$DIMCLRT
 70
     0
  9
$DIMTFAC
 40
1.0
  9
$DIMGAP
 40
0.09
  9
$LUNITS
 70
     2
  9
$LUPREC
 70
     4
  9
$SKETCHINC
 40
0.1
  9
$FILLETRAD
 40
0.5
  9
$AUNITS
 70
     0
  9
$AUPREC
 70
     0
  9
$MENU
  1
.
  9
$ELEVATION
 40
0.0
  9
$PELEVATION
 40
0.0
  9
$THICKNESS
 40
0.0
  9
$LIMCHECK
 70
     0
  9
$CHAMFERA
 40
0.0
  9
$CHAMFERB
 40
0.0
  9
$SKPOLY
 70
     0
  9
$TDCREATE
 40
2454910.5
  9
$TDUPDATE
 40
2457898.619153264
  9
$TDINDWG
 40
0.0000000116
  9
$TDUSRTIMER
 40
0.0000000116
  9
$USRTIMER
 70
     1
  9
$ANGBASE
 50
0.0
  9
$ANGDIR
 70
     0
  9
$PDMODE
 70
     0
  9
$PDSIZE
 40
0.0
  9
$PLINEWID
 40
0.0
  9
$COORDS
 70
     1
  9
$SPLFRAME
 70
     0
  9
$SPLINETYPE
 70
     6
  9
$SPLINESEGS
 70
     8
  9
$ATTDIA
 70
     0
  9
$ATTREQ
 70
     1
  9
$HANDLING
 70
     1
  9
$HANDSEED
  5
144
  9
$SURFTAB1
 70
     6
  9
$SURFTAB2
 70
     6
  9
$SURFTYPE
 70
     6
  9
$SURFU
 70
     6
  9
$SURFV
 70
     6
  9
$UCSNAME
  2

  9
$UCSORG
 10
0.0
 20
0.0
 30
0.0
  9
$UCSXDIR
 10
1.0
 20
0.0
 30
0.0
  9
$UCSYDIR
 10
0.0
 20
1.0
 30
0.0
  9
$PUCSNAME
  2

  9
$PUCSORG
 10
0.0
 20
0.0
 30
0.0
  9
$PUCSXDIR
 10
1.0
 20
0.0
 30
0.0
  9
$PUCSYDIR
 10
0.0
 20
1.0
 30
0.0
  9
$USERI1
 70
     0
  9
$USERI2
 70
     0
  9
$USERI3
 70
     0
  9
$USERI4
 70
     0
  9
$USERI5
 70
     0
  9
$USERR1
 40
0.0
  9
$USERR2
 40
0.0
  9
$USERR3
 40
0.0
  9
$USERR4
 40
0.0
  9
$USERR5
 40
0.0
  9
$WORLDVIEW
 70
     1
  9
$SHADEDGE
 70
     3
  9
$SHADEDIF
 70
    70
  9
$TILEMODE
 70
     1
  9
$MAXACTVP
 70
    64
  9
$PLIMCHECK
 70
     0
  9
$PEXTMIN
 10
1.000000000000000E+20
 20
1.000000000000000E+20
 30
1.000000000000000E+20
  9
$PEXTMAX
 10
-1.000000000000000E+20
 20
-1.000000000000000E+20
 30
-1.000000000000000E+20
  9
$PLIMMIN
 10
0.0
 20
0.0
  9
$PLIMMAX
 10
12.0
 20
9.0
  9
$UNITMODE
 70
     0
  9
$VISRETAIN
 70
     1
  9
$PLINEGEN
 70
     0
  9
$PSLTSCALE
 70
     1
  0
ENDSEC
  0
SECTION
  2
TABLES
  0
TABLE
  2
VPORT
 70
     1
  0
VPORT
  2
*ACTIVE
 70
     0
 10
0.0
 20
0.0
 11
1.0
 21
1.0
 12
10.42990654205607
 22
4.5
 13
0.0
 23
0.0
 14
0.5
 24
0.5
 15
0.5
 25
0.5
 16
0.0
 26
0.0
 36
1.0
 17
0.0
 27
0.0
 37
0.0
 40
9.0
 41
1.972972972850329
 42
50.0
 43
0.0
 44
0.0
 50
0.0
 51
0.0
 71
     0
 72
   100
 73
     1
 74
     3
 75
     0
 76
     0
 77
     0
 78
     0
  0
ENDTAB
  0
TABLE
  2
LTYPE
 70
     2
  0
LTYPE
  2
CONTINUOUS
 70
     0
  3
Solid line
 72
    65
 73
     0
 40
0.0
  0
LTYPE
  2
CONTINUOUS2
 70
     0
  3
Solid Line
 72
    65
 73
     0
 40
0.0
  0
ENDTAB
  0
TABLE
  2
LAYER
 70
     3
  0
LAYER
  2
0
 70
     0
 62
     7
  6
CONTINUOUS
  0
LAYER
  2
SCREW_LOCATION_RECESS
 70
     0
 62
     1
  6
CONTINUOUS
  0
LAYER
  2
HALF_INCH_THRUCUT
 70
     0
 62
    18
  6
CONTINUOUS
  0
ENDTAB
  0
TABLE
  2
STYLE
 70
     1
  0
STYLE
  2
STANDARD
 70
     0
 40
0.0
 41
1.0
 50
0.0
 71
     0
 42
0.2
  3
txt
  4

  0
ENDTAB
  0
TABLE
  2
VIEW
 70
     0
  0
ENDTAB
  0
TABLE
  2
UCS
 70
     0
  0
ENDTAB
  0
TABLE
  2
APPID
 70
     1
  0
APPID
  2
ACAD
 70
     0
  0
ENDTAB
  0
TABLE
  2
DIMSTYLE
 70
     1
  0
DIMSTYLE
  2
STANDARD
 70
     0
  3

  4

  5

  6

  7

 40
1.0
 41
0.18
 42
0.0625
 43
0.38
 44
0.18
 45
0.0
 46
0.0
 47
0.0
 48
0.0
140
0.18
141
0.09
142
0.0
143
25.4
144
1.0
145
0.0
146
1.0
147
0.09
 71
     0
 72
     0
 73
     1
 74
     1
 75
     0
 76
     0
 77
     0
 78
     0
170
     0
171
     2
172
     0
173
     0
174
     0
175
     0
176
     0
177
     0
178
     0
  0
ENDTAB
  0
ENDSEC
  0
SECTION
  2
BLOCKS
  0
BLOCK
  8
0
  2
$MODEL_SPACE
 70
     0
 10
0.0
 20
0.0
 30
0.0
  3
$MODEL_SPACE
  1

  0
ENDBLK
  5
21
  8
0
  0
BLOCK
 67
     1
  8
0
  2
$PAPER_SPACE
 70
     0
 10
0.0
 20
0.0
 30
0.0
  3
$PAPER_SPACE
  1

  0
ENDBLK
  5
1D
 67
     1
  8
0
  0
ENDSEC
  0
SECTION
  2
ENTITIES
  0
POLYLINE
  5
70
  8
SCREW_LOCATION_RECESS
 66
     1
 10
0.0
 20
0.0
 30
0.0
 70
     1
  0
VERTEX
  5
8B
  8
SCREW_LOCATION_RECESS
 10
24.70000000000001
 20
34.51379491164054
 30
0.0
 42
0.4142135623730951
  0
VERTEX
  5
8C
  8
SCREW_LOCATION_RECESS
 10
24.5
 20
34.31379491164053
 30
0.0
 42
0.4142135623730951
  0
VERTEX
  5
8D
  8
SCREW_LOCATION_RECESS
 10
24.70000000000001
 20
34.11379491164053
 30
0.0
 42
0.4142135623730951
  0
VERTEX
  5
8E
  8
SCREW_LOCATION_RECESS
 10
24.90000000000001
 20
34.31379491164053
 30
0.0
 42
0.4142135623730951
  0
SEQEND
  5
131
  8
SCREW_LOCATION_RECESS
  0
POLYLINE
  5
71
  8
SCREW_LOCATION_RECESS
 66
     1
 10
0.0
 20
0.0
 30
0.0
 70
     1
  0
VERTEX
  5
8F
  8
SCREW_LOCATION_RECESS
 10
24.70000000000001
 20
25.38879491164052
 30
0.0
 42
0.4142135623730951
  0
VERTEX
  5
90
  8
SCREW_LOCATION_RECESS
 10
24.50000000000001
 20
25.18879491164052
 30
0.0
 42
0.4142135623730951
  0
VERTEX
  5
91
  8
SCREW_LOCATION_RECESS
 10
24.70000000000001
 20
24.98879491164053
 30
0.0
 42
0.4142135623730951
  0
VERTEX
  5
92
  8
SCREW_LOCATION_RECESS
 10
24.90000000000001
 20
25.18879491164052
 30
0.0
 42
0.4142135623730951
  0
SEQEND
  5
132
  8
SCREW_LOCATION_RECESS
  0
POLYLINE
  5
72
  8
SCREW_LOCATION_RECESS
 66
     1
 10
0.0
 20
0.0
 30
0.0
 70
     1
  0
VERTEX
  5
93
  8
SCREW_LOCATION_RECESS
 10
24.70000000000001
 20
16.26379491164052
 30
0.0
 42
0.4142135623730951
  0
VERTEX
  5
94
  8
SCREW_LOCATION_RECESS
 10
24.50000000000001
 20
16.06379491164051
 30
0.0
 42
0.4142135623730951
  0
VERTEX
  5
95
  8
SCREW_LOCATION_RECESS
 10
24.70000000000001
 20
15.86379491164051
 30
0.0
 42
0.4142135623730951
  0
VERTEX
  5
96
  8
SCREW_LOCATION_RECESS
 10
24.90000000000001
 20
16.06379491164051
 30
0.0
 42
0.4142135623730951
  0
SEQEND
  5
133
  8
SCREW_LOCATION_RECESS
  0
POLYLINE
  5
73
  8
SCREW_LOCATION_RECESS
 66
     1
 10
0.0
 20
0.0
 30
0.0
 70
     1
  0
VERTEX
  5
97
  8
SCREW_LOCATION_RECESS
 10
24.70000000000001
 20
7.138794911640476
 30
0.0
 42
0.4142135623730951
  0
VERTEX
  5
98
  8
SCREW_LOCATION_RECESS
 10
24.50000000000001
 20
6.938794911640477
 30
0.0
 42
0.4142135623730951
  0
VERTEX
  5
99
  8
SCREW_LOCATION_RECESS
 10
24.70000000000001
 20
6.738794911640477
 30
0.0
 42
0.4142135623730951
  0
VERTEX
  5
9A
  8
SCREW_LOCATION_RECESS
 10
24.90000000000001
 20
6.938794911640477
 30
0.0
 42
0.4142135623730951
  0
SEQEND
  5
134
  8
SCREW_LOCATION_RECESS
  0
POLYLINE
  5
74
  8
SCREW_LOCATION_RECESS
 66
     1
 10
0.0
 20
0.0
 30
0.0
 70
     1
  0
VERTEX
  5
9B
  8
SCREW_LOCATION_RECESS
 10
46.70000000000001
 20
7.127539950724046
 30
0.0
 42
0.4142135623730951
  0
VERTEX
  5
9C
  8
SCREW_LOCATION_RECESS
 10
46.50000000000001
 20
6.927539950724046
 30
0.0
 42
0.4142135623730951
  0
VERTEX
  5
9D
  8
SCREW_LOCATION_RECESS
 10
46.70000000000001
 20
6.727539950724047
 30
0.0
 42
0.4142135623730951
  0
VERTEX
  5
9E
  8
SCREW_LOCATION_RECESS
 10
46.90000000000001
 20
6.927539950724046
 30
0.0
 42
0.4142135623730951
  0
SEQEND
  5
135
  8
SCREW_LOCATION_RECESS
  0
POLYLINE
  5
75
  8
SCREW_LOCATION_RECESS
 66
     1
 10
0.0
 20
0.0
 30
0.0
 70
     1
  0
VERTEX
  5
9F
  8
SCREW_LOCATION_RECESS
 10
46.70000000000001
 20
16.25575565384307
 30
0.0
 42
0.4142135623730951
  0
VERTEX
  5
A0
  8
SCREW_LOCATION_RECESS
 10
46.50000000000001
 20
16.05575565384307
 30
0.0
 42
0.4142135623730951
  0
VERTEX
  5
A1
  8
SCREW_LOCATION_RECESS
 10
46.70000000000001
 20
15.85575565384308
 30
0.0
 42
0.4142135623730951
  0
VERTEX
  5
A2
  8
SCREW_LOCATION_RECESS
 10
46.90000000000001
 20
16.05575565384307
 30
0.0
 42
0.4142135623730951
  0
SEQEND
  5
136
  8
SCREW_LOCATION_RECESS
  0
POLYLINE
  5
76
  8
SCREW_LOCATION_RECESS
 66
     1
 10
0.0
 20
0.0
 30
0.0
 70
     1
  0
VERTEX
  5
A3
  8
SCREW_LOCATION_RECESS
 10
46.70000000000001
 20
25.38397135696206
 30
0.0
 42
0.4142135623730951
  0
VERTEX
  5
A4
  8
SCREW_LOCATION_RECESS
 10
46.50000000000001
 20
25.18397135696205
 30
0.0
 42
0.4142135623730951
  0
VERTEX
  5
A5
  8
SCREW_LOCATION_RECESS
 10
46.70000000000001
 20
24.98397135696205
 30
0.0
 42
0.4142135623730951
  0
VERTEX
  5
A6
  8
SCREW_LOCATION_RECESS
 10
46.90000000000001
 20
25.18397135696205
 30
0.0
 42
0.4142135623730951
  0
SEQEND
  5
137
  8
SCREW_LOCATION_RECESS
  0
POLYLINE
  5
77
  8
SCREW_LOCATION_RECESS
 66
     1
 10
0.0
 20
0.0
 30
0.0
 70
     1
  0
VERTEX
  5
A7
  8
SCREW_LOCATION_RECESS
 10
46.70000000000001
 20
34.51218706008103
 30
0.0
 42
0.4142135623730951
  0
VERTEX
  5
A8
  8
SCREW_LOCATION_RECESS
 10
46.50000000000001
 20
34.31218706008104
 30
0.0
 42
0.4142135623730951
  0
VERTEX
  5
A9
  8
SCREW_LOCATION_RECESS
 10
46.70000000000001
 20
34.11218706008103
 30
0.0
 42
0.4142135623730951
  0
VERTEX
  5
AA
  8
SCREW_LOCATION_RECESS
 10
46.90000000000001
 20
34.31218706008104
 30
0.0
 42
0.4142135623730951
  0
SEQEND
  5
138
  8
SCREW_LOCATION_RECESS
  0
POLYLINE
  5
78
  8
SCREW_LOCATION_RECESS
 66
     1
 10
0.0
 20
0.0
 30
0.0
 70
     1
  0
VERTEX
  5
AB
  8
SCREW_LOCATION_RECESS
 10
68.7
 20
34.51379491164054
 30
0.0
 42
0.4142135623730951
  0
VERTEX
  5
AC
  8
SCREW_LOCATION_RECESS
 10
68.5
 20
34.31379491164053
 30
0.0
 42
0.4142135623730951
  0
VERTEX
  5
AD
  8
SCREW_LOCATION_RECESS
 10
68.7
 20
34.11379491164053
 30
0.0
 42
0.4142135623730951
  0
VERTEX
  5
AE
  8
SCREW_LOCATION_RECESS
 10
68.9
 20
34.31379491164053
 30
0.0
 42
0.4142135623730951
  0
SEQEND
  5
139
  8
SCREW_LOCATION_RECESS
  0
POLYLINE
  5
79
  8
SCREW_LOCATION_RECESS
 66
     1
 10
0.0
 20
0.0
 30
0.0
 70
     1
  0
VERTEX
  5
AF
  8
SCREW_LOCATION_RECESS
 10
68.7
 20
25.38879491164053
 30
0.0
 42
0.4142135623730951
  0
VERTEX
  5
B0
  8
SCREW_LOCATION_RECESS
 10
68.5
 20
25.18879491164052
 30
0.0
 42
0.4142135623730951
  0
VERTEX
  5
B1
  8
SCREW_LOCATION_RECESS
 10
68.7
 20
24.98879491164053
 30
0.0
 42
0.4142135623730951
  0
VERTEX
  5
B2
  8
SCREW_LOCATION_RECESS
 10
68.9
 20
25.18879491164052
 30
0.0
 42
0.4142135623730951
  0
SEQEND
  5
13A
  8
SCREW_LOCATION_RECESS
  0
POLYLINE
  5
7A
  8
SCREW_LOCATION_RECESS
 66
     1
 10
0.0
 20
0.0
 30
0.0
 70
     1
  0
VERTEX
  5
B3
  8
SCREW_LOCATION_RECESS
 10
68.7
 20
16.26379491164052
 30
0.0
 42
0.4142135623730951
  0
VERTEX
  5
B4
  8
SCREW_LOCATION_RECESS
 10
68.5
 20
16.06379491164051
 30
0.0
 42
0.4142135623730951
  0
VERTEX
  5
B5
  8
SCREW_LOCATION_RECESS
 10
68.7
 20
15.86379491164051
 30
0.0
 42
0.4142135623730951
  0
VERTEX
  5
B6
  8
SCREW_LOCATION_RECESS
 10
68.9
 20
16.06379491164051
 30
0.0
 42
0.4142135623730951
  0
SEQEND
  5
13B
  8
SCREW_LOCATION_RECESS
  0
POLYLINE
  5
7B
  8
SCREW_LOCATION_RECESS
 66
     1
 10
0.0
 20
0.0
 30
0.0
 70
     1
  0
VERTEX
  5
B7
  8
SCREW_LOCATION_RECESS
 10
68.7
 20
7.138794911640476
 30
0.0
 42
0.4142135623730951
  0
VERTEX
  5
B8
  8
SCREW_LOCATION_RECESS
 10
68.5
 20
6.938794911640477
 30
0.0
 42
0.4142135623730951
  0
VERTEX
  5
B9
  8
SCREW_LOCATION_RECESS
 10
68.7
 20
6.738794911640477
 30
0.0
 42
0.4142135623730951
  0
VERTEX
  5
BA
  8
SCREW_LOCATION_RECESS
 10
68.9
 20
6.938794911640477
 30
0.0
 42
0.4142135623730951
  0
SEQEND
  5
13C
  8
SCREW_LOCATION_RECESS
  0
POLYLINE
  5
7C
  8
SCREW_LOCATION_RECESS
 66
     1
 10
0.0
 20
0.0
 30
0.0
 70
     1
  0
VERTEX
  5
BB
  8
SCREW_LOCATION_RECESS
 10
2.700000000000002
 20
27.73254591164052
 30
0.0
 42
0.4142135623730951
  0
VERTEX
  5
BC
  8
SCREW_LOCATION_RECESS
 10
2.500000000000003
 20
27.53254591164053
 30
0.0
 42
0.4142135623730951
  0
VERTEX
  5
BD
  8
SCREW_LOCATION_RECESS
 10
2.700000000000002
 20
27.33254591164052
 30
0.0
 42
0.4142135623730951
  0
VERTEX
  5
BE
  8
SCREW_LOCATION_RECESS
 10
2.900000000000002
 20
27.53254591164053
 30
0.0
 42
0.4142135623730951
  0
SEQEND
  5
13D
  8
SCREW_LOCATION_RECESS
  0
POLYLINE
  5
7D
  8
SCREW_LOCATION_RECESS
 66
     1
 10
0.0
 20
0.0
 30
0.0
 70
     1
  0
VERTEX
  5
BF
  8
SCREW_LOCATION_RECESS
 10
2.700000000000002
 20
13.92030612161052
 30
0.0
 42
0.4142135623730951
  0
VERTEX
  5
C0
  8
SCREW_LOCATION_RECESS
 10
2.500000000000003
 20
13.72030612161051
 30
0.0
 42
0.4142135623730951
  0
VERTEX
  5
C1
  8
SCREW_LOCATION_RECESS
 10
2.700000000000002
 20
13.52030612161051
 30
0.0
 42
0.4142135623730951
  0
VERTEX
  5
C2
  8
SCREW_LOCATION_RECESS
 10
2.900000000000002
 20
13.72030612161051
 30
0.0
 42
0.4142135623730951
  0
SEQEND
  5
13E
  8
SCREW_LOCATION_RECESS
  0
POLYLINE
  5
7F
  8
HALF_INCH_THRUCUT
 66
     1
 10
0.0
 20
0.0
 30
0.0
 70
     1
  0
VERTEX
  5
C3
  8
HALF_INCH_THRUCUT
 10
90.305
 20
0.8762959116404876
 30
0.0
  0
VERTEX
  5
C4
  8
HALF_INCH_THRUCUT
 10
90.30499999999996
 20
4.115507510065656
 30
0.0
 42
-1.0
  0
VERTEX
  5
C5
  8
HALF_INCH_THRUCUT
 10
90.30499999999995
 20
4.376294911640457
 30
0.0
  0
VERTEX
  5
C6
  8
HALF_INCH_THRUCUT
 10
91.075
 20
4.376294911640485
 30
0.0
  0
VERTEX
  5
C7
  8
HALF_INCH_THRUCUT
 10
91.075
 20
7.376294911640484
 30
0.0
  0
VERTEX
  5
C8
  8
HALF_INCH_THRUCUT
 10
90.30499999999996
 20
7.376294911640388
 30
0.0
 42
-1.0
  0
VERTEX
  5
C9
  8
HALF_INCH_THRUCUT
 10
90.30499999999999
 20
7.637082313215148
 30
0.0
  0
VERTEX
  5
CA
  8
HALF_INCH_THRUCUT
 10
90.3050000000002
 20
18.8655075100656
 30
0.0
 42
-1.0
  0
VERTEX
  5
CB
  8
HALF_INCH_THRUCUT
 10
90.3050000000002
 20
19.1262949116404
 30
0.0
  0
VERTEX
  5
CC
  8
HALF_INCH_THRUCUT
 10
91.07500000000017
 20
19.12629491164029
 30
0.0
  0
VERTEX
  5
CD
  8
HALF_INCH_THRUCUT
 10
91.07499999999997
 20
22.1262949116405
 30
0.0
  0
VERTEX
  5
CE
  8
HALF_INCH_THRUCUT
 10
90.305
 20
22.12629491164038
 30
0.0
 42
-1.0
  0
VERTEX
  5
CF
  8
HALF_INCH_THRUCUT
 10
90.305
 20
22.38708231321517
 30
0.0
  0
VERTEX
  5
D0
  8
HALF_INCH_THRUCUT
 10
90.30500000000009
 20
33.6155075100387
 30
0.0
 42
-1.0
  0
VERTEX
  5
D1
  8
HALF_INCH_THRUCUT
 10
90.30500000000009
 20
33.87629491164043
 30
0.0
  0
VERTEX
  5
D2
  8
HALF_INCH_THRUCUT
 10
91.075
 20
33.8762949116405
 30
0.0
  0
VERTEX
  5
D3
  8
HALF_INCH_THRUCUT
 10
91.075
 20
36.87629491164053
 30
0.0
  0
VERTEX
  5
D4
  8
HALF_INCH_THRUCUT
 10
90.30500000000029
 20
36.87629491164034
 30
0.0
 42
-1.0
  0
VERTEX
  5
D5
  8
HALF_INCH_THRUCUT
 10
90.30500000000025
 20
37.13708231321515
 30
0.0
  0
VERTEX
  5
D6
  8
HALF_INCH_THRUCUT
 10
90.305
 20
40.37629591164053
 30
0.0
  0
VERTEX
  5
D7
  8
HALF_INCH_THRUCUT
 10
69.095
 20
40.37629591164053
 30
0.0
  0
VERTEX
  5
D8
  8
HALF_INCH_THRUCUT
 10
69.09499999999983
 20
39.1370823132156
 30
0.0
 42
-1.0
  0
VERTEX
  5
D9
  8
HALF_INCH_THRUCUT
 10
69.0949999999998
 20
38.8762949116408
 30
0.0
  0
VERTEX
  5
DA
  8
HALF_INCH_THRUCUT
 10
68.30499999999984
 20
38.8762949116409
 30
0.0
 42
-1.0
  0
VERTEX
  5
DB
  8
HALF_INCH_THRUCUT
 10
68.30499999999986
 20
39.13708231321571
 30
0.0
  0
VERTEX
  5
DC
  8
HALF_INCH_THRUCUT
 10
68.305
 20
40.37629591164053
 30
0.0
  0
VERTEX
  5
DD
  8
HALF_INCH_THRUCUT
 10
47.095
 20
40.37629591164053
 30
0.0
  0
VERTEX
  5
DE
  8
HALF_INCH_THRUCUT
 10
47.09500000000021
 20
39.13708231321527
 30
0.0
 42
-1.0
  0
VERTEX
  5
DF
  8
HALF_INCH_THRUCUT
 10
47.09500000000025
 20
38.87629491164047
 30
0.0
  0
VERTEX
  5
E0
  8
HALF_INCH_THRUCUT
 10
46.30500000000029
 20
38.87629491164034
 30
0.0
 42
-1.0
  0
VERTEX
  5
E1
  8
HALF_INCH_THRUCUT
 10
46.30500000000024
 20
39.13708231321515
 30
0.0
  0
VERTEX
  5
E2
  8
HALF_INCH_THRUCUT
 10
46.305
 20
40.37629591164053
 30
0.0
  0
VERTEX
  5
E3
  8
HALF_INCH_THRUCUT
 10
25.095
 20
40.37629591164053
 30
0.0
  0
VERTEX
  5
E4
  8
HALF_INCH_THRUCUT
 10
25.09500000000002
 20
39.13708231321534
 30
0.0
 42
-1.0
  0
VERTEX
  5
E5
  8
HALF_INCH_THRUCUT
 10
25.09500000000003
 20
38.87629491164054
 30
0.0
  0
VERTEX
  5
E6
  8
HALF_INCH_THRUCUT
 10
24.30500000000006
 20
38.87629491164034
 30
0.0
 42
-1.0
  0
VERTEX
  5
E7
  8
HALF_INCH_THRUCUT
 10
24.30500000000005
 20
39.13708231321515
 30
0.0
  0
VERTEX
  5
E8
  8
HALF_INCH_THRUCUT
 10
24.305
 20
40.37629591164053
 30
0.0
  0
VERTEX
  5
E9
  8
HALF_INCH_THRUCUT
 10
3.095
 20
40.37629591164053
 30
0.0
  0
VERTEX
  5
EA
  8
HALF_INCH_THRUCUT
 10
3.094999999999999
 20
39.13708231321534
 30
0.0
 42
-1.0
  0
VERTEX
  5
EB
  8
HALF_INCH_THRUCUT
 10
3.094999999999999
 20
38.87629491164054
 30
0.0
  0
VERTEX
  5
EC
  8
HALF_INCH_THRUCUT
 10
2.7
 20
38.87629491164053
 30
0.0
  0
VERTEX
  5
ED
  8
HALF_INCH_THRUCUT
 10
2.700000000000003
 20
31.19958331321534
 30
0.0
 42
-1.0
  0
VERTEX
  5
EE
  8
HALF_INCH_THRUCUT
 10
2.700000000000003
 20
30.93879591164054
 30
0.0
  0
VERTEX
  5
EF
  8
HALF_INCH_THRUCUT
 10
2.325
 20
30.93879591164053
 30
0.0
  0
VERTEX
  5
F0
  8
HALF_INCH_THRUCUT
 10
2.325
 20
24.12629591164053
 30
0.0
  0
VERTEX
  5
F1
  8
HALF_INCH_THRUCUT
 10
3.075000000000003
 20
24.12629591164053
 30
0.0
 42
-1.0
  0
VERTEX
  5
F2
  8
HALF_INCH_THRUCUT
 10
3.075000000000003
 20
23.86550851006573
 30
0.0
  0
VERTEX
  5
F3
  8
HALF_INCH_THRUCUT
 10
3.074999999999999
 20
17.38708331321533
 30
0.0
 42
-1.0
  0
VERTEX
  5
F4
  8
HALF_INCH_THRUCUT
 10
3.074999999999999
 20
17.12629591164053
 30
0.0
  0
VERTEX
  5
F5
  8
HALF_INCH_THRUCUT
 10
2.325
 20
17.12629591164053
 30
0.0
  0
VERTEX
  5
F6
  8
HALF_INCH_THRUCUT
 10
2.325
 20
10.31379591164049
 30
0.0
  0
VERTEX
  5
F7
  8
HALF_INCH_THRUCUT
 10
2.700000000000003
 20
10.31379591164049
 30
0.0
 42
-1.0
  0
VERTEX
  5
F8
  8
HALF_INCH_THRUCUT
 10
2.700000000000003
 20
10.05300851006569
 30
0.0
  0
VERTEX
  5
F9
  8
HALF_INCH_THRUCUT
 10
2.7
 20
2.376294911640485
 30
0.0
  0
VERTEX
  5
FA
  8
HALF_INCH_THRUCUT
 10
3.095000000000002
 20
2.376294911640482
 30
0.0
 42
-1.0
  0
VERTEX
  5
FB
  8
HALF_INCH_THRUCUT
 10
3.095000000000002
 20
2.115507510065681
 30
0.0
  0
VERTEX
  5
FC
  8
HALF_INCH_THRUCUT
 10
3.095
 20
0.8762959116404876
 30
0.0
  0
VERTEX
  5
FD
  8
HALF_INCH_THRUCUT
 10
24.305
 20
0.8762959116404876
 30
0.0
  0
VERTEX
  5
FE
  8
HALF_INCH_THRUCUT
 10
24.30500000000001
 20
2.115507510065685
 30
0.0
 42
-1.0
  0
VERTEX
  5
FF
  8
HALF_INCH_THRUCUT
 10
24.30500000000001
 20
2.376294911640485
 30
0.0
  0
VERTEX
  5
100
  8
HALF_INCH_THRUCUT
 10
25.095
 20
2.376294911640485
 30
0.0
 42
-1.0
  0
VERTEX
  5
101
  8
HALF_INCH_THRUCUT
 10
25.095
 20
2.115507510065685
 30
0.0
  0
VERTEX
  5
102
  8
HALF_INCH_THRUCUT
 10
25.095
 20
0.8762959116404876
 30
0.0
  0
VERTEX
  5
103
  8
HALF_INCH_THRUCUT
 10
46.305
 20
0.8762959116404876
 30
0.0
  0
VERTEX
  5
104
  8
HALF_INCH_THRUCUT
 10
46.30500000000001
 20
2.115507510065713
 30
0.0
 42
-1.0
  0
VERTEX
  5
105
  8
HALF_INCH_THRUCUT
 10
46.30500000000001
 20
2.376294911640514
 30
0.0
  0
VERTEX
  5
106
  8
HALF_INCH_THRUCUT
 10
47.09499999999997
 20
2.376294911640489
 30
0.0
 42
-1.0
  0
VERTEX
  5
107
  8
HALF_INCH_THRUCUT
 10
47.09499999999998
 20
2.115507510065688
 30
0.0
  0
VERTEX
  5
108
  8
HALF_INCH_THRUCUT
 10
47.095
 20
0.8762959116404876
 30
0.0
  0
VERTEX
  5
109
  8
HALF_INCH_THRUCUT
 10
68.305
 20
0.8762959116404876
 30
0.0
  0
VERTEX
  5
10A
  8
HALF_INCH_THRUCUT
 10
68.30499999999996
 20
2.115507510065656
 30
0.0
 42
-1.0
  0
VERTEX
  5
10B
  8
HALF_INCH_THRUCUT
 10
68.30499999999995
 20
2.376294911640457
 30
0.0
  0
VERTEX
  5
10C
  8
HALF_INCH_THRUCUT
 10
69.09500000000003
 20
2.376294911640411
 30
0.0
 42
-1.0
  0
VERTEX
  5
10D
  8
HALF_INCH_THRUCUT
 10
69.09500000000003
 20
2.11550751006561
 30
0.0
  0
VERTEX
  5
10E
  8
HALF_INCH_THRUCUT
 10
69.095
 20
0.8762959116404876
 30
0.0
  0
SEQEND
  5
13F
  8
HALF_INCH_THRUCUT
  0
POLYLINE
  5
80
  8
HALF_INCH_THRUCUT
 66
     1
 10
0.0
 20
0.0
 30
0.0
 70
     1
  0
VERTEX
  5
10F
  8
HALF_INCH_THRUCUT
 10
78.700000000566
 20
3.126294911640519
 30
0.0
  0
VERTEX
  5
110
  8
HALF_INCH_THRUCUT
 10
78.700000000566
 20
2.376294911640519
 30
0.0
 42
1.0
  0
VERTEX
  5
111
  8
HALF_INCH_THRUCUT
 10
78.96078740214081
 20
2.376294911640519
 30
0.0
  0
VERTEX
  5
112
  8
HALF_INCH_THRUCUT
 10
80.4392125989912
 20
2.376294911640519
 30
0.0
 42
1.0
  0
VERTEX
  5
113
  8
HALF_INCH_THRUCUT
 10
80.700000000566
 20
2.376294911640519
 30
0.0
  0
VERTEX
  5
114
  8
HALF_INCH_THRUCUT
 10
80.700000000566
 20
3.126294911640519
 30
0.0
 42
1.0
  0
VERTEX
  5
115
  8
HALF_INCH_THRUCUT
 10
80.4392125989912
 20
3.126294911640519
 30
0.0
  0
VERTEX
  5
116
  8
HALF_INCH_THRUCUT
 10
78.96078740214081
 20
3.126294911640519
 30
0.0
 42
1.0
  0
SEQEND
  5
140
  8
HALF_INCH_THRUCUT
  0
POLYLINE
  5
81
  8
HALF_INCH_THRUCUT
 66
     1
 10
0.0
 20
0.0
 30
0.0
 70
     1
  0
VERTEX
  5
117
  8
HALF_INCH_THRUCUT
 10
56.70000000056601
 20
3.126294911640519
 30
0.0
  0
VERTEX
  5
118
  8
HALF_INCH_THRUCUT
 10
56.70000000056601
 20
2.376294911640519
 30
0.0
 42
1.0
  0
VERTEX
  5
119
  8
HALF_INCH_THRUCUT
 10
56.96078740214082
 20
2.376294911640519
 30
0.0
  0
VERTEX
  5
11A
  8
HALF_INCH_THRUCUT
 10
58.43921259899121
 20
2.376294911640519
 30
0.0
 42
1.0
  0
VERTEX
  5
11B
  8
HALF_INCH_THRUCUT
 10
58.70000000056601
 20
2.376294911640519
 30
0.0
  0
VERTEX
  5
11C
  8
HALF_INCH_THRUCUT
 10
58.70000000056601
 20
3.126294911640519
 30
0.0
 42
1.0
  0
VERTEX
  5
11D
  8
HALF_INCH_THRUCUT
 10
58.43921259899121
 20
3.126294911640519
 30
0.0
  0
VERTEX
  5
11E
  8
HALF_INCH_THRUCUT
 10
56.96078740214082
 20
3.126294911640519
 30
0.0
 42
1.0
  0
SEQEND
  5
141
  8
HALF_INCH_THRUCUT
  0
POLYLINE
  5
82
  8
HALF_INCH_THRUCUT
 66
     1
 10
0.0
 20
0.0
 30
0.0
 70
     1
  0
VERTEX
  5
11F
  8
HALF_INCH_THRUCUT
 10
34.70000000056601
 20
3.126294911640519
 30
0.0
  0
VERTEX
  5
120
  8
HALF_INCH_THRUCUT
 10
34.70000000056601
 20
2.376294911640519
 30
0.0
 42
1.0
  0
VERTEX
  5
121
  8
HALF_INCH_THRUCUT
 10
34.96078740214082
 20
2.376294911640519
 30
0.0
  0
VERTEX
  5
122
  8
HALF_INCH_THRUCUT
 10
36.43921259899121
 20
2.376294911640519
 30
0.0
 42
1.0
  0
VERTEX
  5
123
  8
HALF_INCH_THRUCUT
 10
36.70000000056601
 20
2.376294911640519
 30
0.0
  0
VERTEX
  5
124
  8
HALF_INCH_THRUCUT
 10
36.70000000056601
 20
3.126294911640519
 30
0.0
 42
1.0
  0
VERTEX
  5
125
  8
HALF_INCH_THRUCUT
 10
36.43921259899121
 20
3.126294911640519
 30
0.0
  0
VERTEX
  5
126
  8
HALF_INCH_THRUCUT
 10
34.96078740214082
 20
3.126294911640519
 30
0.0
 42
1.0
  0
SEQEND
  5
142
  8
HALF_INCH_THRUCUT
  0
POLYLINE
  5
83
  8
HALF_INCH_THRUCUT
 66
     1
 10
0.0
 20
0.0
 30
0.0
 70
     1
  0
VERTEX
  5
127
  8
HALF_INCH_THRUCUT
 10
14.43921259899121
 20
3.126294911640505
 30
0.0
  0
VERTEX
  5
128
  8
HALF_INCH_THRUCUT
 10
12.96078740214081
 20
3.126294911640512
 30
0.0
 42
1.0
  0
VERTEX
  5
129
  8
HALF_INCH_THRUCUT
 10
12.70000000056601
 20
3.126294911640514
 30
0.0
  0
VERTEX
  5
12A
  8
HALF_INCH_THRUCUT
 10
12.70000000056601
 20
2.376294911640505
 30
0.0
 42
1.0
  0
VERTEX
  5
12B
  8
HALF_INCH_THRUCUT
 10
12.96078740214081
 20
2.376294911640505
 30
0.0
  0
VERTEX
  5
12C
  8
HALF_INCH_THRUCUT
 10
14.43921259899121
 20
2.376294911640505
 30
0.0
 42
1.0
  0
VERTEX
  5
12D
  8
HALF_INCH_THRUCUT
 10
14.70000000056601
 20
2.376294911640505
 30
0.0
  0
VERTEX
  5
12E
  8
HALF_INCH_THRUCUT
 10
14.70000000056601
 20
3.126294911640505
 30
0.0
 42
1.0
  0
SEQEND
  5
143
  8
HALF_INCH_THRUCUT
  0
ENDSEC
  0
EOF
