  0
SECTION
  2
HEADER
  9
$ACADVER
  1
AC1009
  9
$DWGCODEPAGE
  3
ansi_1252
  9
$INSBASE
 10
0.0
 20
0.0
 30
0.0
  9
$EXTMIN
 10
1.008717782443351
 20
0.8960876643706952
 30
0.0
  9
$EXTMAX
 10
94.84072881622541
 20
46.68217856078968
 30
0.0
  9
$LIMMIN
 10
0.0
 20
0.0
  9
$LIMMAX
 10
12.0
 20
9.0
  9
$ORTHOMODE
 70
     0
  9
$REGENMODE
 70
     1
  9
$FILLMODE
 70
     1
  9
$QTEXTMODE
 70
     0
  9
$MIRRTEXT
 70
     1
  9
$DRAGMODE
 70
     2
  9
$LTSCALE
 40
1.0
  9
$OSMODE
 70
    37
  9
$ATTMODE
 70
     1
  9
$TEXTSIZE
 40
0.2
  9
$TRACEWID
 40
0.05
  9
$TEXTSTYLE
  7
STANDARD
  9
$CLAYER
  8
0
  9
$CELTYPE
  6
BYLAYER
  9
$CECOLOR
 62
   256
  9
$DIMSCALE
 40
1.0
  9
$DIMASZ
 40
0.18
  9
$DIMEXO
 40
0.0625
  9
$DIMDLI
 40
0.38
  9
$DIMRND
 40
0.0
  9
$DIMDLE
 40
0.0
  9
$DIMEXE
 40
0.18
  9
$DIMTP
 40
0.0
  9
$DIMTM
 40
0.0
  9
$DIMTXT
 40
0.18
  9
$DIMCEN
 40
0.09
  9
$DIMTSZ
 40
0.0
  9
$DIMTOL
 70
     0
  9
$DIMLIM
 70
     0
  9
$DIMTIH
 70
     1
  9
$DIMTOH
 70
     1
  9
$DIMSE1
 70
     0
  9
$DIMSE2
 70
     0
  9
$DIMTAD
 70
     0
  9
$DIMZIN
 70
     0
  9
$DIMBLK
  1

  9
$DIMASO
 70
     1
  9
$DIMSHO
 70
     1
  9
$DIMPOST
  1

  9
$DIMAPOST
  1

  9
$DIMALT
 70
     0
  9
$DIMALTD
 70
     2
  9
$DIMALTF
 40
25.4
  9
$DIMLFAC
 40
1.0
  9
$DIMTOFL
 70
     0
  9
$DIMTVP
 40
0.0
  9
$DIMTIX
 70
     0
  9
$DIMSOXD
 70
     0
  9
$DIMSAH
 70
     0
  9
$DIMBLK1
  1

  9
$DIMBLK2
  1

  9
$DIMSTYLE
  2
STANDARD
  9
$DIMCLRD
 70
     0
  9
$DIMCLRE
 70
     0
  9
$DIMCLRT
 70
     0
  9
$DIMTFAC
 40
1.0
  9
$DIMGAP
 40
0.09
  9
$LUNITS
 70
     2
  9
$LUPREC
 70
     4
  9
$SKETCHINC
 40
0.1
  9
$FILLETRAD
 40
0.5
  9
$AUNITS
 70
     0
  9
$AUPREC
 70
     0
  9
$MENU
  1
.
  9
$ELEVATION
 40
0.0
  9
$PELEVATION
 40
0.0
  9
$THICKNESS
 40
0.0
  9
$LIMCHECK
 70
     0
  9
$CHAMFERA
 40
0.0
  9
$CHAMFERB
 40
0.0
  9
$SKPOLY
 70
     0
  9
$TDCREATE
 40
2454910.5
  9
$TDUPDATE
 40
2457907.700539688
  9
$TDINDWG
 40
0.0000000116
  9
$TDUSRTIMER
 40
0.0000000116
  9
$USRTIMER
 70
     1
  9
$ANGBASE
 50
0.0
  9
$ANGDIR
 70
     0
  9
$PDMODE
 70
     0
  9
$PDSIZE
 40
0.0
  9
$PLINEWID
 40
0.0
  9
$COORDS
 70
     1
  9
$SPLFRAME
 70
     0
  9
$SPLINETYPE
 70
     6
  9
$SPLINESEGS
 70
     8
  9
$ATTDIA
 70
     0
  9
$ATTREQ
 70
     1
  9
$HANDLING
 70
     1
  9
$HANDSEED
  5
5FE
  9
$SURFTAB1
 70
     6
  9
$SURFTAB2
 70
     6
  9
$SURFTYPE
 70
     6
  9
$SURFU
 70
     6
  9
$SURFV
 70
     6
  9
$UCSNAME
  2

  9
$UCSORG
 10
0.0
 20
0.0
 30
0.0
  9
$UCSXDIR
 10
1.0
 20
0.0
 30
0.0
  9
$UCSYDIR
 10
0.0
 20
1.0
 30
0.0
  9
$PUCSNAME
  2

  9
$PUCSORG
 10
0.0
 20
0.0
 30
0.0
  9
$PUCSXDIR
 10
1.0
 20
0.0
 30
0.0
  9
$PUCSYDIR
 10
0.0
 20
1.0
 30
0.0
  9
$USERI1
 70
     0
  9
$USERI2
 70
     0
  9
$USERI3
 70
     0
  9
$USERI4
 70
     0
  9
$USERI5
 70
     0
  9
$USERR1
 40
0.0
  9
$USERR2
 40
0.0
  9
$USERR3
 40
0.0
  9
$USERR4
 40
0.0
  9
$USERR5
 40
0.0
  9
$WORLDVIEW
 70
     1
  9
$SHADEDGE
 70
     3
  9
$SHADEDIF
 70
    70
  9
$TILEMODE
 70
     1
  9
$MAXACTVP
 70
    64
  9
$PLIMCHECK
 70
     0
  9
$PEXTMIN
 10
1.000000000000000E+20
 20
1.000000000000000E+20
 30
1.000000000000000E+20
  9
$PEXTMAX
 10
-1.000000000000000E+20
 20
-1.000000000000000E+20
 30
-1.000000000000000E+20
  9
$PLIMMIN
 10
0.0
 20
0.0
  9
$PLIMMAX
 10
12.0
 20
9.0
  9
$UNITMODE
 70
     0
  9
$VISRETAIN
 70
     1
  9
$PLINEGEN
 70
     0
  9
$PSLTSCALE
 70
     1
  0
ENDSEC
  0
SECTION
  2
TABLES
  0
TABLE
  2
VPORT
 70
     1
  0
VPORT
  2
*ACTIVE
 70
     0
 10
0.0
 20
0.0
 11
1.0
 21
1.0
 12
10.42990654205607
 22
4.5
 13
0.0
 23
0.0
 14
0.5
 24
0.5
 15
0.5
 25
0.5
 16
0.0
 26
0.0
 36
1.0
 17
0.0
 27
0.0
 37
0.0
 40
9.0
 41
1.972972972850329
 42
50.0
 43
0.0
 44
0.0
 50
0.0
 51
0.0
 71
     0
 72
   100
 73
     1
 74
     3
 75
     0
 76
     0
 77
     0
 78
     0
  0
ENDTAB
  0
TABLE
  2
LTYPE
 70
     2
  0
LTYPE
  2
CONTINUOUS
 70
     0
  3
Solid line
 72
    65
 73
     0
 40
0.0
  0
LTYPE
  2
CONTINUOUS2
 70
     0
  3
Solid Line
 72
    65
 73
     0
 40
0.0
  0
ENDTAB
  0
TABLE
  2
LAYER
 70
     5
  0
LAYER
  2
0
 70
     0
 62
     7
  6
CONTINUOUS
  0
LAYER
  2
SCREW_LOCATION_RECESS
 70
     0
 62
     1
  6
CONTINUOUS
  0
LAYER
  2
HALF_INCH_THRUCUT
 70
     0
 62
    18
  6
CONTINUOUS
  0
LAYER
  2
FLUSH_WEDGES
 70
     0
 62
     3
  6
CONTINUOUS
  0
LAYER
  2
RIB_WEDGES
 70
     0
 62
   150
  6
CONTINUOUS
  0
ENDTAB
  0
TABLE
  2
STYLE
 70
     1
  0
STYLE
  2
STANDARD
 70
     0
 40
0.0
 41
1.0
 50
0.0
 71
     0
 42
0.2
  3
txt
  4

  0
ENDTAB
  0
TABLE
  2
VIEW
 70
     0
  0
ENDTAB
  0
TABLE
  2
UCS
 70
     0
  0
ENDTAB
  0
TABLE
  2
APPID
 70
     1
  0
APPID
  2
ACAD
 70
     0
  0
ENDTAB
  0
TABLE
  2
DIMSTYLE
 70
     1
  0
DIMSTYLE
  2
STANDARD
 70
     0
  3

  4

  5

  6

  7

 40
1.0
 41
0.18
 42
0.0625
 43
0.38
 44
0.18
 45
0.0
 46
0.0
 47
0.0
 48
0.0
140
0.18
141
0.09
142
0.0
143
25.4
144
1.0
145
0.0
146
1.0
147
0.09
 71
     0
 72
     0
 73
     1
 74
     1
 75
     0
 76
     0
 77
     0
 78
     0
170
     0
171
     2
172
     0
173
     0
174
     0
175
     0
176
     0
177
     0
178
     0
  0
ENDTAB
  0
ENDSEC
  0
SECTION
  2
BLOCKS
  0
BLOCK
  8
0
  2
$MODEL_SPACE
 70
     0
 10
0.0
 20
0.0
 30
0.0
  3
$MODEL_SPACE
  1

  0
ENDBLK
  5
21
  8
0
  0
BLOCK
 67
     1
  8
0
  2
$PAPER_SPACE
 70
     0
 10
0.0
 20
0.0
 30
0.0
  3
$PAPER_SPACE
  1

  0
ENDBLK
  5
1D
 67
     1
  8
0
  0
ENDSEC
  0
SECTION
  2
ENTITIES
  0
POLYLINE
  5
70
  8
SCREW_LOCATION_RECESS
 66
     1
 10
0.0
 20
0.0
 30
0.0
 70
     1
  0
VERTEX
  5
137
  8
SCREW_LOCATION_RECESS
 10
23.62610457203134
 20
14.81217856078968
 30
0.0
 42
0.4142135623730951
  0
VERTEX
  5
138
  8
SCREW_LOCATION_RECESS
 10
23.49610457203136
 20
14.68217856078968
 30
0.0
 42
0.4142135623730951
  0
VERTEX
  5
139
  8
SCREW_LOCATION_RECESS
 10
23.62610457203134
 20
14.55217856078968
 30
0.0
 42
0.4142135623730951
  0
VERTEX
  5
13A
  8
SCREW_LOCATION_RECESS
 10
23.75610457203137
 20
14.68217856078968
 30
0.0
 42
0.4142135623730951
  0
SEQEND
  5
541
  8
SCREW_LOCATION_RECESS
  0
POLYLINE
  5
71
  8
SCREW_LOCATION_RECESS
 66
     1
 10
0.0
 20
0.0
 30
0.0
 70
     1
  0
VERTEX
  5
13B
  8
SCREW_LOCATION_RECESS
 10
45.62610457203123
 20
39.31217855535388
 30
0.0
 42
0.4142135623730951
  0
VERTEX
  5
13C
  8
SCREW_LOCATION_RECESS
 10
45.49610457203125
 20
39.18217855535389
 30
0.0
 42
0.4142135623730951
  0
VERTEX
  5
13D
  8
SCREW_LOCATION_RECESS
 10
45.62610457203123
 20
39.05217855535389
 30
0.0
 42
0.4142135623730951
  0
VERTEX
  5
13E
  8
SCREW_LOCATION_RECESS
 10
45.75610457203125
 20
39.18217855535389
 30
0.0
 42
0.4142135623730951
  0
SEQEND
  5
542
  8
SCREW_LOCATION_RECESS
  0
POLYLINE
  5
72
  8
SCREW_LOCATION_RECESS
 66
     1
 10
0.0
 20
0.0
 30
0.0
 70
     1
  0
VERTEX
  5
13F
  8
SCREW_LOCATION_RECESS
 10
45.62610457203134
 20
27.06217856078973
 30
0.0
 42
0.4142135623730951
  0
VERTEX
  5
140
  8
SCREW_LOCATION_RECESS
 10
45.49610457203136
 20
26.93217856078974
 30
0.0
 42
0.4142135623730951
  0
VERTEX
  5
141
  8
SCREW_LOCATION_RECESS
 10
45.62610457203134
 20
26.80217856078975
 30
0.0
 42
0.4142135623730951
  0
VERTEX
  5
142
  8
SCREW_LOCATION_RECESS
 10
45.75610457203137
 20
26.93217856078974
 30
0.0
 42
0.4142135623730951
  0
SEQEND
  5
543
  8
SCREW_LOCATION_RECESS
  0
POLYLINE
  5
73
  8
SCREW_LOCATION_RECESS
 66
     1
 10
0.0
 20
0.0
 30
0.0
 70
     1
  0
VERTEX
  5
143
  8
SCREW_LOCATION_RECESS
 10
45.62610457203134
 20
14.81217856078973
 30
0.0
 42
0.4142135623730951
  0
VERTEX
  5
144
  8
SCREW_LOCATION_RECESS
 10
45.49610457203136
 20
14.68217856078974
 30
0.0
 42
0.4142135623730951
  0
VERTEX
  5
145
  8
SCREW_LOCATION_RECESS
 10
45.62610457203134
 20
14.55217856078974
 30
0.0
 42
0.4142135623730951
  0
VERTEX
  5
146
  8
SCREW_LOCATION_RECESS
 10
45.75610457203136
 20
14.68217856078974
 30
0.0
 42
0.4142135623730951
  0
SEQEND
  5
544
  8
SCREW_LOCATION_RECESS
  0
POLYLINE
  5
74
  8
SCREW_LOCATION_RECESS
 66
     1
 10
0.0
 20
0.0
 30
0.0
 70
     1
  0
VERTEX
  5
147
  8
SCREW_LOCATION_RECESS
 10
67.62610457203134
 20
27.13217856078967
 30
0.0
 42
0.4142135623730951
  0
VERTEX
  5
148
  8
SCREW_LOCATION_RECESS
 10
67.42610457203135
 20
26.93217856078968
 30
0.0
 42
0.4142135623730951
  0
VERTEX
  5
149
  8
SCREW_LOCATION_RECESS
 10
67.62610457203134
 20
26.73217856078969
 30
0.0
 42
0.4142135623730951
  0
VERTEX
  5
14A
  8
SCREW_LOCATION_RECESS
 10
67.82610457203138
 20
26.93217856078968
 30
0.0
 42
0.4142135623730951
  0
SEQEND
  5
545
  8
SCREW_LOCATION_RECESS
  0
POLYLINE
  5
75
  8
SCREW_LOCATION_RECESS
 66
     1
 10
0.0
 20
0.0
 30
0.0
 70
     1
  0
VERTEX
  5
14B
  8
SCREW_LOCATION_RECESS
 10
7.146153224796493
 20
9.187146775203507
 30
0.0
 42
0.4142135623730951
  0
VERTEX
  5
14C
  8
SCREW_LOCATION_RECESS
 10
7.016153224796493
 20
9.057146775203506
 30
0.0
 42
0.4142135623730951
  0
VERTEX
  5
14D
  8
SCREW_LOCATION_RECESS
 10
7.146153224796493
 20
8.927146775203505
 30
0.0
 42
0.4142135623730951
  0
VERTEX
  5
14E
  8
SCREW_LOCATION_RECESS
 10
7.276153224796492
 20
9.057146775203506
 30
0.0
 42
0.4142135623730951
  0
SEQEND
  5
546
  8
SCREW_LOCATION_RECESS
  0
POLYLINE
  5
76
  8
SCREW_LOCATION_RECESS
 66
     1
 10
0.0
 20
0.0
 30
0.0
 70
     1
  0
VERTEX
  5
14F
  8
SCREW_LOCATION_RECESS
 10
18.14615322479649
 20
9.187146775203507
 30
0.0
 42
0.4142135623730951
  0
VERTEX
  5
150
  8
SCREW_LOCATION_RECESS
 10
18.01615322479649
 20
9.057146775203506
 30
0.0
 42
0.4142135623730951
  0
VERTEX
  5
151
  8
SCREW_LOCATION_RECESS
 10
18.14615322479649
 20
8.927146775203505
 30
0.0
 42
0.4142135623730951
  0
VERTEX
  5
152
  8
SCREW_LOCATION_RECESS
 10
18.27615322479649
 20
9.057146775203506
 30
0.0
 42
0.4142135623730951
  0
SEQEND
  5
547
  8
SCREW_LOCATION_RECESS
  0
POLYLINE
  5
77
  8
SCREW_LOCATION_RECESS
 66
     1
 10
0.0
 20
0.0
 30
0.0
 70
     1
  0
VERTEX
  5
153
  8
SCREW_LOCATION_RECESS
 10
29.14615322479649
 20
9.187146775203507
 30
0.0
 42
0.4142135623730951
  0
VERTEX
  5
154
  8
SCREW_LOCATION_RECESS
 10
29.01615322479649
 20
9.057146775203506
 30
0.0
 42
0.4142135623730951
  0
VERTEX
  5
155
  8
SCREW_LOCATION_RECESS
 10
29.14615322479649
 20
8.927146775203505
 30
0.0
 42
0.4142135623730951
  0
VERTEX
  5
156
  8
SCREW_LOCATION_RECESS
 10
29.27615322479649
 20
9.057146775203506
 30
0.0
 42
0.4142135623730951
  0
SEQEND
  5
548
  8
SCREW_LOCATION_RECESS
  0
POLYLINE
  5
78
  8
SCREW_LOCATION_RECESS
 66
     1
 10
0.0
 20
0.0
 30
0.0
 70
     1
  0
VERTEX
  5
157
  8
SCREW_LOCATION_RECESS
 10
40.14615322479649
 20
9.187146775203507
 30
0.0
 42
0.4142135623730951
  0
VERTEX
  5
158
  8
SCREW_LOCATION_RECESS
 10
40.01615322479649
 20
9.057146775203506
 30
0.0
 42
0.4142135623730951
  0
VERTEX
  5
159
  8
SCREW_LOCATION_RECESS
 10
40.14615322479649
 20
8.927146775203505
 30
0.0
 42
0.4142135623730951
  0
VERTEX
  5
15A
  8
SCREW_LOCATION_RECESS
 10
40.2761532247965
 20
9.057146775203506
 30
0.0
 42
0.4142135623730951
  0
SEQEND
  5
549
  8
SCREW_LOCATION_RECESS
  0
POLYLINE
  5
79
  8
SCREW_LOCATION_RECESS
 66
     1
 10
0.0
 20
0.0
 30
0.0
 70
     1
  0
VERTEX
  5
15B
  8
SCREW_LOCATION_RECESS
 10
51.14615322479649
 20
9.187146775203507
 30
0.0
 42
0.4142135623730951
  0
VERTEX
  5
15C
  8
SCREW_LOCATION_RECESS
 10
51.01615322479649
 20
9.057146775203506
 30
0.0
 42
0.4142135623730951
  0
VERTEX
  5
15D
  8
SCREW_LOCATION_RECESS
 10
51.14615322479649
 20
8.927146775203505
 30
0.0
 42
0.4142135623730951
  0
VERTEX
  5
15E
  8
SCREW_LOCATION_RECESS
 10
51.2761532247965
 20
9.057146775203506
 30
0.0
 42
0.4142135623730951
  0
SEQEND
  5
54A
  8
SCREW_LOCATION_RECESS
  0
POLYLINE
  5
7A
  8
SCREW_LOCATION_RECESS
 66
     1
 10
0.0
 20
0.0
 30
0.0
 70
     1
  0
VERTEX
  5
15F
  8
SCREW_LOCATION_RECESS
 10
62.14615322479649
 20
9.187146775203507
 30
0.0
 42
0.4142135623730951
  0
VERTEX
  5
160
  8
SCREW_LOCATION_RECESS
 10
62.01615322479649
 20
9.057146775203506
 30
0.0
 42
0.4142135623730951
  0
VERTEX
  5
161
  8
SCREW_LOCATION_RECESS
 10
62.14615322479649
 20
8.927146775203505
 30
0.0
 42
0.4142135623730951
  0
VERTEX
  5
162
  8
SCREW_LOCATION_RECESS
 10
62.2761532247965
 20
9.057146775203506
 30
0.0
 42
0.4142135623730951
  0
SEQEND
  5
54B
  8
SCREW_LOCATION_RECESS
  0
POLYLINE
  5
7B
  8
SCREW_LOCATION_RECESS
 66
     1
 10
0.0
 20
0.0
 30
0.0
 70
     1
  0
VERTEX
  5
163
  8
SCREW_LOCATION_RECESS
 10
23.62610457203124
 20
39.31217855535383
 30
0.0
 42
0.4142135623730951
  0
VERTEX
  5
164
  8
SCREW_LOCATION_RECESS
 10
23.49610457203124
 20
39.18217855535383
 30
0.0
 42
0.4142135623730951
  0
VERTEX
  5
165
  8
SCREW_LOCATION_RECESS
 10
23.62610457203124
 20
39.05217855535383
 30
0.0
 42
0.4142135623730951
  0
VERTEX
  5
166
  8
SCREW_LOCATION_RECESS
 10
23.75610457203124
 20
39.18217855535383
 30
0.0
 42
0.4142135623730951
  0
SEQEND
  5
54C
  8
SCREW_LOCATION_RECESS
  0
POLYLINE
  5
7C
  8
SCREW_LOCATION_RECESS
 66
     1
 10
0.0
 20
0.0
 30
0.0
 70
     1
  0
VERTEX
  5
167
  8
SCREW_LOCATION_RECESS
 10
23.62610457203135
 20
27.06217856078968
 30
0.0
 42
0.4142135623730951
  0
VERTEX
  5
168
  8
SCREW_LOCATION_RECESS
 10
23.49610457203135
 20
26.93217856078968
 30
0.0
 42
0.4142135623730951
  0
VERTEX
  5
169
  8
SCREW_LOCATION_RECESS
 10
23.62610457203135
 20
26.80217856078968
 30
0.0
 42
0.4142135623730951
  0
VERTEX
  5
16A
  8
SCREW_LOCATION_RECESS
 10
23.75610457203135
 20
26.93217856078968
 30
0.0
 42
0.4142135623730951
  0
SEQEND
  5
54D
  8
SCREW_LOCATION_RECESS
  0
POLYLINE
  5
7E
  8
HALF_INCH_THRUCUT
 66
     1
 10
0.0
 20
0.0
 30
0.0
 70
     1
  0
VERTEX
  5
16B
  8
HALF_INCH_THRUCUT
 10
55.62610457259741
 20
9.43217856078968
 30
0.0
  0
VERTEX
  5
16C
  8
HALF_INCH_THRUCUT
 10
55.62610457259741
 20
8.68217856078968
 30
0.0
 42
1.0
  0
VERTEX
  5
16D
  8
HALF_INCH_THRUCUT
 10
55.8868919741722
 20
8.68217856078968
 30
0.0
  0
VERTEX
  5
16E
  8
HALF_INCH_THRUCUT
 10
57.3653171710226
 20
8.68217856078968
 30
0.0
 42
1.0
  0
VERTEX
  5
16F
  8
HALF_INCH_THRUCUT
 10
57.62610457259741
 20
8.68217856078968
 30
0.0
  0
VERTEX
  5
170
  8
HALF_INCH_THRUCUT
 10
57.62610457259741
 20
9.43217856078968
 30
0.0
 42
1.0
  0
VERTEX
  5
171
  8
HALF_INCH_THRUCUT
 10
57.3653171710226
 20
9.43217856078968
 30
0.0
  0
VERTEX
  5
172
  8
HALF_INCH_THRUCUT
 10
55.8868919741722
 20
9.43217856078968
 30
0.0
 42
1.0
  0
SEQEND
  5
54E
  8
HALF_INCH_THRUCUT
  0
POLYLINE
  5
7F
  8
HALF_INCH_THRUCUT
 66
     1
 10
0.0
 20
0.0
 30
0.0
 70
     1
  0
VERTEX
  5
173
  8
HALF_INCH_THRUCUT
 10
33.62610457259738
 20
9.43217856078968
 30
0.0
  0
VERTEX
  5
174
  8
HALF_INCH_THRUCUT
 10
33.62610457259738
 20
8.68217856078968
 30
0.0
 42
1.0
  0
VERTEX
  5
175
  8
HALF_INCH_THRUCUT
 10
33.8868919741722
 20
8.68217856078968
 30
0.0
  0
VERTEX
  5
176
  8
HALF_INCH_THRUCUT
 10
35.3653171710226
 20
8.68217856078968
 30
0.0
 42
1.0
  0
VERTEX
  5
177
  8
HALF_INCH_THRUCUT
 10
35.62610457259741
 20
8.68217856078968
 30
0.0
  0
VERTEX
  5
178
  8
HALF_INCH_THRUCUT
 10
35.62610457259741
 20
9.43217856078968
 30
0.0
 42
1.0
  0
VERTEX
  5
179
  8
HALF_INCH_THRUCUT
 10
35.3653171710226
 20
9.43217856078968
 30
0.0
  0
VERTEX
  5
17A
  8
HALF_INCH_THRUCUT
 10
33.8868919741722
 20
9.43217856078968
 30
0.0
 42
1.0
  0
SEQEND
  5
54F
  8
HALF_INCH_THRUCUT
  0
POLYLINE
  5
80
  8
HALF_INCH_THRUCUT
 66
     1
 10
0.0
 20
0.0
 30
0.0
 70
     1
  0
VERTEX
  5
17B
  8
HALF_INCH_THRUCUT
 10
11.62610457259741
 20
9.43217856078968
 30
0.0
  0
VERTEX
  5
17C
  8
HALF_INCH_THRUCUT
 10
11.62610457259741
 20
8.68217856078968
 30
0.0
 42
1.0
  0
VERTEX
  5
17D
  8
HALF_INCH_THRUCUT
 10
11.8868919741722
 20
8.68217856078968
 30
0.0
  0
VERTEX
  5
17E
  8
HALF_INCH_THRUCUT
 10
13.3653171710226
 20
8.68217856078968
 30
0.0
 42
1.0
  0
VERTEX
  5
17F
  8
HALF_INCH_THRUCUT
 10
13.62610457259741
 20
8.68217856078968
 30
0.0
  0
VERTEX
  5
180
  8
HALF_INCH_THRUCUT
 10
13.62610457259741
 20
9.43217856078968
 30
0.0
 42
1.0
  0
VERTEX
  5
181
  8
HALF_INCH_THRUCUT
 10
13.3653171710226
 20
9.43217856078968
 30
0.0
  0
VERTEX
  5
182
  8
HALF_INCH_THRUCUT
 10
11.8868919741722
 20
9.43217856078968
 30
0.0
 42
1.0
  0
SEQEND
  5
550
  8
HALF_INCH_THRUCUT
  0
POLYLINE
  5
81
  8
HALF_INCH_THRUCUT
 66
     1
 10
0.0
 20
0.0
 30
0.0
 70
     1
  0
VERTEX
  5
183
  8
HALF_INCH_THRUCUT
 10
2.001104572031378
 20
7.182178560789639
 30
0.0
  0
VERTEX
  5
184
  8
HALF_INCH_THRUCUT
 10
23.23110457203138
 20
7.18217856078968
 30
0.0
  0
VERTEX
  5
185
  8
HALF_INCH_THRUCUT
 10
23.23110457203138
 20
8.421391159214878
 30
0.0
 42
-1.0
  0
VERTEX
  5
186
  8
HALF_INCH_THRUCUT
 10
23.23110457203138
 20
8.68217856078968
 30
0.0
  0
VERTEX
  5
187
  8
HALF_INCH_THRUCUT
 10
24.02110457203138
 20
8.682178560789694
 30
0.0
 42
-1.0
  0
VERTEX
  5
188
  8
HALF_INCH_THRUCUT
 10
24.02110457203138
 20
8.421391159214892
 30
0.0
  0
VERTEX
  5
189
  8
HALF_INCH_THRUCUT
 10
24.02110457203138
 20
7.18217856078968
 30
0.0
  0
VERTEX
  5
18A
  8
HALF_INCH_THRUCUT
 10
45.23110457203138
 20
7.18217856078968
 30
0.0
  0
VERTEX
  5
18B
  8
HALF_INCH_THRUCUT
 10
45.23110457203136
 20
8.421391159214878
 30
0.0
 42
-1.0
  0
VERTEX
  5
18C
  8
HALF_INCH_THRUCUT
 10
45.23110457203136
 20
8.68217856078968
 30
0.0
  0
VERTEX
  5
18D
  8
HALF_INCH_THRUCUT
 10
46.02110457203143
 20
8.682178560789652
 30
0.0
 42
-1.0
  0
VERTEX
  5
18E
  8
HALF_INCH_THRUCUT
 10
46.02110457203143
 20
8.42139115921485
 30
0.0
  0
VERTEX
  5
18F
  8
HALF_INCH_THRUCUT
 10
46.02110457203138
 20
7.18217856078968
 30
0.0
  0
VERTEX
  5
190
  8
HALF_INCH_THRUCUT
 10
67.23110457203138
 20
7.18217856078968
 30
0.0
  0
VERTEX
  5
191
  8
HALF_INCH_THRUCUT
 10
67.2311045720313
 20
8.421391159214878
 30
0.0
 42
-1.0
  0
VERTEX
  5
192
  8
HALF_INCH_THRUCUT
 10
67.2311045720313
 20
8.68217856078968
 30
0.0
  0
VERTEX
  5
193
  8
HALF_INCH_THRUCUT
 10
67.6261045720314
 20
8.682178560789652
 30
0.0
  0
VERTEX
  5
194
  8
HALF_INCH_THRUCUT
 10
67.6261045720314
 20
10.93217856078965
 30
0.0
  0
VERTEX
  5
195
  8
HALF_INCH_THRUCUT
 10
67.2511045720314
 20
10.93217856078965
 30
0.0
 42
-1.0
  0
VERTEX
  5
196
  8
HALF_INCH_THRUCUT
 10
67.2511045720314
 20
11.19296596236445
 30
0.0
  0
VERTEX
  5
197
  8
HALF_INCH_THRUCUT
 10
67.2511045720314
 20
21.67139115921485
 30
0.0
 42
-1.0
  0
VERTEX
  5
198
  8
HALF_INCH_THRUCUT
 10
67.2511045720314
 20
21.93217856078965
 30
0.0
  0
VERTEX
  5
199
  8
HALF_INCH_THRUCUT
 10
68.0011045720314
 20
21.93217856078965
 30
0.0
  0
VERTEX
  5
19A
  8
HALF_INCH_THRUCUT
 10
68.0011045720314
 20
31.93217856078965
 30
0.0
  0
VERTEX
  5
19B
  8
HALF_INCH_THRUCUT
 10
67.2511045720314
 20
31.93217856078965
 30
0.0
 42
-1.0
  0
VERTEX
  5
19C
  8
HALF_INCH_THRUCUT
 10
67.2511045720314
 20
32.19296596236445
 30
0.0
  0
VERTEX
  5
19D
  8
HALF_INCH_THRUCUT
 10
67.2511045720314
 20
41.67139115921485
 30
0.0
 42
-1.0
  0
VERTEX
  5
19E
  8
HALF_INCH_THRUCUT
 10
67.2511045720314
 20
41.93217856078965
 30
0.0
  0
VERTEX
  5
19F
  8
HALF_INCH_THRUCUT
 10
67.6261045720314
 20
41.93217856078965
 30
0.0
  0
VERTEX
  5
1A0
  8
HALF_INCH_THRUCUT
 10
67.6261045720314
 20
45.18217856078968
 30
0.0
  0
VERTEX
  5
1A1
  8
HALF_INCH_THRUCUT
 10
67.23110457203119
 20
45.18217856078979
 30
0.0
 42
-1.0
  0
VERTEX
  5
1A2
  8
HALF_INCH_THRUCUT
 10
67.23110457203121
 20
45.44296596236461
 30
0.0
  0
VERTEX
  5
1A3
  8
HALF_INCH_THRUCUT
 10
67.23110457203138
 20
46.68217856078968
 30
0.0
  0
VERTEX
  5
1A4
  8
HALF_INCH_THRUCUT
 10
46.02110457203138
 20
46.68217856078968
 30
0.0
  0
VERTEX
  5
1A5
  8
HALF_INCH_THRUCUT
 10
46.02110457203158
 20
45.44296596236447
 30
0.0
 42
-1.0
  0
VERTEX
  5
1A6
  8
HALF_INCH_THRUCUT
 10
46.0211045720316
 20
45.18217856078965
 30
0.0
  0
VERTEX
  5
1A7
  8
HALF_INCH_THRUCUT
 10
45.23110457203119
 20
45.18217856078979
 30
0.0
 42
-1.0
  0
VERTEX
  5
1A8
  8
HALF_INCH_THRUCUT
 10
45.23110457203121
 20
45.44296596236461
 30
0.0
  0
VERTEX
  5
1A9
  8
HALF_INCH_THRUCUT
 10
45.23110457203138
 20
46.68217856078968
 30
0.0
  0
VERTEX
  5
1AA
  8
HALF_INCH_THRUCUT
 10
24.02110457203138
 20
46.68217856078968
 30
0.0
  0
VERTEX
  5
1AB
  8
HALF_INCH_THRUCUT
 10
24.02110457203138
 20
45.44296596236455
 30
0.0
 42
-1.0
  0
VERTEX
  5
1AC
  8
HALF_INCH_THRUCUT
 10
24.02110457203138
 20
45.18217856078977
 30
0.0
  0
VERTEX
  5
1AD
  8
HALF_INCH_THRUCUT
 10
23.23110457203141
 20
45.18217856078957
 30
0.0
 42
-1.0
  0
VERTEX
  5
1AE
  8
HALF_INCH_THRUCUT
 10
23.23110457203141
 20
45.44296596236438
 30
0.0
  0
VERTEX
  5
1AF
  8
HALF_INCH_THRUCUT
 10
23.23110457203138
 20
46.68217856078968
 30
0.0
  0
VERTEX
  5
1B0
  8
HALF_INCH_THRUCUT
 10
2.001104572031378
 20
46.68217856078968
 30
0.0
  0
VERTEX
  5
1B1
  8
HALF_INCH_THRUCUT
 10
2.001104572031153
 20
43.4429649623643
 30
0.0
 42
-1.0
  0
VERTEX
  5
1B2
  8
HALF_INCH_THRUCUT
 10
2.001104572031039
 20
43.1821775607895
 30
0.0
  0
VERTEX
  5
1B3
  8
HALF_INCH_THRUCUT
 10
1.231104572031399
 20
43.18217756078968
 30
0.0
  0
VERTEX
  5
1B4
  8
HALF_INCH_THRUCUT
 10
1.231104572031399
 20
40.18217756078965
 30
0.0
  0
VERTEX
  5
1B5
  8
HALF_INCH_THRUCUT
 10
2.001104572031267
 20
40.18217756078958
 30
0.0
 42
-1.0
  0
VERTEX
  5
1B6
  8
HALF_INCH_THRUCUT
 10
2.001104572031267
 20
39.92139015918785
 30
0.0
  0
VERTEX
  5
1B7
  8
HALF_INCH_THRUCUT
 10
2.001104563541389
 20
34.43717219041216
 30
0.0
  0
VERTEX
  5
1B8
  8
HALF_INCH_THRUCUT
 10
2.601104832385744
 20
34.43717219041227
 30
0.0
  0
VERTEX
  5
1B9
  8
HALF_INCH_THRUCUT
 10
2.601104809730458
 20
35.12332960110152
 30
0.0
 42
-1.0
  0
VERTEX
  5
1BA
  8
HALF_INCH_THRUCUT
 10
2.784954861208433
 20
35.30717737026609
 30
0.0
  0
VERTEX
  5
1BB
  8
HALF_INCH_THRUCUT
 10
2.917259309663876
 20
35.30717572346086
 30
0.0
 42
-1.0
  0
VERTEX
  5
1BC
  8
HALF_INCH_THRUCUT
 10
3.10110478440285
 20
35.12332796036387
 30
0.0
  0
VERTEX
  5
1BD
  8
HALF_INCH_THRUCUT
 10
3.101104784392845
 20
34.4371721904123
 30
0.0
  0
VERTEX
  5
1BE
  8
HALF_INCH_THRUCUT
 10
3.588281688755202
 20
34.43717219041224
 30
0.0
  0
VERTEX
  5
1BF
  8
HALF_INCH_THRUCUT
 10
3.588281688755202
 20
34.17717219041216
 30
0.0
  0
VERTEX
  5
1C0
  8
HALF_INCH_THRUCUT
 10
3.101104784392845
 20
34.17717219041216
 30
0.0
  0
VERTEX
  5
1C1
  8
HALF_INCH_THRUCUT
 10
3.10110478440285
 20
33.49101642046057
 30
0.0
 42
-1.0
  0
VERTEX
  5
1C2
  8
HALF_INCH_THRUCUT
 10
2.917259309663876
 20
33.30716865736358
 30
0.0
  0
VERTEX
  5
1C3
  8
HALF_INCH_THRUCUT
 10
2.784954861208433
 20
33.30716701055835
 30
0.0
 42
-1.0
  0
VERTEX
  5
1C4
  8
HALF_INCH_THRUCUT
 10
2.601104809730458
 20
33.49101477972292
 30
0.0
  0
VERTEX
  5
1C5
  8
HALF_INCH_THRUCUT
 10
2.601104832385744
 20
34.17717219041216
 30
0.0
  0
VERTEX
  5
1C6
  8
HALF_INCH_THRUCUT
 10
2.001104580521286
 20
34.17717219041228
 30
0.0
  0
VERTEX
  5
1C7
  8
HALF_INCH_THRUCUT
 10
2.00110457203138
 20
28.69296496236433
 30
0.0
 42
-1.0
  0
VERTEX
  5
1C8
  8
HALF_INCH_THRUCUT
 10
2.00110457203138
 20
28.43217756078952
 30
0.0
  0
VERTEX
  5
1C9
  8
HALF_INCH_THRUCUT
 10
1.231104572031399
 20
28.43217756078965
 30
0.0
  0
VERTEX
  5
1CA
  8
HALF_INCH_THRUCUT
 10
1.231104572031172
 20
25.43217756078945
 30
0.0
  0
VERTEX
  5
1CB
  8
HALF_INCH_THRUCUT
 10
2.001104572031153
 20
25.43217756078955
 30
0.0
 42
-1.0
  0
VERTEX
  5
1CC
  8
HALF_INCH_THRUCUT
 10
2.001104572031153
 20
25.17139015921475
 30
0.0
  0
VERTEX
  5
1CD
  8
HALF_INCH_THRUCUT
 10
2.001104563541318
 20
19.68717756078933
 30
0.0
  0
VERTEX
  5
1CE
  8
HALF_INCH_THRUCUT
 10
2.601104832385658
 20
19.68717756078957
 30
0.0
  0
VERTEX
  5
1CF
  8
HALF_INCH_THRUCUT
 10
2.601104809730373
 20
20.37333497147882
 30
0.0
 42
-1.0
  0
VERTEX
  5
1D0
  8
HALF_INCH_THRUCUT
 10
2.784954861208348
 20
20.55718274064339
 30
0.0
  0
VERTEX
  5
1D1
  8
HALF_INCH_THRUCUT
 10
2.917259309663791
 20
20.55718109383816
 30
0.0
 42
-1.0
  0
VERTEX
  5
1D2
  8
HALF_INCH_THRUCUT
 10
3.101104784402764
 20
20.37333333074117
 30
0.0
  0
VERTEX
  5
1D3
  8
HALF_INCH_THRUCUT
 10
3.10110478439276
 20
19.6871775607896
 30
0.0
  0
VERTEX
  5
1D4
  8
HALF_INCH_THRUCUT
 10
3.588281688755117
 20
19.68717756078955
 30
0.0
  0
VERTEX
  5
1D5
  8
HALF_INCH_THRUCUT
 10
3.588281688755117
 20
19.42717756078947
 30
0.0
  0
VERTEX
  5
1D6
  8
HALF_INCH_THRUCUT
 10
3.10110478439276
 20
19.42717756078947
 30
0.0
  0
VERTEX
  5
1D7
  8
HALF_INCH_THRUCUT
 10
3.101104784402764
 20
18.74102179083787
 30
0.0
 42
-1.0
  0
VERTEX
  5
1D8
  8
HALF_INCH_THRUCUT
 10
2.917259309663791
 20
18.55717402774088
 30
0.0
  0
VERTEX
  5
1D9
  8
HALF_INCH_THRUCUT
 10
2.784954861208348
 20
18.55717238093565
 30
0.0
 42
-1.0
  0
VERTEX
  5
1DA
  8
HALF_INCH_THRUCUT
 10
2.601104809730373
 20
18.74102015010022
 30
0.0
  0
VERTEX
  5
1DB
  8
HALF_INCH_THRUCUT
 10
2.601104832385658
 20
19.42717756078947
 30
0.0
  0
VERTEX
  5
1DC
  8
HALF_INCH_THRUCUT
 10
2.001104580521215
 20
19.42717756078958
 30
0.0
  0
VERTEX
  5
1DD
  8
HALF_INCH_THRUCUT
 10
2.00110457203138
 20
13.9429649623643
 30
0.0
 42
-1.0
  0
VERTEX
  5
1DE
  8
HALF_INCH_THRUCUT
 10
2.00110457203138
 20
13.68217756078954
 30
0.0
  0
VERTEX
  5
1DF
  8
HALF_INCH_THRUCUT
 10
1.231104572031399
 20
13.68217756078964
 30
0.0
  0
VERTEX
  5
1E0
  8
HALF_INCH_THRUCUT
 10
1.231104572031399
 20
10.68217756078964
 30
0.0
  0
VERTEX
  5
1E1
  8
HALF_INCH_THRUCUT
 10
2.00110457203138
 20
10.68217756078961
 30
0.0
 42
-1.0
  0
VERTEX
  5
1E2
  8
HALF_INCH_THRUCUT
 10
2.00110457203138
 20
10.42139015921481
 30
0.0
  0
SEQEND
  5
551
  8
HALF_INCH_THRUCUT
  0
POLYLINE
  5
83
  8
FLUSH_WEDGES
 66
     1
 10
0.0
 20
0.0
 30
0.0
 70
     1
  0
VERTEX
  5
1E3
  8
FLUSH_WEDGES
 10
2.054579716969311
 20
1.896087664370656
 30
0.0
  0
VERTEX
  5
1E4
  8
FLUSH_WEDGES
 10
1.0739605031502
 20
1.896087664370656
 30
0.0
  0
VERTEX
  5
1E5
  8
FLUSH_WEDGES
 10
1.008717782443351
 20
0.8960876643706952
 30
0.0
  0
VERTEX
  5
1E6
  8
FLUSH_WEDGES
 10
3.026713651495282
 20
0.8960876643706983
 30
0.0
  0
VERTEX
  5
1E7
  8
FLUSH_WEDGES
 10
2.961470930788419
 20
1.896087664370656
 30
0.0
  0
SEQEND
  5
552
  8
FLUSH_WEDGES
  0
POLYLINE
  5
84
  8
FLUSH_WEDGES
 66
     1
 10
0.0
 20
0.0
 30
0.0
 70
     1
  0
VERTEX
  5
1E8
  8
FLUSH_WEDGES
 10
5.322575586021241
 20
1.896087664370656
 30
0.0
  0
VERTEX
  5
1E9
  8
FLUSH_WEDGES
 10
4.34195637220213
 20
1.896087664370656
 30
0.0
  0
VERTEX
  5
1EA
  8
FLUSH_WEDGES
 10
4.276713651495282
 20
0.8960876643706952
 30
0.0
  0
VERTEX
  5
1EB
  8
FLUSH_WEDGES
 10
6.294709520547212
 20
0.8960876643706983
 30
0.0
  0
VERTEX
  5
1EC
  8
FLUSH_WEDGES
 10
6.229466799840349
 20
1.896087664370656
 30
0.0
  0
SEQEND
  5
553
  8
FLUSH_WEDGES
  0
POLYLINE
  5
85
  8
FLUSH_WEDGES
 66
     1
 10
0.0
 20
0.0
 30
0.0
 70
     1
  0
VERTEX
  5
1ED
  8
FLUSH_WEDGES
 10
8.59057145507317
 20
1.896087664370656
 30
0.0
  0
VERTEX
  5
1EE
  8
FLUSH_WEDGES
 10
7.609952241254061
 20
1.896087664370656
 30
0.0
  0
VERTEX
  5
1EF
  8
FLUSH_WEDGES
 10
7.544709520547212
 20
0.8960876643706952
 30
0.0
  0
VERTEX
  5
1F0
  8
FLUSH_WEDGES
 10
9.562705389599142
 20
0.8960876643706983
 30
0.0
  0
VERTEX
  5
1F1
  8
FLUSH_WEDGES
 10
9.497462668892279
 20
1.896087664370656
 30
0.0
  0
SEQEND
  5
554
  8
FLUSH_WEDGES
  0
POLYLINE
  5
86
  8
FLUSH_WEDGES
 66
     1
 10
0.0
 20
0.0
 30
0.0
 70
     1
  0
VERTEX
  5
1F2
  8
FLUSH_WEDGES
 10
11.8585673241251
 20
1.896087664370656
 30
0.0
  0
VERTEX
  5
1F3
  8
FLUSH_WEDGES
 10
10.87794811030599
 20
1.896087664370656
 30
0.0
  0
VERTEX
  5
1F4
  8
FLUSH_WEDGES
 10
10.81270538959914
 20
0.8960876643706952
 30
0.0
  0
VERTEX
  5
1F5
  8
FLUSH_WEDGES
 10
12.83070125865107
 20
0.8960876643706983
 30
0.0
  0
VERTEX
  5
1F6
  8
FLUSH_WEDGES
 10
12.76545853794421
 20
1.896087664370656
 30
0.0
  0
SEQEND
  5
555
  8
FLUSH_WEDGES
  0
POLYLINE
  5
87
  8
FLUSH_WEDGES
 66
     1
 10
0.0
 20
0.0
 30
0.0
 70
     1
  0
VERTEX
  5
1F7
  8
FLUSH_WEDGES
 10
15.12656319317703
 20
1.896087664370656
 30
0.0
  0
VERTEX
  5
1F8
  8
FLUSH_WEDGES
 10
14.14594397935792
 20
1.896087664370656
 30
0.0
  0
VERTEX
  5
1F9
  8
FLUSH_WEDGES
 10
14.08070125865107
 20
0.8960876643706952
 30
0.0
  0
VERTEX
  5
1FA
  8
FLUSH_WEDGES
 10
16.09869712770301
 20
0.8960876643706983
 30
0.0
  0
VERTEX
  5
1FB
  8
FLUSH_WEDGES
 10
16.03345440699614
 20
1.896087664370656
 30
0.0
  0
SEQEND
  5
556
  8
FLUSH_WEDGES
  0
POLYLINE
  5
88
  8
FLUSH_WEDGES
 66
     1
 10
0.0
 20
0.0
 30
0.0
 70
     1
  0
VERTEX
  5
1FC
  8
FLUSH_WEDGES
 10
18.39455906222896
 20
1.896087664370656
 30
0.0
  0
VERTEX
  5
1FD
  8
FLUSH_WEDGES
 10
17.41393984840985
 20
1.896087664370656
 30
0.0
  0
VERTEX
  5
1FE
  8
FLUSH_WEDGES
 10
17.34869712770301
 20
0.8960876643706952
 30
0.0
  0
VERTEX
  5
1FF
  8
FLUSH_WEDGES
 10
19.36669299675494
 20
0.8960876643706983
 30
0.0
  0
VERTEX
  5
200
  8
FLUSH_WEDGES
 10
19.30145027604807
 20
1.896087664370656
 30
0.0
  0
SEQEND
  5
557
  8
FLUSH_WEDGES
  0
POLYLINE
  5
89
  8
FLUSH_WEDGES
 66
     1
 10
0.0
 20
0.0
 30
0.0
 70
     1
  0
VERTEX
  5
201
  8
FLUSH_WEDGES
 10
21.66255493128089
 20
1.896087664370656
 30
0.0
  0
VERTEX
  5
202
  8
FLUSH_WEDGES
 10
20.68193571746178
 20
1.896087664370656
 30
0.0
  0
VERTEX
  5
203
  8
FLUSH_WEDGES
 10
20.61669299675494
 20
0.8960876643706952
 30
0.0
  0
VERTEX
  5
204
  8
FLUSH_WEDGES
 10
22.63468886580687
 20
0.8960876643706983
 30
0.0
  0
VERTEX
  5
205
  8
FLUSH_WEDGES
 10
22.5694461451
 20
1.896087664370656
 30
0.0
  0
SEQEND
  5
558
  8
FLUSH_WEDGES
  0
POLYLINE
  5
8A
  8
FLUSH_WEDGES
 66
     1
 10
0.0
 20
0.0
 30
0.0
 70
     1
  0
VERTEX
  5
206
  8
FLUSH_WEDGES
 10
24.93055080033282
 20
1.896087664370656
 30
0.0
  0
VERTEX
  5
207
  8
FLUSH_WEDGES
 10
23.94993158651371
 20
1.896087664370656
 30
0.0
  0
VERTEX
  5
208
  8
FLUSH_WEDGES
 10
23.88468886580687
 20
0.8960876643706952
 30
0.0
  0
VERTEX
  5
209
  8
FLUSH_WEDGES
 10
25.90268473485879
 20
0.8960876643706983
 30
0.0
  0
VERTEX
  5
20A
  8
FLUSH_WEDGES
 10
25.83744201415193
 20
1.896087664370656
 30
0.0
  0
SEQEND
  5
559
  8
FLUSH_WEDGES
  0
POLYLINE
  5
8B
  8
FLUSH_WEDGES
 66
     1
 10
0.0
 20
0.0
 30
0.0
 70
     1
  0
VERTEX
  5
20B
  8
FLUSH_WEDGES
 10
28.19854666938475
 20
1.896087664370656
 30
0.0
  0
VERTEX
  5
20C
  8
FLUSH_WEDGES
 10
27.21792745556564
 20
1.896087664370656
 30
0.0
  0
VERTEX
  5
20D
  8
FLUSH_WEDGES
 10
27.15268473485879
 20
0.8960876643706952
 30
0.0
  0
VERTEX
  5
20E
  8
FLUSH_WEDGES
 10
29.17068060391072
 20
0.8960876643706983
 30
0.0
  0
VERTEX
  5
20F
  8
FLUSH_WEDGES
 10
29.10543788320386
 20
1.896087664370656
 30
0.0
  0
SEQEND
  5
55A
  8
FLUSH_WEDGES
  0
POLYLINE
  5
8C
  8
FLUSH_WEDGES
 66
     1
 10
0.0
 20
0.0
 30
0.0
 70
     1
  0
VERTEX
  5
210
  8
FLUSH_WEDGES
 10
31.46654253843668
 20
1.896087664370656
 30
0.0
  0
VERTEX
  5
211
  8
FLUSH_WEDGES
 10
30.48592332461757
 20
1.896087664370656
 30
0.0
  0
VERTEX
  5
212
  8
FLUSH_WEDGES
 10
30.42068060391072
 20
0.8960876643706952
 30
0.0
  0
VERTEX
  5
213
  8
FLUSH_WEDGES
 10
32.43867647296265
 20
0.8960876643706983
 30
0.0
  0
VERTEX
  5
214
  8
FLUSH_WEDGES
 10
32.37343375225579
 20
1.896087664370656
 30
0.0
  0
SEQEND
  5
55B
  8
FLUSH_WEDGES
  0
POLYLINE
  5
8D
  8
FLUSH_WEDGES
 66
     1
 10
0.0
 20
0.0
 30
0.0
 70
     1
  0
VERTEX
  5
215
  8
FLUSH_WEDGES
 10
34.73453840748861
 20
1.896087664370656
 30
0.0
  0
VERTEX
  5
216
  8
FLUSH_WEDGES
 10
33.7539191936695
 20
1.896087664370656
 30
0.0
  0
VERTEX
  5
217
  8
FLUSH_WEDGES
 10
33.68867647296265
 20
0.8960876643706952
 30
0.0
  0
VERTEX
  5
218
  8
FLUSH_WEDGES
 10
35.70667234201458
 20
0.8960876643706983
 30
0.0
  0
VERTEX
  5
219
  8
FLUSH_WEDGES
 10
35.64142962130772
 20
1.896087664370656
 30
0.0
  0
SEQEND
  5
55C
  8
FLUSH_WEDGES
  0
POLYLINE
  5
8E
  8
FLUSH_WEDGES
 66
     1
 10
0.0
 20
0.0
 30
0.0
 70
     1
  0
VERTEX
  5
21A
  8
FLUSH_WEDGES
 10
38.00253427654054
 20
1.896087664370656
 30
0.0
  0
VERTEX
  5
21B
  8
FLUSH_WEDGES
 10
37.02191506272143
 20
1.896087664370656
 30
0.0
  0
VERTEX
  5
21C
  8
FLUSH_WEDGES
 10
36.95667234201458
 20
0.8960876643706952
 30
0.0
  0
VERTEX
  5
21D
  8
FLUSH_WEDGES
 10
38.97466821106651
 20
0.8960876643706983
 30
0.0
  0
VERTEX
  5
21E
  8
FLUSH_WEDGES
 10
38.90942549035965
 20
1.896087664370656
 30
0.0
  0
SEQEND
  5
55D
  8
FLUSH_WEDGES
  0
POLYLINE
  5
8F
  8
FLUSH_WEDGES
 66
     1
 10
0.0
 20
0.0
 30
0.0
 70
     1
  0
VERTEX
  5
21F
  8
FLUSH_WEDGES
 10
41.27053014559247
 20
1.896087664370656
 30
0.0
  0
VERTEX
  5
220
  8
FLUSH_WEDGES
 10
40.28991093177336
 20
1.896087664370656
 30
0.0
  0
VERTEX
  5
221
  8
FLUSH_WEDGES
 10
40.22466821106651
 20
0.8960876643706952
 30
0.0
  0
VERTEX
  5
222
  8
FLUSH_WEDGES
 10
42.24266408011844
 20
0.8960876643706983
 30
0.0
  0
VERTEX
  5
223
  8
FLUSH_WEDGES
 10
42.17742135941158
 20
1.896087664370656
 30
0.0
  0
SEQEND
  5
55E
  8
FLUSH_WEDGES
  0
POLYLINE
  5
90
  8
FLUSH_WEDGES
 66
     1
 10
0.0
 20
0.0
 30
0.0
 70
     1
  0
VERTEX
  5
224
  8
FLUSH_WEDGES
 10
44.5385260146444
 20
1.896087664370656
 30
0.0
  0
VERTEX
  5
225
  8
FLUSH_WEDGES
 10
43.55790680082529
 20
1.896087664370656
 30
0.0
  0
VERTEX
  5
226
  8
FLUSH_WEDGES
 10
43.49266408011844
 20
0.8960876643706952
 30
0.0
  0
VERTEX
  5
227
  8
FLUSH_WEDGES
 10
45.51065994917037
 20
0.8960876643706983
 30
0.0
  0
VERTEX
  5
228
  8
FLUSH_WEDGES
 10
45.44541722846351
 20
1.896087664370656
 30
0.0
  0
SEQEND
  5
55F
  8
FLUSH_WEDGES
  0
POLYLINE
  5
91
  8
FLUSH_WEDGES
 66
     1
 10
0.0
 20
0.0
 30
0.0
 70
     1
  0
VERTEX
  5
229
  8
FLUSH_WEDGES
 10
47.80652188369633
 20
1.896087664370656
 30
0.0
  0
VERTEX
  5
22A
  8
FLUSH_WEDGES
 10
46.82590266987722
 20
1.896087664370656
 30
0.0
  0
VERTEX
  5
22B
  8
FLUSH_WEDGES
 10
46.76065994917037
 20
0.8960876643706952
 30
0.0
  0
VERTEX
  5
22C
  8
FLUSH_WEDGES
 10
48.7786558182223
 20
0.8960876643706983
 30
0.0
  0
VERTEX
  5
22D
  8
FLUSH_WEDGES
 10
48.71341309751544
 20
1.896087664370656
 30
0.0
  0
SEQEND
  5
560
  8
FLUSH_WEDGES
  0
POLYLINE
  5
92
  8
FLUSH_WEDGES
 66
     1
 10
0.0
 20
0.0
 30
0.0
 70
     1
  0
VERTEX
  5
22E
  8
FLUSH_WEDGES
 10
51.07451775274826
 20
1.896087664370656
 30
0.0
  0
VERTEX
  5
22F
  8
FLUSH_WEDGES
 10
50.09389853892915
 20
1.896087664370656
 30
0.0
  0
VERTEX
  5
230
  8
FLUSH_WEDGES
 10
50.0286558182223
 20
0.8960876643706952
 30
0.0
  0
VERTEX
  5
231
  8
FLUSH_WEDGES
 10
52.04665168727423
 20
0.8960876643706983
 30
0.0
  0
VERTEX
  5
232
  8
FLUSH_WEDGES
 10
51.98140896656737
 20
1.896087664370656
 30
0.0
  0
SEQEND
  5
561
  8
FLUSH_WEDGES
  0
POLYLINE
  5
93
  8
FLUSH_WEDGES
 66
     1
 10
0.0
 20
0.0
 30
0.0
 70
     1
  0
VERTEX
  5
233
  8
FLUSH_WEDGES
 10
54.34251362180019
 20
1.896087664370656
 30
0.0
  0
VERTEX
  5
234
  8
FLUSH_WEDGES
 10
53.36189440798108
 20
1.896087664370656
 30
0.0
  0
VERTEX
  5
235
  8
FLUSH_WEDGES
 10
53.29665168727423
 20
0.8960876643706952
 30
0.0
  0
VERTEX
  5
236
  8
FLUSH_WEDGES
 10
55.31464755632616
 20
0.8960876643706983
 30
0.0
  0
VERTEX
  5
237
  8
FLUSH_WEDGES
 10
55.2494048356193
 20
1.896087664370656
 30
0.0
  0
SEQEND
  5
562
  8
FLUSH_WEDGES
  0
POLYLINE
  5
94
  8
FLUSH_WEDGES
 66
     1
 10
0.0
 20
0.0
 30
0.0
 70
     1
  0
VERTEX
  5
238
  8
FLUSH_WEDGES
 10
57.61050949085212
 20
1.896087664370656
 30
0.0
  0
VERTEX
  5
239
  8
FLUSH_WEDGES
 10
56.62989027703301
 20
1.896087664370656
 30
0.0
  0
VERTEX
  5
23A
  8
FLUSH_WEDGES
 10
56.56464755632616
 20
0.8960876643706952
 30
0.0
  0
VERTEX
  5
23B
  8
FLUSH_WEDGES
 10
58.58264342537809
 20
0.8960876643706983
 30
0.0
  0
VERTEX
  5
23C
  8
FLUSH_WEDGES
 10
58.51740070467123
 20
1.896087664370656
 30
0.0
  0
SEQEND
  5
563
  8
FLUSH_WEDGES
  0
POLYLINE
  5
95
  8
FLUSH_WEDGES
 66
     1
 10
0.0
 20
0.0
 30
0.0
 70
     1
  0
VERTEX
  5
23D
  8
FLUSH_WEDGES
 10
60.87850535990405
 20
1.896087664370656
 30
0.0
  0
VERTEX
  5
23E
  8
FLUSH_WEDGES
 10
59.89788614608494
 20
1.896087664370656
 30
0.0
  0
VERTEX
  5
23F
  8
FLUSH_WEDGES
 10
59.83264342537809
 20
0.8960876643706952
 30
0.0
  0
VERTEX
  5
240
  8
FLUSH_WEDGES
 10
61.85063929443002
 20
0.8960876643706983
 30
0.0
  0
VERTEX
  5
241
  8
FLUSH_WEDGES
 10
61.78539657372316
 20
1.896087664370656
 30
0.0
  0
SEQEND
  5
564
  8
FLUSH_WEDGES
  0
POLYLINE
  5
96
  8
FLUSH_WEDGES
 66
     1
 10
0.0
 20
0.0
 30
0.0
 70
     1
  0
VERTEX
  5
242
  8
FLUSH_WEDGES
 10
64.14650122895598
 20
1.896087664370656
 30
0.0
  0
VERTEX
  5
243
  8
FLUSH_WEDGES
 10
63.16588201513687
 20
1.896087664370656
 30
0.0
  0
VERTEX
  5
244
  8
FLUSH_WEDGES
 10
63.10063929443002
 20
0.8960876643706952
 30
0.0
  0
VERTEX
  5
245
  8
FLUSH_WEDGES
 10
65.11863516348195
 20
0.8960876643706983
 30
0.0
  0
VERTEX
  5
246
  8
FLUSH_WEDGES
 10
65.05339244277509
 20
1.896087664370656
 30
0.0
  0
SEQEND
  5
565
  8
FLUSH_WEDGES
  0
POLYLINE
  5
97
  8
FLUSH_WEDGES
 66
     1
 10
0.0
 20
0.0
 30
0.0
 70
     1
  0
VERTEX
  5
247
  8
FLUSH_WEDGES
 10
2.054579716969311
 20
4.096087664370617
 30
0.0
  0
VERTEX
  5
248
  8
FLUSH_WEDGES
 10
1.0739605031502
 20
4.096087664370618
 30
0.0
  0
VERTEX
  5
249
  8
FLUSH_WEDGES
 10
1.008717782443351
 20
3.096087664370656
 30
0.0
  0
VERTEX
  5
24A
  8
FLUSH_WEDGES
 10
3.026713651495282
 20
3.096087664370659
 30
0.0
  0
VERTEX
  5
24B
  8
FLUSH_WEDGES
 10
2.961470930788419
 20
4.096087664370617
 30
0.0
  0
SEQEND
  5
566
  8
FLUSH_WEDGES
  0
POLYLINE
  5
98
  8
FLUSH_WEDGES
 66
     1
 10
0.0
 20
0.0
 30
0.0
 70
     1
  0
VERTEX
  5
24C
  8
FLUSH_WEDGES
 10
5.322575586021241
 20
4.096087664370617
 30
0.0
  0
VERTEX
  5
24D
  8
FLUSH_WEDGES
 10
4.34195637220213
 20
4.096087664370618
 30
0.0
  0
VERTEX
  5
24E
  8
FLUSH_WEDGES
 10
4.276713651495282
 20
3.096087664370656
 30
0.0
  0
VERTEX
  5
24F
  8
FLUSH_WEDGES
 10
6.294709520547212
 20
3.096087664370659
 30
0.0
  0
VERTEX
  5
250
  8
FLUSH_WEDGES
 10
6.229466799840349
 20
4.096087664370617
 30
0.0
  0
SEQEND
  5
567
  8
FLUSH_WEDGES
  0
POLYLINE
  5
99
  8
FLUSH_WEDGES
 66
     1
 10
0.0
 20
0.0
 30
0.0
 70
     1
  0
VERTEX
  5
251
  8
FLUSH_WEDGES
 10
8.59057145507317
 20
4.096087664370617
 30
0.0
  0
VERTEX
  5
252
  8
FLUSH_WEDGES
 10
7.609952241254061
 20
4.096087664370618
 30
0.0
  0
VERTEX
  5
253
  8
FLUSH_WEDGES
 10
7.544709520547212
 20
3.096087664370656
 30
0.0
  0
VERTEX
  5
254
  8
FLUSH_WEDGES
 10
9.562705389599142
 20
3.096087664370659
 30
0.0
  0
VERTEX
  5
255
  8
FLUSH_WEDGES
 10
9.497462668892279
 20
4.096087664370617
 30
0.0
  0
SEQEND
  5
568
  8
FLUSH_WEDGES
  0
POLYLINE
  5
9A
  8
FLUSH_WEDGES
 66
     1
 10
0.0
 20
0.0
 30
0.0
 70
     1
  0
VERTEX
  5
256
  8
FLUSH_WEDGES
 10
11.8585673241251
 20
4.096087664370617
 30
0.0
  0
VERTEX
  5
257
  8
FLUSH_WEDGES
 10
10.87794811030599
 20
4.096087664370618
 30
0.0
  0
VERTEX
  5
258
  8
FLUSH_WEDGES
 10
10.81270538959914
 20
3.096087664370656
 30
0.0
  0
VERTEX
  5
259
  8
FLUSH_WEDGES
 10
12.83070125865107
 20
3.096087664370659
 30
0.0
  0
VERTEX
  5
25A
  8
FLUSH_WEDGES
 10
12.76545853794421
 20
4.096087664370617
 30
0.0
  0
SEQEND
  5
569
  8
FLUSH_WEDGES
  0
POLYLINE
  5
9B
  8
FLUSH_WEDGES
 66
     1
 10
0.0
 20
0.0
 30
0.0
 70
     1
  0
VERTEX
  5
25B
  8
FLUSH_WEDGES
 10
15.12656319317703
 20
4.096087664370617
 30
0.0
  0
VERTEX
  5
25C
  8
FLUSH_WEDGES
 10
14.14594397935792
 20
4.096087664370618
 30
0.0
  0
VERTEX
  5
25D
  8
FLUSH_WEDGES
 10
14.08070125865107
 20
3.096087664370656
 30
0.0
  0
VERTEX
  5
25E
  8
FLUSH_WEDGES
 10
16.09869712770301
 20
3.096087664370659
 30
0.0
  0
VERTEX
  5
25F
  8
FLUSH_WEDGES
 10
16.03345440699614
 20
4.096087664370617
 30
0.0
  0
SEQEND
  5
56A
  8
FLUSH_WEDGES
  0
POLYLINE
  5
9C
  8
FLUSH_WEDGES
 66
     1
 10
0.0
 20
0.0
 30
0.0
 70
     1
  0
VERTEX
  5
260
  8
FLUSH_WEDGES
 10
18.39455906222896
 20
4.096087664370617
 30
0.0
  0
VERTEX
  5
261
  8
FLUSH_WEDGES
 10
17.41393984840985
 20
4.096087664370618
 30
0.0
  0
VERTEX
  5
262
  8
FLUSH_WEDGES
 10
17.34869712770301
 20
3.096087664370656
 30
0.0
  0
VERTEX
  5
263
  8
FLUSH_WEDGES
 10
19.36669299675494
 20
3.096087664370659
 30
0.0
  0
VERTEX
  5
264
  8
FLUSH_WEDGES
 10
19.30145027604807
 20
4.096087664370617
 30
0.0
  0
SEQEND
  5
56B
  8
FLUSH_WEDGES
  0
POLYLINE
  5
9D
  8
FLUSH_WEDGES
 66
     1
 10
0.0
 20
0.0
 30
0.0
 70
     1
  0
VERTEX
  5
265
  8
FLUSH_WEDGES
 10
21.66255493128089
 20
4.096087664370617
 30
0.0
  0
VERTEX
  5
266
  8
FLUSH_WEDGES
 10
20.68193571746178
 20
4.096087664370618
 30
0.0
  0
VERTEX
  5
267
  8
FLUSH_WEDGES
 10
20.61669299675494
 20
3.096087664370656
 30
0.0
  0
VERTEX
  5
268
  8
FLUSH_WEDGES
 10
22.63468886580687
 20
3.096087664370659
 30
0.0
  0
VERTEX
  5
269
  8
FLUSH_WEDGES
 10
22.5694461451
 20
4.096087664370617
 30
0.0
  0
SEQEND
  5
56C
  8
FLUSH_WEDGES
  0
POLYLINE
  5
9E
  8
FLUSH_WEDGES
 66
     1
 10
0.0
 20
0.0
 30
0.0
 70
     1
  0
VERTEX
  5
26A
  8
FLUSH_WEDGES
 10
24.93055080033282
 20
4.096087664370617
 30
0.0
  0
VERTEX
  5
26B
  8
FLUSH_WEDGES
 10
23.94993158651371
 20
4.096087664370618
 30
0.0
  0
VERTEX
  5
26C
  8
FLUSH_WEDGES
 10
23.88468886580687
 20
3.096087664370656
 30
0.0
  0
VERTEX
  5
26D
  8
FLUSH_WEDGES
 10
25.90268473485879
 20
3.096087664370659
 30
0.0
  0
VERTEX
  5
26E
  8
FLUSH_WEDGES
 10
25.83744201415193
 20
4.096087664370617
 30
0.0
  0
SEQEND
  5
56D
  8
FLUSH_WEDGES
  0
POLYLINE
  5
9F
  8
FLUSH_WEDGES
 66
     1
 10
0.0
 20
0.0
 30
0.0
 70
     1
  0
VERTEX
  5
26F
  8
FLUSH_WEDGES
 10
28.19854666938475
 20
4.096087664370617
 30
0.0
  0
VERTEX
  5
270
  8
FLUSH_WEDGES
 10
27.21792745556564
 20
4.096087664370618
 30
0.0
  0
VERTEX
  5
271
  8
FLUSH_WEDGES
 10
27.15268473485879
 20
3.096087664370656
 30
0.0
  0
VERTEX
  5
272
  8
FLUSH_WEDGES
 10
29.17068060391072
 20
3.096087664370659
 30
0.0
  0
VERTEX
  5
273
  8
FLUSH_WEDGES
 10
29.10543788320386
 20
4.096087664370617
 30
0.0
  0
SEQEND
  5
56E
  8
FLUSH_WEDGES
  0
POLYLINE
  5
A0
  8
FLUSH_WEDGES
 66
     1
 10
0.0
 20
0.0
 30
0.0
 70
     1
  0
VERTEX
  5
274
  8
FLUSH_WEDGES
 10
31.46654253843668
 20
4.096087664370617
 30
0.0
  0
VERTEX
  5
275
  8
FLUSH_WEDGES
 10
30.48592332461757
 20
4.096087664370618
 30
0.0
  0
VERTEX
  5
276
  8
FLUSH_WEDGES
 10
30.42068060391072
 20
3.096087664370656
 30
0.0
  0
VERTEX
  5
277
  8
FLUSH_WEDGES
 10
32.43867647296265
 20
3.096087664370659
 30
0.0
  0
VERTEX
  5
278
  8
FLUSH_WEDGES
 10
32.37343375225579
 20
4.096087664370617
 30
0.0
  0
SEQEND
  5
56F
  8
FLUSH_WEDGES
  0
POLYLINE
  5
A1
  8
FLUSH_WEDGES
 66
     1
 10
0.0
 20
0.0
 30
0.0
 70
     1
  0
VERTEX
  5
279
  8
FLUSH_WEDGES
 10
34.73453840748861
 20
4.096087664370617
 30
0.0
  0
VERTEX
  5
27A
  8
FLUSH_WEDGES
 10
33.7539191936695
 20
4.096087664370618
 30
0.0
  0
VERTEX
  5
27B
  8
FLUSH_WEDGES
 10
33.68867647296265
 20
3.096087664370656
 30
0.0
  0
VERTEX
  5
27C
  8
FLUSH_WEDGES
 10
35.70667234201458
 20
3.096087664370659
 30
0.0
  0
VERTEX
  5
27D
  8
FLUSH_WEDGES
 10
35.64142962130772
 20
4.096087664370617
 30
0.0
  0
SEQEND
  5
570
  8
FLUSH_WEDGES
  0
POLYLINE
  5
A2
  8
FLUSH_WEDGES
 66
     1
 10
0.0
 20
0.0
 30
0.0
 70
     1
  0
VERTEX
  5
27E
  8
FLUSH_WEDGES
 10
38.00253427654054
 20
4.096087664370617
 30
0.0
  0
VERTEX
  5
27F
  8
FLUSH_WEDGES
 10
37.02191506272143
 20
4.096087664370618
 30
0.0
  0
VERTEX
  5
280
  8
FLUSH_WEDGES
 10
36.95667234201458
 20
3.096087664370656
 30
0.0
  0
VERTEX
  5
281
  8
FLUSH_WEDGES
 10
38.97466821106651
 20
3.096087664370659
 30
0.0
  0
VERTEX
  5
282
  8
FLUSH_WEDGES
 10
38.90942549035965
 20
4.096087664370617
 30
0.0
  0
SEQEND
  5
571
  8
FLUSH_WEDGES
  0
POLYLINE
  5
A3
  8
FLUSH_WEDGES
 66
     1
 10
0.0
 20
0.0
 30
0.0
 70
     1
  0
VERTEX
  5
283
  8
FLUSH_WEDGES
 10
41.27053014559247
 20
4.096087664370617
 30
0.0
  0
VERTEX
  5
284
  8
FLUSH_WEDGES
 10
40.28991093177336
 20
4.096087664370618
 30
0.0
  0
VERTEX
  5
285
  8
FLUSH_WEDGES
 10
40.22466821106651
 20
3.096087664370656
 30
0.0
  0
VERTEX
  5
286
  8
FLUSH_WEDGES
 10
42.24266408011844
 20
3.096087664370659
 30
0.0
  0
VERTEX
  5
287
  8
FLUSH_WEDGES
 10
42.17742135941158
 20
4.096087664370617
 30
0.0
  0
SEQEND
  5
572
  8
FLUSH_WEDGES
  0
POLYLINE
  5
A4
  8
FLUSH_WEDGES
 66
     1
 10
0.0
 20
0.0
 30
0.0
 70
     1
  0
VERTEX
  5
288
  8
FLUSH_WEDGES
 10
44.5385260146444
 20
4.096087664370617
 30
0.0
  0
VERTEX
  5
289
  8
FLUSH_WEDGES
 10
43.55790680082529
 20
4.096087664370618
 30
0.0
  0
VERTEX
  5
28A
  8
FLUSH_WEDGES
 10
43.49266408011844
 20
3.096087664370656
 30
0.0
  0
VERTEX
  5
28B
  8
FLUSH_WEDGES
 10
45.51065994917037
 20
3.096087664370659
 30
0.0
  0
VERTEX
  5
28C
  8
FLUSH_WEDGES
 10
45.44541722846351
 20
4.096087664370617
 30
0.0
  0
SEQEND
  5
573
  8
FLUSH_WEDGES
  0
POLYLINE
  5
A5
  8
FLUSH_WEDGES
 66
     1
 10
0.0
 20
0.0
 30
0.0
 70
     1
  0
VERTEX
  5
28D
  8
FLUSH_WEDGES
 10
47.80652188369633
 20
4.096087664370617
 30
0.0
  0
VERTEX
  5
28E
  8
FLUSH_WEDGES
 10
46.82590266987722
 20
4.096087664370618
 30
0.0
  0
VERTEX
  5
28F
  8
FLUSH_WEDGES
 10
46.76065994917037
 20
3.096087664370656
 30
0.0
  0
VERTEX
  5
290
  8
FLUSH_WEDGES
 10
48.7786558182223
 20
3.096087664370659
 30
0.0
  0
VERTEX
  5
291
  8
FLUSH_WEDGES
 10
48.71341309751544
 20
4.096087664370617
 30
0.0
  0
SEQEND
  5
574
  8
FLUSH_WEDGES
  0
POLYLINE
  5
A6
  8
FLUSH_WEDGES
 66
     1
 10
0.0
 20
0.0
 30
0.0
 70
     1
  0
VERTEX
  5
292
  8
FLUSH_WEDGES
 10
51.07451775274826
 20
4.096087664370617
 30
0.0
  0
VERTEX
  5
293
  8
FLUSH_WEDGES
 10
50.09389853892915
 20
4.096087664370618
 30
0.0
  0
VERTEX
  5
294
  8
FLUSH_WEDGES
 10
50.0286558182223
 20
3.096087664370656
 30
0.0
  0
VERTEX
  5
295
  8
FLUSH_WEDGES
 10
52.04665168727423
 20
3.096087664370659
 30
0.0
  0
VERTEX
  5
296
  8
FLUSH_WEDGES
 10
51.98140896656737
 20
4.096087664370617
 30
0.0
  0
SEQEND
  5
575
  8
FLUSH_WEDGES
  0
POLYLINE
  5
A7
  8
FLUSH_WEDGES
 66
     1
 10
0.0
 20
0.0
 30
0.0
 70
     1
  0
VERTEX
  5
297
  8
FLUSH_WEDGES
 10
54.34251362180019
 20
4.096087664370617
 30
0.0
  0
VERTEX
  5
298
  8
FLUSH_WEDGES
 10
53.36189440798108
 20
4.096087664370618
 30
0.0
  0
VERTEX
  5
299
  8
FLUSH_WEDGES
 10
53.29665168727423
 20
3.096087664370656
 30
0.0
  0
VERTEX
  5
29A
  8
FLUSH_WEDGES
 10
55.31464755632616
 20
3.096087664370659
 30
0.0
  0
VERTEX
  5
29B
  8
FLUSH_WEDGES
 10
55.2494048356193
 20
4.096087664370617
 30
0.0
  0
SEQEND
  5
576
  8
FLUSH_WEDGES
  0
POLYLINE
  5
A8
  8
FLUSH_WEDGES
 66
     1
 10
0.0
 20
0.0
 30
0.0
 70
     1
  0
VERTEX
  5
29C
  8
FLUSH_WEDGES
 10
57.61050949085212
 20
4.096087664370617
 30
0.0
  0
VERTEX
  5
29D
  8
FLUSH_WEDGES
 10
56.62989027703301
 20
4.096087664370618
 30
0.0
  0
VERTEX
  5
29E
  8
FLUSH_WEDGES
 10
56.56464755632616
 20
3.096087664370656
 30
0.0
  0
VERTEX
  5
29F
  8
FLUSH_WEDGES
 10
58.58264342537809
 20
3.096087664370659
 30
0.0
  0
VERTEX
  5
2A0
  8
FLUSH_WEDGES
 10
58.51740070467123
 20
4.096087664370617
 30
0.0
  0
SEQEND
  5
577
  8
FLUSH_WEDGES
  0
POLYLINE
  5
A9
  8
FLUSH_WEDGES
 66
     1
 10
0.0
 20
0.0
 30
0.0
 70
     1
  0
VERTEX
  5
2A1
  8
FLUSH_WEDGES
 10
60.87850535990405
 20
4.096087664370617
 30
0.0
  0
VERTEX
  5
2A2
  8
FLUSH_WEDGES
 10
59.89788614608494
 20
4.096087664370618
 30
0.0
  0
VERTEX
  5
2A3
  8
FLUSH_WEDGES
 10
59.83264342537809
 20
3.096087664370656
 30
0.0
  0
VERTEX
  5
2A4
  8
FLUSH_WEDGES
 10
61.85063929443002
 20
3.096087664370659
 30
0.0
  0
VERTEX
  5
2A5
  8
FLUSH_WEDGES
 10
61.78539657372316
 20
4.096087664370617
 30
0.0
  0
SEQEND
  5
578
  8
FLUSH_WEDGES
  0
POLYLINE
  5
AA
  8
FLUSH_WEDGES
 66
     1
 10
0.0
 20
0.0
 30
0.0
 70
     1
  0
VERTEX
  5
2A6
  8
FLUSH_WEDGES
 10
64.14650122895598
 20
4.096087664370617
 30
0.0
  0
VERTEX
  5
2A7
  8
FLUSH_WEDGES
 10
63.16588201513687
 20
4.096087664370618
 30
0.0
  0
VERTEX
  5
2A8
  8
FLUSH_WEDGES
 10
63.10063929443002
 20
3.096087664370656
 30
0.0
  0
VERTEX
  5
2A9
  8
FLUSH_WEDGES
 10
65.11863516348195
 20
3.096087664370659
 30
0.0
  0
VERTEX
  5
2AA
  8
FLUSH_WEDGES
 10
65.05339244277509
 20
4.096087664370617
 30
0.0
  0
SEQEND
  5
579
  8
FLUSH_WEDGES
  0
POLYLINE
  5
AB
  8
FLUSH_WEDGES
 66
     1
 10
0.0
 20
0.0
 30
0.0
 70
     1
  0
VERTEX
  5
2AB
  8
FLUSH_WEDGES
 10
2.054579716969311
 20
6.296087664370578
 30
0.0
  0
VERTEX
  5
2AC
  8
FLUSH_WEDGES
 10
1.0739605031502
 20
6.296087664370578
 30
0.0
  0
VERTEX
  5
2AD
  8
FLUSH_WEDGES
 10
1.008717782443351
 20
5.296087664370617
 30
0.0
  0
VERTEX
  5
2AE
  8
FLUSH_WEDGES
 10
3.026713651495282
 20
5.296087664370621
 30
0.0
  0
VERTEX
  5
2AF
  8
FLUSH_WEDGES
 10
2.961470930788419
 20
6.296087664370578
 30
0.0
  0
SEQEND
  5
57A
  8
FLUSH_WEDGES
  0
POLYLINE
  5
AC
  8
FLUSH_WEDGES
 66
     1
 10
0.0
 20
0.0
 30
0.0
 70
     1
  0
VERTEX
  5
2B0
  8
FLUSH_WEDGES
 10
5.322575586021241
 20
6.296087664370578
 30
0.0
  0
VERTEX
  5
2B1
  8
FLUSH_WEDGES
 10
4.34195637220213
 20
6.296087664370578
 30
0.0
  0
VERTEX
  5
2B2
  8
FLUSH_WEDGES
 10
4.276713651495282
 20
5.296087664370617
 30
0.0
  0
VERTEX
  5
2B3
  8
FLUSH_WEDGES
 10
6.294709520547212
 20
5.296087664370621
 30
0.0
  0
VERTEX
  5
2B4
  8
FLUSH_WEDGES
 10
6.229466799840349
 20
6.296087664370578
 30
0.0
  0
SEQEND
  5
57B
  8
FLUSH_WEDGES
  0
POLYLINE
  5
AD
  8
FLUSH_WEDGES
 66
     1
 10
0.0
 20
0.0
 30
0.0
 70
     1
  0
VERTEX
  5
2B5
  8
FLUSH_WEDGES
 10
8.59057145507317
 20
6.296087664370578
 30
0.0
  0
VERTEX
  5
2B6
  8
FLUSH_WEDGES
 10
7.609952241254061
 20
6.296087664370578
 30
0.0
  0
VERTEX
  5
2B7
  8
FLUSH_WEDGES
 10
7.544709520547212
 20
5.296087664370617
 30
0.0
  0
VERTEX
  5
2B8
  8
FLUSH_WEDGES
 10
9.562705389599142
 20
5.296087664370621
 30
0.0
  0
VERTEX
  5
2B9
  8
FLUSH_WEDGES
 10
9.497462668892279
 20
6.296087664370578
 30
0.0
  0
SEQEND
  5
57C
  8
FLUSH_WEDGES
  0
POLYLINE
  5
AE
  8
FLUSH_WEDGES
 66
     1
 10
0.0
 20
0.0
 30
0.0
 70
     1
  0
VERTEX
  5
2BA
  8
FLUSH_WEDGES
 10
11.8585673241251
 20
6.296087664370578
 30
0.0
  0
VERTEX
  5
2BB
  8
FLUSH_WEDGES
 10
10.87794811030599
 20
6.296087664370578
 30
0.0
  0
VERTEX
  5
2BC
  8
FLUSH_WEDGES
 10
10.81270538959914
 20
5.296087664370617
 30
0.0
  0
VERTEX
  5
2BD
  8
FLUSH_WEDGES
 10
12.83070125865107
 20
5.296087664370621
 30
0.0
  0
VERTEX
  5
2BE
  8
FLUSH_WEDGES
 10
12.76545853794421
 20
6.296087664370578
 30
0.0
  0
SEQEND
  5
57D
  8
FLUSH_WEDGES
  0
POLYLINE
  5
AF
  8
FLUSH_WEDGES
 66
     1
 10
0.0
 20
0.0
 30
0.0
 70
     1
  0
VERTEX
  5
2BF
  8
FLUSH_WEDGES
 10
15.12656319317703
 20
6.296087664370578
 30
0.0
  0
VERTEX
  5
2C0
  8
FLUSH_WEDGES
 10
14.14594397935792
 20
6.296087664370578
 30
0.0
  0
VERTEX
  5
2C1
  8
FLUSH_WEDGES
 10
14.08070125865107
 20
5.296087664370617
 30
0.0
  0
VERTEX
  5
2C2
  8
FLUSH_WEDGES
 10
16.09869712770301
 20
5.296087664370621
 30
0.0
  0
VERTEX
  5
2C3
  8
FLUSH_WEDGES
 10
16.03345440699614
 20
6.296087664370578
 30
0.0
  0
SEQEND
  5
57E
  8
FLUSH_WEDGES
  0
POLYLINE
  5
B0
  8
FLUSH_WEDGES
 66
     1
 10
0.0
 20
0.0
 30
0.0
 70
     1
  0
VERTEX
  5
2C4
  8
FLUSH_WEDGES
 10
18.39455906222896
 20
6.296087664370578
 30
0.0
  0
VERTEX
  5
2C5
  8
FLUSH_WEDGES
 10
17.41393984840985
 20
6.296087664370578
 30
0.0
  0
VERTEX
  5
2C6
  8
FLUSH_WEDGES
 10
17.34869712770301
 20
5.296087664370617
 30
0.0
  0
VERTEX
  5
2C7
  8
FLUSH_WEDGES
 10
19.36669299675494
 20
5.296087664370621
 30
0.0
  0
VERTEX
  5
2C8
  8
FLUSH_WEDGES
 10
19.30145027604807
 20
6.296087664370578
 30
0.0
  0
SEQEND
  5
57F
  8
FLUSH_WEDGES
  0
POLYLINE
  5
B1
  8
FLUSH_WEDGES
 66
     1
 10
0.0
 20
0.0
 30
0.0
 70
     1
  0
VERTEX
  5
2C9
  8
FLUSH_WEDGES
 10
21.66255493128089
 20
6.296087664370578
 30
0.0
  0
VERTEX
  5
2CA
  8
FLUSH_WEDGES
 10
20.68193571746178
 20
6.296087664370578
 30
0.0
  0
VERTEX
  5
2CB
  8
FLUSH_WEDGES
 10
20.61669299675494
 20
5.296087664370617
 30
0.0
  0
VERTEX
  5
2CC
  8
FLUSH_WEDGES
 10
22.63468886580687
 20
5.296087664370621
 30
0.0
  0
VERTEX
  5
2CD
  8
FLUSH_WEDGES
 10
22.5694461451
 20
6.296087664370578
 30
0.0
  0
SEQEND
  5
580
  8
FLUSH_WEDGES
  0
POLYLINE
  5
B2
  8
FLUSH_WEDGES
 66
     1
 10
0.0
 20
0.0
 30
0.0
 70
     1
  0
VERTEX
  5
2CE
  8
FLUSH_WEDGES
 10
24.93055080033282
 20
6.296087664370578
 30
0.0
  0
VERTEX
  5
2CF
  8
FLUSH_WEDGES
 10
23.94993158651371
 20
6.296087664370578
 30
0.0
  0
VERTEX
  5
2D0
  8
FLUSH_WEDGES
 10
23.88468886580687
 20
5.296087664370617
 30
0.0
  0
VERTEX
  5
2D1
  8
FLUSH_WEDGES
 10
25.90268473485879
 20
5.296087664370621
 30
0.0
  0
VERTEX
  5
2D2
  8
FLUSH_WEDGES
 10
25.83744201415193
 20
6.296087664370578
 30
0.0
  0
SEQEND
  5
581
  8
FLUSH_WEDGES
  0
POLYLINE
  5
B3
  8
FLUSH_WEDGES
 66
     1
 10
0.0
 20
0.0
 30
0.0
 70
     1
  0
VERTEX
  5
2D3
  8
FLUSH_WEDGES
 10
28.19854666938475
 20
6.296087664370578
 30
0.0
  0
VERTEX
  5
2D4
  8
FLUSH_WEDGES
 10
27.21792745556564
 20
6.296087664370578
 30
0.0
  0
VERTEX
  5
2D5
  8
FLUSH_WEDGES
 10
27.15268473485879
 20
5.296087664370617
 30
0.0
  0
VERTEX
  5
2D6
  8
FLUSH_WEDGES
 10
29.17068060391072
 20
5.296087664370621
 30
0.0
  0
VERTEX
  5
2D7
  8
FLUSH_WEDGES
 10
29.10543788320386
 20
6.296087664370578
 30
0.0
  0
SEQEND
  5
582
  8
FLUSH_WEDGES
  0
POLYLINE
  5
B4
  8
FLUSH_WEDGES
 66
     1
 10
0.0
 20
0.0
 30
0.0
 70
     1
  0
VERTEX
  5
2D8
  8
FLUSH_WEDGES
 10
31.46654253843668
 20
6.296087664370578
 30
0.0
  0
VERTEX
  5
2D9
  8
FLUSH_WEDGES
 10
30.48592332461757
 20
6.296087664370578
 30
0.0
  0
VERTEX
  5
2DA
  8
FLUSH_WEDGES
 10
30.42068060391072
 20
5.296087664370617
 30
0.0
  0
VERTEX
  5
2DB
  8
FLUSH_WEDGES
 10
32.43867647296265
 20
5.296087664370621
 30
0.0
  0
VERTEX
  5
2DC
  8
FLUSH_WEDGES
 10
32.37343375225579
 20
6.296087664370578
 30
0.0
  0
SEQEND
  5
583
  8
FLUSH_WEDGES
  0
POLYLINE
  5
B5
  8
FLUSH_WEDGES
 66
     1
 10
0.0
 20
0.0
 30
0.0
 70
     1
  0
VERTEX
  5
2DD
  8
FLUSH_WEDGES
 10
34.73453840748861
 20
6.296087664370578
 30
0.0
  0
VERTEX
  5
2DE
  8
FLUSH_WEDGES
 10
33.7539191936695
 20
6.296087664370578
 30
0.0
  0
VERTEX
  5
2DF
  8
FLUSH_WEDGES
 10
33.68867647296265
 20
5.296087664370617
 30
0.0
  0
VERTEX
  5
2E0
  8
FLUSH_WEDGES
 10
35.70667234201458
 20
5.296087664370621
 30
0.0
  0
VERTEX
  5
2E1
  8
FLUSH_WEDGES
 10
35.64142962130772
 20
6.296087664370578
 30
0.0
  0
SEQEND
  5
584
  8
FLUSH_WEDGES
  0
POLYLINE
  5
B6
  8
FLUSH_WEDGES
 66
     1
 10
0.0
 20
0.0
 30
0.0
 70
     1
  0
VERTEX
  5
2E2
  8
FLUSH_WEDGES
 10
38.00253427654054
 20
6.296087664370578
 30
0.0
  0
VERTEX
  5
2E3
  8
FLUSH_WEDGES
 10
37.02191506272143
 20
6.296087664370578
 30
0.0
  0
VERTEX
  5
2E4
  8
FLUSH_WEDGES
 10
36.95667234201458
 20
5.296087664370617
 30
0.0
  0
VERTEX
  5
2E5
  8
FLUSH_WEDGES
 10
38.97466821106651
 20
5.296087664370621
 30
0.0
  0
VERTEX
  5
2E6
  8
FLUSH_WEDGES
 10
38.90942549035965
 20
6.296087664370578
 30
0.0
  0
SEQEND
  5
585
  8
FLUSH_WEDGES
  0
POLYLINE
  5
B7
  8
FLUSH_WEDGES
 66
     1
 10
0.0
 20
0.0
 30
0.0
 70
     1
  0
VERTEX
  5
2E7
  8
FLUSH_WEDGES
 10
41.27053014559247
 20
6.296087664370578
 30
0.0
  0
VERTEX
  5
2E8
  8
FLUSH_WEDGES
 10
40.28991093177336
 20
6.296087664370578
 30
0.0
  0
VERTEX
  5
2E9
  8
FLUSH_WEDGES
 10
40.22466821106651
 20
5.296087664370617
 30
0.0
  0
VERTEX
  5
2EA
  8
FLUSH_WEDGES
 10
42.24266408011844
 20
5.296087664370621
 30
0.0
  0
VERTEX
  5
2EB
  8
FLUSH_WEDGES
 10
42.17742135941158
 20
6.296087664370578
 30
0.0
  0
SEQEND
  5
586
  8
FLUSH_WEDGES
  0
POLYLINE
  5
B8
  8
FLUSH_WEDGES
 66
     1
 10
0.0
 20
0.0
 30
0.0
 70
     1
  0
VERTEX
  5
2EC
  8
FLUSH_WEDGES
 10
44.5385260146444
 20
6.296087664370578
 30
0.0
  0
VERTEX
  5
2ED
  8
FLUSH_WEDGES
 10
43.55790680082529
 20
6.296087664370578
 30
0.0
  0
VERTEX
  5
2EE
  8
FLUSH_WEDGES
 10
43.49266408011844
 20
5.296087664370617
 30
0.0
  0
VERTEX
  5
2EF
  8
FLUSH_WEDGES
 10
45.51065994917037
 20
5.296087664370621
 30
0.0
  0
VERTEX
  5
2F0
  8
FLUSH_WEDGES
 10
45.44541722846351
 20
6.296087664370578
 30
0.0
  0
SEQEND
  5
587
  8
FLUSH_WEDGES
  0
POLYLINE
  5
B9
  8
FLUSH_WEDGES
 66
     1
 10
0.0
 20
0.0
 30
0.0
 70
     1
  0
VERTEX
  5
2F1
  8
FLUSH_WEDGES
 10
47.80652188369633
 20
6.296087664370578
 30
0.0
  0
VERTEX
  5
2F2
  8
FLUSH_WEDGES
 10
46.82590266987722
 20
6.296087664370578
 30
0.0
  0
VERTEX
  5
2F3
  8
FLUSH_WEDGES
 10
46.76065994917037
 20
5.296087664370617
 30
0.0
  0
VERTEX
  5
2F4
  8
FLUSH_WEDGES
 10
48.7786558182223
 20
5.296087664370621
 30
0.0
  0
VERTEX
  5
2F5
  8
FLUSH_WEDGES
 10
48.71341309751544
 20
6.296087664370578
 30
0.0
  0
SEQEND
  5
588
  8
FLUSH_WEDGES
  0
POLYLINE
  5
BA
  8
FLUSH_WEDGES
 66
     1
 10
0.0
 20
0.0
 30
0.0
 70
     1
  0
VERTEX
  5
2F6
  8
FLUSH_WEDGES
 10
51.07451775274826
 20
6.296087664370578
 30
0.0
  0
VERTEX
  5
2F7
  8
FLUSH_WEDGES
 10
50.09389853892915
 20
6.296087664370578
 30
0.0
  0
VERTEX
  5
2F8
  8
FLUSH_WEDGES
 10
50.0286558182223
 20
5.296087664370617
 30
0.0
  0
VERTEX
  5
2F9
  8
FLUSH_WEDGES
 10
52.04665168727423
 20
5.296087664370621
 30
0.0
  0
VERTEX
  5
2FA
  8
FLUSH_WEDGES
 10
51.98140896656737
 20
6.296087664370578
 30
0.0
  0
SEQEND
  5
589
  8
FLUSH_WEDGES
  0
POLYLINE
  5
BB
  8
FLUSH_WEDGES
 66
     1
 10
0.0
 20
0.0
 30
0.0
 70
     1
  0
VERTEX
  5
2FB
  8
FLUSH_WEDGES
 10
54.34251362180019
 20
6.296087664370578
 30
0.0
  0
VERTEX
  5
2FC
  8
FLUSH_WEDGES
 10
53.36189440798108
 20
6.296087664370578
 30
0.0
  0
VERTEX
  5
2FD
  8
FLUSH_WEDGES
 10
53.29665168727423
 20
5.296087664370617
 30
0.0
  0
VERTEX
  5
2FE
  8
FLUSH_WEDGES
 10
55.31464755632616
 20
5.296087664370621
 30
0.0
  0
VERTEX
  5
2FF
  8
FLUSH_WEDGES
 10
55.2494048356193
 20
6.296087664370578
 30
0.0
  0
SEQEND
  5
58A
  8
FLUSH_WEDGES
  0
POLYLINE
  5
BC
  8
FLUSH_WEDGES
 66
     1
 10
0.0
 20
0.0
 30
0.0
 70
     1
  0
VERTEX
  5
300
  8
FLUSH_WEDGES
 10
57.61050949085212
 20
6.296087664370578
 30
0.0
  0
VERTEX
  5
301
  8
FLUSH_WEDGES
 10
56.62989027703301
 20
6.296087664370578
 30
0.0
  0
VERTEX
  5
302
  8
FLUSH_WEDGES
 10
56.56464755632616
 20
5.296087664370617
 30
0.0
  0
VERTEX
  5
303
  8
FLUSH_WEDGES
 10
58.58264342537809
 20
5.296087664370621
 30
0.0
  0
VERTEX
  5
304
  8
FLUSH_WEDGES
 10
58.51740070467123
 20
6.296087664370578
 30
0.0
  0
SEQEND
  5
58B
  8
FLUSH_WEDGES
  0
POLYLINE
  5
BD
  8
FLUSH_WEDGES
 66
     1
 10
0.0
 20
0.0
 30
0.0
 70
     1
  0
VERTEX
  5
305
  8
FLUSH_WEDGES
 10
60.87850535990405
 20
6.296087664370578
 30
0.0
  0
VERTEX
  5
306
  8
FLUSH_WEDGES
 10
59.89788614608494
 20
6.296087664370578
 30
0.0
  0
VERTEX
  5
307
  8
FLUSH_WEDGES
 10
59.83264342537809
 20
5.296087664370617
 30
0.0
  0
VERTEX
  5
308
  8
FLUSH_WEDGES
 10
61.85063929443002
 20
5.296087664370621
 30
0.0
  0
VERTEX
  5
309
  8
FLUSH_WEDGES
 10
61.78539657372316
 20
6.296087664370578
 30
0.0
  0
SEQEND
  5
58C
  8
FLUSH_WEDGES
  0
POLYLINE
  5
BE
  8
FLUSH_WEDGES
 66
     1
 10
0.0
 20
0.0
 30
0.0
 70
     1
  0
VERTEX
  5
30A
  8
FLUSH_WEDGES
 10
64.14650122895598
 20
6.296087664370578
 30
0.0
  0
VERTEX
  5
30B
  8
FLUSH_WEDGES
 10
63.16588201513687
 20
6.296087664370578
 30
0.0
  0
VERTEX
  5
30C
  8
FLUSH_WEDGES
 10
63.10063929443002
 20
5.296087664370617
 30
0.0
  0
VERTEX
  5
30D
  8
FLUSH_WEDGES
 10
65.11863516348195
 20
5.296087664370621
 30
0.0
  0
VERTEX
  5
30E
  8
FLUSH_WEDGES
 10
65.05339244277509
 20
6.296087664370578
 30
0.0
  0
SEQEND
  5
58D
  8
FLUSH_WEDGES
  0
POLYLINE
  5
C0
  8
RIB_WEDGES
 66
     1
 10
0.0
 20
0.0
 30
0.0
 70
     1
  0
VERTEX
  5
30F
  8
RIB_WEDGES
 10
70.28708837069505
 20
3.414474639949877
 30
0.0
  0
VERTEX
  5
310
  8
RIB_WEDGES
 10
69.39559317551613
 20
3.414474639949876
 30
0.0
  0
VERTEX
  5
311
  8
RIB_WEDGES
 10
69.25972674099302
 20
1.414474639949935
 30
0.0
  0
VERTEX
  5
312
  8
RIB_WEDGES
 10
71.36360200039707
 20
1.414474639949937
 30
0.0
  0
VERTEX
  5
313
  8
RIB_WEDGES
 10
71.22773556587396
 20
3.41447463994988
 30
0.0
  0
SEQEND
  5
58E
  8
RIB_WEDGES
  0
POLYLINE
  5
C1
  8
RIB_WEDGES
 66
     1
 10
0.0
 20
0.0
 30
0.0
 70
     1
  0
VERTEX
  5
314
  8
RIB_WEDGES
 10
73.6409636300991
 20
3.414474639949877
 30
0.0
  0
VERTEX
  5
315
  8
RIB_WEDGES
 10
72.74946843492017
 20
3.414474639949876
 30
0.0
  0
VERTEX
  5
316
  8
RIB_WEDGES
 10
72.61360200039707
 20
1.414474639949935
 30
0.0
  0
VERTEX
  5
317
  8
RIB_WEDGES
 10
74.71747725980111
 20
1.414474639949937
 30
0.0
  0
VERTEX
  5
318
  8
RIB_WEDGES
 10
74.581610825278
 20
3.41447463994988
 30
0.0
  0
SEQEND
  5
58F
  8
RIB_WEDGES
  0
POLYLINE
  5
C2
  8
RIB_WEDGES
 66
     1
 10
0.0
 20
0.0
 30
0.0
 70
     1
  0
VERTEX
  5
319
  8
RIB_WEDGES
 10
76.99483888950314
 20
3.414474639949877
 30
0.0
  0
VERTEX
  5
31A
  8
RIB_WEDGES
 10
76.10334369432422
 20
3.414474639949876
 30
0.0
  0
VERTEX
  5
31B
  8
RIB_WEDGES
 10
75.96747725980111
 20
1.414474639949935
 30
0.0
  0
VERTEX
  5
31C
  8
RIB_WEDGES
 10
78.07135251920516
 20
1.414474639949937
 30
0.0
  0
VERTEX
  5
31D
  8
RIB_WEDGES
 10
77.93548608468205
 20
3.41447463994988
 30
0.0
  0
SEQEND
  5
590
  8
RIB_WEDGES
  0
POLYLINE
  5
C3
  8
RIB_WEDGES
 66
     1
 10
0.0
 20
0.0
 30
0.0
 70
     1
  0
VERTEX
  5
31E
  8
RIB_WEDGES
 10
80.34871414890719
 20
3.414474639949877
 30
0.0
  0
VERTEX
  5
31F
  8
RIB_WEDGES
 10
79.45721895372827
 20
3.414474639949876
 30
0.0
  0
VERTEX
  5
320
  8
RIB_WEDGES
 10
79.32135251920516
 20
1.414474639949935
 30
0.0
  0
VERTEX
  5
321
  8
RIB_WEDGES
 10
81.42522777860921
 20
1.414474639949937
 30
0.0
  0
VERTEX
  5
322
  8
RIB_WEDGES
 10
81.2893613440861
 20
3.41447463994988
 30
0.0
  0
SEQEND
  5
591
  8
RIB_WEDGES
  0
POLYLINE
  5
C4
  8
RIB_WEDGES
 66
     1
 10
0.0
 20
0.0
 30
0.0
 70
     1
  0
VERTEX
  5
323
  8
RIB_WEDGES
 10
83.70258940831124
 20
3.414474639949877
 30
0.0
  0
VERTEX
  5
324
  8
RIB_WEDGES
 10
82.81109421313232
 20
3.414474639949876
 30
0.0
  0
VERTEX
  5
325
  8
RIB_WEDGES
 10
82.67522777860921
 20
1.414474639949935
 30
0.0
  0
VERTEX
  5
326
  8
RIB_WEDGES
 10
84.77910303801326
 20
1.414474639949937
 30
0.0
  0
VERTEX
  5
327
  8
RIB_WEDGES
 10
84.64323660349015
 20
3.41447463994988
 30
0.0
  0
SEQEND
  5
592
  8
RIB_WEDGES
  0
POLYLINE
  5
C5
  8
RIB_WEDGES
 66
     1
 10
0.0
 20
0.0
 30
0.0
 70
     1
  0
VERTEX
  5
328
  8
RIB_WEDGES
 10
87.05646466771529
 20
3.414474639949877
 30
0.0
  0
VERTEX
  5
329
  8
RIB_WEDGES
 10
86.16496947253637
 20
3.414474639949876
 30
0.0
  0
VERTEX
  5
32A
  8
RIB_WEDGES
 10
86.02910303801326
 20
1.414474639949935
 30
0.0
  0
VERTEX
  5
32B
  8
RIB_WEDGES
 10
88.13297829741731
 20
1.414474639949937
 30
0.0
  0
VERTEX
  5
32C
  8
RIB_WEDGES
 10
87.9971118628942
 20
3.41447463994988
 30
0.0
  0
SEQEND
  5
593
  8
RIB_WEDGES
  0
POLYLINE
  5
C6
  8
RIB_WEDGES
 66
     1
 10
0.0
 20
0.0
 30
0.0
 70
     1
  0
VERTEX
  5
32D
  8
RIB_WEDGES
 10
90.41033992711934
 20
3.414474639949877
 30
0.0
  0
VERTEX
  5
32E
  8
RIB_WEDGES
 10
89.51884473194042
 20
3.414474639949876
 30
0.0
  0
VERTEX
  5
32F
  8
RIB_WEDGES
 10
89.38297829741731
 20
1.414474639949935
 30
0.0
  0
VERTEX
  5
330
  8
RIB_WEDGES
 10
91.48685355682136
 20
1.414474639949937
 30
0.0
  0
VERTEX
  5
331
  8
RIB_WEDGES
 10
91.35098712229825
 20
3.41447463994988
 30
0.0
  0
SEQEND
  5
594
  8
RIB_WEDGES
  0
POLYLINE
  5
C7
  8
RIB_WEDGES
 66
     1
 10
0.0
 20
0.0
 30
0.0
 70
     1
  0
VERTEX
  5
332
  8
RIB_WEDGES
 10
93.76421518652339
 20
3.414474639949877
 30
0.0
  0
VERTEX
  5
333
  8
RIB_WEDGES
 10
92.87271999134447
 20
3.414474639949876
 30
0.0
  0
VERTEX
  5
334
  8
RIB_WEDGES
 10
92.73685355682136
 20
1.414474639949935
 30
0.0
  0
VERTEX
  5
335
  8
RIB_WEDGES
 10
94.84072881622541
 20
1.414474639949937
 30
0.0
  0
VERTEX
  5
336
  8
RIB_WEDGES
 10
94.7048623817023
 20
3.41447463994988
 30
0.0
  0
SEQEND
  5
595
  8
RIB_WEDGES
  0
POLYLINE
  5
C8
  8
RIB_WEDGES
 66
     1
 10
0.0
 20
0.0
 30
0.0
 70
     1
  0
VERTEX
  5
337
  8
RIB_WEDGES
 10
70.28708837069505
 20
6.674474639949823
 30
0.0
  0
VERTEX
  5
338
  8
RIB_WEDGES
 10
69.39559317551613
 20
6.674474639949821
 30
0.0
  0
VERTEX
  5
339
  8
RIB_WEDGES
 10
69.25972674099302
 20
4.67447463994988
 30
0.0
  0
VERTEX
  5
33A
  8
RIB_WEDGES
 10
71.36360200039707
 20
4.674474639949883
 30
0.0
  0
VERTEX
  5
33B
  8
RIB_WEDGES
 10
71.22773556587396
 20
6.674474639949826
 30
0.0
  0
SEQEND
  5
596
  8
RIB_WEDGES
  0
POLYLINE
  5
C9
  8
RIB_WEDGES
 66
     1
 10
0.0
 20
0.0
 30
0.0
 70
     1
  0
VERTEX
  5
33C
  8
RIB_WEDGES
 10
73.6409636300991
 20
6.674474639949823
 30
0.0
  0
VERTEX
  5
33D
  8
RIB_WEDGES
 10
72.74946843492017
 20
6.674474639949821
 30
0.0
  0
VERTEX
  5
33E
  8
RIB_WEDGES
 10
72.61360200039707
 20
4.67447463994988
 30
0.0
  0
VERTEX
  5
33F
  8
RIB_WEDGES
 10
74.71747725980111
 20
4.674474639949883
 30
0.0
  0
VERTEX
  5
340
  8
RIB_WEDGES
 10
74.581610825278
 20
6.674474639949826
 30
0.0
  0
SEQEND
  5
597
  8
RIB_WEDGES
  0
POLYLINE
  5
CA
  8
RIB_WEDGES
 66
     1
 10
0.0
 20
0.0
 30
0.0
 70
     1
  0
VERTEX
  5
341
  8
RIB_WEDGES
 10
76.99483888950314
 20
6.674474639949823
 30
0.0
  0
VERTEX
  5
342
  8
RIB_WEDGES
 10
76.10334369432422
 20
6.674474639949821
 30
0.0
  0
VERTEX
  5
343
  8
RIB_WEDGES
 10
75.96747725980111
 20
4.67447463994988
 30
0.0
  0
VERTEX
  5
344
  8
RIB_WEDGES
 10
78.07135251920516
 20
4.674474639949883
 30
0.0
  0
VERTEX
  5
345
  8
RIB_WEDGES
 10
77.93548608468205
 20
6.674474639949826
 30
0.0
  0
SEQEND
  5
598
  8
RIB_WEDGES
  0
POLYLINE
  5
CB
  8
RIB_WEDGES
 66
     1
 10
0.0
 20
0.0
 30
0.0
 70
     1
  0
VERTEX
  5
346
  8
RIB_WEDGES
 10
80.34871414890719
 20
6.674474639949823
 30
0.0
  0
VERTEX
  5
347
  8
RIB_WEDGES
 10
79.45721895372827
 20
6.674474639949821
 30
0.0
  0
VERTEX
  5
348
  8
RIB_WEDGES
 10
79.32135251920516
 20
4.67447463994988
 30
0.0
  0
VERTEX
  5
349
  8
RIB_WEDGES
 10
81.42522777860921
 20
4.674474639949883
 30
0.0
  0
VERTEX
  5
34A
  8
RIB_WEDGES
 10
81.2893613440861
 20
6.674474639949826
 30
0.0
  0
SEQEND
  5
599
  8
RIB_WEDGES
  0
POLYLINE
  5
CC
  8
RIB_WEDGES
 66
     1
 10
0.0
 20
0.0
 30
0.0
 70
     1
  0
VERTEX
  5
34B
  8
RIB_WEDGES
 10
83.70258940831124
 20
6.674474639949823
 30
0.0
  0
VERTEX
  5
34C
  8
RIB_WEDGES
 10
82.81109421313232
 20
6.674474639949821
 30
0.0
  0
VERTEX
  5
34D
  8
RIB_WEDGES
 10
82.67522777860921
 20
4.67447463994988
 30
0.0
  0
VERTEX
  5
34E
  8
RIB_WEDGES
 10
84.77910303801326
 20
4.674474639949883
 30
0.0
  0
VERTEX
  5
34F
  8
RIB_WEDGES
 10
84.64323660349015
 20
6.674474639949826
 30
0.0
  0
SEQEND
  5
59A
  8
RIB_WEDGES
  0
POLYLINE
  5
CD
  8
RIB_WEDGES
 66
     1
 10
0.0
 20
0.0
 30
0.0
 70
     1
  0
VERTEX
  5
350
  8
RIB_WEDGES
 10
87.05646466771529
 20
6.674474639949823
 30
0.0
  0
VERTEX
  5
351
  8
RIB_WEDGES
 10
86.16496947253637
 20
6.674474639949821
 30
0.0
  0
VERTEX
  5
352
  8
RIB_WEDGES
 10
86.02910303801326
 20
4.67447463994988
 30
0.0
  0
VERTEX
  5
353
  8
RIB_WEDGES
 10
88.13297829741731
 20
4.674474639949883
 30
0.0
  0
VERTEX
  5
354
  8
RIB_WEDGES
 10
87.9971118628942
 20
6.674474639949826
 30
0.0
  0
SEQEND
  5
59B
  8
RIB_WEDGES
  0
POLYLINE
  5
CE
  8
RIB_WEDGES
 66
     1
 10
0.0
 20
0.0
 30
0.0
 70
     1
  0
VERTEX
  5
355
  8
RIB_WEDGES
 10
90.41033992711934
 20
6.674474639949823
 30
0.0
  0
VERTEX
  5
356
  8
RIB_WEDGES
 10
89.51884473194042
 20
6.674474639949821
 30
0.0
  0
VERTEX
  5
357
  8
RIB_WEDGES
 10
89.38297829741731
 20
4.67447463994988
 30
0.0
  0
VERTEX
  5
358
  8
RIB_WEDGES
 10
91.48685355682136
 20
4.674474639949883
 30
0.0
  0
VERTEX
  5
359
  8
RIB_WEDGES
 10
91.35098712229825
 20
6.674474639949826
 30
0.0
  0
SEQEND
  5
59C
  8
RIB_WEDGES
  0
POLYLINE
  5
CF
  8
RIB_WEDGES
 66
     1
 10
0.0
 20
0.0
 30
0.0
 70
     1
  0
VERTEX
  5
35A
  8
RIB_WEDGES
 10
93.76421518652339
 20
6.674474639949823
 30
0.0
  0
VERTEX
  5
35B
  8
RIB_WEDGES
 10
92.87271999134447
 20
6.674474639949821
 30
0.0
  0
VERTEX
  5
35C
  8
RIB_WEDGES
 10
92.73685355682136
 20
4.67447463994988
 30
0.0
  0
VERTEX
  5
35D
  8
RIB_WEDGES
 10
94.84072881622541
 20
4.674474639949883
 30
0.0
  0
VERTEX
  5
35E
  8
RIB_WEDGES
 10
94.7048623817023
 20
6.674474639949826
 30
0.0
  0
SEQEND
  5
59D
  8
RIB_WEDGES
  0
POLYLINE
  5
D0
  8
RIB_WEDGES
 66
     1
 10
0.0
 20
0.0
 30
0.0
 70
     1
  0
VERTEX
  5
35F
  8
RIB_WEDGES
 10
70.28708837069505
 20
9.93447463994977
 30
0.0
  0
VERTEX
  5
360
  8
RIB_WEDGES
 10
69.39559317551613
 20
9.934474639949766
 30
0.0
  0
VERTEX
  5
361
  8
RIB_WEDGES
 10
69.25972674099302
 20
7.934474639949826
 30
0.0
  0
VERTEX
  5
362
  8
RIB_WEDGES
 10
71.36360200039707
 20
7.934474639949828
 30
0.0
  0
VERTEX
  5
363
  8
RIB_WEDGES
 10
71.22773556587396
 20
9.934474639949771
 30
0.0
  0
SEQEND
  5
59E
  8
RIB_WEDGES
  0
POLYLINE
  5
D1
  8
RIB_WEDGES
 66
     1
 10
0.0
 20
0.0
 30
0.0
 70
     1
  0
VERTEX
  5
364
  8
RIB_WEDGES
 10
73.6409636300991
 20
9.93447463994977
 30
0.0
  0
VERTEX
  5
365
  8
RIB_WEDGES
 10
72.74946843492017
 20
9.934474639949766
 30
0.0
  0
VERTEX
  5
366
  8
RIB_WEDGES
 10
72.61360200039707
 20
7.934474639949826
 30
0.0
  0
VERTEX
  5
367
  8
RIB_WEDGES
 10
74.71747725980111
 20
7.934474639949828
 30
0.0
  0
VERTEX
  5
368
  8
RIB_WEDGES
 10
74.581610825278
 20
9.934474639949771
 30
0.0
  0
SEQEND
  5
59F
  8
RIB_WEDGES
  0
POLYLINE
  5
D2
  8
RIB_WEDGES
 66
     1
 10
0.0
 20
0.0
 30
0.0
 70
     1
  0
VERTEX
  5
369
  8
RIB_WEDGES
 10
76.99483888950314
 20
9.93447463994977
 30
0.0
  0
VERTEX
  5
36A
  8
RIB_WEDGES
 10
76.10334369432422
 20
9.934474639949766
 30
0.0
  0
VERTEX
  5
36B
  8
RIB_WEDGES
 10
75.96747725980111
 20
7.934474639949826
 30
0.0
  0
VERTEX
  5
36C
  8
RIB_WEDGES
 10
78.07135251920516
 20
7.934474639949828
 30
0.0
  0
VERTEX
  5
36D
  8
RIB_WEDGES
 10
77.93548608468205
 20
9.934474639949771
 30
0.0
  0
SEQEND
  5
5A0
  8
RIB_WEDGES
  0
POLYLINE
  5
D3
  8
RIB_WEDGES
 66
     1
 10
0.0
 20
0.0
 30
0.0
 70
     1
  0
VERTEX
  5
36E
  8
RIB_WEDGES
 10
80.34871414890719
 20
9.93447463994977
 30
0.0
  0
VERTEX
  5
36F
  8
RIB_WEDGES
 10
79.45721895372827
 20
9.934474639949766
 30
0.0
  0
VERTEX
  5
370
  8
RIB_WEDGES
 10
79.32135251920516
 20
7.934474639949826
 30
0.0
  0
VERTEX
  5
371
  8
RIB_WEDGES
 10
81.42522777860921
 20
7.934474639949828
 30
0.0
  0
VERTEX
  5
372
  8
RIB_WEDGES
 10
81.2893613440861
 20
9.934474639949771
 30
0.0
  0
SEQEND
  5
5A1
  8
RIB_WEDGES
  0
POLYLINE
  5
D4
  8
RIB_WEDGES
 66
     1
 10
0.0
 20
0.0
 30
0.0
 70
     1
  0
VERTEX
  5
373
  8
RIB_WEDGES
 10
83.70258940831124
 20
9.93447463994977
 30
0.0
  0
VERTEX
  5
374
  8
RIB_WEDGES
 10
82.81109421313232
 20
9.934474639949766
 30
0.0
  0
VERTEX
  5
375
  8
RIB_WEDGES
 10
82.67522777860921
 20
7.934474639949826
 30
0.0
  0
VERTEX
  5
376
  8
RIB_WEDGES
 10
84.77910303801326
 20
7.934474639949828
 30
0.0
  0
VERTEX
  5
377
  8
RIB_WEDGES
 10
84.64323660349015
 20
9.934474639949771
 30
0.0
  0
SEQEND
  5
5A2
  8
RIB_WEDGES
  0
POLYLINE
  5
D5
  8
RIB_WEDGES
 66
     1
 10
0.0
 20
0.0
 30
0.0
 70
     1
  0
VERTEX
  5
378
  8
RIB_WEDGES
 10
87.05646466771529
 20
9.93447463994977
 30
0.0
  0
VERTEX
  5
379
  8
RIB_WEDGES
 10
86.16496947253637
 20
9.934474639949766
 30
0.0
  0
VERTEX
  5
37A
  8
RIB_WEDGES
 10
86.02910303801326
 20
7.934474639949826
 30
0.0
  0
VERTEX
  5
37B
  8
RIB_WEDGES
 10
88.13297829741731
 20
7.934474639949828
 30
0.0
  0
VERTEX
  5
37C
  8
RIB_WEDGES
 10
87.9971118628942
 20
9.934474639949771
 30
0.0
  0
SEQEND
  5
5A3
  8
RIB_WEDGES
  0
POLYLINE
  5
D6
  8
RIB_WEDGES
 66
     1
 10
0.0
 20
0.0
 30
0.0
 70
     1
  0
VERTEX
  5
37D
  8
RIB_WEDGES
 10
90.41033992711934
 20
9.93447463994977
 30
0.0
  0
VERTEX
  5
37E
  8
RIB_WEDGES
 10
89.51884473194042
 20
9.934474639949766
 30
0.0
  0
VERTEX
  5
37F
  8
RIB_WEDGES
 10
89.38297829741731
 20
7.934474639949826
 30
0.0
  0
VERTEX
  5
380
  8
RIB_WEDGES
 10
91.48685355682136
 20
7.934474639949828
 30
0.0
  0
VERTEX
  5
381
  8
RIB_WEDGES
 10
91.35098712229825
 20
9.934474639949771
 30
0.0
  0
SEQEND
  5
5A4
  8
RIB_WEDGES
  0
POLYLINE
  5
D7
  8
RIB_WEDGES
 66
     1
 10
0.0
 20
0.0
 30
0.0
 70
     1
  0
VERTEX
  5
382
  8
RIB_WEDGES
 10
93.76421518652339
 20
9.93447463994977
 30
0.0
  0
VERTEX
  5
383
  8
RIB_WEDGES
 10
92.87271999134447
 20
9.934474639949766
 30
0.0
  0
VERTEX
  5
384
  8
RIB_WEDGES
 10
92.73685355682136
 20
7.934474639949826
 30
0.0
  0
VERTEX
  5
385
  8
RIB_WEDGES
 10
94.84072881622541
 20
7.934474639949828
 30
0.0
  0
VERTEX
  5
386
  8
RIB_WEDGES
 10
94.7048623817023
 20
9.934474639949771
 30
0.0
  0
SEQEND
  5
5A5
  8
RIB_WEDGES
  0
POLYLINE
  5
D8
  8
RIB_WEDGES
 66
     1
 10
0.0
 20
0.0
 30
0.0
 70
     1
  0
VERTEX
  5
387
  8
RIB_WEDGES
 10
70.28708837069505
 20
13.19447463994971
 30
0.0
  0
VERTEX
  5
388
  8
RIB_WEDGES
 10
69.39559317551613
 20
13.19447463994971
 30
0.0
  0
VERTEX
  5
389
  8
RIB_WEDGES
 10
69.25972674099302
 20
11.19447463994977
 30
0.0
  0
VERTEX
  5
38A
  8
RIB_WEDGES
 10
71.36360200039707
 20
11.19447463994977
 30
0.0
  0
VERTEX
  5
38B
  8
RIB_WEDGES
 10
71.22773556587396
 20
13.19447463994972
 30
0.0
  0
SEQEND
  5
5A6
  8
RIB_WEDGES
  0
POLYLINE
  5
D9
  8
RIB_WEDGES
 66
     1
 10
0.0
 20
0.0
 30
0.0
 70
     1
  0
VERTEX
  5
38C
  8
RIB_WEDGES
 10
73.6409636300991
 20
13.19447463994971
 30
0.0
  0
VERTEX
  5
38D
  8
RIB_WEDGES
 10
72.74946843492017
 20
13.19447463994971
 30
0.0
  0
VERTEX
  5
38E
  8
RIB_WEDGES
 10
72.61360200039707
 20
11.19447463994977
 30
0.0
  0
VERTEX
  5
38F
  8
RIB_WEDGES
 10
74.71747725980111
 20
11.19447463994977
 30
0.0
  0
VERTEX
  5
390
  8
RIB_WEDGES
 10
74.581610825278
 20
13.19447463994972
 30
0.0
  0
SEQEND
  5
5A7
  8
RIB_WEDGES
  0
POLYLINE
  5
DA
  8
RIB_WEDGES
 66
     1
 10
0.0
 20
0.0
 30
0.0
 70
     1
  0
VERTEX
  5
391
  8
RIB_WEDGES
 10
76.99483888950314
 20
13.19447463994971
 30
0.0
  0
VERTEX
  5
392
  8
RIB_WEDGES
 10
76.10334369432422
 20
13.19447463994971
 30
0.0
  0
VERTEX
  5
393
  8
RIB_WEDGES
 10
75.96747725980111
 20
11.19447463994977
 30
0.0
  0
VERTEX
  5
394
  8
RIB_WEDGES
 10
78.07135251920516
 20
11.19447463994977
 30
0.0
  0
VERTEX
  5
395
  8
RIB_WEDGES
 10
77.93548608468205
 20
13.19447463994972
 30
0.0
  0
SEQEND
  5
5A8
  8
RIB_WEDGES
  0
POLYLINE
  5
DB
  8
RIB_WEDGES
 66
     1
 10
0.0
 20
0.0
 30
0.0
 70
     1
  0
VERTEX
  5
396
  8
RIB_WEDGES
 10
80.34871414890719
 20
13.19447463994971
 30
0.0
  0
VERTEX
  5
397
  8
RIB_WEDGES
 10
79.45721895372827
 20
13.19447463994971
 30
0.0
  0
VERTEX
  5
398
  8
RIB_WEDGES
 10
79.32135251920516
 20
11.19447463994977
 30
0.0
  0
VERTEX
  5
399
  8
RIB_WEDGES
 10
81.42522777860921
 20
11.19447463994977
 30
0.0
  0
VERTEX
  5
39A
  8
RIB_WEDGES
 10
81.2893613440861
 20
13.19447463994972
 30
0.0
  0
SEQEND
  5
5A9
  8
RIB_WEDGES
  0
POLYLINE
  5
DC
  8
RIB_WEDGES
 66
     1
 10
0.0
 20
0.0
 30
0.0
 70
     1
  0
VERTEX
  5
39B
  8
RIB_WEDGES
 10
83.70258940831124
 20
13.19447463994971
 30
0.0
  0
VERTEX
  5
39C
  8
RIB_WEDGES
 10
82.81109421313232
 20
13.19447463994971
 30
0.0
  0
VERTEX
  5
39D
  8
RIB_WEDGES
 10
82.67522777860921
 20
11.19447463994977
 30
0.0
  0
VERTEX
  5
39E
  8
RIB_WEDGES
 10
84.77910303801326
 20
11.19447463994977
 30
0.0
  0
VERTEX
  5
39F
  8
RIB_WEDGES
 10
84.64323660349015
 20
13.19447463994972
 30
0.0
  0
SEQEND
  5
5AA
  8
RIB_WEDGES
  0
POLYLINE
  5
DD
  8
RIB_WEDGES
 66
     1
 10
0.0
 20
0.0
 30
0.0
 70
     1
  0
VERTEX
  5
3A0
  8
RIB_WEDGES
 10
87.05646466771529
 20
13.19447463994971
 30
0.0
  0
VERTEX
  5
3A1
  8
RIB_WEDGES
 10
86.16496947253637
 20
13.19447463994971
 30
0.0
  0
VERTEX
  5
3A2
  8
RIB_WEDGES
 10
86.02910303801326
 20
11.19447463994977
 30
0.0
  0
VERTEX
  5
3A3
  8
RIB_WEDGES
 10
88.13297829741731
 20
11.19447463994977
 30
0.0
  0
VERTEX
  5
3A4
  8
RIB_WEDGES
 10
87.9971118628942
 20
13.19447463994972
 30
0.0
  0
SEQEND
  5
5AB
  8
RIB_WEDGES
  0
POLYLINE
  5
DE
  8
RIB_WEDGES
 66
     1
 10
0.0
 20
0.0
 30
0.0
 70
     1
  0
VERTEX
  5
3A5
  8
RIB_WEDGES
 10
90.41033992711934
 20
13.19447463994971
 30
0.0
  0
VERTEX
  5
3A6
  8
RIB_WEDGES
 10
89.51884473194042
 20
13.19447463994971
 30
0.0
  0
VERTEX
  5
3A7
  8
RIB_WEDGES
 10
89.38297829741731
 20
11.19447463994977
 30
0.0
  0
VERTEX
  5
3A8
  8
RIB_WEDGES
 10
91.48685355682136
 20
11.19447463994977
 30
0.0
  0
VERTEX
  5
3A9
  8
RIB_WEDGES
 10
91.35098712229825
 20
13.19447463994972
 30
0.0
  0
SEQEND
  5
5AC
  8
RIB_WEDGES
  0
POLYLINE
  5
DF
  8
RIB_WEDGES
 66
     1
 10
0.0
 20
0.0
 30
0.0
 70
     1
  0
VERTEX
  5
3AA
  8
RIB_WEDGES
 10
93.76421518652339
 20
13.19447463994971
 30
0.0
  0
VERTEX
  5
3AB
  8
RIB_WEDGES
 10
92.87271999134447
 20
13.19447463994971
 30
0.0
  0
VERTEX
  5
3AC
  8
RIB_WEDGES
 10
92.73685355682136
 20
11.19447463994977
 30
0.0
  0
VERTEX
  5
3AD
  8
RIB_WEDGES
 10
94.84072881622541
 20
11.19447463994977
 30
0.0
  0
VERTEX
  5
3AE
  8
RIB_WEDGES
 10
94.7048623817023
 20
13.19447463994972
 30
0.0
  0
SEQEND
  5
5AD
  8
RIB_WEDGES
  0
POLYLINE
  5
E0
  8
RIB_WEDGES
 66
     1
 10
0.0
 20
0.0
 30
0.0
 70
     1
  0
VERTEX
  5
3AF
  8
RIB_WEDGES
 10
70.28708837069505
 20
16.45447463994966
 30
0.0
  0
VERTEX
  5
3B0
  8
RIB_WEDGES
 10
69.39559317551613
 20
16.45447463994966
 30
0.0
  0
VERTEX
  5
3B1
  8
RIB_WEDGES
 10
69.25972674099302
 20
14.45447463994972
 30
0.0
  0
VERTEX
  5
3B2
  8
RIB_WEDGES
 10
71.36360200039707
 20
14.45447463994972
 30
0.0
  0
VERTEX
  5
3B3
  8
RIB_WEDGES
 10
71.22773556587396
 20
16.45447463994966
 30
0.0
  0
SEQEND
  5
5AE
  8
RIB_WEDGES
  0
POLYLINE
  5
E1
  8
RIB_WEDGES
 66
     1
 10
0.0
 20
0.0
 30
0.0
 70
     1
  0
VERTEX
  5
3B4
  8
RIB_WEDGES
 10
73.6409636300991
 20
16.45447463994966
 30
0.0
  0
VERTEX
  5
3B5
  8
RIB_WEDGES
 10
72.74946843492017
 20
16.45447463994966
 30
0.0
  0
VERTEX
  5
3B6
  8
RIB_WEDGES
 10
72.61360200039707
 20
14.45447463994972
 30
0.0
  0
VERTEX
  5
3B7
  8
RIB_WEDGES
 10
74.71747725980111
 20
14.45447463994972
 30
0.0
  0
VERTEX
  5
3B8
  8
RIB_WEDGES
 10
74.581610825278
 20
16.45447463994966
 30
0.0
  0
SEQEND
  5
5AF
  8
RIB_WEDGES
  0
POLYLINE
  5
E2
  8
RIB_WEDGES
 66
     1
 10
0.0
 20
0.0
 30
0.0
 70
     1
  0
VERTEX
  5
3B9
  8
RIB_WEDGES
 10
76.99483888950314
 20
16.45447463994966
 30
0.0
  0
VERTEX
  5
3BA
  8
RIB_WEDGES
 10
76.10334369432422
 20
16.45447463994966
 30
0.0
  0
VERTEX
  5
3BB
  8
RIB_WEDGES
 10
75.96747725980111
 20
14.45447463994972
 30
0.0
  0
VERTEX
  5
3BC
  8
RIB_WEDGES
 10
78.07135251920516
 20
14.45447463994972
 30
0.0
  0
VERTEX
  5
3BD
  8
RIB_WEDGES
 10
77.93548608468205
 20
16.45447463994966
 30
0.0
  0
SEQEND
  5
5B0
  8
RIB_WEDGES
  0
POLYLINE
  5
E3
  8
RIB_WEDGES
 66
     1
 10
0.0
 20
0.0
 30
0.0
 70
     1
  0
VERTEX
  5
3BE
  8
RIB_WEDGES
 10
80.34871414890719
 20
16.45447463994966
 30
0.0
  0
VERTEX
  5
3BF
  8
RIB_WEDGES
 10
79.45721895372827
 20
16.45447463994966
 30
0.0
  0
VERTEX
  5
3C0
  8
RIB_WEDGES
 10
79.32135251920516
 20
14.45447463994972
 30
0.0
  0
VERTEX
  5
3C1
  8
RIB_WEDGES
 10
81.42522777860921
 20
14.45447463994972
 30
0.0
  0
VERTEX
  5
3C2
  8
RIB_WEDGES
 10
81.2893613440861
 20
16.45447463994966
 30
0.0
  0
SEQEND
  5
5B1
  8
RIB_WEDGES
  0
POLYLINE
  5
E4
  8
RIB_WEDGES
 66
     1
 10
0.0
 20
0.0
 30
0.0
 70
     1
  0
VERTEX
  5
3C3
  8
RIB_WEDGES
 10
83.70258940831124
 20
16.45447463994966
 30
0.0
  0
VERTEX
  5
3C4
  8
RIB_WEDGES
 10
82.81109421313232
 20
16.45447463994966
 30
0.0
  0
VERTEX
  5
3C5
  8
RIB_WEDGES
 10
82.67522777860921
 20
14.45447463994972
 30
0.0
  0
VERTEX
  5
3C6
  8
RIB_WEDGES
 10
84.77910303801326
 20
14.45447463994972
 30
0.0
  0
VERTEX
  5
3C7
  8
RIB_WEDGES
 10
84.64323660349015
 20
16.45447463994966
 30
0.0
  0
SEQEND
  5
5B2
  8
RIB_WEDGES
  0
POLYLINE
  5
E5
  8
RIB_WEDGES
 66
     1
 10
0.0
 20
0.0
 30
0.0
 70
     1
  0
VERTEX
  5
3C8
  8
RIB_WEDGES
 10
87.05646466771529
 20
16.45447463994966
 30
0.0
  0
VERTEX
  5
3C9
  8
RIB_WEDGES
 10
86.16496947253637
 20
16.45447463994966
 30
0.0
  0
VERTEX
  5
3CA
  8
RIB_WEDGES
 10
86.02910303801326
 20
14.45447463994972
 30
0.0
  0
VERTEX
  5
3CB
  8
RIB_WEDGES
 10
88.13297829741731
 20
14.45447463994972
 30
0.0
  0
VERTEX
  5
3CC
  8
RIB_WEDGES
 10
87.9971118628942
 20
16.45447463994966
 30
0.0
  0
SEQEND
  5
5B3
  8
RIB_WEDGES
  0
POLYLINE
  5
E6
  8
RIB_WEDGES
 66
     1
 10
0.0
 20
0.0
 30
0.0
 70
     1
  0
VERTEX
  5
3CD
  8
RIB_WEDGES
 10
90.41033992711934
 20
16.45447463994966
 30
0.0
  0
VERTEX
  5
3CE
  8
RIB_WEDGES
 10
89.51884473194042
 20
16.45447463994966
 30
0.0
  0
VERTEX
  5
3CF
  8
RIB_WEDGES
 10
89.38297829741731
 20
14.45447463994972
 30
0.0
  0
VERTEX
  5
3D0
  8
RIB_WEDGES
 10
91.48685355682136
 20
14.45447463994972
 30
0.0
  0
VERTEX
  5
3D1
  8
RIB_WEDGES
 10
91.35098712229825
 20
16.45447463994966
 30
0.0
  0
SEQEND
  5
5B4
  8
RIB_WEDGES
  0
POLYLINE
  5
E7
  8
RIB_WEDGES
 66
     1
 10
0.0
 20
0.0
 30
0.0
 70
     1
  0
VERTEX
  5
3D2
  8
RIB_WEDGES
 10
93.76421518652339
 20
16.45447463994966
 30
0.0
  0
VERTEX
  5
3D3
  8
RIB_WEDGES
 10
92.87271999134447
 20
16.45447463994966
 30
0.0
  0
VERTEX
  5
3D4
  8
RIB_WEDGES
 10
92.73685355682136
 20
14.45447463994972
 30
0.0
  0
VERTEX
  5
3D5
  8
RIB_WEDGES
 10
94.84072881622541
 20
14.45447463994972
 30
0.0
  0
VERTEX
  5
3D6
  8
RIB_WEDGES
 10
94.7048623817023
 20
16.45447463994966
 30
0.0
  0
SEQEND
  5
5B5
  8
RIB_WEDGES
  0
POLYLINE
  5
E8
  8
RIB_WEDGES
 66
     1
 10
0.0
 20
0.0
 30
0.0
 70
     1
  0
VERTEX
  5
3D7
  8
RIB_WEDGES
 10
70.28708837069505
 20
19.7144746399496
 30
0.0
  0
VERTEX
  5
3D8
  8
RIB_WEDGES
 10
69.39559317551613
 20
19.7144746399496
 30
0.0
  0
VERTEX
  5
3D9
  8
RIB_WEDGES
 10
69.25972674099302
 20
17.71447463994966
 30
0.0
  0
VERTEX
  5
3DA
  8
RIB_WEDGES
 10
71.36360200039707
 20
17.71447463994966
 30
0.0
  0
VERTEX
  5
3DB
  8
RIB_WEDGES
 10
71.22773556587396
 20
19.71447463994961
 30
0.0
  0
SEQEND
  5
5B6
  8
RIB_WEDGES
  0
POLYLINE
  5
E9
  8
RIB_WEDGES
 66
     1
 10
0.0
 20
0.0
 30
0.0
 70
     1
  0
VERTEX
  5
3DC
  8
RIB_WEDGES
 10
73.6409636300991
 20
19.7144746399496
 30
0.0
  0
VERTEX
  5
3DD
  8
RIB_WEDGES
 10
72.74946843492017
 20
19.7144746399496
 30
0.0
  0
VERTEX
  5
3DE
  8
RIB_WEDGES
 10
72.61360200039707
 20
17.71447463994966
 30
0.0
  0
VERTEX
  5
3DF
  8
RIB_WEDGES
 10
74.71747725980111
 20
17.71447463994966
 30
0.0
  0
VERTEX
  5
3E0
  8
RIB_WEDGES
 10
74.581610825278
 20
19.71447463994961
 30
0.0
  0
SEQEND
  5
5B7
  8
RIB_WEDGES
  0
POLYLINE
  5
EA
  8
RIB_WEDGES
 66
     1
 10
0.0
 20
0.0
 30
0.0
 70
     1
  0
VERTEX
  5
3E1
  8
RIB_WEDGES
 10
76.99483888950314
 20
19.7144746399496
 30
0.0
  0
VERTEX
  5
3E2
  8
RIB_WEDGES
 10
76.10334369432422
 20
19.7144746399496
 30
0.0
  0
VERTEX
  5
3E3
  8
RIB_WEDGES
 10
75.96747725980111
 20
17.71447463994966
 30
0.0
  0
VERTEX
  5
3E4
  8
RIB_WEDGES
 10
78.07135251920516
 20
17.71447463994966
 30
0.0
  0
VERTEX
  5
3E5
  8
RIB_WEDGES
 10
77.93548608468205
 20
19.71447463994961
 30
0.0
  0
SEQEND
  5
5B8
  8
RIB_WEDGES
  0
POLYLINE
  5
EB
  8
RIB_WEDGES
 66
     1
 10
0.0
 20
0.0
 30
0.0
 70
     1
  0
VERTEX
  5
3E6
  8
RIB_WEDGES
 10
80.34871414890719
 20
19.7144746399496
 30
0.0
  0
VERTEX
  5
3E7
  8
RIB_WEDGES
 10
79.45721895372827
 20
19.7144746399496
 30
0.0
  0
VERTEX
  5
3E8
  8
RIB_WEDGES
 10
79.32135251920516
 20
17.71447463994966
 30
0.0
  0
VERTEX
  5
3E9
  8
RIB_WEDGES
 10
81.42522777860921
 20
17.71447463994966
 30
0.0
  0
VERTEX
  5
3EA
  8
RIB_WEDGES
 10
81.2893613440861
 20
19.71447463994961
 30
0.0
  0
SEQEND
  5
5B9
  8
RIB_WEDGES
  0
POLYLINE
  5
EC
  8
RIB_WEDGES
 66
     1
 10
0.0
 20
0.0
 30
0.0
 70
     1
  0
VERTEX
  5
3EB
  8
RIB_WEDGES
 10
83.70258940831124
 20
19.7144746399496
 30
0.0
  0
VERTEX
  5
3EC
  8
RIB_WEDGES
 10
82.81109421313232
 20
19.7144746399496
 30
0.0
  0
VERTEX
  5
3ED
  8
RIB_WEDGES
 10
82.67522777860921
 20
17.71447463994966
 30
0.0
  0
VERTEX
  5
3EE
  8
RIB_WEDGES
 10
84.77910303801326
 20
17.71447463994966
 30
0.0
  0
VERTEX
  5
3EF
  8
RIB_WEDGES
 10
84.64323660349015
 20
19.71447463994961
 30
0.0
  0
SEQEND
  5
5BA
  8
RIB_WEDGES
  0
POLYLINE
  5
ED
  8
RIB_WEDGES
 66
     1
 10
0.0
 20
0.0
 30
0.0
 70
     1
  0
VERTEX
  5
3F0
  8
RIB_WEDGES
 10
87.05646466771529
 20
19.7144746399496
 30
0.0
  0
VERTEX
  5
3F1
  8
RIB_WEDGES
 10
86.16496947253637
 20
19.7144746399496
 30
0.0
  0
VERTEX
  5
3F2
  8
RIB_WEDGES
 10
86.02910303801326
 20
17.71447463994966
 30
0.0
  0
VERTEX
  5
3F3
  8
RIB_WEDGES
 10
88.13297829741731
 20
17.71447463994966
 30
0.0
  0
VERTEX
  5
3F4
  8
RIB_WEDGES
 10
87.9971118628942
 20
19.71447463994961
 30
0.0
  0
SEQEND
  5
5BB
  8
RIB_WEDGES
  0
POLYLINE
  5
EE
  8
RIB_WEDGES
 66
     1
 10
0.0
 20
0.0
 30
0.0
 70
     1
  0
VERTEX
  5
3F5
  8
RIB_WEDGES
 10
90.41033992711934
 20
19.7144746399496
 30
0.0
  0
VERTEX
  5
3F6
  8
RIB_WEDGES
 10
89.51884473194042
 20
19.7144746399496
 30
0.0
  0
VERTEX
  5
3F7
  8
RIB_WEDGES
 10
89.38297829741731
 20
17.71447463994966
 30
0.0
  0
VERTEX
  5
3F8
  8
RIB_WEDGES
 10
91.48685355682136
 20
17.71447463994966
 30
0.0
  0
VERTEX
  5
3F9
  8
RIB_WEDGES
 10
91.35098712229825
 20
19.71447463994961
 30
0.0
  0
SEQEND
  5
5BC
  8
RIB_WEDGES
  0
POLYLINE
  5
EF
  8
RIB_WEDGES
 66
     1
 10
0.0
 20
0.0
 30
0.0
 70
     1
  0
VERTEX
  5
3FA
  8
RIB_WEDGES
 10
93.76421518652339
 20
19.7144746399496
 30
0.0
  0
VERTEX
  5
3FB
  8
RIB_WEDGES
 10
92.87271999134447
 20
19.7144746399496
 30
0.0
  0
VERTEX
  5
3FC
  8
RIB_WEDGES
 10
92.73685355682136
 20
17.71447463994966
 30
0.0
  0
VERTEX
  5
3FD
  8
RIB_WEDGES
 10
94.84072881622541
 20
17.71447463994966
 30
0.0
  0
VERTEX
  5
3FE
  8
RIB_WEDGES
 10
94.7048623817023
 20
19.71447463994961
 30
0.0
  0
SEQEND
  5
5BD
  8
RIB_WEDGES
  0
POLYLINE
  5
F0
  8
RIB_WEDGES
 66
     1
 10
0.0
 20
0.0
 30
0.0
 70
     1
  0
VERTEX
  5
3FF
  8
RIB_WEDGES
 10
70.28708837069505
 20
22.97447463994955
 30
0.0
  0
VERTEX
  5
400
  8
RIB_WEDGES
 10
69.39559317551613
 20
22.97447463994955
 30
0.0
  0
VERTEX
  5
401
  8
RIB_WEDGES
 10
69.25972674099302
 20
20.97447463994961
 30
0.0
  0
VERTEX
  5
402
  8
RIB_WEDGES
 10
71.36360200039707
 20
20.97447463994961
 30
0.0
  0
VERTEX
  5
403
  8
RIB_WEDGES
 10
71.22773556587396
 20
22.97447463994956
 30
0.0
  0
SEQEND
  5
5BE
  8
RIB_WEDGES
  0
POLYLINE
  5
F1
  8
RIB_WEDGES
 66
     1
 10
0.0
 20
0.0
 30
0.0
 70
     1
  0
VERTEX
  5
404
  8
RIB_WEDGES
 10
73.6409636300991
 20
22.97447463994955
 30
0.0
  0
VERTEX
  5
405
  8
RIB_WEDGES
 10
72.74946843492017
 20
22.97447463994955
 30
0.0
  0
VERTEX
  5
406
  8
RIB_WEDGES
 10
72.61360200039707
 20
20.97447463994961
 30
0.0
  0
VERTEX
  5
407
  8
RIB_WEDGES
 10
74.71747725980111
 20
20.97447463994961
 30
0.0
  0
VERTEX
  5
408
  8
RIB_WEDGES
 10
74.581610825278
 20
22.97447463994956
 30
0.0
  0
SEQEND
  5
5BF
  8
RIB_WEDGES
  0
POLYLINE
  5
F2
  8
RIB_WEDGES
 66
     1
 10
0.0
 20
0.0
 30
0.0
 70
     1
  0
VERTEX
  5
409
  8
RIB_WEDGES
 10
76.99483888950314
 20
22.97447463994955
 30
0.0
  0
VERTEX
  5
40A
  8
RIB_WEDGES
 10
76.10334369432422
 20
22.97447463994955
 30
0.0
  0
VERTEX
  5
40B
  8
RIB_WEDGES
 10
75.96747725980111
 20
20.97447463994961
 30
0.0
  0
VERTEX
  5
40C
  8
RIB_WEDGES
 10
78.07135251920516
 20
20.97447463994961
 30
0.0
  0
VERTEX
  5
40D
  8
RIB_WEDGES
 10
77.93548608468205
 20
22.97447463994956
 30
0.0
  0
SEQEND
  5
5C0
  8
RIB_WEDGES
  0
POLYLINE
  5
F3
  8
RIB_WEDGES
 66
     1
 10
0.0
 20
0.0
 30
0.0
 70
     1
  0
VERTEX
  5
40E
  8
RIB_WEDGES
 10
80.34871414890719
 20
22.97447463994955
 30
0.0
  0
VERTEX
  5
40F
  8
RIB_WEDGES
 10
79.45721895372827
 20
22.97447463994955
 30
0.0
  0
VERTEX
  5
410
  8
RIB_WEDGES
 10
79.32135251920516
 20
20.97447463994961
 30
0.0
  0
VERTEX
  5
411
  8
RIB_WEDGES
 10
81.42522777860921
 20
20.97447463994961
 30
0.0
  0
VERTEX
  5
412
  8
RIB_WEDGES
 10
81.2893613440861
 20
22.97447463994956
 30
0.0
  0
SEQEND
  5
5C1
  8
RIB_WEDGES
  0
POLYLINE
  5
F4
  8
RIB_WEDGES
 66
     1
 10
0.0
 20
0.0
 30
0.0
 70
     1
  0
VERTEX
  5
413
  8
RIB_WEDGES
 10
83.70258940831124
 20
22.97447463994955
 30
0.0
  0
VERTEX
  5
414
  8
RIB_WEDGES
 10
82.81109421313232
 20
22.97447463994955
 30
0.0
  0
VERTEX
  5
415
  8
RIB_WEDGES
 10
82.67522777860921
 20
20.97447463994961
 30
0.0
  0
VERTEX
  5
416
  8
RIB_WEDGES
 10
84.77910303801326
 20
20.97447463994961
 30
0.0
  0
VERTEX
  5
417
  8
RIB_WEDGES
 10
84.64323660349015
 20
22.97447463994956
 30
0.0
  0
SEQEND
  5
5C2
  8
RIB_WEDGES
  0
POLYLINE
  5
F5
  8
RIB_WEDGES
 66
     1
 10
0.0
 20
0.0
 30
0.0
 70
     1
  0
VERTEX
  5
418
  8
RIB_WEDGES
 10
87.05646466771529
 20
22.97447463994955
 30
0.0
  0
VERTEX
  5
419
  8
RIB_WEDGES
 10
86.16496947253637
 20
22.97447463994955
 30
0.0
  0
VERTEX
  5
41A
  8
RIB_WEDGES
 10
86.02910303801326
 20
20.97447463994961
 30
0.0
  0
VERTEX
  5
41B
  8
RIB_WEDGES
 10
88.13297829741731
 20
20.97447463994961
 30
0.0
  0
VERTEX
  5
41C
  8
RIB_WEDGES
 10
87.9971118628942
 20
22.97447463994956
 30
0.0
  0
SEQEND
  5
5C3
  8
RIB_WEDGES
  0
POLYLINE
  5
F6
  8
RIB_WEDGES
 66
     1
 10
0.0
 20
0.0
 30
0.0
 70
     1
  0
VERTEX
  5
41D
  8
RIB_WEDGES
 10
90.41033992711934
 20
22.97447463994955
 30
0.0
  0
VERTEX
  5
41E
  8
RIB_WEDGES
 10
89.51884473194042
 20
22.97447463994955
 30
0.0
  0
VERTEX
  5
41F
  8
RIB_WEDGES
 10
89.38297829741731
 20
20.97447463994961
 30
0.0
  0
VERTEX
  5
420
  8
RIB_WEDGES
 10
91.48685355682136
 20
20.97447463994961
 30
0.0
  0
VERTEX
  5
421
  8
RIB_WEDGES
 10
91.35098712229825
 20
22.97447463994956
 30
0.0
  0
SEQEND
  5
5C4
  8
RIB_WEDGES
  0
POLYLINE
  5
F7
  8
RIB_WEDGES
 66
     1
 10
0.0
 20
0.0
 30
0.0
 70
     1
  0
VERTEX
  5
422
  8
RIB_WEDGES
 10
93.76421518652339
 20
22.97447463994955
 30
0.0
  0
VERTEX
  5
423
  8
RIB_WEDGES
 10
92.87271999134447
 20
22.97447463994955
 30
0.0
  0
VERTEX
  5
424
  8
RIB_WEDGES
 10
92.73685355682136
 20
20.97447463994961
 30
0.0
  0
VERTEX
  5
425
  8
RIB_WEDGES
 10
94.84072881622541
 20
20.97447463994961
 30
0.0
  0
VERTEX
  5
426
  8
RIB_WEDGES
 10
94.7048623817023
 20
22.97447463994956
 30
0.0
  0
SEQEND
  5
5C5
  8
RIB_WEDGES
  0
POLYLINE
  5
F8
  8
RIB_WEDGES
 66
     1
 10
0.0
 20
0.0
 30
0.0
 70
     1
  0
VERTEX
  5
427
  8
RIB_WEDGES
 10
70.28708837069505
 20
26.2344746399495
 30
0.0
  0
VERTEX
  5
428
  8
RIB_WEDGES
 10
69.39559317551613
 20
26.2344746399495
 30
0.0
  0
VERTEX
  5
429
  8
RIB_WEDGES
 10
69.25972674099302
 20
24.23447463994955
 30
0.0
  0
VERTEX
  5
42A
  8
RIB_WEDGES
 10
71.36360200039707
 20
24.23447463994956
 30
0.0
  0
VERTEX
  5
42B
  8
RIB_WEDGES
 10
71.22773556587396
 20
26.2344746399495
 30
0.0
  0
SEQEND
  5
5C6
  8
RIB_WEDGES
  0
POLYLINE
  5
F9
  8
RIB_WEDGES
 66
     1
 10
0.0
 20
0.0
 30
0.0
 70
     1
  0
VERTEX
  5
42C
  8
RIB_WEDGES
 10
73.6409636300991
 20
26.2344746399495
 30
0.0
  0
VERTEX
  5
42D
  8
RIB_WEDGES
 10
72.74946843492017
 20
26.2344746399495
 30
0.0
  0
VERTEX
  5
42E
  8
RIB_WEDGES
 10
72.61360200039707
 20
24.23447463994955
 30
0.0
  0
VERTEX
  5
42F
  8
RIB_WEDGES
 10
74.71747725980111
 20
24.23447463994956
 30
0.0
  0
VERTEX
  5
430
  8
RIB_WEDGES
 10
74.581610825278
 20
26.2344746399495
 30
0.0
  0
SEQEND
  5
5C7
  8
RIB_WEDGES
  0
POLYLINE
  5
FA
  8
RIB_WEDGES
 66
     1
 10
0.0
 20
0.0
 30
0.0
 70
     1
  0
VERTEX
  5
431
  8
RIB_WEDGES
 10
76.99483888950314
 20
26.2344746399495
 30
0.0
  0
VERTEX
  5
432
  8
RIB_WEDGES
 10
76.10334369432422
 20
26.2344746399495
 30
0.0
  0
VERTEX
  5
433
  8
RIB_WEDGES
 10
75.96747725980111
 20
24.23447463994955
 30
0.0
  0
VERTEX
  5
434
  8
RIB_WEDGES
 10
78.07135251920516
 20
24.23447463994956
 30
0.0
  0
VERTEX
  5
435
  8
RIB_WEDGES
 10
77.93548608468205
 20
26.2344746399495
 30
0.0
  0
SEQEND
  5
5C8
  8
RIB_WEDGES
  0
POLYLINE
  5
FB
  8
RIB_WEDGES
 66
     1
 10
0.0
 20
0.0
 30
0.0
 70
     1
  0
VERTEX
  5
436
  8
RIB_WEDGES
 10
80.34871414890719
 20
26.2344746399495
 30
0.0
  0
VERTEX
  5
437
  8
RIB_WEDGES
 10
79.45721895372827
 20
26.2344746399495
 30
0.0
  0
VERTEX
  5
438
  8
RIB_WEDGES
 10
79.32135251920516
 20
24.23447463994955
 30
0.0
  0
VERTEX
  5
439
  8
RIB_WEDGES
 10
81.42522777860921
 20
24.23447463994956
 30
0.0
  0
VERTEX
  5
43A
  8
RIB_WEDGES
 10
81.2893613440861
 20
26.2344746399495
 30
0.0
  0
SEQEND
  5
5C9
  8
RIB_WEDGES
  0
POLYLINE
  5
FC
  8
RIB_WEDGES
 66
     1
 10
0.0
 20
0.0
 30
0.0
 70
     1
  0
VERTEX
  5
43B
  8
RIB_WEDGES
 10
83.70258940831124
 20
26.2344746399495
 30
0.0
  0
VERTEX
  5
43C
  8
RIB_WEDGES
 10
82.81109421313232
 20
26.2344746399495
 30
0.0
  0
VERTEX
  5
43D
  8
RIB_WEDGES
 10
82.67522777860921
 20
24.23447463994955
 30
0.0
  0
VERTEX
  5
43E
  8
RIB_WEDGES
 10
84.77910303801326
 20
24.23447463994956
 30
0.0
  0
VERTEX
  5
43F
  8
RIB_WEDGES
 10
84.64323660349015
 20
26.2344746399495
 30
0.0
  0
SEQEND
  5
5CA
  8
RIB_WEDGES
  0
POLYLINE
  5
FD
  8
RIB_WEDGES
 66
     1
 10
0.0
 20
0.0
 30
0.0
 70
     1
  0
VERTEX
  5
440
  8
RIB_WEDGES
 10
87.05646466771529
 20
26.2344746399495
 30
0.0
  0
VERTEX
  5
441
  8
RIB_WEDGES
 10
86.16496947253637
 20
26.2344746399495
 30
0.0
  0
VERTEX
  5
442
  8
RIB_WEDGES
 10
86.02910303801326
 20
24.23447463994955
 30
0.0
  0
VERTEX
  5
443
  8
RIB_WEDGES
 10
88.13297829741731
 20
24.23447463994956
 30
0.0
  0
VERTEX
  5
444
  8
RIB_WEDGES
 10
87.9971118628942
 20
26.2344746399495
 30
0.0
  0
SEQEND
  5
5CB
  8
RIB_WEDGES
  0
POLYLINE
  5
FE
  8
RIB_WEDGES
 66
     1
 10
0.0
 20
0.0
 30
0.0
 70
     1
  0
VERTEX
  5
445
  8
RIB_WEDGES
 10
90.41033992711934
 20
26.2344746399495
 30
0.0
  0
VERTEX
  5
446
  8
RIB_WEDGES
 10
89.51884473194042
 20
26.2344746399495
 30
0.0
  0
VERTEX
  5
447
  8
RIB_WEDGES
 10
89.38297829741731
 20
24.23447463994955
 30
0.0
  0
VERTEX
  5
448
  8
RIB_WEDGES
 10
91.48685355682136
 20
24.23447463994956
 30
0.0
  0
VERTEX
  5
449
  8
RIB_WEDGES
 10
91.35098712229825
 20
26.2344746399495
 30
0.0
  0
SEQEND
  5
5CC
  8
RIB_WEDGES
  0
POLYLINE
  5
FF
  8
RIB_WEDGES
 66
     1
 10
0.0
 20
0.0
 30
0.0
 70
     1
  0
VERTEX
  5
44A
  8
RIB_WEDGES
 10
93.76421518652339
 20
26.2344746399495
 30
0.0
  0
VERTEX
  5
44B
  8
RIB_WEDGES
 10
92.87271999134447
 20
26.2344746399495
 30
0.0
  0
VERTEX
  5
44C
  8
RIB_WEDGES
 10
92.73685355682136
 20
24.23447463994955
 30
0.0
  0
VERTEX
  5
44D
  8
RIB_WEDGES
 10
94.84072881622541
 20
24.23447463994956
 30
0.0
  0
VERTEX
  5
44E
  8
RIB_WEDGES
 10
94.7048623817023
 20
26.2344746399495
 30
0.0
  0
SEQEND
  5
5CD
  8
RIB_WEDGES
  0
POLYLINE
  5
100
  8
RIB_WEDGES
 66
     1
 10
0.0
 20
0.0
 30
0.0
 70
     1
  0
VERTEX
  5
44F
  8
RIB_WEDGES
 10
70.28708837069505
 20
29.49447463994944
 30
0.0
  0
VERTEX
  5
450
  8
RIB_WEDGES
 10
69.39559317551613
 20
29.49447463994944
 30
0.0
  0
VERTEX
  5
451
  8
RIB_WEDGES
 10
69.25972674099302
 20
27.4944746399495
 30
0.0
  0
VERTEX
  5
452
  8
RIB_WEDGES
 10
71.36360200039707
 20
27.4944746399495
 30
0.0
  0
VERTEX
  5
453
  8
RIB_WEDGES
 10
71.22773556587396
 20
29.49447463994944
 30
0.0
  0
SEQEND
  5
5CE
  8
RIB_WEDGES
  0
POLYLINE
  5
101
  8
RIB_WEDGES
 66
     1
 10
0.0
 20
0.0
 30
0.0
 70
     1
  0
VERTEX
  5
454
  8
RIB_WEDGES
 10
73.6409636300991
 20
29.49447463994944
 30
0.0
  0
VERTEX
  5
455
  8
RIB_WEDGES
 10
72.74946843492017
 20
29.49447463994944
 30
0.0
  0
VERTEX
  5
456
  8
RIB_WEDGES
 10
72.61360200039707
 20
27.4944746399495
 30
0.0
  0
VERTEX
  5
457
  8
RIB_WEDGES
 10
74.71747725980111
 20
27.4944746399495
 30
0.0
  0
VERTEX
  5
458
  8
RIB_WEDGES
 10
74.581610825278
 20
29.49447463994944
 30
0.0
  0
SEQEND
  5
5CF
  8
RIB_WEDGES
  0
POLYLINE
  5
102
  8
RIB_WEDGES
 66
     1
 10
0.0
 20
0.0
 30
0.0
 70
     1
  0
VERTEX
  5
459
  8
RIB_WEDGES
 10
76.99483888950314
 20
29.49447463994944
 30
0.0
  0
VERTEX
  5
45A
  8
RIB_WEDGES
 10
76.10334369432422
 20
29.49447463994944
 30
0.0
  0
VERTEX
  5
45B
  8
RIB_WEDGES
 10
75.96747725980111
 20
27.4944746399495
 30
0.0
  0
VERTEX
  5
45C
  8
RIB_WEDGES
 10
78.07135251920516
 20
27.4944746399495
 30
0.0
  0
VERTEX
  5
45D
  8
RIB_WEDGES
 10
77.93548608468205
 20
29.49447463994944
 30
0.0
  0
SEQEND
  5
5D0
  8
RIB_WEDGES
  0
POLYLINE
  5
103
  8
RIB_WEDGES
 66
     1
 10
0.0
 20
0.0
 30
0.0
 70
     1
  0
VERTEX
  5
45E
  8
RIB_WEDGES
 10
80.34871414890719
 20
29.49447463994944
 30
0.0
  0
VERTEX
  5
45F
  8
RIB_WEDGES
 10
79.45721895372827
 20
29.49447463994944
 30
0.0
  0
VERTEX
  5
460
  8
RIB_WEDGES
 10
79.32135251920516
 20
27.4944746399495
 30
0.0
  0
VERTEX
  5
461
  8
RIB_WEDGES
 10
81.42522777860921
 20
27.4944746399495
 30
0.0
  0
VERTEX
  5
462
  8
RIB_WEDGES
 10
81.2893613440861
 20
29.49447463994944
 30
0.0
  0
SEQEND
  5
5D1
  8
RIB_WEDGES
  0
POLYLINE
  5
104
  8
RIB_WEDGES
 66
     1
 10
0.0
 20
0.0
 30
0.0
 70
     1
  0
VERTEX
  5
463
  8
RIB_WEDGES
 10
83.70258940831124
 20
29.49447463994944
 30
0.0
  0
VERTEX
  5
464
  8
RIB_WEDGES
 10
82.81109421313232
 20
29.49447463994944
 30
0.0
  0
VERTEX
  5
465
  8
RIB_WEDGES
 10
82.67522777860921
 20
27.4944746399495
 30
0.0
  0
VERTEX
  5
466
  8
RIB_WEDGES
 10
84.77910303801326
 20
27.4944746399495
 30
0.0
  0
VERTEX
  5
467
  8
RIB_WEDGES
 10
84.64323660349015
 20
29.49447463994944
 30
0.0
  0
SEQEND
  5
5D2
  8
RIB_WEDGES
  0
POLYLINE
  5
105
  8
RIB_WEDGES
 66
     1
 10
0.0
 20
0.0
 30
0.0
 70
     1
  0
VERTEX
  5
468
  8
RIB_WEDGES
 10
87.05646466771529
 20
29.49447463994944
 30
0.0
  0
VERTEX
  5
469
  8
RIB_WEDGES
 10
86.16496947253637
 20
29.49447463994944
 30
0.0
  0
VERTEX
  5
46A
  8
RIB_WEDGES
 10
86.02910303801326
 20
27.4944746399495
 30
0.0
  0
VERTEX
  5
46B
  8
RIB_WEDGES
 10
88.13297829741731
 20
27.4944746399495
 30
0.0
  0
VERTEX
  5
46C
  8
RIB_WEDGES
 10
87.9971118628942
 20
29.49447463994944
 30
0.0
  0
SEQEND
  5
5D3
  8
RIB_WEDGES
  0
POLYLINE
  5
106
  8
RIB_WEDGES
 66
     1
 10
0.0
 20
0.0
 30
0.0
 70
     1
  0
VERTEX
  5
46D
  8
RIB_WEDGES
 10
90.41033992711934
 20
29.49447463994944
 30
0.0
  0
VERTEX
  5
46E
  8
RIB_WEDGES
 10
89.51884473194042
 20
29.49447463994944
 30
0.0
  0
VERTEX
  5
46F
  8
RIB_WEDGES
 10
89.38297829741731
 20
27.4944746399495
 30
0.0
  0
VERTEX
  5
470
  8
RIB_WEDGES
 10
91.48685355682136
 20
27.4944746399495
 30
0.0
  0
VERTEX
  5
471
  8
RIB_WEDGES
 10
91.35098712229825
 20
29.49447463994944
 30
0.0
  0
SEQEND
  5
5D4
  8
RIB_WEDGES
  0
POLYLINE
  5
107
  8
RIB_WEDGES
 66
     1
 10
0.0
 20
0.0
 30
0.0
 70
     1
  0
VERTEX
  5
472
  8
RIB_WEDGES
 10
93.76421518652339
 20
29.49447463994944
 30
0.0
  0
VERTEX
  5
473
  8
RIB_WEDGES
 10
92.87271999134447
 20
29.49447463994944
 30
0.0
  0
VERTEX
  5
474
  8
RIB_WEDGES
 10
92.73685355682136
 20
27.4944746399495
 30
0.0
  0
VERTEX
  5
475
  8
RIB_WEDGES
 10
94.84072881622541
 20
27.4944746399495
 30
0.0
  0
VERTEX
  5
476
  8
RIB_WEDGES
 10
94.7048623817023
 20
29.49447463994944
 30
0.0
  0
SEQEND
  5
5D5
  8
RIB_WEDGES
  0
POLYLINE
  5
108
  8
RIB_WEDGES
 66
     1
 10
0.0
 20
0.0
 30
0.0
 70
     1
  0
VERTEX
  5
477
  8
RIB_WEDGES
 10
70.28708837069505
 20
32.75447463994939
 30
0.0
  0
VERTEX
  5
478
  8
RIB_WEDGES
 10
69.39559317551613
 20
32.75447463994939
 30
0.0
  0
VERTEX
  5
479
  8
RIB_WEDGES
 10
69.25972674099302
 20
30.75447463994944
 30
0.0
  0
VERTEX
  5
47A
  8
RIB_WEDGES
 10
71.36360200039707
 20
30.75447463994945
 30
0.0
  0
VERTEX
  5
47B
  8
RIB_WEDGES
 10
71.22773556587396
 20
32.75447463994939
 30
0.0
  0
SEQEND
  5
5D6
  8
RIB_WEDGES
  0
POLYLINE
  5
109
  8
RIB_WEDGES
 66
     1
 10
0.0
 20
0.0
 30
0.0
 70
     1
  0
VERTEX
  5
47C
  8
RIB_WEDGES
 10
73.6409636300991
 20
32.75447463994939
 30
0.0
  0
VERTEX
  5
47D
  8
RIB_WEDGES
 10
72.74946843492017
 20
32.75447463994939
 30
0.0
  0
VERTEX
  5
47E
  8
RIB_WEDGES
 10
72.61360200039707
 20
30.75447463994944
 30
0.0
  0
VERTEX
  5
47F
  8
RIB_WEDGES
 10
74.71747725980111
 20
30.75447463994945
 30
0.0
  0
VERTEX
  5
480
  8
RIB_WEDGES
 10
74.581610825278
 20
32.75447463994939
 30
0.0
  0
SEQEND
  5
5D7
  8
RIB_WEDGES
  0
POLYLINE
  5
10A
  8
RIB_WEDGES
 66
     1
 10
0.0
 20
0.0
 30
0.0
 70
     1
  0
VERTEX
  5
481
  8
RIB_WEDGES
 10
76.99483888950314
 20
32.75447463994939
 30
0.0
  0
VERTEX
  5
482
  8
RIB_WEDGES
 10
76.10334369432422
 20
32.75447463994939
 30
0.0
  0
VERTEX
  5
483
  8
RIB_WEDGES
 10
75.96747725980111
 20
30.75447463994944
 30
0.0
  0
VERTEX
  5
484
  8
RIB_WEDGES
 10
78.07135251920516
 20
30.75447463994945
 30
0.0
  0
VERTEX
  5
485
  8
RIB_WEDGES
 10
77.93548608468205
 20
32.75447463994939
 30
0.0
  0
SEQEND
  5
5D8
  8
RIB_WEDGES
  0
POLYLINE
  5
10B
  8
RIB_WEDGES
 66
     1
 10
0.0
 20
0.0
 30
0.0
 70
     1
  0
VERTEX
  5
486
  8
RIB_WEDGES
 10
80.34871414890719
 20
32.75447463994939
 30
0.0
  0
VERTEX
  5
487
  8
RIB_WEDGES
 10
79.45721895372827
 20
32.75447463994939
 30
0.0
  0
VERTEX
  5
488
  8
RIB_WEDGES
 10
79.32135251920516
 20
30.75447463994944
 30
0.0
  0
VERTEX
  5
489
  8
RIB_WEDGES
 10
81.42522777860921
 20
30.75447463994945
 30
0.0
  0
VERTEX
  5
48A
  8
RIB_WEDGES
 10
81.2893613440861
 20
32.75447463994939
 30
0.0
  0
SEQEND
  5
5D9
  8
RIB_WEDGES
  0
POLYLINE
  5
10C
  8
RIB_WEDGES
 66
     1
 10
0.0
 20
0.0
 30
0.0
 70
     1
  0
VERTEX
  5
48B
  8
RIB_WEDGES
 10
83.70258940831124
 20
32.75447463994939
 30
0.0
  0
VERTEX
  5
48C
  8
RIB_WEDGES
 10
82.81109421313232
 20
32.75447463994939
 30
0.0
  0
VERTEX
  5
48D
  8
RIB_WEDGES
 10
82.67522777860921
 20
30.75447463994944
 30
0.0
  0
VERTEX
  5
48E
  8
RIB_WEDGES
 10
84.77910303801326
 20
30.75447463994945
 30
0.0
  0
VERTEX
  5
48F
  8
RIB_WEDGES
 10
84.64323660349015
 20
32.75447463994939
 30
0.0
  0
SEQEND
  5
5DA
  8
RIB_WEDGES
  0
POLYLINE
  5
10D
  8
RIB_WEDGES
 66
     1
 10
0.0
 20
0.0
 30
0.0
 70
     1
  0
VERTEX
  5
490
  8
RIB_WEDGES
 10
87.05646466771529
 20
32.75447463994939
 30
0.0
  0
VERTEX
  5
491
  8
RIB_WEDGES
 10
86.16496947253637
 20
32.75447463994939
 30
0.0
  0
VERTEX
  5
492
  8
RIB_WEDGES
 10
86.02910303801326
 20
30.75447463994944
 30
0.0
  0
VERTEX
  5
493
  8
RIB_WEDGES
 10
88.13297829741731
 20
30.75447463994945
 30
0.0
  0
VERTEX
  5
494
  8
RIB_WEDGES
 10
87.9971118628942
 20
32.75447463994939
 30
0.0
  0
SEQEND
  5
5DB
  8
RIB_WEDGES
  0
POLYLINE
  5
10E
  8
RIB_WEDGES
 66
     1
 10
0.0
 20
0.0
 30
0.0
 70
     1
  0
VERTEX
  5
495
  8
RIB_WEDGES
 10
90.41033992711934
 20
32.75447463994939
 30
0.0
  0
VERTEX
  5
496
  8
RIB_WEDGES
 10
89.51884473194042
 20
32.75447463994939
 30
0.0
  0
VERTEX
  5
497
  8
RIB_WEDGES
 10
89.38297829741731
 20
30.75447463994944
 30
0.0
  0
VERTEX
  5
498
  8
RIB_WEDGES
 10
91.48685355682136
 20
30.75447463994945
 30
0.0
  0
VERTEX
  5
499
  8
RIB_WEDGES
 10
91.35098712229825
 20
32.75447463994939
 30
0.0
  0
SEQEND
  5
5DC
  8
RIB_WEDGES
  0
POLYLINE
  5
10F
  8
RIB_WEDGES
 66
     1
 10
0.0
 20
0.0
 30
0.0
 70
     1
  0
VERTEX
  5
49A
  8
RIB_WEDGES
 10
93.76421518652339
 20
32.75447463994939
 30
0.0
  0
VERTEX
  5
49B
  8
RIB_WEDGES
 10
92.87271999134447
 20
32.75447463994939
 30
0.0
  0
VERTEX
  5
49C
  8
RIB_WEDGES
 10
92.73685355682136
 20
30.75447463994944
 30
0.0
  0
VERTEX
  5
49D
  8
RIB_WEDGES
 10
94.84072881622541
 20
30.75447463994945
 30
0.0
  0
VERTEX
  5
49E
  8
RIB_WEDGES
 10
94.7048623817023
 20
32.75447463994939
 30
0.0
  0
SEQEND
  5
5DD
  8
RIB_WEDGES
  0
POLYLINE
  5
110
  8
RIB_WEDGES
 66
     1
 10
0.0
 20
0.0
 30
0.0
 70
     1
  0
VERTEX
  5
49F
  8
RIB_WEDGES
 10
70.28708837069505
 20
36.01447463994933
 30
0.0
  0
VERTEX
  5
4A0
  8
RIB_WEDGES
 10
69.39559317551613
 20
36.01447463994933
 30
0.0
  0
VERTEX
  5
4A1
  8
RIB_WEDGES
 10
69.25972674099302
 20
34.01447463994939
 30
0.0
  0
VERTEX
  5
4A2
  8
RIB_WEDGES
 10
71.36360200039707
 20
34.01447463994939
 30
0.0
  0
VERTEX
  5
4A3
  8
RIB_WEDGES
 10
71.22773556587396
 20
36.01447463994933
 30
0.0
  0
SEQEND
  5
5DE
  8
RIB_WEDGES
  0
POLYLINE
  5
111
  8
RIB_WEDGES
 66
     1
 10
0.0
 20
0.0
 30
0.0
 70
     1
  0
VERTEX
  5
4A4
  8
RIB_WEDGES
 10
73.6409636300991
 20
36.01447463994933
 30
0.0
  0
VERTEX
  5
4A5
  8
RIB_WEDGES
 10
72.74946843492017
 20
36.01447463994933
 30
0.0
  0
VERTEX
  5
4A6
  8
RIB_WEDGES
 10
72.61360200039707
 20
34.01447463994939
 30
0.0
  0
VERTEX
  5
4A7
  8
RIB_WEDGES
 10
74.71747725980111
 20
34.01447463994939
 30
0.0
  0
VERTEX
  5
4A8
  8
RIB_WEDGES
 10
74.581610825278
 20
36.01447463994933
 30
0.0
  0
SEQEND
  5
5DF
  8
RIB_WEDGES
  0
POLYLINE
  5
112
  8
RIB_WEDGES
 66
     1
 10
0.0
 20
0.0
 30
0.0
 70
     1
  0
VERTEX
  5
4A9
  8
RIB_WEDGES
 10
76.99483888950314
 20
36.01447463994933
 30
0.0
  0
VERTEX
  5
4AA
  8
RIB_WEDGES
 10
76.10334369432422
 20
36.01447463994933
 30
0.0
  0
VERTEX
  5
4AB
  8
RIB_WEDGES
 10
75.96747725980111
 20
34.01447463994939
 30
0.0
  0
VERTEX
  5
4AC
  8
RIB_WEDGES
 10
78.07135251920516
 20
34.01447463994939
 30
0.0
  0
VERTEX
  5
4AD
  8
RIB_WEDGES
 10
77.93548608468205
 20
36.01447463994933
 30
0.0
  0
SEQEND
  5
5E0
  8
RIB_WEDGES
  0
POLYLINE
  5
113
  8
RIB_WEDGES
 66
     1
 10
0.0
 20
0.0
 30
0.0
 70
     1
  0
VERTEX
  5
4AE
  8
RIB_WEDGES
 10
80.34871414890719
 20
36.01447463994933
 30
0.0
  0
VERTEX
  5
4AF
  8
RIB_WEDGES
 10
79.45721895372827
 20
36.01447463994933
 30
0.0
  0
VERTEX
  5
4B0
  8
RIB_WEDGES
 10
79.32135251920516
 20
34.01447463994939
 30
0.0
  0
VERTEX
  5
4B1
  8
RIB_WEDGES
 10
81.42522777860921
 20
34.01447463994939
 30
0.0
  0
VERTEX
  5
4B2
  8
RIB_WEDGES
 10
81.2893613440861
 20
36.01447463994933
 30
0.0
  0
SEQEND
  5
5E1
  8
RIB_WEDGES
  0
POLYLINE
  5
114
  8
RIB_WEDGES
 66
     1
 10
0.0
 20
0.0
 30
0.0
 70
     1
  0
VERTEX
  5
4B3
  8
RIB_WEDGES
 10
83.70258940831124
 20
36.01447463994933
 30
0.0
  0
VERTEX
  5
4B4
  8
RIB_WEDGES
 10
82.81109421313232
 20
36.01447463994933
 30
0.0
  0
VERTEX
  5
4B5
  8
RIB_WEDGES
 10
82.67522777860921
 20
34.01447463994939
 30
0.0
  0
VERTEX
  5
4B6
  8
RIB_WEDGES
 10
84.77910303801326
 20
34.01447463994939
 30
0.0
  0
VERTEX
  5
4B7
  8
RIB_WEDGES
 10
84.64323660349015
 20
36.01447463994933
 30
0.0
  0
SEQEND
  5
5E2
  8
RIB_WEDGES
  0
POLYLINE
  5
115
  8
RIB_WEDGES
 66
     1
 10
0.0
 20
0.0
 30
0.0
 70
     1
  0
VERTEX
  5
4B8
  8
RIB_WEDGES
 10
87.05646466771529
 20
36.01447463994933
 30
0.0
  0
VERTEX
  5
4B9
  8
RIB_WEDGES
 10
86.16496947253637
 20
36.01447463994933
 30
0.0
  0
VERTEX
  5
4BA
  8
RIB_WEDGES
 10
86.02910303801326
 20
34.01447463994939
 30
0.0
  0
VERTEX
  5
4BB
  8
RIB_WEDGES
 10
88.13297829741731
 20
34.01447463994939
 30
0.0
  0
VERTEX
  5
4BC
  8
RIB_WEDGES
 10
87.9971118628942
 20
36.01447463994933
 30
0.0
  0
SEQEND
  5
5E3
  8
RIB_WEDGES
  0
POLYLINE
  5
116
  8
RIB_WEDGES
 66
     1
 10
0.0
 20
0.0
 30
0.0
 70
     1
  0
VERTEX
  5
4BD
  8
RIB_WEDGES
 10
90.41033992711934
 20
36.01447463994933
 30
0.0
  0
VERTEX
  5
4BE
  8
RIB_WEDGES
 10
89.51884473194042
 20
36.01447463994933
 30
0.0
  0
VERTEX
  5
4BF
  8
RIB_WEDGES
 10
89.38297829741731
 20
34.01447463994939
 30
0.0
  0
VERTEX
  5
4C0
  8
RIB_WEDGES
 10
91.48685355682136
 20
34.01447463994939
 30
0.0
  0
VERTEX
  5
4C1
  8
RIB_WEDGES
 10
91.35098712229825
 20
36.01447463994933
 30
0.0
  0
SEQEND
  5
5E4
  8
RIB_WEDGES
  0
POLYLINE
  5
117
  8
RIB_WEDGES
 66
     1
 10
0.0
 20
0.0
 30
0.0
 70
     1
  0
VERTEX
  5
4C2
  8
RIB_WEDGES
 10
93.76421518652339
 20
36.01447463994933
 30
0.0
  0
VERTEX
  5
4C3
  8
RIB_WEDGES
 10
92.87271999134447
 20
36.01447463994933
 30
0.0
  0
VERTEX
  5
4C4
  8
RIB_WEDGES
 10
92.73685355682136
 20
34.01447463994939
 30
0.0
  0
VERTEX
  5
4C5
  8
RIB_WEDGES
 10
94.84072881622541
 20
34.01447463994939
 30
0.0
  0
VERTEX
  5
4C6
  8
RIB_WEDGES
 10
94.7048623817023
 20
36.01447463994933
 30
0.0
  0
SEQEND
  5
5E5
  8
RIB_WEDGES
  0
POLYLINE
  5
118
  8
RIB_WEDGES
 66
     1
 10
0.0
 20
0.0
 30
0.0
 70
     1
  0
VERTEX
  5
4C7
  8
RIB_WEDGES
 10
70.28708837069505
 20
39.27447463994928
 30
0.0
  0
VERTEX
  5
4C8
  8
RIB_WEDGES
 10
69.39559317551613
 20
39.27447463994928
 30
0.0
  0
VERTEX
  5
4C9
  8
RIB_WEDGES
 10
69.25972674099302
 20
37.27447463994934
 30
0.0
  0
VERTEX
  5
4CA
  8
RIB_WEDGES
 10
71.36360200039707
 20
37.27447463994934
 30
0.0
  0
VERTEX
  5
4CB
  8
RIB_WEDGES
 10
71.22773556587396
 20
39.27447463994928
 30
0.0
  0
SEQEND
  5
5E6
  8
RIB_WEDGES
  0
POLYLINE
  5
119
  8
RIB_WEDGES
 66
     1
 10
0.0
 20
0.0
 30
0.0
 70
     1
  0
VERTEX
  5
4CC
  8
RIB_WEDGES
 10
73.6409636300991
 20
39.27447463994928
 30
0.0
  0
VERTEX
  5
4CD
  8
RIB_WEDGES
 10
72.74946843492017
 20
39.27447463994928
 30
0.0
  0
VERTEX
  5
4CE
  8
RIB_WEDGES
 10
72.61360200039707
 20
37.27447463994934
 30
0.0
  0
VERTEX
  5
4CF
  8
RIB_WEDGES
 10
74.71747725980111
 20
37.27447463994934
 30
0.0
  0
VERTEX
  5
4D0
  8
RIB_WEDGES
 10
74.581610825278
 20
39.27447463994928
 30
0.0
  0
SEQEND
  5
5E7
  8
RIB_WEDGES
  0
POLYLINE
  5
11A
  8
RIB_WEDGES
 66
     1
 10
0.0
 20
0.0
 30
0.0
 70
     1
  0
VERTEX
  5
4D1
  8
RIB_WEDGES
 10
76.99483888950314
 20
39.27447463994928
 30
0.0
  0
VERTEX
  5
4D2
  8
RIB_WEDGES
 10
76.10334369432422
 20
39.27447463994928
 30
0.0
  0
VERTEX
  5
4D3
  8
RIB_WEDGES
 10
75.96747725980111
 20
37.27447463994934
 30
0.0
  0
VERTEX
  5
4D4
  8
RIB_WEDGES
 10
78.07135251920516
 20
37.27447463994934
 30
0.0
  0
VERTEX
  5
4D5
  8
RIB_WEDGES
 10
77.93548608468205
 20
39.27447463994928
 30
0.0
  0
SEQEND
  5
5E8
  8
RIB_WEDGES
  0
POLYLINE
  5
11B
  8
RIB_WEDGES
 66
     1
 10
0.0
 20
0.0
 30
0.0
 70
     1
  0
VERTEX
  5
4D6
  8
RIB_WEDGES
 10
80.34871414890719
 20
39.27447463994928
 30
0.0
  0
VERTEX
  5
4D7
  8
RIB_WEDGES
 10
79.45721895372827
 20
39.27447463994928
 30
0.0
  0
VERTEX
  5
4D8
  8
RIB_WEDGES
 10
79.32135251920516
 20
37.27447463994934
 30
0.0
  0
VERTEX
  5
4D9
  8
RIB_WEDGES
 10
81.42522777860921
 20
37.27447463994934
 30
0.0
  0
VERTEX
  5
4DA
  8
RIB_WEDGES
 10
81.2893613440861
 20
39.27447463994928
 30
0.0
  0
SEQEND
  5
5E9
  8
RIB_WEDGES
  0
POLYLINE
  5
11C
  8
RIB_WEDGES
 66
     1
 10
0.0
 20
0.0
 30
0.0
 70
     1
  0
VERTEX
  5
4DB
  8
RIB_WEDGES
 10
83.70258940831124
 20
39.27447463994928
 30
0.0
  0
VERTEX
  5
4DC
  8
RIB_WEDGES
 10
82.81109421313232
 20
39.27447463994928
 30
0.0
  0
VERTEX
  5
4DD
  8
RIB_WEDGES
 10
82.67522777860921
 20
37.27447463994934
 30
0.0
  0
VERTEX
  5
4DE
  8
RIB_WEDGES
 10
84.77910303801326
 20
37.27447463994934
 30
0.0
  0
VERTEX
  5
4DF
  8
RIB_WEDGES
 10
84.64323660349015
 20
39.27447463994928
 30
0.0
  0
SEQEND
  5
5EA
  8
RIB_WEDGES
  0
POLYLINE
  5
11D
  8
RIB_WEDGES
 66
     1
 10
0.0
 20
0.0
 30
0.0
 70
     1
  0
VERTEX
  5
4E0
  8
RIB_WEDGES
 10
87.05646466771529
 20
39.27447463994928
 30
0.0
  0
VERTEX
  5
4E1
  8
RIB_WEDGES
 10
86.16496947253637
 20
39.27447463994928
 30
0.0
  0
VERTEX
  5
4E2
  8
RIB_WEDGES
 10
86.02910303801326
 20
37.27447463994934
 30
0.0
  0
VERTEX
  5
4E3
  8
RIB_WEDGES
 10
88.13297829741731
 20
37.27447463994934
 30
0.0
  0
VERTEX
  5
4E4
  8
RIB_WEDGES
 10
87.9971118628942
 20
39.27447463994928
 30
0.0
  0
SEQEND
  5
5EB
  8
RIB_WEDGES
  0
POLYLINE
  5
11E
  8
RIB_WEDGES
 66
     1
 10
0.0
 20
0.0
 30
0.0
 70
     1
  0
VERTEX
  5
4E5
  8
RIB_WEDGES
 10
90.41033992711934
 20
39.27447463994928
 30
0.0
  0
VERTEX
  5
4E6
  8
RIB_WEDGES
 10
89.51884473194042
 20
39.27447463994928
 30
0.0
  0
VERTEX
  5
4E7
  8
RIB_WEDGES
 10
89.38297829741731
 20
37.27447463994934
 30
0.0
  0
VERTEX
  5
4E8
  8
RIB_WEDGES
 10
91.48685355682136
 20
37.27447463994934
 30
0.0
  0
VERTEX
  5
4E9
  8
RIB_WEDGES
 10
91.35098712229825
 20
39.27447463994928
 30
0.0
  0
SEQEND
  5
5EC
  8
RIB_WEDGES
  0
POLYLINE
  5
11F
  8
RIB_WEDGES
 66
     1
 10
0.0
 20
0.0
 30
0.0
 70
     1
  0
VERTEX
  5
4EA
  8
RIB_WEDGES
 10
93.76421518652339
 20
39.27447463994928
 30
0.0
  0
VERTEX
  5
4EB
  8
RIB_WEDGES
 10
92.87271999134447
 20
39.27447463994928
 30
0.0
  0
VERTEX
  5
4EC
  8
RIB_WEDGES
 10
92.73685355682136
 20
37.27447463994934
 30
0.0
  0
VERTEX
  5
4ED
  8
RIB_WEDGES
 10
94.84072881622541
 20
37.27447463994934
 30
0.0
  0
VERTEX
  5
4EE
  8
RIB_WEDGES
 10
94.7048623817023
 20
39.27447463994928
 30
0.0
  0
SEQEND
  5
5ED
  8
RIB_WEDGES
  0
POLYLINE
  5
120
  8
RIB_WEDGES
 66
     1
 10
0.0
 20
0.0
 30
0.0
 70
     1
  0
VERTEX
  5
4EF
  8
RIB_WEDGES
 10
70.28708837069505
 20
42.53447463994923
 30
0.0
  0
VERTEX
  5
4F0
  8
RIB_WEDGES
 10
69.39559317551613
 20
42.53447463994922
 30
0.0
  0
VERTEX
  5
4F1
  8
RIB_WEDGES
 10
69.25972674099302
 20
40.53447463994929
 30
0.0
  0
VERTEX
  5
4F2
  8
RIB_WEDGES
 10
71.36360200039707
 20
40.53447463994929
 30
0.0
  0
VERTEX
  5
4F3
  8
RIB_WEDGES
 10
71.22773556587396
 20
42.53447463994923
 30
0.0
  0
SEQEND
  5
5EE
  8
RIB_WEDGES
  0
POLYLINE
  5
121
  8
RIB_WEDGES
 66
     1
 10
0.0
 20
0.0
 30
0.0
 70
     1
  0
VERTEX
  5
4F4
  8
RIB_WEDGES
 10
73.6409636300991
 20
42.53447463994923
 30
0.0
  0
VERTEX
  5
4F5
  8
RIB_WEDGES
 10
72.74946843492017
 20
42.53447463994922
 30
0.0
  0
VERTEX
  5
4F6
  8
RIB_WEDGES
 10
72.61360200039707
 20
40.53447463994929
 30
0.0
  0
VERTEX
  5
4F7
  8
RIB_WEDGES
 10
74.71747725980111
 20
40.53447463994929
 30
0.0
  0
VERTEX
  5
4F8
  8
RIB_WEDGES
 10
74.581610825278
 20
42.53447463994923
 30
0.0
  0
SEQEND
  5
5EF
  8
RIB_WEDGES
  0
POLYLINE
  5
122
  8
RIB_WEDGES
 66
     1
 10
0.0
 20
0.0
 30
0.0
 70
     1
  0
VERTEX
  5
4F9
  8
RIB_WEDGES
 10
76.99483888950314
 20
42.53447463994923
 30
0.0
  0
VERTEX
  5
4FA
  8
RIB_WEDGES
 10
76.10334369432422
 20
42.53447463994922
 30
0.0
  0
VERTEX
  5
4FB
  8
RIB_WEDGES
 10
75.96747725980111
 20
40.53447463994929
 30
0.0
  0
VERTEX
  5
4FC
  8
RIB_WEDGES
 10
78.07135251920516
 20
40.53447463994929
 30
0.0
  0
VERTEX
  5
4FD
  8
RIB_WEDGES
 10
77.93548608468205
 20
42.53447463994923
 30
0.0
  0
SEQEND
  5
5F0
  8
RIB_WEDGES
  0
POLYLINE
  5
123
  8
RIB_WEDGES
 66
     1
 10
0.0
 20
0.0
 30
0.0
 70
     1
  0
VERTEX
  5
4FE
  8
RIB_WEDGES
 10
80.34871414890719
 20
42.53447463994923
 30
0.0
  0
VERTEX
  5
4FF
  8
RIB_WEDGES
 10
79.45721895372827
 20
42.53447463994922
 30
0.0
  0
VERTEX
  5
500
  8
RIB_WEDGES
 10
79.32135251920516
 20
40.53447463994929
 30
0.0
  0
VERTEX
  5
501
  8
RIB_WEDGES
 10
81.42522777860921
 20
40.53447463994929
 30
0.0
  0
VERTEX
  5
502
  8
RIB_WEDGES
 10
81.2893613440861
 20
42.53447463994923
 30
0.0
  0
SEQEND
  5
5F1
  8
RIB_WEDGES
  0
POLYLINE
  5
124
  8
RIB_WEDGES
 66
     1
 10
0.0
 20
0.0
 30
0.0
 70
     1
  0
VERTEX
  5
503
  8
RIB_WEDGES
 10
83.70258940831124
 20
42.53447463994923
 30
0.0
  0
VERTEX
  5
504
  8
RIB_WEDGES
 10
82.81109421313232
 20
42.53447463994922
 30
0.0
  0
VERTEX
  5
505
  8
RIB_WEDGES
 10
82.67522777860921
 20
40.53447463994929
 30
0.0
  0
VERTEX
  5
506
  8
RIB_WEDGES
 10
84.77910303801326
 20
40.53447463994929
 30
0.0
  0
VERTEX
  5
507
  8
RIB_WEDGES
 10
84.64323660349015
 20
42.53447463994923
 30
0.0
  0
SEQEND
  5
5F2
  8
RIB_WEDGES
  0
POLYLINE
  5
125
  8
RIB_WEDGES
 66
     1
 10
0.0
 20
0.0
 30
0.0
 70
     1
  0
VERTEX
  5
508
  8
RIB_WEDGES
 10
87.05646466771529
 20
42.53447463994923
 30
0.0
  0
VERTEX
  5
509
  8
RIB_WEDGES
 10
86.16496947253637
 20
42.53447463994922
 30
0.0
  0
VERTEX
  5
50A
  8
RIB_WEDGES
 10
86.02910303801326
 20
40.53447463994929
 30
0.0
  0
VERTEX
  5
50B
  8
RIB_WEDGES
 10
88.13297829741731
 20
40.53447463994929
 30
0.0
  0
VERTEX
  5
50C
  8
RIB_WEDGES
 10
87.9971118628942
 20
42.53447463994923
 30
0.0
  0
SEQEND
  5
5F3
  8
RIB_WEDGES
  0
POLYLINE
  5
126
  8
RIB_WEDGES
 66
     1
 10
0.0
 20
0.0
 30
0.0
 70
     1
  0
VERTEX
  5
50D
  8
RIB_WEDGES
 10
90.41033992711934
 20
42.53447463994923
 30
0.0
  0
VERTEX
  5
50E
  8
RIB_WEDGES
 10
89.51884473194042
 20
42.53447463994922
 30
0.0
  0
VERTEX
  5
50F
  8
RIB_WEDGES
 10
89.38297829741731
 20
40.53447463994929
 30
0.0
  0
VERTEX
  5
510
  8
RIB_WEDGES
 10
91.48685355682136
 20
40.53447463994929
 30
0.0
  0
VERTEX
  5
511
  8
RIB_WEDGES
 10
91.35098712229825
 20
42.53447463994923
 30
0.0
  0
SEQEND
  5
5F4
  8
RIB_WEDGES
  0
POLYLINE
  5
127
  8
RIB_WEDGES
 66
     1
 10
0.0
 20
0.0
 30
0.0
 70
     1
  0
VERTEX
  5
512
  8
RIB_WEDGES
 10
93.76421518652339
 20
42.53447463994923
 30
0.0
  0
VERTEX
  5
513
  8
RIB_WEDGES
 10
92.87271999134447
 20
42.53447463994922
 30
0.0
  0
VERTEX
  5
514
  8
RIB_WEDGES
 10
92.73685355682136
 20
40.53447463994929
 30
0.0
  0
VERTEX
  5
515
  8
RIB_WEDGES
 10
94.84072881622541
 20
40.53447463994929
 30
0.0
  0
VERTEX
  5
516
  8
RIB_WEDGES
 10
94.7048623817023
 20
42.53447463994923
 30
0.0
  0
SEQEND
  5
5F5
  8
RIB_WEDGES
  0
POLYLINE
  5
128
  8
RIB_WEDGES
 66
     1
 10
0.0
 20
0.0
 30
0.0
 70
     1
  0
VERTEX
  5
517
  8
RIB_WEDGES
 10
70.28708837069505
 20
45.79447463994917
 30
0.0
  0
VERTEX
  5
518
  8
RIB_WEDGES
 10
69.39559317551613
 20
45.79447463994916
 30
0.0
  0
VERTEX
  5
519
  8
RIB_WEDGES
 10
69.25972674099302
 20
43.79447463994923
 30
0.0
  0
VERTEX
  5
51A
  8
RIB_WEDGES
 10
71.36360200039707
 20
43.79447463994923
 30
0.0
  0
VERTEX
  5
51B
  8
RIB_WEDGES
 10
71.22773556587396
 20
45.79447463994917
 30
0.0
  0
SEQEND
  5
5F6
  8
RIB_WEDGES
  0
POLYLINE
  5
129
  8
RIB_WEDGES
 66
     1
 10
0.0
 20
0.0
 30
0.0
 70
     1
  0
VERTEX
  5
51C
  8
RIB_WEDGES
 10
73.6409636300991
 20
45.79447463994917
 30
0.0
  0
VERTEX
  5
51D
  8
RIB_WEDGES
 10
72.74946843492017
 20
45.79447463994916
 30
0.0
  0
VERTEX
  5
51E
  8
RIB_WEDGES
 10
72.61360200039707
 20
43.79447463994923
 30
0.0
  0
VERTEX
  5
51F
  8
RIB_WEDGES
 10
74.71747725980111
 20
43.79447463994923
 30
0.0
  0
VERTEX
  5
520
  8
RIB_WEDGES
 10
74.581610825278
 20
45.79447463994917
 30
0.0
  0
SEQEND
  5
5F7
  8
RIB_WEDGES
  0
POLYLINE
  5
12A
  8
RIB_WEDGES
 66
     1
 10
0.0
 20
0.0
 30
0.0
 70
     1
  0
VERTEX
  5
521
  8
RIB_WEDGES
 10
76.99483888950314
 20
45.79447463994917
 30
0.0
  0
VERTEX
  5
522
  8
RIB_WEDGES
 10
76.10334369432422
 20
45.79447463994916
 30
0.0
  0
VERTEX
  5
523
  8
RIB_WEDGES
 10
75.96747725980111
 20
43.79447463994923
 30
0.0
  0
VERTEX
  5
524
  8
RIB_WEDGES
 10
78.07135251920516
 20
43.79447463994923
 30
0.0
  0
VERTEX
  5
525
  8
RIB_WEDGES
 10
77.93548608468205
 20
45.79447463994917
 30
0.0
  0
SEQEND
  5
5F8
  8
RIB_WEDGES
  0
POLYLINE
  5
12B
  8
RIB_WEDGES
 66
     1
 10
0.0
 20
0.0
 30
0.0
 70
     1
  0
VERTEX
  5
526
  8
RIB_WEDGES
 10
80.34871414890719
 20
45.79447463994917
 30
0.0
  0
VERTEX
  5
527
  8
RIB_WEDGES
 10
79.45721895372827
 20
45.79447463994916
 30
0.0
  0
VERTEX
  5
528
  8
RIB_WEDGES
 10
79.32135251920516
 20
43.79447463994923
 30
0.0
  0
VERTEX
  5
529
  8
RIB_WEDGES
 10
81.42522777860921
 20
43.79447463994923
 30
0.0
  0
VERTEX
  5
52A
  8
RIB_WEDGES
 10
81.2893613440861
 20
45.79447463994917
 30
0.0
  0
SEQEND
  5
5F9
  8
RIB_WEDGES
  0
POLYLINE
  5
12C
  8
RIB_WEDGES
 66
     1
 10
0.0
 20
0.0
 30
0.0
 70
     1
  0
VERTEX
  5
52B
  8
RIB_WEDGES
 10
83.70258940831124
 20
45.79447463994917
 30
0.0
  0
VERTEX
  5
52C
  8
RIB_WEDGES
 10
82.81109421313232
 20
45.79447463994916
 30
0.0
  0
VERTEX
  5
52D
  8
RIB_WEDGES
 10
82.67522777860921
 20
43.79447463994923
 30
0.0
  0
VERTEX
  5
52E
  8
RIB_WEDGES
 10
84.77910303801326
 20
43.79447463994923
 30
0.0
  0
VERTEX
  5
52F
  8
RIB_WEDGES
 10
84.64323660349015
 20
45.79447463994917
 30
0.0
  0
SEQEND
  5
5FA
  8
RIB_WEDGES
  0
POLYLINE
  5
12D
  8
RIB_WEDGES
 66
     1
 10
0.0
 20
0.0
 30
0.0
 70
     1
  0
VERTEX
  5
530
  8
RIB_WEDGES
 10
87.05646466771529
 20
45.79447463994917
 30
0.0
  0
VERTEX
  5
531
  8
RIB_WEDGES
 10
86.16496947253637
 20
45.79447463994916
 30
0.0
  0
VERTEX
  5
532
  8
RIB_WEDGES
 10
86.02910303801326
 20
43.79447463994923
 30
0.0
  0
VERTEX
  5
533
  8
RIB_WEDGES
 10
88.13297829741731
 20
43.79447463994923
 30
0.0
  0
VERTEX
  5
534
  8
RIB_WEDGES
 10
87.9971118628942
 20
45.79447463994917
 30
0.0
  0
SEQEND
  5
5FB
  8
RIB_WEDGES
  0
POLYLINE
  5
12E
  8
RIB_WEDGES
 66
     1
 10
0.0
 20
0.0
 30
0.0
 70
     1
  0
VERTEX
  5
535
  8
RIB_WEDGES
 10
90.41033992711934
 20
45.79447463994917
 30
0.0
  0
VERTEX
  5
536
  8
RIB_WEDGES
 10
89.51884473194042
 20
45.79447463994916
 30
0.0
  0
VERTEX
  5
537
  8
RIB_WEDGES
 10
89.38297829741731
 20
43.79447463994923
 30
0.0
  0
VERTEX
  5
538
  8
RIB_WEDGES
 10
91.48685355682136
 20
43.79447463994923
 30
0.0
  0
VERTEX
  5
539
  8
RIB_WEDGES
 10
91.35098712229825
 20
45.79447463994917
 30
0.0
  0
SEQEND
  5
5FC
  8
RIB_WEDGES
  0
POLYLINE
  5
12F
  8
RIB_WEDGES
 66
     1
 10
0.0
 20
0.0
 30
0.0
 70
     1
  0
VERTEX
  5
53A
  8
RIB_WEDGES
 10
93.76421518652339
 20
45.79447463994917
 30
0.0
  0
VERTEX
  5
53B
  8
RIB_WEDGES
 10
92.87271999134447
 20
45.79447463994916
 30
0.0
  0
VERTEX
  5
53C
  8
RIB_WEDGES
 10
92.73685355682136
 20
43.79447463994923
 30
0.0
  0
VERTEX
  5
53D
  8
RIB_WEDGES
 10
94.84072881622541
 20
43.79447463994923
 30
0.0
  0
VERTEX
  5
53E
  8
RIB_WEDGES
 10
94.7048623817023
 20
45.79447463994917
 30
0.0
  0
SEQEND
  5
5FD
  8
RIB_WEDGES
  0
ENDSEC
  0
EOF
