  0
SECTION
  2
HEADER
  9
$ACADVER
  1
AC1009
  9
$DWGCODEPAGE
  3
ansi_1252
  9
$INSBASE
 10
0.0
 20
0.0
 30
0.0
  9
$EXTMIN
 10
1.496383844708639
 20
0.4628991859736595
 30
0.0
  9
$EXTMAX
 10
68.24638384470882
 20
39.9628991859737
 30
0.0
  9
$LIMMIN
 10
0.0
 20
0.0
  9
$LIMMAX
 10
12.0
 20
9.0
  9
$ORTHOMODE
 70
     0
  9
$REGENMODE
 70
     1
  9
$FILLMODE
 70
     1
  9
$QTEXTMODE
 70
     0
  9
$MIRRTEXT
 70
     1
  9
$DRAGMODE
 70
     2
  9
$LTSCALE
 40
1.0
  9
$OSMODE
 70
    37
  9
$ATTMODE
 70
     1
  9
$TEXTSIZE
 40
0.2
  9
$TRACEWID
 40
0.05
  9
$TEXTSTYLE
  7
STANDARD
  9
$CLAYER
  8
0
  9
$CELTYPE
  6
BYLAYER
  9
$CECOLOR
 62
   256
  9
$DIMSCALE
 40
1.0
  9
$DIMASZ
 40
0.18
  9
$DIMEXO
 40
0.0625
  9
$DIMDLI
 40
0.38
  9
$DIMRND
 40
0.0
  9
$DIMDLE
 40
0.0
  9
$DIMEXE
 40
0.18
  9
$DIMTP
 40
0.0
  9
$DIMTM
 40
0.0
  9
$DIMTXT
 40
0.18
  9
$DIMCEN
 40
0.09
  9
$DIMTSZ
 40
0.0
  9
$DIMTOL
 70
     0
  9
$DIMLIM
 70
     0
  9
$DIMTIH
 70
     1
  9
$DIMTOH
 70
     1
  9
$DIMSE1
 70
     0
  9
$DIMSE2
 70
     0
  9
$DIMTAD
 70
     0
  9
$DIMZIN
 70
     0
  9
$DIMBLK
  1

  9
$DIMASO
 70
     1
  9
$DIMSHO
 70
     1
  9
$DIMPOST
  1

  9
$DIMAPOST
  1

  9
$DIMALT
 70
     0
  9
$DIMALTD
 70
     2
  9
$DIMALTF
 40
25.4
  9
$DIMLFAC
 40
1.0
  9
$DIMTOFL
 70
     0
  9
$DIMTVP
 40
0.0
  9
$DIMTIX
 70
     0
  9
$DIMSOXD
 70
     0
  9
$DIMSAH
 70
     0
  9
$DIMBLK1
  1

  9
$DIMBLK2
  1

  9
$DIMSTYLE
  2
STANDARD
  9
$DIMCLRD
 70
     0
  9
$DIMCLRE
 70
     0
  9
$DIMCLRT
 70
     0
  9
$DIMTFAC
 40
1.0
  9
$DIMGAP
 40
0.09
  9
$LUNITS
 70
     2
  9
$LUPREC
 70
     4
  9
$SKETCHINC
 40
0.1
  9
$FILLETRAD
 40
0.5
  9
$AUNITS
 70
     0
  9
$AUPREC
 70
     0
  9
$MENU
  1
.
  9
$ELEVATION
 40
0.0
  9
$PELEVATION
 40
0.0
  9
$THICKNESS
 40
0.0
  9
$LIMCHECK
 70
     0
  9
$CHAMFERA
 40
0.0
  9
$CHAMFERB
 40
0.0
  9
$SKPOLY
 70
     0
  9
$TDCREATE
 40
2454910.5
  9
$TDUPDATE
 40
2457883.434099086
  9
$TDINDWG
 40
0.0000000116
  9
$TDUSRTIMER
 40
0.0000000116
  9
$USRTIMER
 70
     1
  9
$ANGBASE
 50
0.0
  9
$ANGDIR
 70
     0
  9
$PDMODE
 70
     0
  9
$PDSIZE
 40
0.0
  9
$PLINEWID
 40
0.0
  9
$COORDS
 70
     1
  9
$SPLFRAME
 70
     0
  9
$SPLINETYPE
 70
     6
  9
$SPLINESEGS
 70
     8
  9
$ATTDIA
 70
     0
  9
$ATTREQ
 70
     1
  9
$HANDLING
 70
     1
  9
$HANDSEED
  5
110
  9
$SURFTAB1
 70
     6
  9
$SURFTAB2
 70
     6
  9
$SURFTYPE
 70
     6
  9
$SURFU
 70
     6
  9
$SURFV
 70
     6
  9
$UCSNAME
  2

  9
$UCSORG
 10
0.0
 20
0.0
 30
0.0
  9
$UCSXDIR
 10
1.0
 20
0.0
 30
0.0
  9
$UCSYDIR
 10
0.0
 20
1.0
 30
0.0
  9
$PUCSNAME
  2

  9
$PUCSORG
 10
0.0
 20
0.0
 30
0.0
  9
$PUCSXDIR
 10
1.0
 20
0.0
 30
0.0
  9
$PUCSYDIR
 10
0.0
 20
1.0
 30
0.0
  9
$USERI1
 70
     0
  9
$USERI2
 70
     0
  9
$USERI3
 70
     0
  9
$USERI4
 70
     0
  9
$USERI5
 70
     0
  9
$USERR1
 40
0.0
  9
$USERR2
 40
0.0
  9
$USERR3
 40
0.0
  9
$USERR4
 40
0.0
  9
$USERR5
 40
0.0
  9
$WORLDVIEW
 70
     1
  9
$SHADEDGE
 70
     3
  9
$SHADEDIF
 70
    70
  9
$TILEMODE
 70
     1
  9
$MAXACTVP
 70
    64
  9
$PLIMCHECK
 70
     0
  9
$PEXTMIN
 10
1.000000000000000E+20
 20
1.000000000000000E+20
 30
1.000000000000000E+20
  9
$PEXTMAX
 10
-1.000000000000000E+20
 20
-1.000000000000000E+20
 30
-1.000000000000000E+20
  9
$PLIMMIN
 10
0.0
 20
0.0
  9
$PLIMMAX
 10
12.0
 20
9.0
  9
$UNITMODE
 70
     0
  9
$VISRETAIN
 70
     1
  9
$PLINEGEN
 70
     0
  9
$PSLTSCALE
 70
     1
  0
ENDSEC
  0
SECTION
  2
TABLES
  0
TABLE
  2
VPORT
 70
     1
  0
VPORT
  2
*ACTIVE
 70
     0
 10
0.0
 20
0.0
 11
1.0
 21
1.0
 12
10.42990654205607
 22
4.5
 13
0.0
 23
0.0
 14
0.5
 24
0.5
 15
0.5
 25
0.5
 16
0.0
 26
0.0
 36
1.0
 17
0.0
 27
0.0
 37
0.0
 40
9.0
 41
1.972972972850329
 42
50.0
 43
0.0
 44
0.0
 50
0.0
 51
0.0
 71
     0
 72
   100
 73
     1
 74
     3
 75
     0
 76
     0
 77
     0
 78
     0
  0
ENDTAB
  0
TABLE
  2
LTYPE
 70
     2
  0
LTYPE
  2
CONTINUOUS
 70
     0
  3
Solid line
 72
    65
 73
     0
 40
0.0
  0
LTYPE
  2
CONTINUOUS2
 70
     0
  3
Solid Line
 72
    65
 73
     0
 40
0.0
  0
ENDTAB
  0
TABLE
  2
LAYER
 70
     3
  0
LAYER
  2
0
 70
     0
 62
     7
  6
CONTINUOUS
  0
LAYER
  2
SCREW_LOCATION_RECESS
 70
     0
 62
     1
  6
CONTINUOUS
  0
LAYER
  2
HALF_INCH_CUTOUT
 70
     0
 62
    18
  6
CONTINUOUS
  0
ENDTAB
  0
TABLE
  2
STYLE
 70
     1
  0
STYLE
  2
STANDARD
 70
     0
 40
0.0
 41
1.0
 50
0.0
 71
     0
 42
0.2
  3
txt
  4

  0
ENDTAB
  0
TABLE
  2
VIEW
 70
     0
  0
ENDTAB
  0
TABLE
  2
UCS
 70
     0
  0
ENDTAB
  0
TABLE
  2
APPID
 70
     1
  0
APPID
  2
ACAD
 70
     0
  0
ENDTAB
  0
TABLE
  2
DIMSTYLE
 70
     1
  0
DIMSTYLE
  2
STANDARD
 70
     0
  3

  4

  5

  6

  7

 40
1.0
 41
0.18
 42
0.0625
 43
0.38
 44
0.18
 45
0.0
 46
0.0
 47
0.0
 48
0.0
140
0.18
141
0.09
142
0.0
143
25.4
144
1.0
145
0.0
146
1.0
147
0.09
 71
     0
 72
     0
 73
     1
 74
     1
 75
     0
 76
     0
 77
     0
 78
     0
170
     0
171
     2
172
     0
173
     0
174
     0
175
     0
176
     0
177
     0
178
     0
  0
ENDTAB
  0
ENDSEC
  0
SECTION
  2
BLOCKS
  0
BLOCK
  8
0
  2
$MODEL_SPACE
 70
     0
 10
0.0
 20
0.0
 30
0.0
  3
$MODEL_SPACE
  1

  0
ENDBLK
  5
21
  8
0
  0
BLOCK
 67
     1
  8
0
  2
$PAPER_SPACE
 70
     0
 10
0.0
 20
0.0
 30
0.0
  3
$PAPER_SPACE
  1

  0
ENDBLK
  5
1D
 67
     1
  8
0
  0
ENDSEC
  0
SECTION
  2
ENTITIES
  0
POLYLINE
  5
70
  8
SCREW_LOCATION_RECESS
 66
     1
 10
0.0
 20
0.0
 30
0.0
 70
     1
  0
VERTEX
  5
85
  8
SCREW_LOCATION_RECESS
 10
23.87138344658967
 20
34.10039919224329
 30
0.0
 42
0.4142135623730951
  0
VERTEX
  5
86
  8
SCREW_LOCATION_RECESS
 10
23.67138344658967
 20
33.90039919224328
 30
0.0
 42
0.4142135623730951
  0
VERTEX
  5
87
  8
SCREW_LOCATION_RECESS
 10
23.87138344658967
 20
33.70039919224328
 30
0.0
 42
0.4142135623730951
  0
VERTEX
  5
88
  8
SCREW_LOCATION_RECESS
 10
24.07138344658967
 20
33.90039919224328
 30
0.0
 42
0.4142135623730951
  0
SEQEND
  5
103
  8
SCREW_LOCATION_RECESS
  0
POLYLINE
  5
71
  8
SCREW_LOCATION_RECESS
 66
     1
 10
0.0
 20
0.0
 30
0.0
 70
     1
  0
VERTEX
  5
89
  8
SCREW_LOCATION_RECESS
 10
23.87138344658967
 20
24.97539919224329
 30
0.0
 42
0.4142135623730951
  0
VERTEX
  5
8A
  8
SCREW_LOCATION_RECESS
 10
23.67138344658967
 20
24.77539919224329
 30
0.0
 42
0.4142135623730951
  0
VERTEX
  5
8B
  8
SCREW_LOCATION_RECESS
 10
23.87138344658967
 20
24.57539919224329
 30
0.0
 42
0.4142135623730951
  0
VERTEX
  5
8C
  8
SCREW_LOCATION_RECESS
 10
24.07138344658967
 20
24.77539919224329
 30
0.0
 42
0.4142135623730951
  0
SEQEND
  5
104
  8
SCREW_LOCATION_RECESS
  0
POLYLINE
  5
72
  8
SCREW_LOCATION_RECESS
 66
     1
 10
0.0
 20
0.0
 30
0.0
 70
     1
  0
VERTEX
  5
8D
  8
SCREW_LOCATION_RECESS
 10
23.87138344658967
 20
15.85039919224329
 30
0.0
 42
0.4142135623730951
  0
VERTEX
  5
8E
  8
SCREW_LOCATION_RECESS
 10
23.67138344658967
 20
15.65039919224329
 30
0.0
 42
0.4142135623730951
  0
VERTEX
  5
8F
  8
SCREW_LOCATION_RECESS
 10
23.87138344658967
 20
15.45039919224329
 30
0.0
 42
0.4142135623730951
  0
VERTEX
  5
90
  8
SCREW_LOCATION_RECESS
 10
24.07138344658967
 20
15.65039919224329
 30
0.0
 42
0.4142135623730951
  0
SEQEND
  5
105
  8
SCREW_LOCATION_RECESS
  0
POLYLINE
  5
73
  8
SCREW_LOCATION_RECESS
 66
     1
 10
0.0
 20
0.0
 30
0.0
 70
     1
  0
VERTEX
  5
91
  8
SCREW_LOCATION_RECESS
 10
23.87138344658967
 20
6.725399192243291
 30
0.0
 42
0.4142135623730951
  0
VERTEX
  5
92
  8
SCREW_LOCATION_RECESS
 10
23.67138344658967
 20
6.52539919224329
 30
0.0
 42
0.4142135623730951
  0
VERTEX
  5
93
  8
SCREW_LOCATION_RECESS
 10
23.87138344658967
 20
6.325399192243291
 30
0.0
 42
0.4142135623730951
  0
VERTEX
  5
94
  8
SCREW_LOCATION_RECESS
 10
24.07138344658967
 20
6.52539919224329
 30
0.0
 42
0.4142135623730951
  0
SEQEND
  5
106
  8
SCREW_LOCATION_RECESS
  0
POLYLINE
  5
74
  8
SCREW_LOCATION_RECESS
 66
     1
 10
0.0
 20
0.0
 30
0.0
 70
     1
  0
VERTEX
  5
95
  8
SCREW_LOCATION_RECESS
 10
45.87138344658968
 20
6.725399192243291
 30
0.0
 42
0.4142135623730951
  0
VERTEX
  5
96
  8
SCREW_LOCATION_RECESS
 10
45.67138344658966
 20
6.52539919224329
 30
0.0
 42
0.4142135623730951
  0
VERTEX
  5
97
  8
SCREW_LOCATION_RECESS
 10
45.87138344658968
 20
6.325399192243291
 30
0.0
 42
0.4142135623730951
  0
VERTEX
  5
98
  8
SCREW_LOCATION_RECESS
 10
46.07138344658968
 20
6.52539919224329
 30
0.0
 42
0.4142135623730951
  0
SEQEND
  5
107
  8
SCREW_LOCATION_RECESS
  0
POLYLINE
  5
75
  8
SCREW_LOCATION_RECESS
 66
     1
 10
0.0
 20
0.0
 30
0.0
 70
     1
  0
VERTEX
  5
99
  8
SCREW_LOCATION_RECESS
 10
45.87138344658968
 20
15.85039919224329
 30
0.0
 42
0.4142135623730951
  0
VERTEX
  5
9A
  8
SCREW_LOCATION_RECESS
 10
45.67138344658966
 20
15.65039919224329
 30
0.0
 42
0.4142135623730951
  0
VERTEX
  5
9B
  8
SCREW_LOCATION_RECESS
 10
45.87138344658968
 20
15.45039919224329
 30
0.0
 42
0.4142135623730951
  0
VERTEX
  5
9C
  8
SCREW_LOCATION_RECESS
 10
46.07138344658968
 20
15.65039919224329
 30
0.0
 42
0.4142135623730951
  0
SEQEND
  5
108
  8
SCREW_LOCATION_RECESS
  0
POLYLINE
  5
76
  8
SCREW_LOCATION_RECESS
 66
     1
 10
0.0
 20
0.0
 30
0.0
 70
     1
  0
VERTEX
  5
9D
  8
SCREW_LOCATION_RECESS
 10
45.87138344658968
 20
24.97539919224329
 30
0.0
 42
0.4142135623730951
  0
VERTEX
  5
9E
  8
SCREW_LOCATION_RECESS
 10
45.67138344658966
 20
24.77539919224329
 30
0.0
 42
0.4142135623730951
  0
VERTEX
  5
9F
  8
SCREW_LOCATION_RECESS
 10
45.87138344658968
 20
24.57539919224329
 30
0.0
 42
0.4142135623730951
  0
VERTEX
  5
A0
  8
SCREW_LOCATION_RECESS
 10
46.07138344658968
 20
24.77539919224329
 30
0.0
 42
0.4142135623730951
  0
SEQEND
  5
109
  8
SCREW_LOCATION_RECESS
  0
POLYLINE
  5
77
  8
SCREW_LOCATION_RECESS
 66
     1
 10
0.0
 20
0.0
 30
0.0
 70
     1
  0
VERTEX
  5
A1
  8
SCREW_LOCATION_RECESS
 10
45.87138344658968
 20
34.10039919224329
 30
0.0
 42
0.4142135623730951
  0
VERTEX
  5
A2
  8
SCREW_LOCATION_RECESS
 10
45.67138344658966
 20
33.90039919224328
 30
0.0
 42
0.4142135623730951
  0
VERTEX
  5
A3
  8
SCREW_LOCATION_RECESS
 10
45.87138344658968
 20
33.70039919224328
 30
0.0
 42
0.4142135623730951
  0
VERTEX
  5
A4
  8
SCREW_LOCATION_RECESS
 10
46.07138344658968
 20
33.90039919224328
 30
0.0
 42
0.4142135623730951
  0
SEQEND
  5
10A
  8
SCREW_LOCATION_RECESS
  0
POLYLINE
  5
78
  8
SCREW_LOCATION_RECESS
 66
     1
 10
0.0
 20
0.0
 30
0.0
 70
     1
  0
VERTEX
  5
A5
  8
SCREW_LOCATION_RECESS
 10
67.87138344658969
 20
20.41289919224329
 30
0.0
 42
0.4142135623730951
  0
VERTEX
  5
A6
  8
SCREW_LOCATION_RECESS
 10
67.67138344658969
 20
20.21289919224329
 30
0.0
 42
0.4142135623730951
  0
VERTEX
  5
A7
  8
SCREW_LOCATION_RECESS
 10
67.87138344658969
 20
20.01289919224329
 30
0.0
 42
0.4142135623730951
  0
VERTEX
  5
A8
  8
SCREW_LOCATION_RECESS
 10
68.07138344658969
 20
20.21289919224329
 30
0.0
 42
0.4142135623730951
  0
SEQEND
  5
10B
  8
SCREW_LOCATION_RECESS
  0
POLYLINE
  5
7A
  8
HALF_INCH_CUTOUT
 66
     1
 10
0.0
 20
0.0
 30
0.0
 70
     1
  0
VERTEX
  5
A9
  8
HALF_INCH_CUTOUT
 10
55.87138384527483
 20
2.712899185973695
 30
0.0
  0
VERTEX
  5
AA
  8
HALF_INCH_CUTOUT
 10
55.87138384527483
 20
1.962899185973696
 30
0.0
 42
1.0
  0
VERTEX
  5
AB
  8
HALF_INCH_CUTOUT
 10
56.13217124684962
 20
1.962899185973696
 30
0.0
  0
VERTEX
  5
AC
  8
HALF_INCH_CUTOUT
 10
57.61059644370003
 20
1.962899185973696
 30
0.0
 42
1.0
  0
VERTEX
  5
AD
  8
HALF_INCH_CUTOUT
 10
57.87138384527483
 20
1.962899185973696
 30
0.0
  0
VERTEX
  5
AE
  8
HALF_INCH_CUTOUT
 10
57.87138384527483
 20
2.712899185973695
 30
0.0
 42
1.0
  0
VERTEX
  5
AF
  8
HALF_INCH_CUTOUT
 10
57.61059644370003
 20
2.712899185973695
 30
0.0
  0
VERTEX
  5
B0
  8
HALF_INCH_CUTOUT
 10
56.13217124684962
 20
2.712899185973695
 30
0.0
 42
1.0
  0
SEQEND
  5
10C
  8
HALF_INCH_CUTOUT
  0
POLYLINE
  5
7B
  8
HALF_INCH_CUTOUT
 66
     1
 10
0.0
 20
0.0
 30
0.0
 70
     1
  0
VERTEX
  5
B1
  8
HALF_INCH_CUTOUT
 10
33.87138384527483
 20
2.712899185973695
 30
0.0
  0
VERTEX
  5
B2
  8
HALF_INCH_CUTOUT
 10
33.87138384527483
 20
1.962899185973696
 30
0.0
 42
1.0
  0
VERTEX
  5
B3
  8
HALF_INCH_CUTOUT
 10
34.13217124684962
 20
1.962899185973696
 30
0.0
  0
VERTEX
  5
B4
  8
HALF_INCH_CUTOUT
 10
35.61059644370003
 20
1.962899185973696
 30
0.0
 42
1.0
  0
VERTEX
  5
B5
  8
HALF_INCH_CUTOUT
 10
35.87138384527483
 20
1.962899185973696
 30
0.0
  0
VERTEX
  5
B6
  8
HALF_INCH_CUTOUT
 10
35.87138384527483
 20
2.712899185973695
 30
0.0
 42
1.0
  0
VERTEX
  5
B7
  8
HALF_INCH_CUTOUT
 10
35.61059644370003
 20
2.712899185973695
 30
0.0
  0
VERTEX
  5
B8
  8
HALF_INCH_CUTOUT
 10
34.13217124684962
 20
2.712899185973695
 30
0.0
 42
1.0
  0
SEQEND
  5
10D
  8
HALF_INCH_CUTOUT
  0
POLYLINE
  5
7C
  8
HALF_INCH_CUTOUT
 66
     1
 10
0.0
 20
0.0
 30
0.0
 70
     1
  0
VERTEX
  5
B9
  8
HALF_INCH_CUTOUT
 10
11.87138384527483
 20
2.712899185973695
 30
0.0
  0
VERTEX
  5
BA
  8
HALF_INCH_CUTOUT
 10
11.87138384527483
 20
1.962899185973696
 30
0.0
 42
1.0
  0
VERTEX
  5
BB
  8
HALF_INCH_CUTOUT
 10
12.13217124684963
 20
1.962899185973696
 30
0.0
  0
VERTEX
  5
BC
  8
HALF_INCH_CUTOUT
 10
13.61059644370003
 20
1.962899185973696
 30
0.0
 42
1.0
  0
VERTEX
  5
BD
  8
HALF_INCH_CUTOUT
 10
13.87138384527483
 20
1.962899185973696
 30
0.0
  0
VERTEX
  5
BE
  8
HALF_INCH_CUTOUT
 10
13.87138384527483
 20
2.712899185973695
 30
0.0
 42
1.0
  0
VERTEX
  5
BF
  8
HALF_INCH_CUTOUT
 10
13.61059644370003
 20
2.712899185973695
 30
0.0
  0
VERTEX
  5
C0
  8
HALF_INCH_CUTOUT
 10
12.13217124684963
 20
2.712899185973695
 30
0.0
 42
1.0
  0
SEQEND
  5
10E
  8
HALF_INCH_CUTOUT
  0
POLYLINE
  5
7D
  8
HALF_INCH_CUTOUT
 66
     1
 10
0.0
 20
0.0
 30
0.0
 70
     1
  0
VERTEX
  5
C1
  8
HALF_INCH_CUTOUT
 10
2.266383844708805
 20
0.4628991859736595
 30
0.0
  0
VERTEX
  5
C2
  8
HALF_INCH_CUTOUT
 10
2.266383844708848
 20
3.702110784398828
 30
0.0
 42
1.0
  0
VERTEX
  5
C3
  8
HALF_INCH_CUTOUT
 10
2.266383844708862
 20
3.962898185973629
 30
0.0
  0
VERTEX
  5
C4
  8
HALF_INCH_CUTOUT
 10
1.496383844708809
 20
3.962898185973657
 30
0.0
  0
VERTEX
  5
C5
  8
HALF_INCH_CUTOUT
 10
1.496383844708809
 20
6.962898185973655
 30
0.0
  0
VERTEX
  5
C6
  8
HALF_INCH_CUTOUT
 10
2.266383844708848
 20
6.962898185973559
 30
0.0
 42
1.0
  0
VERTEX
  5
C7
  8
HALF_INCH_CUTOUT
 10
2.26638384470882
 20
7.223685587548319
 30
0.0
  0
VERTEX
  5
C8
  8
HALF_INCH_CUTOUT
 10
2.266383844708606
 20
18.45211078439877
 30
0.0
 42
1.0
  0
VERTEX
  5
C9
  8
HALF_INCH_CUTOUT
 10
2.266383844708606
 20
18.71289818597357
 30
0.0
  0
VERTEX
  5
CA
  8
HALF_INCH_CUTOUT
 10
1.496383844708639
 20
18.71289818597347
 30
0.0
  0
VERTEX
  5
CB
  8
HALF_INCH_CUTOUT
 10
1.496383844708838
 20
21.71289818597367
 30
0.0
  0
VERTEX
  5
CC
  8
HALF_INCH_CUTOUT
 10
2.266383844708805
 20
21.71289818597355
 30
0.0
 42
1.0
  0
VERTEX
  5
CD
  8
HALF_INCH_CUTOUT
 10
2.266383844708805
 20
21.97368558754835
 30
0.0
  0
VERTEX
  5
CE
  8
HALF_INCH_CUTOUT
 10
2.266383844708727
 20
33.20211078437187
 30
0.0
 42
1.0
  0
VERTEX
  5
CF
  8
HALF_INCH_CUTOUT
 10
2.26638384470872
 20
33.4628981859736
 30
0.0
  0
VERTEX
  5
D0
  8
HALF_INCH_CUTOUT
 10
1.496383844708809
 20
33.46289818597367
 30
0.0
  0
VERTEX
  5
D1
  8
HALF_INCH_CUTOUT
 10
1.496383844708809
 20
36.4628981859737
 30
0.0
  0
VERTEX
  5
D2
  8
HALF_INCH_CUTOUT
 10
2.266383844708521
 20
36.46289818597351
 30
0.0
 42
1.0
  0
VERTEX
  5
D3
  8
HALF_INCH_CUTOUT
 10
2.266383844708564
 20
36.72368558754832
 30
0.0
  0
VERTEX
  5
D4
  8
HALF_INCH_CUTOUT
 10
2.266383844708805
 20
39.9628991859737
 30
0.0
  0
VERTEX
  5
D5
  8
HALF_INCH_CUTOUT
 10
23.47638384470881
 20
39.9628991859737
 30
0.0
  0
VERTEX
  5
D6
  8
HALF_INCH_CUTOUT
 10
23.47638384470883
 20
38.72368658754839
 30
0.0
 42
1.0
  0
VERTEX
  5
D7
  8
HALF_INCH_CUTOUT
 10
23.47638384470883
 20
38.46289918597358
 30
0.0
  0
VERTEX
  5
D8
  8
HALF_INCH_CUTOUT
 10
24.2663838447088
 20
38.46289918597378
 30
0.0
 42
1.0
  0
VERTEX
  5
D9
  8
HALF_INCH_CUTOUT
 10
24.2663838447088
 20
38.72368658754858
 30
0.0
  0
VERTEX
  5
DA
  8
HALF_INCH_CUTOUT
 10
24.26638384470881
 20
39.9628991859737
 30
0.0
  0
VERTEX
  5
DB
  8
HALF_INCH_CUTOUT
 10
45.47638384470881
 20
39.9628991859737
 30
0.0
  0
VERTEX
  5
DC
  8
HALF_INCH_CUTOUT
 10
45.47638384470864
 20
38.72368658754861
 30
0.0
 42
1.0
  0
VERTEX
  5
DD
  8
HALF_INCH_CUTOUT
 10
45.47638384470861
 20
38.46289918597381
 30
0.0
  0
VERTEX
  5
DE
  8
HALF_INCH_CUTOUT
 10
46.26638384470903
 20
38.46289918597368
 30
0.0
 42
1.0
  0
VERTEX
  5
DF
  8
HALF_INCH_CUTOUT
 10
46.26638384470899
 20
38.72368658754848
 30
0.0
  0
VERTEX
  5
E0
  8
HALF_INCH_CUTOUT
 10
46.26638384470881
 20
39.9628991859737
 30
0.0
  0
VERTEX
  5
E1
  8
HALF_INCH_CUTOUT
 10
67.47638384470882
 20
39.9628991859737
 30
0.0
  0
VERTEX
  5
E2
  8
HALF_INCH_CUTOUT
 10
67.47638384470865
 20
38.72368658754861
 30
0.0
 42
1.0
  0
VERTEX
  5
E3
  8
HALF_INCH_CUTOUT
 10
67.47638384470861
 20
38.46289918597381
 30
0.0
  0
VERTEX
  5
E4
  8
HALF_INCH_CUTOUT
 10
67.87138384470882
 20
38.4628991859737
 30
0.0
  0
VERTEX
  5
E5
  8
HALF_INCH_CUTOUT
 10
67.87138384470882
 20
30.5253991859737
 30
0.0
  0
VERTEX
  5
E6
  8
HALF_INCH_CUTOUT
 10
67.49638384470904
 20
30.52539918597381
 30
0.0
 42
1.0
  0
VERTEX
  5
E7
  8
HALF_INCH_CUTOUT
 10
67.49638384470903
 20
30.26461178439901
 30
0.0
  0
VERTEX
  5
E8
  8
HALF_INCH_CUTOUT
 10
67.49638384470903
 20
23.97368658754815
 30
0.0
 42
1.0
  0
VERTEX
  5
E9
  8
HALF_INCH_CUTOUT
 10
67.49638384470903
 20
23.71289918597336
 30
0.0
  0
VERTEX
  5
EA
  8
HALF_INCH_CUTOUT
 10
68.24638384470882
 20
23.71289918597369
 30
0.0
  0
VERTEX
  5
EB
  8
HALF_INCH_CUTOUT
 10
68.24638384470882
 20
16.71289918597369
 30
0.0
  0
VERTEX
  5
EC
  8
HALF_INCH_CUTOUT
 10
67.49638384470882
 20
16.71289918597381
 30
0.0
 42
1.0
  0
VERTEX
  5
ED
  8
HALF_INCH_CUTOUT
 10
67.49638384470882
 20
16.45211178439901
 30
0.0
  0
VERTEX
  5
EE
  8
HALF_INCH_CUTOUT
 10
67.49638384470882
 20
10.16118658754861
 30
0.0
 42
1.0
  0
VERTEX
  5
EF
  8
HALF_INCH_CUTOUT
 10
67.49638384470882
 20
9.90039918597381
 30
0.0
  0
VERTEX
  5
F0
  8
HALF_INCH_CUTOUT
 10
67.87138384470882
 20
9.900399185973694
 30
0.0
  0
VERTEX
  5
F1
  8
HALF_INCH_CUTOUT
 10
67.87138384470882
 20
1.962899185973696
 30
0.0
  0
VERTEX
  5
F2
  8
HALF_INCH_CUTOUT
 10
67.47638384470872
 20
1.962899185973697
 30
0.0
 42
1.0
  0
VERTEX
  5
F3
  8
HALF_INCH_CUTOUT
 10
67.47638384470874
 20
1.702111784398897
 30
0.0
  0
VERTEX
  5
F4
  8
HALF_INCH_CUTOUT
 10
67.47638384470882
 20
0.4628991859736951
 30
0.0
  0
VERTEX
  5
F5
  8
HALF_INCH_CUTOUT
 10
46.26638384470881
 20
0.4628991859736951
 30
0.0
  0
VERTEX
  5
F6
  8
HALF_INCH_CUTOUT
 10
46.26638384470885
 20
1.702111784398872
 30
0.0
 42
1.0
  0
VERTEX
  5
F7
  8
HALF_INCH_CUTOUT
 10
46.26638384470886
 20
1.962899185973672
 30
0.0
  0
VERTEX
  5
F8
  8
HALF_INCH_CUTOUT
 10
45.47638384470878
 20
1.962899185973697
 30
0.0
 42
1.0
  0
VERTEX
  5
F9
  8
HALF_INCH_CUTOUT
 10
45.47638384470878
 20
1.702111784398897
 30
0.0
  0
VERTEX
  5
FA
  8
HALF_INCH_CUTOUT
 10
45.47638384470881
 20
0.4628991859736951
 30
0.0
  0
VERTEX
  5
FB
  8
HALF_INCH_CUTOUT
 10
24.26638384470881
 20
0.4628991859736951
 30
0.0
  0
VERTEX
  5
FC
  8
HALF_INCH_CUTOUT
 10
24.2663838447088
 20
1.702111784398911
 30
0.0
 42
1.0
  0
VERTEX
  5
FD
  8
HALF_INCH_CUTOUT
 10
24.2663838447088
 20
1.962899185973711
 30
0.0
  0
VERTEX
  5
FE
  8
HALF_INCH_CUTOUT
 10
23.47638384470881
 20
1.962899185973697
 30
0.0
 42
1.0
  0
VERTEX
  5
FF
  8
HALF_INCH_CUTOUT
 10
23.47638384470881
 20
1.702111784398897
 30
0.0
  0
VERTEX
  5
100
  8
HALF_INCH_CUTOUT
 10
23.47638384470881
 20
0.4628991859736951
 30
0.0
  0
SEQEND
  5
10F
  8
HALF_INCH_CUTOUT
  0
ENDSEC
  0
EOF
